<?xml version="1.0" encoding="UTF-8"?>
<svg width="352px" height="72px" viewBox="0 0 352 72" version="1.1" xmlns="http://www.w3.org/2000/svg" xmlns:xlink="http://www.w3.org/1999/xlink">
    <title>AirAsia-Login</title>
    <g id="Page-1" stroke="none" stroke-width="1" fill="none" fill-rule="evenodd">
        <g id="Prototype---Login-Copy-3" transform="translate(-785.000000, -303.000000)">
            <g id="AirAsia-Login" transform="translate(785.000000, 303.000000)">
                <rect id="Rectangle" fill="#FFFFFF" x="0" y="0" width="352" height="72"></rect>
                <g id="airasiacom_logo" transform="translate(48.000000, 8.000000)" fill="#FF0000" fill-rule="nonzero">
                    <path d="M183.455019,26.6445773 L185.160136,15.1811685 C181.439881,13.16734 176.247024,11.4633313 170.279115,11.4633313 C158.498306,11.4633313 152.065364,17.6597266 152.065364,25.6375856 C152.065364,34.0801742 159.738391,36.5587323 165.008753,38.3401959 C168.186471,39.5020201 170.666641,40.3540244 170.666641,42.0580331 C170.666641,43.4522221 169.03903,44.7689561 165.783806,44.7689561 C161.055982,44.7689561 154.468029,42.0581106 150.205237,38.2628184 L148.345109,50.8104415 C152.762912,54.063549 159.118348,56 165.861311,56 C177.564615,56 184.230073,50.2683343 184.230073,42.1355655 C184.230073,33.615522 177.022078,30.7496117 171.209179,28.6583283 C167.953955,27.4965042 165.628795,26.7994097 165.628795,25.1728559 C165.628795,23.778667 167.256407,22.6942978 170.589136,22.6942978 C175.394466,22.6942978 180.354806,24.9405685 183.455019,26.6445773 Z" id="Path"></path>
                    <path d="M34.1798482,12.6251554 L33.404795,16.3429926 C31.1571407,11.928061 24.4916831,11.4633313 20.9264383,11.4633313 C9.76567202,11.4633313 0,22.1521132 0,36.7910971 C0,48.5642482 7.1304911,56 16.043603,56 C21.0039436,56 25.2667363,54.8380984 28.7544757,50.7329865 L27.8244119,54.8381759 L29.8395502,54.8381759 L41.852875,54.8381759 L48.2858167,12.5477005 L34.1798482,12.5477005 L34.1798482,12.6251554 Z M22.4765447,41.9031232 C17.6712148,41.9031232 14.0284647,38.1853635 14.0284647,33.4606121 C14.0284647,28.8133156 17.7487201,25.017946 22.4765447,25.017946 C27.126864,25.017946 30.8471194,28.8133156 30.8471194,33.4606121 C30.8471194,38.1853635 27.126864,41.9031232 22.4765447,41.9031232 Z" id="Shape"></path>
                    <path d="M137.649375,12.6251554 L136.176773,12.6251554 L135.40172,16.3429926 C133.154066,11.928061 126.488608,11.4633313 122.923363,11.4633313 C111.762597,11.4633313 101.996927,22.1521132 101.996927,36.7910971 C101.996927,48.5642482 109.127416,56 118.040528,56 C123.000869,56 127.263661,54.8380984 130.751401,50.7329865 L129.821337,54.8381759 L131.836475,54.8381759 L143.8498,54.8381759 L150.282742,12.5477005 L137.649375,12.5477005 L137.649375,12.6251554 Z M124.47347,41.9031232 C119.66814,41.9031232 116.02539,38.1853635 116.02539,33.4606121 C116.02539,28.8133156 119.745645,25.017946 124.47347,25.017946 C129.123789,25.017946 132.844045,28.8133156 132.844045,33.4606121 C132.92155,38.1853635 129.123789,41.9031232 124.47347,41.9031232 Z" id="Shape"></path>
                    <path d="M243.366633,12.6251554 L241.894032,12.6251554 L241.118978,16.3429926 C238.871324,11.928061 232.205866,11.4633313 228.640622,11.4633313 C217.479855,11.4633313 207.714185,22.1521132 207.714185,36.7910971 C207.714185,48.5642482 214.844674,56 223.757786,56 C228.718127,56 232.98092,54.8380984 236.468659,50.7329865 L235.538595,54.8381759 L237.553734,54.8381759 L249.567058,54.8381759 L256,12.5477005 L243.366633,12.5477005 L243.366633,12.6251554 Z M230.190728,41.9031232 C225.385398,41.9031232 221.742648,38.1853635 221.742648,33.4606121 C221.742648,28.8133156 225.462903,25.017946 230.190728,25.017946 C234.841047,25.017946 238.561303,28.8133156 238.561303,33.4606121 C238.561303,38.1853635 234.841047,41.9031232 230.190728,41.9031232 Z" id="Shape"></path>
                    <path d="M61.8490154,14.1743317 C65.7442778,14.1743317 68.9019996,11.0186625 68.9019996,7.12593205 C68.9019996,3.23320936 65.7442778,0.0775308471 61.8490154,0.0775308471 C57.9537529,0.0775308471 54.7960311,3.23320936 54.7960311,7.12593205 C54.7960311,11.0186625 57.9537529,14.1743317 61.8490154,14.1743317 Z" id="Path"></path>
                    <path d="M61.771665,16.8851772 C58.7489575,16.8851772 56.0362713,15.4909883 54.2536489,13.3997048 L47.9757179,54.8381759 L62.0816863,54.8381759 L68.2046067,14.561529 C66.4219843,16.0331728 64.2518353,16.8851772 61.771665,16.8851772 Z" id="Path"></path>
                    <path d="M94.7889319,26.5671223 C98.6843493,26.5671223 101.841916,23.4114531 101.841916,19.5187227 C101.841916,15.6259922 98.6843493,12.470323 94.7889319,12.470323 C90.8935144,12.470323 87.7359477,15.6259922 87.7359477,19.5187227 C87.7359477,23.4114531 90.8935144,26.5671223 94.7889319,26.5671223 Z" id="Path"></path>
                    <path d="M84.9457561,19.5188001 C84.9457561,16.8078772 86.0308306,14.329319 87.813453,12.5478554 L74.560043,12.5478554 L68.1271014,54.8382533 L82.2330698,54.8382533 L86.7283785,25.0955559 C85.5657987,23.5464571 84.9457561,21.6100835 84.9457561,19.5188001 Z" id="Path"></path>
                    <path d="M200.351179,14.0967993 C204.246597,14.0967993 207.404164,10.9411301 207.404164,7.04839966 C207.404164,3.15567696 204.246597,0 200.351179,0 C196.455762,0 193.298195,3.15567696 193.298195,7.04839966 C193.298195,10.9411301 196.455762,14.0967993 200.351179,14.0967993 Z" id="Path"></path>
                    <path d="M200.351179,16.8851772 C197.250967,16.8851772 194.460775,15.4135333 192.600647,13.16734 L186.245211,54.8380984 L200.351179,54.8380984 L206.4741,14.7164388 C204.768983,16.1106278 202.676339,16.8851772 200.351179,16.8851772 Z" id="Path"></path>
                </g>
            </g>
        </g>
    </g>
</svg>