<?xml version="1.0" encoding="UTF-8"?>
<svg width="352px" height="72px" viewBox="0 0 352 72" version="1.1" xmlns="http://www.w3.org/2000/svg" xmlns:xlink="http://www.w3.org/1999/xlink">
    <title>AirCanada-Login</title>
    <g id="Taskboard" stroke="none" stroke-width="1" fill="none" fill-rule="evenodd">
        <g id="Air-Canada---Login" transform="translate(-785.000000, -303.000000)">
            <g id="AirCanada-Login" transform="translate(785.000000, 303.000000)">
                <rect id="Rectangle" fill="#FFFFFF" x="0" y="0" width="352" height="72"></rect>
                <g id="canadalogo" transform="translate(48.000000, 20.000000)" fill-rule="nonzero">
                    <path d="M17.6441103,23.4807692 C17.6441103,22.3701923 18.1253133,22.2115385 19.2481203,22.8461538 C21.1729323,23.9567308 23.0977444,24.9086538 23.0977444,24.9086538 C23.0977444,24.2740385 23.7393484,23.7980769 24.8621554,24.1153846 C25.9849624,24.4326923 27.1077694,24.5913462 27.1077694,24.5913462 C27.1077694,24.5913462 26.4661654,23.1634615 26.1453634,22.5288462 C25.6641604,21.4182692 26.1453634,20.7836538 26.6265664,20.625 C26.6265664,20.625 25.9849624,20.1490385 25.5037594,19.8317308 C24.5413534,19.1971154 24.7017544,18.4038462 25.6641604,18.0865385 C26.9473684,17.4519231 28.7117794,16.8173077 28.7117794,16.8173077 C28.2305764,16.5 27.5889724,15.7067308 28.2305764,14.5961538 C28.8721805,13.6442308 29.9949875,12.2163462 29.9949875,12.2163462 C29.9949875,12.2163462 28.2305764,12.2163462 26.9473684,12.2163462 C25.8245614,12.2163462 25.5037594,11.2644231 25.5037594,10.6298077 C25.5037594,10.6298077 23.7393484,11.8990385 22.4561404,12.6923077 C21.3333333,13.4855769 20.3709273,12.6923077 20.5313283,11.4230769 C20.8521303,9.51923077 21.0125313,7.29807692 21.0125313,7.29807692 C20.3709273,7.93269231 19.2481203,7.77403846 18.6065163,6.82211538 C17.8045113,5.23557692 17.0025063,3.33173077 17.0025063,3.33173077 C17.0025063,3.33173077 16.2005013,5.23557692 15.3984962,6.82211538 C14.9172932,7.77403846 13.7944862,7.93269231 13.1528822,7.45673077 C13.1528822,7.45673077 13.3132832,9.67788462 13.6340852,11.5817308 C13.7944862,12.6923077 12.8320802,13.4855769 11.7092732,12.6923077 C10.4260652,11.8990385 8.50125313,10.6298077 8.50125313,10.6298077 C8.50125313,11.2644231 8.18045113,12.0576923 7.05764411,12.2163462 C5.77443609,12.2163462 4.01002506,12.2163462 4.01002506,12.2163462 C4.01002506,12.2163462 5.13283208,13.6442308 5.77443609,14.5961538 C6.4160401,15.5480769 5.77443609,16.5 5.29323308,16.8173077 C5.29323308,16.8173077 6.89724311,17.6105769 8.34085213,18.0865385 C9.30325815,18.5625 9.62406015,19.1971154 8.50125313,19.8317308 C8.18045113,20.1490385 7.37844612,20.625 7.37844612,20.625 C8.02005013,20.7836538 8.50125313,21.4182692 8.02005013,22.5288462 C7.69924812,23.1634615 7.05764411,24.5913462 7.05764411,24.5913462 C7.05764411,24.5913462 8.18045113,24.2740385 9.30325815,24.1153846 C10.4260652,23.7980769 10.9072682,24.4326923 11.0676692,24.9086538 C11.0676692,24.9086538 12.9924812,23.7980769 14.9172932,22.8461538 C15.8796992,22.2115385 16.5213033,22.5288462 16.5213033,23.4807692 L16.5213033,26.1778846 C16.5213033,27.7644231 16.2005013,29.3509615 15.7192982,30.3028846 C8.50125313,29.5096154 2.40601504,23.7980769 2.40601504,16.1826923 C2.40601504,8.40865385 8.98245614,2.0625 17.1629073,2.0625 C25.3433584,2.0625 31.9197995,8.40865385 31.9197995,16.1826923 C31.9197995,23.4807692 26.1453634,29.5096154 18.7669173,30.3028846 L18.7669173,32.2067308 C27.4285714,31.4134615 34.1654135,24.5913462 34.1654135,16.1826923 C34.1654135,7.13942308 26.4661654,0 17.0025063,0 C7.69924812,0 0,7.13942308 0,16.0240385 C0,23.7980769 5.93483709,30.3028846 13.7944862,31.7307692 C15.0776942,32.0480769 15.8796992,32.2067308 16.6817043,33 C17.4837093,31.4134615 17.6441103,28.2403846 17.6441103,26.4951923 L17.6441103,23.4807692 Z" id="Path" fill="#F01428"></path>
                    <path d="M86.4561404,24.5913462 L86.4561404,7.45673077 L94.9573935,7.45673077 C99.4486216,7.45673077 101.533835,9.36057692 101.694236,11.7403846 C101.694236,12.8509615 101.533835,13.9615385 100.73183,14.7548077 C99.9298246,15.5480769 99.6090226,15.8653846 98.1654135,16.6586538 L104.581454,24.75 L99.9298246,24.75 L94.1553885,17.4519231 L90.3057644,17.4519231 L90.3057644,24.5913462 L86.4561404,24.5913462 Z M90.3057644,15.2307692 L92.0701754,15.2307692 C96.7218045,15.2307692 97.6842105,14.4375 97.6842105,12.2163462 C97.6842105,9.99519231 95.5989975,9.67788462 92.5513784,9.67788462 L90.3057644,9.67788462 L90.3057644,15.2307692 Z" id="Shape" fill="#000000"></path>
                    <path d="M48.4411028,24.5913462 L55.9799499,7.45673077 L60.6315789,7.45673077 L68.1704261,24.5913462 L63.518797,24.5913462 L61.433584,19.9903846 L53.4135338,19.9903846 L51.3283208,24.5913462 L48.4411028,24.5913462 Z M54.3759398,17.7692308 L60.3107769,17.7692308 L57.2631579,10.9471154 L54.3759398,17.7692308 Z" id="Shape" fill="#000000"></path>
                    <rect id="Rectangle" fill="#000000" x="73.4636591" y="7.45673077" width="4.01002506" height="17.1346154"></rect>
                    <path d="M133.453634,23.9567308 C131.528822,24.75 129.122807,25.0673077 126.235589,25.0673077 C122.867168,25.0673077 120.140351,24.2740385 118.215539,22.6875 C116.290727,21.1009615 115.328321,18.8798077 115.328321,16.0240385 C115.328321,13.1682692 116.290727,10.7884615 118.215539,9.36057692 C120.140351,7.77403846 122.867168,6.98076923 126.556391,6.98076923 C128.802005,6.98076923 131.047619,7.13942308 133.453634,7.61538462 L133.453634,10.4711538 C130.887218,9.67788462 128.481203,9.36057692 126.716792,9.36057692 C124.471178,9.36057692 122.867168,9.99519231 121.58396,11.1057692 C120.461153,12.2163462 119.819549,13.9615385 119.819549,16.0240385 C119.819549,18.0865385 120.461153,19.6730769 121.744361,20.9423077 C123.027569,22.0528846 124.79198,22.6875 127.037594,22.6875 C129.122807,22.6875 131.368421,22.2115385 133.453634,21.4182692 L133.453634,23.9567308 Z" id="Path" fill="#000000"></path>
                    <path d="M138.426065,24.5913462 L145.964912,7.45673077 L150.616541,7.45673077 L158.155388,24.5913462 L153.503759,24.5913462 L151.418546,19.9903846 L143.398496,19.9903846 L141.313283,24.5913462 L138.426065,24.5913462 Z M144.521303,17.7692308 L150.45614,17.7692308 L147.568922,10.9471154 L144.521303,17.7692308 Z" id="Shape" fill="#000000"></path>
                    <path d="M188.631579,24.5913462 L196.170426,7.45673077 L200.822055,7.45673077 L208.360902,24.5913462 L203.709273,24.5913462 L201.62406,19.9903846 L193.60401,19.9903846 L191.518797,24.5913462 L188.631579,24.5913462 Z M194.566416,17.7692308 L200.501253,17.7692308 L197.453634,10.9471154 L194.566416,17.7692308 Z" id="Shape" fill="#000000"></path>
                    <path d="M245.092732,10.9471154 L248.140351,17.7692308 L242.205514,17.7692308 L245.092732,10.9471154 Z M243.809524,7.45673077 L236.270677,24.5913462 L239.157895,24.5913462 L241.243108,19.9903846 L249.263158,19.9903846 L251.348371,24.5913462 L256,24.5913462 L248.461153,7.45673077 L243.809524,7.45673077 L243.809524,7.45673077 Z" id="Shape" fill="#000000"></path>
                    <polygon id="Path" fill="#000000" points="163.929825 24.5913462 163.929825 7.45673077 168.581454 7.45673077 179.488722 19.6730769 179.488722 7.45673077 182.857143 7.45673077 182.857143 24.5913462 178.526316 24.5913462 167.298246 11.7403846 167.298246 24.5913462"></polygon>
                    <path d="M213.974937,24.5913462 L213.974937,7.45673077 L222.315789,7.45673077 C225.363409,7.45673077 227.609023,8.25 229.213033,9.51923077 C230.817043,10.9471154 231.619048,13.0096154 231.619048,15.5480769 C231.619048,18.4038462 230.817043,20.625 229.052632,22.0528846 C227.288221,23.6394231 225.042607,24.4326923 221.994987,24.4326923 L213.974937,24.4326923 L213.974937,24.5913462 Z M217.984962,22.2115385 L221.032581,22.2115385 C223.117794,22.2115385 224.721805,21.7355769 225.844612,20.625 C226.967419,19.5144231 227.448622,18.0865385 227.448622,15.8653846 C227.448622,14.2788462 226.967419,12.8509615 226.165414,11.7403846 C225.52381,10.9471154 224.882206,10.4711538 224.080201,10.1538462 C223.278195,9.83653846 222.155388,9.67788462 220.551378,9.67788462 L218.145363,9.67788462 L218.145363,22.2115385 L217.984962,22.2115385 Z" id="Shape" fill="#000000"></path>
                </g>
            </g>
        </g>
    </g>
</svg>