<?xml version="1.0" encoding="UTF-8"?>
<svg width="352px" height="72px" viewBox="0 0 352 72" version="1.1" xmlns="http://www.w3.org/2000/svg" xmlns:xlink="http://www.w3.org/1999/xlink">
    <title>AirFrance</title>
    <g id="Taskboard" stroke="none" stroke-width="1" fill="none" fill-rule="evenodd">
        <g id="AirFrance">
            <rect id="Rectangle" fill="#FFFFFF" x="0" y="0" width="352" height="72"></rect>
            <g transform="translate(48.000000, 19.000000)">
                <g id="Group" transform="translate(0.512000, 6.345760)" fill-rule="nonzero">
                    <path d="M240.871619,0 L229.439661,16.86128 C227.936169,19.07808 225.494011,21.216 222.54527,21.44312 L222.54527,21.96128 L235.259937,21.96128 C238.635344,21.96128 241.09782,19.72136 242.763852,17.25432 L254.501926,0 L240.872974,0 L240.871619,0 Z" id="Path" fill="#FF0000"></path>
                    <path d="M30.3420952,21.96128 L30.3420952,1.85232 L36.0973545,1.85232 L36.0973545,21.96128 L30.3407407,21.96128 L30.3420952,21.96128 Z M163.078772,21.96128 L149.249354,10.02048 L149.249354,21.96128 L144.389418,21.96128 L144.389418,1.85232 L148.517926,1.85232 L162.163132,13.60544 L162.163132,1.85232 L167.023069,1.85232 L167.023069,21.96128 L163.078772,21.96128 L163.078772,21.96128 Z M193.155386,8.33952 C190.554751,7.03392 187.624974,5.9772 183.74163,5.9772 C179.103831,5.9772 175.645799,8.42248 175.645799,11.82248 C175.645799,15.30544 179.166138,17.77384 183.69964,17.77384 C187.443471,17.77384 190.40982,16.79872 193.338243,15.07696 L193.338243,20.0532 C190.755217,21.3588 187.320212,22.33256 183.455831,22.33256 C175.565884,22.33256 169.360931,18.22944 169.360931,11.82248 C169.360931,5.52024 175.686434,1.47696 183.434159,1.47696 C187.095365,1.47696 190.40982,2.18144 193.155386,3.32384 L193.155386,8.33952 L193.155386,8.33952 Z M68.1271534,21.96128 L68.1271534,1.85232 L87.3650794,1.85232 L87.3650794,6.16352 L73.8824127,6.16352 L73.8824127,11.16016 L87.061672,11.16016 L87.061672,15.47272 L73.8824127,15.47272 L73.8824127,21.96264 L68.1271534,21.96264 L68.1271534,21.96128 Z M196.633735,21.96128 L196.633735,1.85232 L216.60309,1.85232 L216.60309,6.16352 L202.38764,6.16352 L202.38764,9.64784 L216.379598,9.64784 L216.379598,13.95904 L202.38764,13.95904 L202.38764,17.65008 L216.542138,17.65008 L216.542138,21.96128 L196.633735,21.96128 L196.633735,21.96128 Z M107.356106,14.41464 L115.307005,21.96264 L109.165714,21.96264 C107.80309,21.96264 106.909122,21.52744 106.196656,20.82024 L100.786794,15.47136 C100.65947,15.3564467 100.491782,15.2972239 100.320847,15.3068 L96.6393228,15.3068 L96.6393228,21.96128 L90.8840635,21.96128 L90.8840635,1.85232 L103.350857,1.85232 C109.817228,1.85232 112.542476,4.81712 112.542476,8.092 C112.542476,11.9068 109.206349,13.7292 107.356106,14.416 L107.356106,14.41464 Z M102.761651,11.0976 C105.037206,11.0976 106.135704,9.91712 106.135704,8.58976 C106.135704,7.2624 105.160466,6.16352 102.761651,6.16352 L96.6393228,6.16352 L96.6393228,11.0976 L102.761651,11.0976 Z M57.9575873,14.416 L65.9084868,21.96128 L59.7685503,21.96128 C58.4059259,21.96128 57.5106032,21.52608 56.7994921,20.82024 L51.3896296,15.47136 C51.2618898,15.3562355 51.0937018,15.2970082 50.922328,15.3068 L47.2421587,15.3068 L47.2421587,21.96128 L41.485545,21.96128 L41.485545,1.85232 L53.9523386,1.85232 C60.418709,1.85232 63.1453122,4.81712 63.1453122,8.092 C63.1453122,11.9068 59.8091852,13.7292 57.9575873,14.416 Z M53.3631323,11.0976 C55.6413968,11.0976 56.7398942,9.91712 56.7398942,8.58976 C56.7398942,7.2624 55.7633016,6.16352 53.3631323,6.16352 L47.2421587,6.16352 L47.2421587,11.0976 L53.3631323,11.0976 Z M21.3319788,21.96128 L18.8112593,17.54536 L7.78971429,17.54536 L5.49113228,21.96128 L0,21.96128 L10.9822646,1.87272 L15.9857778,1.87272 L28.432254,21.96128 L21.3319788,21.96128 L21.3319788,21.96128 Z M9.9853545,13.35656 L16.4124444,13.35656 L13.0763175,7.22024 L9.9853545,13.35656 L9.9853545,13.35656 Z M136.254307,21.96128 L133.793185,17.54536 L123.058794,17.54536 L120.841481,21.96128 L115.491217,21.96128 L126.187683,1.87272 L131.047619,1.87272 L143.148698,21.96128 L136.254307,21.96128 Z M125.212444,13.35656 L131.47564,13.35656 L128.222138,7.22024 L125.212444,13.35656 L125.212444,13.35656 Z" id="Shape" fill="#051039"></path>
                </g>
                <polygon id="Path" points="0 0 256 0 256 34 0 34"></polygon>
            </g>
        </g>
    </g>
</svg>