<?xml version="1.0" encoding="UTF-8"?>
<svg width="352px" height="72px" viewBox="0 0 352 72" version="1.1" xmlns="http://www.w3.org/2000/svg" xmlns:xlink="http://www.w3.org/1999/xlink">
    <title>AirFranceHOP</title>
    <defs>
        <linearGradient x1="49.9999801%" y1="-0.000295607709%" x2="49.9999801%" y2="100.001179%" id="linearGradient-1">
            <stop stop-color="#FF1E27" offset="33.52%"></stop>
            <stop stop-color="#E81B23" offset="69.15%"></stop>
            <stop stop-color="#A61319" offset="78.41%"></stop>
            <stop stop-color="#9D1218" offset="87.19%"></stop>
            <stop stop-color="#931116" offset="95.51%"></stop>
            <stop stop-color="#800F14" offset="100%"></stop>
        </linearGradient>
    </defs>
    <g id="Taskboard" stroke="none" stroke-width="1" fill="none" fill-rule="evenodd">
        <g id="AirFranceHOP">
            <rect id="Rectangle" fill="#FFFFFF" x="0" y="0" width="352" height="72"></rect>
            <g id="Air_France_Hop_Logo" transform="translate(48.000000, 16.000000)" fill-rule="nonzero">
                <g id="g25">
                    <g id="g4" transform="translate(223.855566, 0.000000)" fill="#ED1C24">
                        <path d="M18.4350437,3.94751039e-16 L6.93667998,16.7921351 C5.42252379,19.0004867 2.96554278,21.1280292 0,21.3568806 L0,21.8721196 L12.7889833,21.8721196 C16.1836651,21.8721196 18.6598613,19.6411414 20.3373465,17.1838977 L32.1444341,0.000646472958 L18.4350437,0.000646472958 L18.4350437,3.94751039e-16 Z" id="path2"></path>
                    </g>
                    <path d="M242.29061,0 L230.792246,16.7895492 C229.27809,19.0004867 226.821109,21.1280292 223.855566,21.3562342 L223.855566,21.8714731 L236.644549,21.8714731 C240.039231,21.8714731 242.515427,19.6404949 244.192912,17.1832512 L256,0 L242.29061,0 Z" id="path19" fill="url(#linearGradient-1)"></path>
                    <g id="g23" transform="translate(0.000000, 1.472019)" fill="#002157">
                        <path d="M30.5188299,20.3994542 L30.5188299,0.373014897 L36.3109256,0.373014897 L36.3109256,20.3994542 L30.5188299,20.3994542 Z M164.039992,20.3994542 L150.128842,8.50758412 L150.128842,20.3994542 L145.239219,20.3994542 L145.239219,0.373014897 L149.3929,0.373014897 L163.119584,12.0787007 L163.119584,0.373014897 L168.009207,0.373014897 L168.009207,20.3994542 L164.039992,20.3994542 Z M194.294292,6.83451211 C191.676544,5.53445499 188.730857,4.48135054 184.823771,4.48135054 C180.158966,4.48135054 176.680377,6.91661417 176.680377,10.3028395 C176.680377,13.7743993 180.219814,16.2290571 184.781497,16.2290571 C188.545751,16.2290571 191.533712,15.2580547 194.479399,13.5449014 L194.479399,18.5007631 C191.878944,19.8027596 188.422774,20.7711761 184.537465,20.7711761 C176.599033,20.7711761 170.359864,16.6828811 170.359864,10.303486 C170.359864,4.02623358 176.722651,0 184.517609,0 C188.197956,0 191.533712,0.702069632 194.294292,1.83792262 L194.294292,6.83451211 Z M68.5290179,20.3994542 L68.5290179,0.373014897 L87.8799852,0.373014897 L87.8799852,4.66559534 L74.3159896,4.66559534 L74.3159896,9.64343711 L87.5738233,9.64343711 L87.5738233,13.9386034 L74.3159896,13.9386034 L74.3159896,20.3994542 L68.5290179,20.3994542 Z M197.792736,20.3994542 L197.792736,0.373014897 L217.880926,0.373014897 L217.880926,4.66559534 L203.58227,4.66559534 L203.58227,8.13650865 L217.654187,8.13650865 L217.654187,12.4297356 L203.58227,12.4297356 L203.58227,16.1042879 L217.819437,16.1042879 L217.819437,20.4001007 L197.792736,20.4001007 L197.792736,20.3994542 Z M107.988031,12.885499 L115.988591,20.3994542 L109.808989,20.3994542 C108.439587,20.3994542 107.539036,19.9663173 106.821669,19.2642477 L101.381852,13.9386034 C101.27809,13.8338748 101.115401,13.7743993 100.91108,13.7743993 L97.2083146,13.7743993 L97.2083146,20.3994542 L91.4181403,20.3994542 L91.4181403,0.373014897 L103.960529,0.373014897 C110.462946,0.373014897 113.206873,3.32351748 113.206873,6.58820591 C113.205592,10.3849416 109.850622,12.2021771 107.988031,12.885499 L107.988031,12.885499 Z M103.364858,9.58072923 C105.656589,9.58072923 106.762102,8.4028555 106.762102,7.0834042 C106.762102,5.761367 105.780206,4.66559534 103.364858,4.66559534 L97.2076741,4.66559534 L97.2076741,9.58072923 L103.364858,9.58072923 Z M58.3014181,12.885499 L66.298776,20.3994542 L60.1217362,20.3994542 C58.7497723,20.3994542 57.8498614,19.9663173 57.1344162,19.2642477 L51.6920367,13.9386034 C51.5914773,13.8338748 51.4255862,13.7743993 51.2212648,13.7743993 L47.5210616,13.7743993 L47.5210616,20.3994542 L41.7289659,20.3994542 L41.7289659,0.373014897 L54.2707139,0.373014897 C60.7756928,0.373014897 63.5170585,3.32351748 63.5170585,6.58820591 C63.516418,10.3849416 60.1614475,12.2021771 58.3014181,12.885499 Z M53.6782458,9.58072923 C55.9674143,9.58072923 57.0729276,8.4028555 57.0729276,7.0834042 C57.0729276,5.761367 56.0910319,4.66559534 53.6782458,4.66559534 L47.5210616,4.66559534 L47.5210616,9.58072923 L53.6782458,9.58072923 Z M21.4601535,20.3994542 L18.9211877,16.0027916 L7.83530989,16.0027916 L5.52372374,20.3994542 L0,20.3994542 L11.044245,0.393055558 L16.0767006,0.393055558 L28.5966714,20.3994542 L21.4601535,20.3994542 Z M10.0431341,11.8323945 L16.5064801,11.8323945 L13.1515097,5.71869978 L10.0431341,11.8323945 Z M137.058676,20.3994542 L134.58184,16.0027916 L123.782268,16.0027916 L121.552026,20.3994542 L116.171776,20.3994542 L126.932917,0.393055558 L131.819978,0.393055558 L143.992154,20.3994542 L137.058676,20.3994542 Z M125.94974,11.8323945 L132.250398,11.8323945 L128.977412,5.71869978 L125.94974,11.8323945 Z" id="path21"></path>
                    </g>
                </g>
                <g id="text848" transform="translate(156.814767, 24.969504)" fill="#FF0000">
                    <polygon id="path829" points="18.499473 14.7183614 18.499473 0.312134393 14.0502309 0.312134393 14.0502309 6.09863586 4.48269251 6.09863586 4.48269251 0.312134393 0 0.312134393 0 14.7183614 4.48269251 14.7183614 4.48269251 8.93186052 14.0502309 8.93186052 14.0502309 14.7183614"></polygon>
                    <path d="M21.0058327,7.46722722 C21.0058327,9.58014061 22.0428721,11.3569088 24.1838671,12.8215416 C26.2913964,14.3101851 28.8338194,15.0304964 31.811136,15.0304964 C34.7549945,15.0304964 37.2974175,14.3101851 39.4384049,12.8215416 C41.5793922,11.3569088 42.6498897,9.58014061 42.6498897,7.46722722 C42.6498897,5.4023348 41.5793922,3.62556657 39.4384049,2.18494402 C37.2974175,0.744321483 34.7549945,0.0240102121 31.811136,0 C28.8338194,0 26.2913964,0.744321483 24.1838671,2.18494402 C22.0428721,3.62556657 21.0058327,5.4023348 21.0058327,7.46722722 L21.0058327,7.46722722 Z M25.4885252,7.46722722 C25.4885252,6.21868747 26.0906786,5.13822083 27.2949854,4.2738472 C28.4992922,3.40947357 30.0046758,2.95327627 31.811136,2.95327627 C33.6175962,2.95327627 35.0895217,3.38546281 36.2938285,4.24983644 C37.4646849,5.11421008 38.0333802,6.17066704 38.0668383,7.46722722 C38.0668383,8.81180837 37.4646849,9.91628576 36.2938285,10.7806594 C35.0895217,11.645033 33.6175962,12.0772201 31.811136,12.0772201 C30.0046758,12.0772201 28.4992922,11.645033 27.2949854,10.7566492 C26.0906786,9.89227555 25.4885252,8.78779816 25.4885252,7.46722722 Z" id="path831"></path>
                    <path d="M52.7072066,10.4445142 C55.0823622,10.4445142 57.0560898,9.98831694 58.6283742,9.02790192 C60.2006661,8.06748689 61.0035373,6.84295735 61.0035373,5.33030362 C61.0035373,3.79363969 60.2006661,2.59312036 58.6618246,1.6807263 C57.1229906,0.768331695 55.1158126,0.312134393 52.7072066,0.312134393 L45.180289,0.312134393 L45.180289,14.7183614 L49.6295311,14.7183614 L49.6295311,10.4445142 L52.7072066,10.4445142 Z M52.6068477,3.02530745 C53.7776965,3.02530745 54.747835,3.24140099 55.4837978,3.62556657 C56.2197605,4.03374344 56.5877457,4.58598214 56.5877457,5.30629341 C56.5877457,6.07462565 56.1863101,6.67488477 55.4503474,7.10707186 C54.714377,7.5392584 53.744246,7.75535195 52.5733897,7.75535195 L49.6295311,7.75535195 L49.6295311,3.02530745 L52.6068477,3.02530745 Z" id="path833"></path>
                </g>
            </g>
        </g>
    </g>
</svg>