<?xml version="1.0" encoding="UTF-8"?>
<svg width="352px" height="72px" viewBox="0 0 352 72" version="1.1" xmlns="http://www.w3.org/2000/svg" xmlns:xlink="http://www.w3.org/1999/xlink">
    <title>AirIndia</title>
    <g id="Taskboard" stroke="none" stroke-width="1" fill="none" fill-rule="evenodd">
        <g id="AirIndia">
            <rect id="Rectangle" fill="#FFFFFF" x="0" y="0" width="352" height="72"></rect>
            <g id="AirInDia" transform="translate(81.000000, 8.000000)" fill-rule="nonzero">
                <g id="AI_Logo-2">
                    <path d="M61.9441918,34.3378467 L81.3132519,0.0658204043 L71.9614431,0 L47.1639812,19.8488011 L30.3030261,31.9558063 C30.3030261,31.9558063 24.0785993,38.4108134 0,37.109544 C0,37.109544 7.34361007,38.1804419 13.9063639,39.7107663 C17.3240758,40.5425197 20.6311859,41.7749058 23.7587385,43.3822285 C25.085007,44.1602257 26.4818427,45.0218148 27.6148757,45.8050776 C29.7431047,47.2643159 33.9962651,51.5077574 36.7239859,52.9689704 C40.2279464,54.854725 46.2591376,56.5937 55.5027873,54.7461213 C55.5027873,54.7461213 44.1592675,55.0094029 39.3079342,50.8456041 C38.4162808,50.070898 35.4729012,46.883874 40.0333919,44.3392572 C41.6821593,43.2986366 44.1955403,42.6680771 48.7883469,41.9104843 C48.7883469,41.9104843 61.721938,40.5874941 65.2100703,41.2674189 C63.9843008,40.7541745 62.8753673,39.9985086 61.9501274,39.0459803 C60.2123265,37.309638 61.9501274,34.3378467 61.9501274,34.3378467" id="Path_63" fill="#D9000D"></path>
                    <path d="M58.3709831,20.2476728 C59.4703812,20.1120827 63.9668997,19.338693 64.4443827,19.241937 C66.7045131,18.7956747 69.159198,18.267795 71.2781939,17.8195581 L71.5274876,17.3798778 C68.3948295,17.612882 64.6376183,17.899859 61.8802197,18.138787 C60.0421737,18.2947814 58.6539116,18.4237894 58.1922567,18.5021157 C57.5987004,18.5955806 57.0097607,18.6995769 56.4300541,18.8108134 C54.4440403,19.1962479 52.4813246,19.6928795 50.551209,20.2983545 C53.154671,20.4923483 55.7696058,20.4753989 58.3703236,20.2476728" id="Path_64" fill="#EF7000"></path>
                    <path d="M58.1203704,23.5518571 C59.2184495,23.7019276 63.7697071,24.1126469 64.2445521,24.1442407 C65.3353766,24.2166432 66.4677501,24.2877292 67.588912,24.3469676 L68.0505668,23.5169723 C65.9348685,23.1220498 63.7941089,22.7317348 62.0582865,22.4210625 C60.2387068,22.0919605 58.8616563,21.8615891 58.4026394,21.819464 C57.8011691,21.7536436 57.2095913,21.7042783 56.6219706,21.6634697 C54.6028063,21.5187795 52.5769801,21.4899905 50.5545065,21.5772449 C53.019364,22.4396828 55.5505867,23.1000755 58.1230085,23.5518571" id="Path_65" fill="#EF7000"></path>
                    <path d="M57.0189938,26.671086 C58.0405701,27.1048425 62.3260464,28.6726845 62.7850632,28.8293371 C63.4063188,29.0393042 64.0519761,29.2551951 64.6976334,29.4697696 L65.2212819,28.5370945 C63.7519004,27.8374236 62.3339604,27.158157 61.1191486,26.5940762 C59.4486175,25.8088387 58.1777475,25.2342266 57.7398349,25.0670428 C57.1746374,24.8524683 56.6186731,24.6543488 56.0620492,24.4601787 C54.1485052,23.8034044 52.200509,23.2512295 50.2267316,22.8061119 C52.3790028,24.2809988 54.6509943,25.5738211 57.0189938,26.671086" id="Path_66" fill="#EF7000"></path>
                    <path d="M55.147313,29.3973672 C56.0211598,30.0845322 59.7599048,32.7055007 60.159566,32.9747062 C60.7676314,33.3808181 61.3862489,33.7961448 62.0147591,34.2094969 L62.5100488,33.3334274 L62.5443432,33.2814292 C61.3255743,32.238834 60.1397808,31.2330983 59.12414,30.3853315 C57.7174117,29.2005642 56.6430748,28.3080395 56.2631988,28.0434415 C55.7758232,27.6886695 55.2798739,27.348378 54.7971148,27.0205924 C53.1199571,25.8900475 51.3805177,24.854379 49.5870098,23.9184767 C51.2877039,25.8931884 53.1473341,27.7258104 55.147313,29.3980254" id="Path_67" fill="#EF7000"></path>
                    <path d="M52.6306344,31.5569346 C53.3006935,32.4415609 56.2275854,35.94189 56.5415108,36.3012694 C57.9264754,37.8855665 59.4631266,39.5824165 60.8223705,41.0916784 C61.0261581,41.0811472 61.2180747,41.0811472 61.4159267,41.0771979 C59.7111012,38.5799718 57.7147737,35.6799248 56.2203309,33.5361542 C55.1598437,32.0222849 54.3552452,30.890174 54.0551695,30.5314528 C53.6779315,30.058204 53.2940985,29.6099671 52.9069679,29.1669958 C51.5799379,27.6417589 50.1688262,26.1914643 48.6801877,24.8228491 C49.8101677,27.1709509 51.1309594,29.4227357 52.6293154,31.5556182" id="Path_68" fill="#EF7000"></path>
                    <path d="M49.6377918,32.9832628 C50.0559192,34.0173014 51.9790416,38.1508228 52.1920623,38.5779972 C52.6537172,39.5271274 53.1523045,40.509826 53.6429776,41.4793606 C53.9562434,41.4550071 54.2721473,41.4326281 54.5939867,41.4089328 C53.8949093,39.4264222 53.1806633,37.438646 52.5950211,35.8240715 C51.9665109,34.0943112 51.4844113,32.7844852 51.2931543,32.3632346 C51.0491367,31.8103432 50.7912695,31.2758815 50.5314238,30.7512929 C49.6497924,28.9309496 48.6616849,27.1639139 47.572216,25.4593324 C48.0565881,28.018735 48.7473606,30.5348973 49.6377918,32.9832628" id="Path_69" fill="#EF7000"></path>
                    <path d="M46.3785084,33.6 C46.5209619,34.7005172 47.2939041,39.1861777 47.3954681,39.6554772 C47.5445167,40.445322 47.7107125,41.2496474 47.8808653,42.0592384 L47.9652822,42.0473907 L47.9811103,42.0473907 L48.0180427,42.035543 L48.0292543,42.035543 L48.1327969,42.0197461 L48.1453276,42.0157969 L48.1730269,42.0157969 L48.186217,42.0105313 L48.1994071,42.006582 L48.2145758,42.006582 L48.230404,42.0019746 L48.2462321,41.9960508 L48.2640388,41.9960508 L48.2818455,41.9921016 L48.2937166,41.9868359 L48.3088853,41.9868359 L48.3524128,41.9763047 L48.3741765,41.9763047 L48.3959402,41.9763047 L48.4111089,41.9723554 L48.4374892,41.9670898 L48.4552958,41.9670898 L48.5212465,41.9532675 L48.5423508,41.9532675 L48.5535624,41.9493183 L48.5713691,41.9493183 L48.6663381,41.9262811 L48.6795282,41.9262811 L48.7837303,41.9078514 L48.8859539,41.8986366 C48.7494359,40.1787494 48.6148965,38.5115186 48.4902497,37.1016455 C48.3385631,35.2672308 48.2086402,33.8764457 48.1347755,33.4203103 C48.0371684,32.8279267 47.9197762,32.2401504 47.8188716,31.6668547 C47.4372496,29.6817955 46.9411347,27.7203762 46.3330024,25.7923836 C46.1309369,28.3907182 46.1446134,31.0012835 46.3738919,33.5973672" id="Path_70" fill="#EF7000"></path>
                    <path d="M43.075038,33.3498825 C42.9174158,34.4490832 42.5098405,38.9841091 42.4814817,39.4606488 C42.3924483,40.7217677 42.3172645,42.0394922 42.2486758,43.3341796 C42.5289662,43.2433474 42.8310204,43.1492243 43.1442862,43.0649741 C43.5327358,41.0140103 43.9119523,38.9577809 44.210709,37.2727786 C44.5404625,35.4646921 44.7693114,34.0916784 44.8134984,33.6276446 C44.8721945,33.0280207 44.9190195,32.435637 44.963866,31.8504937 C45.1102153,29.8353964 45.1403825,27.8135693 45.0542184,25.7950165 C44.1889872,28.2533259 43.5272615,30.7783257 43.0756975,33.3446168" id="Path_71" fill="#EF7000"></path>
                    <path d="M39.9483155,32.2480489 C39.5156789,33.270898 37.9420953,37.5472496 37.7910682,38.0014104 C36.5980201,41.4898919 35.3508924,45.5009873 34.5199136,47.8382699 C35.970829,44.8315938 38.4261734,39.7509168 40.0287753,36.3407616 C40.8142481,34.670898 41.3932952,33.4058298 41.558172,32.9747062 C41.7711927,32.4086507 41.9749804,31.8478608 42.1642589,31.2982605 C42.8314004,29.3890596 43.384164,27.4419446 43.8196214,25.4672308 C42.3472204,27.6186193 41.0525199,29.8859224 39.9483155,32.2467325" id="Path_72" fill="#EF7000"></path>
                    <path d="M37.2153186,30.3820404 C36.5254743,31.2567936 33.9019556,34.9828867 33.6256222,35.3758345 C31.575215,38.4384579 29.3295938,41.996709 27.9208869,44.0338505 C30.103855,41.5070052 33.794456,37.2299953 36.2227606,34.3529854 C37.4151492,32.948378 38.3015266,31.870898 38.573903,31.4930889 C38.9247607,31.0047015 39.2630877,30.5136812 39.6000958,30.0318759 C40.7317129,28.3574197 41.7691793,26.6214704 42.7076926,24.8320639 C40.7283767,26.5288284 38.8914592,28.3843506 37.2153186,30.3800658" id="Path_73" fill="#EF7000"></path>
                    <path d="M29.0037974,32.9134932 C26.603192,35.0434415 24.1386145,37.2991067 22.535353,38.6622473 C25.3052823,36.7804419 29.9679966,33.6026328 33.0696578,31.4555712 C34.5865238,30.3991537 35.7175783,29.5908792 36.0763501,29.3006112 C36.5492166,28.91622 36.9996598,28.5364363 37.4501031,28.1500705 C38.976951,26.8236681 40.4300326,25.4149859 41.8028491,23.9303244 C41.5390463,24.0336624 41.2383111,24.1718853 40.9072386,24.3390691 L30.3030261,31.9558063 L30.2984095,31.9558063 L30.2984095,31.9604137 L30.2931335,31.9689704 L30.2845599,31.9689704 L30.2845599,31.9735778 L30.2792838,31.9808181 L30.2733483,31.9808181 L30.2680722,31.9854255 L30.2588391,31.9900329 L30.2588391,31.9900329 L30.2542226,31.9952985 L30.248287,32.0045134 L30.2397134,32.0091208 L30.2285018,32.0183357 L30.2285018,32.0183357 L30.2232258,32.0268923 L30.2126736,32.0347908 L30.1869529,32.0591443 L30.1869529,32.0591443 L30.1803578,32.0657264 L30.1401279,32.1019276 L30.1355113,32.1078514 C29.7784743,32.3998974 29.4019019,32.6673095 29.0084139,32.9082276" id="Path_74" fill="#EF7000"></path>
                    <path d="M56.2025242,13.83874 C57.085604,13.1561824 60.5453776,10.1804419 60.8922782,9.86318759 C63.6305511,7.39755524 66.6761543,4.48895157 68.5379425,2.84475787 L67.3811673,3.65961448 L65.1460981,5.45256229 L49.6938499,17.8188999 C51.9627164,16.6609159 54.1387259,15.3300307 56.2025242,13.8380818" id="Path_75" fill="#EF7000"></path>
                    <path d="M57.7583011,16.990221 C58.7851535,16.5768688 62.9275167,14.6595205 63.3555367,14.451528 C66.6715378,12.8270804 70.3990711,10.8689234 72.6387568,9.8006582 C69.4823565,10.9018336 64.1489236,12.7685002 60.6040737,14.0473907 C58.8675918,14.6713681 57.5611085,15.1623883 57.1383646,15.3486601 C56.5850382,15.5961448 56.0488591,15.8541608 55.5172964,16.1069111 C53.6984761,16.9927853 51.929864,17.9778499 50.219477,19.0576399 C52.785576,18.5786013 55.3072352,17.887071 57.7583011,16.990221" id="Path_76" fill="#EF7000"></path>
                    <path d="M78.7405152,38.2238834 L78.2221428,39.1572167 L83.7039647,39.1572167 C83.7039647,39.1572167 84.725541,39.2006582 85.580262,37.4629995 L87.4077558,34.1561824 L88.7584261,34.1561824 L89.4416753,32.8489892 L73.5224961,32.8489892 L72.6981124,34.1917254 L74.1068193,34.1917254 L71.620478,39.0795487 C71.620478,39.0795487 70.7552049,41.0186178 73.0713934,41.0186178 L79.1467715,41.0133521 C79.1467715,41.0133521 79.7554965,40.9034321 79.4633349,41.7768688 L79.2654828,42.2573578 L84.3667692,42.2573578 L84.9247121,40.9100141 C84.9247121,40.9100141 85.534756,39.9826046 83.7019862,39.9826046 L77.4195228,39.9826046 C77.4195228,39.9826046 76.6485592,39.9167842 77.0422848,39.0525623 L79.5965553,34.1561824 L81.8487716,34.1561824 L79.8445299,37.7453691 C79.8445299,37.7453691 79.7033954,38.2607428 78.7431533,38.2265162" id="Path_77" fill="#D9000D"></path>
                    <path d="M99.8394621,37.2247297 C100.56492,37.0930889 101.224427,36.1255289 101.224427,36.1255289 L102.121356,34.1305125 C102.578395,32.9575929 100.776622,32.8141044 100.776622,32.8141044 L92.9370622,32.8141044 C92.0664154,32.7592267 91.2132527,33.0751821 90.5892174,33.6835919 L89.6210612,35.2639398 L94.7335592,35.2639398 L95.2209348,34.5023977 C95.2209348,34.5023977 95.4187869,34.1601316 95.7221601,34.1956747 L96.6889973,34.1956747 C96.6889973,34.1956747 97.1928607,34.2141044 96.7503315,34.9071932 L96.2768055,35.7213916 C96.0295225,36.1069263 95.6017754,36.3393756 95.143113,36.3374706 L93.0478594,36.3499765 L92.4134137,37.5400094 L93.7324276,37.5400094 C95.4788021,37.4314057 94.7579609,38.4489892 94.7579609,38.4489892 L94.292349,39.3619182 C93.9902948,40.14189 92.9608045,39.9937941 92.9608045,39.9937941 C91.8844891,39.9937941 92.2716197,39.4672308 92.2716197,39.4672308 L92.6620478,38.7701928 L87.5759301,38.7761166 L86.9230182,40.0201222 C86.7599891,40.2549112 86.7505218,40.5634209 86.8988489,40.8077268 C87.0471759,41.0520327 87.3255679,41.1864624 87.6095649,41.1509168 L97.0794255,41.1509168 C97.7617447,41.1988238 98.4227059,40.9022384 98.8396496,40.3610719 L99.8361646,38.6411848 C100.395426,37.7124589 99.8361646,37.2280207 99.8361646,37.2280207 L99.8394621,37.2247297 Z" id="Path_78" fill="#D9000D"></path>
                    <path d="M111.771922,32.8621533 L104.17638,32.8621533 L103.516873,34.1015515 L104.593188,34.1015515 L103.437732,36.1781852 C103.279805,36.300983 103.082204,36.3616453 102.882427,36.3486601 L101.557478,36.3486601 L100.927649,37.538693 L101.887891,37.538693 C102.542781,37.538693 102.581033,37.6459803 102.498594,37.8546309 L100.586024,41.3595675 L105.737433,41.3595675 L109.646331,34.1015515 L111.002277,34.1015515 L111.771922,32.8621533 Z" id="Path_79" fill="#D9000D"></path>
                    <path d="M122.269954,32.8621533 L114.679028,32.8621533 L114.015564,34.1015515 L115.087923,34.1015515 L113.905427,35.8721204 C113.569818,36.2016303 113.110559,36.3746474 112.640492,36.3486601 L110.953474,36.3486601 L110.32892,37.538693 L110.856526,37.538693 C111.527245,37.5024918 111.405895,37.7401034 111.198151,38.0955336 L110.455546,39.435637 C110.236589,39.7851434 109.970149,41.1278796 111.238381,41.2035731 L117.239894,41.1969911 L117.760904,40.0681711 C117.211535,40.0569817 116.342305,40.0569817 115.839101,40.0569817 C115.179594,40.0569817 115.503412,39.5179126 115.503412,39.5179126 L116.730755,37.5841091 C117.486192,37.6230772 118.199664,37.235766 118.577374,36.5816643 L120.143703,34.1015515 L121.492395,34.1015515 L122.269954,32.8621533 Z" id="Path_80" fill="#D9000D"></path>
                    <polygon id="Path_81" fill="#D9000D" points="139.688192 30.8217207 135.029435 30.8217207 134.212306 32.0821815 138.871063 32.0821815"></polygon>
                    <path d="M174.641402,34.9440527 L173.183232,37.6894217 C173.013739,37.9165021 172.735427,38.0922426 171.751442,38.0922426 L166.638285,38.0922426 C166.638285,38.0922426 165.757843,37.890174 166.102106,37.1049365 C166.102106,37.1049365 166.162121,36.664598 166.836137,36.664598 L171.258791,36.6606488 C171.811746,36.6112921 172.29382,36.2651472 172.51647,35.7575929 L173.391636,34.1305125 L174.498289,34.1305125 C174.498289,34.1305125 175.120204,34.1607898 174.641402,34.9447109 M165.587031,32.8529384 L164.927524,34.1298543 L167.343298,34.1298543 C167.949385,34.1298543 168.118218,34.4589563 167.880136,34.8499295 L167.706686,35.1954866 C167.447367,35.4497735 167.088481,35.5763164 166.726659,35.5410437 L162.267732,35.5219558 C161.784877,35.4891839 161.336465,35.7726167 161.15976,36.2222849 L160.537845,37.4728726 C160.537845,37.4728726 159.721376,39.2046074 162.473498,39.3500705 L171.196137,39.3500705 C171.196137,39.3500705 172.071963,39.3309826 172.043604,39.8062059 L171.215263,41.3641749 L176.187946,41.3641749 L179.931967,34.5603197 C180.130274,34.2912287 180.444736,34.1319883 180.779433,34.1311707 L182.230348,34.1311707 C182.230348,34.1311707 182.848966,34.161448 182.291023,35.0914904 L178.944685,41.3641749 L183.919346,41.3641749 L187.666005,34.5438646 C187.860113,34.268255 188.183052,34.1122068 188.520066,34.1311707 L189.228377,34.1311707 L190,32.8542548 L165.587031,32.8529384 Z" id="Path_82" fill="#D9000D"></path>
                    <path d="M138.683763,34.2266102 L139.483085,32.8318759 L127.048741,32.8318759 L126.211827,34.2674189 L132.164537,34.2674189 C132.164537,34.2674189 132.920991,34.1963329 132.686207,34.5767748 L132.465272,34.9243065 L126.592362,34.9243065 C126.182431,34.9352218 125.79882,35.1283381 125.546384,35.4508698 L124.543274,37.2003761 C124.328934,37.6532205 124.477323,38.193606 126.145216,38.193606 L129.429561,38.193606 C129.429561,38.193606 130.534895,38.0948754 130.155019,38.8853785 L129.667643,39.7456512 C129.667643,39.7456512 129.426923,40.2643159 128.972523,40.2287729 L128.089443,40.2287729 C128.089443,40.2287729 127.536776,40.3281617 127.815748,39.7133992 L128.202219,38.9558063 L123.575118,38.9558063 L122.745458,40.4038552 C122.745458,40.4038552 122.115629,41.0712741 122.888571,41.2911142 L122.624768,41.7814763 C122.624768,41.7814763 122.304248,42.4732487 122.856915,42.516032 L125.758745,42.5114245 C126.13414,42.4097114 126.440918,42.1397743 126.589065,41.7808181 L126.797469,41.3635167 L132.996834,41.3635167 C133.746581,41.3845437 134.419442,40.9069501 134.645602,40.1932299 L135.550445,38.5371885 C135.550445,38.5371885 136.407804,37.0588622 133.790881,36.8877292 L130.368699,36.8877292 C130.368699,36.8877292 129.53838,37.0239774 129.916937,36.4006582 C130.148009,36.1292886 130.497646,35.9881364 130.852777,36.0228491 L136.031226,36.0228491 L136.031226,36.0156088 C136.42208,36.0348124 136.794364,35.8479138 137.011913,35.5232722 L137.757815,34.2272685 L138.683763,34.2266102 Z" id="Path_83" fill="#D9000D"></path>
                    <path d="M155.795331,32.2572638 L155.437218,32.8351669 L146.827355,32.8055477 C147.179599,32.3122718 147.74657,32.0163858 148.353454,32.0091208 L154.707804,32.0091208 C155.848751,32.0091208 155.795331,32.2566055 155.795331,32.2566055 M162.182656,32.8312177 L160.519379,32.8522802 L161.215818,31.7142454 C161.215818,31.7142454 161.305511,30.8138223 159.303248,30.8519981 L145.105382,30.8519981 C143.801812,30.9557758 142.63574,31.7009335 141.995807,32.8391161 L140.749339,32.8345087 L139.994863,34.1943583 L141.284199,34.1943583 L137.185363,41.3622003 L142.160024,41.3622003 L146.137511,34.2687353 L154.153158,34.2687353 C154.153158,34.2687353 154.912251,34.1969911 154.669552,34.5780912 L154.450596,34.9256229 L148.591536,34.9256229 C147.858259,35.0654426 147.23969,35.5540112 146.934855,36.2341326 L146.629503,36.7804419 C146.629503,36.7804419 146.00429,38.0922426 148.146369,38.1909732 L151.43533,38.1909732 C151.43533,38.1909732 152.538685,38.0922426 152.160788,38.8827457 L151.675391,39.7430183 C151.675391,39.7430183 151.436649,40.2616831 150.982249,40.2261401 L150.430901,40.2261401 C150.430901,40.2261401 149.872958,40.3255289 150.152589,39.7107663 L150.535103,38.9531735 L145.681791,38.9531735 L144.852132,40.4012224 C144.852132,40.4012224 144.582393,41.3286319 145.935042,41.3608839 L154.98084,41.3608839 C155.733877,41.3841381 156.411084,40.9062487 156.640159,40.1899389 L157.539727,38.5345557 C157.539727,38.5345557 158.397086,37.0562294 155.776205,36.8850964 L152.355342,36.8850964 C152.355342,36.8850964 151.527661,37.0213446 151.914132,36.3980254 C152.141141,36.128515 152.486201,35.9873202 152.837442,36.0202163 L158.009955,36.0202163 L158.01655,36.012976 C158.423799,36.0228352 158.806451,35.8190239 159.024936,35.4758815 L159.743799,34.2252938 L161.331232,34.2252938 L162.182656,32.8312177 Z" id="Path_84" fill="#D9000D"></path>
                    <path d="M174.512138,52.6734368 L172.613418,52.6734368 L175.790922,49.222473 L174.512138,52.6734368 Z M171.002242,47.696756 L163.747666,55.9815703 L169.551327,55.9815703 L170.672489,54.7573108 L173.723368,54.7573108 L173.272925,56 L179.449867,56 L181.899935,47.696756 L171.002242,47.696756 Z" id="Path_85" fill="#D9000D"></path>
                    <polygon id="Path_86" fill="#D9000D" points="160.23777 47.696756 155.457004 55.9815703 162.27103 55.9815703 166.953529 47.696756"></polygon>
                    <polygon id="Path_87" fill="#D9000D" points="115.667629 47.7053126 110.913244 55.9802539 117.730567 55.9802539 122.36888 47.696756"></polygon>
                    <polygon id="Path_88" fill="#D9000D" points="134.13976 47.696756 132.393385 50.8824636 130.655585 47.696756 124.514915 47.696756 119.998612 55.9901269 125.614313 55.9901269 127.582942 52.5944523 129.561463 55.9901269 135.233222 55.9901269 139.996182 47.696756"></polygon>
                    <path d="M149.171243,51.0661025 L148.507779,52.5799718 C147.869376,54.2373296 146.848459,54.1478138 146.848459,54.1478138 L145.838754,54.1432064 L147.772428,50.1939821 L148.883698,50.2196521 C149.53661,50.37433 149.170583,51.0693935 149.170583,51.0693935 M154.861469,47.7079455 L142.36579,47.6960978 L137.654273,55.9809121 L151.364763,55.9809121 C151.364763,55.9809121 153.486397,56.1619182 154.596347,53.6857546 L156.801738,49.5469676 C156.801738,49.5469676 158.276396,47.7039962 154.866085,47.7039962" id="Path_89" fill="#D9000D"></path>
                    <path d="M73.4638,52.6721204 L71.5716745,52.6721204 L74.7504981,49.2211566 L73.4638,52.6721204 Z M69.8793796,47.6868829 L62.7415357,55.9848613 L68.5544302,55.9848613 L69.6399786,54.754678 L72.6822843,54.754678 L72.2384361,55.9848613 L78.387679,55.9848613 L80.8858914,47.6868829 L69.8793796,47.6868829 Z" id="Path_90" fill="#D9000D"></path>
                    <polygon id="Path_91" fill="#D9000D" points="84.3107111 47.7178185 79.6176595 55.9802539 86.4303665 55.9802539 91.0930807 47.7178185"></polygon>
                    <path d="M100.241102,50.9456512 L99.8625449,51.5380348 C99.8625449,51.5380348 99.5202607,52.1244946 97.6861719,51.8750353 L98.5211077,50.1906911 L99.8994773,50.1906911 C100.071068,50.2053858 100.221335,50.3114075 100.292446,50.4679523 C100.363557,50.6244971 100.344428,50.807164 100.242421,50.9456512 M106.271634,47.7099201 L93.3769534,47.7099201 L88.6746687,55.9855195 L95.4491242,55.9855195 L96.9963276,53.0723084 L98.9036217,55.9855195 L105.67412,55.9855195 L103.624373,53.648237 C104.491278,53.6685594 105.301497,53.2196907 105.742709,52.4746591 L107.216048,49.7523272 C108.007456,47.9600376 106.269655,47.7118947 106.269655,47.7118947" id="Path_92" fill="#D9000D"></path>
                </g>
            </g>
        </g>
    </g>
</svg>