<?xml version="1.0" encoding="UTF-8"?>
<svg width="352px" height="72px" viewBox="0 0 352 72" version="1.1" xmlns="http://www.w3.org/2000/svg" xmlns:xlink="http://www.w3.org/1999/xlink">
    <title>AirNewZealand</title>
    <g id="Taskboard" stroke="none" stroke-width="1" fill="none" fill-rule="evenodd">
        <g id="AirNewZealand">
            <rect id="Rectangle" fill="#FFFFFF" x="0" y="0" width="352" height="72"></rect>
            <g id="Air_New_Zealand_logo" transform="translate(48.000000, 16.000000)" fill="#231F20" fill-rule="nonzero">
                <path d="M11.2564706,20.1134216 L0,36.4083176 L2.03294118,36.4083176 L4.81882353,32.4385633 L11.4823529,32.4385633 L11.7835294,34.2911153 C11.9988706,35.758034 12.3798588,36.4083176 14.08,36.4083176 L15.7741176,36.4083176 L13.0635294,20.1134216 L11.2564706,20.1134216 Z M21.0447059,21.436673 L17.6941176,36.4083176 L21.3082353,36.4083176 L24.6588235,21.436673 L21.0447059,21.436673 Z M27.52,21.436673 L28.2352941,22.7221172 L25.1858824,36.4083176 L28.8,36.4083176 L31.8117647,22.7977316 L32.9411765,22.7977316 C35.0208,22.7977316 35.8881882,24.0136106 35.7270588,25.8223062 C35.5930353,27.441966 34.4018824,29.2173913 30.7576471,29.6030246 L33.6941176,34.7826087 C34.4500706,36.1013233 34.7828706,36.4083176 36.7811765,36.4083176 L38.7011765,36.4083176 L34.6729412,30.0567108 C36.8323765,29.7240076 39.1845647,28.362949 39.4541176,25.9357278 C39.7778824,23.1516068 37.7840941,21.436673 34.4094118,21.436673 L27.52,21.436673 Z M49.4305882,21.436673 L50.3717647,23.1758034 L47.4352941,36.4083176 L49.3176471,36.4083176 L51.8023529,25.4064272 L57.4117647,34.7826087 C58.0291765,35.8396975 58.5818353,36.4083176 60.3105882,36.4083176 L63.6611765,21.436673 L61.7788235,21.436673 L59.4447059,31.7958412 L54.3623529,23.0245747 C53.6304941,21.7572779 53.2555294,21.436673 51.6894118,21.436673 L49.4305882,21.436673 Z M67.0117647,21.436673 L63.6611765,36.4083176 L75.1811765,36.4083176 C74.9658353,35.3769376 74.5080471,34.9716446 73.1858824,34.9716446 L67.6517647,34.9716446 L68.8941176,29.4517958 L74.5788235,29.4517958 L74.9176471,27.9395085 L69.1952941,27.9395085 L70.3247059,22.8733459 L75.5952941,22.8733459 C76.9174588,22.8733459 77.3737412,22.4665406 77.5905882,21.436673 L67.0117647,21.436673 Z M78.9082353,21.436673 L81.2047059,36.4083176 L82.9364706,36.4083176 L88.0941176,27.4858223 L89.3364706,36.4083176 L91.0682353,36.4083176 L100.028235,21.436673 L98.1082353,21.436673 L91.8964706,31.9092628 L90.6917647,22.0793951 C90.6389986,21.6181474 90.2490353,21.436673 89.7882353,21.436673 L87.3035294,21.436673 L87.7929412,24.9905482 L83.8776471,31.9092628 L82.4094118,22.0793951 C82.3537544,21.6181474 81.9651765,21.436673 81.5058824,21.436673 L78.9082353,21.436673 Z M107.708235,21.436673 C107.923576,22.4680529 108.378353,22.8733459 109.703529,22.8733459 L116.404706,22.8733459 L105.788235,33.610586 C104.871153,34.5436673 104.261271,35.1455577 104.207059,36.4083176 L117.985882,36.4083176 C117.770541,35.3844991 117.329318,34.9761815 116.028235,34.9716446 L115.990648,34.9716446 L109.025943,34.9716446 L119.265943,24.3856333 C120.559496,22.9943289 120.851637,22.2850662 120.96006,21.436673 L107.708296,21.436673 L107.708235,21.436673 Z M123.745882,21.436673 L120.432941,36.4083176 L131.915294,36.4083176 C131.695435,35.3769376 131.242165,34.9716446 129.92,34.9716446 L124.385882,34.9716446 L125.628235,29.4517958 L131.312941,29.4517958 L131.651765,27.9395085 L125.929412,27.9395085 L127.058824,22.8733459 L132.329412,22.8733459 C133.653082,22.8733459 134.109365,22.4680529 134.324706,21.436673 L123.745882,21.436673 Z M142.908235,21.436673 L132.818824,36.4083176 L134.851765,36.4083176 L137.524706,32.4385633 L143.585882,32.4385633 L143.962353,34.2911153 C144.289129,35.7413989 144.632471,36.4083176 146.334118,36.4083176 L148.065882,36.4083176 L144.715294,21.436673 L142.908235,21.436673 Z M153.336471,21.436673 L149.985882,36.4083176 L160,36.4083176 C159.784659,35.3784499 159.289224,34.9716446 157.967059,34.9716446 L153.938824,34.9716446 L156.950588,21.436673 L153.336471,21.436673 Z M170.955294,21.436673 L160.903529,36.4083176 L162.898824,36.4083176 L165.571765,32.4385633 L171.632941,32.4385633 L172.047059,34.2911153 C172.369318,35.7413989 172.717176,36.4083176 174.418824,36.4083176 L176.150588,36.4083176 L172.762353,21.436673 L170.955294,21.436673 Z M180.065882,21.436673 L181.044706,23.1758034 L178.070588,36.4083176 L179.990588,36.4083176 L182.437647,25.4064272 L188.047059,34.7826087 C188.672,35.8396975 189.253271,36.4083176 190.983529,36.4083176 L194.296471,21.436673 L192.414118,21.436673 L190.117647,31.7958412 L184.997647,23.0245747 C184.270306,21.7572779 183.890824,21.436673 182.324706,21.436673 L180.065882,21.436673 Z M197.195294,21.436673 L197.872941,22.7221172 L194.823529,36.4083176 L200.32,36.4083176 C205.233694,36.4083176 209.816094,33.6680529 210.597647,28.9224953 C211.3792,24.23138 208.015059,21.436673 203.256471,21.436673 L199.228235,21.436673 L198.174118,21.436673 L197.195294,21.436673 Z M201.487059,22.8355388 L202.465882,22.8355388 C205.891765,22.8355388 207.463906,25.1039698 206.870588,28.9224953 C206.272753,32.789414 203.181176,35.047259 199.755294,35.047259 L198.738824,35.047259 L201.487059,22.8355388 Z M10.2776471,24.6502836 L11.2564706,30.8884688 L5.91058824,30.8884688 L10.2776471,24.6502836 Z M142.042353,25.6332703 L143.209412,30.8884688 L138.541176,30.8884688 L142.042353,25.6332703 Z M170.127059,25.6332703 L171.294118,30.8884688 L166.625882,30.8884688 L170.127059,25.6332703 Z" id="AirNewZealand"></path>
                <path d="M240.64,0 C236.125365,0 231.946541,3.22117202 229.571765,5.55765595 C221.123765,13.8328922 216.658824,19.4328922 216.658824,19.4328922 L254.305882,19.4328922 L256,15.6521739 L225.618824,15.6521739 C225.618824,15.6521739 227.912282,12.4975425 232.847059,7.82608696 C234.0864,6.66162571 237.331576,3.74291115 240.64,3.74291115 C242.812988,3.74291115 244.517647,5.10699433 244.517647,6.95652174 C244.517647,8.78638941 242.974118,9.30056711 242.974118,9.30056711 C243.135247,8.51871456 242.612706,6.38941399 240.564706,6.38941399 C238.441412,6.38941399 237.552941,8.01663516 237.552941,9.11153119 C237.552941,11.3618147 239.591906,12.9678639 241.957647,12.9678639 C246.506918,12.9678639 248.621176,9.7194707 248.621176,6.57844991 C248.621176,3.40869565 245.544659,0 240.64,0 Z M216.018824,21.3988658 C216.018824,21.3988658 217.994541,27.1047259 220.611765,32.5519849 C222.829929,37.1931947 226.5088,40 231.002353,40 C235.224847,40 238.08,36.7742911 238.08,33.6862004 C238.08,30.1913043 235.432659,27.9017013 232.282353,27.9017013 C228.922729,27.9017013 228.216471,30.4378072 228.216471,31.0775047 C228.216471,32.5519849 229.445271,33.9130435 231.002353,33.9130435 C233.453929,33.9130435 233.637647,31.9470699 233.637647,31.9470699 C233.637647,31.9470699 234.390588,32.4310019 234.390588,33.6862004 C234.390588,34.8930057 233.372612,36.4461248 231.002353,36.4461248 C229.110965,36.4461248 226.331106,35.4449905 224.414118,31.3799622 C222.159812,26.620794 222.004706,25.2173913 222.004706,25.2173913 L251.708235,25.2173913 L253.402353,21.3988658 L216.018824,21.3988658 Z" id="koru"></path>
            </g>
        </g>
    </g>
</svg>