<?xml version="1.0" encoding="UTF-8"?>
<svg width="352px" height="72px" viewBox="0 0 352 72" version="1.1" xmlns="http://www.w3.org/2000/svg" xmlns:xlink="http://www.w3.org/1999/xlink">
    <title>Akasa</title>
    <g id="Taskboard" stroke="none" stroke-width="1" fill="none" fill-rule="evenodd">
        <g id="Akasa">
            <rect id="Rectangle" fill="#FFFFFF" x="0" y="0" width="352" height="72"></rect>
            <g id="akasa" transform="translate(48.000000, 14.000000)" fill-rule="nonzero">
                <path d="M183.566761,36.8441781 C183.55307,36.932062 183.560637,37.0217395 183.588379,37.1060363 C183.616121,37.1903332 183.663319,37.2670971 183.72637,37.3298714 C183.789421,37.3926456 183.866523,37.4399953 183.951552,37.467616 C184.03622,37.4952367 184.126293,37.5027696 184.214564,37.4891386 L189.067683,37.4891386 L189.067683,15.9891745 L187.59013,15.9891745 C186.625631,15.9446227 185.681669,16.2730934 184.954962,16.9057861 C184.228256,17.5385146 183.77573,18.4265012 183.691782,19.3838981 C182.270795,16.7926131 179.497636,15.5478536 176.212864,15.5478536 C170.586922,15.5478536 165.65454,20.0741637 165.65454,27.089957 C165.65454,33.8115363 169.200523,38.0437042 175.519665,38.0437042 C180.065815,38.0437042 181.964188,35.9728715 181.964188,33.947308 C181.991209,33.5365492 181.923114,33.125073 181.765667,32.7445176 C181.60786,32.3639622 181.364664,32.0244432 181.054813,31.7520388 C180.513296,32.2437943 179.878103,32.622341 179.187066,32.8652952 C178.496028,33.1082854 177.762836,33.2106971 177.031445,33.166504 C174.178662,33.166504 171.621317,31.5709979 171.621317,27.089957 C171.621317,22.8352262 174.564894,20.7191601 177.633852,20.7191601 C181.577596,20.7191601 183.566761,23.2652118 183.566761,26.9654846 L183.566761,36.8441781 Z M218.095598,11.0328787 L228.324616,37.4891386 L222.4825,37.4891386 C222.271369,37.5092264 222.060599,37.4493218 221.891983,37.321621 C221.723367,37.1935616 221.609515,37.0070324 221.573126,36.7989806 L213.480993,14.7783848 L209.150656,26.5015291 L211.969212,26.5015291 C214.560784,26.5015291 215.560952,27.4860086 216.163358,29.0815148 L216.901954,31.0278392 C217.072372,31.4578249 216.901954,31.7520388 216.458797,31.7520388 L207.207247,31.7520388 L205.127288,37.4891386 L199.762557,37.4891386 C199.670323,37.5013347 199.576287,37.4880625 199.490898,37.4507566 C199.405509,37.4138095 199.332009,37.3542636 199.278326,37.2785758 C199.224643,37.202888 199.192577,37.113928 199.185731,37.0213808 C199.178886,36.9288336 199.197621,36.8362864 199.239775,36.7537831 L208.809821,11.858916 C209.798459,9.27893038 211.082896,8.4641924 213.355972,8.4641924 L218.106767,8.4641924 C218.459132,8.4641924 218.584153,8.64523333 218.584153,8.86024409 C218.584153,9.33549894 217.890953,9.4599713 217.890953,10.1955061 C217.914372,10.483622 217.983187,10.7662496 218.095598,11.0328787 Z M135.705721,36.8441781 C135.69239,36.932062 135.699957,37.0217395 135.727699,37.1060363 C135.755441,37.1903332 135.802639,37.2670971 135.86569,37.3298714 C135.928741,37.3926456 136.005843,37.4399953 136.090512,37.467616 C136.17554,37.4952367 136.265613,37.5027696 136.353884,37.4891386 L141.195473,37.4891386 L141.195473,15.9891745 L139.72945,15.9891745 C138.764951,15.9446227 137.820989,16.2730934 137.094282,16.9057861 C136.367576,17.5385146 135.91505,18.4265012 135.830742,19.3838981 C134.410115,16.7926131 131.636956,15.5478536 128.352184,15.5478536 C122.669677,15.5478536 117.7935,20.0741637 117.7935,27.089957 C117.7935,33.8115363 121.339843,38.0437042 127.658985,38.0437042 C132.205135,38.0437042 134.103508,35.9728715 134.103508,33.947308 C134.130529,33.5365492 134.062434,33.125073 133.904987,32.7445176 C133.74718,32.3639622 133.503984,32.0244432 133.194133,31.7520388 C132.652616,32.2437943 132.017423,32.622341 131.326386,32.8652952 C130.635348,33.1082854 129.902156,33.2106971 129.170765,33.166504 C126.317982,33.166504 123.760637,31.5709979 123.760637,27.089957 C123.760637,22.8352262 126.704214,20.7191601 129.773172,20.7191601 C133.716916,20.7191601 135.705721,23.2652118 135.705721,26.9654846 L135.705721,36.8441781 Z M110.246847,16.713374 C110.39889,16.4444492 110.628755,16.2272862 110.90654,16.0900796 C111.183964,15.952873 111.496696,15.9019362 111.804024,15.9439053 L118.077769,15.9439053 L108.814691,26.2412491 L118.293584,37.4891386 L111.86095,37.4891386 C111.552541,37.5285967 111.239809,37.4751489 110.962024,37.3359694 C110.684601,37.19679 110.455456,36.9783356 110.303773,36.708227 L103.200278,28.0518019 L103.200278,37.4891386 L98.358329,37.4891386 C98.2700577,37.5027696 98.179985,37.4952367 98.0953166,37.467616 C98.0106483,37.4399953 97.933546,37.3926456 97.8704951,37.3298714 C97.8074442,37.2670971 97.7598858,37.1903332 97.7321434,37.1060363 C97.704401,37.0217395 97.6971952,36.932062 97.710526,36.8441781 L97.710526,11.1573511 C97.7166509,10.0967891 98.1421545,9.08135292 98.8955227,8.33139797 C99.6488909,7.58144302 100.668874,7.15748369 101.733894,7.15156498 L103.200278,7.15156498 L103.200278,24.645743 L110.246847,16.713374 Z M84.2878893,11.0555133 L94.5169076,37.5117373 L88.7090187,37.5117373 C88.4978882,37.5318251 88.2871181,37.4722792 88.1185019,37.3442198 C87.9498858,37.2161603 87.8360339,37.0296311 87.7996445,36.8215793 L79.7075114,14.7783848 L75.3771753,26.5015291 L78.1957308,26.5015291 C80.7869428,26.5015291 81.7874706,27.4860086 82.3895167,29.0815148 L83.1284733,31.0278392 C83.2988908,31.4578249 83.1284733,31.7520388 82.6964845,31.7520388 L73.433406,31.7520388 L71.3538071,37.4891386 L65.9890759,37.4891386 C65.8968414,37.5013347 65.8028055,37.4880625 65.7174165,37.4507566 C65.6320276,37.4138095 65.5585283,37.3542636 65.5048449,37.2785758 C65.4508013,37.202888 65.4187354,37.113928 65.4122502,37.0213808 C65.4054046,36.9288336 65.4241398,36.8362864 65.4662938,36.7537831 L75.0359798,11.858916 C76.0249783,9.27893038 77.309055,8.4641924 79.5824904,8.4641924 L84.344455,8.4641924 C84.6856504,8.4641924 84.8106714,8.64523333 84.8106714,8.86024409 C84.8106714,9.33549894 84.1286407,9.4599713 84.1286407,10.1955061 C84.1362068,10.4823665 84.1938534,10.7657474 84.2990583,11.0328787 L84.2878893,11.0555133 Z M241.633762,19.9723259 L241.633762,36.8441781 C241.62007,36.932062 241.627637,37.0217395 241.655379,37.1060363 C241.683121,37.1903332 241.730319,37.2670971 241.793731,37.3298714 C241.856782,37.3926456 241.933524,37.4399953 242.018552,37.467616 C242.103221,37.4952367 242.193293,37.5027696 242.281565,37.4891386 L247.123153,37.4891386 L247.123153,26.7617732 C247.075235,26.0032092 247.183682,25.2428158 247.442371,24.5276916 C247.70142,23.8126032 248.104586,23.1579575 248.627728,22.6042887 C249.15087,22.0506198 249.78246,21.6096935 250.483586,21.3088076 C251.184712,21.0079217 251.940242,20.8534253 252.703699,20.8549677 C253.543897,20.8116714 254.383735,20.9426723 255.17025,21.2396842 C255.656283,20.2895332 255.938751,19.2490949 256,18.1844437 C256,16.8944508 255.30644,15.6836612 252.96527,15.6836612 C250.62374,15.6836612 248.41912,17.1546949 247.123153,20.2099713 L247.123153,15.9439053 L245.65713,15.9439053 C245.121017,15.9124823 244.584184,15.9946627 244.082659,16.1849942 C243.580773,16.3753616 243.125005,16.6695397 242.745979,17.0481581 C242.366593,17.4267406 242.072596,17.8811185 241.882723,18.3813037 C241.692849,18.8814889 241.611784,19.4160385 241.644931,19.9496913 L241.633762,19.9723259 Z M231.506705,19.9723259 C231.51283,18.911764 231.938694,17.8963278 232.692062,17.1463729 C233.44507,16.3964179 234.465054,15.9724945 235.530434,15.9665399 L236.996458,15.9665399 L236.996458,37.4665399 L232.154869,37.4665399 C232.066598,37.4798121 231.976525,37.4726379 231.891496,37.4450173 C231.806828,37.4173966 231.729726,37.3700469 231.666675,37.3072726 C231.603624,37.2444984 231.556426,37.1677345 231.528683,37.0834376 C231.500941,36.9991408 231.493375,36.9094633 231.506705,36.8215793 L231.506705,19.9723259 Z M144.343695,33.6530941 C144.343695,36.4933597 149.367231,37.9644293 153.436356,37.9644293 C158.75533,37.9644293 163.131063,35.463611 163.131063,30.98257 C163.131063,27.6670496 161.449225,25.7207251 157.3801,24.7362814 L152.83395,23.6046949 C151.697232,23.2991816 151.015561,22.8238909 151.015561,21.7489089 C151.015561,20.6738909 152.094993,20.0628643 154.174952,20.0628643 C156.606555,20.0929242 158.976549,20.8283156 160.994538,22.1788945 C161.795104,21.4127259 162.301673,20.3920525 162.426694,19.2933956 C162.426694,16.8831156 158.448723,15.4573511 154.07263,15.4573511 C149.401458,15.4573511 145.116519,17.788392 145.116519,22.2467983 C145.116519,25.6415219 146.810246,27.7123188 150.6178,28.5723259 L155.288972,29.7038766 C156.493784,29.9528213 157.186984,30.4733812 157.186984,31.4691601 C157.186984,32.7138837 156.152589,33.3588802 153.641001,33.3588802 C150.79038,33.263535 148.02839,32.352053 145.685058,30.7336253 C144.876925,31.4986102 144.396658,32.5443215 144.343695,33.6530941 Z M234.325621,5.98604451 C233.421291,5.98604451 232.554071,6.34367836 231.914555,6.98031683 C231.275038,7.6169553 230.915828,8.48044196 230.915828,9.38076814 C230.915828,10.2810943 231.275038,11.144581 231.914555,11.7812194 C232.554071,12.417822 233.421291,12.7754918 234.325621,12.7754918 C234.78175,12.7891227 235.236076,12.7113903 235.66194,12.5469218 C236.087444,12.3824174 236.475477,12.1345488 236.802981,11.8179513 C237.130486,11.5013539 237.390976,11.1224844 237.5686,10.703834 C237.746223,10.2851836 237.837737,9.83525368 237.837378,9.38076814 C237.837737,8.92624673 237.746223,8.47635267 237.5686,8.05770225 C237.390976,7.63905184 237.130486,7.26018236 236.802981,6.94358493 C236.475477,6.6269875 236.087444,6.37908304 235.66194,6.21461451 C235.236076,6.05014599 234.78175,5.97241353 234.325621,5.98604451 Z" id="Shape" fill="#5C0FD9"></path>
                <path d="M0.170618268,41.9590236 L16.0825201,15.083934 C16.3439112,14.6539124 16.5144008,14.4728715 16.7758279,14.4728715 C17.0372189,14.4728715 17.2190937,14.6991816 17.4350161,15.0386648 C19.4050145,18.3440696 20.4490294,22.1148648 20.4582889,25.9583705 C20.4582889,36.0406677 12.5023457,43 1.0457731,43 C0.829825555,43 0,43 0,42.4795118 C-0.00322600079,42.2919065 0.056812828,42.1086057 0.170618268,41.9590236 Z" id="Path" fill="#FF6300"></path>
                <path d="M36.6314942,17.086827 L50.5657439,41.86827 C50.9181084,42.4795118 50.7022942,43 49.8271476,43 C39.5981293,43 34.8471897,39.1750755 31.0055882,32.3404667 L20.2650649,13.2168127 C19.7479754,12.4538724 19.4457634,11.5668544 19.3899183,10.6481264 C19.5000232,9.51474632 19.8905065,8.42616914 20.5264919,7.47971287 L21.8789879,5.09210338 C23.7997706,1.56157574 25.891079,0 30.8237494,0 L34.3243716,0 C34.8471897,0 34.8926584,0.396051688 34.6312313,0.690262025 C33.4176996,2.13928892 32.7932794,3.98828103 32.8809382,5.87287152 C32.8809382,8.47552764 33.8470222,12.085262 36.6314942,17.086827 Z" id="Path" fill="#FF6300"></path>
            </g>
        </g>
    </g>
</svg>