<?xml version="1.0" encoding="UTF-8"?>
<svg width="352px" height="72px" viewBox="0 0 352 72" version="1.1" xmlns="http://www.w3.org/2000/svg" xmlns:xlink="http://www.w3.org/1999/xlink">
    <title>AllianceAirlines</title>
    <g id="Taskboard" stroke="none" stroke-width="1" fill="none" fill-rule="evenodd">
        <g id="AllianceAirlines">
            <rect id="Rectangle" fill="#FFFFFF" x="0" y="0" width="352" height="72"></rect>
            <g id="Alliance_Airlines_logo" transform="translate(64.000000, 8.000000)">
                <polygon id="Path" fill="#FFC627" fill-rule="nonzero" points="99.6862518 0.0383824537 88.72498 0.0383824537 88.3800449 1.45853324 91.5611133 1.45853324 87.6518485 4.26045236 86.3104341 9.63399589"></polygon>
                <polygon id="Path" fill="#0D2240" fill-rule="nonzero" points="58.447341 0 69.3702867 0 59.7121032 38.6511309 48.7891575 38.6511309"></polygon>
                <polygon id="Path" fill="#0D2240" fill-rule="nonzero" points="73.6244866 0 84.5474323 0 74.8892488 38.6511309 63.9663031 38.6511309"></polygon>
                <polygon id="Path" fill="#0D2240" fill-rule="nonzero" points="86.272108 9.7875257 97.2717059 9.7875257 90.1047205 38.6511309 79.1434487 38.6511309"></polygon>
                <path d="M192.933715,19.114462 C191.630626,18.5387252 190.365864,18.1165182 189.101102,17.847841 C187.874666,17.5791638 186.763208,17.4640164 185.766729,17.4640164 C183.313857,17.4640164 181.282573,18.1549006 179.749527,19.536669 C175.227045,23.3365319 176.568459,27.7121316 177.679917,29.0555175 C178.676396,30.5140507 181.589182,32.2412611 186.724882,30.6291981 C187.874666,30.283756 189.101102,29.8231666 190.365864,29.2474297 L186.763208,38.1905415 C182.89227,39.5723098 178.753048,39.5723098 178.216482,39.5723098 C174.153913,39.5723098 170.81954,38.3440713 168.175038,35.9259767 C165.530535,33.5078821 164.917317,29.4009596 166.37371,23.6435915 C167.370189,19.6518163 169.363148,16.1973955 172.352585,13.3187114 C175.342023,10.401645 179.634549,8.94311172 185.26849,8.94311172 C186.609904,8.94311172 188.027971,9.05825908 189.522689,9.25017135 C191.055734,9.40370117 192.665432,9.7107608 194.313455,10.1329678 L192.933715,19.114462 L192.933715,19.114462 Z" id="Path" fill="#0D2240" fill-rule="nonzero"></path>
                <path d="M143.569665,14.0863605 C144.719449,12.7813571 146.367472,11.6682659 148.513735,10.747087 C150.621672,9.7875257 154.722568,8.712817 157.405396,8.75119945 C159.973247,8.75119945 162.157836,9.40370117 163.920838,10.747087 C165.68384,12.0520905 166.220405,14.2398903 165.530535,17.3104866 L160.203204,38.6127485 L149.241932,38.6127485 L152.997892,23.5668266 C153.419479,21.8012337 153.304501,20.4578478 152.576305,19.4982865 C151.886434,18.5387252 149.471889,16.2741604 144.719449,20.3810829 C143.378035,21.6093215 142.343229,23.3365319 141.653359,25.6010966 L138.395638,38.6511309 L127.434367,38.6511309 L134.563026,10.0945853 L144.527818,10.0945853 L143.569665,14.0863605 L143.569665,14.0863605 Z" id="Path" fill="#0D2240" fill-rule="nonzero"></path>
                <path d="M103.633843,11.3995888 C106.584954,10.747087 109.229457,10.2481151 111.567351,9.94105552 C113.94357,9.59561343 116.013181,9.44208362 117.814509,9.44208362 C122.183687,9.44208362 125.211451,10.2097327 126.821149,11.7066484 C128.430846,13.2035641 129.08239,14.9307745 128.699129,16.8882796 L123.256819,38.6127485 L112.257221,38.6127485 L115.399963,25.9465387 C114.863397,26.2919808 114.288506,26.560658 113.675288,26.8293352 C113.06207,27.0212474 108.80787,28.3262509 107.964695,28.6333105 C104.55367,30.283756 105.703453,32.1261138 106.163367,32.6634681 C107.61976,34.1220014 111.37572,32.7786155 111.452372,32.7786155 L108.577913,39.0349554 C108.386282,39.0349554 104.821953,39.3036326 104.438691,39.3036326 C100.29947,39.3036326 97.5016627,38.5359836 96.0452699,37.0390679 C92.7492231,34.1220014 93.2857889,25.3324195 104.05543,22.5688828 C105.396844,22.1850583 106.699933,21.8396162 108.003021,21.570939 C109.267783,21.2638794 110.455893,20.9952022 111.529025,20.6881426 C112.908765,20.3427005 114.058549,19.9972584 114.978376,19.6134339 C117.776183,18.2316655 117.431248,15.8519534 112.525504,15.8519534 C111.37572,15.8519534 109.842675,16.0438657 107.926369,16.4660727 C106.048389,16.8498972 103.672169,17.5791638 100.874362,18.6538725 L103.633843,11.3995888 L103.633843,11.3995888 Z" id="Path" fill="#0D2240" fill-rule="nonzero"></path>
                <path d="M127.89428,55.8080877 C129.274021,50.8951337 130.2705,47.70939 131.381957,44.4852639 L128.699129,44.4852639 C127.472693,49.0143934 126.361235,52.3920493 125.211451,55.8080877 L127.89428,55.8080877 L127.89428,55.8080877 Z" id="Path" fill="#0D2240" fill-rule="nonzero"></path>
                <path d="M142.381555,50.6264565 C144.259536,50.2810144 145.869233,49.2830706 146.405799,47.287183 C146.98069,45.176148 145.447645,44.4852639 143.493013,44.4852639 L138.395638,44.4852639 C137.360833,48.2851268 136.249375,52.0466073 134.869635,55.8080877 L137.437485,55.8080877 C137.897399,54.1192598 139.813705,47.70939 140.273618,46.2124743 C140.886836,46.1740918 141.500054,46.1357094 142.113272,46.1357094 C143.148078,46.1357094 144.297862,46.2892392 143.952927,47.6326251 C143.569665,49.0911583 142.189925,49.6668951 140.886836,49.6668951 C140.541901,49.6668951 140.235292,49.6285127 139.890357,49.5517478 C140.350271,51.6244003 140.886836,53.6586703 141.116793,55.8080877 L143.837948,55.8080877 L142.381555,50.6264565 L142.381555,50.6264565 Z" id="Path" fill="#0D2240" fill-rule="nonzero"></path>
                <path d="M158.631832,53.96573 C157.558701,54.0041124 156.447243,54.0041124 155.374112,54.0041124 L153.304501,54.0041124 C153.956045,51.8163125 155.98733,45.4832077 156.332265,44.4852639 L153.687762,44.4852639 C152.614631,48.2851268 151.464847,52.0466073 150.085107,55.8080877 L158.018614,55.8080877 L158.631832,53.96573 L158.631832,53.96573 Z" id="Path" fill="#0D2240" fill-rule="nonzero"></path>
                <path d="M166.335384,55.8080877 C167.715124,50.8951337 168.711603,47.70939 169.823061,44.4852639 L167.178558,44.4852639 C165.952122,49.0143934 164.840665,52.3920493 163.690881,55.8080877 L166.335384,55.8080877 L166.335384,55.8080877 Z" id="Path" fill="#0D2240" fill-rule="nonzero"></path>
                <path d="M181.244246,55.8080877 L184.233684,55.8080877 C185.306816,52.0466073 186.533252,48.1699794 187.83634,44.4852639 L185.498446,44.4852639 C184.693598,47.3255655 183.735445,50.3961618 182.89227,53.0445511 L182.853944,53.0445511 C181.972443,50.165867 180.822659,47.4023304 179.941158,44.4852639 L176.836742,44.4852639 C175.76361,48.2851268 174.613827,52.0466073 173.272412,55.8080877 L175.648632,55.8080877 C176.491807,52.8526388 177.488286,49.6668951 178.13983,47.3639479 L178.216482,47.3639479 L181.244246,55.8080877 L181.244246,55.8080877 Z" id="Path" fill="#0D2240" fill-rule="nonzero"></path>
                <path d="M194.850021,44.4852639 C194.236803,46.7882111 192.243844,53.5051405 191.285691,55.8080877 L199.564134,55.8080877 L200.177352,53.888965 C198.72096,54.0041124 198.184394,54.0041124 197.762806,54.0041124 L194.428433,54.0041124 L195.386587,50.8951337 L200.368983,50.8951337 L200.943875,49.1679232 C200.024048,49.1679232 199.295851,49.2446881 198.682633,49.2446881 L195.961478,49.2446881 L196.881305,46.2892392 L199.640787,46.2892392 C200.59894,46.2892392 201.557093,46.2892392 202.515246,46.3660041 L203.090138,44.4852639 L194.850021,44.4852639 L194.850021,44.4852639 Z" id="Path" fill="#0D2240" fill-rule="nonzero"></path>
                <path d="M216.044368,44.6004112 C215.201193,44.408499 214.358019,44.2933516 213.438192,44.2933516 C211.445233,44.2933516 209.29897,45.176148 208.762404,47.1720356 C208.034208,49.9739548 212.058451,51.1638108 211.598538,52.9294037 C211.330255,53.888965 210.218797,54.1960247 209.413948,54.1960247 C208.379143,54.1960247 207.459316,53.888965 206.616141,53.4667581 L206.23288,55.5394106 C207.229359,55.7697053 208.225839,56 209.29897,56 C212.441712,56 213.783127,54.1960247 214.128062,52.9294037 C214.856258,50.2426319 210.793689,49.0911583 211.253602,47.3255655 C211.445233,46.5962988 212.36506,46.0589445 213.438192,46.0589445 C214.24304,46.0589445 214.971237,46.2892392 215.661107,46.5579164 L216.044368,44.6004112 L216.044368,44.6004112 Z" id="Path" fill="#0D2240" fill-rule="nonzero"></path>
                <path d="M24.797003,19.536669 L33.8036425,19.536669 L32.5005542,8.59766964 L24.797003,19.536669 L24.797003,19.536669 Z M27.4415057,0 L46.9878296,0 L42.7719558,4.60589445 L48.2525917,38.6895134 L35.489992,38.6895134 L34.2252299,27.405072 L20.6961076,27.405072 L12.6859475,38.6895134 L0,38.6895134 L27.4415057,0 L27.4415057,0 Z" id="Shape" fill="#0D2240"></path>
                <path d="M113.905244,50.0507197 L116.779704,46.2508568 L117.086313,50.0507197 L113.905244,50.0507197 L113.905244,50.0507197 Z M117.047987,51.854695 C117.201291,53.121316 117.316269,54.4647019 117.316269,55.8080877 L120.037424,55.8080877 C119.615837,52.0466073 119.19425,48.2467443 118.964293,44.4852639 L115.898203,44.4852639 C112.985417,48.2851268 109.99598,52.0849897 106.968216,55.8080877 L109.766023,55.8080877 C110.724176,54.4647019 111.720655,53.121316 112.717134,51.854695 L117.047987,51.854695 L117.047987,51.854695 Z" id="Shape" fill="#0D2240"></path>
                <path d="M214.281366,20.5729952 C214.74128,18.7690199 214.549649,17.425634 213.744801,16.6963674 C212.978278,15.9287183 211.905147,15.5832762 210.602058,15.5832762 C209.452275,15.5832762 208.264165,16.0054832 207.076055,16.8882796 C205.887945,17.7710761 205.121422,18.9993146 204.699835,20.5729952 L214.281366,20.5729952 L214.281366,20.5729952 Z M213.093256,9.01987663 C217.232478,8.86634681 221.56333,10.4784099 223.288006,13.280329 C225.012681,16.0438657 225.434269,19.1528444 224.552768,22.6840302 C224.399463,23.2213845 223.632941,25.4859493 223.402984,26.0616861 L202.821855,25.9849212 C202.898507,27.9808088 203.550051,29.5544894 204.776487,30.6291981 C206.002923,31.6655243 207.804251,32.2028787 210.065493,32.2028787 C211.406907,32.2028787 212.901626,32.0109664 214.587975,31.6271419 C216.312651,31.2433173 218.152305,30.7443454 220.106937,30.1302262 L217.155826,38.2289239 C215.124541,38.7278958 213.169909,39.1117204 211.368581,39.3420151 C209.567253,39.6490747 207.91923,39.7642221 206.386185,39.7642221 C200.445635,39.7642221 196.421392,38.1905415 194.236803,35.0047978 C191.707279,31.4352296 189.062776,22.7991775 199.295851,13.7793009 C204.469878,9.2885538 209.222318,9.17340644 213.093256,9.01987663 L213.093256,9.01987663 Z" id="Shape" fill="#0D2240"></path>
            </g>
        </g>
    </g>
</svg>