<?xml version="1.0" encoding="UTF-8"?>
<svg width="352px" height="72px" viewBox="0 0 352 72" version="1.1" xmlns="http://www.w3.org/2000/svg" xmlns:xlink="http://www.w3.org/1999/xlink">
    <title>ANA</title>
    <g id="Taskboard" stroke="none" stroke-width="1" fill="none" fill-rule="evenodd">
        <g id="ANA">
            <rect id="Rectangle" fill="#FFFFFF" x="0" y="0" width="352" height="72"></rect>
            <g id="logo_ana_tagline" transform="translate(67.000000, 8.000000)" fill-rule="nonzero">
                <g id="グループ_91">
                    <g id="グループ_89" transform="translate(141.732056, 0.000000)">
                        <polygon id="パス_173" fill="#00A7EA" points="68.1232382 0 35.8911827 55.7697778 44.8056376 55.7697778 77.2679444 0"></polygon>
                        <polygon id="パス_174" fill="#0B318F" points="35.8911827 55.7697778 68.1107922 0 32.2351671 0 0 55.7697778"></polygon>
                    </g>
                    <g id="グループ_90" transform="translate(0.000000, 7.311111)" fill="#0B318F">
                        <path d="M62.4074079,11.2031111 C62.4405412,10.7123314 62.8313483,10.3215735 63.3221897,10.2884444 C63.7795806,10.2884444 64.2369715,10.5186667 64.2369715,10.9728889 L74.5204876,48.2346667 L91.2043646,48.2346667 L99.8947914,0.0124444444 L92.5672028,0.0124444444 L85.9521482,37.4888889 C85.9203447,37.9802714 85.5288108,38.3717561 85.0373664,38.4035556 C84.5799756,38.4035556 84.1225847,38.1764444 84.1225847,37.7191111 L73.8390685,0.00311111111 L57.15208,0.00311111111 L48.6950159,48.4586667 L56.0101586,48.4586667 L62.4074079,11.2031111 Z" id="パス_175"></path>
                        <path d="M33.6042282,32.004 L32.2320556,10.2884444 C32.2362744,9.73958141 31.8563082,9.26241426 31.3203853,9.14355556 C30.8598829,8.904 30.1815754,9.37377778 29.9451012,9.83733333 L8.22992441,48.4742222 L0,48.4742222 L27.431007,0.00311111111 L43.6637162,0.00311111111 L46.8623409,48.4586667 L34.9764009,48.4586667 L34.51901,43.204 C34.51901,42.0665389 33.5967995,41.1444444 32.4591953,41.1444444 L14.4124801,41.1444444 L18.5352211,33.8302222 L32.2413901,33.8302222 C32.9196977,34.0604444 33.8344794,33.1488889 33.6042282,32.004 Z" id="パス_176"></path>
                        <path d="M125.05129,32.2373333 L123.215504,10.7457778 C123.142583,10.1830362 122.635127,9.78043138 122.070471,9.83733333 C121.712294,9.84454529 121.376365,10.0124885 121.155689,10.2946667 L101.512773,48.6888889 L93.0401512,48.6888889 L118.187315,0 L134.186662,0 L138.542765,48.4555556 L126.420351,48.4555556 L125.96296,43.2008889 C125.96296,42.0634278 125.04075,41.1413333 123.903146,41.1413333 L106.982794,41.1413333 L110.641921,33.8271111 L123.215504,33.8271111 C123.682191,33.9267357 124.16859,33.8016652 124.529309,33.4892847 C124.890029,33.1769042 125.083277,32.7134053 125.05129,32.2373333 Z" id="パス_177"></path>
                    </g>
                </g>
            </g>
        </g>
    </g>
</svg>