<?xml version="1.0" encoding="UTF-8"?>
<svg width="352px" height="72px" viewBox="0 0 352 72" version="1.1" xmlns="http://www.w3.org/2000/svg" xmlns:xlink="http://www.w3.org/1999/xlink">
    <title>Azul</title>
    <g id="Taskboard" stroke="none" stroke-width="1" fill="none" fill-rule="evenodd">
        <g id="Azul">
            <rect id="Rectangle" fill="#FFFFFF" x="0" y="0" width="352" height="72"></rect>
            <g id="azul-logo-color" transform="translate(71.000000, 8.000000)" fill-rule="nonzero">
                <path d="M123.03725,18.7594138 L111.17225,18.7594138 L111.17225,38.1488078 C111.17225,44.5658573 107.2645,46.240555 104.67975,46.240555 C100.91375,46.240555 98.81725,44.5658573 98.81725,39.7517578 L98.81725,18.7594138 L86.95225,18.7594138 L86.95225,40.5182338 C86.95225,50.0029374 89.95525,56 100.35725,56 C104.53975,56 109.14925,53.7023218 111.38225,50.0081872 L111.52225,50.0081872 L111.52225,54.9605325 L123.03725,54.9605325 L123.03725,18.7594138 Z" id="Path" fill="#18B4E9"></path>
                <path d="M125.825,54.9517828 L137.69,54.9517828 L137.69,5.16233868 L125.825,5.16233868 L125.825,54.9482829 L125.825,54.9517828 Z M51.2925,54.9517828 L85.7675,54.9517828 L85.7675,45.887066 L66.3705,45.887066 L84.448,27.7541327 L84.448,18.7594138 L52.7555,18.7594138 L52.7555,27.8241305 L69.363,27.8241305 L51.29775,45.7488203 L51.29775,54.9535327 L51.2925,54.9517828 Z M0,54.9517828 L13.32975,54.9517828 L16.46925,46.0270617 L33.852,46.0270617 L36.9215,54.9517828 L50.46125,54.9517828 L31.82375,5.16583857 L18.6375,5.16583857 L0,54.9482829 L0,54.9517828 Z M25.123,18.9694072 L25.263,18.9694072 L30.7755,36.4041124 L19.4705,36.4041124 L25.123,18.9694072 Z" id="Shape" fill="#18B4E9"></path>
                <polygon id="Path" fill="#5061AA" points="189.16625 5.17983813 192.41075 5.17983813 192.41075 7.73475829 189.16275 7.73475829"></polygon>
                <polygon id="Path" fill="#8B328A" points="177.205 32.5594825 187.13625 32.5594825 187.13625 43.1466517 177.205 43.1466517"></polygon>
                <polygon id="Path" fill="#5D80C0" points="183.736 45.4110809 190.2635 45.4110809 190.2635 49.3659573 183.736 49.3659573"></polygon>
                <polygon id="Path" fill="#E94E29" points="179.865 47.2590232 187.71025 47.2590232 187.71025 55.0252805 179.86675 55.0252805"></polygon>
                <polygon id="Path" fill="#D5262A" points="189.58275 40.2084935 196.29925 40.2084935 196.29925 43.1484016 189.58625 43.1484016"></polygon>
                <polygon id="Path" fill="#F6A022" points="187.1275 34.8554108 194.01375 34.8554108 194.01375 36.5966064 187.1275 36.5966064"></polygon>
                <polygon id="Path" fill="#6A95CD" points="196.2905 40.2084935 201.103 40.2084935 201.103 41.5332021 196.2905 41.5332021"></polygon>
                <polygon id="Path" fill="#306FB6" points="187.1275 26.4241742 193.7075 26.4241742 193.7075 34.8589107 187.1275 34.8589107"></polygon>
                <polygon id="Path" fill="#73C8DD" points="174.2755 19.9563764 187.138 19.9563764 187.138 32.5612325 174.2755 32.5612325"></polygon>
                <polygon id="Path" fill="#92C143" points="166.7925 19.9598763 175.3815 19.9598763 175.3815 26.9316584 166.7925 26.9316584"></polygon>
                <polygon id="Path" fill="#5061AA" points="177.9365 8.15474516 192.4895 8.15474516 192.4895 20.0491235 177.9365 20.0491235"></polygon>
                <polygon id="Path" fill="#169BD6" points="193.69525 21.4998281 204.30025 21.4998281 204.30025 34.4441736 193.69525 34.4441736"></polygon>
                <polygon id="Path" fill="#F6A022" points="192.0275 28.8670979 201.10475 28.8670979 201.10475 40.2417424 192.02575 40.2417424"></polygon>
                <polygon id="Path" fill="#D5262A" points="187.1275 36.5703572 193.844 36.5703572 193.844 43.1379019 187.1275 43.1379019"></polygon>
                <polygon id="Path" fill="#199AA6" points="183.20225 40.6949783 191.86825 40.6949783 191.86825 45.4548295 183.19875 45.4548295"></polygon>
                <polygon id="Path" fill="#A5BFDF" points="201.0925 33.2909597 202.9475 33.2909597 202.9475 38.9905315 201.0925 38.9905315"></polygon>
                <polygon id="Path" fill="#3FB7AF" points="204.295 21.0990907 209.14775 21.0990907 209.14775 24.0984969 204.29675 24.0984969"></polygon>
                <polygon id="Path" fill="#AE2258" points="203.84525 24.096747 207.34525 24.096747 207.34525 26.047936 203.84525 26.047936"></polygon>
                <polygon id="Path" fill="#79C199" points="187.1275 14.9007844 193.7075 14.9007844 193.7075 26.4399238 187.1275 26.4399238"></polygon>
                <polygon id="Path" fill="#E5DF1F" points="193.69525 10.2546795 202.54675 10.2546795 202.54675 21.4980782 193.69875 21.4980782"></polygon>
                <polygon id="Path" fill="#33BACF" points="192.479 8.15474516 198.93125 8.15474516 198.93125 18.6964157 192.479 18.6964157"></polygon>
                <polygon id="Path" fill="#6CA9DB" points="201.1975 18.4041749 210 18.4041749 210 21.5015781 201.1975 21.5015781"></polygon>
                <polygon id="Path" fill="#DE5097" points="202.5555 11.6143871 206.759 11.6143871 206.759 18.4076748 202.5555 18.4076748"></polygon>
                <polygon id="Path" fill="#604596" points="205.49725 13.7510703 209.39625 13.7510703 209.39625 16.5999813 205.49725 16.5999813"></polygon>
                <polygon id="Path" fill="#FAD803" points="204.49625 16.6017312 210 16.6017312 210 19.4488922 204.49625 19.4488922"></polygon>
                <path d="M189.14,5.05734196 L192.4475,5.05734196 L192.4475,7.73475829 L189.14,7.73475829 L189.14,5.05734196 Z M177.9365,5.13958939 L183.939,5.13958939 L183.939,11.7946314 L177.9365,11.7946314 L177.9365,5.13958939 Z" id="Shape" fill="#5061AA"></path>
                <polygon id="Path" fill="#0BB8E7" points="159.39525 5.13958939 177.96275 5.13958939 177.96275 20.0491235 159.39525 20.0491235"></polygon>
                <polygon id="Path" fill="#41AD4C" points="168.91875 0 175.37975 0 175.37975 8.40848723 168.91875 8.40848723"></polygon>
                <polygon id="Path" fill="#E7B720" points="155.4875 18.7769132 167.475 18.7769132 167.475 23.4492672 155.4875 23.4492672"></polygon>
                <polygon id="Path" fill="#B9CF37" points="183.925 0.762976157 188.58 0.762976157 188.58 8.15474516 183.925 8.15474516"></polygon>
                <polygon id="Path" fill="#92C143" points="190.141 28.8670979 192.02575 28.8670979 192.02575 30.7465392 190.13575 30.7465392"></polygon>
            </g>
        </g>
    </g>
</svg>