<?xml version="1.0" encoding="UTF-8"?>
<svg width="352px" height="72px" viewBox="0 0 352 72" version="1.1" xmlns="http://www.w3.org/2000/svg" xmlns:xlink="http://www.w3.org/1999/xlink">
    <title>British</title>
    <defs>
        <linearGradient x1="69.9493411%" y1="34.8984683%" x2="33.8263543%" y2="64.3804334%" id="linearGradient-1">
            <stop stop-color="#E6EBEF" offset="0%"></stop>
            <stop stop-color="#BBCEE5" offset="7.64%"></stop>
            <stop stop-color="#85A9D8" offset="18.54%"></stop>
            <stop stop-color="#5D8FCF" offset="27.96%"></stop>
            <stop stop-color="#457EC9" offset="35.43%"></stop>
            <stop stop-color="#3C78C7" offset="40%"></stop>
            <stop stop-color="#2E5C99" offset="90%"></stop>
        </linearGradient>
    </defs>
    <g id="Taskboard" stroke="none" stroke-width="1" fill="none" fill-rule="evenodd">
        <g id="British">
            <rect id="Rectangle" fill="#FFFFFF" x="0" y="0" width="352" height="72"></rect>
            <g id="ba_masterbrand_positive" transform="translate(48.000000, 16.000000)" fill-rule="nonzero">
                <g id="Group" transform="translate(0.000000, 21.787546)" fill="#2E5C99">
                    <path d="M0,17.8861389 C0.562131526,17.5952462 0.813499774,16.9050472 0.813499774,16.3146747 L0.813499774,1.83122804 C0.813499774,1.21831408 0.562131526,0.548509689 0,0.240442604 L6.82088272,0.240442604 C9.86275671,0.240442604 12.8303869,1.50061946 12.8303869,4.99562445 C12.8303869,6.84939399 11.2341455,8.31137089 9.51275029,8.63983266 C11.9924928,8.61729117 14.3884458,10.1501128 14.3884458,12.9194963 C14.3884458,16.8771386 10.2870069,17.8872123 7.40210551,17.8872123 L0,17.8872123 L0,17.8861389 Z M5.52161646,1.76038335 C5.20555005,1.76038335 4.98600057,1.76038335 4.40371716,1.83122804 L4.40371716,8.00759742 L5.09418437,8.00759742 C7.18467728,8.00759742 9.20516889,7.35389409 9.20516889,4.90223826 C9.20516889,2.46990371 7.58983622,1.76038335 5.52161646,1.76038335 Z M5.95647292,9.59730946 C5.45797893,9.59730946 5.01039496,9.59730946 4.40371716,9.64346585 L4.40371716,16.1654715 C5.15994316,16.3157481 5.97768543,16.3651247 6.73179018,16.3651247 C8.48182229,16.3651247 10.2615519,15.575099 10.2615519,12.8690463 C10.2615519,10.198416 8.15727088,9.59730946 5.95647292,9.59730946 Z M21.1340241,1.76038335 C20.8222002,1.76038335 20.5474982,1.81190676 20.2399168,1.85591635 L20.2399168,7.95822082 C20.5252251,7.9786155 20.7840177,8.00867083 21.0661441,8.00867083 C23.0283013,8.00867083 24.4802976,6.91272485 24.4802976,4.75303504 C24.4802976,2.54611543 23.0526957,1.76038335 21.1340241,1.76038335 Z M29.9255491,17.9902591 C29.257355,17.9902591 28.5202202,18.0149474 27.8817237,17.8238814 C26.6948837,17.4696579 25.0562173,14.7625318 24.4049932,13.7009348 C23.3920959,11.9749004 22.5117767,9.59730946 20.2409774,9.57154775 L20.2409774,16.3146747 C20.2409774,16.9050472 20.5050732,17.6199345 21.0672047,17.8861389 L15.8308965,17.8861389 C16.3813612,17.5952462 16.6433357,16.9318823 16.6433357,16.3146747 L16.6433357,1.83122804 C16.6433357,1.21831408 16.3803005,0.548509689 15.8308965,0.240442604 L22.1352546,0.240442604 C24.8780322,0.240442604 28.3102164,1.30633325 28.3102164,4.64140097 C28.3102164,7.43976645 26.0224471,8.87383484 23.4716428,8.87383484 C27.1011033,8.89530293 29.2329606,17.5115207 33.2400038,17.536209 C32.1655902,17.8582303 31.0455696,17.9902591 29.9255491,17.9902591 Z M33.5030389,17.8861389 C33.9357742,17.6854122 34.3886613,17.1068472 34.3886613,16.3146747 L34.3886613,1.83122804 C34.3886613,1.02724809 33.9357742,0.458343713 33.5030389,0.240442604 L38.8687434,0.240442604 C38.408432,0.458343713 37.9884243,1.02724809 37.9884243,1.83122804 L37.9884243,16.3146747 C37.9884243,17.1068472 38.408432,17.6854122 38.8687434,17.8861389 L33.5030389,17.8861389 Z M45.1465859,17.8861389 C45.7214449,17.6199345 46.0025107,16.9318823 46.0025107,16.3146747 L46.0025107,2.26381005 L42.1492582,2.26381005 C41.260454,2.26381005 40.2008891,2.37437071 39.4372387,2.83271442 L40.6346849,0.239369199 L53.4152225,0.239369199 C54.450393,0.239369199 55.5088972,0.216827705 56.5143702,0 C56.0275431,1.32780134 54.5787287,2.31211325 53.7440164,2.31211325 C52.7289978,2.28849835 51.0500276,2.21980046 49.6033343,2.21980046 L49.6033343,16.3136013 C49.6033343,16.9308089 49.9056126,17.6188611 50.4698654,17.8850654 L45.1465859,17.8850654 L45.1465859,17.8861389 Z M57.1528668,17.8861389 C57.5813595,17.6854122 58.0310647,17.1068472 58.0310647,16.3146747 L58.0310647,1.83122804 C58.0310647,1.02724809 57.5813595,0.458343713 57.1528668,0.240442604 L62.5185713,0.240442604 C62.0625023,0.458343713 61.6255246,1.02724809 61.6255246,1.83122804 L61.6255246,16.3146747 C61.6255246,17.1068472 62.0625023,17.6854122 62.5185713,17.8861389 L57.1528668,17.8861389 Z M72.9657327,13.8941476 C72.9657327,10.5333182 65.1436195,9.7744212 65.1436195,4.4095456 C65.1436195,1.08843214 68.2650404,0.00107340448 71.0099392,0.00107340448 C72.2349617,0.00107340448 74.0072669,0.172818121 75.1272875,0.694492699 L75.3224426,3.99306467 C74.6340966,2.53645479 72.9105802,1.48129818 71.3100962,1.48129818 C70.04477,1.48129818 68.7189881,2.11460683 68.7189881,3.57873054 C68.7189881,7.06407488 76.6736795,7.91528464 76.6736795,12.9967814 C76.6736795,16.6849992 73.4896817,18.2124538 70.2759864,18.2124538 C68.5948949,18.2124538 66.3081863,17.8850654 64.89013,16.9039738 C64.8042193,16.3136013 64.7649762,15.6963937 64.7649762,15.092067 C64.7649762,14.3718126 64.8275531,13.6494114 64.932555,12.9388176 C65.8171167,14.9793595 67.6477563,16.575512 69.9344649,16.575512 C71.6717695,16.5765854 72.9657327,15.8101746 72.9657327,13.8941476 Z M89.7236159,17.8861389 C90.1022592,17.7133207 90.5074182,17.1068472 90.5074182,16.3146747 L90.5074182,9.74865949 C89.5740677,9.64239244 88.2705589,9.59623605 86.8079563,9.59623605 C85.3230806,9.59623605 84.0089656,9.64239244 83.0522814,9.74865949 L83.0522814,16.3146747 C83.0522814,17.1068472 83.4468341,17.6854122 83.8307805,17.8861389 L78.6644736,17.8861389 C79.0473594,17.7133207 79.4557002,17.1068472 79.4557002,16.3146747 L79.4557002,1.83122804 C79.4557002,1.02724809 79.0473594,0.434728814 78.6644736,0.240442604 L83.8307805,0.240442604 C83.4468341,0.435802219 83.0522814,1.02724809 83.0522814,1.83122804 L83.0522814,7.7639346 C84.0089656,7.86590803 85.2997469,7.91528464 86.8079563,7.91528464 C88.2705589,7.91528464 89.5740677,7.85088037 90.5074182,7.7639346 L90.5074182,1.83122804 C90.5074182,1.02724809 90.1033198,0.434728814 89.7236159,0.240442604 L94.8824984,0.240442604 C94.4964307,0.435802219 94.1135449,1.02724809 94.1135449,1.83122804 L94.1135449,16.3146747 C94.1135449,17.1068472 94.4964307,17.6854122 94.8824984,17.8861389 L89.7236159,17.8861389 Z" id="Shape"></path>
                    <path d="M114.032092,17.8861389 C114.19861,17.7133207 114.349219,17.5845122 114.349219,17.2721515 C114.349219,17.1669578 114.309976,16.9909195 114.182701,16.6624577 C114.182701,16.6624577 112.750857,12.7187697 112.583278,12.2593526 C111.507803,12.125177 110.386722,12.125177 109.288975,12.125177 C108.247441,12.125177 107.189997,12.1498653 106.158008,12.2593526 C106.011642,12.6543654 104.476917,16.5765854 104.476917,16.5765854 C104.270095,17.1068472 104.199033,17.2882526 104.199033,17.4041802 C104.199033,17.6660909 104.421764,17.7938261 104.610556,17.8861389 L101.100946,17.8861389 C101.618531,17.6199345 102.067176,17.0724983 102.288846,16.5272088 L108.056528,1.4609035 C108.083044,1.39864604 108.092589,1.32887475 108.092589,1.24407579 C108.092589,0.828668259 107.820009,0.434728814 107.453032,0.239369199 L111.977661,0.239369199 L117.84398,16.5121811 C118.083682,17.1658844 118.594903,17.642476 119.024457,17.8850654 L114.032092,17.8850654 L114.032092,17.8861389 Z M109.476706,3.59912522 L106.832566,10.4689139 C107.620611,10.5569331 108.438353,10.5773277 109.235944,10.5773277 C110.150203,10.5773277 111.053856,10.5773277 111.94266,10.4689139 L109.476706,3.59912522 Z M119.917503,17.8861389 C120.350238,17.6854122 120.797822,17.1068472 120.797822,16.3146747 L120.797822,1.83122804 C120.797822,1.02724809 120.350238,0.458343713 119.917503,0.240442604 L125.280026,0.240442604 C124.823957,0.458343713 124.398646,1.02724809 124.398646,1.83122804 L124.398646,16.3146747 C124.398646,17.1068472 124.822896,17.6854122 125.280026,17.8861389 L119.917503,17.8861389 Z M133.431994,1.76038335 C133.142443,1.76038335 132.864559,1.81190676 132.563341,1.85591635 L132.563341,7.95822082 C132.843346,7.9786155 133.098957,8.00867083 133.371538,8.00867083 C135.337938,8.00867083 136.786752,6.91272485 136.786752,4.75303504 C136.785691,2.54611543 135.352786,1.76038335 133.431994,1.76038335 Z M142.661557,17.9902591 C141.993363,17.9902591 141.272137,18.0149474 140.618792,17.8238814 C139.429831,17.4696579 137.795407,14.7625318 137.143122,13.7009348 C136.134467,11.9749004 134.821413,9.57154775 132.563341,9.57154775 L132.563341,16.3146747 C132.563341,16.9050472 132.81577,17.6199345 133.371538,17.8861389 L128.139472,17.8861389 C128.701604,17.5952462 128.963578,16.9318823 128.963578,16.3146747 L128.963578,1.83122804 C128.963578,1.21831408 128.701604,0.548509689 128.139472,0.240442604 L134.457618,0.240442604 C137.192972,0.240442604 140.619853,1.30633325 140.619853,4.64140097 C140.619853,7.43976645 138.119958,8.87383484 136.227802,8.87383484 C139.989841,9.09280935 142.258519,17.536209 145.99086,17.536209 C144.909022,17.8582303 143.789002,17.9902591 142.661557,17.9902591 Z M164.414986,1.96325679 L159.116101,17.8861389 C158.679123,17.8861389 158.250631,17.7337154 158.007748,17.5608973 C157.483799,17.0499568 156.659693,14.9171021 156.362717,14.1302966 L153.967825,8.00759742 L150.518671,17.8861389 L148.876822,17.8861389 L142.946865,1.92354083 C142.692315,1.24407579 142.257459,0.592519273 141.610477,0.240442604 L146.764056,0.240442604 C146.546628,0.411113916 146.39708,0.605400127 146.39708,0.976798077 C146.39708,1.15498322 146.484051,1.40079285 146.546628,1.59078544 L150.408366,12.1509387 L154.520411,0.240442604 L159.049282,11.7226503 L162.479345,1.32887475 C162.564195,1.04656937 162.614044,0.942449133 162.614044,0.76426399 C162.614044,0.548509689 162.52177,0.411113916 162.306463,0.240442604 L165.719556,0.240442604 C165.088484,0.575344801 164.632415,1.30633325 164.414986,1.96325679 Z M170.749042,3.59912522 L168.105963,10.4689139 C168.903554,10.5569331 169.719175,10.5773277 170.514644,10.5773277 C171.419357,10.5773277 172.333616,10.5773277 173.217118,10.4689139 L170.749042,3.59912522 Z M175.299125,17.8861389 C175.479432,17.7133207 175.616252,17.5845122 175.616252,17.2721515 C175.616252,17.1669578 175.563221,16.9909195 175.458219,16.6624577 C175.458219,16.6624577 174.03592,12.7187697 173.863038,12.2593526 C172.778019,12.125177 171.659059,12.125177 170.561311,12.125177 C169.529323,12.125177 168.470818,12.1498653 167.433527,12.2593526 C167.283978,12.6543654 165.759859,16.5765854 165.759859,16.5765854 C165.54031,17.1068472 165.479854,17.2882526 165.479854,17.4041802 C165.479854,17.6660909 165.69304,17.7938261 165.87971,17.8861389 L162.36904,17.8861389 C162.887686,17.6199345 163.33527,17.0724983 163.552698,16.5272088 L169.340531,1.4609035 C169.357501,1.39864604 169.373411,1.32887475 169.373411,1.24407579 C169.373411,0.828668259 169.099769,0.434728814 168.723247,0.239369199 L173.252118,0.239369199 L179.116317,16.5121811 C179.3592,17.1658844 179.876785,17.642476 180.303157,17.8850654 L175.299125,17.8850654 L175.299125,17.8861389 Z M191.054718,2.09313874 L186.924642,9.42234453 L186.924642,16.3146747 C186.924642,16.8749918 187.151616,17.6199345 187.703141,17.8861389 L182.56441,17.8861389 C183.08942,17.5952462 183.331242,16.856744 183.331242,16.3146747 L183.331242,9.39980303 L179.741025,3.57873054 C179.419656,3.03451447 177.922052,0.498059679 176.096716,0.498059679 C176.593089,0.306993681 178.102359,0.0161010672 179.115256,0.0161010672 C180.804832,0.0161010672 181.641666,0.172818121 182.675776,1.81190676 L185.997655,7.1402866 C186.2766,6.61753862 188.906951,1.9890185 188.906951,1.9890185 C189.224078,1.42548115 189.441506,1.02724809 189.441506,0.829741663 C189.441506,0.576418206 189.333322,0.411113916 189.078772,0.240442604 L192.780355,0.240442604 C192.054887,0.592519273 191.450331,1.39971944 191.054718,2.09313874 Z M200.722319,13.8941476 C200.722319,10.5333182 192.899145,9.7744212 192.899145,4.4095456 C192.899145,1.08843214 196.012081,0.00107340448 198.758041,0.00107340448 C199.987306,0.00107340448 201.749005,0.172818121 202.874328,0.694492699 L203.069483,3.99306467 C202.373713,2.53645479 200.657621,1.48129818 199.056076,1.48129818 C197.788629,1.48129818 196.471332,2.11460683 196.471332,3.57873054 C196.471332,7.06407488 204.426023,7.91528464 204.426023,12.9967814 C204.426023,16.6849992 201.264299,18.2124538 198.02727,18.2124538 C196.347239,18.2124538 194.055227,17.8850654 192.63505,16.9039738 C192.542775,16.3136013 192.498229,15.6963937 192.498229,15.092067 C192.498229,14.3718126 192.566109,13.6494114 192.674293,12.9388176 C193.557794,14.9793595 195.394797,16.575512 197.681506,16.575512 C199.426235,16.5765854 200.722319,15.8101746 200.722319,13.8941476 Z" id="Shape"></path>
                </g>
                <path d="M248.850323,9.67632344 C245.918754,12.6249655 239.567729,15.1560533 236.443126,16.3410919 C232.174108,17.9640794 230.279831,18.5383508 227.891302,19.3251563 C225.187768,20.2128618 219.779638,21.8691249 219.779638,21.8691249 C230.983026,25.2546427 238.878322,26.2754503 238.878322,26.2754503 C238.878322,26.2754503 242.556572,25.1247607 248.383648,21.9710984 C251.539009,20.3481108 253.091765,19.255385 254.20224,18.2109625 C254.611641,17.8363443 255.669085,16.7221504 255.93212,15.2966693 C255.94909,15.1925491 256,14.9199043 256,14.6515532 C256,14.6515532 256,14.462634 255.98303,14.2984031 C255.976666,14.1094839 255.943787,13.9828222 255.943787,13.9828222 C255.943787,13.9828222 255.88121,13.6446998 255.798481,13.4074774 C255.71257,13.170255 255.351958,12.4381932 254.767553,11.962675 C254.377243,11.641727 253.702685,10.8420407 251.259004,9.97258307 C250.428534,9.68061706 249.083661,9.41119253 249.083661,9.41119253 L248.850323,9.67632344 Z" id="Path" fill="url(#linearGradient-1)"></path>
                <path d="M255.998939,14.5764149 C255.998939,14.5764149 255.981969,14.260834 255.905604,13.9935563 C255.846209,13.7552605 255.741207,13.5276987 255.583174,13.2883295 C255.392262,13.0038773 255.13453,12.6700485 254.753765,12.3007974 C254.466335,12.0260058 254.15133,11.7834164 253.771626,11.5257994 C252.243264,10.5125055 250.270501,9.94145434 248.524711,9.69993834 C245.819056,9.33605422 242.715665,9.40045849 242.421872,9.38972444 C241.423823,9.37577018 234.97522,9.42944041 233.317463,9.45949573 C225.955661,9.61299257 216.943526,9.63338726 214.582573,9.63338726 C190.21046,9.74609473 179.602083,9.21475951 167.7952,6.81892071 C157.751076,4.79984689 152.17855,2.88167308 152.17855,2.88167308 C161.037955,2.57145918 212.730721,0.401035326 222.160743,0.147711869 C228.334644,-0.0283264662 232.718209,-0.065895623 236.225698,0.139124633 C238.024519,0.241098058 239.698186,0.395668303 241.800346,0.757405613 C243.685077,1.08372058 245.396927,1.63759729 246.393915,2.01221545 C248.493953,2.79902093 250.264137,3.93682968 251.139153,5.10254695 C251.139153,5.10254695 251.397946,5.37089807 251.749013,5.84748966 C252.142505,6.40136637 252.599635,7.08297821 252.754486,7.33737508 C254.03254,9.29741166 254.639217,10.5286066 254.850282,10.9579684 C255.078316,11.4087983 255.279835,11.8768026 255.476051,12.3351463 C255.668024,12.7902698 255.746511,13.0661348 255.808027,13.2582742 C255.942726,13.7402328 255.975606,14.1792552 255.981969,14.2780084 L255.998939,14.5764149 Z" id="Path" fill="#CE210F"></path>
            </g>
        </g>
    </g>
</svg>