<?xml version="1.0" encoding="UTF-8"?>
<svg width="352px" height="72px" viewBox="0 0 352 72" version="1.1" xmlns="http://www.w3.org/2000/svg" xmlns:xlink="http://www.w3.org/1999/xlink">
    <title>CAE-Login</title>
    <g id="Taskboard" stroke="none" stroke-width="1" fill="none" fill-rule="evenodd">
        <g id="CAE-Login">
            <rect id="Rectangle" fill="#FFFFFF" x="0" y="0" width="352" height="72"></rect>
            <g id="Logo" transform="translate(119.000000, 14.000000)" fill="#2969F2" fill-rule="nonzero">
                <path d="M94.2799624,8.52266377 L94.2799624,17.4973045 L112.199441,17.4973045 L112.199441,25.4728549 L94.2799624,25.4728549 L94.2799624,34.5799239 L114.756651,34.5799239 L114.756651,42.5540151 L85.3360311,42.5540151 L85.3360311,0.548496789 L114.756651,0.548496789 L114.756651,8.52266391 L94.2799624,8.52266391 L94.2799624,8.52266377 Z M21.6531924,43.11 C28.5911164,43.11 34.9644308,40.2101832 38.9277719,34.674821 L32.1396841,29.3025038 C30.1423894,32.2454583 26.661389,34.8675213 21.8937456,34.8675213 C14.8116065,34.8675213 9.26385467,29.0079751 9.26385467,21.555 C9.26385467,14.1020249 14.8116065,8.24248174 21.8937456,8.24248174 C26.661389,8.24248174 30.1423894,10.8645432 32.1396841,13.8074963 L38.9277719,8.43517906 C34.9644308,2.89981736 28.5911164,3.55271368e-15 21.6531924,3.55271368e-15 C9.88994385,3.55271368e-15 1.42108547e-14,9.55967303 1.42108547e-14,21.555 C1.42108547e-14,33.5503269 9.88994385,43.11 21.6531924,43.11 Z M64.9377135,0.548496789 L55.6497804,0.548496789 L72.0012204,42.5540081 L81.3632751,42.5540081 L64.9377135,0.548496789 Z M67.9872661,32.9127047 L52.3088425,32.9127047 L48.5378643,42.5540089 L39.2718224,42.5540089 L48.8635531,17.7761223 L67.9872661,32.9127047 Z"></path>
            </g>
        </g>
    </g>
</svg>