<?xml version="1.0" encoding="UTF-8"?>
<svg width="352px" height="72px" viewBox="0 0 352 72" version="1.1" xmlns="http://www.w3.org/2000/svg" xmlns:xlink="http://www.w3.org/1999/xlink">
    <title>ChinaEastern</title>
    <g id="Taskboard" stroke="none" stroke-width="1" fill="none" fill-rule="evenodd">
        <g id="ChinaEastern">
            <rect id="Rectangle" fill="#FFFFFF" x="0" y="0" width="352" height="72"></rect>
            <g id="China_Eastern_Airlines_logo" transform="translate(48.000000, 8.000000)">
                <path d="M67.2521817,19.6069867 C44.6274303,20.2330562 22.7314378,25.3574121 20.6969258,32.6239924 C20.5105888,33.2830349 20.4641207,33.9347501 20.4641207,34.5986621 C20.4641207,41.7551932 35.4333486,44.2030787 51.6385345,46.2193008 C51.9164136,46.2517637 51.9043319,46.0310162 51.8137191,45.8719482 C51.7500578,45.7592557 51.5074945,45.3314879 51.3409529,45.0368178 C51.2758975,44.9218065 51.2061954,44.8462144 50.9794312,44.7812887 C42.1100684,42.5290615 33.1059482,39.2387184 33.1059482,36.1709313 C33.1059482,30.3679625 48.1927868,24.619995 65.372966,21.992358 C65.9401089,21.8833755 66.2107855,21.7771756 66.5917308,21.4751782 C67.0682145,21.0962902 68.1167203,20.2414502 68.5601188,19.8881151 C68.8491502,19.6483537 68.7464558,19.5727616 68.6372558,19.5750289 C68.1767571,19.5843554 67.716119,19.5936306 67.2519029,19.6075432 L67.2521817,19.6069867 Z" id="Fill-1" fill="#1B1D80"></path>
                <path d="M42.2240773,54.6393006 C30.4713507,51.6999018 18.8239624,41.8558539 20.6588327,32.7356501 C23.3400958,19.4288823 41.2711204,6.53906011 63.6484605,0.481748258 C64.1531116,0.332577477 64.3392937,0 63.6925615,0 L33.151388,0 C27.863579,0 26.7170915,0.682272912 24.6690917,3.44804585 C23.5777225,4.91896759 14.4376657,17.4969986 10.3159429,23.1667109 C9.7855696,23.8416474 9.03594281,24.5679383 7.3676557,24.5679383 L0,24.5679383 C0,24.5703923 0,24.5716194 0.00612439926,24.5753004 C8.73707193,49.1945672 18.1159819,55 27.5108139,55 L42.3441164,55 C42.5535698,55 42.7630244,54.7750212 42.2240835,54.6393006" id="Fill-3" fill="#DF0011"></path>
                <path d="M182.969926,5.1231233 L182.969926,7.23353411 L173.676775,7.23353411 C172.807124,7.23353411 172.097882,7.9341291 172.097882,8.80714827 C172.097882,9.67409224 172.807124,10.3795567 173.676775,10.3795567 C173.676775,10.3795567 177.57066,10.3424562 178.219866,10.3331811 C178.219866,10.522857 178.210572,14.176135 178.210572,14.1835087 C177.990314,20.2897271 175.134897,23.9920704 173.911253,25.5681425 L173.5804,26.0096374 C173.201685,26.2957744 172.976501,26.7481676 172.976501,27.2433654 C172.976501,28.1090572 173.686951,28.8182317 174.554185,28.8182317 C175.035548,28.8182317 175.567143,28.5919191 175.850087,28.2716498 C175.836146,28.2762874 175.882614,28.2530996 175.882614,28.2530996 C177.000915,27.3690894 180.700053,23.8904616 181.411712,16.0272139 L191.432461,16.0272139 C191.432461,17.6326417 191.385993,19.5168327 191.293057,21.803285 C191.129954,25.7587922 188.388848,25.6658557 187.065995,25.6120601 L186.986534,25.6096022 C185.831431,25.4871708 184.100681,25.0667303 184.08846,25.0667303 L183.663277,25.0152535 C182.794835,25.0152535 182.088055,25.7183064 182.088055,26.5876619 C182.088055,27.3127432 182.579269,27.9412242 183.284794,28.113602 C183.284794,28.1321522 184.955507,28.7054 186.50624,28.7286342 L186.816182,28.7332717 C188.79312,28.761097 191.027306,28.7944874 192.603735,27.2733704 C193.935185,25.9809774 194.59782,23.7812937 194.639456,20.5582414 C194.710552,19.2255017 194.741221,17.0955204 194.741221,15.8801571 C194.741221,15.5012691 194.741221,15.2113294 194.731927,15.0645972 C194.664548,13.8259998 193.723849,12.8967272 192.557779,12.8967272 C192.557779,12.8967272 182.567652,12.8828145 181.575466,12.8828145 L181.575466,10.3358709 C181.767844,10.3358709 195.650555,10.3822464 195.650555,10.3822464 C196.51658,10.3822464 197.226984,9.67678203 197.226984,8.80983805 C197.226984,7.93681888 196.51658,7.23622389 195.650555,7.23622389 L186.270461,7.23622389 L186.270461,5.08180271 C186.270461,4.25404605 185.497558,3.55586259 184.598493,3.55586259 C183.714113,3.55586259 182.970623,4.27602805 182.970623,5.12581308" id="Fill-6" fill="#DF0011"></path>
                <path d="M234.172641,18.262514 C233.299273,18.262514 232.595003,18.9655669 232.595003,19.8361281 C232.595003,20.7054837 233.299273,21.4122002 234.172641,21.4122002 L241.993498,21.4122002 L241.993498,25.4141757 L232.680737,25.4141757 C231.814757,25.4141757 231.103099,26.1233502 231.103099,26.9877899 C231.103099,27.8534817 231.814757,28.5626562 232.680737,28.5626562 L254.424825,28.5626562 C255.289549,28.5626562 256,27.8534817 256,26.9877899 C256,26.1233502 255.289549,25.4141757 254.424825,25.4141757 L245.234554,25.4141757 L245.234554,21.4122002 L253.06029,21.4122002 C253.931195,21.4122002 254.64039,20.7054837 254.64039,19.8361281 C254.64039,18.9655669 253.931195,18.262514 253.06029,18.262514 L234.172641,18.262514 Z" id="Fill-8" fill="#DF0011"></path>
                <path d="M241.978303,5.17557402 L241.978303,6.23200837 L233.865952,6.23200837 C232.660662,6.24592103 231.681952,7.22486189 231.681952,8.41944892 L231.685669,8.47463579 L231.685669,11.6304899 C231.685669,12.4997991 232.391194,13.2041041 233.259636,13.2041041 C234.134165,13.2041041 234.834811,12.4997991 234.834811,11.6304899 L234.834811,9.37701066 L238.510669,9.37701066 C238.524609,9.47625427 238.543196,9.65108999 238.543196,9.88445161 C238.543196,10.2109353 238.510669,10.643758 238.381487,11.0936933 C237.925636,12.6868779 236.306548,13.7959021 233.561586,14.3901117 L233.456103,14.4132994 C232.652623,14.4990941 232.063408,15.1359228 232.063408,15.933118 C232.063408,16.782903 232.824091,17.5055264 233.725571,17.5055264 L233.899362,17.4916137 C240.015166,16.9291714 241.640573,13.7476716 241.938247,11.1714187 C242.014455,10.4561226 242.027466,9.67358211 242.027466,9.37645416 L242.027466,9.35790395 C242.204045,9.35790395 244.932883,9.37645416 245.114155,9.37645416 L245.114155,15.0963181 C245.123448,16.278662 246.053647,17.2275051 247.240581,17.2580666 L251.828979,17.2580666 C254.208888,17.2580666 255.21455,15.6025069 255.224355,15.5927217 C255.40558,15.3283812 255.498516,14.9153608 255.51571,14.6157749 C255.562178,13.8589265 255.226678,13.6571929 254.87143,13.4321789 L254.790575,13.376992 C254.227103,13.0236106 253.613446,13.1363031 252.948348,13.7057945 C252.16564,14.3758744 251.503005,14.2731526 251.494408,14.2731526 C251.480468,14.2731526 248.808274,14.2638775 248.808274,14.2638775 C248.808274,14.2638775 248.55967,14.268515 248.401679,14.1122295 C248.305025,14.0217973 248.25484,13.885917 248.25484,13.7087625 C248.25484,13.7087625 248.264133,9.56622278 248.264133,9.37673241 L252.507134,9.37673241 C252.451837,9.58217596 252.166523,10.6434334 252.166523,10.6434334 C252.138642,10.7667923 252.116337,10.8915424 252.116337,11.0139738 C252.116337,11.2866618 252.193474,11.5556399 252.344031,11.7977201 C252.561966,12.1511015 252.912382,12.402967 253.327621,12.4995672 C254.177708,12.6999094 255.169848,12.1007377 255.368266,11.2670914 C255.396147,11.1984556 256.002742,9.5271746 255.981924,8.56121888 C255.95869,7.02549352 255.215154,6.2588598 253.70364,6.22338252 C253.64602,6.22338252 246.110616,6.23265763 245.17605,6.23265763 L245.17605,5.17626965 C245.17605,4.32282095 244.432515,3.60144973 243.551851,3.60144973 C242.679738,3.60144973 241.980347,4.30816628 241.980347,5.17626965" id="Fill-10" fill="#DF0011"></path>
                <path d="M127.137318,8.14643623 C126.917989,8.39083522 126.833417,8.73211267 126.869197,9.1465707 L126.873844,9.17903356 C126.873844,9.19758377 126.901725,9.45543167 126.915665,9.61542721 C126.698659,9.61542721 119.659488,9.63397742 119.659488,9.63397742 C119.009075,9.63397742 118.277806,10.1487457 118.277806,10.8872295 C118.277806,11.5695061 118.877988,12.13807 119.59211,12.13807 C119.59211,12.13807 127.094521,12.1566202 127.252512,12.1566202 C127.711617,15.0300011 128.321836,17.446073 129.108215,19.5332496 C128.120954,21.0738444 127.197401,22.3039087 126.810322,22.7905271 C126.633743,22.9751016 126.484581,23.555955 126.484581,23.9948993 C126.484581,24.1720538 126.503168,24.3288031 126.563112,24.4229454 C126.768965,24.7777181 127.084902,25.0037524 127.460922,25.0514264 C127.876346,25.1038308 128.306083,24.9364151 128.666211,24.5745469 C129.015186,24.2262668 129.218623,23.9020555 129.524848,23.405652 C129.524848,23.405652 130.178933,22.4127984 130.325911,22.1890366 C131.06573,23.6220865 131.714935,24.5721354 131.723532,24.5819207 C131.960054,24.9682287 132.391046,25.2116075 132.838162,25.2116075 C133.336671,25.2116075 133.792337,24.920833 134.009111,24.4718715 L134.067661,24.3531502 C134.287919,23.9422631 134.863845,22.840659 135.252132,20.5603283 L135.252132,20.5510532 C135.289306,20.0583133 135.178712,19.6548462 134.931038,19.3736251 C134.734013,19.1412837 134.454554,19.0151423 134.127511,18.9947371 C133.627747,18.9761869 133.063067,19.2623238 132.933235,19.8677563 C132.933235,19.8677563 132.721341,20.8141415 132.608423,21.3007598 C132.43835,20.9255819 131.991095,19.9032335 131.955547,19.8335311 C133.157165,17.8380852 133.981509,15.9868672 134.482481,14.1833696 C134.487128,14.1694569 134.524302,13.7150696 134.524302,13.7150696 C134.501068,13.3704995 134.347724,13.0646065 134.094473,12.8359288 C133.837504,12.6096163 133.5139,12.4973876 133.17947,12.5219666 C132.650338,12.5497919 132.191001,12.9143035 132.037888,13.4255472 C132.033241,13.4394599 131.381387,15.4356478 130.789756,16.6510574 C130.429628,15.4540125 130.108719,14.0124294 129.790227,12.156342 L134.01241,12.156342 C134.703251,12.156342 135.263006,11.5877781 135.263006,10.8859773 C135.263006,10.1816723 134.703251,9.61310844 134.01241,9.61310844 L133.343641,9.61310844 C133.347312,9.56302287 133.352935,9.51896613 133.352935,9.48232947 C133.352935,9.16187462 133.247452,8.85264265 133.038346,8.6093103 L132.885466,8.42566324 C132.654055,8.14926513 132.32692,7.97442942 131.97051,7.95369957 C131.608059,7.9212367 131.260059,8.03207419 130.980786,8.26534306 C130.813036,8.40864342 130.724747,8.60017432 130.719635,8.82783175 L130.719635,8.84638196 C130.719635,9.09078095 130.856716,9.35623443 131.04073,9.58120208 C130.745657,9.58486574 129.627217,9.59511473 129.491252,9.59511473 C129.472664,9.46572703 129.404356,9.05344866 129.404356,9.05344866 C129.306309,8.19754205 128.875224,7.76471932 128.115796,7.76471932 C127.707807,7.76471932 127.361248,7.90059959 127.133415,8.14360732" id="Fill-12" fill="#DF0011"></path>
                <path d="M135.624155,25.1676435 C135.619509,25.4254914 135.491721,25.5553428 135.231035,25.5553428 L128.252924,25.5414302 L118.29342,25.52288 C118.062938,25.52288 117.949091,25.4018399 117.949091,25.1449195 L117.958385,7.98045824 C117.958385,7.85802687 117.986266,7.76898587 118.046674,7.70684267 C118.106618,7.64933702 118.198625,7.62012045 118.327341,7.62012045 L135.280849,7.624758 C135.423042,7.624758 135.518301,7.65722086 135.588468,7.72121908 C135.640048,7.78011599 135.669322,7.86683822 135.669322,7.97535693 L135.624155,25.1676435 Z M136.493806,4.62732261 L136.490135,4.62486471 L117.143149,4.62950226 C115.945202,4.64805247 114.972671,5.63093525 114.972671,6.82181224 L114.972671,26.3228577 C114.981965,27.52723 115.951335,28.5127561 117.143149,28.5359439 L136.490135,28.5359439 C137.700303,28.5266688 138.683893,27.5431368 138.683893,26.341176 C138.693186,26.341176 138.693186,6.81814857 138.693186,6.81814857 C138.693186,5.61011264 137.707134,4.6258386 136.495711,4.6258386 L136.493806,4.62732261 Z" id="Fill-14" fill="#DF0011"></path>
                <path d="M121.061424,17.7280695 L124.729943,17.7280695 L124.729943,15.2777556 L121.061424,15.2777556 L121.061424,17.7280695 Z M126.96535,13.6283182 C126.784065,13.180806 126.363931,12.8910234 125.88745,12.8910234 L119.901461,12.8910234 C119.547471,12.8910234 119.214304,13.0536439 118.991376,13.3299771 C118.819892,13.548843 118.725576,13.8141711 118.725576,14.0966174 L118.725576,18.9165454 L118.751296,19.157419 C118.859084,19.7149752 119.339239,20.1148018 119.897784,20.1148018 L125.88745,20.1148018 L126.23287,20.062224 C126.725271,19.9142762 127.065785,19.4435329 127.065785,18.9202117 L127.065785,14.0966161 C127.065785,13.9376632 127.030253,13.7750427 126.965337,13.628317 L126.96535,13.6283182 Z" id="Fill-16" fill="#DF0011"></path>
                <path d="M124.95201,20.6230834 C124.921396,20.6316725 121.895934,21.6000297 119.824661,21.5755752 C118.845982,21.5645321 118.357254,22.2395078 118.318059,22.8630899 C118.298461,23.1406453 118.417277,23.4365421 118.650002,23.6810846 C118.956221,24.0038801 119.403303,24.2154084 119.789139,24.2202993 C123.347419,24.2435267 126.031126,23.0538337 126.053183,23.0367155 L126.06056,23.0367155 C126.7318,22.7273693 127.287901,21.9815148 126.980448,21.2124304 C126.521118,20.0618584 124.965522,20.6181925 124.952047,20.6230834" id="Fill-18" fill="#DF0011"></path>
                <path d="M106.2307,18.6684569 C106.2307,18.7430474 106.218398,18.8995499 106.130258,18.9985888 C106.066559,19.0609459 105.980823,19.0951797 105.870583,19.0951797 L98.8985591,19.0951797 L98.8985591,10.3124478 L105.816684,10.3124478 C105.95877,10.3124478 106.065335,10.3466841 106.130253,10.4212697 C106.201292,10.4970774 106.209873,10.6046764 106.209873,10.6462485 L106.209873,10.6743706 L106.2307,18.6317751 L106.2307,18.6684569 Z M95.7359212,19.1012964 C95.5374875,19.1012964 88.724703,19.0951613 88.724703,19.0951613 C88.6953064,19.0951613 88.4074584,19.0804862 88.3890853,18.7026711 L88.3890853,10.6694795 C88.3890853,10.6303524 88.3927737,10.5007454 88.4785045,10.4090421 C88.5397443,10.3442383 88.6340641,10.3124474 88.7467535,10.3124474 C88.7467535,10.3124474 95.53749,10.3283422 95.7359212,10.3283422 L95.7359212,19.1012964 Z M107.322062,7.16029807 L107.308587,7.16029807 L98.914482,7.16029807 L98.914482,4.88727771 C98.914482,4.01181649 98.2003762,3.29897578 97.3233623,3.29897578 C96.4451226,3.29897578 95.7359175,4.01181649 95.7359175,4.88727771 L95.7359175,7.16029807 L87.3761082,7.16029807 C86.1720508,7.16029807 85.1945955,8.1580305 85.1945955,9.35751024 L85.1970544,20.0513428 C85.1970544,21.2483771 86.1720594,22.2338832 87.3761168,22.243665 C87.3761168,22.243665 94.792768,22.2583401 95.7359261,22.2583401 L95.7359261,27.3802768 C95.7359261,28.256961 96.4451312,28.9685792 97.3233709,28.9685792 C98.2003848,28.9685792 98.9144906,28.256961 98.9144906,27.3802768 L98.9144906,22.2681219 C99.1043462,22.2681219 107.31472,22.2852388 107.31472,22.2852388 C108.532251,22.2852388 109.517055,21.2997328 109.517055,20.0929167 L109.517055,9.34772857 C109.517055,8.13968988 108.532251,7.16029807 107.32207,7.16029807 L107.322062,7.16029807 Z" id="Fill-19" fill="#DF0011"></path>
                <path d="M157.804771,17.8719829 C157.804771,17.7044715 157.809689,16.4854282 157.809689,16.3240298 L164.092098,16.3240298 C164.092098,16.4854282 164.075009,17.7044715 164.07255,17.8719829 L157.804771,17.8719829 Z M157.809689,12.3306549 L164.092098,12.3306549 C164.092098,12.4920533 164.075009,13.7147641 164.07255,13.8761625 L157.804833,13.8761625 C157.804833,13.7147641 157.809751,12.4920533 157.809751,12.3306549 L157.809689,12.3306549 Z M154.567422,13.8834989 L148.213962,13.8834989 C148.213962,13.7184329 148.216421,12.4969441 148.21765,12.3318782 L154.567422,12.3318782 L154.567422,13.8834989 Z M154.567422,17.8866556 L148.213962,17.8866556 C148.213962,17.7203663 148.216421,16.5037684 148.21765,16.3374804 L154.567422,16.3374804 L154.567422,17.8866556 Z M167.918621,25.1348873 L167.916162,25.1348873 C167.873253,25.1189974 163.642556,23.3521748 159.573496,20.5142615 L164.803739,20.5142615 C166.005347,20.5142615 166.977906,19.5397606 166.977906,18.3500626 L166.969299,18.2033382 L166.969299,18.0346034 C166.969299,17.0368714 166.95098,12.009082 166.95098,12.009082 C166.95098,10.8426155 166.037215,9.89623685 164.867462,9.84977381 C164.867462,9.84977381 158.555644,9.84610502 157.710483,9.84610502 L157.710483,8.37273857 C157.900338,8.37273857 167.06612,8.35317498 167.06612,8.35317498 C167.945583,8.35317498 168.637638,7.69046547 168.637638,6.84190382 C168.637638,5.99089672 167.918633,5.29884208 167.044076,5.29884208 L157.710483,5.29884208 L157.710483,5.00050076 C157.710483,4.13848939 157.001277,3.43909852 156.136506,3.43909852 C155.270518,3.43909852 154.567435,4.13848939 154.567435,5.00050076 L154.567435,5.29884232 L145.237531,5.29884232 C144.378883,5.29884232 143.663553,5.99089697 143.663553,6.84190407 C143.663553,7.68679755 144.378883,8.37273857 145.237531,8.37273857 L154.567435,8.37273857 L154.567435,9.84610576 L147.388411,9.84610576 C146.011653,9.89623685 145.22038,10.6861083 145.22038,12.0262 L145.210544,18.3158276 C145.224068,18.3256437 145.224068,18.3537302 145.224068,18.3537302 C145.224068,19.5470957 146.199073,20.5203745 147.394546,20.5203745 C147.394546,20.5203745 152.044197,20.5142394 152.584364,20.5142394 C149.617707,22.71512 144.203745,25.0028134 144.144939,25.0272667 C143.608449,25.3011545 143.278951,25.8415925 143.278951,26.4358305 C143.278951,27.3039562 143.980805,28.0045693 144.855375,28.0045693 L145.258358,27.9470957 C145.328192,27.9470957 151.078991,26.2181818 154.549079,22.4497858 C154.553996,22.8960746 154.549079,27.668317 154.549079,27.668317 C154.549079,28.5376649 155.27053,29.2370559 156.136518,29.2370559 C157.001289,29.2370559 157.694574,28.5376649 157.694574,27.668317 C157.694574,27.668317 157.699492,23.415727 157.694574,22.3238458 C160.228852,25.1605369 166.404691,27.9470957 166.473283,27.9788866 C166.708468,28.1219435 167.366221,28.2136472 167.647953,28.2136472 C168.47107,28.2136472 169.11536,27.502029 169.11536,26.5947773 C169.11536,25.9394031 168.49679,25.4087469 167.918645,25.1348591 L167.918621,25.1348873 Z" id="Fill-20" fill="#DF0011"></path>
                <path d="M217.574533,11.3632459 L217.374868,11.3632459 L217.298887,11.3779186 L217.229053,11.3828144 C216.131556,11.3828144 215.255769,12.3059611 215.198193,13.5360083 L215.198193,21.0544603 C215.061009,24.1907146 213.741814,26.0284504 213.47234,26.3695862 C213.464963,26.3732672 213.41603,26.4392808 213.41603,26.4392808 L213.375581,26.4979692 C213.351114,26.5407676 213.104876,27.0115073 213.104876,27.3746534 C213.104876,28.2146558 213.793255,28.904265 214.634752,28.904265 C215.122261,28.904265 215.569333,28.6805083 215.860864,28.2941323 C215.865782,28.2892242 218.499253,25.5552591 218.499253,21.2549822 L218.499253,21.2134108 C218.504171,20.5372509 218.463721,14.549634 218.463721,14.549634 L221.1364,14.549634 C221.1364,15.2392432 221.140089,19.6067681 221.140089,22.7760354 C221.140089,24.4976129 221.140089,25.8609365 221.1364,26.0773557 C221.152384,27.3477534 221.943608,28.6316005 223.429383,28.6267096 L225.308354,28.6242556 C225.360975,28.6316177 226.920285,28.7624216 227.753213,25.939181 C227.753213,25.9269109 227.810752,25.7056438 227.810752,25.7056438 L227.907511,25.1224097 L227.90997,25.0270336 C227.934436,24.710351 227.978574,24.0451963 226.867602,23.7065059 C226.193915,23.4998674 225.640261,23.7957593 225.378139,24.4975994 L225.221357,24.9426662 C225.090296,25.3779524 225.029056,25.5320132 224.7951,25.5503547 C224.7951,25.5503547 224.388442,25.5528087 224.208386,25.5552628 L224.208386,13.5201148 C224.208386,13.4993291 224.152076,11.4879688 222.095459,11.3632459 L217.574435,11.3632459" id="Fill-21" fill="#DF0011"></path>
                <path d="M217.868868,5.02752279 L217.868868,6.86770325 L215.001417,6.86770325 C214.086434,6.86770325 213.341709,7.55853517 213.341709,8.39976047 C213.341709,9.2470994 214.086434,9.93915404 215.001417,9.93915404 L224.752696,9.93915404 C225.659109,9.93915404 226.402605,9.2470994 226.402605,8.39976047 C226.402605,7.55853517 225.659109,6.86770325 224.752696,6.86770325 L220.953111,6.86770325 C220.948194,6.69652367 220.953111,5.02018644 220.953111,5.02018644 C220.953111,4.17529296 220.262286,3.47957027 219.40976,3.47957027 C218.55603,3.47957027 217.868868,4.17529296 217.868868,5.02752279" id="Fill-22" fill="#DF0011"></path>
                <path d="M209.773756,15.3060004 C209.619421,15.3060004 208.64074,15.3109085 208.351667,15.3109085 C208.561119,15.066366 208.698303,14.7692483 208.698303,14.4281113 C208.698303,14.3449684 208.697086,14.2642674 208.68232,14.1872376 L208.344253,12.036488 C208.294091,11.6598929 208.098052,11.3444333 207.813885,11.1439087 C207.543181,10.9531657 207.201438,10.8859166 206.86583,10.9507203 C206.228892,11.0742142 205.789161,11.6476658 205.789161,12.311598 C205.789161,12.3849615 205.792849,12.4619913 205.803791,12.5378002 L206.139412,14.6909939 C206.177402,14.9379818 206.26435,15.1348386 206.380707,15.3109085 C206.117367,15.3109085 205.18768,15.3109085 205.034575,15.3121318 L205.034575,9.95174804 C205.218306,9.95174804 209.584996,9.94074168 209.773633,9.94074168 L209.773756,15.3060004 Z M213.058882,15.2901105 L212.906993,15.2901105 L212.906993,8.34755069 C212.906993,7.47698025 212.217385,6.77147588 211.373453,6.77147588 C211.373453,6.77147588 209.068226,6.78004047 208.83427,6.78004047 C208.884432,6.58440665 209.106192,5.70649999 209.106192,5.70649999 L209.194344,5.46929391 C209.224958,5.34335465 209.2434,5.21863811 209.2434,5.09636702 C209.2434,4.82003425 209.167419,4.55103783 209.024149,4.31505447 C208.814697,3.96413638 208.479077,3.71225785 208.083446,3.61199555 C207.684127,3.51417883 207.272575,3.57531382 206.922263,3.78684318 C206.571938,3.99592684 206.326967,4.32728159 206.228978,4.7283309 C206.228978,4.7283309 205.743916,6.65654666 205.70595,6.79349032 C205.56632,6.79349032 203.569762,6.80571143 203.569762,6.80571143 C203.55132,6.79349032 203.506076,6.79349032 203.506076,6.79349032 C202.657239,6.79349032 201.968847,7.50633103 201.968847,8.37201058 L201.968847,15.3157883 C201.095519,15.3231504 200.388759,15.9992845 200.388759,16.8307273 C200.388759,17.6585037 201.089384,18.3334402 201.961507,18.3371078 C201.957819,18.4997283 201.949213,19.2174607 201.949213,19.2174607 C201.952901,19.2100986 201.939377,19.3727449 201.939377,19.3727449 L201.940606,19.4253227 C201.91614,20.6309154 201.841388,21.7435836 201.723802,22.7608792 C201.723802,22.7522901 201.707942,22.9112725 201.707942,22.9112725 C201.353953,25.8849063 200.770903,27.0574861 200.767239,27.0684913 C200.706011,27.2812429 200.664332,27.4927711 200.664332,27.7043006 C200.664332,28.5369667 201.351494,29.2204629 202.192979,29.2204629 C202.78337,29.2204629 203.332118,28.8719907 203.580766,28.3364423 C203.648141,28.2117257 204.334073,26.9376604 204.741961,23.2756407 L204.762739,23.0543294 C204.875482,21.9367716 204.959946,20.699388 205.004047,19.3800825 C205.004047,19.3727204 205.024825,18.6073292 205.024825,18.3407778 C205.181619,18.3407778 205.988814,18.3370967 206.145596,18.3370967 L206.145596,22.1189434 C206.145596,22.9430511 206.661271,23.5397332 207.375383,23.5397332 C208.095606,23.5397332 208.640678,22.9296005 208.640678,22.1189434 L208.640678,18.3224253 C208.796243,18.3224253 209.680599,18.3162902 209.842286,18.3162902 L209.842286,25.6354399 C209.842286,25.7650474 209.803066,25.861642 209.717348,25.9350043 C209.395203,26.2015557 208.565963,26.0560497 208.253617,26.0010302 L208.084577,25.9765757 C207.255338,26.0108095 206.690668,26.606272 206.690668,27.4474966 C206.690668,28.1163201 206.942992,28.3315171 207.217372,28.5552738 L207.288435,28.6139621 C207.662022,28.9330901 208.278133,28.9599901 208.358982,28.9550992 C210.343282,29.0321314 211.426075,28.7949241 212.08384,28.1578915 C212.653416,27.6015574 212.906957,26.7102005 212.906957,25.2869653 L212.906957,25.0351147 L212.906957,18.3163159 L213.058845,18.3163159 C213.896666,18.3163159 214.512777,17.6817287 214.512777,16.8025991 C214.512777,15.9259149 213.896666,15.2901056 213.058845,15.2901056 L213.058882,15.2901105 Z" id="Fill-23" fill="#DF0011"></path>
                <path d="M132.675614,36.3428711 C132.413491,36.6595537 132.283659,37.1425243 132.283659,37.7942297 L132.283659,46.1257841 C131.944363,45.5523331 127.425785,37.9519593 127.425785,37.9519593 C126.603886,36.5641812 125.756266,35.8599005 124.909876,35.8599005 C124.177396,35.8599005 123.653151,36.0396392 123.362849,36.3881113 C123.073776,36.7378068 122.936592,37.3650577 122.936592,38.3065457 L122.936592,49.5261445 C122.936592,50.1876316 123.059084,50.6840516 123.31753,50.9897302 C123.577206,51.3051894 123.993664,51.4653645 124.550982,51.4653645 C125.09973,51.4653645 125.512512,51.302744 125.781987,50.9811705 C126.053908,50.6669334 126.182523,50.1754044 126.182523,49.5261445 L126.182523,41.2190433 C126.525495,41.7876046 131.254754,49.732783 131.254754,49.732783 C131.706731,50.4957545 132.090129,50.9664978 132.422073,51.1633546 C132.745435,51.3626569 133.198642,51.4653645 133.759636,51.4653645 C134.408819,51.4653645 134.874284,51.2782895 135.141299,50.9200355 C135.405881,50.5617804 135.534483,49.9492022 135.534483,49.0505102 L135.534483,37.7942297 C135.534483,37.1376334 135.405881,36.644881 135.141299,36.3330893 C134.880406,36.0176301 134.465166,35.8599005 133.916417,35.8599005 C133.356653,35.8599005 132.943871,36.0176301 132.675614,36.3428711" id="Fill-24" fill="#1B1D80"></path>
                <path d="M117.016501,36.2950628 C116.742127,36.5848454 116.603716,37.0237992 116.603716,37.6045865 L116.603716,49.7241019 C116.603716,50.2902165 116.751927,50.7230561 117.022625,51.0213984 C117.298224,51.3160719 117.713458,51.4652418 118.24873,51.4652418 C118.797476,51.4652418 119.216386,51.3160719 119.491984,51.0213984 C119.760232,50.7365066 119.899869,50.2999983 119.899869,49.7241019 L119.899869,37.6045865 C119.899869,37.033581 119.757783,36.5909596 119.487085,36.301177 C119.209037,36.0077256 118.792577,35.8609999 118.24873,35.8609999 C117.704884,35.8609999 117.294549,36.0077256 117.016501,36.2950628" id="Fill-25" fill="#1B1D80"></path>
                <path d="M110.690605,36.2950628 C110.422356,36.5848454 110.28027,37.0237992 110.28027,37.6045865 L110.28027,41.6652107 L104.263659,41.6652107 L104.263659,37.6045865 C104.263659,37.033581 104.127697,36.5909596 103.850873,36.301177 C103.575276,36.0077256 103.157591,35.8609999 102.618644,35.8609999 C102.069897,35.8609999 101.655888,36.0077256 101.381514,36.2950628 C101.107141,36.5848454 100.976078,37.0237992 100.976078,37.6045865 L100.976078,49.7241019 C100.976078,50.2902165 101.107141,50.7230561 101.381514,51.0213984 C101.655888,51.3124031 102.069897,51.4652418 102.618644,51.4652418 C103.162491,51.4652418 103.589974,51.3160719 103.856997,51.0213984 C104.131372,50.7365066 104.263659,50.2999983 104.263659,49.7241019 L104.263659,44.6229497 L110.28027,44.6229497 L110.28027,49.7241019 C110.28027,50.2938853 110.422356,50.7291703 110.69918,51.0213984 C110.974778,51.3160719 111.390013,51.4652418 111.933859,51.4652418 C112.482605,51.4652418 112.906414,51.3160719 113.183237,51.0238438 C113.453935,50.7365066 113.594797,50.2999983 113.594797,49.7241019 L113.594797,37.6045865 C113.594797,37.033581 113.451486,36.5909596 113.172214,36.301177 C112.89294,36.0077256 112.47893,35.8609999 111.933859,35.8609999 C111.386338,35.8609999 110.964978,36.0077256 110.690605,36.2950628" id="Fill-26" fill="#1B1D80"></path>
                <path d="M87.1272134,37.8389803 C85.844764,39.2903388 85.1943521,41.3310443 85.1943521,43.91341 C85.1943521,46.3135929 85.83864,48.2271363 87.1014917,49.6161365 C88.3692429,50.996577 90.1379703,51.6996355 92.3415298,51.6996355 C93.3875771,51.6996355 94.3221609,51.5541332 95.1146587,51.2778011 C95.9108314,50.9941315 96.6714824,50.5368375 97.3708886,49.923036 C97.8008213,49.5329912 98.1474624,49.101375 98.4095874,48.6453031 C98.6692621,48.170891 98.8076732,47.7307151 98.8076732,47.3406703 C98.8076732,46.9225035 98.650889,46.5679171 98.3409942,46.2793566 C98.0286491,45.9859064 97.6562862,45.8391807 97.2141044,45.8391807 C96.921357,45.8391807 96.6518834,45.9137712 96.4154813,46.0470414 C96.1913284,46.1754268 95.9377789,46.4175238 95.671979,46.7598817 L95.4319033,47.174381 L95.0962856,47.6964788 C94.8219126,48.0180523 94.4605731,48.269931 94.0208404,48.4496697 C93.5786586,48.6196265 93.0740074,48.7076615 92.5154626,48.7076615 C91.2501605,48.7076615 90.261683,48.269931 89.5818745,47.4018053 C88.8947163,46.5361262 88.5468506,45.2742882 88.5468506,43.6664222 C88.5468506,42.0903482 88.8934917,40.8444049 89.5757493,39.9506026 C90.2555578,39.0702508 91.2011662,38.6215153 92.381951,38.6215153 C92.9453953,38.6215153 93.4512709,38.7156645 93.8861042,38.8990719 C94.3172614,39.0775872 94.696974,39.3551426 95.0142186,39.7244016 L95.3094151,40.1486827 C95.4551759,40.3858888 95.5788886,40.5521769 95.7038259,40.6671117 C95.934104,40.8835321 96.1766301,41.0522656 96.4105819,41.1574187 C96.6518834,41.2589054 96.9054342,41.3212625 97.1736832,41.3212625 C97.650161,41.3212625 98.0286491,41.1708693 98.3140467,40.8835321 C98.5994431,40.5998625 98.7403045,40.211041 98.7403045,39.7427419 C98.7403045,39.3147933 98.6067929,38.867281 98.3311953,38.4063182 C98.0580469,37.952693 97.6832325,37.5455301 97.2104295,37.1946113 C96.530621,36.6664005 95.8030415,36.2751323 95.0423906,36.0293678 C94.28419,35.7762669 93.4414721,35.6527724 92.5350603,35.6527724 C90.2359601,35.6527724 88.4182372,36.3900672 87.1272134,37.8389803" id="Fill-27" fill="#1B1D80"></path>
                <path d="M142.042893,45.4618515 C142.118874,45.2283142 143.823864,39.9951103 143.991674,39.4864618 C144.158254,39.9902194 145.873092,45.2283142 145.950253,45.4618515 L142.042893,45.4618515 Z M150.757916,49.6264066 C150.710089,49.4760134 150.63053,49.2082398 150.63053,49.2082398 L146.39612,37.5068925 C146.136444,36.8111691 145.859617,36.3795529 145.542377,36.1778052 C145.223908,35.9833938 144.738846,35.8892447 144.05659,35.8892447 C143.330232,35.8892447 142.830491,35.9882897 142.515698,36.1961454 C142.204568,36.3978931 141.932647,36.8466287 141.68277,37.5447963 L137.525533,49.2106852 C137.525533,49.2082312 137.403078,49.6264066 137.403078,49.6264066 L137.367546,50.0409059 C137.367546,50.4774142 137.516976,50.8332227 137.812183,51.09366 C138.106149,51.3626569 138.488305,51.4947099 138.956216,51.4947099 C139.365321,51.4947099 139.697265,51.3944502 139.967969,51.2012585 C140.228863,51.0031796 140.419946,50.7048385 140.554684,50.3099028 C140.554684,50.3099028 141.118124,48.5504214 141.223465,48.2239571 L146.914267,48.2239571 C146.957175,48.3523413 147.606322,50.3099028 147.606322,50.3099028 C147.736154,50.7109515 147.929684,51.0141835 148.18936,51.2098182 C148.44659,51.3968931 148.778534,51.4947099 149.182746,51.4947099 C149.65555,51.4947099 150.048734,51.3626569 150.337806,51.09366 C150.642801,50.8234409 150.795906,50.4664091 150.795906,50.0409059 C150.795906,50.0409059 150.804513,49.7780232 150.757916,49.6264066 L150.757916,49.6264066 Z" id="Fill-28" fill="#1B1D80"></path>
                <path d="M253.14212,36.3428711 C252.881215,36.6595537 252.742801,37.1425243 252.742801,37.7942297 L252.742801,46.1257841 C252.405964,45.5523331 247.89105,37.9519593 247.89105,37.9519593 C247.067933,36.5641812 246.22276,35.8599005 245.375153,35.8599005 C244.637767,35.8599005 244.120874,36.0396392 243.830572,36.3881113 C243.537823,36.7378068 243.396963,37.3650577 243.396963,38.3065457 L243.396963,49.5261445 C243.396963,50.1974134 243.525578,50.6779386 243.782807,50.9897302 C244.041254,51.3051894 244.456482,51.4653645 245.017488,51.4653645 C245.563778,51.4653645 245.975342,51.302744 246.247264,50.9811705 C246.513062,50.6620425 246.649029,50.1754044 246.649029,49.5261445 L246.649029,41.2190433 C246.987096,41.7839358 251.715126,49.732783 251.715126,49.732783 C252.168332,50.4957545 252.556623,50.9664978 252.889784,51.1609092 C253.210712,51.3626569 253.666365,51.4653645 254.22613,51.4653645 C254.872867,51.4653645 255.337101,51.2782895 255.600453,50.9200355 C255.868699,50.5617804 255.998531,49.9492022 255.998531,49.0505102 L255.998531,37.7942297 C255.998531,37.1376334 255.863793,36.644881 255.609023,36.3330893 C255.343224,36.0176301 254.930443,35.8599005 254.371895,35.8599005 C253.823147,35.8599005 253.406689,36.0176301 253.14212,36.3428711" id="Fill-29" fill="#1B1D80"></path>
                <path d="M216.634925,36.0598138 C215.904891,36.0598138 215.380646,36.2383291 215.090344,36.5916934 C214.803731,36.9450565 214.660411,37.5735294 214.660411,38.5235771 L214.660411,48.8261424 C214.660411,49.77252 214.803731,50.4009943 215.090344,50.7506897 C215.380646,51.1003852 215.904891,51.2776784 216.634925,51.2776784 L224.586841,51.2776784 C225.158863,51.2776784 225.597377,51.1529618 225.898696,50.9071972 C226.20246,50.652873 226.364147,50.2848373 226.364147,49.8030888 C226.364147,49.3127818 226.208583,48.9361864 225.914617,48.6953115 C225.61084,48.449547 225.167433,48.3309445 224.586841,48.3309445 L217.908801,48.3309445 L217.908801,44.6420237 L223.540797,44.6420237 C224.109143,44.6420237 224.5354,44.5270888 224.835501,44.2947737 C225.144171,44.0587909 225.299723,43.7115409 225.299723,43.2689195 C225.299723,42.8042892 225.149064,42.4497028 224.851422,42.2186109 C224.554998,41.98874 224.120172,41.8750285 223.540797,41.8750285 L217.908801,41.8750285 L217.908801,38.8671583 L224.186305,38.8671583 C224.759557,38.8671583 225.200505,38.7485547 225.499377,38.5186862 C225.80683,38.2827022 225.963611,37.9427885 225.963611,37.4867178 C225.963611,37.0171966 225.80683,36.6613869 225.499377,36.4217353 C225.201735,36.1784162 224.759557,36.0598138 224.186305,36.0598138 L216.634925,36.0598138 Z" id="Fill-30" fill="#1B1D80"></path>
                <path d="M201.816196,36.092093 C201.295627,36.092093 200.891415,36.2168097 200.619494,36.4527924 C200.345113,36.6997803 200.201807,37.0543667 200.201807,37.5287788 C200.201807,37.9958546 200.34022,38.3528865 200.609683,38.5913147 C200.870588,38.8224077 201.280923,38.9373426 201.816196,38.9373426 L204.850228,38.9373426 L204.850228,49.7241019 C204.850228,50.2902165 204.993535,50.7255015 205.266686,51.0213984 C205.54473,51.3185173 205.959971,51.4652418 206.508719,51.4652418 C207.048886,51.4652418 207.462897,51.3185173 207.736048,51.0213984 C208.004293,50.7365066 208.146383,50.2999983 208.146383,49.7241019 L208.146383,38.9373426 L211.186525,38.9373426 C211.710783,38.9373426 212.116212,38.818739 212.380793,38.5803108 C212.656391,38.3431047 212.791128,37.9885183 212.791128,37.5287788 C212.791128,37.0543667 212.656391,36.6997803 212.380793,36.4527924 C212.116212,36.2168097 211.710783,36.092093 211.186525,36.092093 L201.816196,36.092093 Z" id="Fill-31" fill="#1B1D80"></path>
                <path d="M160.932255,36.0598138 C160.196111,36.0598138 159.681652,36.2383291 159.382781,36.5916934 C159.096168,36.9450565 158.949185,37.5735294 158.949185,38.5235771 L158.949185,48.8261424 C158.949185,49.77252 159.096168,50.4009943 159.382781,50.7506897 C159.681652,51.1003852 160.191205,51.2776784 160.932255,51.2776784 L168.875614,51.2776784 C169.447624,51.2776784 169.887356,51.1529618 170.188686,50.9071972 C170.49368,50.652873 170.646786,50.2848373 170.646786,49.8030888 C170.646786,49.3127818 170.499803,48.9361864 170.191132,48.697757 C169.899613,48.449547 169.45253,48.3309445 168.875614,48.3309445 L162.20859,48.3309445 L162.20859,44.6420237 L167.833234,44.6420237 C168.390552,44.6420237 168.82662,44.5270888 169.121815,44.2947737 C169.430485,44.0587909 169.587267,43.7115409 169.587267,43.271365 C169.587267,42.8042892 169.434149,42.4497028 169.13406,42.2186109 C168.843759,41.98874 168.406486,41.8750285 167.833234,41.8750285 L162.20859,41.8750285 L162.20859,38.8671583 L168.478754,38.8671583 C169.048317,38.8671583 169.489278,38.7485547 169.785691,38.5186862 C170.089468,38.2827022 170.24502,37.9427885 170.24502,37.4867178 C170.24502,37.0171966 170.089468,36.6613869 169.785691,36.4217353 C169.489278,36.182085 169.048317,36.0598138 168.478754,36.0598138 L160.932255,36.0598138 Z" id="Fill-32" fill="#1B1D80"></path>
                <path d="M188.900561,36.8837988 C187.879021,37.6944558 187.360886,38.8328006 187.360886,40.2829358 C187.360886,41.5606699 187.716104,42.553511 188.415512,43.2247788 C189.111243,43.8960477 190.454941,44.4560493 192.41475,44.9035616 L192.626649,44.9561393 C195.092334,45.5198098 196.345396,46.2326501 196.345396,47.075098 C196.345396,47.6803411 196.115116,48.1302987 195.650882,48.4420892 C195.176848,48.7563263 194.470101,48.9152792 193.529385,48.9152792 C192.938995,48.9152792 192.423319,48.8272406 191.992169,48.654842 C191.575712,48.4812163 191.215588,48.2195558 190.925299,47.8686382 L190.506382,47.2670639 C190.020103,46.5334378 189.486059,46.1580645 188.91036,46.1580645 C188.466965,46.1580645 188.100719,46.3133499 187.822675,46.6129143 C187.5532,46.9124775 187.414786,47.3061911 187.414786,47.7720435 C187.414786,48.2195558 187.5532,48.6792952 187.831244,49.1488165 C188.100719,49.6122247 188.480428,50.0132734 188.933634,50.3434053 C189.604874,50.8202629 190.312851,51.1638454 191.02941,51.376597 C191.741063,51.5942395 192.600928,51.6993926 193.57838,51.6993926 C195.418156,51.6993926 196.891685,51.2482116 197.959786,50.3703053 C199.032779,49.4911756 199.571729,48.2733556 199.571729,46.7559712 C199.571729,45.9306402 199.422287,45.212909 199.1124,44.6443489 C198.804947,44.0623382 198.32602,43.5830352 197.682959,43.2198903 C197.324065,43.0267011 196.888009,42.838404 196.385808,42.6721147 C195.887284,42.5046033 195.089888,42.2857387 194.013218,42.0179651 L193.050459,41.7880954 C191.39075,41.3980494 190.554159,40.8294893 190.554159,40.0970853 C190.554159,39.5456422 190.757488,39.1323662 191.176393,38.82302 C191.596527,38.5234556 192.21142,38.3706169 192.989219,38.3706169 C193.529385,38.3706169 194.003419,38.4452074 194.39905,38.5955957 C194.784894,38.7447669 195.110715,38.9734133 195.365485,39.2668647 L195.659451,39.6495731 C196.177586,40.3281772 196.731227,40.6729818 197.298344,40.6729818 C197.736858,40.6729818 198.098199,40.5372612 198.373797,40.2719331 C198.640813,40.0053816 198.774333,39.6495731 198.774333,39.2118415 C198.774333,38.8193512 198.63469,38.3975168 198.363998,37.9524488 C198.089617,37.5183872 197.733182,37.1381242 197.293451,36.834891 C196.743473,36.4448462 196.118793,36.1501727 195.434077,35.9582068 C194.754268,35.7686876 193.989944,35.6745384 193.159475,35.6745384 C191.347879,35.6745384 189.914762,36.0817014 188.900561,36.8838" id="Fill-33" fill="#1B1D80"></path>
                <path d="M236.96928,42.1733695 C236.621414,42.4753794 236.050622,42.6294414 235.287528,42.6294414 L231.751295,42.6294414 L231.751295,38.8463726 L235.433281,38.8463726 C236.113091,38.8463726 236.631213,39.0114386 236.979079,39.3268978 C237.319605,39.6411349 237.491079,40.1167692 237.491079,40.7403525 C237.491079,41.3981709 237.319605,41.8750285 236.96928,42.1733695 Z M240.496943,48.4947872 C240.463871,48.3309445 240.438175,48.0277114 240.423421,47.5863134 L240.363423,46.4919867 C240.300966,45.7938178 240.114776,45.2350395 239.815904,44.8132039 C239.551335,44.4414994 239.161815,44.1810621 238.687794,43.9793144 C239.328408,43.7335499 239.831826,43.3325 240.193166,42.7676074 C240.585133,42.1464708 240.783557,41.3553761 240.783557,40.4224478 C240.783557,38.9564166 240.373222,37.8461951 239.56481,37.135799 C238.762508,36.4217353 237.514352,36.0598138 235.853415,36.0598138 L230.435777,36.0598138 C229.703296,36.0598138 229.185174,36.2383291 228.894872,36.5916934 C228.602123,36.9450565 228.460034,37.5735294 228.460034,38.5235771 L228.460034,49.7248344 C228.460034,50.2909503 228.596001,50.7225677 228.865476,51.0209088 C229.144749,51.3180277 229.559977,51.4659755 230.103833,51.4659755 C230.650122,51.4659755 231.066592,51.3180277 231.343407,51.0209088 C231.611652,50.7360171 231.751295,50.2982866 231.751295,49.7248344 L231.751295,45.436786 L234.934756,45.436786 C235.694187,45.436786 236.230677,45.5712844 236.514856,45.8341671 C236.808822,46.097051 236.99623,46.8233407 237.073404,47.9934763 C237.17754,49.5561009 237.368599,50.498811 237.661335,50.8876337 C237.951637,51.2801239 238.445269,51.4867625 239.12262,51.4867625 C239.612575,51.4867625 240.010664,51.3485952 240.313212,51.0832671 C240.608407,50.811826 240.765189,50.443789 240.765189,49.9840495 C240.765189,49.8458835 240.72228,49.6086774 240.647652,49.2589819 L240.496943,48.4947872 Z" id="Fill-34" fill="#1B1D80"></path>
                <path d="M177.078145,45.4618515 C177.156585,45.2283142 178.860345,39.9951103 179.028155,39.4864618 C179.198412,39.9902194 180.909573,45.2283142 180.986734,45.4618515 L177.078145,45.4618515 Z M185.794397,49.6264066 C185.7478,49.4760134 185.669458,49.2082398 185.669458,49.2082398 L181.432589,37.5068925 C181.175372,36.8111691 180.893651,36.3795529 180.578846,36.1778052 C180.261606,35.9833938 179.775327,35.8892447 179.091841,35.8892447 C178.366713,35.8892447 177.866972,35.9882897 177.550949,36.1961454 C177.241049,36.3978931 176.967911,36.8466287 176.72048,37.5447963 L172.560784,49.2106852 C172.560784,49.2082312 172.438329,49.6264066 172.438329,49.6264066 L172.402798,50.0409059 C172.402798,50.4774142 172.555916,50.8332227 172.847435,51.09366 C173.145077,51.3626569 173.524786,51.4947099 173.992697,51.4947099 C174.400585,51.4947099 174.734976,51.3944502 175.001991,51.2012585 C175.264126,51.0031796 175.457657,50.7048385 175.593611,50.3099028 C175.593611,50.3099028 176.154605,48.5504214 176.258729,48.2239571 L181.950748,48.2239571 C181.994886,48.3523413 182.641574,50.3099028 182.641574,50.3099028 C182.772635,50.7109515 182.968612,51.0141835 183.225841,51.2098182 C183.481841,51.3968931 183.813785,51.4947099 184.220444,51.4947099 C184.692019,51.4947099 185.085215,51.3626569 185.375505,51.09366 C185.678052,50.8234409 185.833617,50.4664091 185.833617,50.0409059 C185.833617,50.0409059 185.838535,49.7780232 185.794397,49.6264066 L185.794397,49.6264066 Z" id="Fill-35" fill="#1B1D80"></path>
            </g>
        </g>
    </g>
</svg>