<?xml version="1.0" encoding="UTF-8"?>
<svg width="352px" height="72px" viewBox="0 0 352 72" version="1.1" xmlns="http://www.w3.org/2000/svg" xmlns:xlink="http://www.w3.org/1999/xlink">
    <title>Emirates</title>
    <g id="Taskboard" stroke="none" stroke-width="1" fill="none" fill-rule="evenodd">
        <g id="Emirates">
            <rect id="Rectangle" fill="#FFFFFF" x="0" y="0" width="352" height="72"></rect>
            <g id="Emirates_logo" transform="translate(136.000000, 8.000000)" fill="#D71A21" fill-rule="nonzero">
                <g id="g866">
                    <path d="M45.452277,3.30708661 C44.7935483,4.16447944 44.4275879,5.21784777 44.4275879,6.29571304 C44.4275879,6.6631671 44.4275879,15.3595801 44.4275879,15.6780402 C44.3787932,16.3884514 44.1104223,17.0498688 43.6712699,17.6132983 C43.4272963,17.8582677 41.9878522,19.1566054 41.8658654,19.3035871 L42.6709782,19.328084 C42.9393491,19.0831146 45.7206479,16.6089239 45.9890188,16.2659668 C46.7941316,15.384077 47.2576814,14.2327209 47.2576814,13.032371 C47.2576814,12.6404199 47.2576814,4.38495188 47.2576814,4.01749781 C47.233284,3.11111111 47.5748471,2.20472441 48.2091783,1.54330709 C48.5507413,1.17585302 49.6242251,0.269466317 49.8194039,0.0489938758 L48.9654964,0.0244969379 C48.7947149,0.244969379 45.7450452,3.01312336 45.452277,3.30708661 Z" id="path6"></path>
                    <path d="M38.5966195,37.4313211 L41.9878522,40.3954506 L44.2568064,40.3954506 C46.4281713,40.3954506 48.526344,39.5380577 50.0633775,37.9947507 C51.4540269,36.5984252 51.9663714,34.712161 51.9663714,32.9483815 L51.9663714,28.0734908 C51.941974,26.9711286 51.4784242,25.9177603 50.6489141,25.1828521 C50.5025299,25.0358705 49.5022383,24.0804899 49.5022383,24.0804899 L49.5022383,27.8285214 C49.5022383,27.8285214 50.6001194,28.9553806 50.7952982,29.175853 C51.7955899,30.2537183 51.7955899,32.2134733 48.5995361,35.3245844 C48.0383968,35.8635171 46.4525686,37.3823272 44.2568064,37.3823272 L38.5966195,37.4313211 Z" id="path8"></path>
                    <path d="M48.0383968,17.4173228 C47.6724365,17.8092738 47.3064761,18.7891514 47.3064761,19.6710411 L47.3064761,21.5083115 L49.1606753,21.5083115 C49.892596,21.5083115 50.844093,20.8468941 51.0392718,20.503937 C51.0392718,20.4794401 51.0392718,18.6666667 51.0392718,18.6666667 C51.3076427,19.0586177 51.6492057,19.4260717 52.0395635,19.720035 C52.2347423,19.4750656 53.9425573,17.4173228 55.3576041,17.3928259 C57.7241478,17.368329 57.1874059,20.3814523 56.235909,21.3368329 C55.9187433,21.6552931 54.5280939,22.9291339 54.0889415,23.3455818 C52.9666631,24.4234471 51.0392718,23.9090114 51.0392718,21.1408574 C51.0392718,21.1408574 48.9898938,23.1006124 48.6727281,23.3700787 C48.3555625,23.6395451 47.3064761,24.7664042 47.3064761,24.7664042 L47.3064761,29.6412948 C47.3064761,31.9685039 46.550158,32.7524059 45.9158267,33.4628171 C45.6718532,33.7322835 43.0613359,36.1329834 42.6953756,36.4024497 L41.841468,36.4269466 C41.841468,36.4269466 43.3785016,35.0306212 43.6712699,34.712161 C44.0128329,34.3447069 44.4275879,33.6097988 44.4275879,32.3849519 C44.4275879,32.0664917 44.3787932,24.7419073 44.3787932,24.7419073 L32.4728828,24.7419073 C28.325332,24.7419073 27.4470271,20.1364829 27.4226298,18.8871391 C27.4226298,18.519685 27.4226298,14.8451444 27.4226298,14.2572178 C27.4226298,13.4978128 26.9346826,12.223972 26.1783646,11.832021 L27.3494377,11.832021 C27.4958219,11.8810149 28.2277426,12.1749781 28.2277426,15.0166229 C28.2277426,15.0166229 28.1789479,18.2992126 28.1789479,18.4951881 C28.1789479,19.9405074 29.3256237,21.5818023 30.9602466,21.5818023 L44.4275879,21.5573053 C44.4275879,21.1898513 44.7935483,19.8180227 45.452277,19.0831146 C45.8182373,18.6666667 48.7215229,16.0209974 49.0386885,15.7515311 L49.892596,15.7515311 C49.7706092,15.8740157 48.3555625,17.1233596 48.0627942,17.4663167 L48.0627942,17.4663167 L48.0383968,17.4173228 Z M52.4543185,20.1854768 C52.7958815,20.6509186 53.1862393,21.1163605 53.6009943,21.5328084 C55.0648358,22.7086614 55.7479618,21.4348206 54.7720675,20.111986 C54.3817098,19.5730534 52.893471,19.720035 52.4543185,20.1854768 Z" id="path10"></path>
                    <path d="M38.0110829,28.9063867 C38.0110829,29.567804 35.9373075,31.3070866 35.8153208,31.4050744 C35.6689366,30.6946632 35.1321947,29.9352581 33.5951612,28.3674541 L35.8641155,26.0892388 C37.401149,27.6325459 38.0110829,27.9755031 38.0110829,28.9063867 L38.0110829,28.9063867 Z" id="path12"></path>
                    <path d="M41.9634548,2.7191601 C42.4270046,3.18460192 43.4028989,4.40944882 42.8173623,5.02187227 C42.3050178,5.53630796 41.499905,6.36920385 41.499905,6.36920385 C41.4511103,6.07524059 40.6947922,5.34033246 40.6947922,5.34033246 C40.6947922,5.34033246 40.6947922,7.54505687 40.6947922,7.81452318 C40.6703949,8.81889764 40.3044345,9.08836395 40.3044345,9.08836395 C40.3044345,9.08836395 42.1342363,10.9011374 42.1342363,13.2528434 C42.1342363,14.3797025 42.1342363,15.4330709 42.1342363,15.6535433 C42.1586337,16.0944882 41.9878522,16.55993 41.6706865,16.8783902 C41.499905,17.0743657 39.8164874,18.7891514 39.5481164,19.0096238 C39.1577587,19.3525809 38.6698116,19.5485564 38.1574671,19.5240595 L31.8385515,19.5240595 C30.8382598,19.5240595 29.8135708,18.7401575 29.8135708,17.9562555 C29.8135708,17.76028 29.8379682,15.6045494 29.8379682,15.6045494 C30.1551338,15.9720035 30.4966968,16.4129484 31.2774123,16.4129484 C31.9117436,16.4129484 32.5460749,15.9230096 32.7168564,15.7270341 C32.8876379,15.5310586 37.4987384,10.7296588 37.4987384,10.7296588 C37.4987384,10.7296588 35.351771,8.72090989 33.9367242,7.76552931 C33.2535982,7.30008749 32.3264986,7.888014 32.1801145,8.50043745 C31.7409621,10.4111986 32.1801145,13.3018373 32.1801145,13.3018373 L30.4479021,11.5625547 C29.7403787,10.8521435 29.7647761,9.25984252 30.6186836,8.42694663 C30.7406704,8.279965 32.0337303,6.85914261 33.6439559,6.85914261 L36.1568838,6.85914261 C37.8403014,6.85914261 39.6945006,8.54943132 39.6945006,8.54943132 C39.8408847,8.37795276 39.9384742,8.18197725 39.9628715,7.96150481 C39.9628715,7.07961505 39.9384742,4.75240595 39.9384742,4.75240595 C38.6698116,3.47856518 38.4990301,2.15573053 39.108964,1.54330709 C40.2556398,0.391951006 40.6703949,0 40.6703949,0 C40.6703949,0 40.6216002,1.39632546 41.9634548,2.7191601 L41.9634548,2.7191601 Z M34.0343137,15.4575678 C33.3999824,16.1189851 33.3023929,16.2659668 32.7168564,16.6334208 L39.8408847,16.6334208 C41.768276,16.6334208 41.3779183,15.4330709 41.0363553,14.8206474 C40.3288319,13.5713036 38.084275,11.2685914 38.084275,11.2685914 C38.084275,11.2685914 34.1563004,15.3350831 34.0343137,15.4575678 L34.0343137,15.4575678 Z" id="path14"></path>
                    <path d="M25.9099936,21.9737533 L24.7389205,21.9737533 C24.7389205,21.9737533 25.9831857,22.6596675 25.9831857,24.447944 L25.9831857,30.1557305 C25.9831857,33.8547682 29.0328554,37.2843395 32.7412537,37.2843395 L35.8397181,37.2843395 C37.6939173,37.2843395 38.3526459,36.8433946 39.4749244,35.8390201 C39.8896795,35.4715661 40.4264213,34.8591426 40.6216002,34.6386702 C41.2559315,33.903762 41.9634548,33.3158355 41.9634548,31.4050744 L41.9634548,29.5433071 C41.9634548,27.9265092 41.0363553,27.2650919 40.5728055,26.79965 C40.2800372,26.5056868 39.4993217,25.7462817 39.4993217,25.7462817 L39.4993217,29.567804 C39.4993217,29.567804 40.2800372,30.4006999 40.6216002,30.6701662 C42.2318258,31.944007 40.9631632,34.1487314 39.450527,34.1487314 C39.1577587,34.1487314 33.0828167,34.1487314 32.6436643,34.1487314 C30.1551338,34.1977253 26.7639011,31.9685039 26.7639011,28.1959755 L26.7639011,25.1093613 C26.7882985,21.9737533 25.9099936,21.9737533 25.9099936,21.9737533 L25.9099936,21.9737533 Z" id="path16"></path>
                    <path d="M33.375585,28.9308836 C33.375585,29.592301 31.3018096,31.3315836 31.1798228,31.4295713 C31.0334387,30.7191601 30.4966968,29.959755 28.9596633,28.391951 L31.2286176,26.1137358 C32.7412537,27.6325459 33.375585,27.9755031 33.375585,28.9308836 L33.375585,28.9308836 Z" id="path18"></path>
                    <path d="M9.58816148,54.2852143 L5.92855786,54.2852143 C4.78188206,54.2852143 4.87947149,53.3298338 4.75748471,52.5214348 L4.75748471,47.2790901 C4.75748471,47.2790901 5.5625975,47.2545932 6.46529973,47.2545932 C7.46559138,47.2545932 8.73425397,47.1076115 9.95412184,47.7935258 C9.31979055,46.4461942 7.95353853,45.6132983 6.46529973,45.6622922 L4.78188206,45.6622922 L4.78188206,43.9720035 C4.78188206,43.9720035 4.78188206,42.5021872 4.4159217,42.0857393 L6.83126009,42.0857393 C8.90503547,42.0857393 10.5152611,42.0612423 12.1986787,43.1636045 C12.1986787,43.1636045 11.8815131,40.3954506 7.8559491,40.3954506 L0,40.3954506 C0,40.3954506 1.36625202,41.5713036 1.3174573,43.9475066 L1.36625202,53.5013123 C1.36625202,55.9020122 2.31774896,55.9755031 2.31774896,55.9755031 L10.0517113,55.9755031 C11.808321,55.9755031 12.4182549,54.7261592 12.4182549,54.040245 L12.4426523,53.1338583 C12.4426523,53.1338583 11.8815131,54.2852143 9.58816148,54.2852143 L9.58816148,54.2852143 Z" id="path20"></path>
                    <path d="M30.1795312,53.4768154 L30.1795312,46.7891514 C30.1795312,44.1924759 28.0813584,43.5065617 26.4955302,43.5065617 C24.4217548,43.5065617 23.7874235,45.2458443 23.5190526,45.8582677 C23.0555028,44.2414698 21.4208799,43.5065617 20.1034225,43.5065617 C17.5904947,43.5065617 16.9561634,45.9072616 16.9561634,45.9072616 C16.9561634,45.9072616 16.9073687,43.5800525 14.8823881,43.5800525 L12.9062021,43.5800525 C12.9062021,43.5800525 14.0528779,44.0454943 14.0528779,46.0542432 L14.0528779,53.4768154 C14.0528779,55.9265092 15.0287722,55.9755031 15.0287722,55.9755031 L18.2980181,55.9755031 C17.5173027,55.3875766 17.0537529,54.4566929 17.0537529,53.4523185 L17.0537529,46.8626422 C17.1025476,46.5686789 17.5904947,45.5888014 18.9811441,45.5888014 C19.7862569,45.5888014 20.6645618,46.4216973 20.6401644,47.3525809 L20.6401644,53.4768154 C20.6401644,55.9510061 21.6160587,55.9755031 21.6160587,55.9755031 L24.8853046,55.9755031 C24.1045892,55.3630796 23.6410394,54.4566929 23.6410394,53.4523185 L23.6410394,46.8626422 C23.958205,45.9072616 24.982894,45.368329 25.9587883,45.6867892 C26.6907091,45.9317585 27.2030536,46.5931759 27.2274509,47.3770779 C27.2274509,47.3770779 27.2274509,52.9623797 27.2274509,53.4768154 C27.2518483,55.9755031 28.2033452,55.9510061 28.2033452,55.9510061 C29.9111602,55.9510061 31.4725911,55.9510061 31.4725911,55.9510061 C30.6674783,55.3630796 30.2039285,54.4566929 30.1795312,53.4768154 Z" id="path22"></path>
                    <path d="M35.8885128,53.4768154 C35.8885128,54.4566929 36.3520626,55.3875766 37.1327781,55.9755121 C37.1327781,55.9755121 35.5713472,55.9755121 33.8635322,55.9755121 C33.8635322,55.9755121 32.8632405,56 32.8632405,53.5013123 L32.8632405,46.0297463 C32.8632405,44.0699913 31.7409621,43.5555556 31.7409621,43.5555556 L33.717148,43.5555556 C34.4246714,43.5555556 35.8641155,43.5555556 35.8641155,46.3237095 L35.8641155,53.4278215 L35.8641155,53.4278215 L35.8641155,53.4278215 L35.8885128,53.4768154 Z" id="path24"></path>
                    <path d="M45.9402241,44.5109361 C45.9402241,44.5109361 45.6230585,43.6290464 44.2812038,43.6290464 C42.2318258,43.6290464 41.7438786,46.0787402 41.7438786,46.0787402 C41.5730971,44.1434821 41.0607526,43.5800525 39.6213085,43.5800525 L37.6451226,43.5800525 C37.6451226,43.5800525 38.7917984,44.0454943 38.7917984,46.0542432 L38.7917984,53.4768154 C38.7917984,55.9265092 39.7676927,55.9755031 39.7676927,55.9755031 L43.0369386,55.9755031 C42.2562231,55.3875766 41.7926733,54.4566929 41.7926733,53.4768154 L41.7926733,47.3770779 C41.8658654,46.8626422 42.1586337,46.3972003 42.5977861,46.127734 C43.6956672,45.3928259 45.1351113,45.6132983 45.9890188,46.6176728 L45.9402241,44.5109361 Z" id="path26"></path>
                    <path d="M61.1397778,44.951881 C61.8229038,44.951881 62.4816325,45.1233596 63.067169,45.4418198 L63.067169,43.5800525 L60.334665,43.5800525 L60.334665,40.7384077 C59.7491284,41.6692913 58.9928103,42.5021872 58.1389028,43.2125984 C57.2118032,43.9720035 55.2600147,44.9273841 55.2600147,44.9273841 L57.33379,44.951881 L57.33379,53.5748031 C57.33379,55.9755031 58.3340817,55.9755031 58.3340817,55.9755031 C60.1150888,55.9755031 61.5789302,55.9755031 61.5789302,55.9755031 C60.7982148,55.4120735 60.334665,54.5056868 60.3102676,53.5503062 L60.3102676,44.951881 C61.1885725,44.951881 60.6030359,44.951881 61.1397778,44.951881 L61.1397778,44.951881 Z" id="path28"></path>
                    <path d="M71.0451049,48.6999125 C69.2153031,50.6106737 67.775859,50.3167104 66.6291832,51.7375328 C66.6291832,51.7375328 66.8243621,53.648294 68.2638062,54.3097113 C68.7517533,54.5301837 70.776734,55.2650919 72.0697939,53.0113736 L72.0697939,55.0201225 C72.0697939,55.0201225 71.2402838,56 68.5809718,56 C65.384918,56 63.1891558,53.4768154 63.1891558,50.0472441 C63.1891558,46.6666667 64.9701629,43.5555556 68.3613956,43.5310586 C71.6550389,43.4820647 73.4604433,46.1767279 71.0451049,48.6999125 Z M69.0445216,47.9160105 C69.5812635,46.911636 70.0204159,44.3639545 68.1662167,44.5109361 C66.0192493,44.6824147 66.4340044,50.3902012 66.4340044,50.3902012 C67.1415277,49.6062992 68.2150115,49.4348206 69.0445216,47.9160105 L69.0445216,47.9160105 Z" id="path30"></path>
                    <path d="M34.3758767,42.575678 C35.2053868,42.5511811 35.8397181,41.8652668 35.8397181,41.0568679 C35.8153208,40.223972 35.1321947,39.5870516 34.3270819,39.5870516 C33.5219692,39.6115486 32.8632405,40.2729659 32.8632405,41.0813648 C32.8632405,41.9142607 33.5463665,42.575678 34.3758767,42.575678 Z" id="path32"></path>
                    <path d="M49.3314568,54.5546807 C48.5995361,54.5546807 48.0627942,53.7707787 48.0627942,52.9868766 C48.0627942,49.9002625 50.575722,49.4593176 51.258848,48.6509186 L51.258848,53.8687664 C50.9416824,54.1137358 50.6489141,54.5546807 49.3314568,54.5546807 L49.3314568,54.5546807 Z M51.258848,47.4505687 C50.5025299,48.7734033 44.5983694,49.0673666 45.5010717,53.648294 C45.867032,55.4610674 47.0625025,56 48.5751387,56 C50.0389802,56 50.9416824,55.2405949 51.3076427,54.5056868 C51.527219,55.8775153 52.2347423,55.9755031 52.2347423,55.9755031 C53.9425573,55.9755031 55.5039882,55.9755031 55.5039882,55.9755031 C54.7232728,55.3875766 54.2353256,54.4811899 54.2353256,53.5013123 L54.2353256,46.519685 C54.2353256,44.8538933 52.4055238,43.5555556 50.4537352,43.5555556 C49.3558541,43.5310586 48.3067678,43.8495188 47.4040655,44.4619423 L47.4040655,46.6176728 C47.4040655,46.6176728 48.0871916,44.9028871 49.7706092,44.9028871 C51.4296295,44.9028871 51.5516163,45.735783 51.5516163,46.152231 C51.5760137,46.5931759 51.5028216,47.0586177 51.258848,47.4505687 L51.258848,47.4505687 Z" id="path34"></path>
                    <path d="M78.2667227,52.5949256 C78.2911201,53.4768154 77.5104047,54.6281715 75.8513843,54.6281715 C74.1435693,54.6281715 73.4604433,52.8888889 73.4604433,52.8888889 L73.4604433,55.0936133 C74.3875429,55.6815398 75.4610266,55.9755031 76.5589077,55.9755031 C78.7790672,55.9755031 81.0480215,54.2852143 80.9992268,51.9090114 C80.9748294,51.1251094 80.7064585,50.3657043 80.2429087,49.7532808 C79.4865906,48.7489064 78.1203386,48.0384952 77.0468549,47.3770779 C76.4369209,47.0096238 76.1197553,46.3237095 76.1197553,46.1032371 C76.0953579,45.6867892 76.3149341,44.8538933 77.9495571,44.8538933 C79.5597827,44.8538933 80.2673061,46.5686789 80.2673061,46.5686789 L80.2673061,44.4864392 C79.3646038,43.8495188 78.2667227,43.5065617 77.1444443,43.5065617 C75.1926557,43.5065617 73.4116486,44.8048994 73.4604433,46.4706912 C73.4848407,47.9405074 74.0947746,48.8713911 75.2902451,49.7777778 C75.826987,50.1697288 76.3881262,50.5126859 76.9736628,50.8311461 C77.9007624,51.3455818 78.2423254,51.9825022 78.2667227,52.5949256 L78.2667227,52.5949256 Z" id="path36"></path>
                </g>
            </g>
        </g>
    </g>
</svg>