<?xml version="1.0" encoding="UTF-8"?>
<svg width="352px" height="72px" viewBox="0 0 352 72" version="1.1" xmlns="http://www.w3.org/2000/svg" xmlns:xlink="http://www.w3.org/1999/xlink">
    <title>Ethiopian</title>
    <g id="Taskboard" stroke="none" stroke-width="1" fill="none" fill-rule="evenodd">
        <g id="Ethiopian">
            <rect id="Rectangle" fill="#FFFFFF" x="0" y="0" width="352" height="72"></rect>
            <g id="Ethiopian_Airlines_Logo" transform="translate(109.000000, 8.000000)" fill-rule="nonzero">
                <path d="M125.104982,21.5412562 C124.939865,21.5395988 124.772894,21.5544916 124.561777,21.6138 C122.042964,22.3682656 112.873247,25.5123542 102.075536,27.0183826 C101.593166,27.0822227 101.719234,27.3100114 102.292681,27.3448331 C109.508573,28.028204 112.238851,28.1036505 115.545591,28.0702803 C118.717571,27.9672666 121.094326,28.4083396 123.765162,25.5674883 C126.220013,23.0220734 126.260568,21.5533954 125.104982,21.5412562 L125.104982,21.5412562 Z M25.9624379,23.5725075 L22.0517792,24.7332243 L23.6812199,25.8939388 L23.6812199,39.0245335 L22.0517792,40.1489773 L27.5556702,40.1489773 L25.9624379,39.0245335 L25.9624379,32.0965126 L27.447041,31.044615 C28.717281,30.028988 29.9295867,29.8113543 30.7783452,29.8113543 C32.1803897,29.8113543 32.6250464,30.6818914 32.6250464,31.1897049 L32.6250464,40.1489773 L36.5357049,40.1489773 L34.942475,39.0245335 L34.942475,31.1897049 C34.942475,29.6328942 34.0459195,28.4330038 31.466331,28.4330038 C30.4828726,28.4330038 28.9446793,28.6607949 27.2659931,29.9201712 L25.9624379,30.9357981 L25.9624379,23.5725075 Z M0,24.0440479 L1.59323204,25.2047647 L1.59323204,39.0245335 L0,40.1489773 L12.8544858,40.1489773 L12.8544858,37.174645 L10.5732671,39.0245335 L3.9106607,39.0245335 L3.9106607,32.0965126 L8.5093075,32.0965126 L10.3197987,33.4748631 L10.3197987,29.5574476 L8.5093075,30.9357981 L3.9106607,30.9357981 L3.9106607,25.2047647 L10.3197987,25.2047647 L12.3837583,26.8007489 L12.3837583,24.0440479 L0,24.0440479 Z M39.6497507,25.4223984 C38.9646604,25.4223984 38.3824061,25.8199437 38.3824061,26.3292062 C38.3824061,26.8370196 38.9646604,27.2722893 39.6497507,27.2722893 C40.3464275,27.2722893 40.917093,26.8370196 40.917093,26.3292062 C40.917093,25.8199437 40.3464275,25.4223984 39.6497507,25.4223984 Z M74.3387579,25.4223984 C73.64353,25.4223984 73.0714132,25.8199437 73.0714132,26.3292062 C73.0714132,26.8370196 73.64353,27.2722893 74.3387579,27.2722893 C75.0354346,27.2722893 75.6061002,26.8370196 75.6061002,26.3292062 C75.6061002,25.8199437 75.0354346,25.4223984 74.3387579,25.4223984 Z M17.9238609,26.3292062 L13.3252137,29.5574476 L15.6064324,29.5574476 L15.6064324,38.0814527 C15.6064324,39.4510972 16.740524,40.5117009 18.3583787,40.5117009 C19.8733972,40.5102803 21.0465968,39.6658305 21.3637935,39.0245335 L20.6758077,38.5529931 C20.5324169,38.7096895 20.0616895,39.4960739 18.7204768,39.4960739 C18.157052,39.4960739 17.9238609,39.2421696 17.9238609,39.2421696 L17.9238609,29.5574476 L21.3637935,29.5574476 L21.3637935,28.6506375 L17.9238607,28.6506375 L17.9238609,26.3292062 Z M49.6436612,28.4329951 C45.5591922,28.4344244 42.7275861,31.3115795 42.7275861,34.4179439 C42.7380096,37.5098015 45.5591922,40.4028841 49.6436612,40.4028841 C53.7585451,40.3985985 56.5235258,37.5098015 56.5235258,34.4179439 C56.5131023,31.3115795 53.7585451,28.4272006 49.6436612,28.4329951 Z M65.5035605,28.4329991 C64.1319333,28.4329991 61.9796219,28.630325 60.9049139,30.028988 L60.9049139,28.6506375 L56.9942531,29.8113543 L58.5874854,30.9357981 L58.5874854,43.5948524 L56.9942531,44.7555669 L62.2808878,44.7555669 L60.9049139,43.5948524 L60.9049139,38.7706268 C62.1012864,40.1040006 64.1319333,40.4028841 65.5035605,40.4028841 C68.8812128,40.3985985 71.0074536,37.1920546 71.0074536,34.4179439 C71.0074536,31.4203964 68.8812128,28.428652 65.5035605,28.4329991 L65.5035605,28.4329991 Z M84.1154099,28.4330038 C82.6409444,28.4330038 80.5711915,28.7507507 79.516761,29.3398139 L79.516761,31.8788789 L82.2324982,29.8838981 C82.7640578,29.482001 83.3376211,29.3398139 84.1154099,29.3398139 C85.5275919,29.3398139 86.6500969,30.1203952 86.6500969,31.1897049 L86.6500969,33.2572295 L83.4274218,33.2572295 C80.4683555,33.261515 77.9235287,35.1419397 77.9235287,37.3922786 C77.9235287,39.2305608 79.2748808,40.4028841 80.8927348,40.4028841 C81.2722126,40.4028841 81.8805376,40.3056737 82.2687087,40.1489773 L86.6500969,38.2990864 L86.6500969,40.1489773 L90.5607577,40.1489773 L88.9313149,39.0245335 L88.9313149,31.1897049 C88.9313149,29.4123577 87.2989767,28.4330038 84.1154099,28.4330038 L84.1154099,28.4330038 Z M100.192568,28.4330038 C99.3423625,28.4330038 97.7418881,28.5099018 95.84739,29.9564442 L94.6886769,30.9357981 L94.6886769,28.6506375 L90.7780161,29.8113543 L92.4074565,30.9357981 L92.4074565,39.0245335 L90.7780161,40.1489773 L96.3181173,40.1489773 L94.6886769,39.0245335 L94.6886769,32.0965126 L96.0646484,30.9357981 C97.5391139,29.7620234 98.6949316,29.8113543 99.5045819,29.8113543 C101.35702,29.8113543 101.82201,30.6224031 101.82201,31.1897049 L101.82201,40.1489773 L105.732671,40.1489773 L104.103288,39.0245335 L104.103288,31.1897049 C104.103288,30.1291012 103.416748,28.4330038 100.192568,28.4330038 L100.192568,28.4330038 Z M40.917093,28.6506375 L37.0064346,29.8113543 L38.5996645,30.9357981 L38.5996645,39.0245335 L37.0064346,40.1489773 L42.5103253,40.1489773 L40.917093,39.0245335 L40.917093,28.6506375 Z M75.6061002,28.6506375 L71.6954417,29.8113543 L73.3248821,30.9357981 L73.3248821,39.0245335 L71.6954417,40.1489773 L77.2355429,40.1489773 L75.6061002,39.0245335 L75.6061002,28.6506375 Z M49.6436612,29.3398139 C52.7041145,29.3398139 53.7715804,32.0051078 53.7715804,34.4179439 C53.7715804,36.8191737 52.7041145,39.4598032 49.6436612,39.4598032 C46.6136228,39.4598032 45.515742,36.8191737 45.515742,34.4179439 C45.515742,32.0065568 46.6136228,29.3412653 49.6436612,29.3398139 L49.6436612,29.3398139 Z M64.5983163,29.5574383 C67.5052413,29.5516468 68.2555082,32.2735214 68.2555082,34.4179439 C68.2555082,36.5507601 67.5052413,39.24218 64.5983163,39.24218 C63.0427411,39.2450582 61.6508365,38.6458517 60.9049139,37.3922786 L60.9049139,31.4073385 C61.640699,30.1218466 63.0427411,29.5603504 64.5983163,29.5574383 L64.5983163,29.5574383 Z M84.1154099,34.1640372 L86.6500969,34.1640372 L86.6500969,37.174645 L83.4274218,38.5529931 C83.0682214,38.7096895 82.3686469,39.0245335 82.0514479,39.0245335 C81.3547712,39.0245335 80.4220075,38.6226365 80.4220075,37.174645 C80.4220075,35.3349091 81.9051617,34.1640372 84.1154099,34.1640372 Z M51.2731016,46.496641 C49.778361,46.496641 48.1793355,46.9986513 47.6883308,48.1288983 C47.5854357,48.3610412 47.527558,48.6280057 47.5072805,48.8906161 C47.5177041,49.6682969 47.2958153,50.8580299 48.2676873,51.6110441 L49.6436612,52.6992148 L50.8747953,53.6422956 C51.058741,53.7627212 51.3093121,53.9136144 51.3093121,54.295199 L51.3093121,55.3108259 L50.3316469,56 L53.5905302,56 L52.6490755,55.3108259 L52.6490755,54.2226552 C52.6490755,53.6814715 52.5708612,53.2955327 52.0697189,52.9168485 L50.6937451,51.8286777 C50.2027403,51.4761116 50.2099824,51.4383871 49.9333383,51.2483205 C49.9333383,51.2483205 51.0399101,51.2962 51.5627811,51.2845936 C53.639776,51.3179638 54.5971638,50.8057985 54.8940854,50.1964229 C55.0577536,49.8569122 55.1055505,49.427448 55.0751332,48.7817993 C55.0446592,48.1100348 54.9853326,48.009924 54.8216643,47.6936286 C54.3407994,46.8143879 52.890958,46.496641 51.2731016,46.496641 L51.2731016,46.496641 Z M58.9857941,46.496641 L56.704576,47.1858151 L57.6460307,47.8749915 L57.6460307,48.4190757 L59.5289424,48.4190757 L57.4287723,51.1395037 C57.1115733,51.5704192 56.8494158,52.0651748 56.8494158,52.7354879 L56.8494158,55.3108259 L55.8717506,56 L59.1306338,56 L58.1891791,55.3108259 L58.1891791,52.7354879 C58.1891791,52.1725403 58.4064375,51.9012239 58.4788562,51.792407 C58.5918321,51.6415139 58.6555598,51.5617132 58.6961146,51.5022272 C58.7786164,51.3948618 58.9133754,51.3571373 58.9133754,51.3571373 C59.2609893,51.2657325 62.0998376,50.8696363 62.0998376,52.2639474 L62.0998376,55.165736 C62.0998376,55.7112716 62.3764817,56 62.6429859,56 C62.7863768,56 62.9196277,55.9898899 63.186132,55.8549101 C63.4613272,55.7199776 64.0189598,55.3108259 64.0189598,55.3108259 L64.0189598,56 L66.3001778,56 L65.3587231,55.3108259 L65.3587231,54.1138384 L64.7069455,54.1138384 L63.4758114,54.9118293 L63.4758114,52.1551306 C63.4352566,50.5591464 61.4553044,50.4329176 59.2754735,50.7042363 L61.0497537,48.4190757 L61.0497537,47.8749915 L58.9857941,47.8749915 L58.9857941,46.496641 Z M69.7039008,46.496641 L67.3864722,47.1858151 L68.3279269,47.8749915 L68.3279269,48.4190757 L69.7039008,48.4190757 L69.7039008,50.7042363 L65.9018692,50.7042363 L65.9018692,52.0463138 L64.9604145,52.7354879 L67.277843,52.7354879 L67.277843,51.2483205 L69.7039008,51.2483205 L69.7039008,55.3108259 L68.7624461,56 L71.9851188,56 L71.0436641,55.3108259 L71.0436641,51.2483205 L73.4697219,51.2483205 L73.4697219,52.7354879 L75.7871504,52.7354879 L74.8456957,52.0463138 L74.8456957,50.7042363 L71.0436641,50.7042363 L71.0436641,48.5278925 C71.0436641,47.9852598 70.8017816,47.8749915 70.3918865,47.8749915 L69.7039008,47.8749915 L69.7039008,46.496641 Z M79.9874883,46.496641 C78.5028876,46.496641 76.8835847,47.0001027 76.4027175,48.1288983 C76.2897416,48.3610412 76.215874,48.6280057 76.1854591,48.8906161 C76.2057388,49.6682969 76.010202,50.8580299 76.982074,51.6110441 L78.3580479,52.6992148 L79.589182,53.6422956 C79.7731277,53.7627212 79.9976282,53.9150658 79.9874883,54.295199 L79.9874883,55.3108259 L79.0460336,56 L82.3049169,56 L81.3272516,55.3108259 L81.3272516,54.2226552 C81.3272516,53.6814715 81.2591206,53.2955327 80.7478951,52.9168485 L79.4081318,51.8286777 C78.917127,51.4761116 78.9243691,51.4383871 78.647725,51.2483205 C78.647725,51.2483205 79.7296751,51.2962 80.2409572,51.2845936 C82.329541,51.3194152 83.2854798,50.8057985 83.5722615,50.1964229 C83.6345994,50.0687426 83.6866272,49.9265555 83.7171012,49.7611531 L84.2964578,49.7611531 L84.2964578,51.2483205 L86.6138863,51.2483205 L85.6724316,50.5591464 L85.6724316,49.217069 L83.7895199,49.217069 L83.7895199,48.7817993 C83.7475753,48.1085858 83.6997192,48.009924 83.536051,47.6936286 C83.0551861,46.8129365 81.6140333,46.496641 79.9874883,46.496641 L79.9874883,46.496641 Z M91.6108416,46.496641 L89.3296235,47.1858151 L90.2710782,47.8749915 C88.8791736,47.8749915 87.4351254,48.4437423 87.3742931,49.7611531 C87.3221495,51.0161776 88.236087,51.6487685 89.4744609,51.6835902 L88.0984894,52.1551306 C87.3829818,52.4366044 86.8673553,52.7485457 86.8673553,53.9687485 L86.8673553,55.3108259 L85.9259006,56 L89.1847838,56 L88.2433291,55.3108259 L88.2433291,54.0775653 C88.2433291,53.6887261 88.1724161,53.3796852 88.7864751,53.1707552 C88.7864751,53.1707552 90.9909302,52.4017827 91.1039037,52.3727643 C92.1786117,52.4511113 93.0954446,52.512051 93.0954446,53.7148417 L93.0954446,55.3108259 L92.1539876,56 L95.4128732,56 L94.4714161,55.3108259 L94.4714161,53.7148417 C94.4714161,52.1696398 93.3387737,51.9621612 92.4074565,51.8649508 C92.5291234,51.8214231 92.8752884,51.6864906 92.9868154,51.6473171 C94.2150518,51.1960892 94.5134199,50.6781183 94.5438372,49.7974262 L94.5438372,49.7611531 L95.0869832,49.7611531 L95.0869832,51.2483205 L97.3682036,51.2483205 L96.4267465,50.5591464 L96.4267465,49.217069 L94.4714161,49.217069 C94.2773329,48.5322467 93.5864494,47.9083618 91.6108416,47.8749915 L91.6108416,46.496641 Z M101.894429,46.496641 C100.409828,46.496641 98.8267336,46.9986513 98.3458688,48.1288983 C98.2444793,48.3610412 98.1488854,48.6280057 98.128608,48.8906161 C98.1390315,49.6682969 97.9634932,50.8580299 98.9252253,51.6110441 L101.894429,54.0050192 L97.585462,54.3677451 L97.585462,55.3108259 L96.6440073,56 L99.86668,56 L98.9252253,55.3108259 L98.9252253,54.8030125 L103.813608,54.3677451 L103.813608,53.8236586 L100.590876,51.2483205 C100.590876,51.2483205 101.661297,51.2962 102.184109,51.2845936 C104.261103,51.3179638 105.238712,50.8057985 105.515413,50.1964229 C105.679138,49.8569122 105.763145,49.4259966 105.732671,48.7817993 C105.700226,48.1085858 105.65272,48.009924 105.479143,47.6936286 C105.008475,46.8129365 103.521033,46.496641 101.894429,46.496641 Z M51.2731016,47.0407275 C52.6143139,47.0262136 53.6470181,47.3280046 53.6267407,48.6729824 L53.6267407,49.1807959 C53.6163172,49.9076944 53.331268,50.4982091 52.2869774,50.5954171 C50.9254877,50.7042363 50.4909709,50.7318034 49.4264028,50.6316902 C48.8528371,50.5199706 48.9455356,49.5406191 48.9556731,49.217069 L48.9556731,48.7817993 C48.9759529,47.6457491 49.881197,47.052334 51.2731016,47.0407275 L51.2731016,47.0407275 Z M79.9874883,47.0407275 C81.3272516,47.0247693 82.3251943,47.3280046 82.3049169,48.6729824 L82.3049169,49.1807959 C82.2944933,49.9076944 82.0094466,50.4967577 80.9651535,50.5954171 C79.6138038,50.7027849 79.2039087,50.7318034 78.1407895,50.6316902 C77.5773637,50.5185215 77.6497823,49.5406191 77.6700598,49.217069 L77.6700598,48.7817993 C77.6816415,47.6457491 78.6042747,47.0508826 79.9874883,47.0407275 L79.9874883,47.0407275 Z M101.894429,47.0407275 C103.234252,47.0262136 104.268405,47.3294536 104.248127,48.6729824 L104.248127,49.1807959 C104.248127,49.9076944 103.942458,50.4982091 102.908305,50.5954171 C101.546815,50.7042363 101.14845,50.7318034 100.083938,50.6316902 C99.520515,50.5199706 99.6030735,49.5406191 99.6132111,49.217069 L99.6132111,48.7817993 C99.6236346,47.6457491 100.512664,47.052334 101.894429,47.0407275 L101.894429,47.0407275 Z M90.959064,48.382805 C92.8014208,48.3450805 93.1519302,48.9472016 93.1316528,49.5797925 C93.1212293,49.9860414 93.1270201,50.3690798 92.2264086,50.7042363 C92.0526005,50.7695255 91.3617169,51.0118258 90.7780161,51.2120474 C89.2629957,51.1757767 88.8226857,50.930576 88.8226857,49.7248824 C88.8226857,48.5351471 90.201555,48.4002146 90.959064,48.382805 L90.959064,48.382805 Z" id="path74" fill="#C52528"></path>
                <path d="M99.8432164,26.5805013 C107.222777,24.6986915 125.698475,14.7528103 128.441732,12.9841699 C129.793082,12.1412002 131.287825,12.6417588 128.902322,16.5374105 C127.275777,18.9313865 126.159065,20.3242451 121.81968,21.6416582 C118.840337,22.7719052 107.776063,25.9972437 100.027162,26.9345213 C99.4535988,26.9824008 99.2696531,26.7705703 99.8432164,26.5805013" id="path78" fill="#FFC92D"></path>
                <path d="M100.58016,26.0597768 C107.018265,23.79638 121.041603,16.4026224 125.8213,13.464561 C129.261231,11.3680184 131.921929,9.81846304 132.956083,7.19089317 C135.176468,1.18709149 133.477505,-1.25621475 131.368643,0.618340917 C128.67753,3.2415583 115.995402,16.5636717 99.7719559,25.9291961 C99.5257291,26.0699319 99.4953118,26.3949333 100.58016,26.0597768" id="path82" fill="#5E8F4D"></path>
            </g>
        </g>
    </g>
</svg>