<?xml version="1.0" encoding="UTF-8"?>
<svg width="352px" height="72px" viewBox="0 0 352 72" version="1.1" xmlns="http://www.w3.org/2000/svg" xmlns:xlink="http://www.w3.org/1999/xlink">
    <title>Frontier</title>
    <g id="Taskboard" stroke="none" stroke-width="1" fill="none" fill-rule="evenodd">
        <g id="Frontier">
            <rect id="Rectangle" fill="#FFFFFF" x="0" y="0" width="352" height="72"></rect>
            <g id="frontier_logo_white_notagline#006643" transform="translate(48.000000, 19.000000)" fill="#006643" fill-rule="nonzero">
                <g id="vs8ga-link" transform="translate(34.716120, 0.589333)">
                    <path d="M19.2639087,15.7533333 C23.4407989,15.7533333 26.1340942,14.0306667 26.1340942,11.22 C26.1340942,10.3133333 25.8601997,9.63333333 25.2895863,9.02133333 C24.5363766,8.27333333 23.1440799,7.888 21.1811698,7.888 L16.1597718,7.888 L13.9686163,15.7533333 L19.2639087,15.7533333 Z M8.99286733,0 L21.5920114,0 C27.1840228,0 30.8815977,1.224 33.0955777,3.44533333 C34.853067,5.168 35.6747504,7.52533333 35.6747504,10.132 C35.6747504,15.6173333 32.4336662,19.924 25.6319544,21.7373333 L30.7902996,32.7986667 L20.5192582,32.7986667 L16.0684736,22.848 L11.9600571,22.848 L9.24393723,32.7986667 L0,32.7986667 L8.99286733,0 Z" id="vs8ga"></path>
                </g>
                <g id="vs8gb-link" transform="translate(72.034237, 0.000000)">
                    <path d="M26.4536377,15.4133333 C26.4536377,11.2426667 23.8972896,8.16 19.149786,8.16 C13.3295292,8.16 9.49500713,13.736 9.49500713,18.6093333 C9.49500713,22.8026667 12.0513552,25.8626667 16.7988588,25.8626667 C22.6647646,25.8626667 26.4536377,20.2866667 26.4536377,15.4133333 Z M0,19.2666667 C0,9.29333333 8.30813124,0 19.9029957,0 C29.4436519,0 35.8801712,6.34666667 35.8801712,14.7333333 C35.8801712,24.7066667 27.5948645,34 15.9315264,34 C6.50499287,34 0,27.6306667 0,19.2666667 Z" id="vs8gb"></path>
                </g>
                <g id="vs8gc-link" transform="translate(107.161198, 0.589333)">
                    <polygon id="vs8gc" points="9.01569187 0 17.6890157 0 26.2938659 18.224 31.3152639 0 40.5592011 0 31.5663338 32.7986667 23.4636234 32.7986667 14.4022825 13.94 9.24393723 32.7986667 0 32.7986667"></polygon>
                </g>
                <g id="vs8gd-link" transform="translate(149.592011, 0.634667)">
                    <polygon id="vs8gd" points="10.042796 7.93333333 0 7.93333333 2.16833096 0 31.4522111 0 29.3295292 7.93333333 19.2867332 7.93333333 12.5078459 32.7533333 3.14978602 32.7533333"></polygon>
                </g>
                <g id="vs8ge-link" transform="translate(176.114123, 0.589333)">
                    <polygon id="vs8ge" points="8.99286733 0 18.3052782 0 9.28958631 32.7986667 0 32.7986667"></polygon>
                </g>
                <g id="vs8gf-link" transform="translate(189.580599, 0.589333)">
                    <polygon id="vs8gf" points="8.90156919 0 35.743224 0 33.5977175 7.70666667 16.0228245 7.70666667 14.6533524 12.6933333 30.6305278 12.6933333 28.6676177 19.8333333 12.6904422 19.8333333 11.275321 25.0466667 29.146933 25.0466667 27.0699001 32.7533333 0 32.7533333"></polygon>
                </g>
                <g id="vs8gg-link" transform="translate(220.370899, 0.589333)">
                    <path d="M19.2639087,15.7533333 C23.4407989,15.7533333 26.1112696,14.0306667 26.1112696,11.22 C26.1112696,10.3133333 25.8373752,9.63333333 25.2895863,9.02133333 C24.5135521,8.27333333 23.1440799,7.888 21.1583452,7.888 L16.1369472,7.888 L13.9457917,15.7533333 L19.2639087,15.7533333 Z M8.99286733,0 L21.5691869,0 C27.1611983,0 30.8587732,1.224 33.0727532,3.44533333 C34.8302425,5.168 35.6291013,7.52533333 35.6291013,10.132 C35.6291013,15.6173333 32.4336662,19.924 25.5863053,21.7373333 L30.7902996,32.7986667 L20.5649073,32.7986667 L16.1141227,22.848 L12.0057061,22.848 L9.24393723,32.7986667 L0,32.7986667 L8.99286733,0 Z" id="vs8gg"></path>
                </g>
                <g id="vs8gh-link" transform="translate(6.153671, 0.589333)">
                    <path d="M33.3327773,0 L6.9247887,0 C3.84347629,0 2.33705689,1.40533333 1.28712821,5.44 L0.00895417621,10.1773333 C-0.0366948965,10.3133333 0.100252322,10.404 0.23719954,10.3133333 C0.23719954,10.3133333 1.76644348,9.29333333 4.36844062,9.29333333 L26.7364863,9.29333333 C29.5439042,9.29333333 31.6209371,6.89066667 32.1915505,4.78266667 L33.4697245,0.136 C33.4697245,0.0906666667 33.4240754,0 33.3327773,0 Z" id="vs8gh"></path>
                </g>
                <g id="vs8gi-link" transform="translate(2.935411, 12.353333)">
                    <path d="M32.1459014,0 L6.9247887,0 C3.88912536,0 2.56530225,1.156 1.28712821,5.44 L0.00895417621,10.1093333 C-0.0366948965,10.268 0.100252322,10.336 0.23719954,10.268 C0.23719954,10.268 1.83491709,9.248 4.45973877,9.248 L25.0018215,9.248 C28.1972566,9.248 30.4340612,6.75466667 31.4155162,3.15066667 L32.2828486,0.0906666667 C32.3284977,0.0453333333 32.2371995,0 32.1459014,0 L32.1459014,0 Z" id="vs8gi"></path>
                </g>
                <g id="vs8gj-link" transform="translate(0.000000, 24.094667)">
                    <path d="M18.1455064,0 L6.64194009,0 C3.65192582,0 2.12268188,1.31466667 1.09557775,5.12266667 L0,9.15733333 C0,9.248 0.0456490728,9.29333333 0.136947218,9.29333333 L11.1383738,9.29333333 C13.9229672,9.29333333 16.2510699,7.57066667 17.3009986,3.808 L18.3052782,0.136 C18.3052782,0.0906666667 18.2368046,0 18.1455064,0 L18.1455064,0 Z" id="vs8gj"></path>
                </g>
            </g>
        </g>
    </g>
</svg>