<?xml version="1.0" encoding="UTF-8"?>
<svg width="352px" height="72px" viewBox="0 0 352 72" version="1.1" xmlns="http://www.w3.org/2000/svg" xmlns:xlink="http://www.w3.org/1999/xlink">
    <title>GOL</title>
    <g id="Taskboard" stroke="none" stroke-width="1" fill="none" fill-rule="evenodd">
        <g id="GOL">
            <rect id="Rectangle" fill="#FFFFFF" x="0" y="0" width="352" height="72"></rect>
            <g id="logo-gol" transform="translate(107.000000, 8.000000)" fill-rule="nonzero">
                <path d="M81.2091961,0 C79.4412752,0 77.7121161,0.164607192 76.0350503,0.477415354 C89.0313582,2.90440609 98.8682399,13.3156797 98.8682399,27.0119358 C98.8682399,36.7625439 90.9617204,45.6545599 81.2091961,45.6545599 C79.409011,45.6545599 77.6716739,45.3849759 76.0350503,44.8839999 C68.806863,42.6731199 63.5501522,35.9504319 63.5501522,28.0001118 C63.5501522,20.0492318 68.806863,13.3265437 76.0350503,11.1156077 C74.3989869,10.6152253 72.6616497,10.3450701 70.8609045,10.3450701 C61.1083802,10.3450701 53.2018606,19.2376798 53.2018606,28.9877278 C53.2018606,42.6845439 63.0393025,53.09584 76.0350503,55.522208 C77.7121161,55.835584 79.4412752,55.999664 81.2091961,55.999664 C93.2028494,55.999664 103.434071,48.461616 107.425533,37.8666399 L107.425533,18.1330238 C103.434071,7.53800292 93.2028494,0 81.2091961,0 Z" id="Path" fill="#C1BFBC"></path>
                <path d="M76.0350503,0.477591194 C74.3584326,0.164236472 72.6288254,0.000175592673 70.8609045,0.000175592673 C57.4236526,0.000175592673 46.196946,9.46098693 43.4804803,22.0827038 C43.3886169,22.5103198 43.0078322,22.8143998 42.5702491,22.8143998 L28.9405324,22.8143998 C28.4252015,22.8143998 28.0067753,23.2322718 28.0067753,23.7479198 L28.0067753,32.2178079 C28.0067753,32.7334559 28.4246414,33.1513279 28.9405324,33.1513279 L40.9133484,33.1513279 C41.4286793,33.1513279 41.8465454,33.5690879 41.8465454,34.0848479 L41.8465454,38.2880959 C41.8465454,38.7354239 41.6867928,39.1690879 41.3947347,39.5081119 C38.1564404,43.2705279 33.3608388,45.6532159 28.0067753,45.6532159 C18.2546991,45.6532159 10.3488181,37.7499359 10.3488181,27.9997758 C10.3488181,18.2502878 18.2546991,10.3463693 28.0067753,10.3463693 C30.7488955,10.3463693 33.3444826,10.9714413 35.6598865,12.0864797 C36.0985899,12.2975997 36.6253477,12.1450557 36.8742749,11.7266237 L41.2186259,4.4177725 C41.4920874,3.95730689 41.3247169,3.35848769 40.84882,3.11240129 C37.0017632,1.12453568 32.6360147,0.000175592673 28.0067753,0.000175592673 C12.5390078,0.000175592673 0,12.5360477 0,27.9997758 C0,43.4641759 12.5390078,56 28.0067753,56 C36.2260783,56 43.6178271,52.459568 48.7405519,46.8213759 C49.1136066,46.4106719 49.7546334,46.4106719 50.1276881,46.8213759 C55.2509729,52.459008 62.6416015,56 70.8609045,56 C72.6288254,56 74.3584326,55.83536 76.0350503,55.522544 C63.0393025,53.095616 53.2018606,42.6843199 53.2018606,28.9879518 C53.2018606,19.2373438 61.1082682,10.3452717 70.8609045,10.3452717 C72.6610896,10.3452717 74.3984267,10.6148781 76.0350503,11.1158093 C83.2632376,13.3267677 88.5199484,20.0494558 88.5199484,28.0003358 C88.5199484,35.9507679 83.2632376,42.6733439 76.0350503,44.8843359 C77.6716739,45.3847519 79.409011,45.6543359 81.2091961,45.6543359 C90.9617204,45.6543359 98.8682399,36.7623199 98.8682399,27.0121598 C98.8682399,13.3153437 89.0307981,2.90404769 76.0350503,0.477591194 Z M137.066803,44.8598079 L118.698619,44.8598079 C118.183288,44.8598079 117.765422,44.4419359 117.765422,43.9262879 L117.765422,1.73648128 C117.765422,1.22078848 117.347556,0.802974716 116.831105,0.802974716 L108.35929,0.802974716 C107.843511,0.802974716 107.425533,1.22078848 107.425533,1.73648128 L107.425533,53.330144 C107.425533,54.360992 108.261377,55.197184 109.292487,55.197184 L137.066803,55.197184 C137.582134,55.197184 138,54.778864 138,54.263664 L138,45.7926559 C138,45.2775679 137.582134,44.8598079 137.066803,44.8598079 Z" id="Shape" fill="#FF7020"></path>
            </g>
        </g>
    </g>
</svg>