<?xml version="1.0" encoding="UTF-8"?>
<svg width="352px" height="72px" viewBox="0 0 352 72" version="1.1" xmlns="http://www.w3.org/2000/svg" xmlns:xlink="http://www.w3.org/1999/xlink">
    <title>Icelandair-Login</title>
    <g id="Taskboard" stroke="none" stroke-width="1" fill="none" fill-rule="evenodd">
        <g id="Icelandair---Login" transform="translate(-785.000000, -303.000000)">
            <g id="Icelandair-Login" transform="translate(785.000000, 303.000000)">
                <rect id="Rectangle" fill="#FFFFFF" x="0" y="0" width="352" height="72"></rect>
                <g id="icelandairlogo" transform="translate(48.000000, 11.000000)" fill="#001B71" fill-rule="nonzero">
                    <polygon id="Path" points="101.532077 21.875 95.2720542 21.875 95.2720542 40.625 100.322471 40.625 100.322471 28.1875 100.397292 28.1 111.483268 40.625 115.935116 40.625 115.935116 21.875 110.8847 21.875 110.8847 32.325"></polygon>
                    <rect id="Rectangle" x="167.1002" y="21.875" width="5.68639486" height="18.7375"></rect>
                    <polygon id="Path" points="52.3871596 40.625 52.3871596 21.875 58.036144 21.875 58.036144 36.2 67.0396025 36.2 67.0396025 40.625"></polygon>
                    <rect id="Rectangle" x="0" y="21.875" width="5.78615617" height="18.7375"></rect>
                    <path d="M192.97579,33.5 C195.519704,32.5125 197.028594,30.8375 197.028594,27.7875 C197.028594,23.8875 193.886112,21.875 189.758488,21.875 L177.163622,21.875 L177.163622,40.625 L182.850017,40.625 L182.850017,33.9 L187.439037,33.9 L191.42949,40.6125 L197.415169,40.6125 L192.97579,33.5 Z M188.823226,30.3 L182.837547,30.3 L182.837547,25.5625 L188.523942,25.5625 C191.005504,25.5625 191.678893,26.6625 191.678893,27.9625 C191.678893,29.45 190.593989,30.3 188.823226,30.3 L188.823226,30.3 Z" id="Shape"></path>
                    <path d="M130.063812,21.875 L120.299674,21.875 L120.299674,40.625 L130.176044,40.625 C137.271567,40.625 140.613571,36.5875 140.613571,31.25 C140.613571,25.4375 136.972283,21.875 130.063812,21.875 Z M129.353013,36.4750642 L125.961128,36.4750642 L125.961128,25.95 L129.365483,25.95 C133.156413,25.95 134.827415,27.5625 134.827415,31.2375 C134.827415,34.675 133.468167,36.4875 129.353013,36.4750642 L129.353013,36.4750642 Z" id="Shape"></path>
                    <path d="M156.163866,21.875 L149.754201,21.875 L141.349311,40.625 L146.674071,40.625 L148.295192,37.025 L157.660285,37.025 L159.268937,40.625 L164.606167,40.625 L156.163866,21.875 Z M149.916314,33.425 L152.983974,25.9 L156.051634,33.425 L149.916314,33.425 Z" id="Shape"></path>
                    <path d="M84.3357202,21.875 L77.9260558,21.875 L69.5211652,40.625 L74.8459253,40.625 L76.4670466,37.025 L85.8321399,37.025 L87.4407911,40.625 L92.7780213,40.625 L84.3357202,21.875 Z M78.0756978,33.425 L81.1558283,25.9 L84.2234887,33.425 L78.0756978,33.425 Z" id="Shape"></path>
                    <polygon id="Path" points="30.7888353 40.625 30.7888353 21.875 48.3218861 21.875 48.3218861 25.7625 36.4253495 25.7625 36.4253495 29.1875 45.2043451 29.1875 45.2043451 33.05 36.4253495 33.05 36.4253495 36.65 48.3967071 36.65 48.3967071 40.625"></polygon>
                    <path d="M24.765746,34.1875 C23.6434312,35.7875 21.6731453,36.525 19.5532174,36.525 C16.3982659,36.525 14.4030396,34.15 14.4030396,31.225 C14.4030396,28.3 16.3982659,25.9625 19.5532174,25.9625 C21.498563,25.9625 23.5436699,26.7625 24.7283355,28.325 C24.7408057,28.35 27.7087048,24.95 27.7087048,24.95 C25.6261873,22.8375 22.6582883,21.425 19.5532174,21.425 C13.6672999,21.425 9.27780213,25.825 9.27780213,31.25 C9.27780213,36.675 13.6672999,41.075 19.5532174,41.075 C22.7580496,41.075 25.601247,39.6625 27.6837644,37.5 C27.6837644,37.5 24.7782162,34.175 24.765746,34.1875 Z" id="Path"></path>
                    <path d="M241.360027,0 L197.402699,50 L240.512056,50 L256,0 L241.360027,0 Z M224.84953,40.575 C224.151201,40.6625 223.452872,40.7 222.754542,40.6875 C221.682108,40.675 221.008719,40.5375 220.497443,40.3375 C220.060987,40.1625 219.674412,39.6875 219.811584,39.325 C219.936285,39.05 220.135808,38.8125 220.410151,38.6625 C221.669638,37.85 223.939208,37.425 226.445711,37.2625 C226.221248,37.75 224.84953,40.575 224.84953,40.575 Z M238.192606,34.0125 C236.371962,36.1625 234.576258,36.3125 231.034731,35.9875 C221.731989,35.1625 219.936285,37.7375 219.637001,38.0625 C219.699352,37.825 219.774173,37.5875 219.886405,37.375 C220.472502,36.0375 221.183302,34.55 221.981392,32.775 C222.430318,31.85 222.679721,31.8125 223.091237,31.5125 C224.774709,30.4 227.480735,29.3625 231.084612,29.675 C233.740757,29.9125 234.900482,30.45 236.534074,30.5375 C237.232403,30.5875 237.930732,30.55 238.616591,30.425 C240.362414,30.05 240.81134,29.525 240.81134,29.525 C240.81134,29.525 239.564324,32.25 238.192606,34.0125 Z M240.325004,28.375 C239.751376,28.7125 239.003166,29.0375 237.556627,29.0875 C235.960446,29.1375 234.987773,28.7875 233.22948,28.5 C230.822739,28.1125 228.490818,27.9625 225.971845,28.7625 C224.899411,29.1 223.889327,29.6375 223.003946,30.3375 C223.003946,30.3375 224.862,26.15 225.348336,25.075 C226.146427,23.4375 228.802572,22.2625 232.294218,22.3 C235.436699,22.3375 236.845828,23.15 239.427152,23.1875 C243.280433,23.175 244.552389,21.8875 244.552389,21.8875 C244.327926,22.3625 243.155731,24.825 242.607044,25.875 C241.696722,27.3 241.048273,27.95 240.325004,28.375 Z" id="Shape"></path>
                </g>
            </g>
        </g>
    </g>
</svg>