<?xml version="1.0" encoding="UTF-8"?>
<svg width="352px" height="72px" viewBox="0 0 352 72" version="1.1" xmlns="http://www.w3.org/2000/svg" xmlns:xlink="http://www.w3.org/1999/xlink">
    <title>Indigo-Login</title>
    <g id="Page-1" stroke="none" stroke-width="1" fill="none" fill-rule="evenodd">
        <g id="Prototype---Login-Copy-3" transform="translate(-785.000000, -303.000000)">
            <g id="Indigo-Login" transform="translate(785.000000, 303.000000)">
                <rect id="Rectangle" fill="#FFFFFF" x="0" y="0" width="352" height="72"></rect>
                <g id="icIndigoLogoWhiteR-new" transform="translate(48.000000, 10.000000)" fill="#001B94" fill-rule="nonzero">
                    <path d="M246.450893,18.0411792 C246.450893,19.2132616 245.500354,20.1632653 244.329232,20.1632653 C243.157385,20.1632653 242.206846,19.2132616 242.206846,18.0411792 C242.206846,16.8690968 243.157385,15.9183674 244.329232,15.9183674 C245.500354,15.9183674 246.450893,16.8690968 246.450893,18.0411792 Z M240.084823,11.6731065 C240.084823,12.8451889 239.134286,13.7959184 237.962436,13.7959184 C236.790589,13.7959184 235.840778,12.8451889 235.840778,11.6731065 C235.840778,10.5017498 236.790589,9.55102042 237.962436,9.55102042 C239.134286,9.55102042 240.084823,10.5017498 240.084823,11.6731065 Z M246.450893,11.6731065 C246.450893,12.8451889 245.500354,13.7959184 244.329232,13.7959184 C243.157385,13.7959184 242.206846,12.8451889 242.206846,11.6731065 C242.206846,10.5017498 243.157385,9.55102042 244.329232,9.55102042 C245.500354,9.55102042 246.450893,10.5017498 246.450893,11.6731065 Z M233.718754,11.6731065 C233.718754,12.8451889 232.768215,13.7959184 231.597094,13.7959184 C230.425246,13.7959184 229.474707,12.8451889 229.474707,11.6731065 C229.474707,10.5017498 230.425246,9.55102042 231.597094,9.55102042 C232.768215,9.55102042 233.718754,10.5017498 233.718754,11.6731065 Z M250.073384,4.86658052 C250.902126,5.69549064 250.902126,7.03902178 250.073384,7.86865773 C249.244639,8.69684199 247.901378,8.69684199 247.071908,7.86865773 C246.243891,7.03902178 246.243891,5.69549064 247.071908,4.86658052 C247.901378,4.03767043 249.244639,4.03767043 250.073384,4.86658052 Z M255.378441,0.621682573 C256.207186,1.45059267 256.207186,2.79412382 255.378441,3.62375977 C254.549697,4.45194403 253.206435,4.45194403 252.376965,3.62375977 C251.548948,2.79412382 251.548948,1.45059267 252.376965,0.621682573 C253.206435,-0.207227524 254.549697,-0.207227524 255.378441,0.621682573 Z M226.291671,11.6731065 C226.291671,12.8451889 225.341133,13.7959184 224.169285,13.7959184 C222.997438,13.7959184 222.047624,12.8451889 222.047624,11.6731065 C222.047624,10.5017498 222.997438,9.55102042 224.169285,9.55102042 C225.341133,9.55102042 226.291671,10.5017498 226.291671,11.6731065 Z M219.925601,11.6731065 C219.925601,12.8451889 218.975788,13.7959184 217.80394,13.7959184 C216.632093,13.7959184 215.681554,12.8451889 215.681554,11.6731065 C215.681554,10.5017498 216.632093,9.55102042 217.80394,9.55102042 C218.975788,9.55102042 219.925601,10.5017498 219.925601,11.6731065 Z M244.329232,22.2857143 C245.500354,22.2857143 246.450893,23.2364437 246.450893,24.4078005 C246.450893,25.5798827 245.500354,26.5306123 244.329232,26.5306123 C243.157385,26.5306123 242.206846,25.5798827 242.206846,24.4078005 C242.206846,23.2364437 243.157385,22.2857143 244.329232,22.2857143 Z M220.986613,43.5098413 C220.986613,44.6819236 220.036074,45.6326531 218.864226,45.6326531 C217.693105,45.6326531 216.742566,44.6819236 216.742566,43.5098413 C216.742566,42.3377588 217.693105,41.387755 218.864226,41.387755 C220.036074,41.387755 220.986613,42.3377588 220.986613,43.5098413 Z M214.620542,37.1432199 C214.620542,38.3145767 213.670729,39.265306 212.498882,39.265306 C211.327034,39.265306 210.376496,38.3145767 210.376496,37.1432199 C210.376496,35.9711377 211.327034,35.0204081 212.498882,35.0204081 C213.670729,35.0204081 214.620542,35.9711377 214.620542,37.1432199 Z M220.986613,37.1432199 C220.986613,38.3145767 220.036074,39.265306 218.864226,39.265306 C217.693105,39.265306 216.742566,38.3145767 216.742566,37.1432199 C216.742566,35.9711377 217.693105,35.0204081 218.864226,35.0204081 C220.036074,35.0204081 220.986613,35.9711377 220.986613,37.1432199 Z M208.254472,37.1432199 C208.254472,38.3145767 207.303933,39.265306 206.132086,39.265306 C204.960964,39.265306 204.010425,38.3145767 204.010425,37.1432199 C204.010425,35.9711377 204.960964,35.0204081 206.132086,35.0204081 C207.303933,35.0204081 208.254472,35.9711377 208.254472,37.1432199 Z M218.864226,47.7551021 C220.036074,47.7551021 220.986613,48.7058314 220.986613,49.8779139 C220.986613,51.0492707 220.036074,52 218.864226,52 C217.693105,52 216.742566,51.0492707 216.742566,49.8779139 C216.742566,48.7058314 217.693105,47.7551021 218.864226,47.7551021 Z M244.329232,28.6530613 C245.500354,28.6530613 246.450893,29.6037906 246.450893,30.7758731 C246.450893,31.9479556 245.500354,32.8979592 244.329232,32.8979592 C243.157385,32.8979592 242.206846,31.9479556 242.206846,30.7758731 C242.206846,29.6037906 243.157385,28.6530613 244.329232,28.6530613 Z M244.329232,36.0816327 C245.500354,36.0816327 246.450893,37.0316363 246.450893,38.2037188 C246.450893,39.3758013 245.500354,40.3265306 244.329232,40.3265306 C243.157385,40.3265306 242.206846,39.3758013 242.206846,38.2037188 C242.206846,37.0316363 243.157385,36.0816327 244.329232,36.0816327 Z M230.535718,27.5921995 C230.535718,28.764282 229.585179,29.7142856 228.413332,29.7142856 C227.241485,29.7142856 226.291671,28.764282 226.291671,27.5921995 C226.291671,26.4201173 227.241485,25.4693877 228.413332,25.4693877 C229.585179,25.4693877 230.535718,26.4201173 230.535718,27.5921995 Z M234.158286,20.7848682 C234.986924,21.6143977 234.986924,22.9577565 234.158286,23.7865603 C233.328924,24.6153641 231.985833,24.6153641 231.157197,23.7865603 C230.328559,22.9577565 230.328559,21.6143977 231.157197,20.7848682 C231.985833,19.9560643 233.328924,19.9560643 234.158286,20.7848682 Z M239.463346,16.5399702 C240.291984,17.3694997 240.291984,18.7128586 239.463346,19.5416624 C238.633982,20.3704663 237.290893,20.3704663 236.462255,19.5416624 C235.633617,18.7128586 235.633617,17.3694997 236.462255,16.5399702 C237.290893,15.7111664 238.633982,15.7111664 239.463346,16.5399702 Z M225.670113,30.3359682 C226.498857,31.1656043 226.498857,32.5091355 225.670113,33.3380456 C224.840644,34.1662297 223.497382,34.1662297 222.668638,33.3380456 C221.84062,32.5091355 221.84062,31.1656043 222.668638,30.3359682 C223.497382,29.5070582 224.840644,29.5070582 225.670113,30.3359682 Z M141.771224,45.7205107 C136.83962,49.9080122 131.034539,52 124.368965,52 C117.215896,52 111.021292,49.4943158 105.804037,44.4935246 C100.631636,39.4410215 98.0407145,33.293163 98.0407145,26.0746299 C98.0407145,18.8549215 100.630456,12.7047124 105.802856,7.65220929 C111.018931,2.55622104 117.213535,0 124.367784,0 C128.604148,0 132.323508,0.693411685 135.528224,2.09668889 C138.73176,3.44707876 141.962445,5.75766753 145.224999,9.00847552 L145.491764,9.27408748 L140.479895,14.6591931 L140.193064,14.4206125 C137.006053,11.768019 134.556776,9.98982936 132.829888,9.0601876 C130.269656,7.71684935 127.453283,7.04224205 124.368965,7.04341734 C119.044296,7.04224205 114.621433,8.89917505 111.08031,12.6118657 C107.530925,16.3327834 105.758002,20.8105775 105.756822,26.0746299 C105.758002,31.2869702 107.528564,35.7424342 111.08031,39.4621765 C114.621433,43.1772177 119.043116,45.0306249 124.367784,45.0306249 C129.289945,45.0318001 133.43542,43.6120692 136.836079,40.7843599 C140.360677,37.860278 142.16783,34.1146796 142.26344,29.5240592 L124.903674,29.5240592 L124.903674,22.5511583 L150.056272,22.549983 L150.057452,27.1394283 C150.056272,34.8339474 147.298917,41.0405695 141.771224,45.7205107 Z M185.073258,46.772381 C181.522692,50.160696 177.255638,51.8589672 172.295705,51.8589672 C167.385348,51.8589672 163.143082,50.1595208 159.592516,46.772381 C156.033688,43.3734885 154.254863,39.0484801 154.254863,33.8255623 C154.254863,28.6543565 156.0089,24.3540286 159.519333,20.9563115 C163.069899,17.5162843 167.336952,15.7933326 172.295705,15.7933326 C177.210784,15.7933326 181.450689,17.5151091 185.001255,20.9539609 C188.608479,24.3505028 190.40973,28.6508307 190.40973,33.8267375 C190.40973,39.0484801 188.634447,43.3723133 185.073258,46.772381 Z M180.014173,25.6327269 C177.999274,23.5336875 175.436681,22.4806419 172.295705,22.4806419 C169.108694,22.4806419 166.522494,23.5336875 164.507595,25.6327269 C162.541091,27.678879 161.543675,30.3984632 161.543675,33.8267375 C161.543675,37.2056502 162.563519,39.9240592 164.578418,42.0230987 C166.595677,44.1221381 169.15709,45.1740084 172.295705,45.1740084 C175.436681,45.1740084 177.998094,44.1221381 180.014173,42.0230987 C182.030252,39.9240592 183.050096,37.204475 183.050096,33.8267375 C183.050096,30.4513503 182.030252,27.730591 180.014173,25.6327269 Z M92.7337514,12.184066 C92.0184444,12.9973556 90.9690916,13.3757939 89.6588762,13.3746241 C88.4277458,13.3757939 87.3854751,12.9785512 86.5875421,12.184066 C85.8533491,11.3507967 85.4791704,10.3459374 85.4791704,9.21297321 C85.4791704,8.07883377 85.846267,7.10218105 86.5863617,6.31474742 C87.3429815,5.50498362 88.3852522,5.12184427 89.6600565,5.12184427 C90.894728,5.12184427 91.9110304,5.53436547 92.662929,6.38408861 C93.4419759,7.16682112 93.8397622,8.11526727 93.8397622,9.21297321 C93.8397622,10.3882473 93.4762068,11.3884055 92.7337514,12.184066 Z M86.123655,51.1491016 L86.123655,16.5043734 L93.1964582,16.5043734 L93.1964582,51.1491016 L86.123655,51.1491016 Z M76.3159243,46.613719 C73.0439267,50.1136851 68.8170059,51.8589672 63.668213,51.8589672 C58.2302283,51.8589672 53.8097263,49.9949824 50.4421183,46.2517346 C47.2728129,42.7094587 45.6970133,38.2727992 45.6970133,32.9711381 C45.6970133,28.1807211 47.3318318,24.1189739 50.5979276,20.8199797 C53.9088776,17.4739745 57.8654925,15.7933326 62.4524273,15.7933326 C66.0844392,15.7933326 69.3670604,16.5901684 72.2873066,18.1885411 L72.4915113,18.3013674 L72.4915113,25.8160697 L71.8777167,25.4000226 C70.7185891,24.6172902 69.3387315,23.9403322 67.7464063,23.3785514 C66.2071982,22.7779862 64.7978312,22.4806419 63.5242072,22.4806419 C60.2321431,22.4806419 57.6270569,23.5160583 55.6640945,25.5610352 C53.6975906,27.6107131 52.7013547,30.325596 52.7013547,33.756221 C52.7013547,37.1327833 53.7176571,39.8782235 55.7372775,42.0242739 C57.7993916,44.1221381 60.4316266,45.1740084 63.6670327,45.1740084 C66.6958732,45.1740084 69.1852828,44.0351679 71.1600491,41.7516103 C73.1690463,39.4762798 74.2054149,36.1432025 74.2054149,31.6924398 L74.2054149,0.853248954 L81.2782181,0.853248954 L81.2782181,32.830105 C81.2782181,38.4584926 79.6339566,43.0679173 76.3159243,46.613719 Z M34.4232578,51.1479264 L34.4232578,30.981399 C34.4232578,28.5109731 33.6418498,26.4977286 32.0991005,24.9181603 C30.6047466,23.2927563 28.7527393,22.4806419 26.5277336,22.4806419 C24.4030597,22.4806419 22.5498719,23.2857047 20.9504646,24.9228614 C19.4100761,26.5012545 18.6333898,28.5109731 18.6333898,30.981399 L18.6333898,51.1479264 L11.631409,51.1479264 L11.631409,30.981399 C11.631409,26.5306363 13.0195293,22.8708329 15.8146558,20.0360719 C18.6133234,17.2013109 22.1945792,15.7933326 26.5277336,15.7933326 C30.8160336,15.7933326 34.396109,17.2036614 37.2372701,20.0348966 C40.0831528,22.867307 41.496061,26.5294611 41.4972413,30.981399 L41.496061,51.1479264 L34.4232578,51.1479264 Z M0,51.1479264 L0,0.853248954 L7.42927626,0.853248954 L7.43045665,51.1479264 L0,51.1479264 Z" id="Combined-Shape"></path>
                </g>
            </g>
        </g>
    </g>
</svg>