<?xml version="1.0" encoding="UTF-8"?>
<svg width="352px" height="72px" viewBox="0 0 352 72" version="1.1" xmlns="http://www.w3.org/2000/svg" xmlns:xlink="http://www.w3.org/1999/xlink">
    <title>Japan</title>
    <g id="Taskboard" stroke="none" stroke-width="1" fill="none" fill-rule="evenodd">
        <g id="Japan">
            <rect id="Rectangle" fill="#FFFFFF" x="0" y="0" width="352" height="72"></rect>
            <g id="Group-5" transform="translate(48.000000, 24.000000)" fill-rule="nonzero">
                <g id="logo">
                    <path d="M254.398783,14.4022355 C253.163678,17.4208382 248.899361,18.3544141 244.296668,18.3544141 C239.693975,18.3544141 236.73658,17.4153609 237.423684,14.4022355 L243.274423,14.4022355 C243.123027,15.2098335 243.64256,15.7222656 245.372614,15.7222656 C247.102667,15.7222656 248.219374,15.1958359 248.542869,14.4022355 C249.34902,12.4316235 237.769177,14.3571999 239.614395,9.84572778 C240.645699,7.3188652 244.709448,6.13333333 249.292085,6.13333333 C253.874721,6.13333333 256.473683,7.0638663 255.92827,9.84207624 L250.18752,9.84207624 C250.278746,9.09898876 250.035477,8.53604371 248.311246,8.53604371 C246.587016,8.53604371 245.658584,9.10994337 245.357733,9.8445106 C244.535408,11.8583324 256.236884,9.89928363 254.398783,14.4010183 M151.966544,18.0129956 L146.116452,18.0129956 L150.825252,6.48509792 L156.677284,6.48509792 L151.966544,18.0129956 Z M196.238834,18.0129956 L190.387449,18.0129956 L195.096895,6.48509792 L200.948928,6.48509792 L196.238834,18.0129956 Z M233.944167,18.0129956 L219.717485,18.0129956 L224.424991,6.48509792 L238.65879,6.48509792 L237.753003,8.69731986 L229.374471,8.69731986 L228.424688,11.0263909 L235.392133,11.0263909 L234.490228,13.2367871 L227.520195,13.2367871 L226.567825,15.5731612 L234.942474,15.5731612 L233.944167,18.0129956 Z M117.640444,18.0129956 L112.905764,18.0129956 L108.937122,11.2028818 L106.155062,18.0129956 L101.432029,18.0129956 L106.144063,6.48509792 L111.643485,6.48509792 L115.148235,12.5429953 L117.624269,6.48509792 L122.35636,6.48509792 L117.640444,18.0129956 Z M216.085926,18.0129956 L211.355776,18.0129956 L207.383252,11.2028818 L204.601191,18.0129956 L199.878158,18.0129956 L204.58631,6.48509792 L210.085732,6.48509792 L213.591776,12.5429953 L216.066516,6.48509792 L220.799901,6.48509792 L216.085926,18.0129956 Z M46.5672037,14.1545397 C44.9639603,18.0738545 41.0147281,18.3994497 38.1983769,18.3994497 C36.8324783,18.4095729 35.4694571,18.2799936 34.1333333,18.0129956 L35.1303462,15.5676839 C37.8121234,15.8598068 40.1063529,15.6401061 41.0037293,13.4449246 L43.850489,6.48509792 L49.7038154,6.48509792 L46.5672037,14.1545397 M79.7300141,6.4863151 L70.6287937,6.4863151 L65.9180533,18.0129956 L71.7707326,18.0129956 L73.4820234,13.8259015 L76.7344465,13.8259015 C82.143937,13.8259015 85.0573369,12.4675303 86.0006495,10.1573255 C86.9439622,7.84712067 85.1446806,6.48266356 79.7300141,6.48266356 M80.1466763,10.1573255 C79.6797052,11.0586403 78.702199,11.6259734 77.6363517,11.6142881 L74.3852227,11.6142881 L75.5769798,8.69305973 L78.8339318,8.69305973 C79.9008197,8.69305973 80.4921694,9.31747231 80.1466763,10.1573255 M169.412005,6.48266356 L160.308197,6.48266356 L155.59875,18.0129956 L161.448842,18.0129956 L163.160132,13.8283359 L164.929005,13.8283359 L166.085825,18.0129956 L172.471625,18.0129956 L170.910436,13.4065835 C173.498399,12.8424213 175.040826,11.7201827 175.679406,10.1597598 C176.622071,7.84712067 174.821496,6.48509792 169.409417,6.48509792 M169.825432,10.1597598 C169.357672,11.0612597 168.379536,11.6285196 167.313167,11.6167225 L164.063979,11.6167225 L165.256383,8.69549409 L168.511394,8.69549409 C169.576341,8.69549409 170.168984,9.31990666 169.825432,10.1597598 M182.228894,15.5701183 L185.948444,6.48509792 L180.095765,6.48509792 L175.385672,18.0129956 L188.672276,18.0129956 L189.670583,15.5701183 L182.230188,15.5701183 L182.228894,15.5701183 Z M63.2634498,6.48509792 L58.0305877,6.48509792 C57.3311671,6.52274877 56.6795584,6.83119818 56.2306591,7.33712288 L46.4255127,18.0129956 L51.2591814,18.0129956 L53.2092118,15.7447834 L58.4912452,15.7447834 L58.5844119,18.0129956 L64.4370912,18.0129956 L63.2634498,6.48509792 M55.107483,13.5289099 L58.2576815,9.84329342 L58.4019605,13.5289099 L55.107483,13.5289099 Z M98.7690142,6.48570651 L93.53874,6.48570651 C92.8392785,6.5232133 92.1876122,6.83168995 91.7388115,7.33773147 L81.932371,18.0129956 L86.7653927,18.0129956 L88.7134822,15.7447834 L93.9987505,15.7447834 L94.0925642,18.0129956 L99.9439496,18.0129956 L98.7716021,6.48509792 M90.6195173,13.5283014 L93.7703628,9.84268483 L93.9159357,13.5283014 L90.6162823,13.5283014 L90.6195173,13.5283014 Z M143.454085,6.48509792 L138.220576,6.48509792 C137.520819,6.5228504 136.86885,6.83124884 136.419353,7.33712288 L126.615501,18.0129956 L131.452404,18.0129956 L133.398553,15.7447834 L138.684468,15.7447834 L138.776988,18.0129956 L144.629667,18.0129956 L143.454085,6.48509792 M135.302,13.5283014 L138.451552,9.84268483 L138.596477,13.5283014 L135.302,13.5283014 L135.302,13.5283014 Z" id="Shape" fill="#000000"></path>
                    <path d="M23.2284354,12.5138267 C23.3027649,11.665761 23.2834958,10.8122028 23.1709693,9.96826987 C23.1709693,9.95357045 23.1535358,9.95357045 23.1503074,9.96826987 C22.7768989,11.5146271 21.8729681,12.8848266 20.5927449,13.8450833 C20.586861,13.8498484 20.5781885,13.84899 20.5733744,13.843166 C20.5685602,13.837342 20.5694275,13.8287579 20.5753114,13.8239928 C21.933017,12.4315707 22.7618744,10.6168683 22.9210888,8.68814172 C22.665255,7.67487268 22.2686851,6.70161785 21.7427118,5.79618972 C21.7349636,5.78468582 21.7214042,5.78724224 21.7246326,5.80194166 C22.0425112,8.11963548 21.3048089,10.4574415 19.7107378,12.1840484 C19.7057454,12.1905783 19.6963502,12.1918659 19.689753,12.1869243 C19.6831559,12.1819828 19.681855,12.1726833 19.6868474,12.1661534 C21.2310001,9.98539468 21.7120413,7.23658476 20.9988815,4.66880776 C18.8017456,1.73209382 15.3283454,0 11.6364338,0 C7.94452217,0 4.47112198,1.73209382 2.2739861,4.66880776 C1.56147269,7.23644495 2.04196187,9.98480547 3.58472878,12.1661534 C3.58952591,12.1699094 3.59150584,12.1761924 3.58971668,12.1819818 C3.58792752,12.1877712 3.58273528,12.1918826 3.57663619,12.1923395 C3.5705371,12.1927964 3.56477884,12.1895053 3.56212977,12.1840484 C1.96708914,10.4580362 1.22965393,8.11957733 1.54952636,5.80194166 C1.54952636,5.78724224 1.53725832,5.78404671 1.53144715,5.79618972 C1.00441147,6.70162202 0.606345677,7.67481523 0.34855031,8.68814172 C0.510726407,10.6170532 1.33989702,12.4316208 2.69626478,13.8259102 C2.70078483,13.830681 2.70117232,13.8379821 2.69718216,13.8431954 C2.693192,13.8484088 2.68598624,13.8500161 2.68012263,13.8470006 C1.3991895,12.8855083 0.494842221,11.514014 0.121268821,9.96635256 C0.121268821,9.95165313 0.103189612,9.95165313 0.10189824,9.96635256 C-0.010823211,10.8102707 -0.0300928007,11.6638499 0.0444321818,12.5119094 C0.466315615,13.6923768 1.2024951,14.7381381 2.17519614,15.5387127 C2.18126986,15.5430605 2.18311816,15.5512067 2.17950587,15.5577076 C2.17589358,15.5642084 2.16795321,15.5670258 2.16099104,15.5642769 C1.41759115,15.1282413 0.772221369,14.546216 0.264611124,13.8540308 C0.257508577,13.843166 0.245886228,13.8476397 0.248468973,13.8591436 C1.38591891,19.1874103 6.13670508,23 11.6386937,23 C17.1406823,23 21.8914685,19.1874103 23.0289184,13.8591436 C23.0289184,13.8476397 23.0211702,13.843166 23.0140676,13.8540308 C22.5056886,14.5462317 21.8596858,15.1282334 21.1157506,15.5642769 C21.1087885,15.5670258 21.1008481,15.5642084 21.0972358,15.5577076 C21.0936235,15.5512067 21.0954718,15.5430605 21.1015455,15.5387127 C22.0733505,14.7389163 22.808305,13.693656 23.2284354,12.5138267 L23.2284354,12.5138267 Z M7.31679413,20.0130897 C6.94631377,20.0167865 6.57652688,19.9805704 6.21396236,19.9050809 L6.4851505,19.2078169 C7.2115473,19.2915397 7.83269728,19.2295465 8.07741229,18.6000276 L8.84836143,16.6188008 L10.4335207,16.6188008 L9.5857349,18.8032631 C9.14989682,19.9229758 8.07999504,20.0130897 7.31679413,20.0130897 L7.31679413,20.0130897 Z M12.7476595,19.9050809 L12.7244148,19.2557498 L11.2903461,19.2557498 L10.7621749,19.9050809 L9.45272357,19.9050809 L12.111013,16.8603827 C12.2317294,16.7155537 12.4084132,16.6276483 12.5978603,16.6181617 L14.0183696,16.6181617 L14.3366928,19.9050809 L12.7476595,19.9050809 L12.7476595,19.9050809 Z M18.3651281,19.9050809 L14.7634913,19.9050809 L16.0393669,16.6181617 L17.6225891,16.6181617 L16.6140275,19.2090951 L18.6311507,19.2090951 L18.3651281,19.9050809 Z M16.8994208,12.9573659 C14.5187763,15.2485588 10.9649203,13.7882029 11.3258588,10.9761391 C11.6035038,8.80957175 14.2914948,6.64939545 16.3279886,5.47983253 C16.3320533,5.47681509 16.3344455,5.4720795 16.3344455,5.46705043 C16.3344455,5.46202135 16.3320533,5.45728576 16.3279886,5.45426832 C15.9164799,5.05873847 15.5239035,4.64435764 15.1515486,4.21248649 C14.698829,3.63926397 14.0005239,3.30962082 13.2655549,3.32218088 C12.5305858,3.33474093 11.8441934,3.6880475 11.411735,4.27639704 L5.55729965,4.8151629 C5.54911341,4.81674434 5.54320564,4.8238435 5.54320564,4.8320992 C5.54320564,4.84035489 5.54911341,4.84745405 5.55729965,4.84903549 L11.833368,5.20693452 C12.9452394,5.27084506 13.308115,6.26784951 12.2343391,7.07184413 C8.2485191,10.0577446 7.5402015,13.2168427 8.43060256,15.7195795 C8.43120799,15.7271358 8.42676054,15.7341985 8.41963998,15.7369883 C8.41251943,15.7397781 8.40439324,15.7376418 8.39960963,15.7317225 C8.02150743,15.1872383 7.75477159,14.5747441 7.6144554,13.9288061 C4.93027716,12.2347758 3.62119262,9.04643128 4.35051017,5.97929513 C5.07982772,2.91215899 7.68818425,0.636430857 10.853935,0.305213939 C14.0196857,-0.0260029792 17.0510827,1.65966549 18.4121281,4.50809725 C19.7731736,7.356529 19.1664655,10.7453135 16.8994208,12.9573659 L16.8994208,12.9573659 Z M11.8075406,18.6262309 L12.699233,18.6262309 L12.6604919,17.571707 L11.8075406,18.6262309 Z" id="Shape" fill="#CC0000"></path>
                </g>
            </g>
        </g>
    </g>
</svg>