<?xml version="1.0" encoding="UTF-8"?>
<svg width="352px" height="72px" viewBox="0 0 352 72" version="1.1" xmlns="http://www.w3.org/2000/svg" xmlns:xlink="http://www.w3.org/1999/xlink">
    <title>Jet2-Login</title>
    <g id="Taskboard" stroke="none" stroke-width="1" fill="none" fill-rule="evenodd">
        <g id="Jet2---Login" transform="translate(-785.000000, -303.000000)">
            <g id="Jet2-Login" transform="translate(785.000000, 303.000000)">
                <rect id="Rectangle" fill="#FFFFFF" x="0" y="0" width="352" height="72"></rect>
                <g id="jet2-logo-white-svg" transform="translate(97.000000, 9.000000)" fill="#EE3123" fill-rule="nonzero">
                    <path d="M84.7443234,19.564086 L91.842221,19.564086 C91.842221,19.564086 90.3679388,26.3771592 89.2954075,31.3123612 C88.4928025,34.9959461 86.1854253,44.5799482 87.8404057,48.1414893 C89.039381,50.7226712 92.1986852,52.2820703 94.708283,52.4237124 C99.9018994,52.720359 106.22275,52.5960882 106.22275,52.5960882 L108.019868,43.073108 L104.127009,43.1710994 C104.127009,43.1710994 100.713024,43.3314489 100.230564,41.5863116 C99.1701389,37.7370322 104.045404,19.5649769 104.045404,19.5649769 L112.912619,19.564086 L114.244323,12.3514753 L105.749706,12.2356673 L108.420722,0.320806814 C108.420722,0.320806814 101.630863,0.120369908 100.031482,0.320806814 C97.811091,0.596964329 96.0372892,3.19640829 95.2391681,5.57848957 C94.2652809,8.4759164 93.6406839,12.2249774 93.6406839,12.2249774 L86.6356015,12.2361128 L84.7443234,19.564086 Z M114.110698,40.4945986 C118.996275,34.1385216 130.673953,29.0358434 134.356968,27.3245576 C141.071947,24.2013052 145.067037,20.0611696 145.067037,16.3909471 C145.067037,13.8075381 142.968606,9.84200527 137.976762,9.84200527 C132.982676,9.84200527 128.690757,14.0088658 128.191707,19.564086 C126.761366,19.5551777 124.783102,19.5551777 121.526498,19.5551777 C120.115887,19.5551777 115.408317,19.564086 115.408317,19.564086 C115.408317,19.564086 117.208573,9.65359457 123.096735,5.27827962 C127.818204,1.77286084 131.390917,0.285173586 137.876772,0.0232693621 C145.266119,-0.27515892 152.256404,2.30379594 155.450682,7.36282345 C158.511791,12.2116149 159.407211,20.1996937 154.787076,25.2671841 C150.736836,29.7110931 146.570912,32.1510783 142.925561,34.2512117 C137.993352,37.0902891 131.364014,40.42645 129.457939,41.3698398 C127.83031,42.1644607 128.090372,42.973335 128.090372,42.973335 L149.449977,42.973335 C152.652775,42.973335 154.36739,41.7306262 154.36739,41.7306262 C154.36739,41.7306262 155.740338,46.1656268 153.551333,49.1129401 C152.774735,50.1596662 150.532373,52.5898523 146.63817,52.5898523 L109.407163,52.5898523 C109.407163,52.5898523 110.420508,45.293949 114.110698,40.4945986 Z" id="Shape"></path>
                    <path d="M72.6532365,27.9762003 L56.4128165,28.025196 C56.4128165,28.025196 57.6664944,19.8607327 65.6360478,19.8607327 C72.9536529,19.8607327 72.6532365,27.9762003 72.6532365,27.9762003 Z M65.4858397,11.9946976 C59.3071265,12.2200778 54.3587755,13.2632405 49.0198831,18.8652294 C43.3285619,24.8382492 42.2582725,40.8642933 43.8365795,44.1318603 C45.4148865,47.3994273 48.2603229,53.533242 62.471363,53.9853386 C78.9126585,54.5095925 82.8606679,40.8001535 82.8606679,40.8001535 L69.8373934,40.7881273 C69.8373934,40.7881273 69.7037754,45.0997479 62.995074,45.2311454 C53.5252321,45.4146565 55.617834,35.8128379 55.617834,35.8128379 L84.5707994,35.8230824 C84.5707994,35.8230824 84.6057732,35.24137 85.0954071,27.7209773 C85.6222567,19.6291167 78.0557992,11.5319111 65.4853913,11.9951431 M39.3518561,23.4792869 L37.8452903,23.4481079 L32.1311017,15.6292869 C32.1311017,15.6292869 30.6200521,15.5981078 30.0192193,15.5745008 C29.7591574,15.5647016 29.4139027,15.5531208 29.0327775,15.4912081 C28.5202761,18.6425217 27.8311119,22.7559324 26.9455562,27.2457191 C25.2121088,36.0368818 25.3493139,42.2606704 17.7196345,42.2606704 C15.2961262,42.2606704 13.0116165,41.1622762 13.0013037,39.379724 C12.9833684,36.1669431 13.479728,30.6005875 13.479728,30.6005875 L0.578413636,30.5444652 C0.578413636,30.5444652 0,35.8930126 0,41.6063553 C0,46.7776275 5.67652452,53.4833555 16.9174779,53.4466892 C25.4932447,53.415207 31.1760466,51.4286545 36.1140849,44.4579044 C38.5824314,40.9720838 39.8024807,32.7025025 41.7278358,23.6458723 C42.2865206,21.0125767 42.8577601,18.3579013 43.404787,15.8319508 L42.8981146,15.2448934 L36.0477243,15.6381952 L39.3518561,23.4792869 Z M32.7637696,2.89931626 C31.0778508,4.91036655 30.1483535,8.75830973 29.7327028,11.1974042 C29.6273329,11.8129682 29.5026825,12.5755192 29.3632355,13.4498696 C29.6120879,13.4253717 29.8385211,13.416018 30.0196677,13.4097822 C30.6205005,13.3875114 32.1315501,13.3572232 32.1315501,13.3572232 L37.8452903,5.53617511 L39.3518561,5.50232354 L36.0472759,13.3460878 L42.8999081,13.7380533 L44.1777987,12.2566019 C45.6484938,5.49074274 46.7873858,0.359557949 46.7873858,0.359557949 C46.7873858,0.359557949 42.4604931,0.312789337 39.9450664,0.359557949 C37.4390557,0.404990314 34.4483433,0.892274704 32.7637696,2.89931626 Z" id="Shape"></path>
                </g>
            </g>
        </g>
    </g>
</svg>