<?xml version="1.0" encoding="UTF-8"?>
<svg width="352px" height="72px" viewBox="0 0 352 72" version="1.1" xmlns="http://www.w3.org/2000/svg" xmlns:xlink="http://www.w3.org/1999/xlink">
    <title>Jetstar</title>
    <g id="Taskboard" stroke="none" stroke-width="1" fill="none" fill-rule="evenodd">
        <g id="Jetstar">
            <rect id="Rectangle" fill="#FFFFFF" x="0" y="0" width="352" height="72"></rect>
            <g id="Jetstar-logo-black_svg" transform="translate(72.000000, 8.000000)">
                <polygon id="Path" points="0 0 209 0 209 56 0 56"></polygon>
                <path d="M64.6033929,26.8202667 L59.6844286,26.8202667 L59.6844286,37.4042667 C59.6844286,39.3194667 60.8096696,39.7413333 62.54325,39.7413333 C63.2001071,39.7413333 63.90175,39.648 64.6033929,39.648 L64.6033929,45.5018667 C63.1534554,45.5504 61.6997857,45.7370667 60.2498482,45.7370667 C53.4610804,45.7370667 51.7293661,43.7714667 51.7293661,37.1653333 L51.7293661,26.8202667 L47.70425,26.8202667 L47.70425,21.4778667 L51.7312321,21.4778667 L51.7312321,13.8432 L59.6900268,13.8432 L59.6900268,21.4778667 L64.607125,21.4778667 L64.607125,26.8202667 L64.6033929,26.8202667 Z M104.671679,26.8202667 L99.7527143,26.8202667 L99.7527143,37.4042667 C99.7527143,39.3194667 100.877955,39.7413333 102.607804,39.7413333 C103.266527,39.7413333 103.970036,39.648 104.669812,39.648 L104.669812,45.5018667 C103.218009,45.5504 101.766205,45.7370667 100.316268,45.7370667 C93.5237679,45.7370667 91.7957857,43.7714667 91.7957857,37.1653333 L91.7957857,26.8202667 L87.7706696,26.8202667 L87.7706696,21.4778667 L91.7976518,21.4778667 L91.7976518,13.8432 L99.7583125,13.8432 L99.7583125,21.4778667 L104.677277,21.4778667 L104.677277,26.8202667 L104.671679,26.8202667 Z M22.2006518,35.392 C22.2006518,42.5002667 18.5580804,46.0936 11.0975268,46.0936 C2.70953571,46.0936 0,41.2589333 0,34.1898667 L0,32.816 L7.77032143,32.816 L7.77032143,35.7466667 C7.77032143,37.8373333 8.92728571,38.9872 10.9669018,38.9872 C12.8777589,38.9872 13.9432857,37.9232 13.9432857,34.8562667 L13.9432857,13.72 L22.2025179,13.72 L22.2025179,35.392 L22.2006518,35.392 Z M30.958125,35.2762667 C31.0943482,38.5746667 32.9977411,40.7549333 36.3417411,40.7549333 C38.2451339,40.7549333 40.101875,39.8738667 40.8445714,38.1117333 L48.2230179,38.1117333 C46.7861429,43.68 41.6357857,46.0936 36.2484375,46.0936 C28.4072054,46.0936 23.0665089,41.3616 23.0665089,33.2808 C23.0665089,25.8981333 28.9632946,20.6061333 36.0636964,20.6061333 C44.6980089,20.6061333 49.0142321,27.1058667 48.64475,35.2744 L30.958125,35.2744 L30.958125,35.2762667 Z M40.7494018,30.8672 C40.6113125,28.1792 38.7079196,25.9448 36.0599643,25.9448 C33.2757857,25.9448 31.4190446,27.9384 30.9562589,30.8653333 L40.7475357,30.8653333 L40.7494018,30.8672 Z M72.3569196,37.4826667 C72.3569196,38.6885333 72.8663571,39.564 73.6538393,40.1669333 C74.3928036,40.7269333 75.4639286,41.0013333 76.5705089,41.0013333 C78.1006875,41.0013333 80.2746607,40.3517333 80.2746607,38.4533333 C80.2746607,36.6053333 77.8189107,36.2357333 76.4305536,35.9090667 C71.4761339,34.6584 65.2714464,34.5221333 65.2714464,28.0354667 C65.2714464,22.2450667 71.5227857,20.6696 76.2439464,20.6696 C81.5211964,20.6696 87.0298393,22.2002667 87.30975,28.4536 L80.0414018,28.4536 C80.0414018,27.4344 79.6681875,26.7848 79.0225268,26.3629333 C78.3768661,25.9522667 77.4960804,25.7656 76.5219911,25.7656 C75.2250714,25.7656 73.1406696,25.9037333 73.1406696,27.5762667 C73.1406696,29.8405333 78.4160536,30.2586667 82.0306339,31.0482667 C86.8898839,32.0189333 88.1382857,35.5357333 88.1382857,37.5312 C88.1382857,43.9656 82.0287679,46.0992 76.6096964,46.0992 C70.9144464,46.0992 65.0829732,44.1989333 64.8534464,37.4864 L72.3550536,37.4808 L72.3569196,37.4826667 Z M106.11042,28.8213333 C106.248509,25.6778667 107.724571,23.6469333 109.848161,22.4 C111.975482,21.1978667 114.744732,20.7349333 117.471062,20.7349333 C123.151384,20.7349333 128.643232,21.9856 128.643232,28.7728 L128.643232,39.2634667 C128.643232,41.2925333 128.643232,43.5082667 129.568804,45.4048 L121.667857,45.4048 C121.397277,44.6656 121.302107,43.9245333 121.21067,43.1405333 C119.176652,45.2685333 116.176009,46.0954667 113.317187,46.0954667 C108.745312,46.0954667 105.143795,43.7882667 105.143795,38.8434667 C105.143795,31.0333333 113.638152,31.6381333 119.08708,30.5312 C120.42692,30.2549333 121.16775,29.792 121.16775,28.3136 C121.16775,26.5104 118.995643,25.8178667 117.379625,25.8178667 C115.209384,25.8178667 113.826625,26.7885333 113.451545,28.8232 L106.11042,28.8232 L106.11042,28.8213333 Z M116.269313,41.2458667 C120.012652,41.2458667 121.259188,39.1216 121.07258,34.1805333 C119.966,34.8749333 117.931982,35.0112 116.224527,35.4722667 C114.47042,35.8885333 112.992491,36.6296 112.992491,38.5242667 C112.992491,40.4656 114.517071,41.2496 116.271179,41.2496 L116.269313,41.2458667 Z M140.739107,22.176 C139.535491,22.9656 138.602455,24.1136 138.038902,25.6106667 L137.945598,25.6106667 L137.945598,21.392 L130.304036,21.392 L130.304036,45.4290667 L138.178857,45.4290667 L138.178857,33.5290667 C138.178857,30.5237333 140.212875,27.832 144.099902,27.832 C145.001214,27.832 145.811089,27.9701333 146.65642,28.1829333 L140.740973,22.1778667 L140.739107,22.176 Z" id="Shape" fill="#000000" fill-rule="nonzero"></path>
                <polygon id="Path" fill="#FF5111" fill-rule="nonzero" points="175.339804 0 176.366143 16.4826667 199.122884 16.4826667 177.32717 30.912 182.136036 54.7026667 163.605946 38.612 138.669634 51.5592 153.542223 31.1696 139.440321 16.4826667 162.262375 16.4826667"></polygon>
            </g>
        </g>
    </g>
</svg>