<?xml version="1.0" encoding="UTF-8"?>
<svg width="352px" height="72px" viewBox="0 0 352 72" version="1.1" xmlns="http://www.w3.org/2000/svg" xmlns:xlink="http://www.w3.org/1999/xlink">
    <title>KLM</title>
    <g id="Taskboard" stroke="none" stroke-width="1" fill="none" fill-rule="evenodd">
        <g id="KLM">
            <rect id="Rectangle" fill="#FFFFFF" x="0" y="0" width="352" height="72"></rect>
            <g id="Group-5" transform="translate(129.000000, 8.000000)" fill="#00A1DE" fill-rule="nonzero">
                <g id="kl-logo-small-2022">
                    <path d="M46.0795939,8.96805323 L49.0612147,8.96805323 L49.0612147,5.97811347 L52.0428354,5.97811347 L52.0428354,2.98993976 L49.0612147,2.98993976 L49.0612147,0 L46.0795939,0 L46.0795939,2.98993976 L43.0979731,2.98993976 L43.0979731,5.97811347 L46.0795939,5.97811347 L46.0795939,8.96805323 Z M65.3686034,8.22099515 C63.9844271,8.21772184 62.6559226,8.76762524 61.6766641,9.7492018 C60.6974056,10.7307784 60.1480113,12.0632191 60.1498822,13.4520799 C60.1480113,14.8409406 60.6974056,16.1733813 61.6766641,17.1549579 C62.6559226,18.1365345 63.9844271,18.6864379 65.3686034,18.6831646 C66.7524751,18.6859677 68.0805266,18.1358567 69.0594038,17.1543313 C70.0382811,16.1728058 70.5874339,14.8406339 70.5855645,13.4520799 C70.5874339,12.0635258 70.0382811,10.7313539 69.0594038,9.74982845 C68.0805266,8.76830299 66.7524751,8.21819199 65.3686034,8.22099515 L65.3686034,8.22099515 Z M29.7264424,26.1553502 L65.3686034,26.1553502 L65.3686034,20.1772367 L29.7264424,20.1772367 L29.7264424,26.1553502 Z M34.9433987,13.4520799 C34.9433987,10.5557413 32.6147775,8.22099515 29.7722051,8.22099515 C28.3880288,8.21772184 27.0595243,8.76762524 26.0802658,9.7492018 C25.1010073,10.7307784 24.5516131,12.0632191 24.5534839,13.4520799 C24.5516131,14.8409406 25.1010073,16.1733813 26.0802658,17.1549579 C27.0595243,18.1365345 28.3880288,18.6864379 29.7722051,18.6831646 C32.6147775,18.6831646 34.9433987,16.3466524 34.9433987,13.4520799 L34.9433987,13.4520799 Z M48.3149246,13.4520799 C48.3130538,14.8409406 48.862448,16.1733813 49.8417065,17.1549579 C50.820965,18.1365345 52.1494695,18.6864379 53.5336458,18.6831646 C56.421981,18.6831646 58.7048394,16.3466524 58.7048394,13.4520799 C58.7048394,10.5557413 56.3762182,8.22099515 53.5336458,8.22099515 C52.1494695,8.21772184 50.820965,8.76762524 49.8417065,9.7492018 C48.862448,10.7307784 48.3130538,12.0632191 48.3149246,13.4520799 L48.3149246,13.4520799 Z M41.6071627,18.6831499 C44.4826317,18.6725093 46.8115734,16.337267 46.8241238,13.4520799 C46.8259932,12.0635258 46.2768404,10.7313539 45.2979631,9.74982845 C44.3190859,8.76830299 42.9910344,8.21819199 41.6071627,8.22099515 C40.2229864,8.21772184 38.8944819,8.76762524 37.9152234,9.7492018 C36.9359649,10.7307784 36.3865706,12.0632191 36.3884415,13.4520799 C36.4342091,16.3484184 38.7188276,18.6831499 41.6071627,18.6831499 L41.6071627,18.6831499 Z M80.2309445,32.1334637 L75.7585134,45.5855435 L71.2843221,32.1334637 L56.421981,32.1334637 L56.421981,56 L65.3210805,56 L65.3210805,38.0656596 L71.2843221,55.9540824 L80.1834216,55.9540824 L86.1009004,38.0656596 L86.1009004,55.9540824 L95,55.9540824 L95,32.0857801 L80.2309445,32.0857801 L80.2309445,32.1316976 L80.2309445,32.1334637 Z M38.6255419,32.1334637 L29.7264424,32.1334637 L29.7264424,56 L53.4878831,56 L53.4878831,49.975969 L38.6237818,49.975969 L38.6237818,32.1334637 L38.6255419,32.1334637 Z M26.7448216,32.1334637 L17.845722,32.1334637 L8.89909957,41.1015169 L8.89909957,32.1334637 L0,32.1334637 L0,56 L8.89909957,56 L8.89909957,47.0337128 L17.845722,56 L29.7264424,56 L16.3549116,42.5496862 L26.7448216,32.1334637 L26.7448216,32.1334637 Z" id="Shape"></path>
                </g>
            </g>
        </g>
    </g>
</svg>