<?xml version="1.0" encoding="UTF-8"?>
<svg width="352px" height="72px" viewBox="0 0 352 72" version="1.1" xmlns="http://www.w3.org/2000/svg" xmlns:xlink="http://www.w3.org/1999/xlink">
    <title>Korean</title>
    <g id="Taskboard" stroke="none" stroke-width="1" fill="none" fill-rule="evenodd">
        <g id="Korean">
            <rect id="Rectangle" fill="#FFFFFF" x="0" y="0" width="352" height="72"></rect>
            <g id="KoreanAir_logo" transform="translate(48.000000, 21.000000)" fill-rule="nonzero">
                <path d="M120.063662,15.8753976 C120.063662,15.8753976 121.735886,11.945864 122.44908,10.8133273 C122.44908,10.8133273 124.491188,13.6191833 125.213235,15.9241541 C125.213235,15.9241541 122.909766,16.2854142 120.063662,15.8753655 M72.262384,12.8899869 L72.262384,8.46177467 C72.262384,8.46177467 72.3089755,5.15724816 74.9202212,5.15724816 C77.544843,5.15724816 77.2148296,8.36869122 77.2414052,8.77427826 C77.2635381,9.1887323 77.0952235,12.8899869 72.262384,12.8899869 L72.262384,12.8899869 Z M80.4418923,1.81281615 C80.4418923,1.81281615 67.7063987,2.76583816 60.8358773,2.12531974 C60.8358773,2.12531974 60.0185865,1.90590762 59.7926701,2.85226935 C59.7926701,2.85226935 59.3474853,3.57257473 60.0651057,4.07124521 C60.7827182,4.57213847 62.8669113,5.79111433 62.8669113,10.312402 C62.8669113,14.8359123 62.8669113,19.0358374 62.8669113,19.0358374 C62.8669113,19.0358374 63.2744461,23.8319539 59.9720752,25.6360314 C59.9720752,25.6360314 59.2987607,25.8643186 59.6575629,26.8173326 C59.6575629,26.8173326 59.7041544,27.6750484 60.6564722,27.5420674 C61.600009,27.402354 66.9356191,26.9968552 74.2535466,27.4954455 C74.2535466,27.4954455 74.8825712,27.5420674 75.0575417,27.1275412 C75.2435947,26.7308131 75.2923192,26.6820566 75.2923192,26.6820566 C75.2923192,26.6820566 75.9279836,26.0504052 74.9689458,25.4165391 C74.025417,24.7848876 72.4417891,23.8318736 72.3088953,19.8092485 C72.1736999,15.7822019 72.3088953,15.6957626 72.3088953,15.6957626 L72.8936219,15.6957626 C72.8936219,15.6957626 74.9202212,15.5095958 76.280154,18.5969249 C76.280154,18.5969249 78.9047677,24.9178686 79.3078759,25.6847157 C79.717624,26.458207 80.483969,28.0827699 83.3322938,27.8101638 C86.176184,27.5419872 99.4520982,26.5889732 113.554165,27.8567858 C113.554165,27.8567858 115.091289,28.0828502 115.678229,26.5890534 C115.678229,26.5890534 118.116798,20.0353931 118.701524,18.9892957 C118.701524,18.9892957 123.855516,18.8563147 126.65733,18.9006417 C126.65733,18.9006417 127.691668,20.6670445 127.691668,22.7925007 C127.691668,24.9179488 125.844473,25.4166193 125.844473,25.4166193 C125.844473,25.4166193 125.073694,25.7291229 125.436931,26.6821369 C125.436931,26.6821369 125.572134,27.5886092 126.475711,27.4955257 C127.374942,27.4024423 135.463641,26.6378099 147.660919,27.4024423 C147.660919,27.4024423 148.475989,27.7238048 148.74399,26.6378099 C148.74399,26.6378099 149.242334,25.7778794 148.382966,25.3700776 C148.382966,25.3700776 145.182487,24.6497722 145.182487,19.5345079 C145.182487,14.423673 145.226753,10.8132952 145.226753,10.8132952 C145.226753,10.8132952 147.660895,14.2907001 150.553518,19.4946184 C153.446133,24.6918844 154.983249,26.910416 154.983249,26.910416 C154.983249,26.910416 156.429557,29.7140653 159.271234,28.2202606 C162.117337,26.7308934 165.189365,25.0110323 166.952398,23.7854122 C166.952398,23.7854122 167.634574,23.4729086 167.26691,22.6063258 L167.001123,22.0677578 C167.001123,22.0677578 166.952366,21.7530475 166.006648,21.659956 C166.006648,21.659956 163.882591,22.1608493 163.833867,19.1289208 C163.794012,16.1036447 163.652249,11.8062067 163.833867,7.42232146 C163.833867,7.42232146 163.926889,4.7051194 166.411969,3.9382723 C166.411969,3.9382723 167.311208,3.85192136 166.905887,2.76583816 L166.635672,2.21840319 C166.635672,2.21840319 166.635672,1.76627442 166.006648,1.85936589 C165.37541,1.95244934 161.849344,2.26494491 158.104002,1.95244934 C158.104002,1.95244934 157.288932,1.95244934 157.193689,2.85226935 C157.193689,2.85226935 156.972199,3.67009569 157.605658,3.9382723 C158.236896,4.20866366 160.447327,5.02426723 160.589082,8.50167216 C160.719851,11.9923736 160.766274,16.82395 160.766274,16.82395 C160.766274,16.82395 155.614487,9.22862177 152.316551,3.39748958 C152.316551,3.39748958 151.778336,1.81281615 149.827036,1.95244934 C147.895673,2.08543027 143.233377,2.31149466 139.846845,1.99024443 C139.846845,1.99024443 138.89666,1.85939799 138.761553,2.94548119 C138.761553,2.94548119 138.491347,3.89185095 139.304203,4.29743799 C139.304203,4.29743799 142.017413,6.01729908 142.017413,6.60462352 C142.017413,7.19637745 141.966411,19.2221247 141.966411,19.2221247 C141.966411,19.2221247 142.198975,24.1512221 140.885562,23.5173559 C140.885562,23.5173559 140.119217,24.0138117 138.267588,20.6206232 C136.415959,17.2296575 134.019467,12.3936515 130.136804,2.98537065 C130.136804,2.98537065 129.319521,0.365681525 127.651724,0.365681525 C127.651724,0.365681525 126.657249,0.414470089 125.62069,0.992903457 C124.579696,1.58708879 121.279547,3.43972218 117.848717,4.43706315 C117.848717,4.43706315 116.945051,4.70523977 117.213052,5.60949729 C117.213052,5.60949729 117.082283,6.28325292 118.07242,6.6578175 C119.064681,7.01464005 119.924048,7.42244183 120.194263,7.91446808 C120.194263,7.91446808 119.157703,11.2611068 117.257342,14.7052665 C115.359202,18.1361297 112.925068,23.8320743 105.919439,23.8320743 L103.161924,23.8320743 C103.161924,23.8320743 102.44209,23.9184172 102.44209,22.9278167 C102.44209,21.9349052 102.44209,15.6516363 102.44209,15.6516363 L104.249429,15.6516363 C104.249429,15.6516363 107.181907,15.0155554 108.588351,18.8143229 C108.588351,18.8143229 108.854139,19.9889718 109.848613,19.5346282 C109.848613,19.5346282 110.975982,19.4016473 110.887386,18.2691107 C110.79879,17.1432182 110.712496,14.0647561 110.931652,11.3541983 C110.931652,11.3541983 111.024674,10.5408014 110.118796,10.3612868 C110.118796,10.3612868 109.398962,10.0000267 108.854107,10.5873512 C108.313678,11.1724529 107.181875,12.5709514 104.605986,12.5709514 C102.036736,12.5709514 102.49079,12.5709514 102.49079,12.5709514 L102.49079,5.7912347 C102.49079,5.7912347 102.442034,5.34353542 102.754357,5.2969937 C103.068869,5.25037173 107.004691,4.29743799 109.305939,6.14805724 C111.609401,8.00755153 111.751148,8.77439863 112.242852,9.45480652 C112.242852,9.45480652 112.692471,10.5873512 113.866351,9.82271883 C113.866351,9.82271883 114.774443,9.6808709 114.320397,8.28015763 C113.866351,6.87057737 113.735671,6.38298863 112.969326,2.85239774 C112.969326,2.85239774 112.827579,1.35859301 111.294889,1.50044094 C109.759985,1.63342188 100.14081,2.76595853 91.1019337,2.03900089 C91.1019337,2.03900089 90.1561836,1.81293651 89.9723519,2.81250025 C89.9723519,2.81250025 89.5626039,3.48404114 90.3311622,4.11569256 C90.3311622,4.11569256 92.993434,5.34353542 92.993434,10.0399162 C92.993434,14.7429493 92.993434,17.9100653 92.993434,17.9100653 C92.993434,17.9100653 93.4496933,24.1512221 91.2370409,24.1512221 C91.2370409,24.1512221 90.2846509,24.5568091 88.663365,21.345358 C87.0376525,18.1361297 86.9468433,18.0430463 86.9468433,18.0430463 C86.9468433,18.0430463 85.6356431,13.8320395 79.9855127,13.6569463 C79.9855127,13.6569463 87.8017842,12.3471017 87.0797372,6.46942784 C87.0797372,6.46942784 86.9468433,1.99024443 81.0774445,1.81293651" id="path3189" fill="#1C4E9D"></path>
                <path d="M186.961537,10.4941715 C189.404541,13.9715764 189.723479,15.6027915 189.723479,15.6027915 C187.785468,15.9241541 184.578341,15.5584967 184.578341,15.5584967 C185.517443,13.0252467 186.961537,10.4941715 186.961537,10.4941715 M207.433568,17.8213552 C207.433568,17.8213552 207.610759,23.7389266 205.398099,23.3311248 C205.398099,23.3311248 204.625114,23.8320181 202.775699,20.4410443 C200.928496,17.0545081 198.529799,12.2140727 194.644915,2.81244408 C194.644915,2.81244408 193.832059,0.186102695 192.159835,0.186102695 C192.159835,0.186102695 191.169787,0.23489126 190.131014,0.813324628 C189.087815,1.4072933 185.792092,3.26457284 182.361262,4.25748432 C182.361262,4.25748432 181.450949,4.52566094 181.723376,5.42991846 C181.723376,5.42991846 181.586056,6.11032635 182.584965,6.46937167 C183.577218,6.83727596 184.438807,7.23621877 184.704587,7.737104 C184.704587,7.737104 183.670249,11.0793132 181.769888,14.5168287 C179.873961,17.9565509 178.19731,22.9720875 173.729921,25.2305166 C173.729921,25.2305166 172.863906,25.4166835 173.142981,26.4583514 C173.459707,27.6307856 174.046647,27.3160672 174.046647,27.3160672 C179.24051,26.770855 180.824137,27.2229838 182.000239,27.3160672 C183.171905,27.4024182 182.990279,26.4583514 182.990279,26.4583514 C183.304791,25.8643828 182.901691,25.5053375 182.901691,25.5053375 L182.40556,24.8714713 C182.40556,24.8714713 180.460901,24.370578 183.216195,18.8142667 C183.216195,18.8142667 188.372408,18.6812858 191.169787,18.7211833 C191.169787,18.7211833 192.212994,20.4809418 192.212994,22.60639 C192.212994,24.7384904 190.356931,25.2305166 190.356931,25.2305166 C190.356931,25.2305166 189.586159,25.5496644 189.944969,26.4960342 C189.944969,26.4960342 190.084415,27.4025065 190.99039,27.3160672 C191.891834,27.2229838 206.893139,26.5891176 219.090417,27.3559487 C219.090417,27.3559487 219.945358,27.4025707 220.169061,26.6378581 C220.169061,26.6378581 220.669619,25.6848441 219.812464,25.1440613 C219.812464,25.1440613 217.413759,24.0580664 217.236575,20.2216162 C217.052735,16.3696547 217.103681,9.08904475 217.103681,9.08904475 C217.103681,9.08904475 216.91985,5.02431538 219.491312,3.76322728 C219.491312,3.76322728 220.169061,3.43964194 219.812464,2.53316967 C219.812464,2.53316967 219.630846,1.67989138 218.811342,1.76632257 C218.000699,1.85941404 209.466815,2.3115428 205.446832,1.81278405 C205.446832,1.81278405 204.534305,1.76632257 204.359326,2.53308943 C204.359326,2.53308943 203.909715,3.26447655 204.680487,3.85180099 C205.446832,4.43691069 207.433568,5.79108223 207.433568,9.99986626 C207.433568,14.2042288 207.433568,17.8212589 207.433568,17.8212589" id="path3191" fill="#1C4E9D"></path>
                <path d="M235.619978,12.7127111 L235.619978,8.28006936 C235.619978,8.28006936 235.713,4.98440184 238.198088,4.98440184 C240.682952,4.98440184 240.720818,7.77474662 240.592359,8.69009392 C240.466025,9.59435144 240.233549,12.7127111 235.619978,12.7127111 M243.391951,1.45158818 C243.391951,1.45158818 233.451623,2.62623707 224.237769,1.72641706 C224.237769,1.72641706 223.063889,1.4072612 222.924356,2.62623707 C222.924356,2.62623707 222.838061,3.43962589 223.338538,3.76321123 C223.834669,4.07127731 225.865703,5.29690543 226.000802,9.5433722 C226.140256,13.7920537 226.226726,12.5708631 226.140256,18.3621058 C226.140256,18.3621058 226.490205,23.9184172 223.338442,25.2770262 C223.338442,25.2770262 222.521159,25.4565489 222.972992,26.637842 C222.972992,26.637842 223.24542,27.5420995 224.005125,27.2229517 C224.005125,27.2229517 231.418288,26.7309255 237.836977,27.2695737 C237.836977,27.2695737 238.56345,27.5421798 238.78494,26.5891658 C238.78494,26.5891658 239.37188,25.9575144 238.472641,25.2771065 C237.562328,24.6055576 235.938829,23.4242644 235.752784,20.5740734 C235.571165,17.7216757 235.61989,15.4698908 235.61989,15.4698908 L236.255554,15.4698908 C236.255554,15.4698908 238.379619,15.1928553 239.823713,18.5417087 C241.272233,21.8861327 242.264495,24.3307367 242.264495,24.3307367 C242.264495,24.3307367 243.208031,26.9969676 244.747361,27.8568981 C244.747361,27.8568981 245.378599,28.4486601 247.728572,28.1694017 C247.728572,28.1694017 251.569158,27.9499816 255.363225,26.190231 C255.363225,26.190231 256.220379,26.0040561 255.94573,25.0111446 C255.94573,25.0111446 256.131783,24.2332158 255.050926,24.0138036 C253.965642,23.7855245 253.154999,22.7460713 252.384228,21.2057248 C251.611235,19.6742454 250.435142,17.4091721 250.435142,17.4091721 C250.435142,17.4091721 248.858154,13.4862826 243.704162,13.4330967 C243.704162,13.4330967 250.796165,12.2141208 250.796165,6.87056934 C250.796165,1.5447599 244.47936,1.45158818 244.47936,1.45158818" id="path3193" fill="#1C4E9D"></path>
                <path d="M59.46487,15.0043854 C59.46487,23.2801215 52.7671139,29.9889183 44.4990097,29.9889183 C36.2286922,29.9889183 29.5220748,23.2801215 29.5220748,15.0043854 C29.5220748,6.72199693 36.2286922,0.0132001955 44.4990097,0.0132001955 C52.7671139,0.0132001955 59.46487,6.72199693 59.46487,15.0043854" id="path3195" fill="#FFFFFF"></path>
                <path d="M50.9287728,5.96844632 C55.4891847,7.36916761 58.8070566,11.6178491 58.8070566,16.6511117 C58.8070566,17.3913578 58.7317565,18.1005815 58.5988627,18.7898564 L58.5811403,18.8873773 C58.2356178,20.8598958 57.4338361,22.6839301 56.2976144,24.2264913 L56.2754815,24.2509658 C58.273292,21.7066261 59.4693207,18.4885308 59.4693207,14.9911852 C59.4693207,6.71544899 52.760482,0 44.4835246,0 C40.7182466,0 37.2807686,1.39406101 34.6450804,3.69238757 L34.6074704,3.72568897 C32.5321385,5.63172498 31.2364474,8.36887578 31.2364474,11.4074484 C31.2364474,12.6596695 31.4535025,13.8742159 31.8654639,14.9912413 L31.8855119,15.0444433 C32.9287191,17.3228211 35.2299593,18.9141388 37.9010923,18.9141388 C41.5489856,18.9141388 44.5124739,15.9575679 44.5124739,12.3006403 L44.4924259,9.45488676 C44.4924259,8.15612394 45.2233342,7.00807606 46.2975435,6.42296636 L46.308209,6.41975659 C47.1476489,5.96097557 48.1066868,5.69058421 49.1388115,5.69058421 C49.7611881,5.69058421 50.3569892,5.78367568 50.9195668,5.96319031 L50.9284681,5.9704123" id="path3197" fill="#ED192D"></path>
                <path d="M33.0237784,24.6453748 C35.7724248,27.9166561 39.8920865,30 44.4990097,30 C48.266501,30 51.7150455,28.6081537 54.3463151,26.3098272 L54.3817599,26.2832663 C56.4570918,24.370578 57.7550043,21.6334272 57.7550043,18.5970693 C57.7550043,17.3426335 57.5335145,16.1303099 57.1237664,15.0110617 L57.1037185,14.9644397 C56.058298,12.6727654 53.7636976,11.0858853 51.0859247,11.0858853 C47.4380314,11.0858853 44.4789697,14.044671 44.4789697,17.6949463 L44.4990177,20.5495668 C44.4990177,21.8505444 43.7681095,22.9941628 42.6916868,23.5792725 L42.6810213,23.5864944 C41.8415895,24.0452755 40.8759037,24.3134441 39.8548535,24.3134441 C39.2280422,24.3134441 38.6300279,24.2114936 38.0696635,24.040838 L38.0624463,24.0320111 C33.4998211,22.6268603 30.1819492,18.375964 30.1819492,13.3515684 C30.1819492,12.6179665 30.2549237,11.8998759 30.3901431,11.2061715 L30.4025729,11.1130801 C30.7503086,9.13612411 31.5520904,7.32539431 32.69496,5.77618888 L32.7091539,5.75187484 C30.71577,8.29621453 29.517528,11.5143098 29.517528,15.0050113 C29.517528,17.4097178 30.0867535,19.6903103 31.0923026,21.7071638 L30.9682699,21.8002472 C30.9682699,21.8002472 30.3879699,22.2457237 29.2074503,20.8959897 C28.0313492,19.5351659 21.1209645,11.1729985 21.1209645,11.1729985 C21.1209645,11.1729985 25.5064059,6.46996548 29.7988168,4.57279647 C29.7988168,4.57279647 30.9217587,4.20932167 30.655971,3.21862493 L30.4721393,2.626871 C30.4721393,2.626871 30.4345293,1.99078206 29.4333666,2.12597774 C28.4411053,2.26569921 23.7389383,2.626871 19.0456326,2.17259971 C19.0456326,2.17259971 18.3213722,2.17259971 18.0511579,2.76657641 C18.0511579,2.76657641 17.5948906,3.53342351 18.0511579,3.97890002 C18.5052039,4.43768103 20.1331297,5.5657882 20.1331297,7.10169714 C20.1331297,7.10169714 20.4853001,8.23666519 18.00686,10.0405341 C15.5175218,11.8533984 13.9848398,13.0258325 12.9482805,13.5732595 L12.9881358,9.32236322 C12.9881358,9.32236322 12.855242,5.75186682 15.4311392,4.07190322 C15.4311392,4.07190322 16.0601557,3.80594135 15.8364606,3.2186169 L15.6615703,2.76648814 C15.6615703,2.76648814 15.5175138,2.03953853 14.751265,2.12596972 C14.751265,2.12596972 10.2838756,2.62686297 1.37788563,2.21906119 C1.37788563,2.21906119 0.788732458,2.17243922 0.567242684,2.62686297 L0.38783757,2.98590027 C0.38783757,2.98590027 0.0711120046,3.80594135 0.567242684,4.16498666 C1.06780797,4.52624672 3.14313989,5.75186682 3.23616239,9.49523362 C3.23616239,9.49523362 3.45986546,16.5963209 3.14313989,19.3534205 C2.82419301,22.1149575 2.60271126,23.6974082 0.38783757,25.6366894 C0.38783757,25.6366894 -0.199102312,26.0976852 0.0711120046,26.7714408 L0.38783757,27.3565505 C0.38783757,27.3565505 0.611540639,27.810894 1.37788563,27.7244628 C2.14866524,27.6313714 7.70576509,27.0839444 14.751265,27.6313714 C14.751265,27.6313714 15.2518223,27.810894 15.4755253,27.3166611 L15.7922509,26.6827869 C15.7922509,26.6827869 16.1532744,26.0511354 15.4755253,25.5502502 C14.7955549,25.0515797 12.988224,23.610969 12.9483607,20.8073277 C12.9040948,18.0036864 12.9040948,16.2284086 12.9040948,16.2284086 C12.9040948,16.2284086 14.1244858,16.7315166 20.6251225,26.3658538 C20.6251225,26.3658538 22.9307974,30.5236746 27.8079428,27.9505272 C27.8079428,27.9505272 31.3760934,26.0045937 32.8666987,24.7390761 L33.0240431,24.6459927" id="path3199" fill="#1C4E9D"></path>
            </g>
        </g>
    </g>
</svg>