<?xml version="1.0" encoding="UTF-8"?>
<svg width="352px" height="72px" viewBox="0 0 352 72" version="1.1" xmlns="http://www.w3.org/2000/svg" xmlns:xlink="http://www.w3.org/1999/xlink">
    <title>Malaysia</title>
    <defs>
        <path d="M55.1184953,20.086185 C55.0476489,20.086185 53.8432602,20.0152091 53.8432602,20.0152091 C48.8131661,19.6603295 48.8840125,15.0468948 48.8840125,15.0468948 C48.9548589,9.43979721 45.7667712,0.496831432 33.1561129,0 L11.4062696,0 L11.122884,1.06463878 L29.4012539,1.06463878 C31.2432602,1.1356147 32.5184953,2.48415716 31.9517241,4.68441065 L28.69279,16.608365 C27.4175549,20.157161 24.1586207,20.0152091 24.1586207,20.0152091 C20.8288401,19.7313054 21.7498433,16.5373891 21.7498433,16.5373891 L23.2376176,11.0722433 C23.7335423,9.22686946 22.3874608,8.30418251 21.2539185,8.30418251 L9.13918495,8.30418251 L8.85579937,9.36882129 L14.0275862,9.36882129 C15.9404389,9.43979721 16.3655172,10.8593156 16.0112853,12.1368821 C16.0112853,12.1368821 15.3736677,14.4081115 14.5943574,17.2471483 C13.8858934,20.0152091 11.3354232,20.086185 10.9103448,20.086185 L5.88025078,20.086185 L5.52601881,21.3637516 L10.2727273,21.3637516 C10.8394984,21.3637516 13.3899687,21.4347275 12.6106583,24.2027883 C11.831348,27.0418251 11.1937304,29.3130545 11.1937304,29.3130545 C10.8394984,30.590621 9.63510972,32.0101394 7.72225705,32.0811153 L2.55047022,32.0811153 L2.26708464,33.1457541 L14.3818182,33.1457541 C15.5153605,33.0747782 17.3573668,32.2230672 17.9241379,30.3776933 L19.4119122,24.9125475 C19.4119122,24.9125475 20.1912226,21.7186312 23.7335423,21.4347275 C23.7335423,21.4347275 27.1341693,21.2217997 26.3548589,24.8415716 L23.0959248,36.765526 C22.4583072,38.9657795 20.4746082,40.3143219 18.5617555,40.3852978 L0.28338558,40.3852978 L0,41.5209125 L21.8206897,41.5209125 C34.7147335,41.0240811 42.7912226,32.0811153 45.8376176,26.4740177 C45.8376176,26.4740177 48.246395,21.9315589 53.4890282,21.5057034 L54.7642633,21.4347275 C54.7642633,21.4347275 54.8351097,21.4347275 54.9059561,21.3637516 C54.9768025,21.1508238 55.1893417,20.2991128 55.1893417,20.2281369 C55.1893417,20.086185 55.1893417,20.086185 55.1184953,20.086185" id="path-1"></path>
    </defs>
    <g id="Taskboard" stroke="none" stroke-width="1" fill="none" fill-rule="evenodd">
        <g id="Malaysia">
            <rect id="Rectangle" fill="#FFFFFF" x="0" y="0" width="352" height="72"></rect>
            <g transform="translate(63.000000, 8.000000)" id="Group">
                <g transform="translate(170.810658, 0.000000)">
                    <path d="M55.1184953,20.086185 C55.0476489,20.086185 53.8432602,20.0152091 53.8432602,20.0152091 C48.8131661,19.6603295 48.8840125,15.0468948 48.8840125,15.0468948 C48.9548589,9.43979721 45.7667712,0.496831432 33.1561129,0 L11.4062696,0 L11.122884,1.06463878 L29.4012539,1.06463878 C31.2432602,1.1356147 32.5184953,2.48415716 31.9517241,4.68441065 L28.69279,16.608365 C27.4175549,20.157161 24.1586207,20.0152091 24.1586207,20.0152091 C20.8288401,19.7313054 21.7498433,16.5373891 21.7498433,16.5373891 L23.2376176,11.0722433 C23.7335423,9.22686946 22.3874608,8.30418251 21.2539185,8.30418251 L9.13918495,8.30418251 L8.85579937,9.36882129 L14.0275862,9.36882129 C15.9404389,9.43979721 16.3655172,10.8593156 16.0112853,12.1368821 C16.0112853,12.1368821 15.3736677,14.4081115 14.5943574,17.2471483 C13.8858934,20.0152091 11.3354232,20.086185 10.9103448,20.086185 L5.88025078,20.086185 L5.52601881,21.3637516 L10.2727273,21.3637516 C10.8394984,21.3637516 13.3899687,21.4347275 12.6106583,24.2027883 C11.831348,27.0418251 11.1937304,29.3130545 11.1937304,29.3130545 C10.8394984,30.590621 9.63510972,32.0101394 7.72225705,32.0811153 L2.55047022,32.0811153 L2.26708464,33.1457541 L14.3818182,33.1457541 C15.5153605,33.0747782 17.3573668,32.2230672 17.9241379,30.3776933 L19.4119122,24.9125475 C19.4119122,24.9125475 20.1912226,21.7186312 23.7335423,21.4347275 C23.7335423,21.4347275 27.1341693,21.2217997 26.3548589,24.8415716 L23.0959248,36.765526 C22.4583072,38.9657795 20.4746082,40.3143219 18.5617555,40.3852978 L0.28338558,40.3852978 L0,41.5209125 L21.8206897,41.5209125 C34.7147335,41.0240811 42.7912226,32.0811153 45.8376176,26.4740177 C45.8376176,26.4740177 48.246395,21.9315589 53.4890282,21.5057034 L54.7642633,21.4347275 C54.7642633,21.4347275 54.8351097,21.4347275 54.9059561,21.3637516 C54.9768025,21.1508238 55.1893417,20.2991128 55.1893417,20.2281369 C55.1893417,20.086185 55.1893417,20.086185 55.1184953,20.086185" id="Path" fill="#0A468C" fill-rule="nonzero"></path>
                    <g>
                        <g id="SVGID_1_-link" fill="#0A468C" fill-rule="nonzero">
                            <path d="M55.1184953,20.086185 C55.0476489,20.086185 53.8432602,20.0152091 53.8432602,20.0152091 C48.8131661,19.6603295 48.8840125,15.0468948 48.8840125,15.0468948 C48.9548589,9.43979721 45.7667712,0.496831432 33.1561129,0 L11.4062696,0 L11.122884,1.06463878 L29.4012539,1.06463878 C31.2432602,1.1356147 32.5184953,2.48415716 31.9517241,4.68441065 L28.69279,16.608365 C27.4175549,20.157161 24.1586207,20.0152091 24.1586207,20.0152091 C20.8288401,19.7313054 21.7498433,16.5373891 21.7498433,16.5373891 L23.2376176,11.0722433 C23.7335423,9.22686946 22.3874608,8.30418251 21.2539185,8.30418251 L9.13918495,8.30418251 L8.85579937,9.36882129 L14.0275862,9.36882129 C15.9404389,9.43979721 16.3655172,10.8593156 16.0112853,12.1368821 C16.0112853,12.1368821 15.3736677,14.4081115 14.5943574,17.2471483 C13.8858934,20.0152091 11.3354232,20.086185 10.9103448,20.086185 L5.88025078,20.086185 L5.52601881,21.3637516 L10.2727273,21.3637516 C10.8394984,21.3637516 13.3899687,21.4347275 12.6106583,24.2027883 C11.831348,27.0418251 11.1937304,29.3130545 11.1937304,29.3130545 C10.8394984,30.590621 9.63510972,32.0101394 7.72225705,32.0811153 L2.55047022,32.0811153 L2.26708464,33.1457541 L14.3818182,33.1457541 C15.5153605,33.0747782 17.3573668,32.2230672 17.9241379,30.3776933 L19.4119122,24.9125475 C19.4119122,24.9125475 20.1912226,21.7186312 23.7335423,21.4347275 C23.7335423,21.4347275 27.1341693,21.2217997 26.3548589,24.8415716 L23.0959248,36.765526 C22.4583072,38.9657795 20.4746082,40.3143219 18.5617555,40.3852978 L0.28338558,40.3852978 L0,41.5209125 L21.8206897,41.5209125 C34.7147335,41.0240811 42.7912226,32.0811153 45.8376176,26.4740177 C45.8376176,26.4740177 48.246395,21.9315589 53.4890282,21.5057034 L54.7642633,21.4347275 C54.7642633,21.4347275 54.8351097,21.4347275 54.9059561,21.3637516 C54.9768025,21.1508238 55.1893417,20.2991128 55.1893417,20.2281369 C55.1893417,20.086185 55.1893417,20.086185 55.1184953,20.086185" id="SVGID_1_"></path>
                        </g>
                        <g id="Clipped">
                            <mask id="mask-2" fill="white">
                                <use xlink:href="#path-1"></use>
                            </mask>
                            <g id="SVGID_1_"></g>
                            <rect id="Rectangle" fill="#0A468C" fill-rule="nonzero" mask="url(#mask-2)" x="4.88840125" y="-1.06463878" width="51.0802508" height="21.7896071"></rect>
                        </g>
                    </g>
                </g>
                <g transform="translate(0.000000, 14.195184)" fill="#0A468C" fill-rule="nonzero">
                    <path d="M30.7473354,7.66539924 C30.0388715,6.81368821 28.7636364,5.74904943 26.2840125,5.74904943 L5.88025078,5.74904943 L0,27.2547529 L5.73855799,27.2547529 L10.3435737,10.504436 L15.4445141,10.504436 L10.9103448,27.2547529 L16.6489028,27.2547529 L21.1830721,10.504436 L23.3793103,10.504436 C24.3003135,10.504436 24.937931,10.7173638 25.292163,11.2141952 C25.7880878,11.8529785 25.646395,12.9176172 25.5047022,13.4144487 L21.7498433,27.2547529 L27.4884013,27.2547529 L31.5266458,12.3498099 C31.9517241,10.6463878 31.6683386,8.94296578 30.7473354,7.66539924 Z" id="Path"></path>
                    <path d="M54.4808777,7.878327 C53.4890282,6.60076046 51.6470219,5.82002535 49.6633229,5.82002535 L37.2652038,5.82002535 L36.060815,10.2915082 L46.9003135,10.2915082 C48.0338558,10.2915082 48.8131661,10.5754119 49.2382445,11.0722433 C49.6633229,11.5690748 49.7341693,12.4207858 49.4507837,13.4144487 L49.1673981,14.2661597 L40.0990596,14.2661597 C35.9899687,14.2661597 32.8018809,16.7503169 31.6683386,20.7249683 C31.1015674,22.712294 31.3141066,24.4157161 32.2351097,25.5513308 C33.0852665,26.6869455 34.6438871,27.2547529 36.6275862,27.2547529 L51.3636364,27.2547529 L55.1184953,13.4854246 C55.7561129,11.1432193 55.5435737,9.22686946 54.4808777,7.878327 Z M46.9003135,22.78327 L39.9573668,22.78327 C39.3197492,22.78327 38.3278997,22.712294 37.9736677,22.2154626 C37.7611285,21.9315589 37.6902821,21.4347275 37.8319749,20.7959442 C38.3278997,18.9505703 39.7448276,18.7376426 41.1617555,18.7376426 L48.0338558,18.7376426 L46.9003135,22.78327 Z" id="Shape"></path>
                    <path d="M87.5661442,7.878327 C86.5742947,6.60076046 84.7322884,5.82002535 82.7485893,5.82002535 L70.4213166,5.82002535 L69.2169279,10.2915082 L80.0564263,10.2915082 C81.1899687,10.2915082 81.969279,10.5754119 82.3943574,11.0722433 C82.8194357,11.5690748 82.8902821,12.4207858 82.6068966,13.4144487 L82.3943574,14.2661597 L73.3260188,14.2661597 C69.2169279,14.2661597 66.0288401,16.7503169 64.8952978,20.7249683 C64.3285266,22.712294 64.5410658,24.4157161 65.462069,25.5513308 C66.3122257,26.6869455 67.8708464,27.2547529 69.8545455,27.2547529 L84.5905956,27.2547529 L88.3454545,13.4854246 C88.9122257,11.1432193 88.6996865,9.22686946 87.5661442,7.878327 Z M79.9855799,22.78327 L73.0426332,22.78327 C72.4050157,22.78327 71.4131661,22.712294 71.0589342,22.2154626 C70.846395,21.9315589 70.7755486,21.4347275 70.9172414,20.7959442 C71.4131661,18.9505703 72.830094,18.7376426 74.2470219,18.7376426 L81.1191223,18.7376426 L79.9855799,22.78327 Z" id="Shape"></path>
                    <path d="M107.828213,5.82002535 L103.223197,22.5703422 L97.5554859,22.5703422 C96.6344828,22.5703422 95.9968652,22.3574144 95.6426332,21.860583 C95.0758621,21.2217997 95.2884013,20.157161 95.430094,19.5893536 L99.184953,5.74904943 L93.5172414,5.74904943 L89.6206897,20.086185 C88.9830721,22.2864385 89.1956113,24.0608365 90.1874608,25.2674271 C91.4626959,26.8288973 93.7297806,27.1837769 95.3592476,27.1837769 L101.947962,27.1837769 L101.381191,29.3130545 C101.026959,30.590621 99.539185,32.0101394 97.4137931,32.0101394 L86.8576803,32.0101394 L85.6532915,36.4816223 L97.9097179,36.4816223 C101.310345,36.4816223 105.986207,33.5006337 107.119749,29.2420786 L113.566771,5.74904943 L107.828213,5.82002535 L107.828213,5.82002535 Z" id="Path"></path>
                    <path d="M133.545455,15.9695817 C132.695298,14.833967 131.136677,14.2661597 129.152978,14.2661597 L123.272727,14.2661597 C122.564263,14.2661597 121.572414,14.1951838 121.218182,13.6983523 C121.005643,13.4144487 120.934796,12.9176172 121.076489,12.3498099 C121.572414,10.504436 123.060188,10.2915082 124.477116,10.2915082 L135.883386,10.2915082 L137.087774,5.82002535 L123.41442,5.82002535 C119.305329,5.82002535 116.117241,8.30418251 114.983699,12.278834 C114.416928,14.2661597 114.629467,15.8986058 115.55047,17.1051965 C116.400627,18.2408112 117.959248,18.8086185 119.942947,18.8086185 L125.823197,18.8086185 C126.531661,18.8086185 127.452665,18.8795944 127.877743,19.3764259 C128.090282,19.6603295 128.161129,20.157161 128.019436,20.7959442 C127.523511,22.6413181 126.035737,22.8542459 124.618809,22.8542459 L112.078997,22.8542459 L110.874608,27.3257288 L125.681505,27.3257288 C129.790596,27.3257288 132.978683,24.8415716 134.112226,20.8669202 C134.678997,18.8086185 134.466458,17.1761724 133.545455,15.9695817 Z" id="Path"></path>
                    <polygon id="Path" points="140.842633 5.82002535 135.033229 27.2547529 140.771787 27.2547529 146.581191 5.82002535"></polygon>
                    <path d="M167.693417,7.878327 C166.701567,6.60076046 164.859561,5.82002535 162.875862,5.82002535 L150.477743,5.82002535 L149.273354,10.2915082 L160.112853,10.2915082 C161.246395,10.2915082 162.025705,10.5754119 162.450784,11.0722433 C162.875862,11.5690748 162.946708,12.4207858 162.663323,13.4144487 L162.450784,14.2661597 L153.382445,14.2661597 C149.273354,14.2661597 146.085266,16.7503169 144.951724,20.7249683 C144.384953,22.712294 144.597492,24.4157161 145.518495,25.5513308 C146.368652,26.6869455 147.927273,27.2547529 149.910972,27.2547529 L164.647022,27.2547529 L168.401881,13.4854246 C169.039498,11.1432193 168.756113,9.22686946 167.693417,7.878327 Z M160.112853,22.78327 L153.169906,22.78327 C152.532288,22.78327 151.540439,22.712294 151.186207,22.2154626 C150.973668,21.9315589 150.902821,21.4347275 151.044514,20.7959442 C151.540439,18.9505703 152.957367,18.7376426 154.374295,18.7376426 L161.246395,18.7376426 L160.112853,22.78327 Z" id="Shape"></path>
                    <polygon id="Path" points="62.1322884 0 54.6934169 27.2547529 60.4319749 27.2547529 67.8708464 0"></polygon>
                </g>
                <g transform="translate(107.530875, 43.579214)" fill="#0A468C" fill-rule="nonzero">
                    <path d="M10.1449869,3.40684411 C9.6490621,2.76806084 8.72805896,2.69708492 8.44467338,2.69708492 L2.28103702,2.69708492 L1.92680504,4.04562738 L7.59451664,4.04562738 C8.09044141,4.04562738 8.44467338,4.18757921 8.65721257,4.47148289 C8.79890536,4.68441065 8.79890536,5.03929024 8.72805896,5.32319392 C8.65721257,5.60709759 8.37382699,6.52978454 8.37382699,6.52978454 L4.05219689,6.52978454 C1.99765144,6.52978454 0.58072354,7.59442332 0.0847987747,9.51077313 C-0.12774041,10.4334601 0.0847987747,11.0722433 0.43903075,11.5690748 C0.86410912,12.0659062 1.57257307,12.3498099 2.63526899,12.3498099 L8.44467338,12.3498099 L10.2866797,5.46514575 C10.6409116,4.54245881 10.5700652,3.90367554 10.1449869,3.40684411 Z M7.16943827,11.0012674 L3.41457934,11.0012674 C2.70611539,11.0012674 2.28103702,10.8593156 2.06849783,10.5754119 C1.85595865,10.2915082 1.78511225,9.93662864 1.92680504,9.43979721 C2.21019062,8.37515843 2.98950097,7.878327 4.26473608,7.878327 L8.09044141,7.878327 L7.16943827,11.0012674 Z" id="Shape"></path>
                    <polygon id="Path" points="11.8453003 12.3498099 14.3957706 2.69708492 12.7663035 2.69708492 10.1449869 12.3498099"></polygon>
                    <polygon id="Path" points="21.1970245 12.3498099 24.526805 0 22.897338 0 19.496711 12.3498099"></polygon>
                    <polygon id="Path" points="24.526805 12.3498099 27.0772753 2.69708492 25.4478082 2.69708492 22.8264916 12.3498099"></polygon>
                    <path d="M33.7368364,2.69708492 L28.7067423,2.69708492 L26.0854257,12.3498099 L27.7857392,12.3498099 L30.0528239,4.04562738 L33.1700652,4.04562738 C33.8785292,4.04562738 34.3036076,4.18757921 34.5161467,4.54245881 C34.7995323,4.96831432 34.6578395,5.53612167 34.5161467,6.31685678 L32.8866797,12.3498099 L34.5869931,12.3498099 L36.358153,5.89100127 C36.6415386,4.82636248 36.4998458,4.04562738 36.1456138,3.54879594 C35.6496891,2.98098859 34.8703787,2.69708492 33.7368364,2.69708492 Z" id="Path"></path>
                    <path d="M39.2628552,6.67173638 C39.6879336,5.60709759 40.8214759,4.04562738 42.805175,4.04562738 L46.2058019,4.04562738 L46.5600339,2.69708492 L42.5926358,2.69708492 C39.75878,2.69708492 37.7750809,5.11026616 37.1374634,7.5234474 C36.712385,9.08491762 36.8540778,10.4334601 37.4916953,11.2851711 C37.9876201,11.9949303 38.8377768,12.278834 39.9004728,12.278834 L43.8678709,12.278834 L44.2221028,10.9302915 C44.2221028,10.9302915 41.6007862,10.9302915 40.8214759,10.9302915 C39.9713192,10.9302915 39.404548,10.7173638 39.050316,10.3624842 C38.6252376,9.86565272 38.6252376,9.0139417 38.8377768,8.16223067 L38.8377768,8.09125475 L44.8597204,8.09125475 L45.2139524,6.74271229 L39.2628552,6.74271229 L39.2628552,6.67173638 Z" id="Path"></path>
                    <path d="M55.8409116,4.1166033 L56.1951436,2.76806084 L50.881664,2.76806084 C48.189501,2.76806084 47.3393442,4.54245881 46.9851123,5.53612167 C46.7725731,6.31685678 46.9142659,6.95564005 47.1976514,7.31051965 C47.5518834,7.80735108 48.189501,8.09125475 49.2521969,8.09125475 L51.8735135,8.09125475 C53.4321342,8.09125475 53.219595,9.29784537 53.0779022,9.65272497 C52.6528239,10.8593156 51.3775887,11.0012674 50.0315072,11.0012674 L45.497338,11.0012674 L45.143106,12.3498099 L51.5192815,12.3498099 C53.1487486,12.3498099 54.4948301,11.356147 54.9199085,9.58174905 C55.1324477,8.73003802 54.9199085,8.02027883 54.5656765,7.5234474 C54.2114445,7.09759189 53.573827,6.74271229 52.4402847,6.74271229 L50.1732,6.74271229 C49.9606608,6.74271229 49.1813505,6.74271229 48.9688113,6.3878327 C48.8271185,6.10392902 48.8271185,5.82002535 48.8979649,5.46514575 C49.2521969,4.25855513 50.3148928,4.1166033 50.8108176,4.1166033 C50.8108176,4.1166033 55.8409116,4.1166033 55.8409116,4.1166033 Z" id="Path"></path>
                    <path d="M18.7882471,2.69708492 C15.8835449,2.69708492 15.3167737,5.39416984 15.2459273,5.60709759 C15.1750809,5.82002535 13.403921,12.4207858 13.403921,12.4207858 L15.1042345,12.4207858 C15.1042345,12.4207858 16.804548,6.03295311 16.8753944,5.82002535 C16.9462408,5.53612167 17.4421655,4.04562738 19.0716326,4.04562738 C20.205175,4.04562738 20.4885605,4.04562738 20.4885605,4.04562738 L20.8427925,2.626109 L18.7882471,2.626109 L18.7882471,2.69708492 Z" id="Path"></path>
                </g>
            </g>
        </g>
    </g>
</svg>