<?xml version="1.0" encoding="UTF-8"?>
<svg width="352px" height="72px" viewBox="0 0 352 72" version="1.1" xmlns="http://www.w3.org/2000/svg" xmlns:xlink="http://www.w3.org/1999/xlink">
    <title>Peach</title>
    <g id="Taskboard" stroke="none" stroke-width="1" fill="none" fill-rule="evenodd">
        <g id="Peach">
            <rect id="Rectangle" fill="#FFFFFF" x="0" y="0" width="352" height="72"></rect>
            <g id="logo-peach01" transform="translate(87.000000, 8.000000)" fill="#9B308C" fill-rule="nonzero">
                <path d="M15.5133333,28 C15.5133333,23.929078 14.0216667,20.1560284 11.5355556,17.2765957 C9.04944444,20.1560284 7.55777778,23.929078 7.55777778,28 L7.55777778,56 L15.4138889,56 L15.4138889,28.3971631 C15.5133333,28.1985816 15.5133333,28.0992908 15.5133333,28" id="Path"></path>
                <path d="M24.2644444,11.4184397 C19.8888889,11.4184397 16.0105556,13.106383 13.0272222,15.787234 L13.1266667,15.9858156 C14.9166667,18.070922 16.2094444,20.5531915 16.9055556,23.2340426 C18.4966667,20.8510638 21.1816667,19.3617021 24.165,19.3617021 C29.0377778,19.3617021 32.9161111,23.3333333 32.9161111,28.0992908 C32.9161111,32.964539 28.9383333,36.8368794 24.165,36.8368794 C21.48,36.8368794 19.0933333,35.6453901 17.5022222,33.7588652 L17.5022222,43.2907801 C19.5905556,44.1843972 21.7783333,44.6808511 24.165,44.6808511 C33.3138889,44.6808511 40.7722222,37.2340426 40.7722222,28.0992908 C40.8716667,18.8652482 33.4133333,11.4184397 24.2644444,11.4184397 M66.5283333,33.0638298 C64.9372222,35.3475177 62.3516667,36.8368794 59.3683333,36.8368794 C55.5894444,36.8368794 52.3077778,34.3546099 51.1144444,30.9787234 L75.7766667,30.9787234 C75.9755556,30.0851064 76.075,29.0921986 76.075,28.0992908 C76.075,18.964539 68.6166667,11.5177305 59.4677778,11.5177305 C50.3188889,11.5177305 42.8605556,18.964539 42.8605556,28.0992908 C42.8605556,37.2340426 50.3188889,44.6808511 59.4677778,44.6808511 C66.9261111,44.6808511 73.1911111,39.8156028 75.3788889,33.0638298 L66.5283333,33.0638298 Z M59.3683333,19.2624113 C62.8488889,19.2624113 65.8322222,21.3475177 67.3238889,24.2269504 L51.4127778,24.2269504 C52.805,21.248227 55.8877778,19.2624113 59.3683333,19.2624113 M0,11.4184397 L0,19.3617021 C2.48611111,19.7588652 4.67388889,21.1489362 6.06611111,23.2340426 C6.76222222,20.5531915 8.055,18.070922 9.845,15.9858156 L9.94444444,15.787234 C7.35888889,13.3049645 3.87833333,11.7163121 0,11.4184397 M136.338333,33.6595745 C134.747222,35.5460993 132.261111,36.8368794 129.576111,36.8368794 C124.703333,36.8368794 120.825,32.8652482 120.825,28.0992908 C120.825,23.3333333 124.802778,19.3617021 129.576111,19.3617021 C132.261111,19.3617021 134.747222,20.5531915 136.338333,22.5390071 L145.288333,22.5390071 C143.001111,16.0851064 136.835556,11.5177305 129.576111,11.5177305 C120.427222,11.5177305 112.968889,18.964539 112.968889,28.0992908 C112.968889,37.2340426 120.427222,44.6808511 129.576111,44.6808511 C136.835556,44.6808511 142.901667,40.1134752 145.288333,33.6595745 L136.338333,33.6595745 Z M111.079444,27.9007092 C111.079444,18.7659574 103.621111,11.3191489 94.4722222,11.3191489 C85.3233333,11.3191489 77.865,18.7659574 77.865,27.9007092 C77.865,37.035461 85.3233333,44.4822695 94.4722222,44.4822695 C96.8588889,44.4822695 99.1461111,43.9858156 101.135,43.0921986 L101.135,33.5602837 C99.5438889,35.4468085 97.1572222,36.6382979 94.4722222,36.6382979 C89.5994444,36.6382979 85.7211111,32.6666667 85.7211111,27.9007092 C85.7211111,23.035461 89.6988889,19.1631206 94.4722222,19.1631206 C99.345,19.1631206 103.223333,23.035461 103.223333,27.9007092 L103.223333,43.8865248 L111.079444,43.8865248 L111.079444,27.9007092 Z M148.072778,0 L155.928889,0 L155.928889,43.9858156 L148.072778,43.9858156 L148.072778,0 Z M179,27.9007092 C179,18.7659574 172.038889,11.3191489 163.486667,11.3191489 C161.597222,11.3191489 159.707778,11.7163121 158.017222,12.4113475 L158.017222,21.9432624 C159.409444,20.2553191 161.398333,19.2624113 163.486667,19.2624113 C167.663333,19.2624113 171.044444,23.2340426 171.044444,28 L171.044444,43.9858156 L178.900556,43.9858156 L179,27.9007092 Z" id="Shape"></path>
            </g>
        </g>
    </g>
</svg>