<?xml version="1.0" encoding="UTF-8"?>
<svg width="352px" height="72px" viewBox="0 0 352 72" version="1.1" xmlns="http://www.w3.org/2000/svg" xmlns:xlink="http://www.w3.org/1999/xlink">
    <title>Qantas</title>
    <defs>
        <path d="M-1.78863176e-15,0 L-1.78863176e-15,0 L-1.78863176e-15,0 L0.631786772,1.6575 L3.53800592,9.3075 L19.2063179,51 L71.0128332,51 L29.5676209,8.925 C24.0078973,3.315 16.4264561,0 8.5923001,0 L-1.78863176e-15,0 Z" id="path-1"></path>
        <linearGradient x1="62.4488861%" y1="68.2608091%" x2="33.2170428%" y2="25.3504392%" id="linearGradient-3">
            <stop stop-color="#BE0000" offset="0%"></stop>
            <stop stop-color="#DD0000" offset="38.28%"></stop>
            <stop stop-color="#F60000" offset="76.63%"></stop>
            <stop stop-color="#FF0000" offset="100%"></stop>
        </linearGradient>
        <rect id="path-4" x="7.18959826e-15" y="0" width="256" height="51"></rect>
        <path d="M0,1.785 L0,5.355 L0,5.355 C1.51628825,4.845 3.28529121,4.59 4.80157947,4.335 L4.80157947,2.295 C4.80157947,2.295 2.40078973,2.4225 1.01085884,0 C1.51628825,0.765 1.01085884,1.785 0,1.785" id="path-6"></path>
        <linearGradient x1="45.6809144%" y1="96.3241487%" x2="52.7559736%" y2="8.49625896%" id="linearGradient-8">
            <stop stop-color="#FFFFFF" offset="0%"></stop>
            <stop stop-color="#FFFFFF" offset="65%"></stop>
            <stop stop-color="#E0E0E0" offset="72.82%"></stop>
            <stop stop-color="#C5C5C5" offset="81.47%"></stop>
            <stop stop-color="#B5B5B5" offset="89.15%"></stop>
            <stop stop-color="#AFAFAF" offset="95%"></stop>
            <stop stop-color="#AFAFAF" offset="100%"></stop>
        </linearGradient>
        <path d="M0,0.255 C7.96051333,1.785 15.6683119,5.2275 22.3652517,10.71 C11.4985192,1.4025 4.92793682,0 1.89536032,0 C0.884501481,0 0.126357354,0.255 0,0.255" id="path-9"></path>
        <linearGradient x1="0.180227345%" y1="50.4623156%" x2="100.426351%" y2="50.4623156%" id="linearGradient-11">
            <stop stop-color="#FFFFFF" offset="0%"></stop>
            <stop stop-color="#F1F1F1" offset="8.327577%"></stop>
            <stop stop-color="#D4D4D4" offset="29.19%"></stop>
            <stop stop-color="#C0C0C0" offset="49.94%"></stop>
            <stop stop-color="#B3B3B3" offset="70.35%"></stop>
            <stop stop-color="#AFAFAF" offset="90%"></stop>
            <stop stop-color="#AFAFAF" offset="100%"></stop>
        </linearGradient>
        <path d="M4.20854533e-16,-5.66213743e-16 L2.90621915,7.65 C8.5923001,17.4675 23.5024679,18.4875 25.1451135,33.66 C23.5024679,14.28 15.0365252,17.2125 5.93879566,8.2875 C3.53800592,6.5025 1.51628825,4.08 4.20854533e-16,-5.66213743e-16 Z" id="path-12"></path>
        <linearGradient x1="-0.103525253%" y1="49.7791109%" x2="100.059623%" y2="49.7791109%" id="linearGradient-14">
            <stop stop-color="#FFFFFF" offset="0%"></stop>
            <stop stop-color="#FFFFFF" offset="25%"></stop>
            <stop stop-color="#ECECEC" offset="46.49%"></stop>
            <stop stop-color="#BBBBBB" offset="89.83%"></stop>
            <stop stop-color="#AFAFAF" offset="100%"></stop>
        </linearGradient>
        <rect id="path-15" x="7.18959826e-15" y="0" width="256" height="51"></rect>
        <rect id="path-17" x="7.18959826e-15" y="0" width="256" height="51"></rect>
        <rect id="path-19" x="7.18959826e-15" y="0" width="256" height="51"></rect>
        <rect id="path-21" x="7.18959826e-15" y="0" width="256" height="51"></rect>
        <rect id="path-23" x="7.18959826e-15" y="0" width="256" height="51"></rect>
        <rect id="path-25" x="7.18959826e-15" y="0" width="256" height="51"></rect>
    </defs>
    <g id="Taskboard" stroke="none" stroke-width="1" fill="none" fill-rule="evenodd">
        <g id="Qantas">
            <rect id="Rectangle" fill="#FFFFFF" x="0" y="0" width="352" height="72"></rect>
            <g id="qantas-masterbrand-logo-40px" transform="translate(48.000000, 10.000000)">
                <g id="Clipped" transform="translate(0.000000, 0.000000)">
                    <mask id="mask-2" fill="white">
                        <use xlink:href="#path-1"></use>
                    </mask>
                    <g id="SVGID_1_"></g>
                    <polygon id="Path" fill="url(#linearGradient-3)" fill-rule="nonzero" mask="url(#mask-2)" points="22.6179664 84.405 -23.6288253 16.32 48.3948667 -33.405 94.6416584 34.68"></polygon>
                </g>
                <g id="Clipped">
                    <mask id="mask-5" fill="white">
                        <use xlink:href="#path-4"></use>
                    </mask>
                    <g id="SVGID_4_"></g>
                    <path d="M3.53800592,9.3075 C9.22408687,19.125 24.1342547,20.145 25.7769003,35.3175 C25.9032577,35.955 26.2823297,36.465 26.9141165,36.5925 C35.5064166,37.995 43.846002,41.565 51.1747285,47.43 L51.1747285,47.43 C51.1747285,47.43 51.3010859,47.43 51.3010859,47.43 C51.4274432,47.43 51.4274432,47.43 51.4274432,47.3025 C51.5538006,47.175 51.5538006,47.0475 51.4274432,46.92 C46.3731491,41.565 40.3079961,37.3575 33.3583416,34.5525 L31.2102665,33.66 C30.0730503,33.2775 29.4412636,32.13 29.4412636,30.855 C29.5676209,26.265 40.1816387,27.285 41.3188549,24.99 L41.4452122,24.6075 C39.2971372,22.695 36.6436328,21.2925 33.7374136,20.5275 C33.7374136,20.655 33.6110563,21.165 34.242843,22.185 C34.8746298,23.205 33.6110563,24.8625 31.5893386,23.0775 L31.4629812,23.0775 C17.0582428,9.8175 6.31786772,16.7025 0.631786772,1.785 L3.53800592,9.3075 Z" id="Path" fill="#FFFFFF" fill-rule="nonzero" mask="url(#mask-5)"></path>
                </g>
                <g id="Clipped" transform="translate(33.231984, 22.185000)">
                    <mask id="mask-7" fill="white">
                        <use xlink:href="#path-6"></use>
                    </mask>
                    <g id="SVGID_6_"></g>
                    <polygon id="Path" fill="url(#linearGradient-8)" fill-rule="nonzero" mask="url(#mask-7)" points="-0.379072063 5.355 0.126357354 -0.255 5.30700888 0.1275 4.80157947 5.865"></polygon>
                </g>
                <g id="Clipped" transform="translate(28.556762, 36.592500)">
                    <mask id="mask-10" fill="white">
                        <use xlink:href="#path-9"></use>
                    </mask>
                    <g id="SVGID_13_"></g>
                    <rect id="Rectangle" fill="url(#linearGradient-11)" fill-rule="nonzero" mask="url(#mask-10)" x="0" y="0" width="22.3652517" height="10.71"></rect>
                </g>
                <g id="Clipped" transform="translate(0.631787, 1.785000)">
                    <mask id="mask-13" fill="white">
                        <use xlink:href="#path-12"></use>
                    </mask>
                    <g id="SVGID_18_"></g>
                    <rect id="Rectangle" fill="url(#linearGradient-14)" fill-rule="nonzero" mask="url(#mask-13)" x="4.20854533e-16" y="-5.66213743e-16" width="25.0187562" height="33.66"></rect>
                </g>
                <g id="Group">
                    <g id="Clipped">
                        <mask id="mask-16" fill="white">
                            <use xlink:href="#path-15"></use>
                        </mask>
                        <g id="SVGID_23_"></g>
                        <path d="M76.3198421,41.6925 C66.0848963,41.6925 59.5143139,36.3375 59.5143139,29.58 C59.5143139,22.695 66.4639684,17.4675 76.5725568,17.4675 C86.6811451,17.4675 93.6307996,22.695 93.6307996,29.325 C93.6307996,32.2575 92.3672261,34.68 89.840079,36.72 L95.905232,36.72 L94.5153011,39.27 C93.6307996,40.8 92.4935834,41.82 90.0927937,41.82 L76.3198421,41.82 L76.3198421,41.6925 Z M76.5725568,36.0825 C82.1322804,36.0825 86.9338598,33.2775 86.9338598,29.4525 C86.9338598,25.6275 82.2586377,22.8225 76.5725568,22.8225 C71.0128332,22.8225 66.2112537,25.6275 66.2112537,29.4525 C66.3376111,33.405 71.0128332,36.0825 76.5725568,36.0825" id="Shape" fill="#323232" fill-rule="nonzero" mask="url(#mask-16)"></path>
                    </g>
                    <g id="Clipped">
                        <mask id="mask-18" fill="white">
                            <use xlink:href="#path-17"></use>
                        </mask>
                        <g id="SVGID_23_"></g>
                        <path d="M121.050346,37.485 L105.002962,37.485 L102.728529,41.565 L95.905232,41.565 L107.151037,22.0575 C108.035538,20.5275 109.299112,19.38 111.826259,19.38 L114.353406,19.38 C116.880553,19.38 118.144126,20.5275 119.028628,22.0575 L130.274432,41.565 L123.451135,41.565 L121.050346,37.485 Z M107.656466,32.64 L118.270484,32.64 L113.342547,23.715 C113.21619,23.46 113.089832,23.46 112.963475,23.46 C112.837117,23.46 112.71076,23.46 112.584403,23.715 L107.656466,32.64 Z" id="Shape" fill="#323232" fill-rule="nonzero" mask="url(#mask-18)"></path>
                    </g>
                    <g id="Clipped">
                        <mask id="mask-20" fill="white">
                            <use xlink:href="#path-19"></use>
                        </mask>
                        <g id="SVGID_23_"></g>
                        <path d="M161.990128,19.38 L161.990128,41.6925 L156.051333,41.6925 L138.48766,26.9025 L138.48766,41.6925 L132.548865,41.6925 L132.548865,19.38 L136.339585,19.38 C138.234946,19.38 139.245805,19.89 140.256663,20.7825 L156.051333,34.0425 L156.051333,19.38 L161.990128,19.38 Z" id="Path" fill="#323232" fill-rule="nonzero" mask="url(#mask-20)"></path>
                    </g>
                    <g id="Clipped">
                        <mask id="mask-22" fill="white">
                            <use xlink:href="#path-21"></use>
                        </mask>
                        <g id="SVGID_23_"></g>
                        <polygon id="Path" fill="#323232" fill-rule="nonzero" mask="url(#mask-22)" points="183.344521 24.3525 183.344521 41.6925 177.279368 41.6925 177.279368 24.3525 165.022705 24.3525 165.022705 19.38 195.601185 19.38 195.601185 24.3525"></polygon>
                    </g>
                    <g id="Clipped">
                        <mask id="mask-24" fill="white">
                            <use xlink:href="#path-23"></use>
                        </mask>
                        <g id="SVGID_23_"></g>
                        <path d="M215.439289,37.485 L199.265548,37.485 L196.991115,41.565 L190.294176,41.565 L201.53998,22.0575 C202.424482,20.5275 203.688055,19.38 206.215202,19.38 L208.742349,19.38 C211.269497,19.38 212.53307,20.5275 213.417572,22.0575 L224.663376,41.565 L217.840079,41.565 L215.439289,37.485 Z M202.04541,32.64 L212.659427,32.64 L207.731491,23.715 C207.605133,23.46 207.478776,23.46 207.352419,23.46 C207.226061,23.46 207.099704,23.46 206.973346,23.715 L202.04541,32.64 Z" id="Shape" fill="#323232" fill-rule="nonzero" mask="url(#mask-24)"></path>
                    </g>
                    <g id="Clipped">
                        <mask id="mask-26" fill="white">
                            <use xlink:href="#path-25"></use>
                        </mask>
                        <g id="SVGID_23_"></g>
                        <path d="M226.685094,40.035 L226.179664,39.9075 L227.695953,35.0625 C231.992103,36.465 236.540967,36.975 240.71076,36.975 C247.534057,36.975 249.176703,36.21 249.176703,35.3175 C249.176703,34.935 248.923988,34.68 248.418559,34.5525 C247.786772,34.2975 245.891412,33.915 240.331688,33.0225 C234.140178,32.0025 231.360316,31.4925 229.338598,30.6 C227.316881,29.7075 226.053307,28.1775 226.053307,25.8825 C226.053307,24.225 226.937808,22.8225 228.201382,21.8025 C230.602172,20.0175 234.645607,19.2525 238.941757,19.2525 C244.627838,19.2525 249.30306,19.7625 254.610069,21.0375 L255.115499,21.165 L253.851925,25.8825 C247.913129,24.6075 244.754195,24.225 240.205331,24.225 C237.046397,24.225 234.898322,24.48 233.761106,24.735 C233.129319,24.99 232.876604,25.245 232.876604,25.6275 C232.876604,26.01 233.129319,26.265 233.761106,26.52 C234.51925,26.775 235.656466,27.03 241.595262,28.05 C248.165844,29.07 250.313919,29.58 252.082922,30.2175 C254.483712,31.11 256,32.895 256,35.0625 C256,37.8675 253.851925,39.9075 250.187562,41.055 C247.913129,41.6925 244.880553,42.075 241.468904,42.075 C236.035538,41.9475 230.349457,41.1825 226.685094,40.035" id="Path" fill="#323232" fill-rule="nonzero" mask="url(#mask-26)"></path>
                    </g>
                </g>
            </g>
        </g>
    </g>
</svg>