<?xml version="1.0" encoding="UTF-8"?>
<svg width="352px" height="72px" viewBox="0 0 352 72" version="1.1" xmlns="http://www.w3.org/2000/svg" xmlns:xlink="http://www.w3.org/1999/xlink">
    <title>Republic</title>
    <g id="Taskboard" stroke="none" stroke-width="1" fill="none" fill-rule="evenodd">
        <g id="Republic">
            <rect id="Rectangle" fill="#FFFFFF" x="0" y="0" width="352" height="72"></rect>
            <g id="Republic_Airways_2019_Logo" transform="translate(75.000000, 8.000000)" fill-rule="nonzero">
                <g id="Group" fill="#BCBEC0">
                    <polygon id="Path" points="30.3893805 3.15744681 33.6666667 3.09787234 30.9852507 5.06382979 32.0578171 8.16170213 29.3764012 6.19574468 26.7545723 8.16170213 27.7675516 5.06382979 25.0861357 3.09787234 28.4230088 3.15744681 29.3764012 0"></polygon>
                    <polygon id="Path" points="30.3893805 50.9957447 33.6666667 50.9957447 30.9852507 52.9021277 32.0578171 56 29.3764012 54.093617 26.7545723 56 27.7675516 52.9021277 25.0861357 50.9957447 28.4230088 50.9957447 29.3764012 47.8382979"></polygon>
                    <polygon id="Path" points="45.4648968 9.29361702 46.4182891 6.19574468 47.4312684 9.29361702 50.7681416 9.29361702 48.0867257 11.2 49.099705 14.2978723 46.4778761 12.3914894 43.7964602 14.3574468 44.8690265 11.2 42.1876106 9.29361702"></polygon>
                    <polygon id="Path" points="10.7852507 9.29361702 11.7982301 6.19574468 12.8112094 9.29361702 16.0884956 9.29361702 13.4070796 11.2 14.479646 14.2978723 11.7982301 12.3914894 9.17640118 14.3574468 10.1893805 11.2 7.5079646 9.29361702"></polygon>
                    <polygon id="Path" points="45.4648968 43.906383 46.4182891 40.7489362 47.4312684 43.8468085 50.7681416 43.8468085 48.0867257 45.7531915 49.099705 48.9106383 46.4778761 46.9446809 43.7964602 48.9106383 44.8690265 45.7531915 42.1876106 43.906383"></polygon>
                    <polygon id="Path" points="10.7852507 43.906383 11.7982301 40.7489362 12.8112094 43.8468085 16.0884956 43.8468085 13.4070796 45.7531915 14.479646 48.9106383 11.7982301 46.9446809 9.17640118 48.9106383 10.1893805 45.7531915 7.5079646 43.906383"></polygon>
                    <polygon id="Path" points="3.27728614 26.8085106 4.29026549 23.6510638 5.30324484 26.8085106 8.58053097 26.7489362 5.89911504 28.7148936 6.97168142 31.812766 4.29026549 29.8468085 1.66843658 31.8723404 2.68141593 28.7148936 0 26.8085106"></polygon>
                </g>
                <g id="Group" transform="translate(25.026549, 16.561702)" fill="#00263A">
                    <path d="M2.14513274,17.2765957 L0,17.2765957 L3.27728614,0.953191489 L9.2359882,0.953191489 C12.1557522,0.953191489 13.4666667,2.56170213 13.4666667,4.88510638 C13.4666667,7.38723404 11.8578171,9.65106383 9.2359882,10.187234 L11.559882,17.2170213 L9.2359882,17.2170213 L7.15044248,10.4255319 L3.63480826,10.4255319 L2.14513274,17.2765957 Z M8.04424779,8.51914894 C9.5339233,8.51914894 10.5469027,7.74468085 10.8448378,6.31489362 C11.0235988,5.36170213 11.0831858,5.00425532 11.0831858,4.64680851 C11.0831858,3.57446809 10.5469027,2.85957447 8.99764012,2.85957447 L5.00530973,2.85957447 L3.87315634,8.51914894 L8.04424779,8.51914894 Z" id="Shape"></path>
                    <path d="M14.300885,12.4510638 C14.300885,8.45957447 16.8631268,4.88510638 20.6766962,4.88510638 C22.7026549,4.88510638 24.6690265,5.89787234 24.6690265,8.16170213 C24.6690265,10.7829787 22.0471976,12.093617 16.4460177,12.1531915 C16.3864307,12.4510638 16.3864307,12.8085106 16.3864307,13.0468085 C16.3864307,14.6553191 17.280236,15.7276596 19.1274336,15.7276596 C20.5575221,15.7276596 21.7492625,15.012766 22.7026549,13.8212766 L24.0135693,15.012766 C22.5238938,16.8595745 20.7958702,17.5148936 19.0082596,17.5148936 C16.0289086,17.5744681 14.300885,15.7276596 14.300885,12.4510638 Z M16.8631268,10.0085106 L16.6843658,10.6638298 C21.5705015,10.4851064 22.5238938,9.77021277 22.5238938,8.2212766 C22.5238938,6.97021277 21.5109145,6.61276596 20.4383481,6.61276596 C18.7103245,6.61276596 17.280236,7.92340426 16.8631268,10.0085106 Z" id="Shape"></path>
                    <path d="M28.4230088,5.18297872 L30.5085546,5.18297872 L29.9722714,7.86382979 L30.0914454,7.86382979 C31.0448378,5.83829787 32.1769912,4.88510638 33.9646018,4.88510638 C36.1693215,4.88510638 37.539823,6.61276596 37.539823,9.41276596 C37.539823,13.2851064 35.5138643,17.5744681 31.700295,17.5744681 C30.2106195,17.5744681 28.899705,16.8 28.5421829,15.3106383 L28.4230088,15.3106383 L27.1120944,21.9829787 L25.0265487,21.9829787 L28.4230088,5.18297872 Z M34.9775811,12.2723404 L35.3351032,10.5446809 C35.4542773,10.0680851 35.4542773,9.7106383 35.4542773,9.35319149 C35.4542773,7.86382979 34.7988201,6.79148936 33.3091445,6.79148936 C32.2365782,6.79148936 31.5215339,7.26808511 30.8660767,7.98297872 C30.1510324,8.75744681 29.6743363,9.59148936 29.3764012,10.8425532 L28.840118,13.4042553 C28.6017699,14.4765957 29.4955752,15.787234 31.3427729,15.787234 C33.3091445,15.7276596 34.560472,14.4765957 34.9775811,12.2723404 Z" id="Shape"></path>
                    <path d="M43.7964602,5.18297872 L42.3067847,12.5702128 C42.1876106,13.0468085 42.1876106,13.5234043 42.1876106,13.8212766 C42.1876106,15.0723404 42.6643068,15.7276596 43.8560472,15.7276596 C44.6902655,15.7276596 45.3457227,15.3702128 46.0011799,14.7148936 C46.7758112,13.9404255 47.3120944,12.987234 47.5504425,11.8553191 L48.8613569,5.18297872 L50.9469027,5.18297872 L48.8613569,15.4893617 L50.4702065,15.4893617 L50.1126844,17.2765957 L48.3846608,17.2765957 C47.3120944,17.2765957 46.7162242,16.6808511 46.7162242,15.7276596 C46.7162242,15.5489362 46.7758112,15.3106383 46.8353982,15.0723404 L46.8949853,14.8340426 L46.7758112,14.8340426 C45.9415929,16.6808511 44.8094395,17.5744681 43.0814159,17.5744681 C41.0554572,17.5744681 40.0424779,16.3234043 40.0424779,14.2382979 C40.0424779,13.7617021 40.1020649,13.2255319 40.2212389,12.6297872 L41.7109145,5.12340426 L43.7964602,5.18297872 L43.7964602,5.18297872 Z" id="Path"></path>
                    <path d="M56.0713864,2.11651028e-15 L58.1569322,2.11651028e-15 L56.6076696,7.86382979 L56.7268437,7.86382979 C57.680236,5.83829787 58.8719764,4.94468085 60.659587,4.94468085 C62.8643068,4.94468085 64.2348083,6.67234043 64.2348083,9.47234043 C64.2348083,13.3446809 62.2088496,17.6340426 58.3952802,17.6340426 C56.9056047,17.6340426 55.5946903,16.8595745 55.2371681,15.3702128 L55.1179941,15.3702128 L54.700885,17.3957447 L52.6153392,17.3957447 L56.0713864,2.11651028e-15 Z M61.6129794,12.2723404 L61.9705015,10.5446809 C62.0896755,10.0680851 62.0896755,9.7106383 62.0896755,9.35319149 C62.0896755,7.86382979 61.4342183,6.79148936 59.9445428,6.79148936 C58.8719764,6.79148936 58.1569322,7.26808511 57.5014749,7.98297872 C56.7864307,8.69787234 56.3097345,9.59148936 56.0117994,10.8425532 L55.4755162,13.4042553 C55.2371681,14.4765957 56.1309735,15.787234 57.9781711,15.787234 C59.9445428,15.7276596 61.1362832,14.4765957 61.6129794,12.2723404 Z" id="Shape"></path>
                    <path d="M68.1079646,17.2765957 C66.9758112,17.2765957 66.379941,16.6212766 66.379941,15.7276596 C66.379941,15.5489362 66.379941,15.4297872 66.439528,15.1914894 L69.4784661,0 L71.5640118,0 L68.4654867,15.4893617 L70.1935103,15.4893617 L69.8359882,17.2765957 L68.1079646,17.2765957 Z" id="Path"></path>
                    <path d="M74.3050147,17.2765957 C73.1728614,17.2765957 72.5769912,16.6212766 72.5769912,15.7276596 C72.5769912,15.5489362 72.5769912,15.3702128 72.6365782,15.2510638 L74.6625369,5.18297872 L76.7480826,5.18297872 L74.6625369,15.4893617 L76.2713864,15.4893617 L75.9138643,17.2765957 L74.3050147,17.2765957 Z M75.139233,1.72765957 C75.139233,1.54893617 75.139233,1.42978723 75.2584071,1.07234043 C75.3775811,0.476595745 75.7946903,0 76.6884956,0 C77.5227139,0 77.820649,0.417021277 77.820649,0.893617021 C77.820649,1.07234043 77.820649,1.19148936 77.7014749,1.54893617 C77.5823009,2.14468085 77.1651917,2.6212766 76.2713864,2.6212766 C75.4371681,2.6212766 75.139233,2.20425532 75.139233,1.72765957 Z" id="Shape"></path>
                    <path d="M78.7740413,12.5702128 C78.7740413,8.34042553 81.1575221,4.88510638 84.7923304,4.88510638 C86.9374631,4.88510638 88.4271386,6.07659574 88.9038348,7.74468085 L87.1758112,8.51914894 C86.8182891,7.32765957 86.1032448,6.67234043 84.7923304,6.67234043 C83.0047198,6.67234043 81.8725664,7.92340426 81.4554572,9.94893617 L81.0383481,11.9148936 C80.9787611,12.212766 80.919174,12.6893617 80.919174,12.9276596 C80.919174,14.5361702 81.7533923,15.6680851 83.5410029,15.6680851 C84.7327434,15.6680851 85.6265487,15.0723404 86.460767,13.4042553 L88.0696165,14.1787234 C87.0566372,16.2638298 85.3882006,17.4553191 83.3026549,17.4553191 C80.5616519,17.5744681 78.7740413,15.6680851 78.7740413,12.5702128 Z" id="Path"></path>
                    <path d="M105.40944,17.2765957 L104.873156,12.6893617 L98.7356932,12.6893617 L96.3522124,17.2765957 L94.0283186,17.2765957 L102.668437,0.953191489 L105.528614,0.953191489 L107.673746,17.2765957 L105.40944,17.2765957 Z M103.741003,2.9787234 L103.621829,2.9787234 L99.6890855,10.7234043 L104.634808,10.7234043 L103.741003,2.9787234 Z" id="Shape"></path>
                    <path d="M112.142773,17.2765957 C111.010619,17.2765957 110.414749,16.6212766 110.414749,15.7276596 C110.414749,15.5489362 110.414749,15.3702128 110.474336,15.2510638 L112.500295,5.18297872 L114.585841,5.18297872 L112.500295,15.4893617 L114.109145,15.4893617 L113.751622,17.2765957 L112.142773,17.2765957 Z M113.036578,1.72765957 C113.036578,1.54893617 113.036578,1.42978723 113.155752,1.07234043 C113.274926,0.476595745 113.692035,0 114.585841,0 C115.420059,0 115.717994,0.417021277 115.717994,0.893617021 C115.717994,1.07234043 115.717994,1.19148936 115.59882,1.54893617 C115.479646,2.14468085 115.062537,2.6212766 114.168732,2.6212766 C113.334513,2.6212766 113.036578,2.20425532 113.036578,1.72765957 Z" id="Shape"></path>
                    <path d="M116.313864,17.2765957 L118.756932,5.18297872 L120.842478,5.18297872 L120.365782,7.62553191 L120.484956,7.62553191 C121.140413,6.37446809 122.093805,5.18297872 124.060177,5.18297872 L124.775221,5.18297872 L124.358112,7.26808511 L123.523894,7.26808511 C121.319174,7.26808511 120.187021,8.51914894 119.829499,10.2468085 L118.39941,17.2765957 L116.313864,17.2765957 Z" id="Path"></path>
                    <polygon id="Path" points="126.086136 5.18297872 128.112094 5.18297872 128.350442 10.7829787 128.469617 15.1914894 128.588791 15.1914894 130.376401 11.3191489 133.236578 5.18297872 135.262537 5.18297872 135.739233 10.9617021 136.037168 15.1319149 136.156342 15.1319149 137.884366 11.1404255 140.506195 5.18297872 142.532153 5.18297872 136.99056 17.2765957 134.60708 17.2765957 134.070796 11.2 133.892035 7.92340426 133.772861 7.92340426 132.342773 11.0808511 129.303835 17.2765957 126.80118 17.2765957"></polygon>
                    <path d="M151.708555,17.2765957 C150.635988,17.2765957 150.040118,16.6808511 150.040118,15.7276596 C150.040118,15.5489362 150.040118,15.3702128 150.099705,15.1319149 L150.218879,14.5957447 L150.159292,14.5957447 C149.2059,16.6212766 148.014159,17.5148936 146.226549,17.5148936 C144.021829,17.5148936 142.651327,15.787234 142.651327,12.987234 C142.651327,9.11489362 144.677286,4.82553191 148.490855,4.82553191 C149.980531,4.82553191 151.291445,5.6 151.648968,7.0893617 L151.768142,7.0893617 L152.185251,5.06382979 L154.270796,5.06382979 L152.185251,15.3702128 L153.7941,15.3702128 L153.436578,17.1574468 L151.708555,17.1574468 L151.708555,17.2765957 L151.708555,17.2765957 Z M149.325074,14.5361702 C150.099705,13.7617021 150.516814,12.9276596 150.814749,11.6765957 L151.351032,9.11489362 C151.589381,8.04255319 150.695575,6.73191489 148.848378,6.73191489 C146.941593,6.73191489 145.690265,7.92340426 145.273156,10.187234 L144.915634,11.9148936 C144.79646,12.3914894 144.79646,12.7489362 144.79646,13.106383 C144.79646,14.5957447 145.451917,15.6680851 146.941593,15.6680851 C147.954572,15.7276596 148.669617,15.1914894 149.325074,14.5361702 Z" id="Shape"></path>
                    <path d="M165.175221,5.18297872 L167.379941,5.18297872 L159.335693,19.8978723 C158.501475,21.387234 157.786431,21.9829787 156.415929,21.9829787 L154.568732,21.9829787 L154.926254,20.1957447 L157.071386,20.1957447 L158.382301,17.7531915 L156.535103,5.18297872 L158.561062,5.18297872 L159.39528,10.9021277 L159.871976,15.3702128 L159.99115,15.3702128 L162.136283,10.9021277 L165.175221,5.18297872 Z" id="Path"></path>
                    <path d="M166.784071,15.3702128 L168.214159,14.1191489 C168.988791,15.1914894 170.061357,15.787234 171.491445,15.787234 C173.040708,15.787234 174.113274,15.012766 174.113274,13.7021277 C174.113274,12.9276596 173.755752,12.3914894 172.504425,12.1531915 L171.551032,11.9744681 C169.703835,11.6170213 168.333333,10.7829787 168.333333,8.81702128 C168.333333,6.73191489 169.823009,4.88510638 172.921534,4.88510638 C174.709145,4.88510638 176.020059,5.54042553 176.973451,6.73191489 L175.543363,7.98297872 C175.00708,7.20851064 174.113274,6.67234043 172.742773,6.67234043 C171.133923,6.67234043 170.299705,7.44680851 170.299705,8.5787234 C170.299705,9.35319149 170.657227,9.8893617 171.908555,10.1276596 L172.861947,10.306383 C174.828319,10.6638298 176.079646,11.4978723 176.079646,13.5234043 C176.079646,15.906383 174.232448,17.5744681 171.431858,17.5744681 C169.525074,17.5744681 167.737463,16.8 166.784071,15.3702128 Z" id="Path"></path>
                </g>
            </g>
        </g>
    </g>
</svg>