<?xml version="1.0" encoding="UTF-8"?>
<svg width="352px" height="72px" viewBox="0 0 352 72" version="1.1" xmlns="http://www.w3.org/2000/svg" xmlns:xlink="http://www.w3.org/1999/xlink">
    <title>Rex</title>
    <g id="Taskboard" stroke="none" stroke-width="1" fill="none" fill-rule="evenodd">
        <g id="Rex">
            <rect id="Rectangle" fill="#FFFFFF" x="0" y="0" width="352" height="72"></rect>
            <g transform="translate(88.000000, 8.000000)" fill-rule="nonzero">
                <path d="M175.999881,39.6061091 C176.019666,42.166462 173.573651,44.2606794 170.912922,44.285877 C168.253577,44.3096857 166.075815,42.2546734 166.053497,39.7026932 C166.033711,37.1395626 168.17119,35.0453452 170.834729,35.022965 C173.496883,34.9991563 175.978948,37.0513512 175.999881,39.6061091" id="path22442" fill="#F47920"></path>
                <path d="M157.47236,51.9245562 C157.475169,51.9047156 157.47236,51.884875 157.47236,51.8757483 C157.464445,51.7638472 157.452574,51.6614696 157.436745,51.5539334 C157.432788,51.5380609 157.424874,51.5221884 157.424874,51.5051255 C157.265798,50.5392046 156.848321,49.6992717 156.569107,49.2415486 C148.725063,36.3011773 136.753107,26.097542 136.753107,26.097542 C136.753107,26.097542 136.358186,25.6761669 136.570288,25.4829986 C136.77685,25.2869733 139.161214,23.6743672 139.709869,23.3594171 C140.258484,23.0344277 143.459479,21.1168316 144.517613,20.589071 C147.70464,18.994639 151.4459,18.8462311 151.286745,16.2298879 C151.215517,14.9308033 149.780467,13.9438911 149.082509,13.6625511 C143.367318,11.3625468 135.354383,16.5742418 134.252958,17.2112051 C133.136179,17.8621362 130.712719,19.6021588 130.441894,19.7981445 C130.165291,19.9898049 129.984015,20.1465458 129.605714,19.8060807 C128.031057,18.4090232 121.656965,14.1198378 113.650995,9.87263511 C105.639446,5.62824983 95.997404,1.4328709 88.9420933,0.146365267 C87.0812172,-0.189734874 84.4540049,-0.100055262 83.5214696,2.09078593 C82.8793078,3.59565745 83.3568533,5.52186442 85.8611574,6.6711523 C87.7527012,7.53767164 95.5716177,9.18809396 107.80043,15.4315013 C113.09399,18.1318497 121.536906,24.0168957 121.536906,24.0168957 C122.068782,24.3752173 122.913351,25.0107918 122.952447,25.1997936 C122.99281,25.4267703 121.943144,25.9934978 121.384754,26.518441 C120.829174,27.0377891 115.623541,30.5388653 114.42018,31.3843933 C113.068863,32.3278943 107.066146,36.3203036 105.910271,36.8690556 C104.09411,37.7411699 102.279335,38.8204601 102.206722,40.9370577 C102.190893,41.4676356 102.27518,41.9687701 102.434256,42.4433181 C102.446128,42.4750631 102.454042,42.5091889 102.465913,42.538553 C102.481742,42.5945036 102.49757,42.6448988 102.526061,42.6968812 C102.848567,43.5186004 103.390178,44.149929 103.931829,44.5040841 C104.599079,44.9926396 105.407361,45.2908045 106.293835,45.3272319 C107.34081,45.3589769 108.097451,44.9855764 109.092786,44.5307102 C110.814016,43.476578 112.680471,42.2909024 113.580875,41.676359 C115.015925,40.6978592 128.868305,30.6090218 128.868305,30.6090218 C128.868305,30.6090218 129.077636,30.3681566 129.46856,30.7181452 C129.866409,31.0709115 141.814662,42.1354313 147.751769,50.5626165 C148.896485,52.1836747 149.425552,52.9199999 149.875081,53.6101361 C150.313412,54.284876 150.687518,54.6432373 151.261261,55.1163965 C151.815496,55.5727705 152.514877,55.8835143 153.277098,55.9605356 C153.529958,56 153.789427,56.0109308 154.043474,55.9883125 C155.061167,55.8831572 155.736805,55.6299908 156.515765,54.7872406 C157.343595,53.8885001 157.548811,52.8680175 157.470618,51.9259054" id="path22446" fill="#F47920"></path>
                <path d="M66.1383084,15.8257741 C66.6855387,15.827163 68.7599807,15.7940291 69.0573188,16.7188799 C69.2583406,17.3432246 68.8325543,17.8989604 68.402613,18.2265291 C66.8558533,19.4024431 63.4300938,20.3109452 60.8265846,20.2829302 C60.0308866,20.2710259 59.1528013,20.2424554 59.1639603,20.0630962 C59.2391457,18.6366348 63.064337,15.8060922 66.1383084,15.8256948 M93.8988632,34.7294825 C93.093391,34.7322999 92.3381348,34.9814584 91.7029772,35.3930323 C90.2762765,35.9361892 88.5982985,36.6808871 87.9282391,36.8656826 C87.1157629,37.0799614 72.0796102,43.3358683 62.1779022,34.2297369 C58.6460522,30.9792478 58.5106395,27.6755461 58.5106395,27.6755461 C58.5106395,27.6755461 59.2393435,27.8814918 61.2579505,27.798558 C80.2866016,27.0188215 80.0534876,13.153163 74.3048185,9.67030044 C70.6850413,7.48088778 67.1462269,8.13884249 66.1354988,8.14721524 C65.1290049,8.15515148 62.6818416,8.8289787 62.6818416,8.8289787 C52.1016851,12.0360566 50.0900822,20.923822 49.8876359,22.6890422 C49.7230196,24.0483232 49.3767319,24.5718776 49.7119397,28.1163254 C50.3834236,35.0862566 56.659775,41.9357949 64.3991138,44.9539107 C72.1314485,47.9804389 81.0825371,47.477876 89.1806286,44.9856557 C91.2550705,44.3487321 92.7529599,43.881168 93.8920569,43.3128135 C93.8999712,43.3088454 93.9118425,43.3088454 93.9237139,43.3088454 C94.4374275,43.104487 94.9930074,42.8594553 95.4523105,42.6116856 C96.9641684,42.0111496 98.0320769,40.5133017 98.0210045,38.7760568 C97.9971751,36.5194638 96.1572717,34.7052373 93.8999712,34.729046" id="path22450" fill="#003F74"></path>
                <path d="M14.6732446,20.0168278 C14.8463291,19.8251674 32.2375272,0.695871141 51.733831,0.00295724898 C53.9115934,-0.0668817414 55.7403377,1.11165122 56.3419785,2.93706783 C57.1083939,5.25381761 55.6174691,7.84500288 53.0279286,8.70172095 C51.785511,9.11186629 50.4746749,9.07115333 49.3313437,8.57870909 L49.2700083,8.55093222 L49.2086729,8.54696409 C47.927159,8.41680961 46.2673443,8.81282843 45.1002703,9.16849143 C30.6476744,13.5346981 18.4858365,24.798021 8.9428851,42.6435099 C8.43893772,43.5939948 7.9922222,44.1693332 7.11833538,45.181443 C6.3896314,46.0283598 3.90757028,47.89441 2.09558047,47.4786299 C0.477636036,47.1159433 0.197044444,46.1627602 0.0518616023,45.2220369 C-0.157549283,43.9019609 0.297559295,42.4433181 0.872699248,40.5927039 C1.26496873,39.330007 1.71447798,37.8867604 2.06207947,36.1537218 C3.30869155,29.9593208 3.86010856,25.1633662 3.69956813,21.9016869 C3.63395905,20.5620084 3.69956813,18.8541674 4.82752591,17.5830977 C5.9512931,16.3120281 7.45895651,16.1650091 8.78234862,16.0432274 C10.6068983,15.8710108 11.5073097,16.47861 12.1634243,16.925143 C12.77347,17.3381057 13.1252581,17.9512603 13.1461953,18.6021915 C13.1447984,18.6021915 13.1252225,18.8093276 13.1252225,18.8093276 C13.097127,19.060113 13.066578,19.325898 13.066578,19.5792627 C13.066578,20.011828 13.1545052,20.4023708 13.496539,20.5535563 C13.9907202,20.7733904 14.4709368,20.2440426 14.6733554,20.017423" id="path22454" fill="#003F74"></path>
            </g>
        </g>
    </g>
</svg>