<?xml version="1.0" encoding="UTF-8"?>
<svg width="352px" height="72px" viewBox="0 0 352 72" version="1.1" xmlns="http://www.w3.org/2000/svg" xmlns:xlink="http://www.w3.org/1999/xlink">
    <title>SAS</title>
    <g id="Taskboard" stroke="none" stroke-width="1" fill="none" fill-rule="evenodd">
        <g id="SAS">
            <rect id="Rectangle" fill="#FFFFFF" x="0" y="0" width="352" height="72"></rect>
            <g id="Scandinavian_Airlines_logo" transform="translate(100.000000, 8.000000)" fill="#2B3087">
                <path d="M100.172526,1.18038822 C94.1309903,1.18038822 85.8553176,1.18472466 84.7373819,1.18472466 C83.9594235,1.18472466 83.6385266,1.63398043 83.6385266,1.63398043 L41.1101375,54.3842391 C40.8620928,54.6886575 40.9149974,55.0017489 41.3434382,55.0017489 C42.3191385,55.0017489 46.2462236,55.0017489 47.6390899,54.999147 C48.2704764,54.999147 48.3329212,54.8300257 48.4448015,54.6652407 L57.4975653,43.0591778 C57.4975653,43.0591778 57.6380662,42.8475592 57.8280025,42.8475592 C57.9754416,42.8475592 73.0237751,42.8458247 73.0237751,42.8458247 C73.0237751,42.8458247 73.2570758,42.8302135 73.2111095,43.0591778 C73.1634086,43.2872748 70.9934513,54.4388783 70.9934513,54.4388783 C70.965698,54.5897866 71.0081952,54.999147 71.5363742,54.999147 C73.521599,54.999147 87.8119218,54.9956779 89.8994867,54.9956779 C90.1648772,54.9956779 90.2576771,54.9072144 90.3088472,54.6513641 L100.654739,1.73458596 C100.653004,1.73458596 100.838604,1.18038822 100.172526,1.18038822 L100.172526,1.18038822 L100.172526,1.18038822 L100.172526,1.18038822 Z M74.1555874,37.3576191 L62.2043433,37.3576191 C62.2043433,37.3576191 62.1280219,37.3749649 62.0768518,37.3021126 C62.0291509,37.2318622 62.119349,37.1234511 62.119349,37.1234511 L78.006351,16.7482279 C78.006351,16.7482279 78.1260369,16.5895139 78.2517939,16.5895139 C78.3775508,16.5895139 78.333319,16.7655736 78.333319,16.7655736 L74.3498601,37.1963034 C74.3498601,37.1963034 74.3377181,37.282165 74.2986901,37.3203257 C74.2613966,37.3576191 74.1555874,37.3576191 74.1555874,37.3576191 L74.1555874,37.3576191 L74.1555874,37.3576191 Z" id="Shape"></path>
                <path d="M0.0335903357,48.2750545 C-0.117317971,48.9047064 0.22526123,49.4380892 1.36661371,50.3799652 C3.51749072,52.1535715 9.9016059,56.0026005 20.0306755,56 C38.2671637,55.9965295 44.8802433,44.2083359 42.5680505,34.2188998 C41.948806,31.546782 38.5325542,17.7239281 38.0381994,15.7777313 C36.6011013,10.1195371 39.3512751,6.04327829 44.7510172,6.03894185 C49.3675971,6.03547269 52.2495989,7.78652942 54.7725429,9.36846477 C55.2469501,9.67114867 55.5956003,9.8359336 55.7213572,9.28086856 C55.7959441,8.95997159 56.6250725,4.65821757 56.6250725,4.65821757 C56.6250725,4.65821757 56.869648,3.82475273 55.783802,3.25754565 C54.1064649,2.38331822 49.9348042,0.0190880913 41.1378907,0.0156135646 C24.7834198,0.00694604369 17.8225574,10.5046135 20.6707349,21.8851813 C21.5813884,25.526061 25.2283392,39.157244 25.2422158,41.7833955 C25.2439504,42.7920527 25.7755986,49.7511806 17.3932493,49.7511806 C9.60932947,49.7511806 4.25035002,44.433831 2.44118492,42.5943108 C2.14283747,42.2872905 1.74388447,42.4564118 1.55741731,43.125959 C1.46114822,43.4728747 0.0335903357,48.2750545 0.0335903357,48.2750545 L0.0335903357,48.2750545 L0.0335903357,48.2750545 Z" id="Path"></path>
                <path d="M96.7476016,48.5499852 C96.5975605,49.1805044 96.9392725,49.7156217 98.0823595,50.658365 C100.234104,52.4293694 106.111722,55.9869893 116.242526,55.9826569 C134.479015,55.980051 141.091227,44.1927247 138.776432,34.1989522 C138.161524,31.5303036 134.741803,17.7083169 134.248316,15.7603856 C132.814687,10.1004568 135.563993,6.02506522 140.959399,6.02072878 C145.577713,6.01986149 148.459715,7.77005092 150.980057,9.35285356 C151.457934,9.65467017 151.805717,9.81598595 151.931473,9.26352278 C152.004326,8.94175852 152.834321,4.64173908 152.834321,4.64173908 C152.834321,4.64173908 153.083233,3.81087611 151.993918,3.24106716 C150.318316,2.36423786 146.141451,0.00347688723 137.352343,0 C120.995271,-0.0103997386 114.034408,10.4890023 116.881718,21.8687028 C117.793239,25.5095825 121.441057,39.1381637 121.454067,41.7695189 C121.456668,42.7755742 121.990051,49.7321002 113.6051,49.7321002 C105.817711,49.7338348 100.681625,44.6029524 98.8594506,42.7799107 C98.4544265,42.3783558 97.8507933,42.5266623 97.7684009,43.1120824 C97.7189654,43.4624672 96.7476016,48.5499852 96.7476016,48.5499852 L96.7476016,48.5499852 L96.7476016,48.5499852 Z" id="Path"></path>
            </g>
        </g>
    </g>
</svg>