<?xml version="1.0" encoding="UTF-8"?>
<svg width="352px" height="72px" viewBox="0 0 352 72" version="1.1" xmlns="http://www.w3.org/2000/svg" xmlns:xlink="http://www.w3.org/1999/xlink">
    <title>Saudia</title>
    <g id="Taskboard" stroke="none" stroke-width="1" fill="none" fill-rule="evenodd">
        <g id="Saudia">
            <rect id="Rectangle" fill="#FFFFFF" x="0" y="0" width="352" height="72"></rect>
            <g id="Group-22" transform="translate(48.000000, 8.000000)" fill-rule="nonzero">
                <path d="M4.90301806,13.9103503 L4.93002624,14.0086314 L4.87000805,14.1098907 C2.57431223,18.0262439 1.25991384,22.5620658 1.25991384,27.3957093 C1.25991384,42.1438316 13.4466076,54.0983879 28.4841654,54.0983879 C38.5912289,54.0983879 47.3958975,48.6988835 52.1013238,40.6785496 L52.1703447,40.5623992 L52.2663738,40.5266606 L52.2963829,40.62792 L52.2363647,40.7559832 C51.9332728,41.3903431 51.5971709,42.0187465 51.2340609,42.6382153 C43.7617961,55.4266719 27.0257234,59.798692 13.8757377,52.4008051 C0.710747389,45.0058965 -3.89264789,28.6316686 3.57961694,15.8372556 C3.94272699,15.2207651 4.32384251,14.6132091 4.73196621,14.0413918 L4.79798622,13.9431107 L4.90301806,13.9103503 Z M29.6449173,36.6129879 C31.3764421,35.4753096 46.0028753,25.8705652 52.3317936,32.6638744 C46.4950245,30.3974525 37.849404,34.6860826 30.7222438,38.8943008 C32.5047841,40.0885652 34.5394008,41.4615224 36.258922,42.6051571 C38.9927506,40.0081534 40.0130598,40.4221253 40.2591344,40.5263628 C40.5232145,40.6365568 40.7122718,40.8777922 40.7242754,41.1815702 C40.7272763,41.5717164 40.4181826,41.8993201 40.0280644,41.9082547 C39.640947,41.9201676 39.3138479,41.6044768 39.3018443,41.2143306 L39.3168488,41.0564852 C38.5636205,41.524065 37.8554058,42.1494902 36.090871,43.9423758 C34.2933262,45.7680218 33.5941143,46.2743184 33.0629533,46.5780964 C32.6878396,46.7895497 32.3217286,46.8372011 32.0996613,46.82231 C31.7245476,46.8014625 31.3584366,46.5364013 31.3404312,46.1254076 C31.313423,45.7203704 31.6195158,45.3778756 32.0246386,45.3748974 C32.4237595,45.3689409 32.7628623,45.6846318 32.7568605,46.0896691 L32.7568605,46.158168 C33.2490097,45.812695 33.7741688,45.1783352 34.8094826,44.0763955 C33.0959633,43.1174102 30.9203038,41.7295618 28.4805644,40.2404542 C26.0408249,41.7295618 23.8621645,43.1174102 22.1486452,44.0763955 C23.1869599,45.1783352 23.71512,45.812695 24.1952655,46.158168 L24.1952655,46.0896691 C24.1952655,45.6846318 24.5373692,45.3689409 24.9334892,45.3748974 C25.3296093,45.3778756 25.6417039,45.7203704 25.6206975,46.1254076 C25.6026921,46.5364013 25.2335802,46.8014625 24.8614674,46.82231 C24.6333983,46.8372011 24.2642864,46.7895497 23.8981754,46.5780964 C23.3670145,46.2743184 22.6708034,45.7680218 20.8732586,43.9423758 C19.1057229,42.1494902 18.40351,41.524065 17.6442799,41.0564852 L17.6592845,41.2143306 C17.6502817,41.6044768 17.3201817,41.9201676 16.9270625,41.9082547 C16.5369443,41.8993201 16.2278506,41.5717164 16.2308515,41.1815702 C16.248857,40.8777922 16.4349133,40.6365568 16.7049952,40.5263628 C16.9480689,40.4221253 17.9653772,40.0081534 20.7022068,42.6081353 C22.4217279,41.4645007 24.4533437,40.0885652 26.235884,38.8943008 C19.1117247,34.6831044 10.4661042,30.3974525 4.63233601,32.6638744 C10.9552525,25.8705652 25.5846866,35.4753096 27.3162114,36.6129879 C27.6433106,36.821463 28.0364297,37.0865241 28.4805644,37.3873239 C28.924699,37.0865241 29.3268209,36.821463 29.6449173,36.6129879 Z M19.4355228,43.4322075 C19.7026038,43.6972687 19.9996938,43.9950902 20.3327948,44.3405632 C20.5068475,44.5073432 20.6628948,44.6681669 20.8189421,44.8200559 C15.7444041,47.6046872 13.820821,46.8750244 12.8635309,46.0589934 C12.6354617,45.859453 12.5544372,45.734368 12.5214272,45.6628908 L12.5394326,45.3859168 L12.7404936,45.320396 C12.8575291,45.3442218 13.0946009,45.472285 13.3196691,45.5646097 C14.6310666,46.0887756 16.7557106,45.0940517 19.4355228,43.4322075 Z M37.5268063,43.4322075 C40.2066185,45.0940517 42.3282616,46.0887756 43.6456609,45.5646097 C43.8707291,45.472285 44.1078009,45.3442218 44.2248364,45.320396 L44.4288983,45.3859168 L44.4409019,45.6628908 C44.4108928,45.734368 44.3268673,45.859453 44.0957973,46.0589934 C43.1415081,46.8750244 41.2089223,47.6046872 36.1523897,44.8200559 C36.2964333,44.6681669 36.4584824,44.5073432 36.6235325,44.3405632 C36.9656362,43.9950902 37.2627262,43.6972687 37.5268063,43.4322075 Z M28.4844655,7.10542736e-15 C29.7358448,0.845813152 29.927903,2.9931064 29.927903,2.9931064 C30.9722196,1.84351528 33.6580336,1.43252157 35.3805557,2.21877042 C34.3362392,2.52254838 33.6730382,2.90375994 32.9798281,3.6155534 C37.064066,3.15988646 43.236937,4.8395999 47.3301776,9.47668116 C43.5640361,7.68081732 39.4017745,6.33764221 35.1374821,6.75757057 C39.0146572,7.56466692 45.5236301,11.4720854 46.8920448,17.952682 C42.7237814,13.1190385 38.3844662,10.5756426 35.0594584,9.98595598 C38.4624899,12.4817004 41.6584585,18.313046 40.6681584,22.4021357 C38.8616108,18.0569195 35.7166576,13.8099845 32.817779,12.2613125 C34.4532747,14.9119241 34.9934384,21.3150871 33.4209618,24.1414134 C33.0548508,20.4752303 31.8754934,15.7071076 30.0149294,13.3572957 L29.4597611,17.952682 L30.0989549,17.952682 L29.4297521,22.6314582 L29.9579121,22.6314582 L29.4027439,27.3102345 L29.8558812,27.3102345 L29.1626711,31.9890108 L28.4844655,32.5072202 L29.165672,31.9890108 L31.4253569,33.1177544 L31.4253569,33.278578 L25.5465751,33.278578 L25.5465751,33.1177544 L27.8002582,31.9890108 L27.1010462,27.3102345 L27.5571845,27.3102345 L27.0020162,22.6314582 L27.5301763,22.6314582 L26.8609735,17.952682 L27.5001672,17.952682 L26.9479998,13.3572957 C25.084435,15.7071076 23.9020766,20.4752303 23.5419675,24.1414134 C21.9694909,21.3150871 22.5066537,14.9119241 24.1451503,12.2613125 C21.2522735,13.8099845 18.0983175,18.0569195 16.2977718,22.4021357 C15.3044707,18.313046 18.5004394,12.4817004 21.9034709,9.98595598 C18.581464,10.5756426 14.2361469,13.1190385 10.0648826,17.952682 C11.445301,11.4720854 17.948272,7.56466692 21.8194454,6.75757057 C17.5581538,6.33764221 13.4078959,7.68081732 9.63275163,9.47668116 C13.7229914,4.8395999 19.9018642,3.15988646 23.9831012,3.6155534 C23.2898911,2.90375994 22.6236892,2.52254838 21.5883753,2.21877042 C23.3108974,1.43252157 25.9877088,1.84351528 27.0380271,2.9931064 C27.0380271,2.9931064 27.2270844,0.845813152 28.4844655,7.10542736e-15 Z" id="Combined-Shape" fill="#A29061"></path>
                <path d="M146.388204,43.6808525 C141.123568,43.6808525 137.175091,42.6077407 134.737759,40.3163833 C132.588476,38.3592738 131.595817,36.1162944 131.595817,31.6611215 L131.595817,13.0004123 L137.299173,13.0004123 L137.299173,32.4439653 C137.299173,35.3026646 137.751187,36.9475162 139.142682,38.4076518 C140.649396,39.9953294 143.237399,40.8573372 146.388204,40.8573372 C149.516852,40.8573372 152.09156,39.9953294 153.598274,38.4076518 C154.9942,36.9475162 155.424057,35.3026646 155.424057,32.4439653 L155.424057,13.0004123 L161.167297,13.0004123 L161.167297,31.6611215 C161.167297,36.1162944 160.156912,38.3592738 158.016492,40.3163833 C155.574729,42.6077407 151.599662,43.6808525 146.388204,43.6808525 M182.54004,12.3816123 C179.726029,12.4563783 172.812871,12.7466462 167.760947,14.1759958 L168.235119,16.4101793 C169.600025,16.0275534 170.8763,15.7592754 172.360857,15.5305795 L172.360857,43.0488585 C180.435071,43.2027884 183.896082,43.1720024 188.132608,42.6926206 C195.546527,41.8130208 202.566042,36.3463082 202.566042,27.9329363 C202.566042,16.0891254 191.775311,12.2056923 182.54004,12.3816123 M183.647918,40.4408451 C182.509019,40.4408451 180.018509,40.3177012 178.959378,39.4732854 C178.090802,38.7432176 178.064212,37.5381659 178.064212,35.7349863 L178.064212,14.9060637 C186.843038,14.1408119 196.565775,16.6784572 196.565775,28.0208963 C196.565775,37.093968 190.547782,40.4408451 183.647918,40.4408451 M210.447555,43.0463477 L216.181918,43.0463477 L216.181918,13.003617 L210.447555,13.003617 L210.447555,43.0463477 Z M127.861501,43.0480585 L121.360473,43.0480585 C119.069382,38.4917317 113.095703,31.8815394 103.164685,32.5236472 L97.9443639,43.0480585 L93.893962,43.0480585 L109.89172,12.5171503 L111.930216,12.5171503 L127.861501,43.0480585 Z M104.414371,29.9860019 C107.334738,29.9860019 112.789929,30.3730258 116.671934,33.407645 L109.696734,19.3868246 L104.414371,29.9860019 Z M256,43.0533361 L249.507835,43.0533361 C247.216743,38.4970093 241.243065,31.891215 231.312047,32.5245268 L226.091726,43.0533361 L222.041324,43.0533361 L238.030219,12.5180299 L240.073146,12.5180299 L256,43.0533361 Z M232.557302,29.9868815 C235.486531,29.9868815 240.932859,30.3783034 244.814864,33.4173206 L237.839664,19.3921022 L232.557302,29.9868815 Z M89.3822396,14.0287425 C87.7425802,13.1799288 83.6390001,11.9352951 79.3980431,12.0056631 C71.9220824,12.190379 66.9366314,15.1898142 66.8834533,20.6037509 C66.8524327,21.6680666 67.0873028,23.0270482 67.7520296,24.1881199 C71.3725749,30.2749504 86.36438,29.2766046 86.36438,35.785643 C86.36438,37.6591905 84.5518916,40.7245957 79.3980431,40.7245957 C73.8010435,40.7245957 69.5379289,38.1825524 67.4905704,36.6124668 L66.0193084,41.0060676 C67.7520296,41.8900654 72.4272748,43.565703 79.1454469,43.565703 C82.1544436,43.565703 85.5800023,42.7608692 88.0838066,40.8521377 C90.5034122,38.9873862 91.5979956,36.6828348 91.5979956,33.8373295 C91.5979956,23.0534362 72.4272748,25.7626035 72.4272748,18.9940833 C72.4272748,17.8769916 73.060981,17.0677598 73.2869881,16.7906858 C74.3239619,15.4756842 76.5973275,14.6708504 79.4733788,14.6708504 C82.1544436,14.6708504 84.9773167,15.5548482 87.7736008,17.7406536 L89.3822396,14.0287425 Z" id="Combined-Shape" fill="#18216D"></path>
            </g>
        </g>
    </g>
</svg>