<?xml version="1.0" encoding="UTF-8"?>
<svg width="352px" height="72px" viewBox="0 0 352 72" version="1.1" xmlns="http://www.w3.org/2000/svg" xmlns:xlink="http://www.w3.org/1999/xlink">
    <title>Southwest-Login</title>
    <defs>
        <linearGradient x1="0.00194086822%" y1="49.9968587%" x2="100.002588%" y2="49.9968587%" id="linearGradient-1">
            <stop stop-color="#3656CC" offset="0%"></stop>
            <stop stop-color="#304CB2" offset="35%"></stop>
            <stop stop-color="#283B80" offset="72%"></stop>
        </linearGradient>
        <linearGradient x1="9.14173523%" y1="22.2754585%" x2="90.7675767%" y2="67.7634992%" id="linearGradient-2">
            <stop stop-color="#E61C23" offset="30%"></stop>
            <stop stop-color="#C3161C" offset="80%"></stop>
        </linearGradient>
        <linearGradient x1="12.8954217%" y1="15.8997902%" x2="109.120964%" y2="67.5067086%" id="linearGradient-3">
            <stop stop-color="#FDBC11" offset="0%"></stop>
            <stop stop-color="#FCB415" offset="25%"></stop>
            <stop stop-color="#F89E1C" offset="80%"></stop>
        </linearGradient>
    </defs>
    <g id="Page-1" stroke="none" stroke-width="1" fill="none" fill-rule="evenodd">
        <g id="Prototype---Login-Copy-3" transform="translate(-785.000000, -303.000000)">
            <g id="Southwest-Login" transform="translate(785.000000, 303.000000)">
                <rect id="Rectangle" fill="#FFFFFF" x="0" y="0" width="352" height="72"></rect>
                <g id="Southwest" transform="translate(48.000000, 17.000000)" fill-rule="nonzero">
                    <g id="Type" fill="#304CB2">
                        <path d="M70.2916231,30.4452482 C69.1991503,30.6520278 67.9241984,30.833264 66.5532051,30.833264 C62.7211465,30.8283986 61.8771812,29.4928459 61.8783817,26.9798662 L61.8783817,12.1878301 L54.668061,12.1878301 L54.6536477,27.7108927 C54.6476522,34.5954355 58.4557004,37.7506482 66.2062549,37.7591689 C69.9662823,37.7615953 73.4633959,37.0585449 77.5679724,35.996671 L77.5679724,12.1878301 L70.2916231,12.1878301 L70.2916231,30.4452482 Z M93.6981537,31.1239717 C91.0762189,31.121539 90.7148625,29.8711309 90.716063,27.8665856 L90.7244667,18.3243174 L96.7054553,18.3303992 L96.7054553,12.1878301 L90.7244667,12.1878301 L90.7244667,4.87878109 L83.5021408,4.87878109 L83.5021408,12.1866137 L79.8585638,12.1878301 L79.8585638,18.3145866 L83.5021408,18.3182357 L83.4937371,28.3385295 C83.4901356,32.7502321 84.3749185,37.7786242 91.5468226,37.7847143 C93.7401719,37.7871387 95.5325477,37.2519446 97.4917957,36.6899907 L96.7738849,30.6058065 C95.7126256,30.9171922 94.7834235,31.1239717 93.6981537,31.1239717 Z M18.0017914,17.4448961 C16.6656131,16.9267309 15.1745677,16.4401908 13.5754756,15.9925739 C9.36645392,14.7883871 8.07109327,14.1157453 8.07229379,12.2437822 C8.07349431,10.0324573 9.69299525,9.01680484 13.4674289,9.02045389 C16.568371,9.02288659 19.3235635,9.8354086 22.1255762,10.9021478 L23.640632,3.73662815 C20.4112342,2.51784514 17.3439067,1.43164431 13.6234964,1.42920363 C4.93653659,1.42191351 0.145262872,6.42232963 0.139260274,12.4225857 C0.135658715,16.8671297 2.11771657,19.8861112 6.39396739,21.6376556 C7.64971089,22.1509555 9.09753753,22.6593899 10.7014317,23.1374156 C15.4170727,24.604334 16.7904671,25.291572 16.7892666,27.1294773 C16.7880661,29.3578311 14.9908882,30.544989 11.2956889,30.5413399 C7.89941897,30.5376909 4.77686749,29.5913703 1.51145418,28.0697161 L0,35.298486 C3.56434269,36.7240485 7.11427915,37.7810569 11.3845274,37.7847168 C20.2227527,37.7932204 24.807537,32.7794245 24.8123454,26.7609231 C24.8171412,21.8395698 22.0775554,19.0249352 18.0017914,17.4448961 Z M112.582327,10.9216094 C110.214902,10.9191767 107.953123,11.4762652 106.348029,12.0406517 L106.348029,0 L99.1365075,0 L99.1365075,37.7226721 L106.325219,37.7226721 L106.340826,18.8132902 C107.640988,18.3085048 109.141638,17.8098012 110.916006,17.8110176 C113.724021,17.8134503 114.739661,18.9045165 114.73726,21.5622419 L114.724054,37.7226721 L121.913966,37.7226721 L121.927181,20.7679652 C121.933174,14.1035818 118.963089,10.9264748 112.582327,10.9216094 Z M39.5811312,10.8011854 C32.2891752,10.795109 26.4030276,15.9828431 26.3958178,24.1810441 C26.3886213,32.3816779 32.2459565,37.7786242 39.5571208,37.7847134 C46.8634831,37.7920041 52.7304224,32.4242502 52.7376321,24.2065875 C52.7448286,15.9889248 46.8670847,10.8084888 39.5811312,10.8011854 Z M39.5631234,30.6082471 C36.4285667,30.6058065 33.9182803,28.3239333 33.9218779,24.1919913 C33.9254834,20.0600493 36.3577361,17.8815659 39.5739281,17.8839966 C42.785318,17.8864313 45.1659484,20.038155 45.1623509,24.1992894 C45.1599458,28.3665056 42.6952791,30.6131046 39.5631234,30.6082471 Z M201.28872,22.1752825 C200.262276,21.8140264 199.108577,21.4406069 197.851633,21.0732691 C195.325739,20.399411 194.346115,19.9700394 194.347316,18.9154637 C194.348516,17.8025031 195.325739,17.0617458 197.546701,17.0629621 C199.930933,17.0653948 202.127883,17.5628821 204.482102,18.2537691 L205.628599,11.9433437 C203.033075,11.36801 200.462763,10.8620083 197.550302,10.8583514 C190.721747,10.8522775 187.045756,14.3930732 187.040951,19.2219839 C187.038553,22.6520918 188.682064,24.8196281 192.086738,26.2780321 C193.048354,26.6928075 194.179243,27.1124484 195.462599,27.5199257 C198.124151,28.2983899 199.420712,28.614641 199.420712,29.8322077 C199.418311,30.9913895 197.843229,31.5180692 195.730315,31.5156365 C193.129989,31.5132038 190.702538,31.0838321 188.197054,30.0827758 L187.075769,36.3518453 C190.177911,37.2470792 193.087971,37.8357927 196.316168,37.8382359 C203.496476,37.8455235 206.71747,34.0334816 206.722279,29.329855 C206.725874,26.1101757 205.356081,23.6227393 201.28872,22.1752825 Z M174.204998,10.8303757 C166.5841,10.823085 161.297011,16.2042188 161.289803,24.6809641 C161.283806,32.5896738 165.998246,37.8066003 174.331053,37.8139026 C178.055064,37.8163311 181.091179,36.7593227 184.21373,35.4128229 L183.130861,29.3712109 C180.777843,30.4440319 178.34439,31.2796645 175.50276,31.2772318 C171.207301,31.2723664 169.437735,29.402836 169.160415,26.7609231 L185.347021,26.7755193 C185.347021,26.7755193 185.58114,23.8003265 185.58114,23.2213437 C185.590726,16.3380173 181.824696,10.8364649 174.204998,10.8303757 Z M169.263659,21.8845748 C169.723458,19.6440575 170.874757,16.8683461 173.903668,16.8707772 C177.025019,16.8744278 177.965025,20.0819436 178.04546,21.8918729 L169.263659,21.8845748 Z M220.944828,31.1239717 C218.322893,31.121539 217.975943,29.8711309 217.978344,27.8665856 L217.987948,18.3827022 L224.037366,18.388784 L224.037366,12.1878301 L217.985547,12.1878301 L217.985547,4.87878109 L210.750015,4.87878109 L210.750015,12.1866137 L207.072824,12.1878301 L207.072824,18.3729714 L210.750015,18.3766205 L210.740411,28.3385295 C210.735609,32.7502321 211.793267,37.7786242 218.965171,37.7847143 C221.15852,37.7871387 222.966503,37.2519446 224.926951,36.6899907 L224.036166,30.6058065 C222.976107,30.9171922 222.031298,31.1239717 220.944828,31.1239717 Z M225.746906,1.51313902 C223.992947,1.51192343 222.565529,2.95816395 222.563125,4.74254985 C222.560727,6.52693576 223.989345,7.97439263 225.739703,7.97682609 C227.503266,7.97804168 228.930684,6.53180116 228.933088,4.74741526 C228.935486,2.96302935 227.508068,1.51557248 225.746906,1.51313902 Z M225.739703,7.40514068 C224.263064,7.40392433 223.160987,6.3201562 223.160987,4.7437662 C223.163388,3.17589066 224.267866,2.08360808 225.744505,2.08603672 C227.233149,2.08725713 228.328023,3.17953971 228.325626,4.74741526 C228.326823,6.32380526 227.229548,7.40514068 225.739703,7.40514068 Z M226.135874,4.89216094 C226.684512,4.80701642 227.053071,4.47738549 227.053071,3.91421529 C227.053071,3.29874204 226.626887,2.83044717 225.814135,2.82923082 L224.555991,2.82801447 L224.55359,6.57923882 L225.237886,6.58045517 L225.237886,4.97730546 C225.486393,4.97852181 225.580034,5.05515188 225.751708,5.3336961 L226.546452,6.58167152 L227.331592,6.58167152 L226.571663,5.42005698 C226.401189,5.16097436 226.275135,4.99676707 226.135874,4.89216094 Z M225.599242,4.47616914 L225.237886,4.47495279 L225.240287,3.38388656 L225.71089,3.38510291 C226.174291,3.38510291 226.336361,3.60282961 226.336361,3.9312442 C226.33396,4.38980826 225.984609,4.47616914 225.599242,4.47616914 Z M154.602914,12.1878301 L150.096163,26.2342435 L145.429744,12.1878301 L139.141422,12.1878301 L134.476203,26.2342435 L129.968252,12.1878301 L122.13246,12.1878301 L131.079933,37.7202394 L137.729611,37.7202394 L142.322799,23.9012836 L146.843956,37.7202394 L153.493634,37.7202394 L162.439906,12.1878301 L154.602914,12.1878301 L154.602914,12.1878301 Z" id="Shape"></path>
                    </g>
                    <g id="Group" transform="translate(227.898237, 10.714830)">
                        <path d="M20.0162633,0 C17.580409,0 15.61876,0.859959668 14.0508814,1.76370795 C12.4818023,0.859959668 10.5237548,0 8.08670002,0 C3.21619201,0 0,3.22332832 0,8.73096252 C0,15.4500816 6.33274089,22.0147242 14.0508814,27.2851701 C21.7702224,22.0135079 28.1017628,15.451298 28.1017628,8.73096252 C28.1017628,3.22454467 24.8879718,0 20.0162633,0 Z" id="Path" fill="#CCCCCC"></path>
                        <path d="M0.794743975,8.8489485 C0.794743975,15.718895 7.94503871,22.1095996 14.0508814,26.3400659 C15.8084421,25.1212829 17.6236277,23.7224801 19.3511754,22.1850133 C11.2620744,15.3199321 3.66998842,9.17857943 0.946009445,6.97941807 C0.848767357,7.56691527 0.794743975,8.19333568 0.794743975,8.8489485 Z" id="Path" fill="url(#linearGradient-1)"></path>
                        <path d="M26.7655845,12.0357863 C20.9034473,7.13754361 17.3535108,4.64402548 13.5466632,2.32931084 C12.5214194,1.70167408 10.4625283,0.784545949 8.15392912,0.784545949 C5.94257202,0.784545949 4.0853682,1.48151468 2.8056143,2.84017797 C1.9724537,3.72203195 1.40700897,4.83012708 1.0840692,6.17419417 C4.12018327,8.32226881 12.3641514,14.2945488 20.6681454,20.9577158 C23.4413457,18.2829615 25.7643511,15.2408694 26.7655845,12.0357863 Z" id="Path" fill="url(#linearGradient-2)"></path>
                        <path d="M25.2841433,2.84382702 C24.0235977,1.51313978 22.175998,0.796709452 20.0498778,0.796709452 C17.7688906,0.796709452 16.0305382,1.54354854 14.8192139,2.21010851 C17.0929981,3.49214174 22.0331362,6.39313722 27.1509513,10.2124772 C27.2301856,9.69674466 27.2746048,9.17857943 27.2746048,8.6579815 C27.2734043,6.23866073 26.5759024,4.21222112 25.2841433,2.84382702 Z" id="Path" fill="url(#linearGradient-3)"></path>
                    </g>
                </g>
            </g>
        </g>
    </g>
</svg>