<?xml version="1.0" encoding="UTF-8"?>
<svg width="352px" height="72px" viewBox="0 0 352 72" version="1.1" xmlns="http://www.w3.org/2000/svg" xmlns:xlink="http://www.w3.org/1999/xlink">
    <title>Turkish</title>
    <g id="Taskboard" stroke="none" stroke-width="1" fill="none" fill-rule="evenodd">
        <g id="Turkish">
            <rect id="Rectangle" fill="#FFFFFF" x="0" y="0" width="352" height="72"></rect>
            <g id="Turkish_Airlines" transform="translate(72.000000, 8.000000)" fill-rule="nonzero">
                <g id="text" transform="translate(68.994220, 2.406612)" fill="#000000">
                    <g id="g539" transform="translate(2.127168, 0.000000)">
                        <polygon id="path110" points="129.66474 22.307438 129.66474 13.0512397 120.416185 13.0512397 120.416185 22.307438 115.32948 22.307438 115.32948 0.370247934 120.416185 0.370247934 120.416185 9.07107438 129.66474 9.07107438 129.66474 0.370247934 134.751445 0.370247934 134.751445 22.307438"></polygon>
                        <path d="M20.5317919,0.370247934 L20.5317919,14.0694215 C20.5317919,15.5504132 20.716763,16.938843 21.1791908,17.9570248 C21.6416185,18.9752066 22.2890173,19.9008264 23.0289017,20.5487603 C23.8612717,21.1966942 24.8786127,21.7520661 25.9884393,22.0297521 C27.0982659,22.307438 28.3930636,22.492562 29.8728324,22.492562 C31.2601156,22.492562 32.5549133,22.307438 33.6647399,22.0297521 C34.7745665,21.7520661 35.699422,21.1966942 36.4393064,20.5487603 C37.1791908,19.9008264 37.8265896,18.9752066 38.1965318,17.9570248 C38.6589595,16.846281 38.8439306,15.5504132 38.8439306,14.0694215 L38.8439306,0.370247934 L34.1271676,0.370247934 L34.1271676,13.9768595 C34.1271676,15.3652893 33.7572254,16.4760331 33.1098266,17.3090909 C32.4624277,18.1421488 31.3526012,18.6049587 29.8728324,18.6049587 C28.3930636,18.6049587 27.283237,18.1421488 26.6358382,17.3090909 C25.9884393,16.4760331 25.6184971,15.3652893 25.6184971,13.9768595 L25.6184971,0.370247934 L20.5317919,0.370247934 Z" id="path122"></path>
                        <path d="M5.91907514,22.307438 L5.91907514,4.44297521 L0,4.44297521 L0,0.370247934 L17.017341,0.370247934 L17.017341,2.31404959 C17.017341,3.51735537 16.0924855,4.44297521 14.8901734,4.44297521 L11.0057803,4.44297521 L11.0057803,22.307438 L5.91907514,22.307438 Z" id="path126"></path>
                        <polygon id="path128" points="87.3063584 0.370247934 92.3930636 0.370247934 92.3930636 22.307438 87.3063584 22.307438"></polygon>
                        <path d="M70.4739884,12.0330579 L70.6589595,12.2181818 L77.132948,20.5487603 C77.9653179,21.5669421 79.1676301,22.214876 80.5549133,22.214876 L84.6242775,22.214876 L75.3757225,10.3669421 L75.283237,10.1818182 L75.3757225,9.99669421 L82.9595376,0.370247934 L77.6878613,0.370247934 L70.6589595,9.81157025 L70.4739884,9.99669421 L70.4739884,9.62644628 L70.4739884,0.370247934 L65.3872832,0.370247934 L65.3872832,22.307438 L70.4739884,22.307438 L70.4739884,12.4033058 L70.4739884,12.0330579 Z" id="path140"></path>
                        <path d="M58.8208092,22.307438 C57.3410405,22.307438 55.8612717,21.4743802 55.1213873,20.2710744 L51.1445087,13.7917355 L48.6473988,13.7917355 L48.6473988,22.4 L43.5606936,22.4 L43.5606936,0.370247934 L52.6242775,0.370247934 C54.9364162,0.370247934 56.7861272,1.01818182 57.9884393,2.12892562 C59.283237,3.3322314 59.9306358,4.99834711 59.9306358,6.94214876 C59.9306358,7.96033058 59.6531792,8.9785124 59.0982659,9.99669421 C58.5433526,11.014876 57.6184971,11.8479339 56.3236994,12.4958678 L56.0462428,12.5884298 L62.2427746,22.214876 L58.8208092,22.214876 L58.8208092,22.307438 Z M48.6473988,10.3669421 L51.6069364,10.3669421 C52.6242775,10.3669421 53.4566474,10.0892562 54.0115607,9.5338843 C54.566474,8.9785124 54.8439306,8.23801653 54.8439306,7.31239669 C54.8439306,6.38677686 54.566474,5.64628099 54.1040462,5.09090909 C53.5491329,4.53553719 52.8092486,4.25785124 51.699422,4.25785124 L48.7398844,4.25785124 L48.7398844,10.3669421 L48.6473988,10.3669421 Z" id="path144"></path>
                        <path d="M96.5549133,21.3818182 L96.5549133,17.2165289 C98.1271676,17.9570248 100.254335,18.6975207 102.381503,18.6975207 C104.878613,18.6975207 106.080925,17.8644628 106.080925,16.1983471 C106.080925,14.2545455 104.416185,14.0694215 100.99422,12.5884298 C98.6820809,11.5702479 96.5549133,9.99669421 96.5549133,6.29421488 C96.5549133,2.03636364 99.7919075,0 104.323699,0 C106.728324,0 108.763006,0.555371901 109.872832,1.01818182 L109.872832,5.09090909 C108.763006,4.53553719 106.728324,3.88760331 104.601156,3.88760331 C102.381503,3.88760331 101.364162,4.72066116 101.364162,6.10909091 C101.364162,7.59008264 102.65896,8.05289256 104.878613,8.88595041 C107.745665,10.3669421 111.16763,11.014876 111.16763,15.9206612 C111.16763,20.1785124 107.745665,22.492562 103.213873,22.492562 C100.531792,22.585124 98.3121387,22.122314 96.5549133,21.3818182" id="path148"></path>
                    </g>
                    <g id="g530" transform="translate(0.000000, 28.601653)">
                        <path d="M106.635838,22.307438 L106.635838,0.370247934 L120.323699,0.370247934 L120.323699,2.31404959 C120.323699,3.51735537 119.398844,4.44297521 118.196532,4.44297521 L111.630058,4.44297521 L111.630058,9.16363636 L119.028902,9.16363636 L119.028902,12.8661157 L111.630058,12.8661157 L111.630058,18.2347107 L120.323699,18.2347107 L120.323699,22.307438 L106.635838,22.307438 Z" id="path152"></path>
                        <path d="M56.5086705,22.307438 L56.5086705,0.370247934 L59.0057803,0.370247934 C60.4855491,0.370247934 61.5953757,1.57355372 61.5953757,2.96198347 L61.5953757,18.3272727 L69.6416185,18.3272727 L69.6416185,22.307438 L56.5086705,22.307438 Z" id="path156"></path>
                        <polygon id="path160" points="25.1560694 22.307438 25.1560694 0.370247934 30.2427746 0.370247934 30.2427746 22.307438"></polygon>
                        <path d="M50.0346821,22.307438 C48.5549133,22.307438 47.0751445,21.4743802 46.3352601,20.2710744 L42.3583815,13.7917355 L39.8612717,13.7917355 L39.8612717,22.4 L34.7745665,22.4 L34.7745665,0.370247934 L43.8381503,0.370247934 C46.150289,0.370247934 48,1.01818182 49.2023121,2.12892562 C50.4971098,3.3322314 51.1445087,4.99834711 51.1445087,6.94214876 C51.1445087,7.96033058 50.867052,8.9785124 50.3121387,10.0892562 C49.7572254,11.107438 48.8323699,11.9404959 47.5375723,12.5884298 L47.2601156,12.6809917 L53.4566474,22.307438 L50.0346821,22.307438 Z M39.9537572,10.3669421 L42.9132948,10.3669421 C44.0231214,10.3669421 44.7630058,10.0892562 45.3179191,9.5338843 C45.8728324,8.9785124 46.150289,8.23801653 46.150289,7.31239669 C46.150289,6.38677686 45.8728324,5.64628099 45.4104046,5.09090909 C44.8554913,4.53553719 44.1156069,4.25785124 43.0057803,4.25785124 L40.0462428,4.25785124 L39.9537572,10.3669421 Z" id="path172"></path>
                        <path d="M14.0578035,0.370247934 L8.23121387,0.370247934 L0,22.307438 L3.60693642,22.307438 C4.53179191,22.307438 5.36416185,21.7520661 5.6416185,20.8264463 L6.47398844,18.2347107 L15.3526012,18.2347107 L16.6473988,22.307438 L22.1040462,22.307438 L14.0578035,0.370247934 Z M7.76878613,14.3471074 L9.71098266,8.79338843 C10.1734104,7.59008264 10.6358382,6.20165289 10.9132948,5.27603306 L11.0057803,5.27603306 C11.283237,6.29421488 11.7456647,7.49752066 12.1156069,8.79338843 L14.0578035,14.3471074 L7.76878613,14.3471074 Z" id="path176"></path>
                        <path d="M124.393064,21.3818182 L124.393064,17.2165289 C125.965318,17.9570248 128.092486,18.6975207 130.219653,18.6975207 C132.716763,18.6975207 133.919075,17.8644628 133.919075,16.1983471 C133.919075,14.2545455 132.254335,14.0694215 128.83237,12.5884298 C126.520231,11.5702479 124.393064,9.99669421 124.393064,6.29421488 C124.393064,2.03636364 127.630058,0 132.16185,0 C134.566474,0 136.601156,0.555371901 137.710983,1.01818182 L137.710983,5.09090909 C136.601156,4.53553719 134.566474,3.88760331 132.439306,3.88760331 C130.219653,3.88760331 129.202312,4.72066116 129.202312,6.10909091 C129.202312,7.59008264 130.49711,8.05289256 132.716763,8.88595041 C135.583815,10.3669421 139.00578,11.014876 139.00578,15.9206612 C139.00578,20.1785124 135.583815,22.492562 131.052023,22.492562 C128.369942,22.585124 126.150289,22.122314 124.393064,21.3818182" id="path180"></path>
                        <path d="M82.6820809,0.370247934 L85.8265896,0.370247934 C87.3063584,0.370247934 88.6936416,1.1107438 89.5260116,2.40661157 L95.6300578,12.2181818 C96.2774566,13.3289256 97.1098266,14.7173554 97.5722543,15.7355372 L97.6647399,15.7355372 C97.5722543,14.7173554 97.5722543,13.4214876 97.5722543,12.4033058 L97.5722543,0.370247934 L102.011561,0.370247934 L102.011561,22.307438 L96.4624277,22.307438 L89.0635838,10.4595041 C88.416185,9.34876033 87.6763006,8.05289256 87.1213873,7.03471074 L87.0289017,7.03471074 C87.0289017,7.96033058 87.1213873,9.07107438 87.1213873,10.1818182 L87.1213873,22.307438 L82.6820809,22.307438 L82.6820809,0.370247934 Z" id="path184"></path>
                        <polygon id="path186" points="72.9710983 0.370247934 78.0578035 0.370247934 78.0578035 22.307438 72.9710983 22.307438"></polygon>
                    </g>
                </g>
                <g id="g32">
                    <path d="M30.8901734,0.185123967 C44.9479769,1.6661157 55.9537572,13.5140496 55.9537572,28.046281 C55.9537572,43.5041322 43.4682081,56 28.0231214,56 C12.5780347,56 0,43.5041322 0,28.046281 C0,12.5884298 12.4855491,0 28.0231214,0 C28.9479769,0 29.9653179,0.0925619835 30.8901734,0.185123967 M32.3699422,54.0561983 C46.7052023,51.6495868 56.416185,38.0429752 54.0115607,23.6033058 C51.9768786,11.6628099 42.265896,2.96198347 30.7976879,1.75867769 C28.4855491,1.48099174 26.0809249,1.57355372 23.6763006,1.94380165 C20.8092486,2.40661157 18.1271676,3.3322314 15.7225434,4.62809917 C28.300578,8.9785124 35.1445087,15.5504132 35.6069364,22.214876 C35.8843931,26.3801653 33.9421965,29.3421488 31.3526012,31.7487603 L49.2947977,30.5454545 C49.7572254,30.5454545 49.9421965,31.1008264 49.3872832,31.2859504 L6.56647399,43.5041322 C10.9132948,49.5206612 17.6647399,53.5008264 25.1560694,54.2413223 C27.5606936,54.5190083 29.9653179,54.5190083 32.3699422,54.0561983 M20.6242775,28.6016529 C22.9364162,19.8082645 20.2543353,10.5520661 13.8728324,5.64628099 C5.17919075,11.2 0.0924855491,21.5669421 1.94219653,32.3966942 C2.49710983,36.0066116 3.79190751,39.246281 5.6416185,42.1157025 C12.4855491,40.2644628 18.4971098,36.6545455 20.6242775,28.6016529" id="white" fill="#FFFFFF"></path>
                    <path d="M32.3699422,54.0561983 C46.7052023,51.6495868 56.416185,38.0429752 54.0115607,23.6033058 C51.9768786,11.6628099 42.265896,2.96198347 30.7976879,1.75867769 C28.4855491,1.48099174 26.0809249,1.57355372 23.6763006,1.94380165 C20.8092486,2.40661157 18.1271676,3.3322314 15.7225434,4.62809917 C28.300578,8.9785124 35.1445087,15.5504132 35.6069364,22.214876 C35.8843931,26.3801653 33.9421965,29.3421488 31.3526012,31.7487603 L49.2947977,30.5454545 C49.7572254,30.5454545 49.9421965,31.1008264 49.3872832,31.2859504 L6.56647399,43.5041322 C10.9132948,49.5206612 17.6647399,53.5008264 25.1560694,54.2413223 C27.5606936,54.5190083 29.9653179,54.5190083 32.3699422,54.0561983 Z M20.6242775,28.6016529 C22.9364162,19.8082645 20.2543353,10.5520661 13.8728324,5.64628099 C5.17919075,11.2 0.0924855491,21.5669421 1.94219653,32.3966942 C2.49710983,36.0066116 3.79190751,39.246281 5.6416185,42.1157025 C12.4855491,40.2644628 18.4971098,36.6545455 20.6242775,28.6016529 L20.6242775,28.6016529 Z" id="red" fill="#C70A0C"></path>
                </g>
            </g>
        </g>
    </g>
</svg>