<?xml version="1.0" encoding="UTF-8"?>
<svg width="352px" height="72px" viewBox="0 0 352 72" version="1.1" xmlns="http://www.w3.org/2000/svg" xmlns:xlink="http://www.w3.org/1999/xlink">
    <title>Vistara</title>
    <g id="Taskboard" stroke="none" stroke-width="1" fill="none" fill-rule="evenodd">
        <g id="Vistara">
            <rect id="Rectangle" fill="#FFFFFF" x="0" y="0" width="352" height="72"></rect>
            <g id="vistara-logo-vector" transform="translate(70.000000, 8.000000)" fill-rule="nonzero">
                <path d="M55.7705,27.5746835 C55.664,27.4329114 52.753,23.6050633 47.3215,20.0962025 C47.783,18.0050633 47.996,16.1620253 48.1025,14.6379747 C48.351,11.0227848 47.996,8.6835443 47.996,8.57721519 L47.925,8.1164557 L47.4635,8.04556962 C47.357,8.04556962 45.014,7.6556962 41.393,7.93924051 C39.902,8.04556962 38.0205,8.25822785 35.9615,8.6835443 C32.447,3.26075949 28.613,0.425316456 28.471,0.283544304 L28.0805,0 L27.69,0.283544304 C27.5125,0.425316456 23.714,3.26075949 20.164,8.71898734 C18.0695,8.25822785 16.2235,8.04556962 14.697,7.93924051 C11.076,7.69113924 8.733,8.04556962 8.6265,8.04556962 L8.1295,8.1164557 L8.0585,8.57721519 C8.023,8.6835443 7.7035,11.0227848 7.952,14.6379747 C8.0585,16.1620253 8.2715,18.0050633 8.733,20.0962025 C3.2305,23.6050633 0.3905,27.3974684 0.284,27.5746835 L0,27.964557 L0.284,28.3544304 C0.3905,28.5316456 3.266,32.3240506 8.733,35.8683544 C8.307,37.9240506 8.0585,39.8025316 7.952,41.2911392 C7.7035,44.9063291 8.023,47.2455696 8.0585,47.3518987 L8.1295,47.8481013 L8.6265,47.9189873 C8.6975,47.9189873 9.9755,48.0962025 12.0345,48.0962025 C12.8155,48.0962025 13.703,48.0607595 14.697,47.9898734 C16.2235,47.8835443 18.105,47.6708861 20.164,47.2101266 C23.714,52.6683544 27.5125,55.5392405 27.69,55.6810127 L28.0805,56 L28.471,55.6810127 C28.6485,55.5746835 32.447,52.6683544 35.9615,47.2455696 C38.0205,47.6708861 39.8665,47.9189873 41.393,48.0253165 C42.387,48.0962025 43.2745,48.1316456 44.0555,48.1316456 C46.1145,48.1316456 47.3925,47.9544304 47.4635,47.9544304 L47.9605,47.8835443 L48.0315,47.3873418 C48.0315,47.2810127 48.3865,44.9417722 48.138,41.3265823 C48.0315,39.8025316 47.8185,37.9594937 47.357,35.9037975 C52.824,32.3949367 55.735,28.5670886 55.8415,28.4253165 L56.161,28.035443 L55.7705,27.5746835 Z M44.6235,27.964557 C45.1915,26.7594937 45.6885,25.5544304 46.079,24.3848101 C48.209,25.8734177 49.629,27.2556962 50.268,27.9291139 C49.629,28.6025316 48.209,30.0202532 46.0435,31.5088608 C45.6885,30.3746835 45.1915,29.1696203 44.6235,27.964557 M41.393,9.21518987 C43.949,9.03797468 45.866,9.17974684 46.718,9.25063291 C46.931,11.2708861 47.3925,19.2810127 43.31,27.6810127 C42.7775,28.7443038 42.2095,29.8075949 41.606,30.764557 C41.1445,31.4734177 40.683,32.1822785 40.186,32.8202532 L40.044,33.0329114 L40.0795,33.3164557 C40.5765,36.4708861 40.328,39.0936709 40.186,40.0860759 C39.192,40.2278481 36.6005,40.4759494 33.4055,39.9797468 L33.1215,39.9443038 L32.9085,40.121519 C32.376,40.5113924 31.7725,40.9367089 31.169,41.3265823 C30.601,41.078481 29.9975,40.8303797 29.4295,40.5113924 C30.601,39.8025316 31.737,39.0227848 32.802,38.1721519 C35.855,38.9164557 38.056,38.7037975 38.1625,38.7037975 L38.695,38.6683544 L38.7305,38.1367089 C38.7305,38.0303797 38.9435,35.8329114 38.198,32.8202532 C39.334,31.4025316 40.328,29.878481 41.2155,28.3189873 C41.7835,27.2911392 42.316,26.1924051 42.7775,25.0936709 C45.795,17.7924051 45.1915,11.7670886 45.156,11.4835443 L45.1205,10.9518987 L44.588,10.8810127 C44.3395,10.8455696 38.482,10.278481 31.311,13.1493671 C30.743,12.7949367 30.1395,12.4405063 29.536,12.121519 C34.1155,10.1012658 38.4465,9.4278481 41.393,9.21518987 M41.393,33.4227848 C41.606,33.1392405 41.819,32.8556962 41.9965,32.5721519 C43.9135,37.7822785 43.949,42.2835443 43.9135,43.8075949 C42.387,43.878481 37.914,43.8075949 32.66,41.9291139 C32.944,41.7518987 33.1925,41.5746835 33.441,41.3620253 C37.63,41.964557 40.7185,41.3620253 40.8605,41.3620253 L41.2865,41.2911392 L41.3575,40.8658228 C41.4285,40.6886076 41.9965,37.5696203 41.393,33.4227848 M19.028,32.1468354 C17.963,30.835443 17.0045,29.4177215 16.1525,27.964557 C16.969,26.5113924 17.9275,25.0936709 18.9925,23.7822785 L19.2055,23.5341772 L19.1345,23.2151899 C18.602,21.1240506 18.531,19.4227848 18.5665,18.5721519 C19.4185,18.5721519 21.1225,18.6075949 23.217,19.1392405 L23.5365,19.2101266 L23.785,18.9974684 C25.134,17.9341772 26.554,16.9417722 28.045,16.0911392 C29.536,16.9417722 30.956,17.8987342 32.2695,18.9620253 L32.518,19.1746835 L32.8375,19.1037975 C34.932,18.5721519 36.636,18.5012658 37.4525,18.5012658 C37.4525,19.3518987 37.417,21.0531646 36.8845,23.1443038 L36.8135,23.4632911 L37.0265,23.7113924 C38.0915,25.0227848 39.05,26.4405063 39.902,27.9291139 C39.05,29.4177215 38.0915,30.835443 37.0265,32.1822785 L36.8135,32.4303797 L36.8845,32.7493671 C37.417,34.8050633 37.488,36.5417722 37.488,37.3924051 C36.636,37.3924051 34.932,37.356962 32.873,36.7898734 L32.5535,36.7189873 L32.305,36.9316456 C30.9915,37.9949367 29.5715,38.9518987 28.116,39.7670886 C26.625,38.9164557 25.205,37.9594937 23.8915,36.8962025 L23.643,36.6835443 L23.3235,36.7544304 C21.229,37.2860759 19.525,37.356962 18.673,37.321519 C18.6375,36.4708861 18.7085,34.7696203 19.241,32.678481 L19.312,32.3594937 L19.028,32.1468354 Z M41.393,15.0987342 L41.322,14.6734177 L40.896,14.6025316 C40.754,14.5670886 37.6655,14 33.4765,14.6025316 C33.228,14.4253165 32.944,14.2126582 32.66,14.035443 C37.914,12.121519 42.3515,12.121519 43.878,12.156962 C43.949,13.6810127 43.9135,18.1468354 41.9965,23.356962 C41.819,23.0734177 41.606,22.7898734 41.393,22.5063291 C41.9965,18.3240506 41.4285,15.2405063 41.393,15.0987342 M27.974,11.3417722 C26.767,10.7746835 25.5955,10.278481 24.424,9.88860759 C25.915,7.76202532 27.335,6.37974684 28.0095,5.74177215 C28.684,6.37974684 30.0685,7.76202532 31.5595,9.88860759 C30.388,10.278481 29.2165,10.7746835 27.974,11.3417722 M28.0095,1.63037975 C29.039,2.44556962 31.8435,4.96202532 34.5415,8.96708861 C34.009,9.10886076 33.441,9.25063291 32.873,9.4278481 C30.601,6.13164557 28.5065,4.39493671 28.4355,4.32405063 L28.0095,3.96962025 L27.5835,4.32405063 C27.477,4.39493671 25.3825,6.13164557 23.1105,9.4278481 C22.5425,9.25063291 21.9745,9.10886076 21.442,8.96708861 C24.1755,4.96202532 27.0155,2.48101266 28.0095,1.63037975 M9.2655,9.25063291 C11.289,9.03797468 19.2765,8.57721519 27.69,12.6531646 C28.7905,13.1848101 29.8555,13.7518987 30.8495,14.3898734 C31.5595,14.8151899 32.2695,15.3113924 32.873,15.7721519 L33.086,15.9493671 L33.3345,15.9139241 C36.494,15.4177215 39.121,15.6658228 40.115,15.8075949 C40.257,16.8 40.5055,19.3873418 40.0085,22.5772152 L39.973,22.8607595 L40.1505,23.0734177 C40.5765,23.6405063 40.967,24.278481 41.3575,24.8810127 C41.109,25.4835443 40.8605,26.0506329 40.541,26.6177215 C39.831,25.4481013 39.05,24.278481 38.198,23.2151899 C38.908,20.1670886 38.7305,17.9696203 38.7305,17.8987342 L38.695,17.3670886 L38.127,17.2962025 C38.0205,17.2962025 35.855,17.0835443 32.802,17.8278481 C31.382,16.7291139 29.891,15.7012658 28.329,14.8506329 C27.264,14.2835443 26.1635,13.7518987 25.0275,13.2911392 C17.7145,10.278481 11.6795,10.8810127 11.431,10.9164557 L10.8985,10.9518987 L10.8275,11.4835443 C10.792,11.7316456 10.224,17.5797468 13.0995,24.7392405 C12.7445,25.3417722 12.3895,25.9088608 12.07,26.5113924 C10.082,21.9037975 9.372,17.5797468 9.1945,14.6379747 C9.0525,12.0506329 9.1945,10.1012658 9.2655,9.25063291 M14.555,22.5063291 C14.3775,22.7544304 14.2,23.0379747 14.0225,23.2860759 C12.1055,18.0405063 12.1055,13.5746835 12.141,12.0860759 C13.6675,12.0151899 18.105,12.0506329 23.359,13.964557 C23.075,14.1417722 22.791,14.3544304 22.5425,14.5316456 C18.3535,13.9291139 15.2295,14.5316456 15.0875,14.5670886 L14.6615,14.6379747 L14.555,15.0632911 C14.555,15.2405063 13.9515,18.3240506 14.555,22.5063291 M9.9045,31.5088608 C7.7745,30.0202532 6.3545,28.6379747 5.751,27.964557 C6.39,27.2911392 7.7745,25.9088608 9.9045,24.4202532 C10.295,25.5898734 10.792,26.7594937 11.36,27.964557 C10.792,29.1696203 10.295,30.3746835 9.9045,31.5088608 M1.633,27.964557 C2.4495,26.9367089 4.97,24.1367089 8.9815,21.443038 C9.1235,21.9746835 9.2655,22.5417722 9.443,23.1088608 C6.1415,25.3772152 4.402,27.4683544 4.331,27.5392405 L3.976,27.964557 L4.331,28.3898734 C4.402,28.4962025 6.1415,30.5518987 9.4785,32.8556962 C9.301,33.4227848 9.159,33.9898734 9.017,34.521519 C5.0055,31.8278481 2.485,28.9924051 1.633,27.964557 M14.5905,46.678481 C12.0345,46.8556962 10.1175,46.7493671 9.2655,46.643038 C9.1945,45.7924051 9.0525,43.878481 9.23,41.3265823 C9.443,38.1367089 10.224,33.2810127 12.638,28.2481013 C13.1705,27.1848101 13.7385,26.0860759 14.3775,25.0936709 C14.8035,24.3848101 15.265,23.7113924 15.7265,23.0734177 L15.904,22.8607595 L15.8685,22.5772152 C15.3715,19.3873418 15.6555,16.8 15.7975,15.7721519 C16.7915,15.6303797 19.383,15.3822785 22.578,15.843038 L22.8265,15.878481 L23.0395,15.7367089 C23.6075,15.3113924 24.211,14.921519 24.8145,14.5316456 C25.418,14.7797468 26.0215,15.0632911 26.625,15.3468354 C25.418,16.0556962 24.2465,16.8708861 23.146,17.721519 C20.093,17.0126582 17.892,17.2253165 17.7855,17.2253165 L17.253,17.2962025 L17.182,17.8278481 C17.182,17.9341772 16.969,20.1316456 17.679,23.1797468 C16.5785,24.5620253 15.5845,26.0506329 14.7325,27.6101266 C14.129,28.6734177 13.5965,29.7721519 13.135,30.9063291 C10.153,38.2075949 10.6855,44.2329114 10.721,44.4810127 L10.792,45.0126582 L11.3245,45.0481013 C11.3955,45.0481013 11.928,45.1189873 12.8155,45.1189873 C15.052,45.1189873 19.525,44.8 24.637,42.7797468 C25.205,43.1341772 25.773,43.4531646 26.341,43.7367089 C21.9035,45.7924051 17.537,46.4658228 14.5905,46.678481 M14.0225,32.6075949 C14.2,32.8556962 14.3775,33.1392405 14.555,33.3873418 C13.9515,37.5696203 14.555,40.6886076 14.5905,40.8303797 L14.697,41.2556962 L15.123,41.3265823 C15.265,41.3620253 18.389,41.964557 22.578,41.3620253 C22.862,41.5392405 23.1105,41.7518987 23.3945,41.9291139 C18.1405,43.843038 13.632,43.878481 12.1055,43.843038 C12.07,42.3189873 12.1055,37.8531646 14.0225,32.6075949 M27.974,44.5518987 C29.181,45.1189873 30.388,45.6151899 31.5595,46.0050633 C30.0685,48.1316456 28.684,49.5493671 28.0095,50.1873418 C27.335,49.5493671 25.9505,48.1316456 24.424,45.9696203 C25.5955,45.6151899 26.8025,45.1189873 27.974,44.5518987 M28.0095,54.2987342 C26.98,53.4481013 24.14,50.9316456 21.4775,46.8911392 C22.01,46.7493671 22.578,46.6075949 23.146,46.4303797 C25.418,49.7620253 27.5125,51.5341772 27.619,51.6050633 L28.045,51.9594937 L28.471,51.6050633 C28.5775,51.5341772 30.6365,49.7620253 32.9085,46.4303797 C33.4765,46.6075949 34.009,46.7493671 34.577,46.8911392 C31.879,50.8962025 29.039,53.4481013 28.0095,54.2987342 M46.718,46.643038 C45.8305,46.7139241 43.949,46.8556962 41.393,46.678481 C38.198,46.4658228 33.299,45.6860759 28.2935,43.2405063 C27.2285,42.7443038 26.1635,42.1417722 25.1695,41.5392405 C24.4595,41.1139241 23.785,40.6177215 23.1105,40.156962 L22.8975,39.9797468 L22.6135,40.0151899 C19.4185,40.5113924 16.827,40.2278481 15.7975,40.0860759 C15.6555,39.0936709 15.3715,36.4708861 15.8685,33.2810127 L15.904,32.9974684 L15.7265,32.7848101 C15.336,32.2177215 14.9455,31.6506329 14.555,31.0481013 C14.8035,30.4455696 15.0875,29.843038 15.3715,29.2405063 C16.0815,30.4455696 16.8625,31.5797468 17.75,32.643038 C17.04,35.6911392 17.253,37.8886076 17.253,37.9949367 L17.324,38.5265823 L17.8565,38.5974684 C17.963,38.5974684 20.164,38.8101266 23.217,38.0658228 C24.637,39.164557 26.128,40.1924051 27.69,41.043038 C28.7195,41.6101266 29.82,42.1417722 30.9205,42.5670886 C36.1745,44.7291139 40.754,45.0481013 43.026,45.0481013 C43.949,45.0481013 44.4815,45.0126582 44.5525,44.9772152 L45.085,44.9063291 L45.156,44.3746835 C45.1915,44.1265823 45.724,38.243038 42.8485,31.0835443 C43.2035,30.5164557 43.523,29.9493671 43.8425,29.3822785 C45.8305,33.9544304 46.505,38.3139241 46.718,41.2202532 C46.931,43.878481 46.789,45.7924051 46.718,46.643038 M46.9665,34.4860759 C46.8245,33.9544304 46.6825,33.3873418 46.505,32.8556962 C49.842,30.5873418 51.617,28.4962025 51.688,28.3898734 L52.043,27.964557 L51.688,27.5392405 C51.617,27.4329114 49.842,25.3772152 46.505,23.1088608 C46.6825,22.5417722 46.8245,22.0101266 46.9665,21.443038 C50.978,24.1012658 53.534,26.9367089 54.386,27.964557 C53.534,28.9924051 51.0135,31.8278481 46.9665,34.4860759" id="Shape" fill="#BA9653"></path>
                <path d="M71.71,45.4025316 L68.2665,45.4025316 L68.2665,48.0962025 L71.213,48.0962025 L71.213,48.8759494 L68.1955,48.8759494 C68.1955,48.8759494 68.2665,49.1240506 68.2665,49.3367089 L68.2665,52.5974684 L67.4145,52.5974684 L67.4145,44.6582278 L71.923,44.6582278 L71.71,45.4025316 Z" id="Path" fill="#501C4B"></path>
                <path d="M74.479,52.6683544 C73.5915,52.6683544 73.1655,52.2075949 73.1655,51.2506329 L73.1655,44.0202532 L74.0175,44.0202532 L74.0175,51.2506329 C74.0175,51.7468354 74.1595,51.9240506 74.5145,51.9240506 L74.9405,51.9240506 L74.9405,52.7037975 L74.479,52.7037975 L74.479,52.6683544 Z" id="Path" fill="#501C4B"></path>
                <path d="M77.887,54.121519 C77.5675,54.9367089 77.106,55.2202532 76.112,55.2202532 L75.331,55.2202532 L75.331,54.4405063 L76.112,54.4405063 C76.7865,54.4405063 76.9285,54.2987342 77.1415,53.7316456 L77.532,52.7037975 L75.26,46.643038 L76.1475,46.643038 L77.7805,51.0025316 C77.8515,51.1797468 77.9225,51.4987342 77.958,51.7468354 C78.029,51.4632911 78.1,51.1797468 78.171,51.0025316 L79.804,46.643038 L80.6915,46.643038 L77.887,54.121519 Z" id="Path" fill="#501C4B"></path>
                <path d="M86.5135,52.7392405 C85.626,52.7392405 84.9515,52.4202532 84.9515,51.1088608 L84.9515,47.8481013 C84.9515,47.635443 85.0225,47.5291139 85.058,47.4227848 L83.9575,47.4227848 L83.9575,46.678481 L84.987,46.678481 L84.987,44.6582278 L85.839,44.4101266 L85.839,46.678481 L87.969,46.678481 L87.7205,47.4227848 L85.839,47.4227848 L85.839,51.1443038 C85.839,51.8531646 86.1585,52.0658228 86.7975,52.0658228 C87.0815,52.0658228 87.401,51.9594937 87.756,51.7468354 L88.2885,52.3139241 C87.827,52.6329114 87.117,52.7392405 86.5135,52.7392405" id="Path" fill="#501C4B"></path>
                <path d="M93.2585,52.5974684 L93.2585,48.8050633 C93.2585,47.5291139 92.726,47.2101266 92.016,47.2101266 C91.519,47.2101266 91.164,47.3518987 90.6315,47.7417722 L90.0635,48.1316456 L90.0635,52.5974684 L89.2115,52.5974684 L89.2115,44.0202532 L90.0635,44.0202532 L90.0635,47.0683544 L89.9925,47.4582278 L90.525,47.0683544 C91.093,46.678481 91.5545,46.4658228 92.0515,46.4658228 C93.2585,46.4658228 94.146,47.1037975 94.146,48.7341772 L94.146,52.5620253 L93.2585,52.5620253 L93.2585,52.5974684 Z" id="Path" fill="#501C4B"></path>
                <path d="M96.2405,49.8683544 C96.276,51.321519 96.702,52.0303797 98.0865,52.0303797 C98.9385,52.0303797 99.471,51.7468354 99.755,51.1797468 L100.5005,51.4632911 C100.11,52.278481 99.4355,52.7392405 98.0865,52.7392405 C96.205,52.7392405 95.353,51.7822785 95.353,49.6202532 C95.353,47.635443 96.0275,46.5012658 98.122,46.5012658 C100.323,46.5012658 100.607,47.9544304 100.607,49.6202532 L100.607,49.8683544 L96.2405,49.8683544 L96.2405,49.8683544 Z M98.122,47.2101266 C96.9505,47.2101266 96.347,47.6708861 96.276,49.1594937 L99.7195,49.1594937 C99.7195,47.9544304 99.4355,47.2101266 98.122,47.2101266" id="Shape" fill="#501C4B"></path>
                <path d="M108.701,52.5974684 L108.701,48.8050633 C108.701,47.5291139 108.1685,47.2101266 107.4585,47.2101266 C106.9615,47.2101266 106.642,47.3518987 106.074,47.7417722 L105.506,48.1316456 L105.506,52.5974684 L104.654,52.5974684 L104.654,46.678481 L105.3285,46.678481 L105.506,47.3873418 L105.932,47.1037975 C106.5,46.7139241 106.9615,46.5012658 107.4585,46.5012658 C108.6655,46.5012658 109.553,47.1392405 109.553,48.7696203 L109.553,52.5974684 L108.701,52.5974684 L108.701,52.5974684 Z" id="Path" fill="#501C4B"></path>
                <path d="M111.7185,49.8683544 C111.754,51.321519 112.18,52.0303797 113.5645,52.0303797 C114.4165,52.0303797 114.949,51.7468354 115.233,51.1797468 L115.9785,51.4632911 C115.588,52.278481 114.878,52.7392405 113.5645,52.7392405 C111.683,52.7392405 110.831,51.7822785 110.831,49.6202532 C110.831,47.635443 111.5055,46.5012658 113.6,46.5012658 C115.801,46.5012658 116.1205,47.9544304 116.1205,49.6202532 L116.1205,49.8683544 L111.7185,49.8683544 L111.7185,49.8683544 Z M113.5645,47.2101266 C112.4285,47.2101266 111.7895,47.6708861 111.7185,49.1594937 L115.162,49.1594937 C115.162,47.9544304 114.878,47.2101266 113.5645,47.2101266" id="Shape" fill="#501C4B"></path>
                <path d="M123.0075,52.5974684 L122.1555,52.5974684 L120.9485,48.6632911 C120.842,48.2734177 120.7355,47.564557 120.7355,47.564557 C120.7355,47.564557 120.6645,48.3088608 120.558,48.6632911 L119.3155,52.5974684 L118.4635,52.5974684 L116.6175,46.678481 L117.4695,46.678481 L118.6765,50.7189873 C118.783,51.0379747 118.8895,51.8177215 118.8895,51.8177215 C118.8895,51.8177215 118.996,51.0734177 119.1025,50.7189873 L120.345,46.678481 L121.1615,46.678481 L122.404,50.7189873 C122.5105,51.0734177 122.5815,51.8177215 122.5815,51.8177215 C122.5815,51.8177215 122.7235,51.0379747 122.7945,50.7189873 L124.037,46.678481 L124.889,46.678481 L123.0075,52.5974684 Z" id="Path" fill="#501C4B"></path>
                <path d="M132.344,44.9063291 C132.131,44.8708861 131.9535,44.835443 131.8115,44.8 C131.634,44.764557 131.4565,44.7291139 131.1725,44.7291139 C130.5335,44.7291139 129.9655,45.0481013 129.9655,46.0050633 L129.9655,46.643038 L131.989,46.643038 L131.8115,47.3873418 L129.9655,47.3873418 L129.9655,52.5620253 L129.1135,52.5620253 L129.1135,47.8835443 C129.1135,47.7063291 129.149,47.564557 129.22,47.3873418 L128.1905,47.3873418 L128.1905,46.643038 L129.1135,46.643038 L129.1135,46.0050633 C129.1135,44.6582278 129.9655,43.9848101 131.1725,43.9848101 C131.7405,43.9848101 131.989,44.0556962 132.5215,44.1265823 L132.344,44.9063291 Z" id="Path" fill="#501C4B"></path>
                <path d="M133.409,49.8683544 C133.4445,51.321519 133.8705,52.0303797 135.255,52.0303797 C136.107,52.0303797 136.6395,51.7468354 136.9235,51.1797468 L137.669,51.4632911 C137.2785,52.278481 136.5685,52.7392405 135.255,52.7392405 C133.3735,52.7392405 132.486,51.7822785 132.486,49.6202532 C132.486,47.635443 133.1605,46.5012658 135.255,46.5012658 C137.456,46.5012658 137.7755,47.9544304 137.7755,49.6202532 L137.7755,49.8683544 L133.409,49.8683544 L133.409,49.8683544 Z M135.2905,47.2101266 C134.119,47.2101266 133.5155,47.6708861 133.4445,49.1594937 L136.888,49.1594937 C136.888,47.9544304 136.604,47.2101266 135.2905,47.2101266" id="Shape" fill="#501C4B"></path>
                <path d="M139.7635,49.8683544 C139.799,51.321519 140.225,52.0303797 141.6095,52.0303797 C142.4615,52.0303797 142.994,51.7468354 143.278,51.1797468 L144.0235,51.4632911 C143.633,52.278481 142.9585,52.7392405 141.6095,52.7392405 C139.6925,52.7392405 138.8405,51.7822785 138.8405,49.6202532 C138.8405,47.635443 139.515,46.5012658 141.6095,46.5012658 C143.8105,46.5012658 144.13,47.9544304 144.13,49.6202532 L144.13,49.8683544 L139.7635,49.8683544 L139.7635,49.8683544 Z M141.6095,47.2101266 C140.438,47.2101266 139.8345,47.6708861 139.7635,49.1594937 L143.2425,49.1594937 C143.207,47.9544304 142.923,47.2101266 141.6095,47.2101266" id="Shape" fill="#501C4B"></path>
                <path d="M146.7215,52.6683544 C145.8695,52.6683544 145.408,52.2075949 145.408,51.2506329 L145.408,44.0202532 L146.26,44.0202532 L146.26,51.2506329 C146.26,51.7468354 146.402,51.9240506 146.757,51.9240506 L147.183,51.9240506 L147.183,52.7037975 L146.7215,52.7037975 L146.7215,52.6683544 Z" id="Path" fill="#501C4B"></path>
                <path d="M149.029,45.0481013 L148.1415,45.0481013 L148.0705,44.9417722 L148.0705,44.0911392 L148.1415,43.9848101 L149.029,43.9848101 L149.1,44.0911392 L149.1,44.9417722 L149.029,45.0481013 Z M148.1415,46.678481 L148.9935,46.678481 L148.9935,52.5974684 L148.1415,52.5974684 L148.1415,46.678481 Z" id="Shape" fill="#501C4B"></path>
                <path d="M154.6025,52.5974684 L154.6025,48.8050633 C154.6025,47.5291139 154.07,47.2101266 153.36,47.2101266 C152.863,47.2101266 152.508,47.3518987 151.9755,47.7417722 L151.4075,48.1316456 L151.4075,52.5974684 L150.5555,52.5974684 L150.5555,46.678481 L151.23,46.678481 L151.4075,47.3873418 L151.8335,47.1037975 C152.4015,46.7139241 152.863,46.5012658 153.36,46.5012658 C154.567,46.5012658 155.4545,47.1392405 155.4545,48.7696203 L155.4545,52.5974684 L154.6025,52.5974684 L154.6025,52.5974684 Z" id="Path" fill="#501C4B"></path>
                <path d="M162.2705,47.3164557 L161.8445,47.3164557 C161.738,47.3164557 161.525,47.3164557 161.312,47.2455696 C161.667,47.635443 161.809,48.1670886 161.809,48.556962 C161.809,49.9392405 161.028,50.5772152 159.395,50.5772152 C159.111,50.5772152 158.969,50.5417722 158.7205,50.5063291 L158.2945,50.435443 C157.9395,50.435443 157.7975,50.6481013 157.7975,50.8962025 C157.7975,51.1088608 157.9395,51.2506329 158.2235,51.2860759 L160.673,51.7113924 C161.951,51.9240506 162.235,52.5974684 162.235,53.3417722 C162.235,54.7594937 160.9925,55.1848101 159.395,55.1848101 C158.0815,55.1848101 156.555,54.9367089 156.555,53.2 C156.555,52.4911392 156.91,51.9949367 157.407,51.6405063 C157.194,51.4632911 157.052,51.2506329 157.052,50.8607595 C157.052,50.4708861 157.265,50.2227848 157.6555,50.0101266 C157.194,49.5848101 157.0165,49.1240506 157.0165,48.521519 C157.0165,47.0329114 158.1525,46.4658228 159.4305,46.4658228 C160.034,46.4658228 160.531,46.5367089 160.9925,46.8202532 L161.9155,46.4658228 L162.519,46.4658228 L162.2705,47.3164557 Z M160.4955,52.4556962 L157.975,51.9949367 C157.5845,52.243038 157.407,52.7037975 157.407,53.235443 C157.407,54.2278481 158.0815,54.5468354 159.3595,54.5468354 C160.815,54.5468354 161.312,54.0860759 161.312,53.3772152 C161.2765,52.8455696 161.0635,52.5620253 160.4955,52.4556962 M159.324,47.1746835 C158.3655,47.1746835 157.762,47.564557 157.762,48.556962 C157.762,49.6202532 158.4365,49.8683544 159.324,49.8683544 C160.2825,49.8683544 160.886,49.5848101 160.886,48.556962 C160.886,47.6708861 160.3535,47.1746835 159.324,47.1746835" id="Shape" fill="#501C4B"></path>
                <path d="M63.261,19.0683544 L66.74,19.0683544 C67.166,19.0683544 67.308,19.3518987 67.3435,19.4227848 C69.1895,22.8607595 75.473,34.0253165 75.473,34.0253165 C75.473,34.0253165 81.863,22.8253165 83.7445,19.3873418 C83.8155,19.2810127 83.922,19.0329114 84.3125,19.0329114 L86.0875,19.0329114 C86.3715,19.0329114 86.5135,19.3518987 86.3715,19.564557 C84.206,23.356962 78.2065,33.7772152 76.9285,36.0455696 C76.7865,36.3291139 76.609,36.4708861 76.2895,36.4708861 L72.988,36.4708861 C72.6685,36.4708861 72.4555,36.2582278 72.3135,36.0101266 C71.0355,33.7772152 65.0715,23.3924051 62.906,19.635443 C62.906,19.4936709 62.764,19.0683544 63.261,19.0683544" id="Path" fill="#501C4B"></path>
                <path d="M115.7655,22.0810127 C114.8425,21.5848101 112.0735,20.1316456 107.849,20.1316456 C103.2695,20.1316456 102.382,22.0810127 102.382,23.4632911 C102.382,25.2 104.1925,25.6962025 106.287,25.8379747 C107.565,25.9443038 110.7955,26.0860759 112.535,26.4050633 C116.6885,27.1493671 117.789,29.4886076 117.789,31.3670886 C117.789,35.3012658 113.2095,36.9670886 107.6715,36.9670886 C102.9855,36.9670886 99.613,35.478481 98.264,34.7341772 C98.0155,34.5924051 98.0155,34.2734177 98.122,34.0607595 C98.477,33.4227848 98.3705,33.635443 98.6545,33.1037975 C98.7965,32.8202532 99.045,32.7848101 99.2935,32.9265823 C100.394,33.635443 103.9085,35.3367089 107.707,35.3367089 C111.612,35.3367089 113.7065,33.635443 113.7065,31.9341772 C113.7065,30.5164557 113.174,29.6303797 110.2275,29.2050633 C108.6655,28.9924051 105.1865,28.9924051 103.4115,28.5670886 C101.6365,28.1772152 98.548,27.3265823 98.548,23.8886076 C98.548,21.9746835 100.0745,18.4658228 108.062,18.4658228 C112.4285,18.4658228 115.3395,19.635443 116.795,20.3797468 C117.0435,20.521519 117.1145,20.7341772 116.9725,20.9822785 C116.724,21.3721519 116.653,21.5493671 116.4045,21.9392405 C116.227,22.1518987 115.9785,22.1873418 115.7655,22.0810127" id="Path" fill="#501C4B"></path>
                <path d="M93.294,19.0683544 L90.454,19.0683544 C90.17,19.0683544 89.9215,19.3164557 89.9215,19.6 L89.9215,35.9037975 C89.9215,36.2227848 90.17,36.5063291 90.454,36.5063291 L93.294,36.5063291 C93.578,36.5063291 93.8265,36.2227848 93.8265,35.9037975 L93.8265,19.6 C93.8265,19.3164557 93.578,19.0683544 93.294,19.0683544" id="Path" fill="#501C4B"></path>
                <path d="M134.616,35.5848101 C134.3675,34.8759494 134.474,35.1594937 134.261,34.521519 C134.1545,34.1670886 133.835,34.2379747 133.693,34.2734177 C132.557,34.7341772 130.995,35.1240506 129.8945,35.1240506 C127.09,35.1240506 125.457,33.9189873 125.457,31.4025316 L125.457,21.2658228 L133.338,21.2658228 C133.6575,21.2658228 133.9415,21.0177215 133.9415,20.7341772 L133.9415,19.9189873 C133.9415,19.6 133.6575,19.3873418 133.338,19.3873418 L125.457,19.3873418 L125.457,15.1696203 C125.457,14.7797468 125.102,14.6379747 124.8535,14.7443038 C124.179,14.956962 122.901,15.3822785 122.191,15.5949367 C121.9425,15.6658228 121.694,15.878481 121.694,16.2683544 L121.694,30.4810127 C121.694,34.0253165 123.753,36.8962025 129.3265,36.8962025 C131.279,36.8962025 133.125,36.4708861 134.2965,36.1164557 C134.474,36.0810127 134.758,35.9392405 134.616,35.5848101" id="Path" fill="#501C4B"></path>
                <path d="M181.689,35.6911392 C179.701,34.1670886 175.228,30.8 174.6955,30.3746835 C177.855,30.3746835 181.5825,28.5670886 181.5825,24.5974684 C181.5825,20.2379747 177.3225,19.0329114 175.3345,19.0329114 L162.448,19.0329114 C162.164,19.0329114 161.9155,19.2810127 161.9155,19.635443 L161.9155,35.8683544 C161.9155,36.1873418 162.164,36.4708861 162.448,36.4708861 L165.1815,36.4708861 C165.4655,36.4708861 165.714,36.1873418 165.714,35.8683544 L165.714,30.5164557 L169.9385,30.5164557 C169.9385,30.5164557 174.7665,34.4151899 176.435,35.7974684 C176.577,35.9392405 177.1805,36.435443 177.8195,36.435443 L181.5825,36.435443 C181.8665,36.5063291 182.1505,36.0455696 181.689,35.6911392 M165.7495,28.8860759 L165.7495,20.8050633 L173.808,20.8050633 C176.364,20.8050633 177.5,22.8607595 177.5,24.6683544 C177.5,26.6886076 176.506,28.8860759 173.24,28.8860759 L165.7495,28.8860759 L165.7495,28.8860759 Z" id="Shape" fill="#501C4B"></path>
                <path d="M157.3715,26.2278481 L157.3715,26.0860759 C157.3715,24.9873418 157.0875,22.4708861 154.9575,20.7341772 C154.212,20.1316456 151.94,18.7139241 147.538,18.7139241 C143.8815,18.7139241 141.1125,19.635443 138.4145,21.0531646 C138.166,21.1594937 138.095,21.4075949 138.2015,21.6202532 C138.521,22.3291139 138.45,22.2582278 138.663,22.6835443 C138.7695,22.9316456 138.9825,23.0025316 139.2665,22.8253165 C140.6155,22.0455696 143.6685,20.4506329 147.112,20.4506329 C151.301,20.4506329 153.573,22.364557 153.573,24.9873418 L153.573,27.0075949 C152.082,26.6177215 149.313,26.0151899 146.5085,26.0151899 C139.373,26.0151899 136.888,28.6025316 136.888,31.5797468 C136.888,35.9037975 141.1835,36.9670886 144.982,36.9670886 C148.248,36.9670886 151.1945,36.2227848 153.502,34.4860759 L153.573,34.4860759 C153.573,35.3012658 153.573,35.9392405 153.573,35.9392405 C153.573,36.2582278 153.8215,36.5417722 154.1055,36.5417722 L156.8035,36.5417722 C157.123,36.5417722 157.336,36.2582278 157.336,35.9392405 L157.336,26.2278481 L157.3715,26.2278481 Z M145.7275,35.1949367 C141.8935,35.1949367 140.8995,33.2455696 140.8995,31.3670886 C140.8995,28.2126582 144.698,27.6101266 147.0765,27.6101266 C149.7745,27.6101266 152.1175,28.1063291 153.573,28.4607595 L153.573,32.7848101 C152.0465,33.8126582 149.668,35.1949367 145.7275,35.1949367" id="Shape" fill="#501C4B"></path>
                <path d="M205.19,26.2278481 L205.19,26.0860759 C205.19,24.9873418 204.9415,22.4708861 202.776,20.7341772 C202.0305,20.1316456 199.794,18.7139241 195.392,18.7139241 C191.7355,18.7139241 188.9665,19.635443 186.2685,21.0531646 C186.02,21.1594937 185.9845,21.4075949 186.0555,21.6202532 C186.375,22.3291139 186.304,22.2582278 186.517,22.6835443 C186.6235,22.9316456 186.8365,23.0025316 187.1205,22.8253165 C188.4695,22.0455696 191.5225,20.4506329 194.9305,20.4506329 C199.1195,20.4506329 201.3915,22.364557 201.3915,24.9873418 L201.3915,27.0075949 C199.9005,26.6177215 197.1315,26.0151899 194.3625,26.0151899 C187.1915,26.0151899 184.7065,28.6025316 184.7065,31.5797468 C184.7065,35.9037975 189.002,36.9670886 192.836,36.9670886 C196.102,36.9670886 199.013,36.2227848 201.356,34.4860759 L201.427,34.4860759 C201.427,35.3012658 201.427,35.9392405 201.427,35.9392405 C201.427,36.2582278 201.6755,36.5417722 201.995,36.5417722 L204.693,36.5417722 C204.977,36.5417722 205.2255,36.2582278 205.2255,35.9392405 L205.2255,26.2278481 L205.19,26.2278481 Z M193.546,35.1949367 C189.712,35.1949367 188.718,33.2455696 188.718,31.3670886 C188.718,28.2126582 192.5165,27.6101266 194.895,27.6101266 C197.593,27.6101266 199.9005,28.1063291 201.3915,28.4607595 L201.3915,32.7848101 C199.8295,33.8126582 197.451,35.1949367 193.546,35.1949367" id="Shape" fill="#501C4B"></path>
                <path d="M165.288,13.964557 L164.862,12.7594937 L163.1935,12.7594937 L162.7675,13.964557 L161.8445,13.964557 L163.584,9.17974684 L164.507,9.17974684 L166.2465,13.964557 L165.288,13.964557 Z M164.1165,10.5974684 L164.0455,10.2075949 L163.939,10.5974684 L163.442,12.0151899 L164.6135,12.0151899 L164.1165,10.5974684 Z" id="Shape" fill="#501C4B"></path>
                <polygon id="Path" fill="#501C4B" points="169.761 9.92405063 169.761 13.964557 168.8735 13.964557 168.8735 9.92405063 167.489 9.92405063 167.489 9.17974684 171.11 9.17974684 171.11 9.92405063"></polygon>
                <path d="M174.4115,13.964557 L173.9855,12.7594937 L172.317,12.7594937 L171.891,13.964557 L170.968,13.964557 L172.7075,9.17974684 L173.6305,9.17974684 L175.37,13.964557 L174.4115,13.964557 Z M173.2755,10.5974684 L173.169,10.2075949 L173.0625,10.5974684 L172.5655,12.0151899 L173.737,12.0151899 L173.2755,10.5974684 Z" id="Shape" fill="#501C4B"></path>
                <polygon id="Path" fill="#501C4B" points="177.5 9.92405063 177.5 13.964557 176.6125 13.964557 176.6125 9.92405063 175.228 9.92405063 175.228 9.17974684 178.8845 9.17974684 178.8845 9.92405063"></polygon>
                <path d="M182.186,13.964557 L181.76,12.7594937 L180.0915,12.7594937 L179.6655,13.964557 L178.7425,13.964557 L180.482,9.17974684 L181.405,9.17974684 L183.1445,13.964557 L182.186,13.964557 Z M181.05,10.5974684 L180.9435,10.2075949 L180.837,10.5974684 L180.34,12.0151899 L181.5115,12.0151899 L181.05,10.5974684 Z" id="Shape" fill="#501C4B"></path>
                <path d="M186.801,14.0708861 C185.807,14.0708861 185.3455,13.6101266 185.026,13.1139241 L185.7715,12.7240506 C185.9845,13.043038 186.304,13.2911392 186.801,13.2911392 C187.5465,13.2911392 187.7595,12.9721519 187.7595,12.5468354 C187.7595,12.2278481 187.6175,12.0151899 187.1915,11.9443038 L186.1975,11.7670886 C185.523,11.6607595 185.0615,11.3063291 185.0615,10.4202532 C185.0615,9.74683544 185.523,9.03797468 186.801,9.03797468 C187.795,9.03797468 188.221,9.39240506 188.5405,9.88860759 L187.795,10.278481 C187.582,9.95949367 187.298,9.81772152 186.801,9.81772152 C186.162,9.81772152 185.949,10.0658228 185.949,10.4202532 C185.949,10.7746835 186.0555,10.8810127 186.4105,10.9164557 L187.369,11.0582278 C188.079,11.164557 188.6825,11.5544304 188.6825,12.5113924 C188.647,13.4329114 188.1145,14.0708861 186.801,14.0708861" id="Path" fill="#501C4B"></path>
                <rect id="Rectangle" fill="#501C4B" x="189.3925" y="9.17974684" width="1" height="4.78481013"></rect>
                <path d="M194.6465,13.964557 L194.2205,12.7594937 L192.552,12.7594937 L192.126,13.964557 L191.203,13.964557 L192.9425,9.17974684 L193.8655,9.17974684 L195.605,13.964557 L194.6465,13.964557 Z M193.475,10.5974684 L193.3685,10.2075949 L193.262,10.5974684 L192.765,12.0151899 L193.9365,12.0151899 L193.475,10.5974684 Z" id="Shape" fill="#501C4B"></path>
                <path d="M198.587,14.0708861 C198.232,14.0708861 197.806,14 197.451,13.6810127 L197.8415,13.1139241 C198.09,13.3620253 198.3385,13.3620253 198.5515,13.3620253 C198.942,13.3620253 199.084,13.1493671 199.084,12.5822785 L199.084,9.21518987 L199.9715,9.21518987 L199.9715,12.5822785 C199.9715,13.6455696 199.439,14.0708861 198.587,14.0708861" id="Path" fill="#501C4B"></path>
                <polygon id="Path" fill="#501C4B" points="203.5215 13.964557 202.634 13.964557 200.8945 9.17974684 201.853 9.17974684 202.989 12.5468354 203.0955 12.9367089 203.1665 12.5468354 204.338 9.17974684 205.261 9.17974684"></polygon>
                <path d="M210.6925,18.7848101 C211.083,18.7848101 211.438,18.8911392 211.8285,19.0683544 C212.1835,19.2455696 212.4675,19.5291139 212.6805,19.9189873 C212.8935,20.2734177 213,20.6632911 213,21.0531646 C213,21.443038 212.8935,21.8329114 212.716,22.1873418 C212.503,22.5417722 212.219,22.8253165 211.864,23.0379747 C211.509,23.2506329 211.1185,23.356962 210.728,23.356962 C210.3375,23.356962 209.947,23.2506329 209.592,23.0379747 C209.237,22.8253165 208.953,22.5417722 208.74,22.1873418 C208.527,21.8329114 208.4205,21.443038 208.4205,21.0531646 C208.4205,20.6632911 208.527,20.2734177 208.74,19.9189873 C208.953,19.564557 209.237,19.2810127 209.592,19.0683544 C209.947,18.8911392 210.302,18.7848101 210.6925,18.7848101 M210.6925,19.1746835 C210.373,19.1746835 210.0535,19.2455696 209.7695,19.4227848 C209.45,19.6 209.237,19.8126582 209.0595,20.1316456 C208.882,20.4506329 208.811,20.7696203 208.811,21.0886076 C208.811,21.4075949 208.882,21.7265823 209.0595,22.0455696 C209.237,22.364557 209.45,22.5772152 209.7695,22.7544304 C210.0535,22.9316456 210.373,23.0025316 210.728,23.0025316 C211.0475,23.0025316 211.367,22.9316456 211.6865,22.7544304 C211.9705,22.5772152 212.219,22.364557 212.3965,22.0455696 C212.574,21.7620253 212.645,21.443038 212.645,21.0886076 C212.645,20.7696203 212.574,20.4506329 212.3965,20.1316456 C212.219,19.8126582 211.9705,19.6 211.6865,19.4227848 C211.3315,19.2455696 211.012,19.1746835 210.6925,19.1746835 M209.6985,22.3291139 L209.6985,19.8835443 L210.5505,19.8835443 C210.8345,19.8835443 211.0475,19.9189873 211.1895,19.9544304 L211.509,20.2025316 L211.6155,20.556962 C211.6155,20.7341772 211.5445,20.8759494 211.438,21.0177215 C211.296,21.1594937 211.154,21.2303797 210.941,21.2303797 L211.154,21.3721519 C211.2605,21.478481 211.367,21.6202532 211.509,21.8683544 L211.793,22.364557 L211.2605,22.364557 L211.0475,21.9746835 C210.87,21.6556962 210.728,21.478481 210.6215,21.4075949 L210.302,21.3367089 L210.0535,21.3367089 L210.0535,22.4 L209.6985,22.4 L209.6985,22.3291139 Z M210.089,20.9468354 L210.586,20.9468354 C210.799,20.9468354 210.9765,20.9113924 211.0475,20.8405063 L211.154,20.556962 L211.083,20.3443038 L210.9055,20.2025316 C210.8345,20.1670886 210.6925,20.1670886 210.515,20.1670886 L210.0535,20.1670886 L210.0535,20.9468354 L210.089,20.9468354 Z" id="Shape" fill="#501C4B"></path>
            </g>
        </g>
    </g>
</svg>