<svg height="72" viewBox="0 0 352 72" width="352" xmlns="http://www.w3.org/2000/svg"><g fill="none" fill-rule="evenodd"><path d="m0 0h352v72h-352z" fill="#fff"/><g fill-rule="nonzero" transform="translate(70 8)"><path d="m55.7705 27.5746835c-.1065-.1417721-3.0175-3.9696202-8.449-7.478481.4615-2.0911392.6745-3.9341772.781-5.4582278.2485-3.6151899-.1065-5.9544304-.1065-6.06075951l-.071-.46075949-.4615-.07088608c-.1065 0-2.4495-.38987342-6.0705-.10632911-1.491.10632911-3.3725.31898734-5.4315.74430379-3.5145-5.42278481-7.3485-8.25822784-7.4905-8.4l-.3905-.2835443-.3905.2835443c-.1775.14177216-3.976 2.97721519-7.526 8.43544304-2.0945-.46075949-3.9405-.67341772-5.467-.77974683-3.621-.24810127-5.964.10632911-6.0705.10632911l-.497.07088608-.071.46075949c-.0355.10632911-.355 2.44556961-.1065 6.06075951.1065 1.5240506.3195 3.3670886.781 5.4582278-5.5025 3.5088608-8.3425 7.3012659-8.449 7.478481l-.284.3898735.284.3898734c.1065.1772152 2.982 3.9696202 8.449 7.513924-.426 2.0556962-.6745 3.9341772-.781 5.4227848-.2485 3.6151899.071 5.9544304.1065 6.0607595l.071.4962026.497.070886c.071 0 1.349.1772152 3.408.1772152.781 0 1.6685-.035443 2.6625-.1063291 1.5265-.1063291 3.408-.3189873 5.467-.7797468 3.55 5.4582278 7.3485 8.3291139 7.526 8.4708861l.3905.3189873.3905-.3189873c.1775-.1063292 3.976-3.0126583 7.4905-8.4354431 2.059.4253165 3.905.6734177 5.4315.7797469.994.070886 1.8815.1063291 2.6625.1063291 2.059 0 3.337-.1772152 3.408-.1772152l.497-.0708861.071-.4962025c0-.1063291.355-2.4455696.1065-6.0607595-.1065-1.5240507-.3195-3.3670886-.781-5.4227848 5.467-3.5088608 8.378-7.3367089 8.4845-7.478481l.3195-.3898735zm-11.147.3898735c.568-1.2050633 1.065-2.4101266 1.4555-3.5797469 2.13 1.4886076 3.55 2.8708861 4.189 3.5443038-.639.6734177-2.059 2.0911393-4.2245 3.5797469-.355-1.1341773-.852-2.3392405-1.42-3.5443038m-3.2305-18.74936713c2.556-.17721519 4.473-.03544303 5.325.03544304.213 2.02025319.6745 10.03037979-3.408 18.43037979-.5325 1.0632911-1.1005 2.1265822-1.704 3.0835443-.4615.7088607-.923 1.4177215-1.42 2.0556962l-.142.2126582.0355.2835443c.497 3.1544304.2485 5.7772152.1065 6.7696202-.994.1417722-3.5855.3898735-6.7805-.1063291l-.284-.035443-.213.1772152c-.5325.3898734-1.136.8151899-1.7395 1.2050633-.568-.2481013-1.1715-.4962026-1.7395-.8151899 1.1715-.7088608 2.3075-1.4886076 3.3725-2.3392405 3.053.7443038 5.254.5316456 5.3605.5316456l.5325-.0354431.0355-.5316455c0-.1063292.213-2.3037975-.5325-5.3164557 1.136-1.4177216 2.13-2.9417722 3.0175-4.5012659.568-1.0278481 1.1005-2.1265822 1.562-3.2253164 3.0175-7.3012658 2.414-13.3265823 2.3785-13.6101266l-.0355-.5316456-.5325-.070886c-.2485-.0354431-6.106-.6025317-13.277 2.2683544-.568-.3544304-1.1715-.7088608-1.775-1.0278481 4.5795-2.0202532 8.9105-2.6936709 11.857-2.90632913m0 24.20759493c.213-.2835443.426-.5670886.6035-.8506329 1.917 5.2101266 1.9525 9.7113924 1.917 11.235443-1.5265.0708861-5.9995 0-11.2535-1.878481.284-.1772152.5325-.3544304.781-.5670886 4.189.6025317 7.2775 0 7.4195 0l.426-.0708861.071-.4253164c.071-.1772152.639-3.2962025.0355-7.443038m-22.365-1.2759494c-1.065-1.3113924-2.0235-2.7291139-2.8755-4.1822784.8165-1.4531646 1.775-2.8708861 2.84-4.1822785l.213-.2481013-.071-.3189873c-.5325-2.0911393-.6035-3.7924051-.568-4.643038.852 0 2.556.035443 4.6505.5670886l.3195.0708861.2485-.2126582c1.349-1.0632912 2.769-2.0556962 4.26-2.9063292 1.491.850633 2.911 1.807595 4.2245 2.8708861l.2485.2126582.3195-.070886c2.0945-.5316456 3.7985-.6025317 4.615-.6025317 0 .8506329-.0355 2.5518988-.568 4.643038l-.071.3189873.213.2481013c1.065 1.3113924 2.0235 2.7291139 2.8755 4.2177215-.852 1.4886076-1.8105 2.9063291-2.8755 4.2531646l-.213.2481012.071.3189874c.5325 2.0556962.6035 3.7924051.6035 4.643038-.852 0-2.556-.0354431-4.615-.6025317l-.3195-.0708861-.2485.2126583c-1.3135 1.0632911-2.7335 2.0202531-4.189 2.835443-1.491-.8506329-2.911-1.8075949-4.2245-2.8708861l-.2485-.2126582-.3195.0708861c-2.0945.5316455-3.7985.6025316-4.6505.5670886-.0355-.8506329.0355-2.5518987.568-4.643038l.071-.3189873zm22.365-17.0481012-.071-.4253165-.426-.0708861c-.142-.035443-3.2305-.6025316-7.4195 0-.2485-.1772151-.5325-.3898734-.8165-.5670886 5.254-1.913924 9.6915-1.913924 11.218-1.878481.071 1.5240507.0355 5.9898734-1.8815 11.2-.1775-.2835443-.3905-.5670886-.6035-.8506329.6035-4.1822785.0355-7.2658228 0-7.4075949m-13.419-3.756962c-1.207-.5670887-2.3785-1.0632912-3.55-1.45316461 1.491-2.12658227 2.911-3.50886075 3.5855-4.14683544.6745.63797469 2.059 2.02025317 3.55 4.14683544-1.1715.38987341-2.343.88607591-3.5855 1.45316461m.0355-9.71139245c1.0295.81518987 3.834 3.33164557 6.532 7.33670886-.5325.14177215-1.1005.2835443-1.6685.46075949-2.272-3.29620253-4.3665-5.03291139-4.4375-5.10379747l-.426-.35443038-.426.35443038c-.1065.07088608-2.201 1.80759494-4.473 5.10379747-.568-.17721519-1.136-.31898734-1.6685-.46075949 2.7335-4.00506329 5.5735-6.48607595 6.5675-7.33670886m-18.744 7.62025316c2.0235-.21265823 10.011-.67341772 18.4245 3.40253169 1.1005.5316455 2.1655 1.0987341 3.1595 1.7367088.71.4253165 1.42.921519 2.0235 1.3822785l.213.1772152.2485-.035443c3.1595-.4962026 5.7865-.2481013 6.7805-.1063292.142.9924051.3905 3.5797469-.1065 6.7696203l-.0355.2835443.1775.2126582c.426.5670886.8165 1.2050633 1.207 1.807595-.2485.6025316-.497 1.1696202-.8165 1.7367088-.71-1.1696202-1.491-2.3392405-2.343-3.4025316.71-3.0481013.5325-5.2455696.5325-5.3164557l-.0355-.5316456-.568-.0708861c-.1065 0-2.272-.2126582-5.325.5316456-1.42-1.0987342-2.911-2.1265823-4.473-2.9772152-1.065-.5670886-2.1655-1.0987342-3.3015-1.5594937-7.313-3.0126582-13.348-2.4101265-13.5965-2.3746835l-.5325.035443-.071.5316456c-.0355.2481013-.6035 6.0962025 2.272 13.2556962-.355.6025317-.71 1.1696203-1.0295 1.7721519-1.988-4.6075949-2.698-8.9316456-2.8755-11.8734177-.142-2.5873418 0-4.5367089.071-5.38734179m5.2895 13.25569619c-.1775.2481013-.355.5316456-.5325.7797468-1.917-5.2455696-1.917-9.7113924-1.8815-11.2 1.5265-.070886 5.964-.035443 11.218 1.8784811-.284.1772152-.568.3898734-.8165.5670886-4.189-.6025317-7.313 0-7.455.035443l-.426.0708861-.1065.4253164c0 .1772152-.6035 3.2607595 0 7.443038m-4.6505 9.0025317c-2.13-1.4886076-3.55-2.8708861-4.1535-3.5443038.639-.6734178 2.0235-2.0556962 4.1535-3.5443038.3905 1.1696202.8875 2.3392405 1.4555 3.5443038-.568 1.2050633-1.065 2.4101265-1.4555 3.5443038m-8.2715-3.5443038c.8165-1.0278481 3.337-3.8278481 7.3485-6.521519.142.5316455.284 1.0987342.4615 1.6658228-3.3015 2.2683544-5.041 4.3594936-5.112 4.4303797l-.355.4253165.355.4253164c.071.1063291 1.8105 2.1620253 5.1475 4.4658228-.1775.5670886-.3195 1.1341772-.4615 1.6658228-4.0115-2.6936709-6.532-5.5291139-7.384-6.556962m12.9575 18.713924c-2.556.1772152-4.473.0708861-5.325-.035443-.071-.8506329-.213-2.764557-.0355-5.3164557.213-3.1898734.994-8.0455696 3.408-13.078481.5325-1.0632912 1.1005-2.1620254 1.7395-3.1544304.426-.7088608.8875-1.3822785 1.349-2.0202532l.1775-.2126582-.0355-.2835443c-.497-3.1898734-.213-5.7772152-.071-6.8050633.994-.1417722 3.5855-.3898734 6.7805.0708861l.2485.035443.213-.1417721c.568-.4253165 1.1715-.8151899 1.775-1.2050633.6035.2481012 1.207.5316455 1.8105.8151898-1.207.7088608-2.3785 1.5240507-3.479 2.3746836-3.053-.7088608-5.254-.4962025-5.3605-.4962025l-.5325.070886-.071.5316456c0 .1063291-.213 2.3037975.497 5.3518987-1.1005 1.3822785-2.0945 2.8708861-2.9465 4.4303798-.6035 1.0632911-1.136 2.1620253-1.5975 3.2962025-2.982 7.3012658-2.4495 13.3265823-2.414 13.5746836l.071.5316455.5325.0354431c.071 0 .6035.070886 1.491.070886 2.2365 0 6.7095-.3189873 11.8215-2.3392405.568.3544304 1.136.6734178 1.704.9569621-4.4375 2.0556962-8.804 2.7291139-11.7505 2.9417721m-.568-14.0708861c.1775.2481013.355.5316456.5325.7797469-.6035 4.1822785 0 7.3012658.0355 7.4430379l.1065.4253165.426.0708861c.142.035443 3.266.6379747 7.455.035443.284.1772152.5325.3898734.8165.5670886-5.254 1.9139241-9.7625 1.9493671-11.289 1.9139241-.0355-1.5240507 0-5.9898734 1.917-11.2354431m13.9515 11.9443038c1.207.5670886 2.414 1.0632912 3.5855 1.4531646-1.491 2.1265823-2.8755 3.5443038-3.55 4.1822785-.6745-.6379747-2.059-2.0556962-3.5855-4.2177215 1.1715-.3544304 2.3785-.850633 3.55-1.4177216m.0355 9.7468355c-1.0295-.8506329-3.8695-3.3670886-6.532-7.407595.5325-.1417721 1.1005-.2835443 1.6685-.4607595 2.272 3.3316456 4.3665 5.1037975 4.473 5.1746836l.426.3544304.426-.3544304c.1065-.0708861 2.1655-1.843038 4.4375-5.1746836.568.1772152 1.1005.3189874 1.6685.4607595-2.698 4.0050633-5.538 6.5569621-6.5675 7.407595m18.7085-7.6556962c-.8875.0708861-2.769.2126582-5.325.035443-3.195-.2126582-8.094-.9924051-13.0995-3.4379747-1.065-.4962025-2.13-1.0987341-3.124-1.7012658-.71-.4253164-1.3845-.921519-2.059-1.3822785l-.213-.1772152-.284.0354431c-3.195.4962025-5.7865.2126582-6.816.070886-.142-.992405-.426-3.6151898.071-6.8050632l.0355-.2835443-.1775-.2126583c-.3905-.5670886-.781-1.1341772-1.1715-1.7367088.2485-.6025317.5325-1.2050633.8165-1.807595.71 1.2050633 1.491 2.3392405 2.3785 3.4025317-.71 3.0481012-.497 5.2455696-.497 5.3518987l.071.5316456.5325.0708861c.1065 0 2.3075.2126582 5.3605-.5316456 1.42 1.0987342 2.911 2.1265823 4.473 2.9772152 1.0295.5670886 2.13 1.0987342 3.2305 1.5240506 5.254 2.1620253 9.8335 2.4810127 12.1055 2.4810127.923 0 1.4555-.0354431 1.5265-.0708861l.5325-.0708861.071-.5316456c.0355-.2481012.568-6.1316455-2.3075-13.2911392.355-.5670886.6745-1.1341772.994-1.7012658 1.988 4.5721519 2.6625 8.9316456 2.8755 11.8379747.213 2.6582278.071 4.5721519 0 5.4227848m.2485-12.1569621c-.142-.5316455-.284-1.0987341-.4615-1.6303797 3.337-2.2683544 5.112-4.3594937 5.183-4.4658228l.355-.4253164-.355-.4253165c-.071-.1063291-1.846-2.1620253-5.183-4.4303797.1775-.5670886.3195-1.0987342.4615-1.6658228 4.0115 2.6582278 6.5675 5.4936709 7.4195 6.521519-.852 1.0278481-3.3725 3.8632911-7.4195 6.5215189" fill="#ba9653"/><g fill="#501c4b"><path d="m71.71 45.4025316h-3.4435v2.6936709h2.9465v.7797469h-3.0175s.071.2481012.071.4607595v3.2607595h-.852v-7.9392406h4.5085z"/><path d="m74.479 52.6683544c-.8875 0-1.3135-.4607595-1.3135-1.4177215v-7.2303797h.852v7.2303797c0 .4962025.142.6734177.497.6734177h.426v.7797469h-.4615z"/><path d="m77.887 54.121519c-.3195.8151899-.781 1.0987342-1.775 1.0987342h-.781v-.7797469h.781c.6745 0 .8165-.1417721 1.0295-.7088607l.3905-1.0278481-2.272-6.0607595h.8875l1.633 4.3594936c.071.1772152.142.4962026.1775.7443038.071-.2835443.142-.5670886.213-.7443038l1.633-4.3594936h.8875z"/><path d="m86.5135 52.7392405c-.8875 0-1.562-.3189873-1.562-1.6303797v-3.2607595c0-.2126583.071-.3189874.1065-.4253165h-1.1005v-.7443038h1.0295v-2.0202532l.852-.2481012v2.2683544h2.13l-.2485.7443038h-1.8815v3.721519c0 .7088608.3195.921519.9585.921519.284 0 .6035-.1063291.9585-.3189874l.5325.5670887c-.4615.3189873-1.1715.4253164-1.775.4253164"/><path d="m93.2585 52.5974684v-3.7924051c0-1.2759494-.5325-1.5949367-1.2425-1.5949367-.497 0-.852.1417721-1.3845.5316456l-.568.3898734v4.4658228h-.852v-8.5772152h.852v3.0481012l-.071.3898734.5325-.3898734c.568-.3898734 1.0295-.6025316 1.5265-.6025316 1.207 0 2.0945.6379747 2.0945 2.2683544v3.8278481h-.8875z"/><path d="m96.2405 49.8683544c.0355 1.4531646.4615 2.1620253 1.846 2.1620253.852 0 1.3845-.2835443 1.6685-.8506329l.7455.2835443c-.3905.8151899-1.065 1.2759494-2.414 1.2759494-1.8815 0-2.7335-.956962-2.7335-3.1189873 0-1.9848102.6745-3.1189874 2.769-3.1189874 2.201 0 2.485 1.4531646 2.485 3.1189874v.2481012zm1.8815-2.6582278c-1.1715 0-1.775.4607595-1.846 1.9493671h3.4435c0-1.2050633-.284-1.9493671-1.5975-1.9493671"/><path d="m108.701 52.5974684v-3.7924051c0-1.2759494-.5325-1.5949367-1.2425-1.5949367-.497 0-.8165.1417721-1.3845.5316456l-.568.3898734v4.4658228h-.852v-5.9189874h.6745l.1775.7088608.426-.2835443c.568-.3898734 1.0295-.6025317 1.5265-.6025317 1.207 0 2.0945.6379747 2.0945 2.2683545v3.8278481z"/><path d="m111.7185 49.8683544c.0355 1.4531646.4615 2.1620253 1.846 2.1620253.852 0 1.3845-.2835443 1.6685-.8506329l.7455.2835443c-.3905.8151899-1.1005 1.2759494-2.414 1.2759494-1.8815 0-2.7335-.956962-2.7335-3.1189873 0-1.9848102.6745-3.1189874 2.769-3.1189874 2.201 0 2.5205 1.4531646 2.5205 3.1189874v.2481012zm1.846-2.6582278c-1.136 0-1.775.4607595-1.846 1.9493671h3.4435c0-1.2050633-.284-1.9493671-1.5975-1.9493671"/><path d="m123.0075 52.5974684h-.852l-1.207-3.9341773c-.1065-.3898734-.213-1.0987341-.213-1.0987341s-.071.7443038-.1775 1.0987341l-1.2425 3.9341773h-.852l-1.846-5.9189874h.852l1.207 4.0405063c.1065.3189874.213 1.0987342.213 1.0987342s.1065-.7443038.213-1.0987342l1.2425-4.0405063h.8165l1.2425 4.0405063c.1065.3544304.1775 1.0987342.1775 1.0987342s.142-.7797468.213-1.0987342l1.2425-4.0405063h.852z"/><path d="m132.344 44.9063291c-.213-.035443-.3905-.0708861-.5325-.1063291-.1775-.035443-.355-.0708861-.639-.0708861-.639 0-1.207.3189874-1.207 1.2759494v.6379747h2.0235l-.1775.7443038h-1.846v5.1746835h-.852v-4.678481c0-.1772152.0355-.3189873.1065-.4962025h-1.0295v-.7443038h.923v-.6379747c0-1.3468355.852-2.0202532 2.059-2.0202532.568 0 .8165.0708861 1.349.1417722z"/><path d="m133.409 49.8683544c.0355 1.4531646.4615 2.1620253 1.846 2.1620253.852 0 1.3845-.2835443 1.6685-.8506329l.7455.2835443c-.3905.8151899-1.1005 1.2759494-2.414 1.2759494-1.8815 0-2.769-.956962-2.769-3.1189873 0-1.9848102.6745-3.1189874 2.769-3.1189874 2.201 0 2.5205 1.4531646 2.5205 3.1189874v.2481012zm1.8815-2.6582278c-1.1715 0-1.775.4607595-1.846 1.9493671h3.4435c0-1.2050633-.284-1.9493671-1.5975-1.9493671"/><path d="m139.7635 49.8683544c.0355 1.4531646.4615 2.1620253 1.846 2.1620253.852 0 1.3845-.2835443 1.6685-.8506329l.7455.2835443c-.3905.8151899-1.065 1.2759494-2.414 1.2759494-1.917 0-2.769-.956962-2.769-3.1189873 0-1.9848102.6745-3.1189874 2.769-3.1189874 2.201 0 2.5205 1.4531646 2.5205 3.1189874v.2481012zm1.846-2.6582278c-1.1715 0-1.775.4607595-1.846 1.9493671h3.479c-.0355-1.2050633-.3195-1.9493671-1.633-1.9493671"/><path d="m146.7215 52.6683544c-.852 0-1.3135-.4607595-1.3135-1.4177215v-7.2303797h.852v7.2303797c0 .4962025.142.6734177.497.6734177h.426v.7797469h-.4615z"/><path d="m149.029 45.0481013h-.8875l-.071-.1063291v-.850633l.071-.1063291h.8875l.071.1063291v.850633zm-.8875 1.6303797h.852v5.9189874h-.852z"/><path d="m154.6025 52.5974684v-3.7924051c0-1.2759494-.5325-1.5949367-1.2425-1.5949367-.497 0-.852.1417721-1.3845.5316456l-.568.3898734v4.4658228h-.852v-5.9189874h.6745l.1775.7088608.426-.2835443c.568-.3898734 1.0295-.6025317 1.5265-.6025317 1.207 0 2.0945.6379747 2.0945 2.2683545v3.8278481z"/><path d="m162.2705 47.3164557h-.426c-.1065 0-.3195 0-.5325-.0708861.355.3898734.497.921519.497 1.3113924 0 1.3822785-.781 2.0202532-2.414 2.0202532-.284 0-.426-.035443-.6745-.0708861l-.426-.0708861c-.355 0-.497.2126583-.497.4607595 0 .2126583.142.3544304.426.3898734l2.4495.4253165c1.278.2126582 1.562.886076 1.562 1.6303798 0 1.4177215-1.2425 1.8430379-2.84 1.8430379-1.3135 0-2.84-.2481012-2.84-1.9848101 0-.7088608.355-1.2050633.852-1.5594937-.213-.1772152-.355-.3898734-.355-.7797468s.213-.6379747.6035-.8506329c-.4615-.4253165-.639-.886076-.639-1.4886076 0-1.4886076 1.136-2.0556962 2.414-2.0556962.6035 0 1.1005.0708861 1.562.3544304l.923-.3544304h.6035zm-1.775 5.1392405-2.5205-.4607595c-.3905.2481013-.568.7088608-.568 1.2405063 0 .9924051.6745 1.3113924 1.9525 1.3113924 1.4555 0 1.9525-.4607595 1.9525-1.1696202-.0355-.5316456-.2485-.8151899-.8165-.921519m-1.1715-5.2810127c-.9585 0-1.562.3898735-1.562 1.3822785 0 1.0632912.6745 1.3113924 1.562 1.3113924.9585 0 1.562-.2835443 1.562-1.3113924 0-.8860759-.5325-1.3822785-1.562-1.3822785"/><path d="m63.261 19.0683544h3.479c.426 0 .568.2835443.6035.3544304 1.846 3.4379747 8.1295 14.6025317 8.1295 14.6025317s6.39-11.2 8.2715-14.6379747c.071-.1063291.1775-.3544304.568-.3544304h1.775c.284 0 .426.3189873.284.5316456-2.1655 3.792405-8.165 14.2126582-9.443 16.4810126-.142.2835443-.3195.4253165-.639.4253165h-3.3015c-.3195 0-.5325-.2126583-.6745-.4607595-1.278-2.2329114-7.242-12.6177215-9.4075-16.3746836 0-.1417721-.142-.5670886.355-.5670886"/><path d="m115.7655 22.0810127c-.923-.4962026-3.692-1.9493671-7.9165-1.9493671-4.5795 0-5.467 1.9493671-5.467 3.3316455 0 1.7367089 1.8105 2.2329114 3.905 2.3746836 1.278.1063291 4.5085.2481012 6.248.5670886 4.1535.7443038 5.254 3.0835443 5.254 4.9620253 0 3.9341772-4.5795 5.6-10.1175 5.6-4.686 0-8.0585-1.4886076-9.4075-2.2329114-.2485-.1417721-.2485-.4607595-.142-.6734177.355-.6379747.2485-.4253165.5325-.956962.142-.2835443.3905-.3189874.639-.1772152 1.1005.7088607 4.615 2.4101266 8.4135 2.4101266 3.905 0 5.9995-1.7012659 5.9995-3.4025317 0-1.4177215-.5325-2.3037975-3.479-2.7291139-1.562-.2126582-5.041-.2126582-6.816-.6379747-1.775-.3898734-4.8635-1.2405063-4.8635-4.678481 0-1.9139241 1.5265-5.4227848 9.514-5.4227848 4.3665 0 7.2775 1.1696202 8.733 1.913924.2485.1417722.3195.3544304.1775.6025317-.2485.3898734-.3195.5670886-.568.956962-.1775.2126582-.426.2481013-.639.1417722"/><path d="m93.294 19.0683544h-2.84c-.284 0-.5325.2481013-.5325.5316456v16.3037975c0 .3189873.2485.6025316.5325.6025316h2.84c.284 0 .5325-.2835443.5325-.6025316v-16.3037975c0-.2835443-.2485-.5316456-.5325-.5316456"/><path d="m134.616 35.5848101c-.2485-.7088607-.142-.4253164-.355-1.0632911-.1065-.3544304-.426-.2835443-.568-.2481013-1.136.4607595-2.698.8506329-3.7985.8506329-2.8045 0-4.4375-1.2050633-4.4375-3.721519v-10.1367088h7.881c.3195 0 .6035-.2481013.6035-.5316456v-.8151899c0-.3189873-.284-.5316455-.6035-.5316455h-7.881v-4.2177215c0-.3898735-.355-.5316456-.6035-.4253165-.6745.2126582-1.9525.6379747-2.6625.8506329-.2485.0708861-.497.2835443-.497.6734177v14.2126583c0 3.5443038 2.059 6.4151898 7.6325 6.4151898 1.9525 0 3.7985-.4253164 4.97-.7797468.1775-.035443.4615-.1772152.3195-.5316456"/><path d="m181.689 35.6911392c-1.988-1.5240506-6.461-4.8911392-6.9935-5.3164557 3.1595 0 6.887-1.8075949 6.887-5.7772151 0-4.3594937-4.26-5.564557-6.248-5.564557h-12.8865c-.284 0-.5325.2481013-.5325.6025316v16.2329114c0 .3189874.2485.6025317.5325.6025317h2.7335c.284 0 .5325-.2835443.5325-.6025317v-5.3518987h4.2245s4.828 3.8987342 6.4965 5.2810127c.142.1417721.7455.6379746 1.3845.6379746h3.763c.284.0708861.568-.3898734.1065-.7443038m-15.9395-6.8050633v-8.0810126h8.0585c2.556 0 3.692 2.0556962 3.692 3.8632911 0 2.0202532-.994 4.2177215-4.26 4.2177215z"/><path d="m157.3715 26.2278481v-.1417722c0-1.0987341-.284-3.6151898-2.414-5.3518987-.7455-.6025316-3.0175-2.0202531-7.4195-2.0202531-3.6565 0-6.4255.9215189-9.1235 2.3392405-.2485.1063291-.3195.3544303-.213.5670886.3195.7088607.2485.6379746.4615 1.0632911.1065.2481013.3195.3189873.6035.1417722 1.349-.7797469 4.402-2.3746836 7.8455-2.3746836 4.189 0 6.461 1.9139241 6.461 4.5367089v2.0202531c-1.491-.3898734-4.26-.992405-7.0645-.992405-7.1355 0-9.6205 2.5873417-9.6205 5.5645569 0 4.3240507 4.2955 5.3873418 8.094 5.3873418 3.266 0 6.2125-.7443038 8.52-2.4810127h.071v1.4531646c0 .3189873.2485.6025317.5325.6025317h2.698c.3195 0 .5325-.2835444.5325-.6025317v-9.7113924zm-11.644 8.9670886c-3.834 0-4.828-1.9493671-4.828-3.8278481 0-3.1544304 3.7985-3.756962 6.177-3.756962 2.698 0 5.041.4962025 6.4965.8506329v4.3240506c-1.5265 1.0278481-3.905 2.4101266-7.8455 2.4101266"/><path d="m205.19 26.2278481v-.1417722c0-1.0987341-.2485-3.6151898-2.414-5.3518987-.7455-.6025316-2.982-2.0202531-7.384-2.0202531-3.6565 0-6.4255.9215189-9.1235 2.3392405-.2485.1063291-.284.3544303-.213.5670886.3195.7088607.2485.6379746.4615 1.0632911.1065.2481013.3195.3189873.6035.1417722 1.349-.7797469 4.402-2.3746836 7.81-2.3746836 4.189 0 6.461 1.9139241 6.461 4.5367089v2.0202531c-1.491-.3898734-4.26-.992405-7.029-.992405-7.171 0-9.656 2.5873417-9.656 5.5645569 0 4.3240507 4.2955 5.3873418 8.1295 5.3873418 3.266 0 6.177-.7443038 8.52-2.4810127h.071v1.4531646c0 .3189873.2485.6025317.568.6025317h2.698c.284 0 .5325-.2835444.5325-.6025317v-9.7113924zm-11.644 8.9670886c-3.834 0-4.828-1.9493671-4.828-3.8278481 0-3.1544304 3.7985-3.756962 6.177-3.756962 2.698 0 5.0055.4962025 6.4965.8506329v4.3240506c-1.562 1.0278481-3.9405 2.4101266-7.8455 2.4101266"/><path d="m165.288 13.964557-.426-1.2050633h-1.6685l-.426 1.2050633h-.923l1.7395-4.78481016h.923l1.7395 4.78481016zm-1.1715-3.3670886-.071-.3898735-.1065.3898735-.497 1.4177215h1.1715z"/><path d="m169.761 9.92405063v4.04050637h-.8875v-4.04050637h-1.3845v-.74430379h3.621v.74430379z"/><path d="m174.4115 13.964557-.426-1.2050633h-1.6685l-.426 1.2050633h-.923l1.7395-4.78481016h.923l1.7395 4.78481016zm-1.136-3.3670886-.1065-.3898735-.1065.3898735-.497 1.4177215h1.1715z"/><path d="m177.5 9.92405063v4.04050637h-.8875v-4.04050637h-1.3845v-.74430379h3.6565v.74430379z"/><path d="m182.186 13.964557-.426-1.2050633h-1.6685l-.426 1.2050633h-.923l1.7395-4.78481016h.923l1.7395 4.78481016zm-1.136-3.3670886-.1065-.3898735-.1065.3898735-.497 1.4177215h1.1715z"/><path d="m186.801 14.0708861c-.994 0-1.4555-.4607595-1.775-.956962l.7455-.3898735c.213.3189874.5325.5670886 1.0295.5670886.7455 0 .9585-.3189873.9585-.7443038 0-.3189873-.142-.5316455-.568-.6025316l-.994-.1772152c-.6745-.1063291-1.136-.4607595-1.136-1.3468354 0-.67341776.4615-1.38227852 1.7395-1.38227852.994 0 1.42.35443038 1.7395.85063291l-.7455.38987341c-.213-.31898733-.497-.46075948-.994-.46075948-.639 0-.852.24810128-.852.60253168 0 .3544303.1065.4607595.4615.4962025l.9585.1417721c.71.1063292 1.3135.4962026 1.3135 1.4531646-.0355.921519-.568 1.5594937-1.8815 1.5594937"/><path d="m189.3925 9.179747h1v4.78481h-1z"/><path d="m194.6465 13.964557-.426-1.2050633h-1.6685l-.426 1.2050633h-.923l1.7395-4.78481016h.923l1.7395 4.78481016zm-1.1715-3.3670886-.1065-.3898735-.1065.3898735-.497 1.4177215h1.1715z"/><path d="m198.587 14.0708861c-.355 0-.781-.0708861-1.136-.3898734l.3905-.5670886c.2485.2481012.497.2481012.71.2481012.3905 0 .5325-.2126582.5325-.7797468v-3.36708863h.8875v3.36708863c0 1.0632911-.5325 1.4886076-1.3845 1.4886076"/><path d="m203.5215 13.964557h-.8875l-1.7395-4.78481016h.9585l1.136 3.36708856.1065.3898735.071-.3898735 1.1715-3.36708856h.923z"/><path d="m210.6925 18.7848101c.3905 0 .7455.1063291 1.136.2835443.355.1772152.639.4607595.852.8506329.213.3544304.3195.7443038.3195 1.1341773 0 .3898734-.1065.7797468-.284 1.1341772-.213.3544304-.497.6379747-.852.8506329s-.7455.3189873-1.136.3189873-.781-.1063291-1.136-.3189873-.639-.4962025-.852-.8506329-.3195-.7443038-.3195-1.1341772c0-.3898735.1065-.7797469.3195-1.1341773.213-.3544303.497-.6379746.852-.8506329.355-.1772152.71-.2835443 1.1005-.2835443m0 .3898734c-.3195 0-.639.0708861-.923.2481013-.3195.1772152-.5325.3898734-.71.7088608-.1775.3189873-.2485.6379747-.2485.956962s.071.6379747.2485.956962c.1775.3189874.3905.5316456.71.7088608.284.1772152.6035.2481012.9585.2481012.3195 0 .639-.070886.9585-.2481012.284-.1772152.5325-.3898734.71-.7088608.1775-.2835443.2485-.6025316.2485-.956962 0-.3189873-.071-.6379747-.2485-.956962-.1775-.3189874-.426-.5316456-.71-.7088608-.355-.1772152-.6745-.2481013-.994-.2481013m-.994 3.1544304v-2.4455696h.852c.284 0 .497.035443.639.0708861l.3195.2481012.1065.3544304c0 .1772152-.071.3189874-.1775.4607595-.142.1417722-.284.2126582-.497.2126582l.213.1417722c.1065.1063291.213.2481013.355.4962025l.284.4962026h-.5325l-.213-.3898735c-.1775-.3189873-.3195-.4962025-.426-.5670886l-.3195-.070886h-.2485v1.0632911h-.355zm.3905-1.3822785h.497c.213 0 .3905-.035443.4615-.1063291l.1065-.2835443-.071-.2126582-.1775-.1417722c-.071-.035443-.213-.035443-.3905-.035443h-.4615v.7797468z"/></g></g></g></svg>