<?xml version="1.0" encoding="UTF-8"?>
<svg width="352px" height="72px" viewBox="0 0 352 72" version="1.1" xmlns="http://www.w3.org/2000/svg" xmlns:xlink="http://www.w3.org/1999/xlink">
    <title>Volotea</title>
    <g id="Taskboard" stroke="none" stroke-width="1" fill="none" fill-rule="evenodd">
        <g id="Volotea">
            <rect id="Rectangle" fill="#FFFFFF" x="0" y="0" width="352" height="72"></rect>
            <g transform="translate(83.000000, 8.000000)" fill-rule="nonzero">
                <polygon id="Path" fill="#432129" points="0 26.8663232 5.41769819 26.8663232 10.4808557 47.4041352 10.5612233 47.4041352 15.5831135 26.8663232 20.9699083 26.8663232 13.634977 55.604074 7.37205306 55.604074"></polygon>
                <path d="M23.5524117,36.0983229 C23.5524117,29.0163479 27.3023648,26.4675746 32.6376226,26.4675746 C37.9811716,26.4675746 41.729052,29.0162539 41.729052,36.0983229 L41.729052,46.3713217 C41.729052,53.4553666 37.9811716,56 32.6376226,56 C27.3023648,56 23.5524117,53.4554607 23.5524117,46.3713217 L23.5524117,36.0983229 Z M29.0587686,47.0856444 C29.0587686,50.2725284 30.4482892,51.141345 32.6376226,51.141345 C34.8331745,51.141345 36.2267464,50.2725284 36.2267464,47.0856444 L36.2267464,35.3776962 C36.2267464,32.198998 34.8331745,31.3240656 32.6376226,31.3240656 C30.4482892,31.3240656 29.0587686,32.198998 29.0587686,35.3776962 L29.0587686,47.0856444 Z" id="Shape" fill="#432129"></path>
                <polygon id="Path" fill="#432129" points="46.1953412 55.604074 46.1953412 26.8663232 51.6954798 26.8663232 51.6954798 50.749559 60.5415666 50.749559 60.5415666 55.604074"></polygon>
                <path d="M63.4124699,36.0983229 C63.4124699,29.0163479 67.1562047,26.4675746 72.4956081,26.4675746 C77.839157,26.4675746 81.580819,29.0162539 81.580819,36.0983229 L81.580819,46.3713217 C81.580819,53.4553666 77.839157,56 72.4956081,56 C67.1562047,56 63.4124699,53.4554607 63.4124699,46.3713217 L63.4124699,36.0983229 L63.4124699,36.0983229 Z M68.9085571,47.0856444 C68.9085571,50.2725284 70.302129,51.141345 72.4956081,51.141345 C74.6870143,51.141345 76.082659,50.2725284 76.082659,47.0856444 L76.082659,35.3776962 C76.082659,32.198998 74.6870143,31.3240656 72.4956081,31.3240656 C70.302129,31.3240656 68.9085571,32.198998 68.9085571,35.3776962 L68.9085571,47.0856444 Z" id="Shape" fill="#432129"></path>
                <polygon id="Path" fill="#432129" points="102.706375 26.8663232 102.706375 31.7166984 96.2929854 31.7166984 96.2929854 55.604074 90.7927526 55.604074 90.7927526 31.7166984 84.3772904 31.7166984 84.3772904 26.8663232"></polygon>
                <polygon id="Path" fill="#432129" points="105.976007 55.604074 105.976007 26.8663232 121.043844 26.8663232 121.043844 31.7166984 111.47624 31.7166984 111.47624 38.331428 118.771976 38.331428 118.771976 43.185849 111.47624 43.185849 111.47624 50.749559 121.439652 50.749559 121.439652 55.604074"></polygon>
                <polygon id="Path" fill="#432129" points="144.99621 55.604074 139.574366 55.604074 134.507063 35.0641921 134.434892 35.0641921 129.408856 55.604074 124.030353 55.604074 131.365284 26.8663232 137.617938 26.8663232"></polygon>
                <polygon id="Path" fill="#ED164A" points="173.563728 33.5450333 166.847241 40.2502764 160.126608 33.5450333 166.847241 26.8316045"></polygon>
                <polygon id="Path" fill="#ED164A" points="173.563728 6.70938301 166.847241 13.418766 160.126608 6.70938301 166.847241 0"></polygon>
                <polygon id="Path" fill="#ED164A" points="187 20.1253264 180.283513 26.8326394 173.56288 20.1253264 180.283513 13.4180133"></polygon>
                <polygon id="Path" fill="#ED164A" points="160.127456 20.1253264 153.410968 26.8326394 146.690336 20.1253264 153.410968 13.4180133"></polygon>
                <path d="M154.90149,28.3243243 L154.90149,25.3433068 L153.410968,26.8317926 L154.90149,28.3243243 Z M156.396063,29.8148802 L157.890637,31.305436 L157.890637,22.3623833 L156.396063,23.854915 L156.396063,29.8148802 Z M159.383231,20.8738033 L159.383231,32.7999435 L160.127456,33.5452215 L160.87168,32.7999435 L160.87168,20.8738033 L160.127456,20.1243855 L159.383231,20.8738033 Z M165.34937,25.3433068 L165.34937,28.3243243 L166.848089,26.8317926 L165.34937,25.3433068 Z M162.366253,31.3053419 L163.860827,29.8147861 L163.860827,23.8548209 L162.366253,22.3622892 L162.366253,31.3053419 Z" id="Shape" fill="#ED164A"></path>
                <path d="M168.337762,14.9045233 L168.337762,11.9276457 L166.843189,13.4201774 L168.337762,14.9045233 Z M169.830263,16.3971491 L171.324836,17.8877049 L171.324836,8.94258227 L169.830263,10.4371839 L169.830263,16.3971491 Z M172.815358,7.45607226 L172.815358,19.3802366 L173.563728,20.1255145 L174.307952,19.3802366 L174.307952,7.45607226 L173.563728,6.70872439 L172.815358,7.45607226 Z M178.785642,11.9276457 L178.785642,14.9045233 L180.280215,13.4201774 L178.785642,11.9276457 Z M175.800547,17.8876108 L177.297193,16.397055 L177.297193,10.4370898 L175.800547,8.94248818 L175.800547,17.8876108 Z" id="Shape" fill="#ED164A"></path>
                <path d="M168.337762,28.3243243 L168.337762,25.3433068 L166.843189,26.8317926 L168.337762,28.3243243 Z M169.830263,29.8148802 L171.324836,31.305436 L171.324836,22.3623833 L169.830263,23.854915 L169.830263,29.8148802 Z M172.815358,20.8738033 L172.815358,32.7999435 L173.563728,33.5452215 L174.307952,32.7999435 L174.307952,20.8738033 L173.563728,20.1243855 L172.815358,20.8738033 Z M178.785642,25.3433068 L178.785642,28.3243243 L180.280215,26.8317926 L178.785642,25.3433068 Z M175.800547,31.3053419 L177.297193,29.8147861 L177.297193,23.8548209 L175.800547,22.3622892 L175.800547,31.3053419 Z" id="Shape" fill="#ED164A"></path>
                <path d="M154.90149,14.9045233 L154.90149,11.9276457 L153.410968,13.4201774 L154.90149,14.9045233 Z M156.396063,16.3971491 L157.890637,17.8877049 L157.890637,8.94258227 L156.396063,10.4371839 L156.396063,16.3971491 Z M159.383231,7.45607226 L159.383231,19.3802366 L160.127456,20.1255145 L160.87168,19.3802366 L160.87168,7.45607226 L160.127456,6.70872439 L159.383231,7.45607226 Z M165.34937,11.9276457 L165.34937,14.9045233 L166.848089,13.4201774 L165.34937,11.9276457 Z M162.366253,17.8876108 L163.860827,16.397055 L163.860827,10.4370898 L162.366253,8.94248818 L162.366253,17.8876108 Z" id="Shape" fill="#ED164A"></path>
            </g>
        </g>
    </g>
</svg>