<?xml version="1.0" encoding="UTF-8"?>
<svg width="352px" height="72px" viewBox="0 0 352 72" version="1.1" xmlns="http://www.w3.org/2000/svg" xmlns:xlink="http://www.w3.org/1999/xlink">
    <title>Wizz</title>
    <defs>
        <linearGradient x1="49.9998791%" y1="100%" x2="49.9998791%" y2="5.36607795e-15%" id="linearGradient-1">
            <stop stop-color="#161998" offset="0%"></stop>
            <stop stop-color="#441E93" offset="13%"></stop>
            <stop stop-color="#6E228F" offset="27%"></stop>
            <stop stop-color="#90258C" offset="41%"></stop>
            <stop stop-color="#AB2889" offset="55%"></stop>
            <stop stop-color="#BE2A87" offset="69%"></stop>
            <stop stop-color="#C92B86" offset="84%"></stop>
            <stop stop-color="#CD2B86" offset="100%"></stop>
        </linearGradient>
    </defs>
    <g id="Taskboard" stroke="none" stroke-width="1" fill="none" fill-rule="evenodd">
        <g id="Wizz">
            <rect id="Rectangle" fill="#FFFFFF" x="0" y="0" width="352" height="72"></rect>
            <g transform="translate(116.000000, 8.000000)" fill="url(#linearGradient-1)" fill-rule="nonzero" id="Shape">
                <path d="M88.9172317,19.8781333 L100.605972,19.8781333 L86.7634058,38.0305333 L75.0709421,38.0305333 L88.9172317,19.8781333 Z M88.0385749,18.1048 L73.3238672,37.408 C72.9720322,37.8681333 72.9143238,38.4496 73.17215,38.9638667 C73.4206684,39.4725333 73.9474901,39.802 74.5050276,39.802 L87.6411317,39.802 L102.474979,20.3522667 C102.798891,19.9164 102.846361,19.3508 102.615527,18.8729333 C102.378178,18.3969333 101.895103,18.1048 101.350597,18.1048 L88.0385749,18.1048 Z M46.0147695,8.6688 C46.0901627,8.54186667 46.2307106,8.45693333 46.3880125,8.45693333 L54.0539201,8.45693333 L55.1550333,2.11213333 C55.1922645,1.9152 55.3644589,1.77613333 55.5692306,1.77613333 L62.7436861,1.77053333 C62.8749261,1.77053333 62.9819659,1.81066667 63.0573591,1.8956 C63.1355447,1.9936 63.1746374,2.12426667 63.1560218,2.24 L62.4421132,6.34573333 L96.1708035,6.37 C96.3532365,6.37 96.4835457,6.48106667 96.5477696,6.58653333 C96.5868624,6.66493333 96.6408476,6.82453333 96.5300848,6.97573333 L93.4845712,10.9629333 L118.48161,10.9564 C118.626812,10.9564 118.731059,11.0478667 118.772014,11.13 C118.812037,11.1888 118.844615,11.312 118.768291,11.4249333 L97.9932716,38.6922667 C97.7568534,38.9890667 97.7670919,39.7432 97.9318401,40.0661333 C98.1031037,40.3909333 98.6960108,40.8538667 99.0673922,40.8538667 L113.680645,40.8688 C113.850047,40.8688 113.94964,40.9565333 113.995249,41.0088 C114.074365,41.1002667 114.108804,41.2225333 114.090188,41.3410667 L112.978836,47.7129333 C112.943467,47.9061333 112.769411,48.0461333 112.563708,48.0461333 L56.9672628,48.0461333 L56.0532364,48.0405333 C56.1211834,48.356 56.148176,48.6836 56.148176,49.0177333 C56.148176,51.884 53.8314635,54.208 50.9683829,54.208 C48.1071639,54.208 45.7885899,51.884 45.7885899,49.0177333 C45.7885899,46.1505333 48.1071639,43.8293333 50.9683829,43.8293333 C52.9220911,43.8293333 54.6254192,44.9148 55.5115222,46.5173333 L78.1704409,16.7374667 C78.534376,15.9684 78.3528738,15.6930667 78.1564792,15.2404 C78.0103466,14.8988 77.4639785,14.5478667 76.8682791,14.5534667 L61.0077806,14.5534667 L56.9551626,37.7524 C56.9160699,37.9344 56.7420139,38.0622667 56.5474808,38.0622667 L49.3683714,38.0622667 C49.2017617,38.0622667 49.0993759,37.9726667 49.0509753,37.9194667 C49.0072286,37.8672 48.9281123,37.7524 48.958828,37.5872 L53.3604886,12.4058667 L35.4550656,47.5934667 C35.2940406,47.8762667 34.9961908,48.0582667 34.6601791,48.0582667 L28.5617058,48.0881333 C28.3439031,48.0881333 28.1651933,47.9322667 28.1456469,47.7456 L26.4637267,22.1834667 L13.2345445,47.6 C13.0763118,47.88 12.7710159,48.0610667 12.4433811,48.0610667 L6.25741444,48.0573333 C6.0451965,48.0573333 5.8646251,47.9005333 5.84694027,47.6989333 L1.81200713,8.8956 C1.80269932,8.77426667 1.84458444,8.6548 1.91718531,8.57266667 C1.99257853,8.49706667 2.10054906,8.456 2.23085832,8.456 L10.5455199,8.456 C10.7726303,8.456 10.9634403,8.6408 10.9634403,8.8844 L12.210686,34.1992 L24.4392793,8.6744 C24.5053647,8.54186667 24.6533588,8.456 24.8087991,8.456 L32.3890749,8.42333333 C32.5985005,8.42333333 32.7855873,8.582 32.7986183,8.76866667 L34.0309715,34.2794667 L46.0147695,8.6688 Z M55.2164648,0 C54.3601468,0 53.6322765,0.6132 53.4786978,1.4644 L52.5656022,6.68173333 L46.1180861,6.68173333 C45.4600244,6.68173333 44.8717712,7.03733333 44.5366902,7.65333333 L35.4606503,27.0601333 L34.5596548,8.29826667 C34.4824001,7.39013333 33.715437,6.68173333 32.7986183,6.68173333 L24.546319,6.68173333 C23.8873265,6.68173333 23.2795269,7.04946667 22.9649231,7.65706667 L13.6329185,27.1376 L12.7114459,8.44946667 C12.7114459,7.4732 11.918421,6.68266667 10.9466862,6.68266667 L1.76732966,6.68266667 C1.26563902,6.68266667 0.800248803,6.87866667 0.463306289,7.23426667 C0.13753314,7.59266667 -0.0300073365,8.092 0.00443153924,8.61373333 L4.1194118,48.244 C4.21807452,49.1409333 4.97386823,49.8176 5.87672524,49.8176 L12.7002765,49.8204 C13.5379789,49.8204 14.3002881,49.3621333 14.694939,48.6173333 L25.1159566,28.6029333 L26.4004336,48.244 C26.5037502,49.1409333 27.2567516,49.8176 28.1540239,49.8176 L34.9273131,49.8204 C35.7612924,49.8204 36.5310478,49.3565333 36.9247679,48.608 L49.5889664,23.716 L47.1363599,37.7542667 C47.0432819,38.2713333 47.1875529,38.7977333 47.5198415,39.2056 C47.8539916,39.6041333 48.3491668,39.8356 48.8713346,39.8356 L56.898385,39.8356 C57.7323643,39.8356 58.441619,39.2532 58.6277751,38.4150667 L62.489583,16.3221333 L76.279095,16.3221333 L55.4407829,43.6641333 C54.1935371,42.6188 52.6158643,42.0485333 50.9832754,42.0485333 C47.1512524,42.0485333 44.0228994,45.1789333 44.0228994,49.0233333 C44.0228994,52.8705333 47.1512524,56 50.9832754,56 C54.5044178,56 57.5015308,53.3036 57.9064202,49.8194667 L112.920197,49.8166667 C113.786754,49.8166667 114.514624,49.1997333 114.656103,48.3504 L115.915449,41.1702667 C116.002942,40.6541333 115.85681,40.1249333 115.524521,39.7282667 C115.193163,39.3316 114.70078,39.1038667 114.174889,39.1038667 L99.9078869,39.0908 L120.708968,11.8029333 C121.062664,11.2737333 121.094311,10.6353333 120.802046,10.0865333 C120.516296,9.5312 119.943866,9.18306667 119.318382,9.18306667 L97.058768,9.18306667 L98.4698312,7.336 C98.8402818,6.7816 98.8765822,6.1068 98.5647708,5.51693333 C98.2538901,4.93826667 97.6572599,4.57053333 97.0094367,4.57053333 L64.5419539,4.57053333 L64.9868669,2.06733333 C65.0706372,1.55493333 64.9161276,1.01173333 64.5763928,0.6104 C64.2459657,0.216533333 63.7712677,0 63.2397921,0 L55.2164648,0 Z"></path>
            </g>
        </g>
    </g>
</svg>