<?xml version="1.0" encoding="UTF-8"?>
<svg width="164px" height="64px" viewBox="0 0 164 64" version="1.1" xmlns="http://www.w3.org/2000/svg" xmlns:xlink="http://www.w3.org/1999/xlink">
    <title>AirAsia</title>
    <g id="Taskboard" stroke="none" stroke-width="1" fill="none" fill-rule="evenodd">
        <g id="AirAsia">
            <rect id="Rectangle" x="0" y="0" width="164" height="64"></rect>
            <g id="airasiacom_logo" transform="translate(18.000000, 18.000000)" fill="#FF0000" fill-rule="nonzero">
                <path d="M91.7275097,13.3222886 L92.5800682,7.59058425 C90.7199405,6.58367001 88.1235122,5.73166565 85.1395574,5.73166565 C79.249153,5.73166565 76.0326821,8.82986331 76.0326821,12.8187928 C76.0326821,17.0400871 79.8691955,18.2793661 82.5043764,19.170098 C84.0932355,19.75101 85.3333207,20.1770122 85.3333207,21.0290166 C85.3333207,21.726111 84.5195148,22.384478 82.8919031,22.384478 C80.5279908,22.384478 77.2340146,21.0290553 75.1026183,19.1314092 L74.1725544,25.4052207 C76.3814561,27.0317745 79.5591742,28 82.9306557,28 C88.7823075,28 92.1150363,25.1341672 92.1150363,21.0677828 C92.1150363,16.807761 88.5110388,15.3748058 85.6045893,14.3291641 C83.9769776,13.7482521 82.8143977,13.3997048 82.8143977,12.586428 C82.8143977,11.8893335 83.6282036,11.3471489 85.294568,11.3471489 C87.697233,11.3471489 90.1774032,12.4702843 91.7275097,13.3222886 Z" id="Path"></path>
                <path d="M17.0899241,6.31257771 L16.7023975,8.1714963 C15.5785703,5.96403048 12.2458415,5.73166565 10.4632191,5.73166565 C4.88283601,5.73166565 0,11.0760566 0,18.3955486 C0,24.2821241 3.56524555,28 8.02180152,28 C10.5019718,28 12.6333681,27.4190492 14.3772379,25.3664933 L13.9122059,27.4190879 L14.9197751,27.4190879 L20.9264375,27.4190879 L24.1429083,6.27385024 L17.0899241,6.27385024 L17.0899241,6.31257771 Z M11.2382724,20.9515616 C8.83560739,20.9515616 7.01423234,19.0926818 7.01423234,16.730306 C7.01423234,14.4066578 8.87436005,12.508973 11.2382724,12.508973 C13.563432,12.508973 15.4235597,14.4066578 15.4235597,16.730306 C15.4235597,19.0926818 13.563432,20.9515616 11.2382724,20.9515616 Z" id="Shape"></path>
                <path d="M68.8246873,6.31257771 L68.0883867,6.31257771 L67.7008601,8.1714963 C66.5770329,5.96403048 63.2443041,5.73166565 61.4616817,5.73166565 C55.8812986,5.73166565 50.9984634,11.0760566 50.9984634,18.3955486 C50.9984634,24.2821241 54.5637082,28 59.0202641,28 C61.5004344,28 63.6318307,27.4190492 65.3757005,25.3664933 L64.9106685,27.4190879 L65.9182377,27.4190879 L71.9249001,27.4190879 L75.1413709,6.27385024 L68.8246873,6.27385024 L68.8246873,6.31257771 Z M62.236735,20.9515616 C59.83407,20.9515616 58.0126949,19.0926818 58.0126949,16.730306 C58.0126949,14.4066578 59.8728227,12.508973 62.236735,12.508973 C64.5618946,12.508973 66.4220223,14.4066578 66.4220223,16.730306 C66.460775,19.0926818 64.5618946,20.9515616 62.236735,20.9515616 Z" id="Shape"></path>
                <path d="M121.683316,6.31257771 L120.947016,6.31257771 L120.559489,8.1714963 C119.435662,5.96403048 116.102933,5.73166565 114.320311,5.73166565 C108.739928,5.73166565 103.857092,11.0760566 103.857092,18.3955486 C103.857092,24.2821241 107.422337,28 111.878893,28 C114.359063,28 116.49046,27.4190492 118.23433,25.3664933 L117.769298,27.4190879 L118.776867,27.4190879 L124.783529,27.4190879 L128,6.27385024 L121.683316,6.27385024 L121.683316,6.31257771 Z M115.095364,20.9515616 C112.692699,20.9515616 110.871324,19.0926818 110.871324,16.730306 C110.871324,14.4066578 112.731452,12.508973 115.095364,12.508973 C117.420524,12.508973 119.280651,14.4066578 119.280651,16.730306 C119.280651,19.0926818 117.420524,20.9515616 115.095364,20.9515616 Z" id="Shape"></path>
                <path d="M30.9245077,7.08716585 C32.8721389,7.08716585 34.4509998,5.50933125 34.4509998,3.56296603 C34.4509998,1.61660468 32.8721389,0.0387654236 30.9245077,0.0387654236 C28.9768765,0.0387654236 27.3980156,1.61660468 27.3980156,3.56296603 C27.3980156,5.50933125 28.9768765,7.08716585 30.9245077,7.08716585 Z" id="Path"></path>
                <path d="M30.8858325,8.4425886 C29.3744788,8.4425886 28.0181356,7.74549413 27.1268244,6.69985242 L23.9878589,27.4190879 L31.0408432,27.4190879 L34.1023034,7.28076448 C33.2109922,8.01658642 32.1259177,8.4425886 30.8858325,8.4425886 Z" id="Path"></path>
                <path d="M47.3944659,13.2835612 C49.3421747,13.2835612 50.9209581,11.7057265 50.9209581,9.75936133 C50.9209581,7.81299611 49.3421747,6.2351615 47.3944659,6.2351615 C45.4467572,6.2351615 43.8679738,7.81299611 43.8679738,9.75936133 C43.8679738,11.7057265 45.4467572,13.2835612 47.3944659,13.2835612 Z" id="Path"></path>
                <path d="M42.472878,9.75940006 C42.472878,8.40393858 43.0154153,7.16465952 43.9067265,6.2739277 L37.2800215,6.2739277 L34.0635507,27.4191267 L41.1165349,27.4191267 L43.3641892,12.5477779 C42.7828993,11.7732285 42.472878,10.8050418 42.472878,9.75940006 Z" id="Path"></path>
                <path d="M100.17559,7.04839966 C102.123298,7.04839966 103.702082,5.47056505 103.702082,3.52419983 C103.702082,1.57783848 102.123298,0 100.17559,0 C98.227881,0 96.6490976,1.57783848 96.6490976,3.52419983 C96.6490976,5.47056505 98.227881,7.04839966 100.17559,7.04839966 Z" id="Path"></path>
                <path d="M100.17559,8.4425886 C98.6254833,8.4425886 97.2303875,7.70676666 96.3003236,6.58367001 L93.1226055,27.4190492 L100.17559,27.4190492 L103.23705,7.35821942 C102.384491,8.05531389 101.33817,8.4425886 100.17559,8.4425886 Z" id="Path"></path>
            </g>
        </g>
    </g>
</svg>