<svg height="64" viewBox="0 0 251 64" width="251" xmlns="http://www.w3.org/2000/svg"><g fill="none" fill-rule="evenodd"><path d="m0 0h251v64h-251z"/><g fill-rule="nonzero" transform="translate(18 18)"><path d="m14.8182957 19.9230769c0-.9423077.4041354-1.0769231 1.3471178-.5384615 1.6165414.9423077 3.2330827 1.75 3.2330827 1.75 0-.5384616.5388472-.9423077 1.4818296-.6730769.9429825.2692307 1.8859649.4038461 1.8859649.4038461s-.5388471-1.2115384-.8082706-1.75c-.4041354-.9423077 0-1.4807692.4041353-1.6153846 0 0-.5388471-.4038462-.9429825-.6730769-.8082706-.5384616-.6735589-1.2115385.1347118-1.4807693 1.0776942-.5384615 2.5595238-1.076923 2.5595238-1.076923-.4041353-.2692308-.9429824-.9423077-.4041353-1.8846154.5388471-.8076923 1.4818296-2.0192308 1.4818296-2.0192308s-1.4818296 0-2.5595239 0c-.9429824 0-1.212406-.80769229-1.212406-1.34615383 0 0-1.4818295 1.07692303-2.5595238 1.75000003-.9429824.6730769-1.7512531 0-1.6165413-1.07692311.2694235-1.61538461.4041353-3.5.4041353-3.5-.5388471.53846154-1.4818296.40384616-2.0206767-.40384615-.6735589-1.34615385-1.3471178-2.96153846-1.3471178-2.96153846s-.6735589 1.61538461-1.3471178 2.96153846c-.4041353.80769231-1.3471178.94230769-1.8859649.53846154 0 0 .1347118 1.88461538.4041354 3.5.1347117.94230772-.6735589 1.61538462-1.6165414.94230772-1.07769424-.673077-2.69423559-1.75000003-2.69423559-1.75000003 0 .53846154-.26942356 1.21153843-1.21240601 1.34615383-1.07769424 0-2.55952381 0-2.55952381 0s.94298245 1.2115385 1.48182957 2.0192308 0 1.6153846-.40413534 1.8846154c0 0 1.3471178.6730769 2.55952381 1.076923.80827068.4038462 1.07769424.9423077.13471178 1.4807693-.26942356.2692307-.94298246.6730769-.94298246.6730769.53884712.1346154.94298246.6730769.53884712 1.6153846-.26942356.5384616-.80827067 1.75-.80827067 1.75s.94298245-.2692308 1.88596491-.4038461c.94298245-.2692308 1.34711779.2692307 1.48182957.6730769 0 0 1.61654132-.9423077 3.23308272-1.75.8082707-.5384616 1.3471178-.2692308 1.3471178.5384615v2.2884616c0 1.3461538-.2694236 2.6923077-.6735589 3.5-6.06203009-.673077-11.18107771-5.5192308-11.18107771-11.9807693 0-6.59615382 5.52318296-11.9807692 12.39348371-11.9807692 6.8703008 0 12.3934837 5.38461538 12.3934837 11.9807692 0 6.1923077-4.849624 11.3076923-11.0463659 11.9807693v1.6153846c7.2744361-.6730769 12.9323308-6.4615385 12.9323308-13.5961539 0-7.67307689-6.4661654-13.7307692-14.4141604-13.7307692-7.81328319 0-14.2794486 6.05769231-14.2794486 13.5961538 0 6.5961539 4.98433584 12.1153847 11.585213 13.3269231 1.0776943.2692308 1.7512532.4038462 2.4248121 1.0769231.6735589-1.3461538.8082706-4.0384615.8082706-5.5192308z" fill="#f01428"/><g fill="#000"><path d="m72.6096491 20.8653846v-14.53846152h7.1397243c3.7719299 0 5.523183 1.61538461 5.6578948 3.63461538 0 .94230774-.1347118 1.88461534-.8082707 2.55769234-.6735589.6730769-.9429825.9423077-2.1553885 1.6153846l5.3884712 6.8653846h-3.9066416l-4.8496241-6.1923077h-3.2330827v6.0576923zm3.2330827-7.9423077h1.4818296c3.9066416 0 4.7149123-.6730769 4.7149123-2.5576923 0-1.88461537-1.7512531-2.15384614-4.310777-2.15384614h-1.8859649z"/><path d="m40.6829574 20.8653846 6.3314536-14.53846152h3.9066416l6.3314537 14.53846152h-3.9066416l-1.7512532-3.9038461h-6.7355889l-1.7512532 3.9038461zm4.9843358-5.7884615h4.9843359l-2.5595238-5.78846156z"/><path d="m61.697995 6.326923h3.367794v14.538462h-3.367794z"/><path d="m112.080201 20.3269231c-1.616542.6730769-3.637219.9423077-6.062031.9423077-2.828947 0-5.119047-.673077-6.7355885-2.0192308-1.6165414-1.3461538-2.4248121-3.2307692-2.4248121-5.6538462 0-2.4230769.8082707-4.44230765 2.4248121-5.65384611 1.6165415-1.34615384 3.9066415-2.01923077 7.0050125-2.01923077 1.885965 0 3.77193.13461539 5.792607.53846154v2.42307692c-2.155389-.67307692-4.176066-.94230769-5.657895-.94230769-1.885965 0-3.233083.53846154-4.310777 1.48076923-.942983.94230768-1.48183 2.42307688-1.48183 4.17307688s.538847 3.0961539 1.616542 4.173077c1.077694.9423077 2.559523 1.4807692 4.445488 1.4807692 1.751253 0 3.637218-.4038462 5.388472-1.0769231z"/><path d="m116.256266 20.8653846 6.331453-14.53846152h3.906642l6.331454 14.53846152h-3.906642l-1.751253-3.9038461h-6.735589l-1.751253 3.9038461zm5.119047-5.7884615h4.984336l-2.424812-5.78846156z"/><path d="m158.421053 20.8653846 6.331453-14.53846152h3.906642l6.331454 14.53846152h-3.906642l-1.751253-3.9038461h-6.735589l-1.751253 3.9038461zm4.984335-5.7884615h4.984336l-2.559523-5.78846156z"/><path d="m205.839599 9.28846154 2.559524 5.78846156h-4.984336zm-1.077694-2.96153846-6.331454 14.53846152h2.424812l1.751253-3.9038461h6.735589l1.751253 3.9038461h3.906642l-6.331454-14.53846152z"/><path d="m137.675439 20.8653846v-14.53846152h3.906641l9.160401 10.36538462v-10.36538462h2.828948v14.53846152h-3.637218l-9.429825-10.90384614v10.90384614z"/><path d="m179.705514 20.8653846v-14.53846152h7.005012c2.559524 0 4.445489.67307692 5.792607 1.75 1.347118 1.21153846 2.020677 2.96153842 2.020677 5.11538462 0 2.4230769-.673559 4.3076923-2.155389 5.5192308-1.48183 1.3461538-3.367794 2.0192307-5.927318 2.0192307h-6.735589zm3.367794-2.0192308h2.559524c1.751253 0 3.098371-.4038461 4.041353-1.3461538.942983-.9423077 1.347118-2.1538462 1.347118-4.0384615 0-1.3461539-.404135-2.5576923-1.077694-3.50000004-.538847-.67307692-1.077694-1.07692308-1.751253-1.34615384-.673559-.26923077-1.616541-.40384616-2.963659-.40384616h-2.020677v10.63461534z"/></g></g></g></svg>