<?xml version="1.0" encoding="UTF-8"?>
<svg width="248px" height="64px" viewBox="0 0 248 64" version="1.1" xmlns="http://www.w3.org/2000/svg" xmlns:xlink="http://www.w3.org/1999/xlink">
    <title>AirFrance</title>
    <g id="Taskboard" stroke="none" stroke-width="1" fill="none" fill-rule="evenodd">
        <g id="AirFrance">
            <rect id="Rectangle" x="0" y="0" width="248" height="64"></rect>
            <g transform="translate(18.000000, 18.000000)">
                <g id="Group" transform="translate(0.424000, 5.225920)" fill-rule="nonzero">
                    <path d="M199.47181,0 L190.00472,13.88576 C188.75964,15.71136 186.737228,17.472 184.295302,17.65904 L184.295302,18.08576 L194.824635,18.08576 C197.619894,18.08576 199.659132,16.24112 201.038815,14.20944 L210.759407,0 L199.472931,0 L199.47181,0 Z" id="Path" fill="#FF0000"></path>
                    <path d="M25.1270476,18.08576 L25.1270476,1.52544 L29.8931217,1.52544 L29.8931217,18.08576 L25.1259259,18.08576 L25.1270476,18.08576 Z M135.049608,18.08576 L123.597122,8.25216 L123.597122,18.08576 L119.572487,18.08576 L119.572487,1.52544 L122.991407,1.52544 L134.291344,11.20448 L134.291344,1.52544 L138.315979,1.52544 L138.315979,18.08576 L135.049608,18.08576 L135.049608,18.08576 Z M159.956804,6.86784 C157.803153,5.79264 155.376931,4.9224 152.161037,4.9224 C148.32036,4.9224 145.456677,6.93616 145.456677,9.73616 C145.456677,12.60448 148.371958,14.63728 152.126265,14.63728 C155.226624,14.63728 157.683132,13.83424 160.108233,12.41632 L160.108233,16.5144 C157.969164,17.5896 155.12455,18.39152 151.92436,18.39152 C145.390497,18.39152 140.252021,15.01248 140.252021,9.73616 C140.252021,4.54608 145.490328,1.21632 151.906413,1.21632 C154.938349,1.21632 157.683132,1.79648 159.956804,2.73728 L159.956804,6.86784 L159.956804,6.86784 Z M56.4177989,18.08576 L56.4177989,1.52544 L72.3492063,1.52544 L72.3492063,5.07584 L61.183873,5.07584 L61.183873,9.19072 L72.0979471,9.19072 L72.0979471,12.74224 L61.183873,12.74224 L61.183873,18.08688 L56.4177989,18.08688 L56.4177989,18.08576 Z M162.837312,18.08576 L162.837312,1.52544 L179.374434,1.52544 L179.374434,5.07584 L167.602265,5.07584 L167.602265,7.94528 L179.189354,7.94528 L179.189354,11.49568 L167.602265,11.49568 L167.602265,14.53536 L179.323958,14.53536 L179.323958,18.08576 L162.837312,18.08576 L162.837312,18.08576 Z M88.9042751,11.87088 L95.4886138,18.08688 L90.4028571,18.08688 C89.2744339,18.08688 88.5341164,17.72848 87.9441058,17.14608 L83.4640635,12.74112 C83.3586232,12.6464855 83.2197569,12.5977138 83.0782011,12.6056 L80.0294392,12.6056 L80.0294392,18.08576 L75.2633651,18.08576 L75.2633651,1.52544 L85.5874286,1.52544 C90.9423915,1.52544 93.1992381,3.96704 93.1992381,6.664 C93.1992381,9.8056 90.4365079,11.3064 88.9042751,11.872 L88.9042751,11.87088 Z M85.0994921,9.1392 C86.9839365,9.1392 87.8936296,8.16704 87.8936296,7.07392 C87.8936296,5.9808 87.0860106,5.07584 85.0994921,5.07584 L80.0294392,5.07584 L80.0294392,9.1392 L85.0994921,9.1392 Z M47.996127,11.872 L54.5804656,18.08576 L49.4958307,18.08576 C48.3674074,18.08576 47.6259683,17.72736 47.0370794,17.14608 L42.557037,12.74112 C42.4512525,12.6463116 42.3119718,12.5975361 42.1700529,12.6056 L39.1224127,12.6056 L39.1224127,18.08576 L34.3552169,18.08576 L34.3552169,1.52544 L44.6792804,1.52544 C50.0342434,1.52544 52.2922116,3.96704 52.2922116,6.664 C52.2922116,9.8056 49.5294815,11.3064 47.996127,11.872 Z M44.1913439,9.1392 C46.0780317,9.1392 46.9877249,8.16704 46.9877249,7.07392 C46.9877249,5.9808 46.1789841,5.07584 44.1913439,5.07584 L39.1224127,5.07584 L39.1224127,9.1392 L44.1913439,9.1392 Z M17.665545,18.08576 L15.5780741,14.44912 L6.45085714,14.44912 L4.54734392,18.08576 L0,18.08576 L9.09468783,1.54224 L13.2382222,1.54224 L23.5454603,18.08576 L17.665545,18.08576 L17.665545,18.08576 Z M8.26912169,10.99952 L13.5915556,10.99952 L10.8288254,5.94608 L8.26912169,10.99952 L8.26912169,10.99952 Z M112.835598,18.08576 L110.797481,14.44912 L101.908063,14.44912 L100.071852,18.08576 L95.641164,18.08576 L104.499175,1.54224 L108.52381,1.54224 L118.545016,18.08576 L112.835598,18.08576 Z M103.691556,10.99952 L108.878265,10.99952 L106.183958,5.94608 L103.691556,10.99952 L103.691556,10.99952 Z" id="Shape" fill="#051039"></path>
                </g>
                <polygon id="Path" points="0 0 212 0 212 28 0 28"></polygon>
            </g>
        </g>
    </g>
</svg>