<?xml version="1.0" encoding="UTF-8"?>
<svg width="217px" height="64px" viewBox="0 0 217 64" version="1.1" xmlns="http://www.w3.org/2000/svg" xmlns:xlink="http://www.w3.org/1999/xlink">
    <title>AirFranceHOP</title>
    <defs>
        <linearGradient x1="49.9999801%" y1="-0.000295607709%" x2="49.9999801%" y2="100.001179%" id="linearGradient-1">
            <stop stop-color="#FF1E27" offset="33.52%"></stop>
            <stop stop-color="#E81B23" offset="69.15%"></stop>
            <stop stop-color="#A61319" offset="78.41%"></stop>
            <stop stop-color="#9D1218" offset="87.19%"></stop>
            <stop stop-color="#931116" offset="95.51%"></stop>
            <stop stop-color="#800F14" offset="100%"></stop>
        </linearGradient>
    </defs>
    <g id="Taskboard" stroke="none" stroke-width="1" fill="none" fill-rule="evenodd">
        <g id="AirFranceHOP">
            <rect id="Rectangle" x="0" y="0" width="217" height="64"></rect>
            <g id="Air_France_Hop_Logo" transform="translate(18.000000, 18.000000)" fill-rule="nonzero">
                <g id="g25">
                    <g id="g4" transform="translate(158.272881, 0.000000)" fill="#ED1C24">
                        <path d="M13.034152,2.76325728e-16 L4.90444952,11.7544946 C3.83389378,13.3003407 2.09673142,14.7896204 0,14.9498164 L0,15.3104837 L9.04221085,15.3104837 C11.442357,15.3104837 13.1931051,13.748799 14.3791395,12.0287284 L22.7271194,0.00045253107 L13.034152,0.00045253107 L13.034152,2.76325728e-16 Z" id="path2"></path>
                    </g>
                    <path d="M171.307033,0 L163.17733,11.7526844 C162.106774,13.3003407 160.369612,14.7896204 158.272881,14.9493639 L158.272881,15.3100312 L167.315091,15.3100312 C169.715238,15.3100312 171.465986,13.7483465 172.65202,12.0282759 L181,0 L171.307033,0 Z" id="path19" fill="url(#linearGradient-1)"></path>
                    <g id="g23" transform="translate(0.000000, 1.030413)" fill="#002157">
                        <path d="M21.5777664,14.2796179 L21.5777664,0.261110428 L25.6729591,0.261110428 L25.6729591,14.2796179 L21.5777664,14.2796179 Z M115.9814,14.2796179 L106.145783,5.95530889 L106.145783,14.2796179 L102.688667,14.2796179 L102.688667,0.261110428 L105.625449,0.261110428 L115.330644,8.45509052 L115.330644,0.261110428 L118.78776,0.261110428 L118.78776,14.2796179 L115.9814,14.2796179 Z M137.372136,4.78415848 C135.521307,3.87411849 133.438614,3.13694538 130.676182,3.13694538 C127.378019,3.13694538 124.918548,4.84162992 124.918548,7.21198767 C124.918548,9.64207952 127.42104,11.36034 130.646293,11.36034 C133.307738,11.36034 135.42032,10.6806383 137.503012,9.48143099 L137.503012,12.9505342 C135.66441,13.8619317 133.220789,14.5398233 130.473754,14.5398233 C124.861035,14.5398233 120.449748,11.6780168 120.449748,7.2124402 C120.449748,2.81836351 124.948437,0 130.459716,0 C133.061836,0 135.42032,0.491448742 137.372136,1.28654583 L137.372136,4.78415848 Z M48.4521572,14.2796179 L48.4521572,0.261110428 L62.1338958,0.261110428 L62.1338958,3.26591674 L52.543727,3.26591674 L52.543727,6.75040598 L61.9174298,6.75040598 L61.9174298,9.75702241 L52.543727,9.75702241 L52.543727,14.2796179 L48.4521572,14.2796179 Z M139.845646,14.2796179 L139.845646,0.261110428 L154.048623,0.261110428 L154.048623,3.26591674 L143.939027,3.26591674 L143.939027,5.69555605 L153.888312,5.69555605 L153.888312,8.70081489 L143.939027,8.70081489 L143.939027,11.2730015 L154.005149,11.2730015 L154.005149,14.2800705 L139.845646,14.2800705 L139.845646,14.2796179 Z M76.3509122,9.0198493 L82.0075585,14.2796179 L77.6383868,14.2796179 C76.6701769,14.2796179 76.0334589,13.9764221 75.5262582,13.4849734 L71.6801373,9.75702241 C71.6067744,9.68371238 71.4917485,9.64207952 71.3472869,9.64207952 L68.7293162,9.64207952 L68.7293162,14.2796179 L64.635482,14.2796179 L64.635482,0.261110428 L73.5033426,0.261110428 C78.1007546,0.261110428 80.0407972,2.32646223 80.0407972,4.61174414 C80.0398915,7.26945912 77.6678226,8.54152395 76.3509122,9.0198493 L76.3509122,9.0198493 Z M73.0821849,6.70651046 C74.70251,6.70651046 75.4841425,5.88199885 75.4841425,4.95838294 C75.4841425,4.0329569 74.7899115,3.26591674 73.0821849,3.26591674 L68.7288633,3.26591674 L68.7288633,6.70651046 L73.0821849,6.70651046 Z M41.2209245,9.0198493 L46.8753065,14.2796179 L42.5079463,14.2796179 C41.537925,14.2796179 40.9016598,13.9764221 40.3958177,13.4849734 L36.5478853,9.75702241 C36.4767867,9.68371238 36.3594965,9.64207952 36.2150349,9.64207952 L33.5988756,9.64207952 L33.5988756,14.2796179 L29.5036829,14.2796179 L29.5036829,0.261110428 L38.3710907,0.261110428 C42.970314,0.261110428 44.9085453,2.32646223 44.9085453,4.61174414 C44.9080924,7.26945912 42.5360235,8.54152395 41.2209245,9.0198493 Z M37.9521972,6.70651046 C39.5707109,6.70651046 40.3523434,5.88199885 40.3523434,4.95838294 C40.3523434,4.0329569 39.6581124,3.26591674 37.9521972,3.26591674 L33.5988756,3.26591674 L33.5988756,6.70651046 L37.9521972,6.70651046 Z M15.1729992,14.2796179 L13.377871,11.2019541 L5.53980895,11.2019541 L3.9054453,14.2796179 L0,14.2796179 L7.80862631,0.275138891 L11.3667297,0.275138891 L20.2187403,14.2796179 L15.1729992,14.2796179 Z M7.10080964,8.28267618 L11.6705973,8.28267618 L9.29852834,4.00308985 L7.10080964,8.28267618 Z M96.9047673,14.2796179 L95.1535663,11.2019541 L87.5179317,11.2019541 L85.941081,14.2796179 L82.1370758,14.2796179 L89.745539,0.275138891 L93.2008437,0.275138891 L101.806952,14.2796179 L96.9047673,14.2796179 Z M89.0504023,8.28267618 L93.5051641,8.28267618 L91.1910609,4.00308985 L89.0504023,8.28267618 Z" id="path21"></path>
                    </g>
                </g>
                <g id="text848" transform="translate(110.872940, 17.478653)" fill="#FF0000">
                    <polygon id="path829" points="13.0797055 10.302853 13.0797055 0.218494075 9.93395235 0.218494075 9.93395235 4.2690451 3.16940369 4.2690451 3.16940369 0.218494075 0 0.218494075 0 10.302853 3.16940369 10.302853 3.16940369 6.25230237 9.93395235 6.25230237 9.93395235 10.302853"></polygon>
                    <path d="M14.8517802,5.22705906 C14.8517802,6.70609843 15.5849994,7.94983619 17.0987498,8.97507912 C18.5888389,10.0171296 20.3864114,10.5213475 22.4914672,10.5213475 C24.5728672,10.5213475 26.3704397,10.0171296 27.8841847,8.97507912 C29.3979296,7.94983619 30.1548048,6.70609843 30.1548048,5.22705906 C30.1548048,3.78163436 29.3979296,2.5378966 27.8841847,1.52946082 C26.3704397,0.521025038 24.5728672,0.0168071485 22.4914672,0 C20.3864114,0 18.5888389,0.521025038 17.0987498,1.52946082 C15.5849994,2.5378966 14.8517802,3.78163436 14.8517802,5.22705906 L14.8517802,5.22705906 Z M18.0211838,5.22705906 C18.0211838,4.35308123 18.4469251,3.59675458 19.2984077,2.99169304 C20.1498902,2.3866315 21.2142434,2.06729339 22.4914672,2.06729339 C23.7686911,2.06729339 24.8093884,2.36982397 25.6608709,2.97488551 C26.488703,3.57994705 26.8907884,4.31946693 26.9144442,5.22705906 C26.9144442,6.16826586 26.488703,6.94140003 25.6608709,7.54646158 C24.8093884,8.15152312 23.7686911,8.45405408 22.4914672,8.45405408 C21.2142434,8.45405408 20.1498902,8.15152312 19.2984077,7.52965443 C18.4469251,6.92459288 18.0211838,6.15145871 18.0211838,5.22705906 Z" id="path831"></path>
                    <path d="M37.2656422,7.31115997 C38.9449514,7.31115997 40.3404385,6.99182186 41.4520927,6.31953134 C42.5637522,5.64724082 43.1314073,4.79007014 43.1314073,3.73121254 C43.1314073,2.65554778 42.5637522,1.81518425 41.4757432,1.17650841 C40.3877395,0.537832187 38.9686019,0.218494075 37.2656422,0.218494075 L31.9438762,0.218494075 L31.9438762,10.302853 L35.0896294,10.302853 L35.0896294,7.31115997 L37.2656422,7.31115997 Z M37.1946853,2.11771521 C38.022512,2.11771521 38.7084302,2.26898069 39.2287789,2.5378966 C39.7491276,2.82362041 40.0093046,3.2101875 40.0093046,3.71440539 C40.0093046,4.25223796 39.7254771,4.67241934 39.2051284,4.9749503 C38.6847744,5.27748088 37.9988615,5.42874636 37.1710294,5.42874636 L35.0896294,5.42874636 L35.0896294,2.11771521 L37.1946853,2.11771521 Z" id="path833"></path>
                </g>
            </g>
        </g>
    </g>
</svg>