<?xml version="1.0" encoding="UTF-8"?>
<svg width="131px" height="64px" viewBox="0 0 131 64" version="1.1" xmlns="http://www.w3.org/2000/svg" xmlns:xlink="http://www.w3.org/1999/xlink">
    <title>AirIndia-Header</title>
    <g id="Page-1" stroke="none" stroke-width="1" fill="none" fill-rule="evenodd">
        <g id="AirIndia-Header">
            <rect id="Rectangle" x="0" y="0" width="131" height="64"></rect>
            <g id="AirInDia" transform="translate(18.000000, 18.000000)" fill-rule="nonzero">
                <g id="AI_Logo-2">
                    <path d="M30.9720959,17.1689234 L40.656626,0.0329102022 L35.9807216,0 L23.5819906,9.92440056 L15.151513,15.9779031 C15.151513,15.9779031 12.0392997,19.2054067 0,18.554772 C0,18.554772 3.67180504,19.090221 6.95318195,19.8553832 C8.66203788,20.2712599 10.3155929,20.8874529 11.8793692,21.6911142 C12.5425035,22.0801128 13.2409214,22.5109074 13.8074379,22.9025388 C14.8715523,23.632158 16.9981326,25.7538787 18.361993,26.4844852 C20.1139732,27.4273625 23.1295688,28.29685 27.7513936,27.3730606 C27.7513936,27.3730606 22.0796337,27.5047015 19.6539671,25.4228021 C19.2081404,25.035449 17.7364506,23.441937 20.0166959,22.1696286 C20.8410796,21.6493183 22.0977702,21.3340386 24.3941734,20.9552421 C24.3941734,20.9552421 30.860969,20.2937471 32.6050352,20.6337094 C31.9921504,20.3770872 31.4376836,19.9992543 30.9750637,19.5229901 C30.1061633,18.654819 30.9750637,17.1689234 30.9750637,17.1689234" id="Path_63" fill="#D9000D"></path>
                    <path d="M29.1854915,10.1238364 C29.7351906,10.0560414 31.9834498,9.6693465 32.2221914,9.6209685 C33.3522566,9.39783733 34.579599,9.13389751 35.639097,8.90977903 L35.7637438,8.68993888 C34.1974147,8.806441 32.3188091,8.94992948 30.9401098,9.06939351 C30.0210869,9.14739069 29.3269558,9.21189469 29.0961283,9.25105783 C28.7993502,9.29779031 28.5048804,9.34978843 28.215027,9.40540668 C27.2220202,9.59812394 26.2406623,9.84643975 25.2756045,10.1491772 C26.5773355,10.2461742 27.8848029,10.2376994 29.1851618,10.1238364" id="Path_64" fill="#EF7000"></path>
                    <path d="M29.0601852,11.7759285 C29.6092248,11.8509638 31.8848536,12.0563235 32.1222761,12.0721204 C32.6676883,12.1083216 33.2338751,12.1438646 33.794456,12.1734838 L34.0252834,11.7584861 C32.9674342,11.5610249 31.8970544,11.3658674 31.0291433,11.2105313 C30.1193534,11.0459803 29.4308281,10.9307945 29.2013197,10.909732 C28.9005845,10.8768218 28.6047957,10.8521392 28.3109853,10.8317348 C27.3014031,10.7593898 26.28849,10.7449953 25.2772533,10.7886225 C26.509682,11.2198414 27.7752934,11.5500377 29.0615042,11.7759285" id="Path_65" fill="#EF7000"></path>
                    <path d="M28.5094969,13.335543 C29.020285,13.5524213 31.1630232,14.3363423 31.3925316,14.4146685 C31.7031594,14.5196521 32.025988,14.6275976 32.3488167,14.7348848 L32.610641,14.2685472 C31.8759502,13.9187118 31.1669802,13.5790785 30.5595743,13.2970381 C29.7243087,12.9044194 29.0888738,12.6171133 28.8699175,12.5335214 C28.5873187,12.4262341 28.3093365,12.3271744 28.0310246,12.2300893 C27.0742526,11.9017022 26.1002545,11.6256147 25.1133658,11.4030559 C26.1895014,12.1404994 27.3254971,12.7869105 28.5094969,13.335543" id="Path_66" fill="#EF7000"></path>
                    <path d="M27.5736565,14.6986836 C28.0105799,15.0422661 29.8799524,16.3527504 30.079783,16.4873531 C30.3838157,16.690409 30.6931245,16.8980724 31.0073795,17.1047485 L31.2550244,16.6667137 L31.2721716,16.6407146 C30.6627871,16.119417 30.0698904,15.6165491 29.56207,15.1926657 C28.8587058,14.6002821 28.3215374,14.1540197 28.1315994,14.0217207 C27.8879116,13.8443347 27.639937,13.674189 27.3985574,13.5102962 C26.5599785,12.9450238 25.6902589,12.4271895 24.7935049,11.9592384 C25.643852,12.9465942 26.573667,13.8629052 27.5736565,14.6990127" id="Path_67" fill="#EF7000"></path>
                    <path d="M26.3153172,15.7784673 C26.6503468,16.2207804 28.1137927,17.970945 28.2707554,18.1506347 C28.9632377,18.9427833 29.7315633,19.7912083 30.4111852,20.5458392 C30.5130791,20.5405736 30.6090373,20.5405736 30.7079634,20.538599 C29.8555506,19.2899859 28.8573868,17.8399624 28.1101654,16.7680771 C27.5799218,16.0111425 27.1776226,15.445087 27.0275847,15.2657264 C26.8389658,15.029102 26.6470492,14.8049835 26.4534839,14.5834979 C25.7899689,13.8208794 25.0844131,13.0957322 24.3400939,12.4114245 C24.9050838,13.5854755 25.5654797,14.7113679 26.3146577,15.7778091" id="Path_68" fill="#EF7000"></path>
                    <path d="M24.8188959,16.4916314 C25.0279596,17.0086507 25.9895208,19.0754114 26.0960312,19.2889986 C26.3268586,19.7635637 26.5761522,20.254913 26.8214888,20.7396803 C26.9781217,20.7275035 27.1360736,20.7163141 27.2969933,20.7044664 C26.9474547,19.7132111 26.5903316,18.719323 26.2975105,17.9120357 C25.9832555,17.0471556 25.7422057,16.3922426 25.6465772,16.1816173 C25.5245684,15.9051716 25.3956348,15.6379408 25.2657119,15.3756465 C24.8248962,14.4654748 24.3308424,13.581957 23.786108,12.7296662 C24.0282941,14.0093675 24.3736803,15.2674487 24.8188959,16.4916314" id="Path_69" fill="#EF7000"></path>
                    <path d="M23.1892542,16.8 C23.260481,17.3502586 23.646952,19.5930889 23.6977341,19.8277386 C23.7722584,20.222661 23.8553562,20.6248237 23.9404326,21.0296192 L23.9826411,21.0236953 L23.9905552,21.0236953 L24.0090214,21.0177715 L24.0146272,21.0177715 L24.0663985,21.0098731 L24.0726638,21.0078984 L24.0865134,21.0078984 L24.0931085,21.0052656 L24.0997036,21.003291 L24.1072879,21.003291 L24.115202,21.0009873 L24.1231161,20.9980254 L24.1320194,20.9980254 L24.1409228,20.9960508 L24.1468583,20.993418 L24.1544426,20.993418 L24.1762064,20.9881523 L24.1870882,20.9881523 L24.1979701,20.9881523 L24.2055544,20.9861777 L24.2187446,20.9835449 L24.2276479,20.9835449 L24.2606233,20.9766338 L24.2711754,20.9766338 L24.2767812,20.9746591 L24.2856845,20.9746591 L24.333169,20.9631406 L24.3397641,20.9631406 L24.3918652,20.9539257 L24.4429769,20.9493183 C24.374718,20.0893747 24.3074483,19.2557593 24.2451249,18.5508228 C24.1692816,17.6336154 24.1043201,16.9382228 24.0673877,16.7101551 C24.0185842,16.4139633 23.9598881,16.1200752 23.9094358,15.8334274 C23.7186248,14.8408978 23.4705674,13.8601881 23.1665012,12.8961918 C23.0654685,14.1953591 23.0723067,15.5006417 23.1869459,16.7986836" id="Path_70" fill="#EF7000"></path>
                    <path d="M21.537519,16.6749412 C21.4587079,17.2245416 21.2549203,19.4920545 21.2407409,19.7303244 C21.1962241,20.3608839 21.1586323,21.0197461 21.1243379,21.6670898 C21.2644831,21.6216737 21.4155102,21.5746121 21.5721431,21.5324871 C21.7663679,20.5070052 21.9559762,19.4788905 22.1053545,18.6363893 C22.2702312,17.732346 22.3846557,17.0458392 22.4067492,16.8138223 C22.4360972,16.5140103 22.4595097,16.2178185 22.481933,15.9252468 C22.5551076,14.9176982 22.5701913,13.9067846 22.5271092,12.8975082 C22.0944936,14.126663 21.7636307,15.3891628 21.5378488,16.6723084" id="Path_71" fill="#EF7000"></path>
                    <path d="M19.9741577,16.1240244 C19.7578395,16.635449 18.9710476,18.7736248 18.8955341,19.0007052 C18.29901,20.7449459 17.6754462,22.7504937 17.2599568,23.9191349 C17.9854145,22.4157969 19.2130867,19.8754584 20.0143877,18.1703808 C20.4071241,17.335449 20.6966476,16.7029149 20.779086,16.4873531 C20.8855964,16.2043253 20.9874902,15.9239304 21.0821294,15.6491302 C21.4157002,14.6945298 21.692082,13.7209723 21.9098107,12.7336154 C21.1736102,13.8093096 20.52626,14.9429612 19.9741577,16.1233662" id="Path_72" fill="#EF7000"></path>
                    <path d="M18.6076593,15.1910202 C18.2627372,15.6283968 16.9509778,17.4914433 16.8128111,17.6879173 C15.7876075,19.219229 14.6647969,20.9983545 13.9604435,22.0169252 C15.0519275,20.7535026 16.897228,18.6149976 18.1113803,17.1764927 C18.7075746,16.474189 19.1507633,15.935449 19.2869515,15.7465444 C19.4623803,15.5023507 19.6315439,15.2568406 19.8000479,15.0159379 C20.3658564,14.1787098 20.8845897,13.3107352 21.3538463,12.416032 C20.3641884,13.2644142 19.4457296,14.1921753 18.6076593,15.1900329" id="Path_73" fill="#EF7000"></path>
                    <path d="M14.5018987,16.4567466 C13.301596,17.5217207 12.0693072,18.6495534 11.2676765,19.3311236 C12.6526412,18.390221 14.9839983,16.8013164 16.5348289,15.7277856 C17.2932619,15.1995769 17.8587891,14.7954396 18.038175,14.6503056 C18.2746083,14.45811 18.4998299,14.2682181 18.7250515,14.0750353 C19.4884755,13.411834 20.2150163,12.707493 20.9014245,11.9651622 C20.7695231,12.0168312 20.6191556,12.0859426 20.4536193,12.1695346 L15.151513,15.9779031 L15.1492048,15.9779031 L15.1492048,15.9802069 L15.1465667,15.9844852 L15.14228,15.9844852 L15.14228,15.9867889 L15.1396419,15.990409 L15.1366741,15.990409 L15.1340361,15.9927127 L15.1294196,15.9950165 L15.1294196,15.9950165 L15.1271113,15.9976493 L15.1241435,16.0022567 L15.1198567,16.0045604 L15.1142509,16.0091678 L15.1142509,16.0091678 L15.1116129,16.0134462 L15.1063368,16.0173954 L15.0934764,16.0295722 L15.0934764,16.0295722 L15.0901789,16.0328632 L15.0700639,16.0509638 L15.0677557,16.0539257 C14.8892371,16.1999487 14.700951,16.3336548 14.504207,16.4541138" id="Path_74" fill="#EF7000"></path>
                    <path d="M28.1012621,6.91937 C28.542802,6.57809121 30.2726888,5.09022097 30.4461391,4.93159379 C31.8152756,3.69877762 33.3380772,2.24447579 34.2689712,1.42237894 L33.6905836,1.82980724 L32.5730491,2.72628115 L24.846925,8.90944993 C25.9813582,8.33045795 27.069363,7.66501536 28.1012621,6.9190409" id="Path_75" fill="#EF7000"></path>
                    <path d="M28.8791506,8.49511048 C29.3925767,8.28843441 31.4637584,7.32976023 31.6777684,7.22576399 C33.3357689,6.4135402 35.1995356,5.43446168 36.3193784,4.9003291 C34.7411782,5.45091678 32.0744618,6.38425012 30.3020368,7.02369535 C29.4337959,7.33568406 28.7805543,7.58119417 28.5691823,7.67433004 C28.2925191,7.7980724 28.0244295,7.92708039 27.7586482,8.05345557 C26.849238,8.49639267 25.964932,8.98892497 25.1097385,9.52881993 C26.392788,9.28930067 27.6536176,8.94353549 28.8791506,8.49511048" id="Path_76" fill="#EF7000"></path>
                    <path d="M39.3702576,19.1119417 L39.1110714,19.5786084 L41.8519823,19.5786084 C41.8519823,19.5786084 42.3627705,19.6003291 42.790131,18.7314998 L43.7038779,17.0780912 L44.379213,17.0780912 L44.7208376,16.4244946 L36.7612481,16.4244946 L36.3490562,17.0958627 L37.0534097,17.0958627 L35.810239,19.5397743 C35.810239,19.5397743 35.3776024,20.5093089 36.5356967,20.5093089 L39.5733858,20.5066761 C39.5733858,20.5066761 39.8777482,20.451716 39.7316674,20.8884344 L39.6327414,21.1286789 L42.1833846,21.1286789 L42.462356,20.4550071 C42.462356,20.4550071 42.767378,19.9913023 41.8509931,19.9913023 L38.7097614,19.9913023 C38.7097614,19.9913023 38.3242796,19.9583921 38.5211424,19.5262811 L39.7982776,17.0780912 L40.9243858,17.0780912 L39.922265,18.8726845 C39.922265,18.8726845 39.8516977,19.1303714 39.3715766,19.1132581" id="Path_77" fill="#D9000D"></path>
                    <path d="M49.9197311,18.6123648 C50.2824599,18.5465444 50.6122134,18.0627645 50.6122134,18.0627645 L51.0606781,17.0652562 C51.2891973,16.4787964 50.3883108,16.4070522 50.3883108,16.4070522 L46.4685311,16.4070522 C46.0332077,16.3796133 45.6066263,16.5375911 45.2946087,16.841796 L44.8105306,17.6319699 L47.3667796,17.6319699 L47.6104674,17.2511989 C47.6104674,17.2511989 47.7093935,17.0800658 47.8610801,17.0978373 L48.3444987,17.0978373 C48.3444987,17.0978373 48.5964303,17.1070522 48.3751657,17.4535966 L48.1384027,17.8606958 C48.0147613,18.0534631 47.8008877,18.1696878 47.5715565,18.1687353 L46.5239297,18.1749882 L46.2067068,18.7700047 L46.8662138,18.7700047 C47.739401,18.7157029 47.3789805,19.2244946 47.3789805,19.2244946 L47.1461745,19.6809591 C46.9951474,20.070945 46.4804022,19.996897 46.4804022,19.996897 C45.9422445,19.996897 46.1358098,19.7336154 46.1358098,19.7336154 L46.3310239,19.3850964 L43.787965,19.3880583 L43.4615091,20.0100611 C43.3799945,20.1274556 43.3752609,20.2817105 43.4494244,20.4038634 C43.523588,20.5260164 43.6627839,20.5932312 43.8047825,20.5754584 L48.5397127,20.5754584 C48.8808724,20.5994119 49.211353,20.4511192 49.4198248,20.180536 L49.9180823,19.3205924 C50.1977132,18.8562294 49.9180823,18.6140103 49.9180823,18.6140103 L49.9197311,18.6123648 Z" id="Path_78" fill="#D9000D"></path>
                    <path d="M55.8859608,16.4310766 L52.08819,16.4310766 L51.7584365,17.0507757 L52.2965942,17.0507757 L51.7188661,18.0890926 C51.6399027,18.1504915 51.5411019,18.1808227 51.4412136,18.17433 L50.7787389,18.17433 L50.4638243,18.7693465 L50.9439454,18.7693465 C51.2713906,18.7693465 51.2905163,18.8229901 51.2492971,18.9273155 L50.293012,20.6797837 L52.8687165,20.6797837 L54.8231654,17.0507757 L55.5011385,17.0507757 L55.8859608,16.4310766 Z" id="Path_79" fill="#D9000D"></path>
                    <path d="M61.1349768,16.4310766 L57.3395142,16.4310766 L57.0077822,17.0507757 L57.5439613,17.0507757 L56.9527134,17.9360602 C56.7849089,18.1008152 56.5552794,18.1873237 56.3202462,18.17433 L55.4767368,18.17433 L55.1644602,18.7693465 L55.428263,18.7693465 C55.7636223,18.7512459 55.7029476,18.8700517 55.5990753,19.0477668 L55.2277729,19.7178185 C55.1182947,19.8925717 54.9850743,20.5639398 55.6191903,20.6017866 L58.619947,20.5984955 L58.8804522,20.0340856 C58.6057676,20.0284908 58.1711525,20.0284908 57.9195506,20.0284908 C57.5897971,20.0284908 57.751706,19.7589563 57.751706,19.7589563 L58.3653773,18.7920545 C58.7430958,18.8115386 59.0998318,18.617883 59.288687,18.2908322 L60.0718515,17.0507757 L60.7461974,17.0507757 L61.1349768,16.4310766 Z" id="Path_80" fill="#D9000D"></path>
                    <polygon id="Path_81" fill="#D9000D" points="69.844096 15.4108604 67.5147174 15.4108604 67.1061529 16.0410907 69.4355315 16.0410907"></polygon>
                    <path d="M87.3207009,17.4720263 L86.5916159,18.8447109 C86.5068693,18.9582511 86.3677133,19.0461213 85.8757211,19.0461213 L83.3191424,19.0461213 C83.3191424,19.0461213 82.8789215,18.945087 83.0510528,18.5524683 C83.0510528,18.5524683 83.0810603,18.332299 83.4180684,18.332299 L85.6293953,18.3303244 C85.9058731,18.305646 86.1469098,18.1325736 86.2582352,17.8787964 L86.695818,17.0652562 L87.2491444,17.0652562 C87.2491444,17.0652562 87.5601019,17.0803949 87.3207009,17.4723554 M82.7935153,16.4264692 L82.4637618,17.0649271 L83.6716488,17.0649271 C83.9746923,17.0649271 84.0591092,17.2294781 83.9400682,17.4249647 L83.853343,17.5977433 C83.7236833,17.7248868 83.5442406,17.7881582 83.3633293,17.7705219 L81.133866,17.7609779 C80.8924384,17.744592 80.6682327,17.8863083 80.5798802,18.1111425 L80.2689226,18.7364363 C80.2689226,18.7364363 79.8606878,19.6023037 81.2367491,19.6750353 L85.5980687,19.6750353 C85.5980687,19.6750353 86.0359813,19.6654913 86.0218019,19.903103 L85.6076315,20.6820874 L88.0939728,20.6820874 L89.9659833,17.2801598 C90.0651371,17.1456144 90.222368,17.0659941 90.3897166,17.0655853 L91.1151742,17.0655853 C91.1151742,17.0655853 91.424483,17.080724 91.1455115,17.5457452 L89.4723424,20.6820874 L91.9596729,20.6820874 L93.8330024,17.2719323 C93.9300567,17.1341275 94.091526,17.0561034 94.2600332,17.0655853 L94.6141884,17.0655853 L95,16.4271274 L82.7935153,16.4264692 Z" id="Path_82" fill="#D9000D"></path>
                    <path d="M69.3418815,17.1133051 L69.7415427,16.4159379 L63.5243705,16.4159379 L63.1059133,17.1337094 L66.0822683,17.1337094 C66.0822683,17.1337094 66.4604955,17.0981664 66.3431033,17.2883874 L66.2326359,17.4621533 L63.2961811,17.4621533 C63.0912157,17.4676109 62.8994102,17.5641691 62.7731921,17.7254349 L62.271637,18.6001881 C62.1644672,18.8266102 62.2386617,19.096803 63.0726082,19.096803 L64.7147806,19.096803 C64.7147806,19.096803 65.2674474,19.0474377 65.0775094,19.4426892 L64.8338216,19.8728256 C64.8338216,19.8728256 64.7134616,20.132158 64.4862614,20.1143865 L64.0447215,20.1143865 C64.0447215,20.1143865 63.7683881,20.1640809 63.9078738,19.8566996 L64.1011094,19.4779031 L61.7875589,19.4779031 L61.372729,20.2019276 C61.372729,20.2019276 61.0578145,20.535637 61.4442855,20.6455571 L61.3123842,20.8907381 C61.3123842,20.8907381 61.152124,21.2366244 61.4284574,21.258016 L62.8793727,21.2557123 C63.06707,21.2048557 63.220459,21.0698872 63.2945323,20.890409 L63.3987344,20.6817583 L66.4984172,20.6817583 C66.8732903,20.6922719 67.2097211,20.453475 67.3228009,20.096615 L67.7752227,19.2685943 C67.7752227,19.2685943 68.2039022,18.5294311 66.8954404,18.4438646 L65.1843496,18.4438646 C65.1843496,18.4438646 64.7691899,18.5119887 64.9584684,18.2003291 C65.0740047,18.0646443 65.248823,17.9940682 65.4263886,18.0114245 L68.015613,18.0114245 L68.015613,18.0078044 C68.2110401,18.0174062 68.397182,17.9239569 68.5059564,17.7616361 L68.8789076,17.1136342 L69.3418815,17.1133051 Z" id="Path_83" fill="#D9000D"></path>
                    <path d="M77.8976653,16.1286319 L77.7186092,16.4175835 L73.4136775,16.4027739 C73.5897993,16.1561359 73.8732851,16.0081929 74.176727,16.0045604 L77.3539019,16.0045604 C77.9243754,16.0045604 77.8976653,16.1283028 77.8976653,16.1283028 M81.0913278,16.4156088 L80.2596895,16.4261401 L80.6079092,15.8571227 C80.6079092,15.8571227 80.6527557,15.4069111 79.6516241,15.4259991 L72.5526911,15.4259991 C71.9009061,15.4778879 71.3178698,15.8504667 70.9979035,16.4195581 L70.3746694,16.4172543 L69.9974314,17.0971791 L70.6420995,17.0971791 L68.5926816,20.6811001 L71.0800121,20.6811001 L73.0687553,17.1343677 L77.0765792,17.1343677 C77.0765792,17.1343677 77.4561254,17.0984955 77.3347761,17.2890456 L77.225298,17.4628115 L74.295768,17.4628115 C73.9291293,17.5327213 73.6198451,17.7770056 73.4674273,18.1170663 L73.3147514,18.390221 C73.3147514,18.390221 73.0021451,19.0461213 74.0731844,19.0954866 L75.7176651,19.0954866 C75.7176651,19.0954866 76.2693426,19.0461213 76.0803939,19.4413728 L75.8376953,19.8715092 C75.8376953,19.8715092 75.7183246,20.1308416 75.4911244,20.1130701 L75.2154505,20.1130701 C75.2154505,20.1130701 74.9364791,20.1627645 75.0762945,19.8553832 L75.2675516,19.4765867 L72.8408957,19.4765867 L72.4260658,20.2006112 C72.4260658,20.2006112 72.2911966,20.6643159 72.967521,20.6804419 L77.4904198,20.6804419 C77.8669387,20.6920691 78.2055418,20.4531244 78.3200796,20.0949694 L78.7698633,19.2672779 C78.7698633,19.2672779 79.1985428,18.5281147 77.8881025,18.4425482 L76.1776712,18.4425482 C76.1776712,18.4425482 75.7638306,18.5106723 75.9570661,18.1990127 C76.0705707,18.0642575 76.2431003,17.9936601 76.418721,18.0101081 L79.0049775,18.0101081 L79.0082751,18.006488 C79.2118994,18.0114176 79.4032256,17.9095119 79.5124682,17.7379408 L79.8718994,17.1126469 L80.6656161,17.1126469 L81.0913278,16.4156088 Z" id="Path_84" fill="#D9000D"></path>
                    <path d="M87.2560692,26.3367184 L86.3067089,26.3367184 L87.8954612,24.6112365 L87.2560692,26.3367184 Z M85.5011212,23.848378 L81.8738328,27.9907851 L84.7756635,27.9907851 L85.3362444,27.3786554 L86.861684,27.3786554 L86.6364624,28 L89.7249335,28 L90.9499677,23.848378 L85.5011212,23.848378 Z" id="Path_85" fill="#D9000D"></path>
                    <polygon id="Path_86" fill="#D9000D" points="80.1188848 23.848378 77.7285018 27.9907851 81.1355148 27.9907851 83.4767645 23.848378"></polygon>
                    <polygon id="Path_87" fill="#D9000D" points="57.8338147 23.8526563 55.4566218 27.9901269 58.8652836 27.9901269 61.1844398 23.848378"></polygon>
                    <polygon id="Path_88" fill="#D9000D" points="67.06988 23.848378 66.1966927 25.4412318 65.3277923 23.848378 62.2574576 23.848378 59.9993058 27.9950635 62.8071567 27.9950635 63.7914708 26.2972261 64.7807313 27.9950635 67.6166112 27.9950635 69.9980909 23.848378"></polygon>
                    <path d="M74.5856214,25.5330512 L74.2538894,26.2899859 C73.934688,27.1186648 73.4242296,27.0739069 73.4242296,27.0739069 L72.919377,27.0716032 L73.8862142,25.0969911 L74.4418488,25.109826 C74.7683048,25.187165 74.5852916,25.5346968 74.5852916,25.5346968 M77.4307344,23.8539727 L71.1828952,23.8480489 L68.8271363,27.990456 L75.6823814,27.990456 C75.6823814,27.990456 76.7431984,28.0809591 77.2981735,26.8428773 L78.4008692,24.7734838 C78.4008692,24.7734838 79.1381979,23.8519981 77.4330427,23.8519981" id="Path_89" fill="#D9000D"></path>
                    <path d="M36.7319,26.3360602 L35.7858373,26.3360602 L37.3752491,24.6105783 L36.7319,26.3360602 Z M34.9396898,23.8434415 L31.3707679,27.9924307 L34.2772151,27.9924307 L34.8199893,27.377339 L36.3411421,27.377339 L36.119218,27.9924307 L39.1938395,27.9924307 L40.4429457,23.8434415 L34.9396898,23.8434415 Z" id="Path_90" fill="#D9000D"></path>
                    <polygon id="Path_91" fill="#D9000D" points="42.1553555 23.8589093 39.8088298 27.9901269 43.2151832 27.9901269 45.5465404 23.8589093"></polygon>
                    <path d="M50.1205509,25.4728256 L49.9312724,25.7690174 C49.9312724,25.7690174 49.7601304,26.0622473 48.8430859,25.9375176 L49.2605538,25.0953456 L49.9497386,25.0953456 C50.035534,25.1026929 50.1106676,25.1557037 50.1462232,25.2339761 C50.1817787,25.3122485 50.1722141,25.403582 50.1212104,25.4728256 M53.1358168,23.85496 L46.6884767,23.85496 L44.3373343,27.9927598 L47.7245621,27.9927598 L48.4981638,26.5361542 L49.4518109,27.9927598 L52.8370601,27.9927598 L51.8121863,26.8241185 C52.2456391,26.8342797 52.6507485,26.6098454 52.8713545,26.2373296 L53.6080238,24.8761636 C54.0037279,23.9800188 53.1348275,23.8559473 53.1348275,23.8559473" id="Path_92" fill="#D9000D"></path>
                </g>
            </g>
        </g>
    </g>
</svg>