<?xml version="1.0" encoding="UTF-8"?>
<svg width="216px" height="64px" viewBox="0 0 216 64" version="1.1" xmlns="http://www.w3.org/2000/svg" xmlns:xlink="http://www.w3.org/1999/xlink">
    <title>AirNewZealand</title>
    <g id="Taskboard" stroke="none" stroke-width="1" fill="none" fill-rule="evenodd">
        <g id="AirNewZealand">
            <rect id="Rectangle" x="0" y="0" width="216" height="64"></rect>
            <g id="Air_New_Zealand_logo" transform="translate(18.000000, 18.000000)" fill="#231F20" fill-rule="nonzero">
                <path d="M7.91470588,14.0793951 L0,25.4858223 L1.42941176,25.4858223 L3.38823529,22.7069943 L8.07352941,22.7069943 L8.28529412,24.0037807 C8.43670588,25.0306238 8.70458824,25.4858223 9.9,25.4858223 L11.0911765,25.4858223 L9.18529412,14.0793951 L7.91470588,14.0793951 Z M14.7970588,15.0056711 L12.4411765,25.4858223 L14.9823529,25.4858223 L17.3382353,15.0056711 L14.7970588,15.0056711 Z M19.35,15.0056711 L19.8529412,15.905482 L17.7088235,25.4858223 L20.25,25.4858223 L22.3676471,15.9584121 L23.1617647,15.9584121 C24.624,15.9584121 25.2338824,16.8095274 25.1205882,18.0756144 C25.0263529,19.2093762 24.1888235,20.4521739 21.6264706,20.7221172 L23.6911765,24.3478261 C24.2227059,25.2709263 24.4567059,25.4858223 25.8617647,25.4858223 L27.2117647,25.4858223 L24.3794118,21.0396975 C25.8977647,20.8068053 27.5516471,19.8540643 27.7411765,18.1550095 C27.9688235,16.2061248 26.5669412,15.0056711 24.1941176,15.0056711 L19.35,15.0056711 Z M34.7558824,15.0056711 L35.4176471,16.2230624 L33.3529412,25.4858223 L34.6764706,25.4858223 L36.4235294,17.7844991 L40.3676471,24.3478261 C40.8017647,25.0877883 41.1903529,25.4858223 42.4058824,25.4858223 L44.7617647,15.0056711 L43.4382353,15.0056711 L41.7970588,22.2570888 L38.2235294,16.1172023 C37.7089412,15.2300945 37.4452941,15.0056711 36.3441176,15.0056711 L34.7558824,15.0056711 Z M47.1176471,15.0056711 L44.7617647,25.4858223 L52.8617647,25.4858223 C52.7103529,24.7638563 52.3884706,24.4801512 51.4588235,24.4801512 L47.5676471,24.4801512 L48.4411765,20.6162571 L52.4382353,20.6162571 L52.6764706,19.557656 L48.6529412,19.557656 L49.4470588,16.0113422 L53.1529412,16.0113422 C54.0825882,16.0113422 54.4034118,15.7265784 54.5558824,15.0056711 L47.1176471,15.0056711 Z M55.4823529,15.0056711 L57.0970588,25.4858223 L58.3147059,25.4858223 L61.9411765,19.2400756 L62.8147059,25.4858223 L64.0323529,25.4858223 L70.3323529,15.0056711 L68.9823529,15.0056711 L64.6147059,22.3364839 L63.7676471,15.4555766 C63.7305459,15.1327032 63.4563529,15.0056711 63.1323529,15.0056711 L61.3852941,15.0056711 L61.7294118,17.4933837 L58.9764706,22.3364839 L57.9441176,15.4555766 C57.9049835,15.1327032 57.6317647,15.0056711 57.3088235,15.0056711 L55.4823529,15.0056711 Z M75.7323529,15.0056711 C75.8837647,15.7276371 76.2035294,16.0113422 77.1352941,16.0113422 L81.8470588,16.0113422 L74.3823529,23.5274102 C73.7375294,24.1805671 73.3087059,24.6018904 73.2705882,25.4858223 L82.9588235,25.4858223 C82.8074118,24.7691493 82.4971765,24.483327 81.5823529,24.4801512 L81.5559247,24.4801512 L76.6588659,24.4801512 L83.8588659,17.0699433 C84.7683953,16.0960302 84.9738071,15.5995463 85.0500424,15.0056711 L75.7323953,15.0056711 L75.7323529,15.0056711 Z M87.0088235,15.0056711 L84.6794118,25.4858223 L92.7529412,25.4858223 C92.5983529,24.7638563 92.2796471,24.4801512 91.35,24.4801512 L87.4588235,24.4801512 L88.3323529,20.6162571 L92.3294118,20.6162571 L92.5676471,19.557656 L88.5441176,19.557656 L89.3382353,16.0113422 L93.0441176,16.0113422 C93.9748235,16.0113422 94.2956471,15.7276371 94.4470588,15.0056711 L87.0088235,15.0056711 Z M100.482353,15.0056711 L93.3882353,25.4858223 L94.8176471,25.4858223 L96.6970588,22.7069943 L100.958824,22.7069943 L101.223529,24.0037807 C101.453294,25.0189792 101.694706,25.4858223 102.891176,25.4858223 L104.108824,25.4858223 L101.752941,15.0056711 L100.482353,15.0056711 Z M107.814706,15.0056711 L105.458824,25.4858223 L112.5,25.4858223 C112.348588,24.7649149 112.000235,24.4801512 111.070588,24.4801512 L108.238235,24.4801512 L110.355882,15.0056711 L107.814706,15.0056711 Z M120.202941,15.0056711 L113.135294,25.4858223 L114.538235,25.4858223 L116.417647,22.7069943 L120.679412,22.7069943 L120.970588,24.0037807 C121.197176,25.0189792 121.441765,25.4858223 122.638235,25.4858223 L123.855882,25.4858223 L121.473529,15.0056711 L120.202941,15.0056711 Z M126.608824,15.0056711 L127.297059,16.2230624 L125.205882,25.4858223 L126.555882,25.4858223 L128.276471,17.7844991 L132.220588,24.3478261 C132.66,25.0877883 133.068706,25.4858223 134.285294,25.4858223 L136.614706,15.0056711 L135.291176,15.0056711 L133.676471,22.2570888 L130.076471,16.1172023 C129.565059,15.2300945 129.298235,15.0056711 128.197059,15.0056711 L126.608824,15.0056711 Z M138.652941,15.0056711 L139.129412,15.905482 L136.985294,25.4858223 L140.85,25.4858223 C144.304941,25.4858223 147.526941,23.5676371 148.076471,20.2457467 C148.626,16.961966 146.260588,15.0056711 142.914706,15.0056711 L140.082353,15.0056711 L139.341176,15.0056711 L138.652941,15.0056711 Z M141.670588,15.9848771 L142.358824,15.9848771 C144.767647,15.9848771 145.873059,17.5727788 145.455882,20.2457467 C145.035529,22.9525898 142.861765,24.5330813 140.452941,24.5330813 L139.738235,24.5330813 L141.670588,15.9848771 Z M7.22647059,17.2551985 L7.91470588,21.6219282 L4.15588235,21.6219282 L7.22647059,17.2551985 Z M99.8735294,17.9432892 L100.694118,21.6219282 L97.4117647,21.6219282 L99.8735294,17.9432892 Z M119.620588,17.9432892 L120.441176,21.6219282 L117.158824,21.6219282 L119.620588,17.9432892 Z" id="AirNewZealand"></path>
                <path d="M169.2,0 C166.025647,0 163.087412,2.25482042 161.417647,3.89035917 C155.477647,9.68302457 152.338235,13.6030246 152.338235,13.6030246 L178.808824,13.6030246 L180,10.9565217 L158.638235,10.9565217 C158.638235,10.9565217 160.250824,8.74827977 163.720588,5.47826087 C164.592,4.663138 166.873765,2.62003781 169.2,2.62003781 C170.727882,2.62003781 171.926471,3.57489603 171.926471,4.86956522 C171.926471,6.15047259 170.841176,6.51039698 170.841176,6.51039698 C170.954471,5.96310019 170.587059,4.47258979 169.147059,4.47258979 C167.654118,4.47258979 167.029412,5.61164461 167.029412,6.37807183 C167.029412,7.95327032 168.463059,9.07750473 170.126471,9.07750473 C173.325176,9.07750473 174.811765,6.80362949 174.811765,4.60491493 C174.811765,2.38608696 172.648588,0 169.2,0 Z M151.888235,14.979206 C151.888235,14.979206 153.277412,18.9733081 155.117647,22.7863894 C156.677294,26.0352363 159.264,28 162.423529,28 C165.392471,28 167.4,25.7420038 167.4,23.5803403 C167.4,21.133913 165.538588,19.5311909 163.323529,19.5311909 C160.961294,19.5311909 160.464706,21.306465 160.464706,21.7542533 C160.464706,22.7863894 161.328706,23.7391304 162.423529,23.7391304 C164.147294,23.7391304 164.276471,22.362949 164.276471,22.362949 C164.276471,22.362949 164.805882,22.7017013 164.805882,23.5803403 C164.805882,24.425104 164.090118,25.5122873 162.423529,25.5122873 C161.093647,25.5122873 159.139059,24.8114934 157.791176,21.9659735 C156.206118,18.6345558 156.097059,17.6521739 156.097059,17.6521739 L176.982353,17.6521739 L178.173529,14.979206 L151.888235,14.979206 Z" id="koru"></path>
            </g>
        </g>
    </g>
</svg>