<?xml version="1.0" encoding="UTF-8"?>
<svg width="202px" height="64px" viewBox="0 0 202 64" version="1.1" xmlns="http://www.w3.org/2000/svg" xmlns:xlink="http://www.w3.org/1999/xlink">
    <title>Akasa</title>
    <g id="Taskboard" stroke="none" stroke-width="1" fill="none" fill-rule="evenodd">
        <g id="Akasa">
            <rect id="Rectangle" x="0" y="0" width="202" height="64"></rect>
            <g id="akasa" transform="translate(18.000000, 18.000000)" fill-rule="nonzero">
                <path d="M119.031572,23.9915578 C119.022694,24.0487846 119.0276,24.1071792 119.045589,24.1620702 C119.063579,24.2169611 119.094184,24.266947 119.135068,24.3078232 C119.175953,24.3486995 119.225949,24.3795318 119.281085,24.3975174 C119.335987,24.4155029 119.394393,24.4204081 119.451632,24.4115321 L122.598575,24.4115321 L122.598575,10.4115555 L121.640475,10.4115555 C121.015058,10.382545 120.402957,10.5964329 119.931733,11.0084188 C119.460509,11.4204281 119.167075,11.9986519 119.11264,12.6220732 C118.191219,10.9347248 116.392999,10.1241837 114.263029,10.1241837 C110.614957,10.1241837 107.416616,13.0715485 107.416616,17.639972 C107.416616,22.0168143 109.715964,24.7726446 113.813533,24.7726446 C116.761427,24.7726446 117.992403,23.4241954 117.992403,22.1052238 C118.009925,21.837753 117.96577,21.569815 117.863675,21.3220114 C117.761347,21.0742079 117.603649,20.8531258 117.402731,20.6757462 C117.051591,20.9959591 116.639708,21.2424546 116.191613,21.4006574 C115.743518,21.5588835 115.268089,21.6255702 114.793828,21.5967933 C112.943976,21.5967933 111.285698,20.5578591 111.285698,17.639972 C111.285698,14.8694496 113.194423,13.4915461 115.184451,13.4915461 C117.741722,13.4915461 119.031572,15.1494402 119.031572,17.5589202 L119.031572,23.9915578 Z M141.421364,7.18420008 L148.054243,24.4115321 L144.265996,24.4115321 C144.129091,24.4246125 143.99242,24.3856049 143.883083,24.3024509 C143.773746,24.2190633 143.69992,24.0976025 143.676324,23.9621269 L138.429081,9.62313429 L135.621129,17.2568097 L137.448786,17.2568097 C139.129259,17.2568097 139.777805,17.8978661 140.168428,18.9368003 L140.647361,20.2041744 C140.757866,20.484165 140.647361,20.6757462 140.360001,20.6757462 L134.36095,20.6757462 L133.012226,24.4115321 L129.533533,24.4115321 C129.473725,24.4194738 129.412748,24.4108314 129.357379,24.3865392 C129.30201,24.3624806 129.25435,24.3237066 129.21954,24.2744215 C129.184729,24.2251364 129.163937,24.1672089 129.159498,24.1069456 C129.155059,24.0466823 129.167207,23.9864191 129.194542,23.932696 L135.400119,7.72208486 C136.041189,6.0420942 136.874066,5.51156715 138.348013,5.51156715 L141.428607,5.51156715 C141.657093,5.51156715 141.738161,5.62945426 141.738161,5.76946127 C141.738161,6.07892954 141.288665,6.15998131 141.288665,6.63893421 C141.30385,6.82654454 141.348473,7.01058111 141.421364,7.18420008 Z M87.9966786,23.9915578 C87.9880344,24.0487846 87.9929406,24.1071792 88.0109298,24.1620702 C88.028919,24.2169611 88.059524,24.266947 88.1004086,24.3078232 C88.1412931,24.3486995 88.1912891,24.3795318 88.2461913,24.3975174 C88.301327,24.4155029 88.3597336,24.4204081 88.416972,24.4115321 L91.5564397,24.4115321 L91.5564397,10.4115555 L90.605815,10.4115555 C89.9803979,10.382545 89.3682975,10.5964329 88.8970736,11.0084188 C88.4258497,11.4204281 88.1324153,11.9986519 88.0777468,12.6220732 C87.1565591,10.9347248 85.3583388,10.1241837 83.2283695,10.1241837 C79.5436184,10.1241837 76.3817226,13.0715485 76.3817226,17.639972 C76.3817226,22.0168143 78.6813044,24.7726446 82.7788729,24.7726446 C85.7267672,24.7726446 86.9577432,23.4241954 86.9577432,22.1052238 C86.9752652,21.837753 86.9311099,21.569815 86.8290152,21.3220114 C86.726687,21.0742079 86.5689894,20.8531258 86.3680709,20.6757462 C86.0169309,20.9959591 85.605048,21.2424546 85.1569531,21.4006574 C84.7088582,21.5588835 84.2334291,21.6255702 83.7591681,21.5967933 C81.9093165,21.5967933 80.2510383,20.5578591 80.2510383,17.639972 C80.2510383,14.8694496 82.1597637,13.4915461 84.1497909,13.4915461 C86.7070624,13.4915461 87.9966786,15.1494402 87.9966786,17.5589202 L87.9966786,23.9915578 Z M71.4881899,10.8831273 C71.5867801,10.7080134 71.7358336,10.5666049 71.9159593,10.4772611 C72.0958514,10.3879173 72.2986389,10.3547492 72.497922,10.3820778 L76.5660536,10.3820778 L70.5595261,17.087325 L76.7059956,24.4115321 L72.5348349,24.4115321 C72.334851,24.4372258 72.1320635,24.4024225 71.9519378,24.3117941 C71.7720457,24.2211656 71.6234594,24.0789162 71.5251028,23.9030315 L66.9189303,18.2662896 L66.9189303,24.4115321 L63.7792289,24.4115321 C63.7219906,24.4204081 63.663584,24.4155029 63.6086819,24.3975174 C63.5537797,24.3795318 63.5037838,24.3486995 63.4628992,24.3078232 C63.4220146,24.266947 63.391176,24.2169611 63.3731868,24.1620702 C63.3551975,24.1071792 63.350525,24.0487846 63.3591692,23.9915578 L63.3591692,7.26525185 C63.3631408,6.57465339 63.6390533,5.91343911 64.1275655,5.42509635 C64.6160777,4.93675359 65.2774732,4.66068705 65.968072,4.65683301 L66.9189303,4.65683301 L66.9189303,16.0483908 L71.4881899,10.8831273 Z M54.6554282,7.19893889 L61.2883073,24.4262476 L57.5222543,24.4262476 C57.3853494,24.439328 57.2486781,24.4005539 57.1393411,24.3171664 C57.0300041,24.2337788 56.9561782,24.1123179 56.932582,23.9768424 L51.6853394,9.62313429 L48.8773871,17.2568097 L50.7050442,17.2568097 C52.3852832,17.2568097 53.034063,17.8978661 53.4244522,18.9368003 L53.9036194,20.2041744 C54.0141245,20.484165 53.9036194,20.6757462 53.6235017,20.6757462 L47.6169742,20.6757462 L46.2684843,24.4115321 L42.7897914,24.4115321 C42.7299831,24.4194738 42.6690067,24.4108314 42.6136373,24.3865392 C42.5582679,24.3624806 42.5106082,24.3237066 42.4757979,24.2744215 C42.440754,24.2251364 42.4199612,24.1672089 42.415756,24.1069456 C42.4113171,24.0466823 42.4234656,23.9864191 42.4507999,23.932696 L48.6561432,7.72208486 C49.2974469,6.0420942 50.1300903,5.51156715 51.6042711,5.51156715 L54.6921075,5.51156715 C54.9133515,5.51156715 54.9944197,5.62945426 54.9944197,5.76946127 C54.9944197,6.07892954 54.5521655,6.15998131 54.5521655,6.63893421 C54.5570716,6.82572701 54.5944518,7.0102541 54.6626706,7.18420008 L54.6554282,7.19893889 Z M156.684392,13.0052355 L156.684392,23.9915578 C156.675514,24.0487846 156.680421,24.1071792 156.69841,24.1620702 C156.716399,24.2169611 156.747004,24.266947 156.788122,24.3078232 C156.829007,24.3486995 156.878769,24.3795318 156.933905,24.3975174 C156.988807,24.4155029 157.047214,24.4204081 157.104452,24.4115321 L160.24392,24.4115321 L160.24392,17.4262709 C160.212847,16.9323223 160.283169,16.4371824 160.450912,15.9715201 C160.61889,15.5058812 160.880317,15.0796002 161.219542,14.7190717 C161.558768,14.3585431 161.968314,14.0714283 162.422951,13.8755026 C162.877587,13.6795769 163.367501,13.5789746 163.862555,13.579979 C164.407371,13.551786 164.951953,13.6370889 165.461959,13.830492 C165.777121,13.211789 165.960284,12.5342943 166,11.8410331 C166,11.0010378 165.55027,10.2126166 164.032167,10.2126166 C162.513831,10.2126166 161.084273,11.170499 160.24392,13.1599813 L160.24392,10.3820778 L159.293295,10.3820778 C158.945659,10.3616164 158.597556,10.4151292 158.272349,10.539066 C157.946908,10.6630262 157.651371,10.854584 157.405596,11.1011262 C157.159588,11.347645 156.968949,11.643519 156.845828,11.969221 C156.722707,12.294923 156.670141,12.6430018 156.691635,12.9904967 L156.684392,13.0052355 Z M150.117629,13.0052355 C150.121601,12.314637 150.397747,11.6534228 150.886259,11.16508 C151.374538,10.6767372 152.035933,10.4006941 152.726766,10.3968167 L153.67739,10.3968167 L153.67739,24.3968167 L150.537923,24.3968167 C150.480684,24.4054591 150.422278,24.4007875 150.367142,24.3828019 C150.31224,24.3648164 150.262244,24.333984 150.221359,24.2931078 C150.180475,24.2522315 150.14987,24.2022457 150.131881,24.1473547 C150.113891,24.0924638 150.108985,24.0340691 150.117629,23.9768424 L150.117629,13.0052355 Z M93.5978647,21.9136427 C93.5978647,23.7631179 96.8553137,24.7210237 99.493887,24.7210237 C102.942909,24.7210237 105.780299,23.0925839 105.780299,20.1746968 C105.780299,18.0157532 104.689732,16.7483791 102.051158,16.107346 L99.1032642,15.370499 C98.3661738,15.1715601 97.9241531,14.8620685 97.9241531,14.1620802 C97.9241531,13.4620685 98.624097,13.0641907 99.9728206,13.0641907 C101.549563,13.0837646 103.086356,13.5626241 104.394896,14.4420708 C104.914013,13.9431703 105.242491,13.2785458 105.32356,12.5631413 C105.32356,10.9936567 102.744094,10.0652518 99.9064707,10.0652518 C96.8775081,10.0652518 94.0989927,11.583139 94.0989927,14.4862873 C94.0989927,16.696805 95.1972691,18.0452308 97.6662299,18.6052355 L100.695193,19.3420592 C101.476438,19.5041627 101.925935,19.843132 101.925935,20.4915461 C101.925935,21.3020638 101.255194,21.7220615 99.6265867,21.7220615 C97.7781368,21.6599763 95.987159,21.0664531 94.4676547,20.0125932 C93.9436314,20.5107229 93.6322078,21.1916512 93.5978647,21.9136427 Z M151.94552,3.89788945 C151.359119,3.89788945 150.79678,4.13076731 150.382094,4.54532259 C149.967408,4.95987787 149.734483,5.52214826 149.734483,6.10840716 C149.734483,6.69466607 149.967408,7.25693645 150.382094,7.67149173 C150.79678,8.08602366 151.359119,8.31892487 151.94552,8.31892487 C152.241291,8.32780086 152.535893,8.27718438 152.812039,8.17008859 C153.087952,8.06296945 153.339567,7.90156664 153.551933,7.69541018 C153.764299,7.48925372 153.933211,7.24254801 154.048389,6.96993844 C154.163566,6.69732886 154.222907,6.40435124 154.222675,6.10840716 C154.222907,5.81243973 154.163566,5.51948546 154.048389,5.24687589 C153.933211,4.97426631 153.764299,4.72756061 153.551933,4.52140414 C153.339567,4.31524768 153.087952,4.15382151 152.812039,4.04672573 C152.535893,3.93962994 152.241291,3.88901346 151.94552,3.89788945 Z" id="Shape" fill="#5C0FD9"></path>
                <path d="M0.110635283,27.3221549 L10.4285091,9.82209653 C10.5980049,9.54208252 10.7085568,9.42419541 10.8780759,9.42419541 C11.0475716,9.42419541 11.1655061,9.57156014 11.3055182,9.79261892 C12.5829391,11.9449756 13.2599175,14.4003771 13.2659217,16.9031249 C13.2659217,23.4683418 8.10698978,28 0.678118494,28 C0.538090008,28 0,28 0,27.6610775 C-0.00209185989,27.5389159 0.0368395681,27.4195572 0.110635283,27.3221549 Z" id="Path" fill="#FF6300"></path>
                <path d="M23.7532345,11.126306 L32.7887246,27.2630595 C33.0172109,27.6610775 32.8772689,28 32.309791,28 C25.676912,28 22.5962245,25.5093515 20.1051861,21.0589085 L13.140628,8.60629661 C12.8053278,8.10949831 12.6093622,7.53190517 12.5731502,6.93366368 C12.6445463,6.19564876 12.8977503,5.48680781 13.3101471,4.8705107 L14.1871562,3.31578824 C15.4326637,1.01684002 16.7887465,0 19.987275,0 L22.2572097,0 C22.5962245,0 22.6257082,0.257894122 22.4561891,0.449472947 C21.6692896,1.39302534 21.2643921,2.5970202 21.3212334,3.82419541 C21.3212334,5.51894823 21.9476784,7.86947295 23.7532345,11.126306 Z" id="Path" fill="#FF6300"></path>
            </g>
        </g>
    </g>
</svg>