<?xml version="1.0" encoding="UTF-8"?>
<svg width="149px" height="64px" viewBox="0 0 149 64" version="1.1" xmlns="http://www.w3.org/2000/svg" xmlns:xlink="http://www.w3.org/1999/xlink">
    <title>AllianceAirlines</title>
    <g id="Taskboard" stroke="none" stroke-width="1" fill="none" fill-rule="evenodd">
        <g id="AllianceAirlines">
            <rect id="Rectangle" x="0" y="0" width="149" height="64"></rect>
            <g id="Alliance_Airlines_logo" transform="translate(18.000000, 18.000000)">
                <polygon id="Path" fill="#FFC627" fill-rule="nonzero" points="50.0646509 0.0191912269 44.5596566 0.0191912269 44.3864225 0.729266621 45.9840258 0.729266621 44.0207061 2.13022618 43.347018 4.81699794"></polygon>
                <polygon id="Path" fill="#0D2240" fill-rule="nonzero" points="29.3535535 0 34.8392996 0 29.9887451 19.3255655 24.5029991 19.3255655"></polygon>
                <polygon id="Path" fill="#0D2240" fill-rule="nonzero" points="36.9758533 0 42.4615994 0 37.6110449 19.3255655 32.1252989 19.3255655"></polygon>
                <polygon id="Path" fill="#0D2240" fill-rule="nonzero" points="43.3277698 4.89376285 48.8520123 4.89376285 45.252593 19.3255655 39.7475987 19.3255655"></polygon>
                <path d="M96.8955989,9.55723098 C96.241159,9.26936258 95.6059674,9.05825908 94.9707757,8.92392049 C94.3548323,8.78958191 93.7966336,8.73200822 93.2961795,8.73200822 C92.0642927,8.73200822 91.0441364,9.07745031 90.2742071,9.76833448 C88.0029158,11.6682659 88.6766039,13.8560658 89.2348026,14.5277587 C89.7352567,15.2570254 91.1981223,16.1206306 93.7773853,15.314599 C94.3548323,15.141878 94.9707757,14.9115833 95.6059674,14.6237149 L93.7966336,19.0952707 C91.8525622,19.7861549 89.7737531,19.7861549 89.5042779,19.7861549 C87.4639653,19.7861549 85.7893691,19.1720356 84.4612411,17.9629883 C83.1331131,16.7539411 82.8251414,14.7004798 83.5565742,11.8217958 C84.0570283,9.82590816 85.0579363,8.09869774 86.5592984,6.65935572 C88.0606605,5.20082248 90.2164624,4.47155586 93.0459525,4.47155586 C93.7196406,4.47155586 94.4318252,4.52912954 95.1825063,4.62508568 C95.9524355,4.70185058 96.7608613,4.8553804 97.5885352,5.06648389 L96.8955989,9.55723098 L96.8955989,9.55723098 Z" id="Path" fill="#0D2240" fill-rule="nonzero"></path>
                <path d="M72.1038763,7.04318026 C72.6813233,6.39067855 73.5089972,5.83413297 74.5868982,5.37354352 C75.645551,4.89376285 77.7051118,4.3564085 79.052488,4.37559973 C80.3421195,4.37559973 81.4392687,4.70185058 82.3246874,5.37354352 C83.2101061,6.02604524 83.4795813,7.11994517 83.1331131,8.65524332 L80.4576089,19.3063742 L74.9526146,19.3063742 L76.8389413,11.7834133 C77.0506719,10.9006169 76.9929272,10.2289239 76.6272108,9.74914325 C76.2807426,9.26936258 75.068104,8.13708019 72.6813233,10.1905415 C72.0076352,10.8046607 71.4879329,11.6682659 71.1414647,12.8005483 L69.505365,19.3255655 L64.0003707,19.3255655 L67.5805419,5.04729267 L72.5850821,5.04729267 L72.1038763,7.04318026 L72.1038763,7.04318026 Z" id="Path" fill="#0D2240" fill-rule="nonzero"></path>
                <path d="M52.0472188,5.69979438 C53.5293326,5.37354352 54.8574606,5.12405757 56.0316028,4.97052776 C57.2249931,4.79780672 58.2643977,4.72104181 59.1690646,4.72104181 C61.363363,4.72104181 62.8839733,5.10486635 63.692399,5.85332419 C64.5008248,6.60178204 64.8280447,7.46538725 64.6355624,8.44413982 L61.9023135,19.3063742 L56.3780709,19.3063742 L57.956426,12.9732694 C57.6869507,13.1459904 57.3982272,13.280329 57.0902555,13.4146676 C56.7822838,13.5106237 54.6457301,14.1631254 54.222269,14.3166552 C52.5091764,15.141878 53.0866233,16.0630569 53.3176021,16.3317341 C54.0490349,17.0610007 55.9353616,16.3893077 55.9738581,16.3893077 L54.5302407,19.5174777 C54.4339995,19.5174777 52.643914,19.6518163 52.4514317,19.6518163 C50.3726226,19.6518163 48.9675017,19.2679918 48.2360689,18.5195339 C46.580721,17.0610007 46.8501962,12.6662097 52.2589493,11.2844414 C52.9326375,11.0925291 53.5870773,10.9198081 54.2415172,10.7854695 C54.8767089,10.6319397 55.473404,10.4976011 56.0123545,10.3440713 C56.7052909,10.1713502 57.2827378,9.9986292 57.7446954,9.80671693 C59.1498163,9.11583276 58.9765822,7.9259767 56.5128086,7.9259767 C55.9353616,7.9259767 55.1654323,8.02193283 54.2030207,8.23303633 C53.2598574,8.42494859 52.066467,8.78958191 50.6613461,9.32693626 L52.0472188,5.69979438 L52.0472188,5.69979438 Z" id="Path" fill="#0D2240" fill-rule="nonzero"></path>
                <path d="M64.2313495,27.9040439 C64.9242859,25.4475668 65.4247399,23.854695 65.9829386,22.2426319 L64.6355624,22.2426319 C64.019619,24.5071967 63.4614202,26.1960247 62.8839733,27.9040439 L64.2313495,27.9040439 L64.2313495,27.9040439 Z" id="Path" fill="#0D2240" fill-rule="nonzero"></path>
                <path d="M71.5071811,25.3132282 C72.4503445,25.1405072 73.2587702,24.6415353 73.5282455,23.6435915 C73.816969,22.588074 73.0470397,22.2426319 72.0653799,22.2426319 L69.505365,22.2426319 C68.9856628,24.1425634 68.4274641,26.0233036 67.7345277,27.9040439 L69.0241592,27.9040439 C69.255138,27.0596299 70.2175496,23.854695 70.4485284,23.1062371 C70.7565001,23.0870459 71.0644718,23.0678547 71.3724435,23.0678547 C71.8921458,23.0678547 72.4695927,23.1446196 72.2963586,23.8163125 C72.1038763,24.5455792 71.41094,24.8334476 70.7565001,24.8334476 C70.583266,24.8334476 70.4292802,24.8142563 70.2560461,24.7758739 C70.4870249,25.8122001 70.7565001,26.8293352 70.8719895,27.9040439 L72.2386139,27.9040439 L71.5071811,25.3132282 L71.5071811,25.3132282 Z" id="Path" fill="#0D2240" fill-rule="nonzero"></path>
                <path d="M79.6684314,26.982865 C79.1294809,27.0020562 78.5712822,27.0020562 78.0323317,27.0020562 L76.9929272,27.0020562 C77.3201471,25.9081563 78.3403034,22.7416038 78.5135375,22.2426319 L77.1854095,22.2426319 C76.646459,24.1425634 76.0690121,26.0233036 75.3760757,27.9040439 L79.3604597,27.9040439 L79.6684314,26.982865 L79.6684314,26.982865 Z" id="Path" fill="#0D2240" fill-rule="nonzero"></path>
                <path d="M83.537326,27.9040439 C84.2302624,25.4475668 84.7307164,23.854695 85.2889151,22.2426319 L83.9607871,22.2426319 C83.3448437,24.5071967 82.786645,26.1960247 82.209198,27.9040439 L83.537326,27.9040439 L83.537326,27.9040439 Z" id="Path" fill="#0D2240" fill-rule="nonzero"></path>
                <path d="M91.0248882,27.9040439 L92.5262503,27.9040439 C93.0652008,26.0233036 93.6811442,24.0849897 94.3355841,22.2426319 L93.1614419,22.2426319 C92.757229,23.6627827 92.2760233,25.1980809 91.8525622,26.5222755 L91.8333139,26.5222755 C91.3906046,25.0829335 90.8131576,23.7011652 90.3704483,22.2426319 L88.8113415,22.2426319 C88.272391,24.1425634 87.6949441,26.0233036 87.021256,27.9040439 L88.2146463,27.9040439 C88.6381074,26.4263194 89.1385615,24.8334476 89.4657814,23.681974 L89.5042779,23.681974 L91.0248882,27.9040439 L91.0248882,27.9040439 Z" id="Path" fill="#0D2240" fill-rule="nonzero"></path>
                <path d="M97.8580105,22.2426319 C97.5500388,23.3941056 96.5491307,26.7525703 96.0679249,27.9040439 L100.225543,27.9040439 L100.533515,26.9444825 C99.8020819,27.0020562 99.5326066,27.0020562 99.3208761,27.0020562 L97.6462799,27.0020562 L98.1274857,25.4475668 L100.629756,25.4475668 L100.918479,24.5839616 C100.456522,24.5839616 100.090805,24.6223441 99.7828337,24.6223441 L98.4162092,24.6223441 L98.8781668,23.1446196 L100.264039,23.1446196 C100.745245,23.1446196 101.226451,23.1446196 101.707657,23.1830021 L101.99638,22.2426319 L97.8580105,22.2426319 L97.8580105,22.2426319 Z" id="Path" fill="#0D2240" fill-rule="nonzero"></path>
                <path d="M108.502283,22.3002056 C108.078822,22.2042495 107.65536,22.1466758 107.193403,22.1466758 C106.192495,22.1466758 105.114594,22.588074 104.845119,23.5860178 C104.479402,24.9869774 106.500467,25.5819054 106.269488,26.4647019 C106.13475,26.9444825 105.576551,27.0980123 105.172339,27.0980123 C104.652636,27.0980123 104.190679,26.9444825 103.767218,26.733379 L103.574735,27.7697053 C104.075189,27.8848526 104.575643,28 105.114594,28 C106.692949,28 107.366637,27.0980123 107.539871,26.4647019 C107.905587,25.121316 105.865275,24.5455792 106.096254,23.6627827 C106.192495,23.2981494 106.654452,23.0294722 107.193403,23.0294722 C107.597616,23.0294722 107.963332,23.1446196 108.3098,23.2789582 L108.502283,22.3002056 L108.502283,22.3002056 Z" id="Path" fill="#0D2240" fill-rule="nonzero"></path>
                <path d="M12.453606,9.76833448 L16.9769404,9.76833448 L16.3225006,4.29883482 L12.453606,9.76833448 L12.453606,9.76833448 Z M13.781734,0 L23.5983322,0 L21.4810267,2.30294722 L24.2335238,19.3447567 L17.8238626,19.3447567 L17.188671,13.702536 L10.3940452,13.702536 L6.37116473,19.3447567 L0,19.3447567 L13.781734,0 L13.781734,0 Z" id="Shape" fill="#0D2240"></path>
                <path d="M57.2057449,25.0253598 L58.6493623,23.1254284 L58.8033482,25.0253598 L57.2057449,25.0253598 L57.2057449,25.0253598 Z M58.7840999,25.9273475 C58.8610928,26.560658 58.9188375,27.2323509 58.9188375,27.9040439 L60.285462,27.9040439 C60.0737314,26.0233036 59.8620009,24.1233722 59.7465115,22.2426319 L58.206653,22.2426319 C56.7437873,24.1425634 55.2424253,26.0424949 53.721815,27.9040439 L55.1269359,27.9040439 C55.6081417,27.2323509 56.1085957,26.560658 56.6090497,25.9273475 L58.7840999,25.9273475 L58.7840999,25.9273475 Z" id="Shape" fill="#0D2240"></path>
                <path d="M107.616864,10.2864976 C107.847843,9.38450994 107.751602,8.712817 107.347389,8.34818369 C106.962424,7.96435915 106.423474,7.79163811 105.769034,7.79163811 C105.191587,7.79163811 104.594892,8.0027416 103.998196,8.44413982 C103.401501,8.88553804 103.016537,9.4996573 102.804806,10.2864976 L107.616864,10.2864976 L107.616864,10.2864976 Z M107.020169,4.50993831 C109.098978,4.43317341 111.274028,5.23920493 112.140198,6.6401645 C113.006369,8.02193283 113.218099,9.57642221 112.77539,11.3420151 C112.698397,11.6106923 112.313433,12.7429746 112.197943,13.030843 L101.861643,12.9924606 C101.900139,13.9904044 102.227359,14.7772447 102.843303,15.314599 C103.459246,15.8327622 104.363913,16.1014393 105.499558,16.1014393 C106.173247,16.1014393 106.923928,16.0054832 107.77085,15.8135709 C108.63702,15.6216587 109.560935,15.3721727 110.542595,15.0651131 L109.060481,19.114462 C108.040325,19.3639479 107.058665,19.5558602 106.153998,19.6710075 C105.249331,19.8245374 104.421658,19.882111 103.651728,19.882111 C100.668252,19.882111 98.647188,19.0952707 97.5500388,17.5023989 C96.2796555,15.7176148 94.9515275,11.3995888 100.090805,6.88965045 C102.689317,4.6442769 105.076097,4.58670322 107.020169,4.50993831 L107.020169,4.50993831 Z" id="Shape" fill="#0D2240"></path>
            </g>
        </g>
    </g>
</svg>