<?xml version="1.0" encoding="UTF-8"?>
<svg width="145px" height="64px" viewBox="0 0 145 64" version="1.1" xmlns="http://www.w3.org/2000/svg" xmlns:xlink="http://www.w3.org/1999/xlink">
    <title>ANA</title>
    <g id="Taskboard" stroke="none" stroke-width="1" fill="none" fill-rule="evenodd">
        <g id="ANA">
            <rect id="Rectangle" x="0" y="0" width="145" height="64"></rect>
            <g id="logo_ana_tagline" transform="translate(18.000000, 18.000000)" fill-rule="nonzero">
                <g id="グループ_91">
                    <g id="グループ_89" transform="translate(70.542439, 0.000000)">
                        <polygon id="パス_173" fill="#00A7EA" points="33.9060866 0 17.863648 27.8848889 22.3005228 27.8848889 38.4575614 0"></polygon>
                        <polygon id="パス_174" fill="#0B318F" points="17.863648 27.8848889 33.899892 0 16.0439873 0 0 27.8848889"></polygon>
                    </g>
                    <g id="グループ_90" transform="translate(0.000000, 3.655556)" fill="#0B318F">
                        <path d="M31.0612213,5.60155556 C31.0777123,5.35616571 31.2722236,5.16078676 31.5165236,5.14422222 C31.7441748,5.14422222 31.971826,5.25933333 31.971826,5.48644444 L37.0901057,24.1173333 L45.3939532,24.1173333 L49.7193254,0.00622222222 L46.0722607,0.00622222222 L42.7798363,18.7444444 C42.7640072,18.9901357 42.5691342,19.185878 42.324534,19.2017778 C42.0968828,19.2017778 41.8692316,19.0882222 41.8692316,18.8595556 L36.7509519,0.00155555555 L28.4455558,0.00155555555 L24.2363321,24.2293333 L27.8772022,24.2293333 L31.0612213,5.60155556 Z" id="パス_175"></path>
                        <path d="M16.7253921,16.002 L16.0424386,5.14422222 C16.0445384,4.86979071 15.8554228,4.63120713 15.5886849,4.57177778 C15.3594851,4.452 15.02188,4.68688889 14.9041828,4.91866667 L4.09617243,24.2371111 L0,24.2371111 L13.6528757,0.00155555555 L21.7321692,0.00155555555 L23.3241788,24.2293333 L17.4083456,24.2293333 L17.1806945,21.602 C17.1806945,21.0332694 16.7216947,20.5722222 16.1554899,20.5722222 L7.17333485,20.5722222 L9.22529268,16.9151111 L16.0470846,16.9151111 C16.3846897,17.0302222 16.839992,16.5744444 16.7253921,16.002 Z" id="パス_176"></path>
                        <path d="M62.2401398,16.1186667 L61.3264378,5.37288889 C61.290144,5.09151808 61.0375745,4.89021569 60.7565356,4.91866667 C60.578265,4.92227264 60.4110676,5.00624425 60.3012332,5.14733333 L50.5246221,24.3444444 L46.3076551,24.3444444 L58.8238236,0 L66.7869686,0 L68.955075,24.2277778 L62.9215447,24.2277778 L62.6938935,21.6004444 C62.6938935,21.0317139 62.2348938,20.5706667 61.6686889,20.5706667 L53.2471442,20.5706667 L55.0683536,16.9135556 L61.3264378,16.9135556 C61.558716,16.9633678 61.8008049,16.9008326 61.9803411,16.7446423 C62.1598773,16.5884521 62.2560603,16.3567026 62.2401398,16.1186667 Z" id="パス_177"></path>
                    </g>
                </g>
            </g>
        </g>
    </g>
</svg>