<?xml version="1.0" encoding="UTF-8"?>
<svg width="141px" height="64px" viewBox="0 0 141 64" version="1.1" xmlns="http://www.w3.org/2000/svg" xmlns:xlink="http://www.w3.org/1999/xlink">
    <title>Azul</title>
    <g id="Taskboard" stroke="none" stroke-width="1" fill="none" fill-rule="evenodd">
        <g id="Azul">
            <rect id="Rectangle" x="0" y="0" width="141" height="64"></rect>
            <g id="azul-logo-color" transform="translate(18.000000, 18.000000)" fill-rule="nonzero">
                <path d="M61.518625,9.37970688 L55.586125,9.37970688 L55.586125,19.0744039 C55.586125,22.2829287 53.63225,23.1202775 52.339875,23.1202775 C50.456875,23.1202775 49.408625,22.2829287 49.408625,19.8758789 L49.408625,9.37970688 L43.476125,9.37970688 L43.476125,20.2591169 C43.476125,25.0014687 44.977625,28 50.178625,28 C52.269875,28 54.574625,26.8511609 55.691125,25.0040936 L55.761125,25.0040936 L55.761125,27.4802662 L61.518625,27.4802662 L61.518625,9.37970688 Z" id="Path" fill="#18B4E9"></path>
                <path d="M62.9125,27.4758914 L68.845,27.4758914 L68.845,2.58116934 L62.9125,2.58116934 L62.9125,27.4741414 L62.9125,27.4758914 Z M25.64625,27.4758914 L42.88375,27.4758914 L42.88375,22.943533 L33.18525,22.943533 L42.224,13.8770663 L42.224,9.37970688 L26.37775,9.37970688 L26.37775,13.9120652 L34.6815,13.9120652 L25.648875,22.8744102 L25.648875,27.4767664 L25.64625,27.4758914 Z M0,27.4758914 L6.664875,27.4758914 L8.234625,23.0135308 L16.926,23.0135308 L18.46075,27.4758914 L25.230625,27.4758914 L15.911875,2.58291928 L9.31875,2.58291928 L0,27.4741414 L0,27.4758914 Z M12.5615,9.4847036 L12.6315,9.4847036 L15.38775,18.2020562 L9.73525,18.2020562 L12.5615,9.4847036 Z" id="Shape" fill="#18B4E9"></path>
                <polygon id="Path" fill="#5061AA" points="94.583125 2.58991907 96.205375 2.58991907 96.205375 3.86737914 94.581375 3.86737914"></polygon>
                <polygon id="Path" fill="#8B328A" points="88.6025 16.2797413 93.568125 16.2797413 93.568125 21.5733258 88.6025 21.5733258"></polygon>
                <polygon id="Path" fill="#5D80C0" points="91.868 22.7055405 95.13175 22.7055405 95.13175 24.6829787 91.868 24.6829787"></polygon>
                <polygon id="Path" fill="#E94E29" points="89.9325 23.6295116 93.855125 23.6295116 93.855125 27.5126402 89.933375 27.5126402"></polygon>
                <polygon id="Path" fill="#D5262A" points="94.791375 20.1042467 98.149625 20.1042467 98.149625 21.5742008 94.793125 21.5742008"></polygon>
                <polygon id="Path" fill="#F6A022" points="93.56375 17.4277054 97.006875 17.4277054 97.006875 18.2983032 93.56375 18.2983032"></polygon>
                <polygon id="Path" fill="#6A95CD" points="98.14525 20.1042467 100.5515 20.1042467 100.5515 20.766601 98.14525 20.766601"></polygon>
                <polygon id="Path" fill="#306FB6" points="93.56375 13.2120871 96.85375 13.2120871 96.85375 17.4294553 93.56375 17.4294553"></polygon>
                <polygon id="Path" fill="#73C8DD" points="87.13775 9.97818818 93.569 9.97818818 93.569 16.2806162 87.13775 16.2806162"></polygon>
                <polygon id="Path" fill="#92C143" points="83.39625 9.97993813 87.69075 9.97993813 87.69075 13.4658292 83.39625 13.4658292"></polygon>
                <polygon id="Path" fill="#5061AA" points="88.96825 4.07737258 96.24475 4.07737258 96.24475 10.0245617 88.96825 10.0245617"></polygon>
                <polygon id="Path" fill="#169BD6" points="96.847625 10.7499141 102.150125 10.7499141 102.150125 17.2220868 96.847625 17.2220868"></polygon>
                <polygon id="Path" fill="#F6A022" points="96.01375 14.433549 100.552375 14.433549 100.552375 20.1208712 96.012875 20.1208712"></polygon>
                <polygon id="Path" fill="#D5262A" points="93.56375 18.2851786 96.922 18.2851786 96.922 21.568951 93.56375 21.568951"></polygon>
                <polygon id="Path" fill="#199AA6" points="91.601125 20.3474891 95.934125 20.3474891 95.934125 22.7274148 91.599375 22.7274148"></polygon>
                <polygon id="Path" fill="#A5BFDF" points="100.54625 16.6454798 101.47375 16.6454798 101.47375 19.4952658 100.54625 19.4952658"></polygon>
                <polygon id="Path" fill="#3FB7AF" points="102.1475 10.5495453 104.573875 10.5495453 104.573875 12.0492485 102.148375 12.0492485"></polygon>
                <polygon id="Path" fill="#AE2258" points="101.922625 12.0483735 103.672625 12.0483735 103.672625 13.023968 101.922625 13.023968"></polygon>
                <polygon id="Path" fill="#79C199" points="93.56375 7.45039218 96.85375 7.45039218 96.85375 13.2199619 93.56375 13.2199619"></polygon>
                <polygon id="Path" fill="#E5DF1F" points="96.847625 5.12733977 101.273375 5.12733977 101.273375 10.7490391 96.849375 10.7490391"></polygon>
                <polygon id="Path" fill="#33BACF" points="96.2395 4.07737258 99.465625 4.07737258 99.465625 9.34820787 96.2395 9.34820787"></polygon>
                <polygon id="Path" fill="#6CA9DB" points="100.59875 9.20208743 105 9.20208743 105 10.750789 100.59875 10.750789"></polygon>
                <polygon id="Path" fill="#DE5097" points="101.27775 5.80719353 103.3795 5.80719353 103.3795 9.20383738 101.27775 9.20383738"></polygon>
                <polygon id="Path" fill="#604596" points="102.748625 6.87553514 104.698125 6.87553514 104.698125 8.29999063 102.748625 8.29999063"></polygon>
                <polygon id="Path" fill="#FAD803" points="102.248125 8.3008656 105 8.3008656 105 9.72444611 102.248125 9.72444611"></polygon>
                <path d="M94.57,2.52867098 L96.22375,2.52867098 L96.22375,3.86737914 L94.57,3.86737914 L94.57,2.52867098 Z M88.96825,2.56979469 L91.9695,2.56979469 L91.9695,5.89731571 L88.96825,5.89731571 L88.96825,2.56979469 Z" id="Shape" fill="#5061AA"></path>
                <polygon id="Path" fill="#0BB8E7" points="79.697625 2.56979469 88.981375 2.56979469 88.981375 10.0245617 79.697625 10.0245617"></polygon>
                <polygon id="Path" fill="#41AD4C" points="84.459375 0 87.689875 0 87.689875 4.20424362 84.459375 4.20424362"></polygon>
                <polygon id="Path" fill="#E7B720" points="77.74375 9.38845661 83.7375 9.38845661 83.7375 11.7246336 77.74375 11.7246336"></polygon>
                <polygon id="Path" fill="#B9CF37" points="91.9625 0.381488078 94.29 0.381488078 94.29 4.07737258 91.9625 4.07737258"></polygon>
                <polygon id="Path" fill="#92C143" points="95.0705 14.433549 96.012875 14.433549 96.012875 15.3732696 95.067875 15.3732696"></polygon>
            </g>
        </g>
    </g>
</svg>