<?xml version="1.0" encoding="UTF-8"?>
<svg width="217px" height="64px" viewBox="0 0 217 64" version="1.1" xmlns="http://www.w3.org/2000/svg" xmlns:xlink="http://www.w3.org/1999/xlink">
    <title>British</title>
    <defs>
        <linearGradient x1="69.9493411%" y1="35.1973367%" x2="33.8263543%" y2="64.095836%" id="linearGradient-1">
            <stop stop-color="#E6EBEF" offset="0%"></stop>
            <stop stop-color="#BBCEE5" offset="7.64%"></stop>
            <stop stop-color="#85A9D8" offset="18.54%"></stop>
            <stop stop-color="#5D8FCF" offset="27.96%"></stop>
            <stop stop-color="#457EC9" offset="35.43%"></stop>
            <stop stop-color="#3C78C7" offset="40%"></stop>
            <stop stop-color="#2E5C99" offset="90%"></stop>
        </linearGradient>
    </defs>
    <g id="Taskboard" stroke="none" stroke-width="1" fill="none" fill-rule="evenodd">
        <g id="British">
            <rect id="Rectangle" x="0" y="0" width="217" height="64"></rect>
            <g id="ba_masterbrand_positive" transform="translate(18.000000, 18.000000)" fill-rule="nonzero">
                <g id="Group" transform="translate(0.000000, 15.251282)" fill="#2E5C99">
                    <path d="M0,12.5202972 C0.397444555,12.3166724 0.575169762,11.833533 0.575169762,11.4202723 L0.575169762,1.28185963 C0.575169762,0.852819859 0.397444555,0.383956783 0,0.168309822 L4.82257724,0.168309822 C6.97327721,0.168309822 9.0714845,1.05043362 9.0714845,3.49693712 C9.0714845,4.79457579 7.94289194,5.81795962 6.72581173,6.04788286 C8.47906715,6.03210382 10.1730808,7.10507893 10.1730808,9.04364743 C10.1730808,11.813997 7.27323536,12.5210486 5.23351991,12.5210486 L0,12.5210486 L0,12.5202972 Z M3.90395539,1.23226834 C3.68048656,1.23226834 3.52525822,1.23226834 3.11356565,1.28185963 L3.11356565,5.60531819 L3.60174755,5.60531819 C5.07979136,5.60531819 6.50834207,5.14772587 6.50834207,3.43156678 C6.50834207,1.7289326 5.36625139,1.23226834 3.90395539,1.23226834 Z M4.2114125,6.71811662 C3.85896166,6.71811662 3.54250581,6.71811662 3.11356565,6.75042609 L3.11356565,11.31583 C3.64824106,11.4210237 4.2264104,11.4555873 4.75958602,11.4555873 C5.99691341,11.4555873 7.25523787,10.9025693 7.25523787,9.00833242 C7.25523787,7.13889118 5.76744543,6.71811662 4.2114125,6.71811662 Z M14.9424155,1.23226834 C14.7219462,1.23226834 14.5277233,1.26833473 14.3102537,1.29914144 L14.3102537,5.57075457 C14.5119755,5.58503085 14.69495,5.60606958 14.8944222,5.60606958 C16.2817287,5.60606958 17.3083354,4.8389074 17.3083354,3.32712453 C17.3083354,1.7822808 16.2989762,1.23226834 14.9424155,1.23226834 Z M21.1582984,12.5931814 C20.6858643,12.5931814 20.164687,12.6104632 19.7132499,12.476717 C18.874117,12.2287605 17.7155286,10.3337723 17.2550929,9.59065435 C16.5389428,8.38243027 15.9165296,6.71811662 14.3110036,6.70008342 L14.3110036,11.4202723 C14.3110036,11.833533 14.4977275,12.3339542 14.8951721,12.5202972 L11.1929386,12.5202972 C11.5821343,12.3166724 11.7673584,11.8523176 11.7673584,11.4202723 L11.7673584,1.28185963 C11.7673584,0.852819859 11.5813844,0.383956783 11.1929386,0.168309822 L15.6503167,0.168309822 C17.5895462,0.168309822 20.0162077,0.914433277 20.0162077,3.24898068 C20.0162077,5.20783652 18.3986833,6.21168439 16.5951849,6.21168439 C19.1613269,6.22671205 20.6686167,12.2580645 23.5017214,12.2753463 C22.7420774,12.5007612 21.9501879,12.5931814 21.1582984,12.5931814 Z M23.6876955,12.5202972 C23.9936528,12.3797885 24.3138581,11.974793 24.3138581,11.4202723 L24.3138581,1.28185963 C24.3138581,0.719073661 23.9936528,0.320840599 23.6876955,0.168309822 L27.4814163,0.168309822 C27.1559617,0.320840599 26.8590031,0.719073661 26.8590031,1.28185963 L26.8590031,11.4202723 C26.8590031,11.974793 27.1559617,12.3797885 27.4814163,12.5202972 L23.6876955,12.5202972 Z M31.9200471,12.5202972 C32.3264904,12.3339542 32.5252126,11.8523176 32.5252126,11.4202723 L32.5252126,1.58466703 L29.8008427,1.58466703 C29.1724304,1.58466703 28.4232849,1.6620595 27.8833602,1.9829001 L28.7299921,0.167558439 L37.7662315,0.167558439 C38.4981294,0.167558439 39.246525,0.151779393 39.9574258,0 C39.6132238,0.929460939 38.5888667,1.61847928 37.9986991,1.61847928 C37.2810492,1.60194885 36.0939648,1.55386033 35.0711075,1.55386033 L35.0711075,11.4195209 C35.0711075,11.8515662 35.2848277,12.3332028 35.683772,12.5195458 L31.9200471,12.5195458 L31.9200471,12.5202972 Z M40.4088629,12.5202972 C40.7118206,12.3797885 41.0297762,11.974793 41.0297762,11.4202723 L41.0297762,1.28185963 C41.0297762,0.719073661 40.7118206,0.320840599 40.4088629,0.168309822 L44.2025836,0.168309822 C43.8801286,0.320840599 43.5711717,0.719073661 43.5711717,1.28185963 L43.5711717,11.4202723 C43.5711717,11.974793 43.8801286,12.3797885 44.2025836,12.5202972 L40.4088629,12.5202972 Z M51.5890532,9.72590331 C51.5890532,7.37332271 46.0585747,6.84209484 46.0585747,3.08668192 C46.0585747,0.7619025 48.2655168,0.000751383136 50.2062461,0.000751383136 C51.0723753,0.000751383136 52.3254505,0.120972685 53.11734,0.486144889 L53.2553207,2.79514527 C52.7686386,1.77551835 51.5500586,1.03690873 50.4184665,1.03690873 C49.5238413,1.03690873 48.5864721,1.48022478 48.5864721,2.50511138 C48.5864721,4.94485242 54.2106875,5.54069925 54.2106875,9.09774701 C54.2106875,11.6794995 51.9595015,12.7487177 49.6873185,12.7487177 C48.4987343,12.7487177 46.8819598,12.5195458 45.8793497,11.8327816 C45.8186082,11.4195209 45.790862,10.9874756 45.790862,10.5644469 C45.790862,10.0602688 45.8351059,9.55458796 45.9093455,9.05717232 C46.5347583,10.4855517 47.8290777,11.6028584 49.4458522,11.6028584 C50.6741808,11.6036098 51.5890532,11.0671222 51.5890532,9.72590331 Z M63.4374003,12.5202972 C63.705113,12.3993245 63.991573,11.974793 63.991573,11.4202723 L63.991573,6.82406164 C63.3316651,6.74967471 62.4100436,6.71736524 61.3759379,6.71736524 C60.3260843,6.71736524 59.396964,6.74967471 58.7205583,6.82406164 L58.7205583,11.4202723 C58.7205583,11.974793 58.9995194,12.3797885 59.2709815,12.5202972 L55.6182411,12.5202972 C55.8889533,12.3993245 56.1776631,11.974793 56.1776631,11.4202723 L56.1776631,1.28185963 C56.1776631,0.719073661 55.8889533,0.30431017 55.6182411,0.168309822 L59.2709815,0.168309822 C58.9995194,0.305061553 58.7205583,0.719073661 58.7205583,1.28185963 L58.7205583,5.43475422 C59.396964,5.50613562 60.3095866,5.54069925 61.3759379,5.54069925 C62.4100436,5.54069925 63.3316651,5.49561626 63.991573,5.43475422 L63.991573,1.28185963 C63.991573,0.719073661 63.7058629,0.30431017 63.4374003,0.168309822 L67.0848915,0.168309822 C66.8119296,0.305061553 66.5412173,0.719073661 66.5412173,1.28185963 L66.5412173,11.4202723 C66.5412173,11.974793 66.8119296,12.3797885 67.0848915,12.5202972 L63.4374003,12.5202972 Z" id="Shape"></path>
                    <path d="M80.6242527,12.5202972 C80.7419863,12.3993245 80.8484714,12.3091585 80.8484714,12.090506 C80.8484714,12.0168705 80.8207253,11.8936437 80.7307378,11.6637204 C80.7307378,11.6637204 79.7183791,8.90313878 79.5998956,8.5815468 C78.8395017,8.4876239 78.0468622,8.4876239 77.2707205,8.4876239 C76.5343233,8.4876239 75.7866775,8.50490572 75.0570293,8.5815468 C74.9535438,8.85805579 73.8684451,11.6036098 73.8684451,11.6036098 C73.7222155,11.974793 73.6719726,12.1017768 73.6719726,12.1829262 C73.6719726,12.3662637 73.8294506,12.4556782 73.962932,12.5202972 L71.4815281,12.5202972 C71.8474771,12.3339542 72.1646828,11.9507488 72.321411,11.5690461 L76.3993421,1.02263245 C76.4180895,0.979052226 76.4248385,0.930212322 76.4248385,0.870853055 C76.4248385,0.580067781 76.2321154,0.30431017 75.9726516,0.167558439 L79.1717053,0.167558439 L83.3193767,11.5585268 C83.4888531,12.0161191 83.8503027,12.3497332 84.1540103,12.5195458 L80.6242527,12.5195458 L80.6242527,12.5202972 Z M77.403452,2.51938766 L75.5339628,7.32823973 C76.0911351,7.38985314 76.6693044,7.40412942 77.2332258,7.40412942 C77.8796356,7.40412942 78.5185464,7.40412942 79.1469588,7.32823973 L77.403452,2.51938766 Z M84.7854222,12.5202972 C85.0913795,12.3797885 85.4078354,11.974793 85.4078354,11.4202723 L85.4078354,1.28185963 C85.4078354,0.719073661 85.0913795,0.320840599 84.7854222,0.168309822 L88.5768933,0.168309822 C88.2544383,0.320840599 87.9537302,0.719073661 87.9537302,1.28185963 L87.9537302,11.4202723 C87.9537302,11.974793 88.2536884,12.3797885 88.5768933,12.5202972 L84.7854222,12.5202972 Z M94.3405892,1.23226834 C94.1358678,1.23226834 93.9393952,1.26833473 93.7264249,1.29914144 L93.7264249,5.57075457 C93.9243973,5.58503085 94.1051221,5.60606958 94.2978452,5.60606958 C95.6881512,5.60606958 96.7125083,4.8389074 96.7125083,3.32712453 C96.7117584,1.7822808 95.6986498,1.23226834 94.3405892,1.23226834 Z M100.866179,12.5931814 C100.393745,12.5931814 99.8838159,12.6104632 99.4218804,12.476717 C98.5812476,12.2287605 97.4256589,10.3337723 96.9644732,9.59065435 C96.2513227,8.38243027 95.3229522,6.70008342 93.7264249,6.70008342 L93.7264249,11.4202723 C93.7264249,11.833533 93.9049,12.3339542 94.2978452,12.5202972 L90.5986112,12.5202972 C90.9960558,12.3166724 91.18128,11.8523176 91.18128,11.4202723 L91.18128,1.28185963 C91.18128,0.852819859 90.9960558,0.383956783 90.5986112,0.168309822 L95.0657381,0.168309822 C96.9997183,0.168309822 99.4226303,0.914433277 99.4226303,3.24898068 C99.4226303,5.20783652 97.6551268,6.21168439 96.3173135,6.21168439 C98.9771924,6.36496655 100.581219,12.2753463 103.220101,12.2753463 C102.455207,12.5007612 101.663318,12.5931814 100.866179,12.5931814 Z M116.246533,1.37427976 L112.500056,12.5202972 C112.191099,12.5202972 111.888141,12.4136008 111.716415,12.2926281 C111.345967,11.9349697 110.763298,10.4419714 110.553328,9.8912076 L108.860064,5.60531819 L106.421404,12.5202972 L105.260566,12.5202972 L101.067901,1.34647858 C100.887926,0.870853055 100.580469,0.414763491 100.123033,0.168309822 L103.766774,0.168309822 C103.613046,0.287779741 103.50731,0.423780089 103.50731,0.683758654 C103.50731,0.808488254 103.568802,0.980554993 103.613046,1.11354981 L106.343415,8.5056571 L109.250759,0.168309822 L112.452813,8.20585523 L114.877974,0.930212322 C114.937966,0.732598558 114.973211,0.659714393 114.973211,0.534984793 C114.973211,0.383956783 114.90797,0.287779741 114.755741,0.168309822 L117.168905,0.168309822 C116.722717,0.402741361 116.400262,0.914433277 116.246533,1.37427976 Z M120.724909,2.51938766 L118.856169,7.32823973 C119.420091,7.38985314 119.99676,7.40412942 120.559182,7.40412942 C121.198842,7.40412942 121.845252,7.40412942 122.469915,7.32823973 L120.724909,2.51938766 Z M123.94196,12.5202972 C124.069442,12.3993245 124.166178,12.3091585 124.166178,12.090506 C124.166178,12.0168705 124.128684,11.8936437 124.054444,11.6637204 C124.054444,11.6637204 123.048834,8.90313878 122.926601,8.5815468 C122.159458,8.4876239 121.368319,8.4876239 120.592177,8.4876239 C119.862529,8.4876239 119.114133,8.50490572 118.380736,8.5815468 C118.275,8.85805579 117.197401,11.6036098 117.197401,11.6036098 C117.042172,11.974793 116.999428,12.1017768 116.999428,12.1829262 C116.999428,12.3662637 117.150157,12.4556782 117.282139,12.5202972 L114.799985,12.5202972 C115.166684,12.3339542 115.48314,11.9507488 115.636868,11.5690461 L119.729047,1.02263245 C119.741046,0.979052226 119.752294,0.930212322 119.752294,0.870853055 C119.752294,0.580067781 119.558821,0.30431017 119.292608,0.167558439 L122.494662,0.167558439 L126.640833,11.5585268 C126.812559,12.0161191 127.178508,12.3497332 127.479966,12.5195458 L123.94196,12.5195458 L123.94196,12.5202972 Z M135.081656,1.46519712 L132.161563,6.59564117 L132.161563,11.4202723 C132.161563,11.8124943 132.322041,12.3339542 132.711986,12.5202972 L129.078743,12.5202972 C129.449941,12.3166724 129.620918,11.7997208 129.620918,11.4202723 L129.620918,6.57986212 L127.082522,2.50511138 C126.855303,2.12416013 125.796451,0.348641775 124.505881,0.348641775 C124.856832,0.214895577 125.923933,0.011270747 126.640083,0.011270747 C127.834667,0.011270747 128.426334,0.120972685 129.157482,1.26833473 L131.506155,4.99820062 C131.703377,4.63227703 133.563118,1.39231295 133.563118,1.39231295 C133.787336,0.997836805 133.941065,0.719073661 133.941065,0.580819164 C133.941065,0.403492744 133.864576,0.287779741 133.684601,0.168309822 L136.301736,0.168309822 C135.788807,0.414763491 135.361367,0.979803609 135.081656,1.46519712 Z M141.916952,9.72590331 C141.916952,7.37332271 136.385724,6.84209484 136.385724,3.08668192 C136.385724,0.7619025 138.586667,0.000751383136 140.528146,0.000751383136 C141.397275,0.000751383136 142.642851,0.120972685 143.43849,0.486144889 L143.576471,2.79514527 C143.084539,1.77551835 141.871209,1.03690873 140.738867,1.03690873 C139.842742,1.03690873 138.911371,1.48022478 138.911371,2.50511138 C138.911371,4.94485242 144.535587,5.54069925 144.535587,9.09774701 C144.535587,11.6794995 142.300149,12.7487177 140.011468,12.7487177 C138.823634,12.7487177 137.20311,12.5195458 136.199,11.8327816 C136.133759,11.4195209 136.102263,10.9874756 136.102263,10.5644469 C136.102263,10.0602688 136.150257,9.55458796 136.226746,9.05717232 C136.851409,10.4855517 138.150228,11.6028584 139.767002,11.6028584 C141.00058,11.6036098 141.916952,11.0671222 141.916952,9.72590331 Z" id="Shape"></path>
                </g>
                <path d="M175.944955,6.77342641 C173.872244,8.83747588 169.381871,10.6092373 167.172679,11.4387643 C164.15435,12.5748556 162.815037,12.9768456 161.126272,13.5276094 C159.214789,14.1490033 155.391073,15.3083874 155.391073,15.3083874 C163.312217,17.6782499 168.894439,18.3928152 168.894439,18.3928152 C168.894439,18.3928152 171.495076,17.5873325 175.615001,15.3797688 C177.84594,14.2436775 178.943787,13.4787695 179.728927,12.7476737 C180.018387,12.485441 180.766033,11.7055053 180.952007,10.7076685 C180.964005,10.6347843 181,10.443933 181,10.2560872 C181,10.2560872 181,10.1238438 180.988002,10.0088822 C180.983502,9.87663876 180.960256,9.78797555 180.960256,9.78797555 C180.960256,9.78797555 180.916012,9.55128986 180.85752,9.38523419 C180.796778,9.21917851 180.541814,8.70673522 180.128622,8.37387249 C179.85266,8.14920893 179.375727,7.58942849 177.647968,6.98080815 C177.0608,6.77643194 176.109932,6.58783477 176.109932,6.58783477 L175.944955,6.77342641 Z" id="Path" fill="url(#linearGradient-1)"></path>
                <path d="M180.99925,10.2034904 C180.99925,10.2034904 180.987252,9.98258378 180.933259,9.79548938 C180.891265,9.62868232 180.817026,9.4693891 180.705291,9.30183066 C180.57031,9.10271413 180.388085,8.86903397 180.118873,8.61055817 C179.915651,8.41820409 179.692932,8.2483915 179.42447,8.06805955 C178.343871,7.35875387 176.949065,6.95901804 175.714737,6.78995684 C173.801754,6.53523795 171.60756,6.58032094 171.399839,6.57280711 C170.694188,6.56303913 166.134824,6.60060829 164.962737,6.62164701 C159.757713,6.7290948 153.385852,6.74337108 151.716585,6.74337108 C134.484739,6.82226631 126.984285,6.45033166 118.63645,4.7732445 C111.534941,3.35989282 107.59499,2.01717116 107.59499,2.01717116 C113.858866,1.80002143 150.407268,0.280724728 157.074588,0.103398308 C161.439729,-0.0198285263 164.539046,-0.0461269361 167.01895,0.0973872429 C168.290773,0.168768641 169.474108,0.276967812 170.960401,0.530183929 C172.292965,0.758604403 173.503296,1.1463181 174.208197,1.40855082 C175.69299,1.95931465 176.944566,2.75578078 177.563229,3.57178286 C177.563229,3.57178286 177.746204,3.75962865 177.994419,4.09324276 C178.27263,4.48095646 178.595835,4.95808475 178.70532,5.13616255 C179.608944,6.50818816 180.037884,7.37002462 180.187113,7.67057787 C180.348341,7.98615879 180.490821,8.31376184 180.629552,8.63460243 C180.765283,8.95318888 180.820775,9.14629435 180.864269,9.28079193 C180.959506,9.61816296 180.982752,9.92547866 180.987252,9.99460591 L180.99925,10.2034904 Z" id="Path" fill="#CE210F"></path>
            </g>
        </g>
    </g>
</svg>