<?xml version="1.0" encoding="UTF-8"?>
<svg width="64px" height="64px" viewBox="0 0 64 64" version="1.1" xmlns="http://www.w3.org/2000/svg" xmlns:xlink="http://www.w3.org/1999/xlink">
    <title>CAE-Header</title>
    <g id="Taskboard" stroke="none" stroke-width="1" fill="none" fill-rule="evenodd">
        <g id="CAE-Header">
            <rect id="Rectangle" x="0" y="0" width="64" height="64"></rect>
            <g id="Logo" transform="translate(12.873891, 24.815000)" fill="#2969F2" fill-rule="nonzero">
                <path d="M31.4266541,2.84088792 L31.4266541,5.83243484 L37.3998137,5.83243484 L37.3998137,8.49095162 L31.4266541,8.49095162 L31.4266541,11.5266413 L38.2522172,11.5266413 L38.2522172,14.1846717 L28.4453437,14.1846717 L28.4453437,0.182832263 L38.2522172,0.182832263 L38.2522172,2.84088797 L31.4266541,2.84088797 L31.4266541,2.84088792 Z M7.21773081,14.37 C9.53037212,14.37 11.6548103,13.4033944 12.975924,11.5582737 L10.713228,9.76750125 C10.0474631,10.7484861 8.88712967,11.6225071 7.2979152,11.6225071 C4.93720216,11.6225071 3.08795156,9.66932505 3.08795156,7.185 C3.08795156,4.70067496 4.93720216,2.74749391 7.2979152,2.74749391 C8.88712967,2.74749391 10.0474631,3.62151439 10.713228,4.60249875 L12.975924,2.81172635 C11.6548103,0.966605788 9.53037212,0 7.21773081,0 C3.29664795,0 1.77635684e-15,3.18655768 1.77635684e-15,7.185 C1.77635684e-15,11.1834423 3.29664795,14.37 7.21773081,14.37 Z M21.6459045,0.182832263 L18.5499268,0.182832263 L24.0004068,14.1846694 L27.1210917,14.1846694 L21.6459045,0.182832263 Z M22.662422,10.9709016 L17.4362808,10.9709016 L16.1792881,14.1846696 L13.0906075,14.1846696 L16.287851,5.92537412 L22.662422,10.9709016 Z"></path>
            </g>
        </g>
    </g>
</svg>