<?xml version="1.0" encoding="UTF-8"?>
<svg width="166px" height="64px" viewBox="0 0 166 64" version="1.1" xmlns="http://www.w3.org/2000/svg" xmlns:xlink="http://www.w3.org/1999/xlink">
    <title>ChinaEastern</title>
    <g id="Taskboard" stroke="none" stroke-width="1" fill="none" fill-rule="evenodd">
        <g id="ChinaEastern">
            <rect id="Rectangle" x="0" y="0" width="166" height="64"></rect>
            <g id="China_Eastern_Airlines_logo" transform="translate(18.000000, 18.000000)">
                <path d="M34.1514985,9.98173869 C22.6623669,10.300465 11.5433083,12.909228 10.5101576,16.6085779 C10.4155334,16.9440905 10.3919363,17.2758728 10.3919363,17.6138643 C10.3919363,21.2571893 17.9934973,22.5033855 26.2226933,23.5298259 C26.3638038,23.5463524 26.3576685,23.4339719 26.3116542,23.3529918 C26.2793263,23.2956211 26.1561495,23.0778484 26.0715776,22.9278345 C26.0385417,22.8692833 26.0031461,22.8308001 25.8879924,22.797747 C21.3840191,21.6511586 16.8116143,19.9760748 16.8116143,18.4142923 C16.8116143,15.4600536 24.4728995,12.5338156 33.1972093,11.1961095 C33.4852116,11.1406275 33.6226645,11.0865621 33.8161133,10.932818 C34.0580777,10.7399295 34.590522,10.3047383 34.8156853,10.1248586 C34.9624591,10.0027982 34.9103096,9.96431498 34.8548564,9.96546924 C34.6210095,9.97021732 34.3870917,9.97493919 34.1513569,9.982022 L34.1514985,9.98173869 Z" id="Fill-1" fill="#1B1D80"></path>
                <path d="M21.4419143,27.8163712 C15.4737328,26.31995 9.5590434,21.3084347 10.4908135,16.6654219 C11.8523924,9.89106734 20.9579908,3.32897606 32.3214839,0.245253659 C32.577752,0.16931217 32.6722976,0 32.3438789,0 L16.8346892,0 C14.1494737,0 13.567273,0.347338937 12.5272731,1.7553688 C11.9730622,2.50420168 7.33162712,8.90756292 5.23856476,11.7939619 C4.96923456,12.1375659 4.58856471,12.507314 3.74138766,12.507314 L0,12.507314 C0,12.5085634 0,12.509188 0.0031100465,12.511062 C4.43679434,25.0445069 9.19952204,28 13.9703352,28 L21.5028716,28 C21.6092347,28 21.7155983,27.8854653 21.4419174,27.8163712" id="Fill-3" fill="#DF0011"></path>
                <path d="M92.9144157,2.6081355 L92.9144157,3.68252646 L88.1952371,3.68252646 C87.7536179,3.68252646 87.3934558,4.03919299 87.3934558,4.48363912 C87.3934558,4.92499242 87.7536179,5.28413794 88.1952371,5.28413794 C88.1952371,5.28413794 90.172601,5.26525045 90.5022757,5.26052858 C90.5022757,5.35709085 90.4975563,7.21694146 90.4975563,7.22069535 C90.3857062,10.3293156 88.9356897,12.2141449 88.314308,13.0165089 L88.1462968,13.24127 C87.9539806,13.3869397 87.8396292,13.617249 87.8396292,13.8693497 C87.8396292,14.3100655 88.2004049,14.6710998 88.640797,14.6710998 C88.8852391,14.6710998 89.1551896,14.5558861 89.2988722,14.3928399 C89.2917931,14.3952008 89.3153902,14.3833962 89.3153902,14.3833962 C89.8832773,13.9333546 91.7617459,12.1624168 92.1231351,8.1593089 L97.2117966,8.1593089 C97.2117966,8.97661758 97.1881995,9.9358421 97.1410054,11.0998542 C97.0581797,13.113567 95.6662119,13.0662538 94.9944505,13.038867 L94.9540995,13.0376157 C94.3675234,12.975287 93.4886269,12.7612445 93.4824208,12.7612445 L93.2665076,12.7350382 C92.8255019,12.7350382 92.4665905,13.092956 92.4665905,13.535537 C92.4665905,13.9046693 92.7160351,14.2246232 93.0743095,14.3123792 C93.0743095,14.321823 93.9227186,14.6136582 94.7102001,14.6254865 L94.8675926,14.6278474 C95.8715065,14.642013 97.0060537,14.6590118 97.8065844,13.8846249 C98.4827114,13.2266794 98.8192056,12.1068404 98.8403486,10.4660138 C98.8764521,9.78752812 98.8920262,8.70317402 98.8920262,8.08444363 C98.8920262,7.89155519 98.8920262,7.7439495 98.8873068,7.6692495 C98.853091,7.03869082 98.3753919,6.56560655 97.7832469,6.56560655 C97.7832469,6.56560655 92.7101358,6.55852375 92.2062911,6.55852375 L92.2062911,5.26189792 C92.303983,5.26189792 99.3537973,5.28550728 99.3537973,5.28550728 C99.7935759,5.28550728 100.154328,4.92636176 100.154328,4.48500846 C100.154328,4.04056234 99.7935759,3.6838958 99.3537973,3.6838958 L94.5904686,3.6838958 L94.5904686,2.58709956 C94.5904686,2.16569617 94.1979785,1.81025732 93.7414223,1.81025732 C93.2923228,1.81025732 92.9147697,2.17688701 92.9147697,2.60950484" id="Fill-6" fill="#DF0011"></path>
                <path d="M118.915794,9.29727985 C118.472287,9.29727985 118.11465,9.65519768 118.11465,10.0983925 C118.11465,10.5409735 118.472287,10.9007565 118.915794,10.9007565 L122.887323,10.9007565 L122.887323,12.9381258 L118.158187,12.9381258 C117.718432,12.9381258 117.357042,13.2991601 117.357042,13.7392385 C117.357042,14.1799543 117.718432,14.5409886 118.158187,14.5409886 L129.200106,14.5409886 C129.639224,14.5409886 130,14.1799543 130,13.7392385 C130,13.2991601 129.639224,12.9381258 129.200106,12.9381258 L124.533172,12.9381258 L124.533172,10.9007565 L128.507178,10.9007565 C128.949435,10.9007565 129.309573,10.5409735 129.309573,10.0983925 C129.309573,9.65519768 128.949435,9.29727985 128.507178,9.29727985 L118.915794,9.29727985 Z" id="Fill-8" fill="#DF0011"></path>
                <path d="M122.879607,2.63483768 L122.879607,3.17265881 L118.760054,3.17265881 C118.147993,3.17974161 117.650991,3.67811151 117.650991,4.2862649 L117.652879,4.31436004 L117.652879,5.9209767 C117.652879,6.36353408 118.011153,6.72208936 118.452159,6.72208936 C118.896256,6.72208936 119.252052,6.36353408 119.252052,5.9209767 L119.252052,4.77375088 L121.118699,4.77375088 C121.125778,4.8242749 121.135217,4.91328218 121.135217,5.03208445 C121.135217,5.19829432 121.118699,5.41864044 121.053099,5.64769841 C120.821612,6.45877422 119.999419,7.02336835 118.605493,7.32587503 L118.551927,7.33767971 C118.14391,7.38135702 117.844699,7.70556069 117.844699,8.11140552 C117.844699,8.54402335 118.230984,8.91190433 118.688767,8.91190433 L118.77702,8.90482153 C121.882701,8.61848726 122.708103,6.99881462 122.859266,5.68726769 C122.897965,5.32311698 122.904573,4.92473271 122.904573,4.77346757 L122.904573,4.76402383 C122.994241,4.76402383 124.37998,4.77346757 124.472032,4.77346757 L124.472032,7.6853983 C124.476751,8.28731883 124.949117,8.77036625 125.551857,8.78592481 L127.881903,8.78592481 C129.090451,8.78592481 129.601139,7.94309442 129.606118,7.93811284 C129.698146,7.80353952 129.74534,7.59327459 129.754071,7.44075815 C129.777668,7.05545347 129.607298,6.95275277 129.426898,6.83820017 L129.385839,6.81010504 C129.099701,6.63020175 128.788078,6.68757248 128.450333,6.97749537 C128.052864,7.31862696 127.71637,7.26633223 127.712004,7.26633223 C127.704925,7.26633223 126.347952,7.26161036 126.347952,7.26161036 C126.347952,7.26161036 126.221708,7.2639713 126.141477,7.18440777 C126.092396,7.13836952 126.066911,7.06919411 126.066911,6.97900637 C126.066911,6.97900637 126.07163,4.87007705 126.07163,4.77360923 L128.226279,4.77360923 C128.198198,4.87819867 128.053312,5.41847517 128.053312,5.41847517 C128.039154,5.48127606 128.027827,5.54478522 128.027827,5.60711392 C128.027827,5.74593694 128.066999,5.8828712 128.143453,6.00611204 C128.254123,6.18601533 128.432069,6.31423774 128.642932,6.36341603 C129.074617,6.46540845 129.578438,6.16037557 129.679198,5.73597379 C129.693356,5.70103194 130.001392,4.85019798 129.990821,4.3584387 C129.979022,3.57661489 129.601445,3.18632862 128.83388,3.16826747 C128.804619,3.16826747 124.978047,3.17298934 124.503463,3.17298934 L124.503463,2.63519182 C124.503463,2.20070885 124.125886,1.83346532 123.678675,1.83346532 C123.235805,1.83346532 122.880645,2.19324829 122.880645,2.63519182" id="Fill-10" fill="#DF0011"></path>
                <path d="M64.5619193,4.14727663 C64.4505411,4.27169793 64.4075944,4.44543918 64.4257641,4.65643599 L64.4281239,4.67296254 C64.4281239,4.68240628 64.4422821,4.8136743 64.4493612,4.89512658 C64.3391629,4.89512658 60.7645839,4.90457032 60.7645839,4.90457032 C60.4342957,4.90457032 60.0629486,5.16663417 60.0629486,5.54258955 C60.0629486,5.8899304 60.3677284,6.1793811 60.7303682,6.1793811 C60.7303682,6.1793811 64.5401864,6.18882484 64.6204164,6.18882484 C64.8535555,7.65163692 65.1634322,8.88163714 65.5627655,9.94419981 C65.0614221,10.7285026 64.5924303,11.3547172 64.3958667,11.6024501 C64.3061978,11.6964154 64.2304512,11.9921226 64.2304512,12.2155851 C64.2304512,12.3057728 64.23989,12.3855725 64.2703302,12.4334995 C64.3748653,12.614111 64.5353018,12.729183 64.7262493,12.7534535 C64.9372071,12.780132 65.1554328,12.6949022 65.3383101,12.5106784 C65.5155242,12.3333722 65.6188321,12.1683192 65.7743369,11.9156046 C65.7743369,11.9156046 66.1064893,11.4101519 66.1811268,11.2962368 C66.5568158,12.0257895 66.8864905,12.5094508 66.890856,12.5144323 C67.0109651,12.7110983 67.2298279,12.8350002 67.4568789,12.8350002 C67.7100283,12.8350002 67.9414212,12.6869695 68.0515016,12.4584073 L68.0812339,12.3979674 C68.193084,12.1887885 68.4855461,11.6279718 68.6827233,10.4670762 L68.6827233,10.4623543 C68.7016009,10.2115049 68.6454399,10.0061035 68.5196675,9.86293641 C68.4196159,9.74465353 68.2777031,9.68043609 68.1116269,9.67004797 C67.8578404,9.66060423 67.5710888,9.80627395 67.5051585,10.1144941 C67.5051585,10.1144941 67.3975559,10.5962902 67.340215,10.8440232 C67.2538497,10.6530235 67.0267279,10.1325553 67.0086761,10.0970704 C67.6188728,9.08120703 68.0374849,8.13876876 68.291885,7.22062452 C68.2942447,7.21354171 68.3131223,6.98221725 68.3131223,6.98221725 C68.3013238,6.80679973 68.2234534,6.65107242 68.0948494,6.53465469 C67.9643576,6.41944103 67.8000276,6.36230639 67.6301994,6.37481935 C67.3614996,6.38898496 67.1282425,6.5745545 67.0504901,6.83482404 C67.0481304,6.84190684 66.7171107,7.85814796 66.4166728,8.47690195 C66.2337955,7.86749726 66.0708341,7.13360043 65.9090997,6.18868319 L68.053177,6.18868319 C68.4039946,6.18868319 68.688245,5.89923248 68.688245,5.5419521 C68.688245,5.18339682 68.4039946,4.89394611 68.053177,4.89394611 L67.7135679,4.89394611 C67.7154321,4.86844801 67.7182873,4.84601912 67.7182873,4.82736773 C67.7182873,4.66422708 67.664722,4.5067999 67.5585351,4.38292161 L67.4809008,4.28942856 C67.3633873,4.1487168 67.1972639,4.05970952 67.0162744,4.04915614 C66.8322172,4.03262959 66.6554987,4.08905595 66.5136803,4.20781101 C66.4284949,4.28076392 66.3836605,4.37827056 66.3810648,4.49416889 L66.3810648,4.50361263 C66.3810648,4.62803394 66.4506762,4.76317389 66.5441206,4.87770288 C66.3942792,4.87956801 65.8263212,4.88478568 65.7572762,4.88478568 C65.7478373,4.81891558 65.7131496,4.60902841 65.7131496,4.60902841 C65.6633598,4.17329414 65.4444498,3.95294802 65.0588028,3.95294802 C64.8516205,3.95294802 64.6756336,4.02212343 64.5599371,4.14583645" id="Fill-12" fill="#DF0011"></path>
                <path d="M68.8716414,12.8126185 C68.8692817,12.9438865 68.8043898,13.0099927 68.6720102,13.0099927 L65.1284378,13.0029099 L60.0708772,12.9934662 C59.9538357,12.9934662 59.8960229,12.9318457 59.8960229,12.8010499 L59.9007423,4.06277874 C59.9007423,4.00045004 59.9149005,3.95512008 59.9455767,3.92348354 C59.9760169,3.89420794 60.0227391,3.87933405 60.088103,3.87933405 L68.6973063,3.88169498 C68.7695133,3.88169498 68.8178873,3.89822153 68.8535189,3.93080244 C68.8797116,3.96078632 68.8945778,4.00493582 68.8945778,4.06018171 L68.8716414,12.8126185 Z M69.3132606,2.35572788 L69.3113965,2.35447658 L59.4867552,2.35683752 C58.8784227,2.36628126 58.3845596,2.86665795 58.3845596,3.47292259 L58.3845596,13.4007275 C58.389279,14.0138625 58.8815375,14.5155849 59.4867552,14.5273896 L69.3113965,14.5273896 C69.925935,14.5226677 70.4254143,14.0219605 70.4254143,13.4100532 C70.4301337,13.4100532 70.4301337,3.47105746 70.4301337,3.47105746 C70.4301337,2.85605735 69.9294038,2.35497238 69.3142281,2.35497238 L69.3132606,2.35572788 Z" id="Fill-14" fill="#DF0011"></path>
                <path d="M61.4765041,9.02519904 L63.3394243,9.02519904 L63.3394243,7.7777665 L61.4765041,7.7777665 L61.4765041,9.02519904 Z M64.4745916,6.93805291 C64.3825328,6.7102285 64.1691836,6.56270281 63.927221,6.56270281 L60.8874607,6.56270281 C60.7077003,6.56270281 60.5385138,6.64549143 60.425308,6.78617018 C60.3382264,6.89759278 60.2903314,7.03266892 60.2903314,7.17645975 L60.2903314,9.63024129 L60.3033926,9.75286787 C60.3581284,10.0367147 60.6019572,10.2402627 60.8855933,10.2402627 L63.927221,10.2402627 L64.1026291,10.2134959 C64.3526769,10.138177 64.5255939,9.89852582 64.5255939,9.63210779 L64.5255939,7.17645912 C64.5255939,7.09553762 64.5075505,7.012749 64.4745854,6.93805228 L64.4745916,6.93805291 Z" id="Fill-16" fill="#DF0011"></path>
                <path d="M63.4521925,10.4990243 C63.4366464,10.5033969 61.9002787,10.9963788 60.8484607,10.9839292 C60.3514755,10.9783072 60.1032931,11.3219313 60.0833892,11.6393912 C60.0734372,11.7806921 60.1337734,11.9313305 60.2519539,12.0558249 C60.4074562,12.2201571 60.6344897,12.3278443 60.8304223,12.3303342 C62.6373611,12.3421591 64.0001812,11.7364972 64.0113819,11.7277825 L64.0151279,11.7277825 C64.3559922,11.5702971 64.638387,11.1905894 64.4822585,10.7990555 C64.2490054,10.2133097 63.459054,10.4965343 63.4522112,10.4990243" id="Fill-18" fill="#DF0011"></path>
                <path d="M53.9452776,9.50394168 C53.9452776,9.54191502 53.9390304,9.62158906 53.8942716,9.67200884 C53.8619245,9.70375427 53.8183869,9.7211824 53.7624055,9.7211824 L50.2219246,9.7211824 L50.2219246,5.24997343 L53.7350351,5.24997343 C53.8071881,5.24997343 53.8613027,5.26740281 53.8942691,5.30537365 C53.9303434,5.34396665 53.9347013,5.39874433 53.9347013,5.41990833 L53.9347013,5.43422501 L53.9452776,9.48526735 L53.9452776,9.50394168 Z M48.6158975,9.72429635 C48.5151304,9.72429635 45.0555132,9.72117303 45.0555132,9.72117303 C45.0405853,9.72117303 44.8944125,9.71370205 44.8850824,9.52135982 L44.8850824,5.43173503 C44.8850824,5.41181574 44.8869554,5.34583403 44.9304906,5.29914868 C44.9615889,5.26615767 45.0094857,5.24997324 45.0667108,5.24997324 C45.0667108,5.24997324 48.5151316,5.25806514 48.6158975,5.25806514 L48.6158975,9.72429635 Z M54.4994848,3.64524265 L54.492642,3.64524265 L50.2300104,3.64524265 L50.2300104,2.48806865 C50.2300104,2.0423793 49.8673786,1.67947858 49.4220199,1.67947858 C48.9760388,1.67947858 48.6158956,2.0423793 48.6158956,2.48806865 L48.6158956,3.64524265 L44.3706799,3.64524265 C43.7592446,3.64524265 43.2628805,4.15317916 43.2628805,4.7638234 L43.2641292,10.2079564 C43.2641292,10.8173556 43.7592489,11.3190678 44.3706843,11.3240476 C44.3706843,11.3240476 48.1369525,11.3315186 48.6159,11.3315186 L48.6159,13.93905 C48.6159,14.3853619 48.9760432,14.7476403 49.4220243,14.7476403 C49.8673829,14.7476403 50.2300147,14.3853619 50.2300147,13.93905 L50.2300147,11.3364984 C50.3264258,11.3364984 54.4957562,11.3452125 54.4957562,11.3452125 C55.1140337,11.3452125 55.6141294,10.8435003 55.6141294,10.2291212 L55.6141294,4.75884364 C55.6141294,4.14384212 55.1140337,3.64524265 54.4994885,3.64524265 L54.4994848,3.64524265 Z" id="Fill-19" fill="#DF0011"></path>
                <path d="M80.1352354,9.09846403 C80.1352354,9.0131855 80.1377327,8.39258162 80.1377327,8.31041516 L83.3280187,8.31041516 C83.3280187,8.39258162 83.3193404,9.0131855 83.3180917,9.09846403 L80.1352354,9.09846403 Z M80.1377327,6.27742429 L83.3280187,6.27742429 C83.3280187,6.35959075 83.3193404,6.98206175 83.3180917,7.0642282 L80.1352666,7.0642282 C80.1352666,6.98206175 80.137764,6.35959075 80.137764,6.27742429 L80.1377327,6.27742429 Z M78.4912691,7.06796307 L75.2649026,7.06796307 C75.2649026,6.98392949 75.2661513,6.36208066 75.2667756,6.27804708 L78.4912691,6.27804708 L78.4912691,7.06796307 Z M78.4912691,9.10593377 L75.2649026,9.10593377 C75.2649026,9.0212774 75.2661513,8.40191847 75.2667756,8.31726273 L78.4912691,8.31726273 L78.4912691,9.10593377 Z M85.2711746,12.7959426 L85.2699259,12.7959426 C85.2481365,12.7878532 83.0997353,11.8883799 81.033416,10.443624 L83.6893987,10.443624 C84.2995904,10.443624 84.7934677,9.94751448 84.7934677,9.34185007 L84.7890973,9.26715397 L84.7890973,9.18125265 C84.7890973,8.67331633 84.7797947,6.11371448 84.7797947,6.11371448 C84.7797947,5.51987696 84.3157733,5.03808421 83.7217582,5.0144303 C83.7217582,5.0144303 80.5165381,5.01256256 80.0873548,5.01256256 L80.0873548,4.26248509 C80.1837653,4.26248509 84.838264,4.25252544 84.838264,4.25252544 C85.2848664,4.25252544 85.6363006,3.91514606 85.6363006,3.48315104 C85.6363006,3.04991106 85.2711808,2.69759233 84.8270696,2.69759233 L80.0873548,2.69759233 L80.0873548,2.54570948 C80.0873548,2.10686733 79.727211,1.75081379 79.2880695,1.75081379 C78.84831,1.75081379 78.4912753,2.10686733 78.4912753,2.54570948 L78.4912753,2.69759246 L73.7534335,2.69759246 C73.3174013,2.69759246 72.9541482,3.04991118 72.9541482,3.48315116 C72.9541482,3.91327875 73.3174013,4.26248509 73.7534335,4.26248509 L78.4912753,4.26248509 L78.4912753,5.01256293 L74.8456775,5.01256293 C74.1465425,5.03808421 73.744724,5.44020061 73.744724,6.12242911 L73.7397293,9.32442131 C73.746597,9.32941863 73.746597,9.34371719 73.746597,9.34371719 C73.746597,9.95124872 74.2417168,10.4467361 74.848793,10.4467361 C74.848793,10.4467361 77.209944,10.4436128 77.4842474,10.4436128 C75.9777419,11.5640611 73.2284642,12.728705 73.198602,12.741154 C72.9261654,12.8805877 72.7588425,13.1557198 72.7588425,13.458241 C72.7588425,13.9001959 73.1152527,14.2568716 73.5593702,14.2568716 L73.7640098,14.2276124 C73.7994723,14.2276124 76.7198002,13.347438 78.4819539,11.4289818 C78.4844513,11.6561835 78.4819539,14.0856887 78.4819539,14.0856887 C78.4819539,14.5282658 78.8483162,14.8843193 79.2880758,14.8843193 C79.7272172,14.8843193 80.0792759,14.5282658 80.0792759,14.0856887 C80.0792759,14.0856887 80.0817732,11.9207337 80.0792759,11.3648669 C81.3662138,12.8090006 84.502382,14.2276124 84.5372139,14.2437968 C84.6566438,14.3166258 84.990659,14.3633113 85.1337263,14.3633113 C85.5517152,14.3633113 85.8788939,14.0010329 85.8788939,13.5391593 C85.8788939,13.2055143 85.5647763,12.9353621 85.2711871,12.7959283 L85.2711746,12.7959426 Z" id="Fill-20" fill="#DF0011"></path>
                <path d="M110.487068,5.78492517 L110.385675,5.78492517 L110.347091,5.7923949 L110.311628,5.79488731 C109.754306,5.79488731 109.30957,6.26485292 109.280332,6.89105879 L109.280332,10.7186343 C109.210669,12.3152729 108.540765,13.2508475 108.403922,13.4245166 C108.400176,13.4263906 108.375328,13.4599975 108.375328,13.4599975 L108.354787,13.4898752 C108.342363,13.5116635 108.21732,13.7513128 108.21732,13.9361872 C108.21732,14.3638248 108.566888,14.7148985 108.99421,14.7148985 C109.241773,14.7148985 109.468802,14.600986 109.616845,14.4042855 C109.619342,14.4017869 110.956652,13.0099501 110.956652,10.8207182 L110.956652,10.7995546 C110.959149,10.4553277 110.938609,7.40708639 110.938609,7.40708639 L112.295828,7.40708639 C112.295828,7.75816017 112.297701,9.98162739 112.297701,11.5950726 C112.297701,12.471512 112.297701,13.1655677 112.295828,13.2757447 C112.303945,13.9224926 112.705738,14.5760875 113.460233,14.5735976 L114.414399,14.5723483 C114.44112,14.5760963 115.232957,14.6426874 115.655928,13.2054013 C115.655928,13.1991546 115.685147,13.0865095 115.685147,13.0865095 L115.734283,12.7895904 L115.735532,12.7410353 C115.747956,12.5798151 115.77037,12.2411908 115.206204,12.0687667 C114.864098,11.9635688 114.582945,12.1142047 114.449836,12.4715052 L114.37022,12.6980846 C114.303666,12.9196849 114.272567,12.9981158 114.153762,13.0074533 C114.153762,13.0074533 113.947256,13.0087026 113.855821,13.009952 L113.855821,6.88296752 C113.855821,6.87238571 113.827226,5.84842047 112.78285,5.78492517 L110.487018,5.78492517" id="Fill-21" fill="#DF0011"></path>
                <path d="M110.636535,2.55946615 L110.636535,3.49628529 L109.180407,3.49628529 C108.715767,3.49628529 108.337586,3.84798154 108.337586,4.27624169 C108.337586,4.70761424 108.715767,5.05993297 109.180407,5.05993297 L114.132228,5.05993297 C114.592516,5.05993297 114.970073,4.70761424 114.970073,4.27624169 C114.970073,3.84798154 114.592516,3.49628529 114.132228,3.49628529 L112.202752,3.49628529 C112.200255,3.40913932 112.202752,2.55573128 112.202752,2.55573128 C112.202752,2.12560369 111.851942,1.77141759 111.419019,1.77141759 C110.985484,1.77141759 110.636535,2.12560369 110.636535,2.55946615" id="Fill-22" fill="#DF0011"></path>
                <path d="M106.525735,7.79214565 C106.447362,7.79214565 105.950376,7.7946443 105.803581,7.7946443 C105.909943,7.67014998 105.979607,7.51889004 105.979607,7.34522028 C105.979607,7.30289303 105.978989,7.26180886 105.971491,7.2225937 L105.799816,6.12766661 C105.774343,5.93594549 105.674792,5.77534788 105.530489,5.67326263 C105.393022,5.57615709 105.21948,5.54192118 105.049054,5.57491213 C104.725609,5.63778177 104.502308,5.92972077 104.502308,6.26772263 C104.502308,6.3050713 104.504181,6.34428647 104.509738,6.3828801 L104.68017,7.47905146 C104.699462,7.60479074 104.743615,7.70500874 104.802703,7.7946443 C104.668976,7.7946443 104.196869,7.7946443 104.11912,7.79526709 L104.11912,5.06634446 C104.212421,5.06634446 106.429881,5.06074122 106.525673,5.06074122 L106.525735,7.79214565 Z M108.193963,7.78405624 L108.116833,7.78405624 L108.116833,4.24966217 C108.116833,3.80646267 107.766641,3.44729681 107.338082,3.44729681 C107.338082,3.44729681 106.167458,3.45165697 106.048653,3.45165697 C106.074126,3.35206157 106.186738,2.90512727 106.186738,2.90512727 L106.231503,2.78436781 C106.247049,2.72025327 106.256414,2.65676122 106.256414,2.59451412 C106.256414,2.45383562 106.21783,2.31689198 106.145076,2.196755 C106.038713,2.01810579 105.868281,1.88987672 105.667375,1.8388341 C105.464596,1.78903649 105.255605,1.82015976 105.077712,1.92784744 C104.899812,2.03429003 104.775413,2.20297972 104.725653,2.40715028 C104.725653,2.40715028 104.479332,3.38878739 104.460053,3.45850416 C104.389147,3.45850416 103.37527,3.46472582 103.37527,3.46472582 C103.365905,3.45850416 103.342929,3.45850416 103.342929,3.45850416 C102.911879,3.45850416 102.562305,3.82140489 102.562305,4.26211448 L102.562305,7.79712859 C102.118818,7.80087658 101.759917,8.14509029 101.759917,8.56837024 C101.759917,8.98978371 102.115703,9.33338774 102.558578,9.33525486 C102.556705,9.41804348 102.552334,9.78343456 102.552334,9.78343456 C102.554207,9.77968658 102.54734,9.86248831 102.54734,9.86248831 L102.547964,9.88925518 C102.53554,10.5030115 102.49758,11.0694607 102.437868,11.5873567 C102.437868,11.5829841 102.429814,11.6639205 102.429814,11.6639205 C102.250054,13.1777705 101.953974,13.7747202 101.952113,13.7803228 C101.921021,13.8886327 101.899856,13.9963198 101.899856,14.1040076 C101.899856,14.5279103 102.248806,14.875872 102.676122,14.875872 C102.97593,14.875872 103.254591,14.698468 103.380858,14.4258252 C103.415071,14.3623331 103.763396,13.713718 103.970527,11.8494171 L103.981079,11.7367495 C104.03833,11.167811 104.081223,10.5378702 104.103618,9.86622381 C104.103618,9.86247582 104.114169,9.47282216 104.114169,9.33712324 C104.193791,9.33712324 104.603695,9.33524924 104.68331,9.33524924 L104.68331,11.260553 C104.68331,11.6800987 104.945177,11.9838642 105.307812,11.9838642 C105.67355,11.9838642 105.950344,11.6732512 105.950344,11.260553 L105.950344,9.32778013 C106.029342,9.32778013 106.478429,9.32465681 106.560536,9.32465681 L106.560536,13.0507694 C106.560536,13.1167514 106.54062,13.1659269 106.497091,13.2032749 C106.333501,13.3389738 105.912403,13.264898 105.75379,13.2368881 L105.667949,13.2244385 C105.246851,13.2418667 104.960105,13.5450112 104.960105,13.973271 C104.960105,14.3137629 105.088238,14.4233178 105.227572,14.5372303 L105.263659,14.567108 C105.45337,14.7295732 105.766239,14.7432677 105.807296,14.7407778 C106.814948,14.7799942 107.364804,14.6592341 107.698825,14.3349266 C107.988063,14.0517019 108.116814,13.5979203 108.116814,12.8733641 L108.116814,12.7451493 L108.116814,9.32466993 L108.193945,9.32466993 C108.619401,9.32466993 108.93227,9.00160735 108.93227,8.55405044 C108.93227,8.10773849 108.619401,7.78405375 108.193945,7.78405375 L108.193963,7.78405624 Z" id="Fill-23" fill="#DF0011"></path>
                <path d="M67.3743351,18.5018253 C67.241226,18.6630455 67.1752957,18.9089215 67.1752957,19.2406987 L67.1752957,23.4822174 C67.0029969,23.1902787 64.7084067,19.3209974 64.7084067,19.3209974 C64.2910359,18.6144922 63.860604,18.2559494 63.4307964,18.2559494 C63.0588338,18.2559494 62.7926156,18.3474527 62.6451966,18.5248567 C62.4984019,18.7028835 62.4287382,19.0222112 62.4287382,19.5015142 L62.4287382,25.2133099 C62.4287382,25.550067 62.4909411,25.8027899 62.6221834,25.9584081 C62.7540501,26.1190055 62.9655325,26.2005492 63.2485455,26.2005492 C63.5272068,26.2005492 63.7368225,26.1177606 63.8736651,25.9540505 C64.0117502,25.7940752 64.0770624,25.5438422 64.0770624,25.2133099 L64.0770624,20.9842402 C64.251228,21.2736896 66.652805,25.3185077 66.652805,25.3185077 C66.8823246,25.7069295 67.0770185,25.9465807 67.2455839,26.0467987 C67.4097913,26.1482617 67.6399352,26.2005492 67.924815,26.2005492 C68.2544786,26.2005492 68.4908471,26.105311 68.6264411,25.9229272 C68.7607989,25.7405427 68.8261048,25.4286848 68.8261048,24.9711688 L68.8261048,19.2406987 C68.8261048,18.9064316 68.7607989,18.6555758 68.6264411,18.4968455 C68.4939563,18.3362481 68.283092,18.2559494 68.0044307,18.2559494 C67.7201753,18.2559494 67.5105597,18.3362481 67.3743351,18.5018253" id="Fill-24" fill="#1B1D80"></path>
                <path d="M59.4224419,18.4774865 C59.2831112,18.6250122 59.2128244,18.8484796 59.2128244,19.1441531 L59.2128244,25.3140882 C59.2128244,25.602292 59.2880878,25.8226467 59.4255517,25.9745301 C59.5655042,26.1245457 59.7763654,26.2004867 60.0481833,26.2004867 C60.3268434,26.2004867 60.5395708,26.1245457 60.6795233,25.9745301 C60.8157428,25.8294943 60.8866522,25.6072719 60.8866522,25.3140882 L60.8866522,19.1441531 C60.8866522,18.8534594 60.8144992,18.6281249 60.6770353,18.4805992 C60.5358391,18.3312058 60.3243554,18.2565091 60.0481833,18.2565091 C59.7720113,18.2565091 59.5636381,18.3312058 59.4224419,18.4774865" id="Fill-25" fill="#1B1D80"></path>
                <path d="M56.210073,18.4774865 C56.0738528,18.6250122 56.0016998,18.8484796 56.0016998,19.1441531 L56.0016998,21.21138 L52.9463892,21.21138 L52.9463892,19.1441531 C52.9463892,18.8534594 52.877346,18.6281249 52.7367716,18.4805992 C52.5968198,18.3312058 52.3847142,18.2565091 52.1110302,18.2565091 C51.8323695,18.2565091 51.6221307,18.3312058 51.4828001,18.4774865 C51.34347,18.6250122 51.2769148,18.8484796 51.2769148,19.1441531 L51.2769148,25.3140882 C51.2769148,25.602292 51.34347,25.8226467 51.4828001,25.9745301 C51.6221307,26.1226779 51.8323695,26.2004867 52.1110302,26.2004867 C52.3872022,26.2004867 52.6042837,26.1245457 52.7398815,25.9745301 C52.8792121,25.8294943 52.9463892,25.6072719 52.9463892,25.3140882 L52.9463892,22.717138 L56.0016998,22.717138 L56.0016998,25.3140882 C56.0016998,25.6041598 56.0738528,25.8257594 56.2144272,25.9745301 C56.3543797,26.1245457 56.5652409,26.2004867 56.841413,26.2004867 C57.120073,26.2004867 57.3352884,26.1245457 57.4758627,25.975775 C57.6133266,25.8294943 57.6848578,25.6072719 57.6848578,25.3140882 L57.6848578,19.1441531 C57.6848578,18.8534594 57.6120829,18.6281249 57.4702649,18.4805992 C57.3284462,18.3312058 57.1182069,18.2565091 56.841413,18.2565091 C56.5633747,18.2565091 56.3494031,18.3312058 56.210073,18.4774865" id="Fill-26" fill="#1B1D80"></path>
                <path d="M44.2442881,19.2634809 C43.5930442,20.0023543 43.2627569,21.0412589 43.2627569,22.3559178 C43.2627569,23.5778291 43.5899344,24.5519967 44.2312263,25.259124 C44.8750062,25.9618937 45.773188,26.3198145 46.8921831,26.3198145 C47.423379,26.3198145 47.8979723,26.2457405 48.3004126,26.1050624 C48.7047191,25.9606488 49.0909871,25.7278446 49.4461544,25.4153638 C49.6644795,25.2167955 49.8405082,24.9970637 49.9736186,24.7648816 C50.1054847,24.5233627 50.1757715,24.2992731 50.1757715,24.1007049 C50.1757715,23.8878199 50.0961545,23.7073032 49.9387861,23.5603997 C49.7801734,23.4110069 49.5910829,23.3363102 49.3665374,23.3363102 C49.2178766,23.3363102 49.0810346,23.3742835 48.9609866,23.4421302 C48.847159,23.50749 48.7184034,23.6307394 48.5834268,23.8050307 L48.4615134,24.0160485 L48.2910825,24.2818438 C48.1517525,24.4455539 47.9682598,24.5737831 47.744958,24.6652864 C47.5204125,24.7518099 47.2641444,24.7966277 46.9805083,24.7966277 C46.3379721,24.7966277 45.8360109,24.5737831 45.4907957,24.1318282 C45.1418481,23.6911188 44.9651976,23.0487285 44.9651976,22.2301786 C44.9651976,21.4278136 45.1412263,20.7935152 45.4876852,20.3384886 C45.8329005,19.8903095 46.3130922,19.6618623 46.9127095,19.6618623 C47.1988335,19.6618623 47.4557235,19.7097928 47.6765373,19.8031639 C47.8954843,19.8940444 48.0883071,20.0353453 48.2494079,20.2233317 L48.3993123,20.4393294 C48.4733315,20.5600888 48.5361544,20.6447446 48.5995991,20.7032569 C48.7165372,20.8134345 48.839695,20.8993352 48.9584986,20.9528677 C49.0810346,21.0045337 49.2097908,21.0362791 49.346011,21.0362791 C49.5879724,21.0362791 49.7801734,20.9597153 49.9251018,20.8134345 C50.0700297,20.6690209 50.1415609,20.4710754 50.1415609,20.2326686 C50.1415609,20.0148038 50.073762,19.7869794 49.9338101,19.5523075 C49.7951019,19.321371 49.6047665,19.114088 49.3646712,18.9354385 C49.019456,18.6665311 48.649982,18.4673401 48.263714,18.3422236 C47.8786902,18.2133722 47.4507475,18.1505023 46.9904603,18.1505023 C45.8229485,18.1505023 44.8998861,18.5258524 44.2442881,19.2634809" id="Fill-27" fill="#1B1D80"></path>
                <path d="M72.1311568,23.1442153 C72.1697409,23.0253236 73.0355558,20.361147 73.1207719,20.1021987 C73.2053636,20.3586571 74.0761795,23.0253236 74.115363,23.1442153 L72.1311568,23.1442153 Z M76.5567541,25.2643525 C76.5324673,25.1877886 76.4920663,25.0514675 76.4920663,25.0514675 L74.3417796,19.094418 C74.2099129,18.7402315 74.0693367,18.5204996 73.9082384,18.4177917 C73.7465159,18.3188187 73.5001953,18.2708882 73.153737,18.2708882 C72.7848836,18.2708882 72.5311085,18.3213111 72.3712527,18.4271286 C72.2132574,18.5298365 72.0751723,18.7582837 71.9482816,19.1137145 L69.8371847,25.0527125 C69.8371847,25.0514632 69.7750005,25.2643525 69.7750005,25.2643525 L69.7569571,25.4753703 C69.7569571,25.6975927 69.8328393,25.8787316 69.9827494,26.0113178 C70.1320289,26.1482617 70.3260922,26.2154887 70.5637033,26.2154887 C70.7714521,26.2154887 70.9400175,26.1644474 71.0774845,26.0660952 C71.2099693,25.9652551 71.3070041,25.8133723 71.3754254,25.6123142 C71.3754254,25.6123142 71.6615476,24.7165782 71.7150409,24.5503782 L74.6049011,24.5503782 C74.6266906,24.6157374 74.9563354,25.6123142 74.9563354,25.6123142 C75.0222656,25.8164844 75.1205429,25.970857 75.2524095,26.0704529 C75.3830338,26.1656911 75.5515991,26.2154887 75.7568631,26.2154887 C75.996959,26.2154887 76.1966227,26.1482617 76.3434173,26.0113178 C76.4982972,25.8737517 76.5760461,25.6919901 76.5760461,25.4753703 C76.5760461,25.4753703 76.5804165,25.3415391 76.5567541,25.2643525 L76.5567541,25.2643525 Z" id="Fill-28" fill="#1B1D80"></path>
                <path d="M128.548733,18.5018253 C128.416242,18.6630455 128.345954,18.9089215 128.345954,19.2406987 L128.345954,23.4822174 C128.174903,23.1902787 125.882174,19.3209974 125.882174,19.3209974 C125.464185,18.6144922 125.034995,18.2559494 124.60457,18.2559494 C124.230116,18.2559494 123.967631,18.3474527 123.820212,18.5248567 C123.671551,18.7028835 123.60002,19.0222112 123.60002,19.5015142 L123.60002,25.2133099 C123.60002,25.5550468 123.665333,25.7996778 123.795957,25.9584081 C123.927199,26.1190055 124.138057,26.2005492 124.422943,26.2005492 C124.700356,26.2005492 124.909353,26.1177606 125.047439,25.9540505 C125.182414,25.7915853 125.25146,25.5438422 125.25146,25.2133099 L125.25146,20.9842402 C125.423135,21.2718219 127.824087,25.3185077 127.824087,25.3185077 C128.054231,25.7069295 128.25141,25.9465807 128.420593,26.0455538 C128.583565,26.1482617 128.814951,26.2005492 129.099206,26.2005492 C129.427628,26.2005492 129.663372,26.105311 129.797105,25.9229272 C129.933324,25.7405427 129.999254,25.4286848 129.999254,24.9711688 L129.999254,19.2406987 C129.999254,18.9064316 129.930832,18.6555758 129.801457,18.4968455 C129.666481,18.3362481 129.456865,18.2559494 129.173228,18.2559494 C128.894567,18.2559494 128.683084,18.3362481 128.548733,18.5018253" id="Fill-29" fill="#1B1D80"></path>
                <path d="M110.009923,18.3577234 C109.639203,18.3577234 109.372984,18.4486039 109.225565,18.6284985 C109.080019,18.8083924 109.00724,19.1283423 109.00724,19.6120029 L109.00724,24.8569452 C109.00724,25.3387375 109.080019,25.658688 109.225565,25.8367148 C109.372984,26.0147416 109.639203,26.1049999 110.009923,26.1049999 L114.048005,26.1049999 C114.338485,26.1049999 114.561168,26.0415078 114.714181,25.9163913 C114.868437,25.7869172 114.950544,25.5995535 114.950544,25.3542997 C114.950544,25.1046889 114.871546,24.9129676 114.722267,24.7903404 C114.568005,24.6652239 114.342837,24.6048445 114.048005,24.6048445 L110.656813,24.6048445 L110.656813,22.7268484 L113.516811,22.7268484 C113.805424,22.7268484 114.021883,22.6683361 114.174278,22.5500666 C114.331024,22.4299299 114.410016,22.2531481 114.410016,22.0278136 C114.410016,21.7912745 114.333509,21.6107578 114.182363,21.493111 C114.031835,21.3760858 113.811025,21.3181963 113.516811,21.3181963 L110.656813,21.3181963 L110.656813,19.786917 L113.844608,19.786917 C114.135712,19.786917 114.359632,19.7265369 114.511402,19.609513 C114.667531,19.4893757 114.747146,19.3163287 114.747146,19.0841473 C114.747146,18.8451183 114.667531,18.6639788 114.511402,18.5419743 C114.360256,18.4181028 114.135712,18.3577234 113.844608,18.3577234 L110.009923,18.3577234 Z" id="Fill-30" fill="#1B1D80"></path>
                <path d="M102.484787,18.3741564 C102.220436,18.3741564 102.015172,18.4376486 101.877087,18.5577852 C101.737753,18.6835245 101.66498,18.8640412 101.66498,19.1055601 C101.66498,19.3433442 101.735268,19.5251058 101.872104,19.6464875 C102.004595,19.7641348 102.212969,19.8226471 102.484787,19.8226471 L104.025507,19.8226471 L104.025507,25.3140882 C104.025507,25.602292 104.09828,25.8238917 104.236989,25.9745301 C104.378183,26.1257906 104.589048,26.2004867 104.867709,26.2004867 C105.142012,26.2004867 105.352252,26.1257906 105.490962,25.9745301 C105.62718,25.8294943 105.699335,25.6072719 105.699335,25.3140882 L105.699335,19.8226471 L107.243157,19.8226471 C107.509382,19.8226471 107.715264,19.7622671 107.849622,19.6408855 C107.989574,19.520126 108.057995,19.3396093 108.057995,19.1055601 C108.057995,18.8640412 107.989574,18.6835245 107.849622,18.5577852 C107.715264,18.4376486 107.509382,18.3741564 107.243157,18.3741564 L102.484787,18.3741564 Z" id="Fill-31" fill="#1B1D80"></path>
                <path d="M81.7234107,18.3577234 C81.3495876,18.3577234 81.0883391,18.4486039 80.9365685,18.6284985 C80.7910226,18.8083924 80.7163828,19.1283423 80.7163828,19.6120029 L80.7163828,24.8569452 C80.7163828,25.3387375 80.7910226,25.658688 80.9365685,25.8367148 C81.0883391,26.0147416 81.3470965,26.1049999 81.7234107,26.1049999 L85.7571477,26.1049999 C86.0476216,26.1049999 86.2709227,26.0415078 86.423942,25.9163913 C86.5788218,25.7869172 86.6565708,25.5995535 86.6565708,25.3542997 C86.6565708,25.1046889 86.5819311,24.9129676 86.4251845,24.7915854 C86.2771474,24.6652239 86.0501127,24.6048445 85.7571477,24.6048445 L82.3715498,24.6048445 L82.3715498,22.7268484 L85.2278142,22.7268484 C85.5108272,22.7268484 85.7322678,22.6683361 85.8821717,22.5500666 C86.0389183,22.4299299 86.118534,22.2531481 86.118534,22.0290585 C86.118534,21.7912745 86.0407788,21.6107578 85.8883901,21.493111 C85.7409711,21.3760858 85.5189186,21.3181963 85.2278142,21.3181963 L82.3715498,21.3181963 L82.3715498,19.786917 L85.5556173,19.786917 C85.8448487,19.786917 86.0687742,19.7265369 86.2192961,19.609513 C86.3735578,19.4893757 86.4525492,19.3163287 86.4525492,19.0841473 C86.4525492,18.8451183 86.3735578,18.6639788 86.2192961,18.5419743 C86.0687742,18.4199706 85.8448487,18.3577234 85.5556173,18.3577234 L81.7234107,18.3577234 Z" id="Fill-32" fill="#1B1D80"></path>
                <path d="M95.9260664,18.7772066 C95.4073154,19.1899048 95.1442001,19.7694258 95.1442001,20.5076764 C95.1442001,21.1581592 95.3245842,21.6636056 95.6797521,22.0053419 C96.0330531,22.3470788 96.7153997,22.6321706 97.7106151,22.859995 L97.81822,22.8867618 C99.070326,23.1737213 99.7066463,23.5366219 99.7066463,23.9655044 C99.7066463,24.2736282 99.5897076,24.5026975 99.3539633,24.6614272 C99.1132431,24.8214025 98.754348,24.902324 98.2766411,24.902324 C97.9768334,24.902324 97.7149668,24.8575043 97.4960235,24.7697377 C97.2845411,24.6813465 97.1016659,24.5481375 96.9542531,24.3694885 L96.7415221,24.0632325 C96.4945834,23.6897502 96.2233892,23.498651 95.9310424,23.498651 C95.7058807,23.498651 95.5198963,23.5777054 95.3787019,23.7302109 C95.2418593,23.8827158 95.1715712,24.0831518 95.1715712,24.3203131 C95.1715712,24.5481375 95.2418593,24.7821867 95.3830536,25.0212157 C95.5198963,25.2571326 95.7127172,25.4613028 95.9428611,25.62937 C96.2837253,25.8721339 96.6432448,26.0470486 97.0071222,26.1553585 C97.3685085,26.2661583 97.8051588,26.3196908 98.301521,26.3196908 C99.2357822,26.3196908 99.9840589,26.0899986 100.526454,25.6430645 C101.071333,25.1955076 101.345019,24.5755265 101.345019,23.8030399 C101.345019,23.3828714 101.26913,23.0174809 101.111765,22.7280322 C100.955637,22.4317358 100.712432,22.187727 100.385877,22.0028533 C100.203627,21.9045024 99.9821922,21.808642 99.7271683,21.7239857 C99.4740113,21.6387071 99.0690836,21.5272852 98.5223373,21.3909641 L98.033436,21.2739395 C97.1906155,21.0753706 96.7657839,20.7859218 96.7657839,20.4130616 C96.7657839,20.1323269 96.8690371,19.9219319 97.0817619,19.7644466 C97.2951111,19.611941 97.6073619,19.5341322 98.0023376,19.5341322 C98.2766411,19.5341322 98.5173613,19.5721056 98.7182674,19.6486669 C98.9142038,19.7246086 99.0796599,19.8410104 99.2090355,19.9904038 L99.358315,20.1852372 C99.6214302,20.5307084 99.9025764,20.7062453 100.190565,20.7062453 C100.413248,20.7062453 100.596742,20.6371512 100.736694,20.502075 C100.872288,20.3663761 100.940091,20.1852372 100.940091,19.962392 C100.940091,19.7625788 100.869178,19.5478268 100.731718,19.3212467 C100.592384,19.1002698 100.411382,18.9066814 100.188081,18.7523082 C99.9087949,18.5537399 99.5915743,18.4037243 99.2438674,18.3059962 C98.8986515,18.2095137 98.5105185,18.1615832 98.0887961,18.1615832 C97.1688448,18.1615832 96.44109,18.3688662 95.9260664,18.7772073" id="Fill-33" fill="#1B1D80"></path>
                <path d="M120.335963,21.470079 C120.159312,21.6238295 119.869456,21.7022611 119.481948,21.7022611 L117.686205,21.7022611 L117.686205,19.7763352 L119.555963,19.7763352 C119.901179,19.7763352 120.164288,19.8603687 120.340939,20.0209662 C120.513862,20.1809414 120.600938,20.4230825 120.600938,20.7405431 C120.600938,21.0754324 120.513862,21.3181963 120.335963,21.470079 Z M122.127354,24.6882553 C122.110559,24.6048445 122.097511,24.4504712 122.090019,24.2257595 L122.059551,23.6686478 C122.027834,23.3132163 121.933284,23.0287474 121.781514,22.8139947 C121.647162,22.6247633 121.449359,22.4921771 121.208645,22.3894692 C121.533957,22.2643527 121.789599,22.0601818 121.973092,21.7726002 C122.172138,21.4563851 122.2729,21.053646 122.2729,20.5787007 C122.2729,19.8323575 122.064527,19.2671539 121.654005,18.9054977 C121.246586,18.5419743 120.612757,18.3577234 119.769312,18.3577234 L117.018168,18.3577234 C116.646205,18.3577234 116.383096,18.4486039 116.235677,18.6284985 C116.087016,18.8083924 116.014861,19.1283423 116.014861,19.6120029 L116.014861,25.3144612 C116.014861,25.6026656 116.083907,25.8223981 116.220749,25.9742808 C116.362568,26.1255414 116.573426,26.2008603 116.849602,26.2008603 C117.127015,26.2008603 117.338504,26.1255414 117.479074,25.9742808 C117.615292,25.829245 117.686205,25.6064005 117.686205,25.3144612 L117.686205,23.1314547 L119.302806,23.1314547 C119.688454,23.1314547 119.960891,23.1999266 120.105201,23.3337578 C120.25448,23.4675896 120.349648,23.8373371 120.388838,24.4330425 C120.441719,25.2285605 120.538742,25.7084856 120.687397,25.9064317 C120.834816,26.1062449 121.085488,26.2114427 121.429455,26.2114427 C121.678261,26.2114427 121.880415,26.141103 122.034053,26.0060269 C122.183957,25.8678387 122.263572,25.6804744 122.263572,25.4464252 C122.263572,25.3760862 122.241783,25.2553267 122.203886,25.0772999 L122.127354,24.6882553 Z" id="Fill-34" fill="#1B1D80"></path>
                <path d="M89.9224955,23.1442153 C89.9623283,23.0253236 90.8275188,20.361147 90.9127349,20.1021987 C90.9991934,20.3586571 91.8681425,23.0253236 91.907326,23.1442153 L89.9224955,23.1442153 Z M94.3487171,25.2643525 C94.3250546,25.1877886 94.2852717,25.0514675 94.2852717,25.0514675 L92.1337364,19.094418 C92.0031184,18.7402315 91.8600573,18.5204996 91.7001952,18.4177917 C91.539097,18.3188187 91.2921583,18.2708882 90.9450757,18.2708882 C90.5768466,18.2708882 90.3230715,18.3213111 90.1625913,18.4271286 C90.0052204,18.5298365 89.8665172,18.7582837 89.7408689,19.1137145 L87.6285234,25.0527125 C87.6285234,25.0514632 87.5663392,25.2643525 87.5663392,25.2643525 L87.5482958,25.4753703 C87.5482958,25.6975927 87.626051,25.8787316 87.774088,26.0113178 C87.9252343,26.1482617 88.1180552,26.2154887 88.3556663,26.2154887 C88.562797,26.2154887 88.7326048,26.1644474 88.8681988,26.0660952 C89.0013142,25.9652551 89.0995914,25.8133723 89.1686308,25.6123142 C89.1686308,25.6123142 89.4535106,24.7165782 89.5063859,24.5503782 L92.3968641,24.5503782 C92.4192779,24.6157374 92.7476741,25.6123142 92.7476741,25.6123142 C92.8142286,25.8164844 92.9137483,25.970857 93.0443726,26.0704529 C93.1743725,26.1656911 93.3429378,26.2154887 93.5494442,26.2154887 C93.7889158,26.2154887 93.9885857,26.1482617 94.1359984,26.0113178 C94.2896358,25.8737517 94.3686335,25.6919901 94.3686335,25.4753703 C94.3686335,25.4753703 94.3711308,25.3415391 94.3487171,25.2643525 L94.3487171,25.2643525 Z" id="Fill-35" fill="#1B1D80"></path>
            </g>
        </g>
    </g>
</svg>