<?xml version="1.0" encoding="UTF-8"?>
<svg width="77px" height="64px" viewBox="0 0 77 64" version="1.1" xmlns="http://www.w3.org/2000/svg" xmlns:xlink="http://www.w3.org/1999/xlink">
    <title>Emirates</title>
    <g id="Taskboard" stroke="none" stroke-width="1" fill="none" fill-rule="evenodd">
        <g id="Emirates">
            <rect id="Rectangle" x="0" y="0" width="77" height="64"></rect>
            <g id="Emirates_logo" transform="translate(18.000000, 18.000000)" fill="#D71A21" fill-rule="nonzero">
                <g id="g866">
                    <path d="M23.0067081,1.65354331 C22.6732775,2.08223972 22.4880383,2.60892388 22.4880383,3.14785652 C22.4880383,3.33158355 22.4880383,7.67979003 22.4880383,7.83902012 C22.4633398,8.19422572 22.3274977,8.52493438 22.1052107,8.80664917 C21.9817179,8.92913386 21.2531104,9.57830271 21.191364,9.65179353 L21.5988902,9.66404199 C21.7347323,9.54155731 23.1425502,8.30446194 23.2783922,8.13298338 C23.6859185,7.6920385 23.9205548,7.11636045 23.9205548,6.51618548 C23.9205548,6.32020997 23.9205548,2.19247594 23.9205548,2.00874891 C23.9082055,1.55555556 24.0810954,1.1023622 24.4021767,0.771653543 C24.5750666,0.587926509 25.1184349,0.134733158 25.2172292,0.0244969379 L24.7850044,0.0122484689 C24.6985594,0.122484689 23.1548994,1.50656168 23.0067081,1.65354331 Z" id="path6"></path>
                    <path d="M19.5365605,18.7156605 L21.2531104,20.1977253 L22.4015934,20.1977253 C23.5006793,20.1977253 24.5627173,19.7690289 25.340722,18.9973753 C26.0446309,18.2992126 26.3039658,17.3560805 26.3039658,16.4741907 L26.3039658,14.0367454 C26.2916165,13.4855643 26.0569802,12.9588801 25.6371047,12.5914261 C25.563009,12.5179353 25.0566885,12.040245 25.0566885,12.040245 L25.0566885,13.9142607 C25.0566885,13.9142607 25.6124061,14.4776903 25.7112003,14.5879265 C26.2175208,15.1268591 26.2175208,16.1067367 24.5997652,17.6622922 C24.3157317,17.9317585 23.5130286,18.6911636 22.4015934,18.6911636 L19.5365605,18.7156605 Z" id="path8"></path>
                    <path d="M24.3157317,8.70866142 C24.1304925,8.90463692 23.9452533,9.39457568 23.9452533,9.83552056 L23.9452533,10.7541557 L24.8837986,10.7541557 C25.254277,10.7541557 25.7358989,10.4234471 25.8346931,10.2519685 C25.8346931,10.23972 25.8346931,9.33333333 25.8346931,9.33333333 C25.9705352,9.52930884 26.1434251,9.71303587 26.3410136,9.8600175 C26.4398078,9.73753281 27.3042574,8.70866142 28.0205156,8.69641295 C29.2183958,8.68416448 28.9467116,10.1907262 28.4650897,10.6684164 C28.3045491,10.8276465 27.6006401,11.4645669 27.3783531,11.6727909 C26.8102862,12.2117235 25.8346931,11.9545057 25.8346931,10.5704287 C25.8346931,10.5704287 24.7973536,11.5503062 24.636813,11.6850394 C24.4762724,11.8197725 23.9452533,12.3832021 23.9452533,12.3832021 L23.9452533,14.8206474 C23.9452533,15.984252 23.5624257,16.376203 23.2413444,16.7314086 C23.1178516,16.8661417 21.7964787,18.0664917 21.6112395,18.2012248 L21.1790147,18.2134733 C21.1790147,18.2134733 21.9570193,17.5153106 22.1052107,17.3560805 C22.2781006,17.1723535 22.4880383,16.8048994 22.4880383,16.1924759 C22.4880383,16.0332458 22.4633398,12.3709536 22.4633398,12.3709536 L16.4368913,12.3709536 C14.3375137,12.3709536 13.8929397,10.0682415 13.8805904,9.44356955 C13.8805904,9.25984252 13.8805904,7.42257218 13.8805904,7.12860892 C13.8805904,6.74890639 13.6336048,6.111986 13.2507771,5.9160105 L13.8435425,5.9160105 C13.9176382,5.94050744 14.2881166,6.08748906 14.2881166,7.50831146 C14.2881166,7.50831146 14.2634181,9.1496063 14.2634181,9.24759405 C14.2634181,9.97025372 14.8438342,10.7909011 15.6712359,10.7909011 L22.4880383,10.7786527 C22.4880383,10.5949256 22.6732775,9.90901137 23.0067081,9.54155731 C23.1919473,9.33333333 24.6615116,8.01049869 24.8220522,7.87576553 L25.254277,7.87576553 C25.1925306,7.93700787 24.4762724,8.56167979 24.328081,8.73315836 L24.328081,8.73315836 L24.3157317,8.70866142 Z M26.5509514,10.0927384 C26.7238413,10.3254593 26.9214298,10.5581802 27.1313675,10.7664042 C27.8723243,11.3543307 28.2181041,10.7174103 27.7241329,10.055993 C27.5265445,9.78652668 26.7732384,9.8600175 26.5509514,10.0927384 Z" id="path10"></path>
                    <path d="M19.2401778,14.4531934 C19.2401778,14.783902 18.190489,15.6535433 18.1287426,15.7025372 C18.0546469,15.3473316 17.7829628,14.967629 17.0049582,14.183727 L18.1534412,13.0446194 C18.9314458,13.816273 19.2401778,13.9877515 19.2401778,14.4531934 L19.2401778,14.4531934 Z" id="path12"></path>
                    <path d="M21.2407611,1.35958005 C21.4753974,1.59230096 21.9693686,2.20472441 21.6729859,2.51093613 C21.413651,2.76815398 21.0061248,3.18460192 21.0061248,3.18460192 C20.9814262,3.0376203 20.5985985,2.67016623 20.5985985,2.67016623 C20.5985985,2.67016623 20.5985985,3.77252843 20.5985985,3.90726159 C20.5862493,4.40944882 20.4010101,4.54418198 20.4010101,4.54418198 C20.4010101,4.54418198 21.327206,5.45056868 21.327206,6.6264217 C21.327206,7.18985127 21.327206,7.71653543 21.327206,7.82677165 C21.3395553,8.04724409 21.2531104,8.279965 21.0925697,8.4391951 C21.0061248,8.53718285 20.1540245,9.39457568 20.0181824,9.5048119 C19.8205939,9.67629046 19.5736083,9.77427822 19.3142735,9.76202975 L16.11581,9.76202975 C15.6094895,9.76202975 15.0908198,9.37007874 15.0908198,8.97812773 C15.0908198,8.88013998 15.1031691,7.80227472 15.1031691,7.80227472 C15.2637097,7.98600175 15.4365996,8.20647419 15.8317766,8.20647419 C16.1528579,8.20647419 16.4739391,7.96150481 16.5603841,7.86351706 C16.646829,7.76552931 18.9808429,5.3648294 18.9808429,5.3648294 C18.9808429,5.3648294 17.8941063,4.36045494 17.1778481,3.88276465 C16.8320682,3.65004374 16.3627956,3.944007 16.2886999,4.25021872 C16.0664129,5.2055993 16.2886999,6.65091864 16.2886999,6.65091864 L15.4119011,5.78127734 C15.053772,5.42607174 15.0661212,4.62992126 15.498346,4.21347332 C15.5600924,4.1399825 16.2146043,3.4295713 17.0296567,3.4295713 L18.3016325,3.4295713 C19.1537328,3.4295713 20.0922781,4.27471566 20.0922781,4.27471566 C20.1663738,4.18897638 20.2157709,4.09098863 20.2281202,3.98075241 C20.2281202,3.53980752 20.2157709,2.37620297 20.2157709,2.37620297 C19.5736083,1.73928259 19.4871634,1.07786527 19.7958954,0.771653543 C20.3763115,0.195975503 20.5862493,0 20.5862493,0 C20.5862493,0 20.5615507,0.69816273 21.2407611,1.35958005 L21.2407611,1.35958005 Z M17.2272452,7.7287839 C16.9061639,8.05949256 16.8567668,8.13298338 16.5603841,8.31671041 L20.1663738,8.31671041 C21.1419669,8.31671041 20.9443784,7.71653543 20.7714885,7.41032371 C20.4133593,6.78565179 19.2772256,5.63429571 19.2772256,5.63429571 C19.2772256,5.63429571 17.2889916,7.66754156 17.2272452,7.7287839 L17.2272452,7.7287839 Z" id="path14"></path>
                    <path d="M13.114935,10.9868766 L12.5221696,10.9868766 C12.5221696,10.9868766 13.1519829,11.3298338 13.1519829,12.223972 L13.1519829,15.0778653 C13.1519829,16.9273841 14.6956428,18.6421697 16.5727334,18.6421697 L18.1410919,18.6421697 C19.0796371,18.6421697 19.4130677,18.4216973 19.9811346,17.9195101 C20.1910723,17.735783 20.4627565,17.4295713 20.5615507,17.3193351 C20.882632,16.951881 21.2407611,16.6579178 21.2407611,15.7025372 L21.2407611,14.7716535 C21.2407611,13.9632546 20.7714885,13.6325459 20.5368521,13.399825 C20.3886608,13.2528434 19.9934838,12.8731409 19.9934838,12.8731409 L19.9934838,14.783902 C19.9934838,14.783902 20.3886608,15.20035 20.5615507,15.3350831 C21.3766032,15.9720035 20.7344406,17.0743657 19.9687853,17.0743657 C19.8205939,17.0743657 16.7456233,17.0743657 16.5233362,17.0743657 C15.2637097,17.0988626 13.5471598,15.984252 13.5471598,14.0979878 L13.5471598,12.5546807 C13.5595091,10.9868766 13.114935,10.9868766 13.114935,10.9868766 L13.114935,10.9868766 Z" id="path16"></path>
                    <path d="M16.8938146,14.4654418 C16.8938146,14.7961505 15.8441259,15.6657918 15.7823795,15.7147857 C15.7082838,15.3595801 15.4365996,14.9798775 14.658595,14.1959755 L15.807078,13.0568679 C16.5727334,13.816273 16.8938146,13.9877515 16.8938146,14.4654418 L16.8938146,14.4654418 Z" id="path18"></path>
                    <path d="M4.85326692,27.1426072 L3.00087497,27.1426072 C2.42045882,27.1426072 2.46985594,26.6649169 2.40810954,26.2607174 L2.40810954,23.6395451 C2.40810954,23.6395451 2.81563577,23.6272966 3.27255912,23.6272966 C3.77887959,23.6272966 4.42104213,23.5538058 5.03850612,23.8967629 C4.71742485,23.2230971 4.02586518,22.8066492 3.27255912,22.8311461 L2.42045882,22.8311461 L2.42045882,21.9860017 C2.42045882,21.9860017 2.42045882,21.2510936 2.23521963,21.0428696 L3.45779832,21.0428696 C4.50748709,21.0428696 5.32253955,21.0306212 6.17463985,21.5818023 C6.17463985,21.5818023 6.01409922,20.1977253 3.97646806,20.1977253 L0,20.1977253 C0,20.1977253 0.691559663,20.7856518 0.666861104,21.9737533 L0.691559663,26.7506562 C0.691559663,27.9510061 1.17318157,27.9877515 1.17318157,27.9877515 L5.08790324,27.9877515 C5.97705138,27.9877515 6.28578337,27.3630796 6.28578337,27.0201225 L6.29813265,26.5669291 C6.29813265,26.5669291 6.01409922,27.1426072 4.85326692,27.1426072 L4.85326692,27.1426072 Z" id="path20"></path>
                    <path d="M15.276059,26.7384077 L15.276059,23.3945757 C15.276059,22.096238 14.2140209,21.7532808 13.4113178,21.7532808 C12.361629,21.7532808 12.0405477,22.6229221 11.9047056,22.9291339 C11.6700693,22.1207349 10.8426676,21.7532808 10.1758065,21.7532808 C8.90383067,21.7532808 8.58274939,22.9536308 8.58274939,22.9536308 C8.58274939,22.9536308 8.55805083,21.7900262 7.53306062,21.7900262 L6.53276896,21.7900262 C6.53276896,21.7900262 7.11318511,22.0227472 7.11318511,23.0271216 L7.11318511,26.7384077 C7.11318511,27.9632546 7.6071563,27.9877515 7.6071563,27.9877515 L9.26195978,27.9877515 C8.86678283,27.6937883 8.63214651,27.2283465 8.63214651,26.7261592 L8.63214651,23.4313211 C8.65684507,23.2843395 8.90383067,22.7944007 9.60773961,22.7944007 C10.0152658,22.7944007 10.4598399,23.2108486 10.4474906,23.6762905 L10.4474906,26.7384077 C10.4474906,27.9755031 10.9414618,27.9877515 10.9414618,27.9877515 L12.5962653,27.9877515 C12.2010883,27.6815398 11.966452,27.2283465 11.966452,26.7261592 L11.966452,23.4313211 C12.1269927,22.9536308 12.6456624,22.6841645 13.1396336,22.8433946 C13.510112,22.9658793 13.7694469,23.2965879 13.7817961,23.6885389 C13.7817961,23.6885389 13.7817961,26.4811899 13.7817961,26.7384077 C13.7941454,27.9877515 14.2757673,27.9755031 14.2757673,27.9755031 C15.1402169,27.9755031 15.9305708,27.9755031 15.9305708,27.9755031 C15.5230446,27.6815398 15.2884083,27.2283465 15.276059,26.7384077 Z" id="path22"></path>
                    <path d="M18.1657904,26.7384077 C18.1657904,27.2283465 18.4004268,27.6937883 18.7956037,27.9877561 C18.7956037,27.9877561 18.0052498,27.9877561 17.1408002,27.9877561 C17.1408002,27.9877561 16.6344798,28 16.6344798,26.7506562 L16.6344798,23.0148731 C16.6344798,22.0349956 16.0664129,21.7777778 16.0664129,21.7777778 L17.0667045,21.7777778 C17.4248337,21.7777778 18.1534412,21.7777778 18.1534412,23.1618548 L18.1534412,26.7139108 L18.1534412,26.7139108 L18.1534412,26.7139108 L18.1657904,26.7384077 Z" id="path24"></path>
                    <path d="M23.2536937,22.2554681 C23.2536937,22.2554681 23.093153,21.8145232 22.4139427,21.8145232 C21.3766032,21.8145232 21.1296176,23.0393701 21.1296176,23.0393701 C21.0431726,22.071741 20.7838377,21.7900262 20.0552302,21.7900262 L19.0549386,21.7900262 C19.0549386,21.7900262 19.6353547,22.0227472 19.6353547,23.0271216 L19.6353547,26.7384077 C19.6353547,27.9632546 20.1293259,27.9877515 20.1293259,27.9877515 L21.7841294,27.9877515 C21.3889524,27.6937883 21.1543161,27.2283465 21.1543161,26.7384077 L21.1543161,23.6885389 C21.191364,23.4313211 21.3395553,23.1986002 21.5618424,23.063867 C22.1175599,22.6964129 22.8461675,22.8066492 23.2783922,23.3088364 L23.2536937,22.2554681 Z" id="path26"></path>
                    <path d="M30.9472949,22.4759405 C31.2930748,22.4759405 31.6265053,22.5616798 31.922888,22.7209099 L31.922888,21.7900262 L30.5397687,21.7900262 L30.5397687,20.3692038 C30.243386,20.8346457 29.8605583,21.2510936 29.4283335,21.6062992 C28.9590609,21.9860017 27.9711185,22.463692 27.9711185,22.463692 L29.0208073,22.4759405 L29.0208073,26.7874016 C29.0208073,27.9877515 29.5271278,27.9877515 29.5271278,27.9877515 C30.4286252,27.9877515 31.169582,27.9877515 31.169582,27.9877515 C30.774405,27.7060367 30.5397687,27.2528434 30.5274194,26.7751531 L30.5274194,22.4759405 C30.9719935,22.4759405 30.6756108,22.4759405 30.9472949,22.4759405 L30.9472949,22.4759405 Z" id="path28"></path>
                    <path d="M35.9611025,24.3499563 C35.0349065,25.3053368 34.306299,25.1583552 33.7258829,25.8687664 C33.7258829,25.8687664 33.8246771,26.824147 34.5532846,27.1548556 C34.8002702,27.2650919 35.8252604,27.6325459 36.4797722,26.5056868 L36.4797722,27.5100612 C36.4797722,27.5100612 36.0598967,28 34.7138252,28 C33.0960696,28 31.9846344,26.7384077 31.9846344,25.023622 C31.9846344,23.3333333 32.8861318,21.7777778 34.6026817,21.7655293 C36.2698345,21.7410324 37.1836812,23.088364 35.9611025,24.3499563 Z M34.9484616,23.9580052 C35.2201457,23.455818 35.4424327,22.1819773 34.5038875,22.2554681 C33.4171509,22.3412073 33.6270886,25.1951006 33.6270886,25.1951006 C33.9852177,24.8031496 34.528586,24.7174103 34.9484616,23.9580052 L34.9484616,23.9580052 Z" id="path30"></path>
                    <path d="M17.4001351,21.287839 C17.8200106,21.2755906 18.1410919,20.9326334 18.1410919,20.5284339 C18.1287426,20.111986 17.7829628,19.7935258 17.3754365,19.7935258 C16.9679103,19.8057743 16.6344798,20.1364829 16.6344798,20.5406824 C16.6344798,20.9571304 16.9802596,21.287839 17.4001351,21.287839 Z" id="path32"></path>
                    <path d="M24.9702436,27.2773403 C24.5997652,27.2773403 24.328081,26.8853893 24.328081,26.4934383 C24.328081,24.9501312 25.6000568,24.7296588 25.9458367,24.3254593 L25.9458367,26.9343832 C25.785296,27.0568679 25.6371047,27.2773403 24.9702436,27.2773403 L24.9702436,27.2773403 Z M25.9458367,23.7252843 C25.563009,24.3867017 22.5744833,24.5336833 23.0314066,26.824147 C23.2166458,27.7305337 23.8217605,28 24.5874159,28 C25.3283727,28 25.785296,27.6202975 25.9705352,27.2528434 C26.0816787,27.9387577 26.4398078,27.9877515 26.4398078,27.9877515 C27.3042574,27.9877515 28.0946113,27.9877515 28.0946113,27.9877515 C27.6994344,27.6937883 27.4524488,27.2405949 27.4524488,26.7506562 L27.4524488,23.2598425 C27.4524488,22.4269466 26.5262528,21.7777778 25.5383104,21.7777778 C24.9825928,21.7655293 24.4515738,21.9247594 23.9946505,22.2309711 L23.9946505,23.3088364 C23.9946505,23.3088364 24.3404303,22.4514436 25.1925306,22.4514436 C26.0322816,22.4514436 26.094028,22.8678915 26.094028,23.0761155 C26.1063773,23.2965879 26.0693295,23.5293088 25.9458367,23.7252843 L25.9458367,23.7252843 Z" id="path34"></path>
                    <path d="M39.6164893,26.2974628 C39.6288386,26.7384077 39.2336616,27.3140857 38.3939106,27.3140857 C37.529461,27.3140857 37.1836812,26.4444444 37.1836812,26.4444444 L37.1836812,27.5468066 C37.6529538,27.8407699 38.1963221,27.9877515 38.7520397,27.9877515 C39.8758242,27.9877515 41.0243072,27.1426072 40.9996086,25.9545057 C40.9872593,25.5625547 40.8514173,25.1828521 40.6167809,24.8766404 C40.2339533,24.3744532 39.5423936,24.0192476 38.9990253,23.6885389 C38.6902933,23.5048119 38.5297527,23.1618548 38.5297527,23.0516185 C38.5174034,22.8433946 38.6285469,22.4269466 39.4559487,22.4269466 C40.2710011,22.4269466 40.6291302,23.2843395 40.6291302,23.2843395 L40.6291302,22.2432196 C40.1722069,21.9247594 39.6164893,21.7532808 39.0484224,21.7532808 C38.06048,21.7532808 37.1589826,22.4024497 37.1836812,23.2353456 C37.1960305,23.9702537 37.5047625,24.4356955 38.1098772,24.8888889 C38.3815613,25.0848644 38.6655948,25.256343 38.9619775,25.4155731 C39.4312501,25.6727909 39.60414,25.9912511 39.6164893,26.2974628 L39.6164893,26.2974628 Z" id="path36"></path>
                </g>
            </g>
        </g>
    </g>
</svg>