<?xml version="1.0" encoding="UTF-8"?>
<svg width="103px" height="64px" viewBox="0 0 103 64" version="1.1" xmlns="http://www.w3.org/2000/svg" xmlns:xlink="http://www.w3.org/1999/xlink">
    <title>Ethiopian</title>
    <g id="Taskboard" stroke="none" stroke-width="1" fill="none" fill-rule="evenodd">
        <g id="Ethiopian">
            <rect id="Rectangle" x="0" y="0" width="103" height="64"></rect>
            <g id="Ethiopian_Airlines_Logo" transform="translate(18.000000, 18.000000)" fill-rule="nonzero">
                <path d="M62.5524909,10.7706281 C62.4699323,10.7697994 62.3864472,10.7772458 62.2808883,10.8069 C61.0214819,11.1841328 56.4366234,12.7561771 51.037768,13.5091913 C50.7965828,13.5411114 50.8596168,13.6550057 51.1463405,13.6724166 C54.7542866,14.014102 56.1194256,14.0518253 57.7727953,14.0351401 C59.3587854,13.9836333 60.547163,14.2041698 61.8825809,12.7837442 C63.1100065,11.5110367 63.1302839,10.7766977 62.5524909,10.7706281 L62.5524909,10.7706281 Z M12.9812189,11.7862537 L11.0258896,12.3666122 L11.8406099,12.9469694 L11.8406099,19.5122668 L11.0258896,20.0744887 L13.7778351,20.0744887 L12.9812189,19.5122668 L12.9812189,16.0482563 L13.7235205,15.5223075 C14.3586405,15.014494 14.9647933,14.9056772 15.3891726,14.9056772 C16.0901949,14.9056772 16.3125232,15.3409457 16.3125232,15.5948524 L16.3125232,20.0744887 L18.2678524,20.0744887 L17.4712375,19.5122668 L17.4712375,15.5948524 C17.4712375,14.8164471 17.0229597,14.2165019 15.7331655,14.2165019 C15.2414363,14.2165019 14.4723397,14.3303974 13.6329965,14.9600856 L12.9812189,15.4678991 L12.9812189,11.7862537 Z M0,12.0220239 L0.796616018,12.6023824 L0.796616018,19.5122668 L0,20.0744887 L6.42724292,20.0744887 L6.42724292,18.5873225 L5.28663356,19.5122668 L1.95533035,19.5122668 L1.95533035,16.0482563 L4.25465375,16.0482563 L5.15989933,16.7374316 L5.15989933,14.7787238 L4.25465375,15.4678991 L1.95533035,15.4678991 L1.95533035,12.6023824 L5.15989933,12.6023824 L6.19187913,13.4003745 L6.19187913,12.0220239 L0,12.0220239 Z M19.8248754,12.7111992 C19.4823302,12.7111992 19.191203,12.9099718 19.191203,13.1646031 C19.191203,13.4185098 19.4823302,13.6361447 19.8248754,13.6361447 C20.1732137,13.6361447 20.4585465,13.4185098 20.4585465,13.1646031 C20.4585465,12.9099718 20.1732137,12.7111992 19.8248754,12.7111992 Z M37.1693789,12.7111992 C36.821765,12.7111992 36.5357066,12.9099718 36.5357066,13.1646031 C36.5357066,13.4185098 36.821765,13.6361447 37.1693789,13.6361447 C37.5177173,13.6361447 37.8030501,13.4185098 37.8030501,13.1646031 C37.8030501,12.9099718 37.5177173,12.7111992 37.1693789,12.7111992 Z M8.96193046,13.1646031 L6.66260683,14.7787238 L7.80321619,14.7787238 L7.80321619,19.0407264 C7.80321619,19.7255486 8.37026199,20.2558504 9.17918935,20.2558504 C9.93669859,20.2551401 10.5232984,19.8329152 10.6818967,19.5122668 L10.3379039,19.2764966 C10.2662084,19.3548447 10.0308448,19.748037 9.36023841,19.748037 C9.07852598,19.748037 8.96193046,19.6210848 8.96193046,19.6210848 L8.96193046,14.7787238 L10.6818967,14.7787238 L10.6818967,14.3253187 L8.96193035,14.3253187 L8.96193046,13.1646031 Z M24.8218306,14.2164975 C22.7795961,14.2172122 21.363793,15.6557898 21.363793,17.208972 C21.3690048,18.7549007 22.7795961,20.201442 24.8218306,20.201442 C26.8792726,20.1992993 28.2617629,18.7549007 28.2617629,17.208972 C28.2565511,15.6557898 26.8792726,14.2136003 24.8218306,14.2164975 Z M32.7517803,14.2164995 C32.0659667,14.2164995 30.989811,14.3151625 30.452457,15.014494 L30.452457,14.3253187 L28.4971266,14.9056772 L29.2937427,15.4678991 L29.2937427,21.7974262 L28.4971266,22.3777835 L31.1404439,22.3777835 L30.452457,21.7974262 L30.452457,19.3853134 C31.0506432,20.0520003 32.0659667,20.201442 32.7517803,20.201442 C34.4406064,20.1992993 35.5037268,18.5960273 35.5037268,17.208972 C35.5037268,15.7101982 34.4406064,14.214326 32.7517803,14.2164995 L32.7517803,14.2164995 Z M42.0577049,14.2165019 C41.3204722,14.2165019 40.2855958,14.3753753 39.7583805,14.669907 L39.7583805,15.9394395 L41.1162491,14.9419491 C41.3820289,14.7410005 41.6688106,14.669907 42.0577049,14.669907 C42.763796,14.669907 43.3250484,15.0601976 43.3250484,15.5948524 L43.3250484,16.6286147 L41.7137109,16.6286147 C40.2341778,16.6307575 38.9617643,17.5709698 38.9617643,18.6961393 C38.9617643,19.6152804 39.6374404,20.201442 40.4463674,20.201442 C40.6361063,20.201442 40.9402688,20.1528368 41.1343543,20.0744887 L43.3250484,19.1495432 L43.3250484,20.0744887 L45.2803788,20.0744887 L44.4656574,19.5122668 L44.4656574,15.5948524 C44.4656574,14.7061789 43.6494883,14.2165019 42.0577049,14.2165019 L42.0577049,14.2165019 Z M50.0962838,14.2165019 C49.6711813,14.2165019 48.8709441,14.2549509 47.923695,14.9782221 L47.3443384,15.4678991 L47.3443384,14.3253187 L45.389008,14.9056772 L46.2037283,15.4678991 L46.2037283,19.5122668 L45.389008,20.0744887 L48.1590587,20.0744887 L47.3443384,19.5122668 L47.3443384,16.0482563 L48.0323242,15.4678991 C48.769557,14.8810117 49.3474658,14.9056772 49.7522909,14.9056772 C50.6785098,14.9056772 50.9110052,15.3112015 50.9110052,15.5948524 L50.9110052,20.0744887 L52.8663356,20.0744887 L52.0516438,19.5122668 L52.0516438,15.5948524 C52.0516438,15.0645506 51.7083741,14.2165019 50.0962838,14.2165019 L50.0962838,14.2165019 Z M20.4585465,14.3253187 L18.5032173,14.9056772 L19.2998322,15.4678991 L19.2998322,19.5122668 L18.5032173,20.0744887 L21.2551627,20.0744887 L20.4585465,19.5122668 L20.4585465,14.3253187 Z M37.8030501,14.3253187 L35.8477209,14.9056772 L36.6624411,15.4678991 L36.6624411,19.5122668 L35.8477209,20.0744887 L38.6177715,20.0744887 L37.8030501,19.5122668 L37.8030501,14.3253187 Z M24.8218306,14.669907 C26.3520573,14.669907 26.8857902,16.0025539 26.8857902,17.208972 C26.8857902,18.4095868 26.3520573,19.7299016 24.8218306,19.7299016 C23.3068114,19.7299016 22.757871,18.4095868 22.757871,17.208972 C22.757871,16.0032784 23.3068114,14.6706327 24.8218306,14.669907 L24.8218306,14.669907 Z M32.2991582,14.7787192 C33.7526207,14.7758234 34.1277541,16.1367607 34.1277541,17.208972 C34.1277541,18.27538 33.7526207,19.62109 32.2991582,19.62109 C31.5213706,19.6225291 30.8254183,19.3229259 30.452457,18.6961393 L30.452457,15.7036693 C30.8203495,15.0609233 31.5213706,14.7801752 32.2991582,14.7787192 L32.2991582,14.7787192 Z M42.0577049,17.0820186 L43.3250484,17.0820186 L43.3250484,18.5873225 L41.7137109,19.2764966 C41.5341107,19.3548447 41.1843235,19.5122668 41.025724,19.5122668 C40.6773856,19.5122668 40.2110037,19.3113182 40.2110037,18.5873225 C40.2110037,17.6674545 40.9525808,17.0820186 42.0577049,17.0820186 Z M25.6365508,23.2483205 C24.8891805,23.2483205 24.0896678,23.4993256 23.8441654,24.0644491 C23.7927179,24.1805206 23.763779,24.3140029 23.7536403,24.4453081 C23.758852,24.8341485 23.6479077,25.4290149 24.1338437,25.805522 L24.8218306,26.3496074 L25.4373977,26.8211478 C25.5293705,26.8813606 25.6546561,26.9568072 25.6546561,27.1475995 L25.6546561,27.655413 L25.1658235,28 L26.7952651,28 L26.3245377,27.655413 L26.3245377,27.1113276 C26.3245377,26.8407357 26.2854306,26.6477663 26.0348595,26.4584242 L25.3468725,25.9143389 C25.1013702,25.7380558 25.1049912,25.7191936 24.9666691,25.6241603 C24.9666691,25.6241603 25.5199551,25.6481 25.7813905,25.6422968 C26.819888,25.6589819 27.2985819,25.4028993 27.4470427,25.0982114 C27.5288768,24.9284561 27.5527753,24.713724 27.5375666,24.3908996 C27.5223296,24.0550174 27.4926663,24.004962 27.4108322,23.8468143 C27.1703997,23.4071939 26.445479,23.2483205 25.6365508,23.2483205 L25.6365508,23.2483205 Z M29.492897,23.2483205 L28.352288,23.5929075 L28.8230154,23.9374958 L28.8230154,24.2095378 L29.7644712,24.2095378 L28.7143862,25.5697518 C28.5557867,25.7852096 28.4247079,26.0325874 28.4247079,26.3677439 L28.4247079,27.655413 L27.9358753,28 L29.5653169,28 L29.0945895,27.655413 L29.0945895,26.3677439 C29.0945895,26.0862701 29.2032188,25.9506119 29.2394281,25.8962035 C29.295916,25.820757 29.3277799,25.7808566 29.3480573,25.7511136 C29.3893082,25.6974309 29.4566877,25.6785687 29.4566877,25.6785687 C29.6304946,25.6328663 31.0499188,25.4348182 31.0499188,26.1319737 L31.0499188,27.582868 C31.0499188,27.8556358 31.1882408,28 31.321493,28 C31.3931884,28 31.4598139,27.994945 31.593066,27.927455 C31.7306636,27.8599888 32.0094799,27.655413 32.0094799,27.655413 L32.0094799,28 L33.1500889,28 L32.6793616,27.655413 L32.6793616,27.0569192 L32.3534728,27.0569192 L31.7379057,27.4559146 L31.7379057,26.0775653 C31.7176283,25.2795732 30.7276522,25.2164588 29.6377368,25.3521182 L30.5248768,24.2095378 L30.5248768,23.9374958 L29.492897,23.9374958 L29.492897,23.2483205 Z M34.8519504,23.2483205 L33.6932361,23.5929075 L34.1639635,23.9374958 L34.1639635,24.2095378 L34.8519504,24.2095378 L34.8519504,25.3521182 L32.9509346,25.3521182 L32.9509346,26.0231569 L32.4802072,26.3677439 L33.6389215,26.3677439 L33.6389215,25.6241603 L34.8519504,25.6241603 L34.8519504,27.655413 L34.381223,28 L35.9925594,28 L35.5218321,27.655413 L35.5218321,25.6241603 L36.7348609,25.6241603 L36.7348609,26.3677439 L37.8935752,26.3677439 L37.4228479,26.0231569 L37.4228479,25.3521182 L35.5218321,25.3521182 L35.5218321,24.2639463 C35.5218321,23.9926299 35.4008908,23.9374958 35.1959433,23.9374958 L34.8519504,23.9374958 L34.8519504,23.2483205 Z M39.9937442,23.2483205 C39.2514438,23.2483205 38.4417924,23.5000513 38.2013587,24.0644491 C38.1448708,24.1805206 38.107937,24.3140029 38.0927295,24.4453081 C38.1028694,24.8341485 38.005101,25.4290149 38.491037,25.805522 L39.1790239,26.3496074 L39.794591,26.8211478 C39.8865638,26.8813606 39.9988141,26.9575329 39.9937442,27.1475995 L39.9937442,27.655413 L39.5230168,28 L41.1524584,28 L40.6636258,27.655413 L40.6636258,27.1113276 C40.6636258,26.8407357 40.6295603,26.6477663 40.3739476,26.4584242 L39.7040659,25.9143389 C39.4585635,25.7380558 39.4621846,25.7191936 39.3238625,25.6241603 C39.3238625,25.6241603 39.8648375,25.6481 40.1204786,25.6422968 C41.1647705,25.6597076 41.6427399,25.4028993 41.7861308,25.0982114 C41.8172997,25.0343713 41.8433136,24.9632777 41.8585506,24.8805766 L42.1482289,24.8805766 L42.1482289,25.6241603 L43.3069432,25.6241603 L42.8362158,25.2795732 L42.8362158,24.6085345 L41.89476,24.6085345 L41.89476,24.3908996 C41.8737876,24.0542929 41.8498596,24.004962 41.7680255,23.8468143 C41.5275931,23.4064682 40.8070167,23.2483205 39.9937442,23.2483205 L39.9937442,23.2483205 Z M45.8054208,23.2483205 L44.6648118,23.5929075 L45.1355391,23.9374958 C44.4395868,23.9374958 43.7175627,24.2218712 43.6871466,24.8805766 C43.6610747,25.5080888 44.1180435,25.8243843 44.7372304,25.8417951 L44.0492447,26.0775653 C43.6914909,26.2183022 43.4336776,26.3742728 43.4336776,26.9843742 L43.4336776,27.655413 L42.9629503,28 L44.5923919,28 L44.1216646,27.655413 L44.1216646,27.0387827 C44.1216646,26.844363 44.086208,26.6898426 44.3932376,26.5853776 C44.3932376,26.5853776 45.4954651,26.2008914 45.5519518,26.1863821 C46.0893058,26.2255556 46.5477223,26.2560255 46.5477223,26.8574209 L46.5477223,27.655413 L46.0769938,28 L47.7064366,28 L47.2357081,27.655413 L47.2357081,26.8574209 C47.2357081,26.0848199 46.6693868,25.9810806 46.2037283,25.9324754 C46.2645617,25.9107116 46.4376442,25.8432453 46.4934077,25.8236586 C47.1075259,25.5980446 47.2567099,25.3390591 47.2719186,24.8987131 L47.2719186,24.8805766 L47.5434916,24.8805766 L47.5434916,25.6241603 L48.6841018,25.6241603 L48.2133733,25.2795732 L48.2133733,24.6085345 L47.2357081,24.6085345 C47.1386665,24.2661234 46.7932247,23.9541809 45.8054208,23.9374958 L45.8054208,23.2483205 Z M50.9472145,23.2483205 C50.2049142,23.2483205 49.4133668,23.4993256 49.1729344,24.0644491 C49.1222397,24.1805206 49.0744427,24.3140029 49.064304,24.4453081 C49.0695158,24.8341485 48.9817466,25.4290149 49.4626127,25.805522 L50.9472145,27.0025096 L48.792731,27.1838726 L48.792731,27.655413 L48.3220036,28 L49.93334,28 L49.4626127,27.655413 L49.4626127,27.4015062 L51.906804,27.1838726 L51.906804,26.9118293 L50.2954381,25.6241603 C50.2954381,25.6241603 50.8306483,25.6481 51.0920543,25.6422968 C52.1305517,25.6589819 52.619356,25.4028993 52.7577064,25.0982114 C52.8395689,24.9284561 52.8815726,24.7129983 52.8663356,24.3908996 C52.850113,24.0542929 52.8263599,24.004962 52.7395716,23.8468143 C52.5042375,23.4064682 51.7605166,23.2483205 50.9472145,23.2483205 Z M25.6365508,23.5203638 C26.3071569,23.5131068 26.8235091,23.6640023 26.8133703,24.3364912 L26.8133703,24.590398 C26.8081586,24.9538472 26.665634,25.2491045 26.1434887,25.2977086 C25.4627438,25.3521182 25.2454854,25.3659017 24.7132014,25.3158451 C24.4264185,25.2599853 24.4727678,24.7703095 24.4778365,24.6085345 L24.4778365,24.3908996 C24.4879764,23.8228745 24.9405985,23.526167 25.6365508,23.5203638 L25.6365508,23.5203638 Z M39.9937442,23.5203638 C40.6636258,23.5123846 41.1625971,23.6640023 41.1524584,24.3364912 L41.1524584,24.590398 C41.1472467,24.9538472 41.0047233,25.2483788 40.4825768,25.2977086 C39.8069019,25.3513925 39.6019543,25.3659017 39.0703947,25.3158451 C38.7886818,25.2592608 38.8248912,24.7703095 38.8350299,24.6085345 L38.8350299,24.3908996 C38.8408207,23.8228745 39.3021374,23.5254413 39.9937442,23.5203638 L39.9937442,23.5203638 Z M50.9472145,23.5203638 C51.6171258,23.5131068 52.1342023,23.6647268 52.1240636,24.3364912 L52.1240636,24.590398 C52.1240636,24.9538472 51.971229,25.2491045 51.4541524,25.2977086 C50.7734076,25.3521182 50.5742249,25.3659017 50.0419692,25.3158451 C49.7602575,25.2599853 49.8015368,24.7703095 49.8066055,24.6085345 L49.8066055,24.3908996 C49.8118173,23.8228745 50.2563322,23.526167 50.9472145,23.5203638 L50.9472145,23.5203638 Z M45.479532,24.1914025 C46.4007104,24.1725403 46.5759651,24.4736008 46.5658264,24.7898963 C46.5606146,24.9930207 46.56351,25.1845399 46.1132043,25.3521182 C46.0263002,25.3847627 45.6808585,25.5059129 45.389008,25.6060237 C44.6314978,25.5878884 44.4113428,25.465288 44.4113428,24.8624412 C44.4113428,24.2675736 45.1007775,24.2001073 45.479532,24.1914025 L45.479532,24.1914025 Z" id="path74" fill="#C52528"></path>
                <path d="M49.9216082,13.2902507 C53.6113884,12.3493458 62.8492375,7.37640517 64.2208659,6.49208495 C64.8965408,6.07060008 65.6439123,6.32087939 64.4511608,8.26870523 C63.6378883,9.46569325 63.0795324,10.1621225 60.9098402,10.8208291 C59.4201684,11.3859526 53.8880313,12.9986218 50.0135811,13.4672606 C49.7267994,13.4912004 49.6348265,13.3852852 49.9216082,13.2902507" id="path78" fill="#FFC92D"></path>
                <path d="M50.2900798,13.0298884 C53.5091327,11.89819 60.5208017,8.20131119 62.9106501,6.73228049 C64.6306156,5.6840092 65.9609647,4.90923152 66.4780413,3.59544659 C67.5882342,0.593545743 66.7387523,-0.628107374 65.6843217,0.309170459 C64.3387652,1.62077915 57.9977011,8.28183586 49.885978,12.9645981 C49.7628645,13.0349659 49.7476559,13.1974667 50.2900798,13.0298884" id="path82" fill="#5E8F4D"></path>
            </g>
        </g>
    </g>
</svg>