<?xml version="1.0" encoding="UTF-8"?>
<svg width="245px" height="64px" viewBox="0 0 245 64" version="1.1" xmlns="http://www.w3.org/2000/svg" xmlns:xlink="http://www.w3.org/1999/xlink">
    <title>Frontier</title>
    <g id="Taskboard" stroke="none" stroke-width="1" fill="none" fill-rule="evenodd">
        <g id="Frontier">
            <rect id="Rectangle" x="0" y="0" width="245" height="64"></rect>
            <g id="frontier_logo_white_notagline#006643" transform="translate(18.000000, 18.000000)" fill="#006643" fill-rule="nonzero">
                <g id="vs8ga-link" transform="translate(28.342457, 0.485333)">
                    <path d="M15.7271755,12.9733333 C19.1372147,12.9733333 21.3360378,11.5546667 21.3360378,9.24 C21.3360378,8.49333333 21.1124287,7.93333333 20.6465763,7.42933333 C20.0316512,6.81333333 18.8949715,6.496 17.2924394,6.496 L13.1929387,6.496 L11.4040656,12.9733333 L15.7271755,12.9733333 Z M7.3418331,0 L17.6278531,0 C22.1932061,0 25.2119294,1.008 27.0194365,2.83733333 C28.4542618,4.256 29.1250892,6.19733333 29.1250892,8.344 C29.1250892,12.8613333 26.4790478,16.408 20.9260877,17.9013333 L25.137393,27.0106667 L16.7520506,27.0106667 L13.1184023,18.816 L9.76426534,18.816 L7.54680813,27.0106667 L0,27.0106667 L7.3418331,0 Z" id="vs8ga"></path>
                </g>
                <g id="vs8gb-link" transform="translate(58.809201, 0.000000)">
                    <path d="M21.5969151,12.6933333 C21.5969151,9.25866667 19.5098966,6.72 15.634005,6.72 C10.882311,6.72 7.75178317,11.312 7.75178317,15.3253333 C7.75178317,18.7786667 9.83880171,21.2986667 13.7146933,21.2986667 C18.5036555,21.2986667 21.5969151,16.7066667 21.5969151,12.6933333 Z M0,15.8666667 C0,7.65333333 6.78281027,0 16.2489301,0 C24.0379815,0 29.292796,5.22666667 29.292796,12.1333333 C29.292796,20.3466667 22.5286198,28 13.0065977,28 C5.31071683,28 0,22.7546667 0,15.8666667 Z" id="vs8gb"></path>
                </g>
                <g id="vs8gc-link" transform="translate(87.487072, 0.485333)">
                    <polygon id="vs8gc" points="7.36046719 0 14.441423 0 21.4664765 15.008 25.5659772 0 33.1127853 0 25.7709522 27.0106667 19.1558488 27.0106667 11.7581134 11.48 7.54680813 27.0106667 0 27.0106667"></polygon>
                </g>
                <g id="vs8gd-link" transform="translate(122.127853, 0.522667)">
                    <polygon id="vs8gd" points="8.19900143 6.53333333 0 6.53333333 1.77023894 0 25.6777817 0 23.944811 6.53333333 15.7458096 6.53333333 10.2114836 26.9733333 2.57150499 26.9733333"></polygon>
                </g>
                <g id="vs8ge-link" transform="translate(143.780670, 0.485333)">
                    <polygon id="vs8ge" points="7.3418331 0 14.9445435 0 7.58407632 27.0106667 0 27.0106667"></polygon>
                </g>
                <g id="vs8gf-link" transform="translate(154.774786, 0.485333)">
                    <polygon id="vs8gf" points="7.26729672 0 29.1809914 0 27.4293866 6.34666667 13.0811341 6.34666667 11.9630884 10.4533333 25.0069544 10.4533333 23.4044223 16.3333333 10.3605563 16.3333333 9.20524251 20.6266667 23.7957382 20.6266667 22.1000357 26.9733333 0 26.9733333"></polygon>
                </g>
                <g id="vs8gg-link" transform="translate(179.912179, 0.485333)">
                    <path d="M15.7271755,12.9733333 C19.1372147,12.9733333 21.3174037,11.5546667 21.3174037,9.24 C21.3174037,8.49333333 21.0937946,7.93333333 20.6465763,7.42933333 C20.0130171,6.81333333 18.8949715,6.496 17.2738053,6.496 L13.1743046,6.496 L11.3854315,12.9733333 L15.7271755,12.9733333 Z M7.3418331,0 L17.609219,0 C22.174572,0 25.1932953,1.008 27.0008024,2.83733333 C28.4356277,4.256 29.087821,6.19733333 29.087821,8.344 C29.087821,12.8613333 26.4790478,16.408 20.8888195,17.9013333 L25.137393,27.0106667 L16.7893188,27.0106667 L13.1556705,18.816 L9.80153352,18.816 L7.54680813,27.0106667 L0,27.0106667 L7.3418331,0 Z" id="vs8gg"></path>
                </g>
                <g id="vs8gh-link" transform="translate(5.023895, 0.485333)">
                    <path d="M27.2130877,0 L5.65344077,0 C3.13783806,0 1.90798785,1.15733333 1.05081952,4.48 L0.00731024543,8.38133333 C-0.0299579429,8.49333333 0.081846622,8.568 0.193651187,8.49333333 C0.193651187,8.49333333 1.4421355,7.65333333 3.56642223,7.65333333 L21.8278345,7.65333333 C24.1198281,7.65333333 25.8155306,5.67466667 26.281383,3.93866667 L27.3248923,0.112 C27.3248923,0.0746666667 27.2876241,0 27.2130877,0 Z" id="vs8gh"></path>
                </g>
                <g id="vs8gi-link" transform="translate(2.396488, 10.173333)">
                    <path d="M26.2441148,0 L5.65344077,0 C3.17510625,0 2.09432879,0.952 1.05081952,4.48 L0.00731024543,8.32533333 C-0.0299579429,8.456 0.081846622,8.512 0.193651187,8.456 C0.193651187,8.456 1.49803778,7.616 3.6409586,7.616 L20.4116433,7.616 C23.0204165,7.616 24.8465577,5.56266667 25.6478238,2.59466667 L26.3559194,0.0746666667 C26.3931876,0.0373333333 26.3186512,0 26.2441148,0 L26.2441148,0 Z" id="vs8gi"></path>
                </g>
                <g id="vs8gj-link" transform="translate(0.000000, 19.842667)">
                    <path d="M14.8141049,0 L5.4225214,0 C2.98145506,0 1.73297076,1.08266667 0.894436519,4.21866667 L0,7.54133333 C0,7.616 0.0372681883,7.65333333 0.111804565,7.65333333 L9.09343795,7.65333333 C11.3667974,7.65333333 13.267475,6.23466667 14.1246434,3.136 L14.9445435,0.112 C14.9445435,0.0746666667 14.8886412,0 14.8141049,0 L14.8141049,0 Z" id="vs8gj"></path>
                </g>
            </g>
        </g>
    </g>
</svg>