<?xml version="1.0" encoding="UTF-8"?>
<svg width="105px" height="64px" viewBox="0 0 105 64" version="1.1" xmlns="http://www.w3.org/2000/svg" xmlns:xlink="http://www.w3.org/1999/xlink">
    <title>GOL</title>
    <g id="Taskboard" stroke="none" stroke-width="1" fill="none" fill-rule="evenodd">
        <g id="GOL">
            <rect id="Rectangle" x="0" y="0" width="105" height="64"></rect>
            <g id="logo-gol" transform="translate(18.000000, 18.000000)" fill-rule="nonzero">
                <path d="M40.604598,0 C39.7206376,0 38.8560581,0.0823035959 38.0175251,0.238707677 C44.5156791,1.45220304 49.43412,6.65783987 49.43412,13.5059679 C49.43412,18.3812719 45.4808602,22.82728 40.604598,22.82728 C39.7045055,22.82728 38.8358369,22.692488 38.0175251,22.442 C34.4034315,21.33656 31.7750761,17.9752159 31.7750761,14.0000559 C31.7750761,10.0246159 34.4034315,6.66327187 38.0175251,5.55780387 C37.1994934,5.30761267 36.3308249,5.17253507 35.4304523,5.17253507 C30.5541901,5.17253507 26.6009303,9.61883989 26.6009303,14.4938639 C26.6009303,21.342272 31.5196513,26.54792 38.0175251,27.761104 C38.8560581,27.917792 39.7206376,27.999832 40.604598,27.999832 C46.6014247,27.999832 51.7170356,24.230808 53.7127664,18.9333199 L53.7127664,9.06651189 C51.7170356,3.76900146 46.6014247,0 40.604598,0 Z" id="Path" fill="#C1BFBC"></path>
                <path d="M38.0175251,0.238795597 C37.1792163,0.0821182359 36.3144127,8.77963366e-05 35.4304523,8.77963366e-05 C28.7118263,8.77963366e-05 23.098473,4.73049346 21.7402401,11.0413519 C21.6943085,11.2551599 21.5039161,11.4071999 21.2851246,11.4071999 L14.4702662,11.4071999 C14.2126008,11.4071999 14.0033876,11.6161359 14.0033876,11.8739599 L14.0033876,16.1089039 C14.0033876,16.3667279 14.2123207,16.5756639 14.4702662,16.5756639 L20.4566742,16.5756639 C20.7143396,16.5756639 20.9232727,16.7845439 20.9232727,17.0424239 L20.9232727,19.1440479 C20.9232727,19.3677119 20.8433964,19.584544 20.6973673,19.754056 C19.0782202,21.635264 16.6804194,22.826608 14.0033876,22.826608 C9.12734955,22.826608 5.17440905,18.8749679 5.17440905,13.9998879 C5.17440905,9.12514389 9.12734955,5.17318467 14.0033876,5.17318467 C15.3744478,5.17318467 16.6722413,5.48572067 17.8299433,6.04323987 C18.049295,6.14879987 18.3126738,6.07252787 18.4371374,5.86331187 L20.609313,2.20888625 C20.7460437,1.97865345 20.6623584,1.67924385 20.42441,1.55620064 C18.5008816,0.562267839 16.3180074,8.77963366e-05 14.0033876,8.77963366e-05 C6.26950391,8.77963366e-05 -1.81945138e-12,6.26802387 -1.81945138e-12,13.9998879 C-1.81945138e-12,21.732088 6.26950391,28 14.0033876,28 C18.1130391,28 21.8089136,26.229784 24.3702759,23.410688 C24.5568033,23.205336 24.8773167,23.205336 25.063844,23.410688 C27.6254865,26.229504 31.3208008,28 35.4304523,28 C36.3144127,28 37.1792163,27.91768 38.0175251,27.761272 C31.5196513,26.547808 26.6009303,21.34216 26.6009303,14.4939759 C26.6009303,9.61867189 30.5541341,5.17263587 35.4304523,5.17263587 C36.3305448,5.17263587 37.1992134,5.30743907 38.0175251,5.55790467 C41.6316188,6.66338387 44.2599742,10.0247279 44.2599742,14.0001679 C44.2599742,17.9753839 41.6316188,21.336672 38.0175251,22.442168 C38.8358369,22.692376 39.7045055,22.827168 40.604598,22.827168 C45.4808602,22.827168 49.43412,18.3811599 49.43412,13.5060799 C49.43412,6.65767187 44.515399,1.45202384 38.0175251,0.238795597 Z M68.5334015,22.429904 L59.3493096,22.429904 C59.0916441,22.429904 58.8827111,22.220968 58.8827111,21.963144 L58.8827111,0.868240641 C58.8827111,0.610394239 58.673778,0.401487358 58.4155525,0.401487358 L54.1796449,0.401487358 C53.9217554,0.401487358 53.7127664,0.610394239 53.7127664,0.868240641 L53.7127664,26.665072 C53.7127664,27.180496 54.1306885,27.598592 54.6462434,27.598592 L68.5334015,27.598592 C68.7910669,27.598592 69,27.389432 69,27.131832 L69,22.896328 C69,22.638784 68.7910669,22.429904 68.5334015,22.429904 Z" id="Shape" fill="#FF7020"></path>
            </g>
        </g>
    </g>
</svg>