<?xml version="1.0" encoding="UTF-8"?>
<svg width="180px" height="64px" viewBox="0 0 180 64" version="1.1" xmlns="http://www.w3.org/2000/svg" xmlns:xlink="http://www.w3.org/1999/xlink">
    <title>Icelandair-Header</title>
    <g id="Taskboard" stroke="none" stroke-width="1" fill="none" fill-rule="evenodd">
        <g id="Icelandair-Header">
            <rect id="Rectangle" x="0" y="0" width="180" height="64"></rect>
            <g id="icelandairlogo" transform="translate(18.000000, 18.000000)" fill="#001B71" fill-rule="nonzero">
                <polygon id="Path" points="57.1117931 12.25 53.5905305 12.25 53.5905305 22.75 56.4313897 22.75 56.4313897 15.785 56.4734765 15.736 62.709338 22.75 65.2135028 22.75 65.2135028 12.25 62.3726436 12.25 62.3726436 18.102"></polygon>
                <rect id="Rectangle" x="93.9938623" y="12.25" width="3.19859711" height="10.493"></rect>
                <polygon id="Path" points="29.4677773 22.75 29.4677773 12.25 32.645331 12.25 32.645331 20.272 37.7097764 20.272 37.7097764 22.75"></polygon>
                <rect id="Rectangle" x="0" y="12.25" width="3.25471285" height="10.493"></rect>
                <path d="M108.548882,18.76 C109.979833,18.207 110.828584,17.269 110.828584,15.561 C110.828584,13.377 109.060938,12.25 106.739149,12.25 L99.6545375,12.25 L99.6545375,22.75 L102.853135,22.75 L102.853135,18.984 L105.434459,18.984 L107.679088,22.743 L111.046032,22.743 L108.548882,18.76 Z M106.213064,16.968 L102.84612,16.968 L102.84612,14.315 L106.044717,14.315 C107.440596,14.315 107.819377,14.931 107.819377,15.659 C107.819377,16.492 107.209119,16.968 106.213064,16.968 L106.213064,16.968 Z" id="Shape"></path>
                <path d="M73.1608943,12.25 L67.6685664,12.25 L67.6685664,22.75 L73.2240246,22.75 C77.2152565,22.75 79.0951337,20.489 79.0951337,17.5 C79.0951337,14.245 77.0469093,12.25 73.1608943,12.25 Z M72.7610697,20.426036 L70.8531346,20.426036 L70.8531346,14.532 L72.7680842,14.532 C74.9004822,14.532 75.8404209,15.435 75.8404209,17.493 C75.8404209,19.418 75.0758439,20.433 72.7610697,20.426036 L72.7610697,20.426036 Z" id="Shape"></path>
                <path d="M87.8421745,12.25 L84.2367383,12.25 L79.5089873,22.75 L82.5041648,22.75 L83.4160456,20.734 L88.6839106,20.734 L89.5887769,22.75 L92.5909689,22.75 L87.8421745,12.25 Z M84.3279263,18.718 L86.0534853,14.504 L87.7790443,18.718 L84.3279263,18.718 Z" id="Shape"></path>
                <path d="M47.4388426,12.25 L43.8334064,12.25 L39.1056554,22.75 L42.100833,22.75 L43.0127137,20.734 L48.2805787,20.734 L49.185445,22.75 L52.187637,22.75 L47.4388426,12.25 Z M43.91758,18.718 L45.6501534,14.504 L47.3757124,18.718 L43.91758,18.718 Z" id="Shape"></path>
                <polygon id="Path" points="17.3187199 22.75 17.3187199 12.25 27.1810609 12.25 27.1810609 14.427 20.4892591 14.427 20.4892591 16.345 25.4274441 16.345 25.4274441 18.508 20.4892591 18.508 20.4892591 20.524 27.2231477 20.524 27.2231477 22.75"></polygon>
                <path d="M13.9307321,19.145 C13.2994301,20.041 12.1911442,20.454 10.9986848,20.454 C9.22402455,20.454 8.10170978,19.124 8.10170978,17.486 C8.10170978,15.848 9.22402455,14.539 10.9986848,14.539 C12.0929417,14.539 13.2433143,14.987 13.9096887,15.862 C13.9167032,15.876 15.5861464,13.972 15.5861464,13.972 C14.4147304,12.789 12.7452872,11.998 10.9986848,11.998 C7.6878562,11.998 5.2187637,14.462 5.2187637,17.5 C5.2187637,20.538 7.6878562,23.002 10.9986848,23.002 C12.8014029,23.002 14.4007014,22.211 15.5721175,21 C15.5721175,21 13.9377466,19.138 13.9307321,19.145 Z" id="Path"></path>
                <path d="M135.765015,0 L111.039018,28 L135.288032,28 L144,0 L135.765015,0 Z M126.477861,22.722 C126.08505,22.771 125.69224,22.792 125.29943,22.785 C124.696186,22.778 124.317405,22.701 124.029811,22.589 C123.784305,22.491 123.566857,22.225 123.644016,22.022 C123.71416,21.868 123.826392,21.735 123.98071,21.651 C124.689171,21.196 125.965804,20.958 127.375712,20.867 C127.249452,21.14 126.477861,22.722 126.477861,22.722 Z M133.983341,19.047 C132.959228,20.251 131.949145,20.335 129.957036,20.153 C124.724244,19.691 123.71416,21.133 123.545813,21.315 C123.580886,21.182 123.622972,21.049 123.686103,20.93 C124.015783,20.181 124.415607,19.348 124.864533,18.354 C125.117054,17.836 125.257343,17.815 125.488821,17.647 C126.435774,17.024 127.957913,16.443 129.985094,16.618 C131.479176,16.751 132.131521,17.052 133.050416,17.101 C133.443227,17.129 133.836037,17.108 134.221833,17.038 C135.203858,16.828 135.456379,16.534 135.456379,16.534 C135.456379,16.534 134.754932,18.06 133.983341,19.047 Z M135.182815,15.89 C134.860149,16.079 134.439281,16.261 133.625603,16.289 C132.727751,16.317 132.180623,16.121 131.191583,15.96 C129.83779,15.743 128.526085,15.659 127.109163,16.107 C126.505918,16.296 125.937747,16.597 125.439719,16.989 C125.439719,16.989 126.484875,14.644 126.758439,14.042 C127.207365,13.125 128.701447,12.467 130.665498,12.488 C132.433143,12.509 133.225778,12.964 134.677773,12.985 C136.845243,12.978 137.560719,12.257 137.560719,12.257 C137.434459,12.523 136.775099,13.902 136.466462,14.49 C135.954406,15.288 135.589654,15.652 135.182815,15.89 Z" id="Shape"></path>
            </g>
        </g>
    </g>
</svg>