<?xml version="1.0" encoding="UTF-8"?>
<svg width="173px" height="64px" viewBox="0 0 173 64" version="1.1" xmlns="http://www.w3.org/2000/svg" xmlns:xlink="http://www.w3.org/1999/xlink">
    <title>Indigo</title>
    <g id="Taskboard" stroke="none" stroke-width="1" fill="none" fill-rule="evenodd">
        <g id="Indigo">
            <rect id="Rectangle" x="0" y="0" width="173" height="64"></rect>
            <g id="icIndigoLogoWhiteR-new" transform="translate(18.000000, 18.000000)" fill="#001B94" fill-rule="nonzero">
                <path d="M131.889736,9.71448111 C131.889736,10.3456024 131.381049,10.8571429 130.754316,10.8571429 C130.127194,10.8571429 129.618507,10.3456024 129.618507,9.71448111 C129.618507,9.08335979 130.127194,8.57142858 130.754316,8.57142858 C131.381049,8.57142858 131.889736,9.08335979 131.889736,9.71448111 Z M128.482893,6.28551889 C128.482893,6.9166402 127.974208,7.42857143 127.347085,7.42857143 C126.719964,7.42857143 126.211666,6.9166402 126.211666,6.28551889 C126.211666,5.65478837 126.719964,5.14285715 127.347085,5.14285715 C127.974208,5.14285715 128.482893,5.65478837 128.482893,6.28551889 Z M131.889736,6.28551889 C131.889736,6.9166402 131.381049,7.42857143 130.754316,7.42857143 C130.127194,7.42857143 129.618507,6.9166402 129.618507,6.28551889 C129.618507,5.65478837 130.127194,5.14285715 130.754316,5.14285715 C131.381049,5.14285715 131.889736,5.65478837 131.889736,6.28551889 Z M125.076052,6.28551889 C125.076052,6.9166402 124.567365,7.42857143 123.940632,7.42857143 C123.313511,7.42857143 122.804824,6.9166402 122.804824,6.28551889 C122.804824,5.65478837 123.313511,5.14285715 123.940632,5.14285715 C124.567365,5.14285715 125.076052,5.65478837 125.076052,6.28551889 Z M133.828334,2.62046643 C134.271841,3.06680265 134.271841,3.7902425 133.828334,4.23696954 C133.384826,4.68291492 132.665972,4.68291492 132.222076,4.23696954 C131.778957,3.7902425 131.778957,3.06680265 132.222076,2.62046643 C132.665972,2.17413023 133.384826,2.17413023 133.828334,2.62046643 Z M136.667369,0.334752154 C137.110877,0.78108836 137.110877,1.50452821 136.667369,1.95125526 C136.223861,2.39720063 135.505006,2.39720063 135.06111,1.95125526 C134.617992,1.50452821 134.617992,0.78108836 135.06111,0.334752154 C135.505006,-0.111584051 136.223861,-0.111584051 136.667369,0.334752154 Z M121.101402,6.28551889 C121.101402,6.9166402 120.592716,7.42857143 119.965594,7.42857143 C119.338473,7.42857143 118.830174,6.9166402 118.830174,6.28551889 C118.830174,5.65478837 119.338473,5.14285715 119.965594,5.14285715 C120.592716,5.14285715 121.101402,5.65478837 121.101402,6.28551889 Z M117.69456,6.28551889 C117.69456,6.9166402 117.186262,7.42857143 116.55914,7.42857143 C115.932019,7.42857143 115.423332,6.9166402 115.423332,6.28551889 C115.423332,5.65478837 115.932019,5.14285715 116.55914,5.14285715 C117.186262,5.14285715 117.69456,5.65478837 117.69456,6.28551889 Z M130.754316,12 C131.381049,12 131.889736,12.5119312 131.889736,13.1426618 C131.889736,13.773783 131.381049,14.2857143 130.754316,14.2857143 C130.127194,14.2857143 129.618507,13.773783 129.618507,13.1426618 C129.618507,12.5119312 130.127194,12 130.754316,12 Z M118.262367,23.4283761 C118.262367,24.0594973 117.75368,24.5714286 117.126559,24.5714286 C116.499825,24.5714286 115.991139,24.0594973 115.991139,23.4283761 C115.991139,22.7972547 116.499825,22.2857142 117.126559,22.2857142 C117.75368,22.2857142 118.262367,22.7972547 118.262367,23.4283761 Z M114.855525,20.0001954 C114.855525,20.6309259 114.347226,21.1428571 113.720105,21.1428571 C113.092983,21.1428571 112.584296,20.6309259 112.584296,20.0001954 C112.584296,19.3690741 113.092983,18.8571428 113.720105,18.8571428 C114.347226,18.8571428 114.855525,19.3690741 114.855525,20.0001954 Z M118.262367,20.0001954 C118.262367,20.6309259 117.75368,21.1428571 117.126559,21.1428571 C116.499825,21.1428571 115.991139,20.6309259 115.991139,20.0001954 C115.991139,19.3690741 116.499825,18.8571428 117.126559,18.8571428 C117.75368,18.8571428 118.262367,19.3690741 118.262367,20.0001954 Z M111.448682,20.0001954 C111.448682,20.6309259 110.939996,21.1428571 110.312874,21.1428571 C109.686141,21.1428571 109.177454,20.6309259 109.177454,20.0001954 C109.177454,19.3690741 109.686141,18.8571428 110.312874,18.8571428 C110.939996,18.8571428 111.448682,19.3690741 111.448682,20.0001954 Z M117.126559,25.7142857 C117.75368,25.7142857 118.262367,26.2262169 118.262367,26.8573383 C118.262367,27.4880688 117.75368,28 117.126559,28 C116.499825,28 115.991139,27.4880688 115.991139,26.8573383 C115.991139,26.2262169 116.499825,25.7142857 117.126559,25.7142857 Z M130.754316,15.4285714 C131.381049,15.4285714 131.889736,15.9405026 131.889736,16.571624 C131.889736,17.2027453 131.381049,17.7142857 130.754316,17.7142857 C130.127194,17.7142857 129.618507,17.2027453 129.618507,16.571624 C129.618507,15.9405026 130.127194,15.4285714 130.754316,15.4285714 Z M130.754316,19.4285715 C131.381049,19.4285715 131.889736,19.9401119 131.889736,20.5712332 C131.889736,21.2023545 131.381049,21.7142857 130.754316,21.7142857 C130.127194,21.7142857 129.618507,21.2023545 129.618507,20.5712332 C129.618507,19.9401119 130.127194,19.4285715 130.754316,19.4285715 Z M123.37263,14.8573382 C123.37263,15.4884595 122.863943,15.9999999 122.236822,15.9999999 C121.609701,15.9999999 121.101402,15.4884595 121.101402,14.8573382 C121.101402,14.226217 121.609701,13.7142857 122.236822,13.7142857 C122.863943,13.7142857 123.37263,14.226217 123.37263,14.8573382 Z M125.31127,11.1918521 C125.754721,11.6385218 125.754721,12.3618689 125.31127,12.8081479 C124.867432,13.2544268 124.148668,13.2544268 123.705219,12.8081479 C123.261768,12.3618689 123.261768,11.6385218 123.705219,11.1918521 C124.148668,10.7455731 124.867432,10.7455731 125.31127,11.1918521 Z M128.150306,8.9061378 C128.593757,9.35280756 128.593757,10.0761547 128.150306,10.5224336 C127.706467,10.9687126 126.987704,10.9687126 126.544254,10.5224336 C126.100803,10.0761547 126.100803,9.35280756 126.544254,8.9061378 C126.987704,8.45985883 127.706467,8.45985883 128.150306,8.9061378 Z M120.768772,16.3347521 C121.212279,16.7814792 121.212279,17.5049191 120.768772,17.9512553 C120.324876,18.3972006 119.606021,18.3972006 119.162513,17.9512553 C118.719394,17.5049191 118.719394,16.7814792 119.162513,16.3347521 C119.606021,15.8884159 120.324876,15.8884159 120.768772,16.3347521 Z M75.8697567,24.6187366 C73.2305779,26.873545 70.1239524,28 66.5568289,28 C62.7288194,28 59.413738,26.6507854 56.6216916,23.9580517 C53.8536491,21.2374731 52.4671011,17.9270878 52.4671011,14.0401854 C52.4671011,10.15265 53.8530174,6.84099898 56.6210598,4.12042038 C59.4124746,1.37642671 62.7275561,0 66.5561971,0 C68.8233136,0 70.8137522,0.373375522 72.5287762,1.12898633 C74.2431685,1.85611933 75.9720896,3.10028252 77.7180661,4.85071759 L77.8608269,4.99373941 L75.1786936,7.89341168 L75.0251942,7.7649452 C73.3196454,6.33662561 72.0088996,5.37913889 71.0847449,4.87856255 C69.7146208,4.15522658 68.207421,3.79197649 66.5568289,3.79260934 C63.707299,3.79197649 61.3403764,4.79186349 59.4453222,6.79100463 C57.5458463,8.79457566 56.5970558,11.2056956 56.5964241,14.0401854 C56.5970558,16.8468301 57.5445829,19.2459261 59.4453222,21.2488642 C61.3403764,23.249271 63.7066674,24.2472596 66.5561971,24.2472596 C69.1903224,24.2478924 71.4087991,23.4834219 73.2286829,21.9608092 C75.1148934,20.3863035 76.0820027,18.3694429 76.1331691,15.8975703 L66.842982,15.8975703 L66.842982,12.1429314 L80.3035517,12.1422986 L80.3041834,14.6135383 C80.3035517,18.7567409 78.8279362,22.0987682 75.8697567,24.6187366 Z M99.0431106,25.1851282 C97.1430029,27.0096055 94.8594627,27.9240593 92.2051234,27.9240593 C89.577315,27.9240593 87.3070401,27.0089727 85.4069326,25.1851282 C83.5024031,23.3549553 82.5504543,21.0261046 82.5504543,18.2137643 C82.5504543,15.4292689 83.4891378,13.1137077 85.3677681,11.2841677 C87.2678757,9.43184541 89.551416,8.50410216 92.2051234,8.50410216 C94.8354587,8.50410216 97.1044702,9.43121257 99.0045778,11.282902 C100.935006,13.1118092 101.898957,15.4273704 101.898957,18.2143971 C101.898957,21.0261046 100.948903,23.3543225 99.0431106,25.1851282 Z M96.3357099,13.8022376 C95.2574241,12.6719856 93.8860365,12.104961 92.2051234,12.104961 C90.4995747,12.104961 89.1155535,12.6719856 88.0372677,13.8022376 C86.984881,14.9040118 86.4511074,16.3684033 86.4511074,18.2143971 C86.4511074,20.0338117 86.996883,21.4975703 88.0751688,22.6278224 C89.154718,23.7580744 90.5254738,24.3244661 92.2051234,24.3244661 C93.8860365,24.3244661 95.2567923,23.7580744 96.3357099,22.6278224 C97.4146273,21.4975703 97.960403,20.0331789 97.960403,18.2143971 C97.960403,16.396881 97.4146273,14.9318567 96.3357099,13.8022376 Z M49.6270467,6.56065092 C49.2442456,6.99857611 48.6826779,7.20235055 47.9815079,7.20172065 C47.3226608,7.20235055 46.7648832,6.98845067 46.3378643,6.56065092 C45.9449564,6.11196745 45.7447123,5.57088936 45.7447123,4.96083173 C45.7447123,4.35014126 45.9411663,3.82425133 46.3372326,3.40024861 C46.7421425,2.96422195 47.2999201,2.75791615 47.9821396,2.75791615 C48.6428818,2.75791615 49.1867624,2.98004295 49.5891456,3.43758617 C50.0060574,3.85905753 50.2189353,4.3697593 50.2189353,4.96083173 C50.2189353,5.5936716 50.0243763,6.13221833 49.6270467,6.56065092 Z M46.0896122,27.5418239 L46.0896122,8.88697028 L49.8746671,8.88697028 L49.8746671,27.5418239 L46.0896122,27.5418239 Z M40.8409439,25.0996949 C39.0899139,26.984292 36.8278508,27.9240593 34.0724421,27.9240593 C31.1622706,27.9240593 28.7966113,26.9203751 26.9944149,24.9047802 C25.2983413,22.9974008 24.4550423,20.6084303 24.4550423,17.7536897 C24.4550423,15.1742344 25.3299256,12.9871398 27.0777972,11.2107583 C28.8496728,9.40906317 30.96708,8.50410216 33.4218068,8.50410216 C35.3655007,8.50410216 37.1222159,8.93316759 38.6850039,9.79382981 L38.7942853,9.85458243 L38.7942853,13.9009606 L38.4658093,13.6769353 C37.8454949,13.2554639 37.1070555,12.8909481 36.2549128,12.5884507 C35.4311959,12.2650695 34.6769643,12.104961 33.9953765,12.104961 C32.2336078,12.104961 30.8394797,12.662493 29.7889881,13.7636343 C28.7366012,14.8673071 28.2034593,16.3291671 28.2034593,18.1764267 C28.2034593,19.9945756 28.7473399,21.4728896 29.8281524,22.6284552 C30.9317056,23.7580744 32.3403627,24.3244661 34.0718104,24.3244661 C35.6927134,24.3244661 37.0249365,23.7112443 38.081745,22.4816363 C39.1568724,21.2564583 39.7114916,19.4617244 39.7114916,17.0651599 L39.7114916,0.459441745 L43.4965464,0.459441745 L43.4965464,17.6777489 C43.4965464,20.7084191 42.6166096,23.190417 40.8409439,25.0996949 Z M18.4218215,27.5411911 L18.4218215,16.6822918 C18.4218215,15.3520624 18.0036462,14.2680077 17.1780343,13.417471 C16.3783214,12.5422534 15.3872081,12.104961 14.1964824,12.104961 C13.0594499,12.104961 12.0677049,12.5384564 11.2117721,13.4200023 C10.3874235,14.2699062 9.97177498,15.3520624 9.97177498,16.6822918 L9.97177498,27.5411911 L6.22462123,27.5411911 L6.22462123,16.6822918 C6.22462123,14.2857272 6.96748246,12.3150638 8.46331188,10.7886541 C9.96103635,9.26224432 11.8775678,8.50410216 14.1964824,8.50410216 C16.491393,8.50410216 18.4072927,9.26351001 19.9277578,10.7880212 C21.4507497,12.3131653 22.2068764,14.2850944 22.207508,16.6822918 L22.2068764,27.5411911 L18.4218215,27.5411911 Z M0,27.5411911 L0,0.459441745 L3.97582363,0.459441745 L3.97645531,27.5411911 L0,27.5411911 Z" id="Combined-Shape"></path>
            </g>
        </g>
    </g>
</svg>