<?xml version="1.0" encoding="UTF-8"?>
<svg width="256px" height="64px" viewBox="0 0 256 64" version="1.1" xmlns="http://www.w3.org/2000/svg" xmlns:xlink="http://www.w3.org/1999/xlink">
    <title>Japan</title>
    <g id="Taskboard" stroke="none" stroke-width="1" fill="none" fill-rule="evenodd">
        <g id="Japan">
            <rect id="Rectangle" x="0" y="0" width="256" height="64"></rect>
            <g id="Group-5" transform="translate(18.000000, 22.000000)" fill-rule="nonzero">
                <g id="logo">
                    <path d="M218.623954,12.5236831 C217.562536,15.148555 213.897888,15.9603601 209.942449,15.9603601 C205.98701,15.9603601 203.445498,15.1437921 204.035979,12.5236831 L209.063957,12.5236831 C208.933851,13.2259421 209.380325,13.6715353 210.86709,13.6715353 C212.353855,13.6715353 213.313524,13.2137704 213.591528,12.5236831 C214.284314,10.8101074 204.332887,12.4845217 205.918621,8.56150242 C206.804897,6.36423061 210.297182,5.33333333 214.235385,5.33333333 C218.173588,5.33333333 220.407071,6.14249244 219.938357,8.55832717 L215.0049,8.55832717 C215.083297,7.91216414 214.874238,7.4226467 213.392477,7.4226467 C211.910717,7.4226467 211.112846,7.92168989 210.854302,8.560444 C210.147616,10.3115934 220.203573,8.60807272 218.623954,12.5226246 M130.596248,15.6634744 L125.568826,15.6634744 L129.615451,5.63921558 L134.644541,5.63921558 L130.596248,15.6634744 Z M168.642748,15.6634744 L163.614214,15.6634744 L167.661394,5.63921558 L172.690485,5.63921558 L168.642748,15.6634744 Z M201.045769,15.6634744 L188.819714,15.6634744 L192.865227,5.63921558 L205.097397,5.63921558 L204.318987,7.56288683 L197.118686,7.56288683 L196.302467,9.58816603 L202.290114,9.58816603 L201.515039,11.5102497 L195.525168,11.5102497 L194.706724,13.5418793 L201.903689,13.5418793 L201.045769,15.6634744 Z M101.097256,15.6634744 L97.0283913,15.6634744 L93.6178396,9.74163636 L91.2270062,15.6634744 L87.1681495,15.6634744 L91.2175541,5.63921558 L95.9436201,5.63921558 L98.9555142,10.9069525 L101.083356,5.63921558 L105.149997,5.63921558 L101.097256,15.6634744 Z M185.698842,15.6634744 L181.63387,15.6634744 L178.219982,9.74163636 L175.829148,15.6634744 L171.770292,15.6634744 L175.81636,5.63921558 L180.542426,5.63921558 L183.555432,10.9069525 L185.682162,5.63921558 L189.749915,5.63921558 L185.698842,15.6634744 Z M40.0186907,12.3082954 C38.6409034,15.7163952 35.247032,15.9995215 32.8267302,15.9995215 C31.652911,16.0083242 30.4815647,15.8956466 29.3333333,15.6634744 L30.1901413,13.5371165 C32.4947935,13.7911363 34.4663971,13.6000922 35.2375798,11.6912388 L37.684014,5.63921558 L42.7142163,5.63921558 L40.0186907,12.3082954 M68.5179809,5.640274 L60.6966196,5.640274 L56.648327,15.6634744 L61.6779733,15.6634744 L63.1486139,12.022523 L65.9436649,12.022523 C70.5924459,12.022523 73.0961489,10.8413307 73.9068082,8.83245694 C74.7174675,6.82358319 73.1712099,5.63709875 68.5179809,5.63709875 M68.8760499,8.83245694 C68.4747467,9.616209 67.6347023,10.1095421 66.7187398,10.099381 L63.9248007,10.099381 L64.948967,7.55918238 L67.7479101,7.55918238 C68.664767,7.55918238 69.1729581,8.10214983 68.8760499,8.83245694 M145.588442,5.63709875 L137.764857,5.63709875 L133.717676,15.6634744 L138.745098,15.6634744 L140.215739,12.0246399 L141.735864,12.0246399 L142.730006,15.6634744 L148.217803,15.6634744 L146.876156,11.6578987 C149.100187,11.1673228 150.425709,10.1914632 150.974489,8.83457377 C151.784592,6.82358319 150.237223,5.63921558 145.586218,5.63921558 M145.943731,8.83457377 C145.541749,9.61848667 144.701163,10.1117561 143.784753,10.1014978 L140.992482,10.1014978 L142.017204,7.56129921 L144.814479,7.56129921 C145.729668,7.56129921 146.238971,8.10426666 145.943731,8.83457377 M156.602956,13.5392333 L159.799444,5.63921558 L154.769798,5.63921558 L150.722062,15.6634744 L162.140237,15.6634744 L162.998157,13.5392333 L156.604068,13.5392333 L156.602956,13.5392333 Z M54.3670272,5.63921558 L49.8700363,5.63921558 C49.2689718,5.67195545 48.7089955,5.94017233 48.3232227,6.38010685 L39.8969249,15.6634744 L44.050859,15.6634744 L45.7266664,13.691116 L50.2659138,13.691116 L50.345979,15.6634744 L55.3756252,15.6634744 L54.3670272,5.63921558 M47.3579932,11.7642695 L50.065195,8.55938558 L50.1891848,11.7642695 L47.3579932,11.7642695 Z M84.8796215,5.63974479 L80.3848547,5.63974479 C79.7837549,5.67235939 79.2237292,5.94059995 78.8380411,6.38063606 L70.4106313,15.6634744 L74.5640094,15.6634744 L76.2381488,13.691116 L80.7801763,13.691116 L80.8607974,15.6634744 L85.8893316,15.6634744 L84.8818456,5.63921558 M77.8761477,11.7637403 L80.5839055,8.55885638 L80.7090073,11.7637403 L77.8733676,11.7637403 L77.8761477,11.7637403 Z M123.280854,5.63921558 L118.783307,5.63921558 C118.181954,5.67204383 117.621668,5.94021638 117.235382,6.38010685 L108.810196,15.6634744 L112.96691,15.6634744 L114.639381,13.691116 L119.181965,13.691116 L119.261474,15.6634744 L124.29112,15.6634744 L123.280854,5.63921558 M116.275156,11.7637403 L118.981802,8.55885638 L119.106348,11.7637403 L116.275156,11.7637403 L116.275156,11.7637403 Z" id="Shape" fill="#000000"></path>
                    <path d="M19.9619367,10.8815885 C20.0258136,10.14414 20.0092542,9.40191552 19.9125518,8.66806076 C19.9125518,8.65527865 19.8975698,8.65527865 19.8947954,8.66806076 C19.5738975,10.0127192 18.797082,11.2041971 17.6968902,12.0392029 C17.6918337,12.0433464 17.6843807,12.0426 17.6802436,12.0375357 C17.6761064,12.0324713 17.6768517,12.0250069 17.6819083,12.0208633 C18.8486865,10.8100615 19.5609858,9.23205936 19.6978107,7.55490585 C19.4779535,6.67380233 19.1371513,5.82749378 18.6851429,5.04016497 C18.6784843,5.03016158 18.6668317,5.03238456 18.6696061,5.04516666 C18.9427831,7.06055259 18.3088201,9.09342738 16.9389153,10.5948247 C16.9346249,10.6005028 16.9265509,10.6016225 16.9208815,10.5973255 C16.9152121,10.5930285 16.9140941,10.584942 16.9183845,10.5792638 C18.2453907,8.68295189 18.6587855,6.2926824 18.0459138,4.05983284 C16.1577501,1.50616854 13.1727968,0 10.0000603,0 C6.82732374,0 3.84237045,1.50616854 1.95420681,4.05983284 C1.34189059,6.29256083 1.75481098,8.68243954 3.08062629,10.5792638 C3.08474883,10.5825299 3.08645033,10.5879934 3.08491277,10.5930276 C3.08337521,10.5980619 3.07891313,10.6016371 3.07367173,10.6020344 C3.06843032,10.6024317 3.06348181,10.5995698 3.06120527,10.5948247 C1.69046723,9.09394449 1.05673384,7.06050203 1.33162421,5.04516666 C1.33162421,5.03238456 1.32108137,5.02960584 1.31608739,5.04016497 C0.86316611,5.82749741 0.521078316,6.67375238 0.299535423,7.55490585 C0.438905506,9.23222021 1.151474,10.8101051 2.31710254,12.0225306 C2.32098696,12.0266791 2.32131997,12.0330279 2.31789092,12.0375613 C2.31446187,12.0420946 2.30826942,12.0434922 2.30323038,12.0408701 C1.20242848,11.2047898 0.425255033,10.0121861 0.104215393,8.66639353 C0.104215393,8.65361142 0.0886785729,8.65361142 0.0875688,8.66639353 C-0.00930119698,9.40023536 -0.0258610006,10.1424782 0.0381839062,10.8799212 C0.400739982,11.9064146 1.03339423,12.8157723 1.86930918,13.5119241 C1.87452879,13.5157047 1.87611716,13.5227884 1.87301285,13.5284414 C1.86990855,13.5340943 1.86308479,13.5365442 1.85710168,13.5341538 C1.2182424,13.1549924 0.663627739,12.6488835 0.227400185,12.0469833 C0.221296434,12.0375357 0.211308478,12.0414259 0.213528023,12.0514293 C1.19102406,16.6847046 5.27373092,20 10.0020024,20 C14.7302738,20 18.8129807,16.6847046 19.7904767,12.0514293 C19.7904767,12.0414259 19.7838181,12.0375357 19.7777144,12.0469833 C19.3408261,12.6488971 18.7856675,13.1549855 18.1463482,13.5341538 C18.1403651,13.5365442 18.1335413,13.5340943 18.130437,13.5284414 C18.1273327,13.5227884 18.1289211,13.5157047 18.1341407,13.5119241 C18.9692856,12.816449 19.6008871,11.907527 19.9619367,10.8815885 L19.9619367,10.8815885 Z M6.28786996,17.4026867 C5.96948839,17.4059013 5.65170278,17.374409 5.3401239,17.308766 L5.57317621,16.7024495 C6.19742346,16.7752519 6.73122423,16.7213447 6.94152619,16.1739371 L7.60406061,14.4511312 L8.96630683,14.4511312 L8.23774093,16.3506636 C7.86319258,17.3243268 6.94374574,17.4026867 6.28786996,17.4026867 L6.28786996,17.4026867 Z M10.9550199,17.308766 L10.9350439,16.7441302 L9.70264115,16.7441302 L9.24874404,17.308766 L8.12343432,17.308766 L10.4079018,14.6612023 C10.5116425,14.5352641 10.6634801,14.4588246 10.8262862,14.4505754 L12.0470364,14.4505754 L12.3205954,17.308766 L10.9550199,17.308766 L10.9550199,17.308766 Z M15.7825319,17.308766 L12.6873753,17.308766 L13.783831,14.4505754 L15.1444125,14.4505754 L14.2776799,16.7035609 L16.0111452,16.7035609 L15.7825319,17.308766 Z M14.5229397,11.2672747 C12.4770734,13.2596164 9.42297838,11.9897417 9.7331599,9.5444688 C9.97176108,7.66049718 12.2817534,5.782083 14.0318652,4.76507177 C14.0353583,4.7624479 14.0374141,4.75833 14.0374141,4.75395689 C14.0374141,4.74958378 14.0353583,4.74546588 14.0318652,4.74284202 C13.6782249,4.39890302 13.3408546,4.03857186 13.0208621,3.66303173 C12.6318062,3.16457736 12.0317003,2.87793115 11.4000862,2.88885294 C10.7684722,2.89977473 10.1786037,3.20699782 9.8069598,3.71860612 L4.77580439,4.18709818 C4.76876934,4.18847334 4.76369235,4.19464652 4.76369235,4.20182539 C4.76369235,4.20900425 4.76876934,4.21517744 4.77580439,4.2165526 L10.1693007,4.52776915 C11.1248151,4.58334353 11.4366613,5.45030392 10.5138851,6.14942968 C7.0885711,8.7458649 6.47986067,11.4929067 7.24504908,13.6691996 C7.24556937,13.6757703 7.24174734,13.6819117 7.23562811,13.6843377 C7.22950889,13.6867636 7.22252544,13.6849059 7.21841453,13.6797587 C6.89348295,13.2062942 6.66425684,12.6736905 6.54367261,12.1120053 C4.23695693,10.6389355 3.11196241,7.86646198 3.73871968,5.19938707 C4.36547695,2.53231216 6.60703334,0.553418137 9.32760036,0.265403425 C12.0481674,-0.0226112862 14.6532742,1.44318738 15.8229226,3.92008456 C16.992571,6.39698174 16.4711813,9.34375086 14.5229397,11.2672747 L14.5229397,11.2672747 Z M10.1471052,16.1967226 L10.9134034,16.1967226 L10.8801102,15.2797452 L10.1471052,16.1967226 Z" id="Shape" fill="#CC0000"></path>
                </g>
            </g>
        </g>
    </g>
</svg>