<?xml version="1.0" encoding="UTF-8"?>
<svg width="115px" height="64px" viewBox="0 0 115 64" version="1.1" xmlns="http://www.w3.org/2000/svg" xmlns:xlink="http://www.w3.org/1999/xlink">
    <title>Jet2-Header</title>
    <g id="Taskboard" stroke="none" stroke-width="1" fill="none" fill-rule="evenodd">
        <g id="Jet2-Header">
            <rect id="Rectangle" x="0" y="0" width="115" height="64"></rect>
            <g id="jet2-logo-white-svg" transform="translate(18.000000, 18.000000)" fill="#EE3123" fill-rule="nonzero">
                <path d="M42.3721617,9.78204302 L45.9211105,9.78204302 C45.9211105,9.78204302 45.1839694,13.1885796 44.6477037,15.6561806 C44.2464013,17.4979731 43.0927127,22.2899741 43.9202029,24.0707446 C44.5196905,25.3613356 46.0993426,26.1410352 47.3541415,26.2118562 C49.9509497,26.3601795 53.1113749,26.2980441 53.1113749,26.2980441 L54.0099338,21.536554 L52.0635046,21.5855497 C52.0635046,21.5855497 50.3565118,21.6657245 50.1152819,20.7931558 C49.5850694,18.8685161 52.0227018,9.78248843 52.0227018,9.78248843 L56.4563096,9.78204302 L57.1221578,6.17573766 L52.874853,6.11783367 L54.2103608,0.160403407 C54.2103608,0.160403407 50.8154315,0.0601849538 50.015741,0.160403407 C48.9055455,0.298482164 48.0186446,1.59820415 47.619584,2.78924478 C47.1326405,4.2379582 46.8203419,6.11248869 46.8203419,6.11248869 L43.3178008,6.11805638 L42.3721617,9.78204302 Z M57.0553488,20.2472993 C59.4981376,17.0692608 65.3369766,14.5179217 67.1784842,13.6622788 C70.5359736,12.1006526 72.5335184,10.0305848 72.5335184,8.19547355 C72.5335184,6.90376905 71.4843029,4.92100263 68.9883808,4.92100263 C66.4913378,4.92100263 64.3453783,7.00443292 64.0958534,9.78204302 C63.380683,9.77758887 62.3915509,9.77758887 60.7632492,9.77758887 C60.0579433,9.77758887 57.7041585,9.78204302 57.7041585,9.78204302 C57.7041585,9.78204302 58.6042867,4.82679729 61.5483673,2.63913981 C63.909102,0.886430422 65.6954585,0.142586793 68.9383862,0.011634681 C72.6330593,-0.13757946 76.1282022,1.15189797 77.7253412,3.68141172 C79.2558954,6.10580745 79.7036055,10.0998469 77.3935381,12.6335921 C75.3684178,14.8555465 73.2854561,16.0755392 71.4627806,17.1256058 C68.9966759,18.5451446 65.6820071,20.213225 64.7289697,20.6849199 C63.9151552,21.0822304 64.0451862,21.4866675 64.0451862,21.4866675 L74.7249886,21.4866675 C76.3263873,21.4866675 77.183695,20.8653131 77.183695,20.8653131 C77.183695,20.8653131 77.8701688,23.0828134 76.7756667,24.5564701 C76.3873674,25.0798331 75.2661865,26.2949262 73.3190848,26.2949262 L54.7035817,26.2949262 C54.7035817,26.2949262 55.2102541,22.6469745 57.0553488,20.2472993 Z" id="Shape"></path>
                <path d="M36.3266183,13.9881001 L28.2064082,14.012598 C28.2064082,14.012598 28.8332472,9.93036633 32.8180239,9.93036633 C36.4768265,9.93036633 36.3266183,13.9881001 36.3266183,13.9881001 Z M32.7429198,5.99734882 C29.6535633,6.1100389 27.1793877,6.63162027 24.5099415,9.43261468 C21.664281,12.4191246 21.1291363,20.4321467 21.9182898,22.0659302 C22.7074432,23.6997137 24.1301614,26.766621 31.2356815,26.9926693 C39.4563293,27.2547962 41.4303339,20.4000768 41.4303339,20.4000768 L34.9186967,20.3940637 C34.9186967,20.3940637 34.8518877,22.5498739 31.497537,22.6155727 C26.762616,22.7073283 27.808917,17.9064189 27.808917,17.9064189 L42.2853997,17.9115412 C42.2853997,17.9115412 42.3028866,17.620685 42.5477035,13.8604886 C42.8111283,9.81455834 39.0278996,5.76595555 32.7426956,5.99757153 M19.675928,11.7396435 L18.9226452,11.7240539 L16.0655508,7.81464343 C16.0655508,7.81464343 15.3100261,7.7990539 15.0096097,7.78725039 C14.8795787,7.78235082 14.7069514,7.77656042 14.5163887,7.74560405 C14.260138,9.32126084 13.915556,11.3779662 13.4727781,13.6228596 C12.6060544,18.0184409 12.6746569,21.1303352 8.85981724,21.1303352 C7.6480631,21.1303352 6.50580826,20.5811381 6.50065186,19.689862 C6.49168421,18.0834715 6.73986401,15.3002937 6.73986401,15.3002937 L0.289206818,15.2722326 C0.289206818,15.2722326 0,17.9465063 0,20.8031777 C0,23.3888137 2.83826226,26.7416778 8.45873895,26.7233446 C12.7466224,26.7076035 15.5880233,25.7143273 18.0570424,22.2289522 C19.2912157,20.4860419 19.9012403,16.3512513 20.8639179,11.8229361 C21.1432603,10.5062884 21.4288801,9.17895064 21.7023935,7.91597542 L21.4490573,7.62244671 L18.0238621,7.81909759 L19.675928,11.7396435 Z M16.3818848,1.44965813 C15.5389254,2.45518327 15.0741768,4.37915486 14.8663514,5.59870208 C14.8136664,5.90648409 14.7513413,6.28775962 14.6816177,6.72493479 C14.8060439,6.71268586 14.9192606,6.708009 15.0098339,6.7048911 C15.3102502,6.69375571 16.065775,6.67861159 16.065775,6.67861159 L18.9226452,2.76808755 L19.675928,2.75116177 L18.0236379,6.6730439 L21.4499541,6.86902665 L22.0888994,6.12830093 C22.8242469,2.74537137 23.3936929,0.179778974 23.3936929,0.179778974 C23.3936929,0.179778974 21.2302466,0.156394669 19.9725332,0.179778974 C18.7195278,0.202495157 17.2241716,0.446137352 16.3818848,1.44965813 Z" id="Shape"></path>
            </g>
        </g>
    </g>
</svg>