<?xml version="1.0" encoding="UTF-8"?>
<svg width="141px" height="64px" viewBox="0 0 141 64" version="1.1" xmlns="http://www.w3.org/2000/svg" xmlns:xlink="http://www.w3.org/1999/xlink">
    <title>Jetstar</title>
    <g id="Taskboard" stroke="none" stroke-width="1" fill="none" fill-rule="evenodd">
        <g id="Jetstar">
            <rect id="Rectangle" x="0" y="0" width="141" height="64"></rect>
            <g id="Jetstar-logo-black_svg" transform="translate(18.000000, 18.000000)">
                <polygon id="Path" points="0 0 105 0 105 28 0 28"></polygon>
                <path d="M32.45625,13.4101333 L29.985,13.4101333 L29.985,18.7021333 C29.985,19.6597333 30.5503125,19.8706667 31.42125,19.8706667 C31.75125,19.8706667 32.10375,19.824 32.45625,19.824 L32.45625,22.7509333 C31.7278125,22.7752 30.9975,22.8685333 30.2690625,22.8685333 C26.8584375,22.8685333 25.9884375,21.8857333 25.9884375,18.5826667 L25.9884375,13.4101333 L23.96625,13.4101333 L23.96625,10.7389333 L25.989375,10.7389333 L25.989375,6.9216 L29.9878125,6.9216 L29.9878125,10.7389333 L32.458125,10.7389333 L32.458125,13.4101333 L32.45625,13.4101333 Z M52.58625,13.4101333 L50.115,13.4101333 L50.115,18.7021333 C50.115,19.6597333 50.6803125,19.8706667 51.549375,19.8706667 C51.8803125,19.8706667 52.23375,19.824 52.5853125,19.824 L52.5853125,22.7509333 C51.8559375,22.7752 51.1265625,22.8685333 50.398125,22.8685333 C46.985625,22.8685333 46.1175,21.8857333 46.1175,18.5826667 L46.1175,13.4101333 L44.0953125,13.4101333 L44.0953125,10.7389333 L46.1184375,10.7389333 L46.1184375,6.9216 L50.1178125,6.9216 L50.1178125,10.7389333 L52.5890625,10.7389333 L52.5890625,13.4101333 L52.58625,13.4101333 Z M11.1534375,17.696 C11.1534375,21.2501333 9.3234375,23.0468 5.5753125,23.0468 C1.36125,23.0468 0,20.6294667 0,17.0949333 L0,16.408 L3.90375,16.408 L3.90375,17.8733333 C3.90375,18.9186667 4.485,19.4936 5.5096875,19.4936 C6.4696875,19.4936 7.005,18.9616 7.005,17.4281333 L7.005,6.86 L11.154375,6.86 L11.154375,17.696 L11.1534375,17.696 Z M15.553125,17.6381333 C15.6215625,19.2873333 16.5778125,20.3774667 18.2578125,20.3774667 C19.2140625,20.3774667 20.146875,19.9369333 20.52,19.0558667 L24.226875,19.0558667 C23.505,21.84 20.9175,23.0468 18.2109375,23.0468 C14.2715625,23.0468 11.5884375,20.6808 11.5884375,16.6404 C11.5884375,12.9490667 14.5509375,10.3030667 18.118125,10.3030667 C22.4559375,10.3030667 24.624375,13.5529333 24.43875,17.6372 L15.553125,17.6372 L15.553125,17.6381333 Z M20.4721875,15.4336 C20.4028125,14.0896 19.4465625,12.9724 18.11625,12.9724 C16.7175,12.9724 15.7846875,13.9692 15.5521875,15.4326667 L20.47125,15.4326667 L20.4721875,15.4336 Z M36.3515625,18.7413333 C36.3515625,19.3442667 36.6075,19.782 37.003125,20.0834667 C37.374375,20.3634667 37.9125,20.5006667 38.4684375,20.5006667 C39.2371875,20.5006667 40.329375,20.1758667 40.329375,19.2266667 C40.329375,18.3026667 39.095625,18.1178667 38.398125,17.9545333 C35.9090625,17.3292 32.791875,17.2610667 32.791875,14.0177333 C32.791875,11.1225333 35.9325,10.3348 38.304375,10.3348 C40.955625,10.3348 43.723125,11.1001333 43.86375,14.2268 L40.2121875,14.2268 C40.2121875,13.7172 40.0246875,13.3924 39.7003125,13.1814667 C39.3759375,12.9761333 38.9334375,12.8828 38.4440625,12.8828 C37.7925,12.8828 36.7453125,12.9518667 36.7453125,13.7881333 C36.7453125,14.9202667 39.395625,15.1293333 41.2115625,15.5241333 C43.6528125,16.0094667 44.28,17.7678667 44.28,18.7656 C44.28,21.9828 41.210625,23.0496 38.488125,23.0496 C35.626875,23.0496 32.6971875,22.0994667 32.581875,18.7432 L36.350625,18.7404 L36.3515625,18.7413333 Z M53.3090625,14.4106667 C53.3784375,12.8389333 54.12,11.8234667 55.186875,11.2 C56.255625,10.5989333 57.646875,10.3674667 59.0165625,10.3674667 C61.8703125,10.3674667 64.629375,10.9928 64.629375,14.3864 L64.629375,19.6317333 C64.629375,20.6462667 64.629375,21.7541333 65.094375,22.7024 L61.125,22.7024 C60.9890625,22.3328 60.94125,21.9622667 60.8953125,21.5702667 C59.8734375,22.6342667 58.3659375,23.0477333 56.9296875,23.0477333 C54.6328125,23.0477333 52.8234375,21.8941333 52.8234375,19.4217333 C52.8234375,15.5166667 57.0909375,15.8190667 59.8284375,15.2656 C60.5015625,15.1274667 60.87375,14.896 60.87375,14.1568 C60.87375,13.2552 59.7825,12.9089333 58.970625,12.9089333 C57.8803125,12.9089333 57.185625,13.3942667 56.9971875,14.4116 L53.3090625,14.4116 L53.3090625,14.4106667 Z M58.4128125,20.6229333 C60.2934375,20.6229333 60.9196875,19.5608 60.8259375,17.0902667 C60.27,17.4374667 59.248125,17.5056 58.3903125,17.7361333 C57.5090625,17.9442667 56.7665625,18.3148 56.7665625,19.2621333 C56.7665625,20.2328 57.5325,20.6248 58.41375,20.6248 L58.4128125,20.6229333 Z M70.70625,11.088 C70.1015625,11.4828 69.6328125,12.0568 69.3496875,12.8053333 L69.3028125,12.8053333 L69.3028125,10.696 L65.46375,10.696 L65.46375,22.7145333 L69.42,22.7145333 L69.42,16.7645333 C69.42,15.2618667 70.441875,13.916 72.3946875,13.916 C72.8475,13.916 73.254375,13.9850667 73.6790625,14.0914667 L70.7071875,11.0889333 L70.70625,11.088 Z" id="Shape" fill="#000000" fill-rule="nonzero"></path>
                <polygon id="Path" fill="#FF5111" fill-rule="nonzero" points="88.089375 0 88.605 8.24133333 100.037813 8.24133333 89.0878125 15.456 91.50375 27.3513333 82.194375 19.306 69.6665625 25.7796 77.1384375 15.5848 70.05375 8.24133333 81.519375 8.24133333"></polygon>
            </g>
        </g>
    </g>
</svg>