<?xml version="1.0" encoding="UTF-8"?>
<svg width="84px" height="64px" viewBox="0 0 84 64" version="1.1" xmlns="http://www.w3.org/2000/svg" xmlns:xlink="http://www.w3.org/1999/xlink">
    <title>KLM</title>
    <g id="Taskboard" stroke="none" stroke-width="1" fill="none" fill-rule="evenodd">
        <g id="KLM">
            <rect id="Rectangle" x="0" y="0" width="84" height="64"></rect>
            <g id="Group-5" transform="translate(18.000000, 18.000000)" fill="#00A1DE" fill-rule="nonzero">
                <g id="kl-logo-small-2022">
                    <path d="M23.2823211,4.48402662 L24.7888242,4.48402662 L24.7888242,2.98905673 L26.2953274,2.98905673 L26.2953274,1.49496988 L24.7888242,1.49496988 L24.7888242,0 L23.2823211,0 L23.2823211,1.49496988 L21.775818,1.49496988 L21.775818,2.98905673 L23.2823211,2.98905673 L23.2823211,4.48402662 Z M33.028347,4.11049757 C32.3289737,4.10886092 31.6577293,4.38381262 31.1629461,4.8746009 C30.6681628,5.36538918 30.3905741,6.03160954 30.3915194,6.72603993 C30.3905741,7.42047031 30.6681628,8.08669067 31.1629461,8.57747895 C31.6577293,9.06826723 32.3289737,9.34321893 33.028347,9.34158228 C33.7275663,9.34298386 34.3985818,9.06792836 34.8931725,8.57716563 C35.3877631,8.0864029 35.6652298,7.42031695 35.6642852,6.72603993 C35.6652298,6.0317629 35.3877631,5.36567696 34.8931725,4.87491423 C34.3985818,4.3841515 33.7275663,4.109096 33.028347,4.11049757 L33.028347,4.11049757 Z M15.0196761,13.0776751 L33.028347,13.0776751 L33.028347,10.0886184 L15.0196761,10.0886184 L15.0196761,13.0776751 Z M17.655612,6.72603993 C17.655612,5.27787064 16.4790455,4.11049757 15.0427984,4.11049757 C14.3434251,4.10886092 13.6721807,4.38381262 13.1773975,4.8746009 C12.6826142,5.36538918 12.4050255,6.03160954 12.4059708,6.72603993 C12.4050255,7.42047031 12.6826142,8.08669067 13.1773975,8.57747895 C13.6721807,9.06826723 14.3434251,9.34321893 15.0427984,9.34158228 C16.4790455,9.34158228 17.655612,8.17332618 17.655612,6.72603993 L17.655612,6.72603993 Z M24.4117514,6.72603993 C24.4108061,7.42047031 24.6883948,8.08669067 25.183178,8.57747895 C25.6779613,9.06826723 26.3492057,9.34321893 27.0485789,9.34158228 C28.5079483,9.34158228 29.6613925,8.17332618 29.6613925,6.72603993 C29.6613925,5.27787064 28.484826,4.11049757 27.0485789,4.11049757 C26.3492057,4.10886092 25.6779613,4.38381262 25.183178,4.8746009 C24.6883948,5.36538918 24.4108061,6.03160954 24.4117514,6.72603993 L24.4117514,6.72603993 Z M21.0225664,9.34157495 C22.475435,9.33625467 23.6521634,8.16863351 23.6585047,6.72603993 C23.6594492,6.0317629 23.3819825,5.36567696 22.8873919,4.87491423 C22.3928013,4.3841515 21.7217858,4.109096 21.0225664,4.11049757 C20.3231931,4.10886092 19.6519487,4.38381262 19.1571655,4.8746009 C18.6623823,5.36538918 18.3847936,6.03160954 18.3857389,6.72603993 C18.4088635,8.17420922 19.5631971,9.34157495 21.0225664,9.34157495 L21.0225664,9.34157495 Z M40.5377404,16.0667318 L38.2779857,22.7927718 L36.0173417,16.0667318 L28.5079483,16.0667318 L28.5079483,28 L33.0043354,28 L33.0043354,19.0328298 L36.0173417,27.9770412 L40.5137288,27.9770412 L43.5036129,19.0328298 L43.5036129,27.9770412 L48,27.9770412 L48,16.04289 L40.5377404,16.04289 L40.5377404,16.0658488 L40.5377404,16.0667318 Z M19.5160633,16.0667318 L15.0196761,16.0667318 L15.0196761,28 L27.0254567,28 L27.0254567,24.9879845 L19.515174,24.9879845 L19.515174,16.0667318 L19.5160633,16.0667318 Z M13.513173,16.0667318 L9.01678586,16.0667318 L4.49638715,20.5507585 L4.49638715,16.0667318 L0,16.0667318 L0,28 L4.49638715,28 L4.49638715,23.5168564 L9.01678586,28 L15.0196761,28 L8.26353429,21.2748431 L13.513173,16.0667318 L13.513173,16.0667318 Z" id="Shape"></path>
                </g>
            </g>
        </g>
    </g>
</svg>