<?xml version="1.0" encoding="UTF-8"?>
<svg width="256px" height="64px" viewBox="0 0 256 64" version="1.1" xmlns="http://www.w3.org/2000/svg" xmlns:xlink="http://www.w3.org/1999/xlink">
    <title>Korean</title>
    <g id="Taskboard" stroke="none" stroke-width="1" fill="none" fill-rule="evenodd">
        <g id="Korean">
            <rect id="Rectangle" x="0" y="0" width="256" height="64"></rect>
            <g id="KoreanAir_logo" transform="translate(18.000000, 19.000000)" fill-rule="nonzero">
                <path d="M103.17971,13.758678 C103.17971,13.758678 104.616777,10.3530821 105.229678,9.37155033 C105.229678,9.37155033 106.984615,11.8032922 107.605124,13.8009336 C107.605124,13.8009336 105.62558,14.1140256 103.17971,13.7586501 M62.1004863,11.171322 L62.1004863,7.33353805 C62.1004863,7.33353805 62.1405258,4.46961508 64.3845651,4.46961508 C66.6400994,4.46961508 66.3564942,7.25286573 66.3793326,7.60437449 C66.3983531,7.963568 66.2537077,11.171322 62.1004863,11.171322 L62.1004863,11.171322 Z M69.1297512,1.57110733 C69.1297512,1.57110733 58.1851864,2.39705974 52.2808321,1.84194377 C52.2808321,1.84194377 51.5784727,1.6517866 51.3843259,2.47196677 C51.3843259,2.47196677 51.0017452,3.09623143 51.6184502,3.52841252 C52.2351484,3.96252 54.0262519,5.01896575 54.0262519,8.93741502 C54.0262519,12.8577907 54.0262519,16.4977257 54.0262519,16.4977257 C54.0262519,16.4977257 54.3764771,20.65436 51.5385021,22.2178939 C51.5385021,22.2178939 50.9598725,22.4157428 51.2682182,23.2416882 C51.2682182,23.2416882 51.3082577,23.9850419 52.1266558,23.8697918 C52.9375078,23.7487068 57.5227977,23.3972745 63.8116416,23.8293861 C63.8116416,23.8293861 64.3522096,23.8697918 64.5025749,23.5105357 C64.6624642,23.1667047 64.7043368,23.1244491 64.7043368,23.1244491 C64.7043368,23.1244491 65.2506109,22.5770179 64.4264378,22.0276672 C63.6155927,21.480236 62.2546625,20.6542905 62.1404569,17.1680154 C62.0242733,13.6779083 62.1404569,13.6029943 62.1404569,13.6029943 L62.6429563,13.6029943 C62.6429563,13.6029943 64.3845651,13.4416497 65.5532573,16.1173349 C65.5532573,16.1173349 67.8087848,21.5954861 68.1552059,22.2600869 C68.5073331,22.9304461 69.1659108,24.3384006 71.61369,24.102142 C74.0576581,23.8697222 85.4666469,23.0437768 97.5856101,24.1425477 C97.5856101,24.1425477 98.9065766,24.3384701 99.410978,23.0438463 C99.410978,23.0438463 101.506623,17.3640074 102.009122,16.4573896 C102.009122,16.4573896 106.438334,16.3421394 108.846143,16.3805562 C108.846143,16.3805562 109.735027,17.9114386 109.735027,19.7535006 C109.735027,21.5955556 108.147594,22.0277367 108.147594,22.0277367 C108.147594,22.0277367 107.485206,22.2985732 107.797362,23.1245186 C107.797362,23.1245186 107.913553,23.9101279 108.690064,23.8294556 C109.462841,23.7487833 116.414067,23.0861019 126.896103,23.7487833 C126.896103,23.7487833 127.596553,24.0272975 127.826866,23.0861019 C127.826866,23.0861019 128.255131,22.3408288 127.516612,21.9874006 C127.516612,21.9874006 124.7662,21.3631359 124.7662,16.9299068 C124.7662,12.5005166 124.804241,9.37152251 124.804241,9.37152251 C124.804241,9.37152251 126.896082,12.3852735 129.38193,16.895336 C131.86777,21.3996332 133.18873,23.3223605 133.18873,23.3223605 C133.18873,23.3223605 134.43165,25.7521899 136.873716,24.4575592 C139.319587,23.1667742 141.959611,21.676228 143.474717,20.6140239 C143.474717,20.6140239 144.060962,20.3431874 143.745001,19.592149 L143.51659,19.1253901 C143.51659,19.1253901 143.47469,18.8526411 142.661963,18.7719619 C142.661963,18.7719619 140.836602,19.2060694 140.794729,16.5783981 C140.760479,13.956492 140.638651,10.2320458 140.794729,6.4326786 C140.794729,6.4326786 140.874671,4.07777015 143.010286,3.41316933 C143.010286,3.41316933 143.78307,3.33833184 143.434746,2.39705974 L143.202531,1.92261609 C143.202531,1.92261609 143.202531,1.53077117 142.661963,1.61145044 C142.119493,1.69212276 139.08928,1.96295225 135.870627,1.69212276 C135.870627,1.69212276 135.170176,1.69212276 135.088326,2.47196677 C135.088326,2.47196677 134.897983,3.18074959 135.442362,3.41316933 C135.984832,3.64750851 137.884421,4.35436493 138.006242,7.36811587 C138.118622,10.3933904 138.158516,14.5807567 138.158516,14.5807567 C138.158516,14.5807567 133.7312,7.99813887 130.897036,2.94449097 C130.897036,2.94449097 130.434507,1.57110733 128.757609,1.69212276 C127.097844,1.8073729 123.091184,2.00329537 120.180883,1.7248785 C120.180883,1.7248785 119.364318,1.61147826 119.24821,2.55275036 C119.24821,2.55275036 119.016001,3.37293749 119.71455,3.72444625 C119.71455,3.72444625 122.046214,5.21499253 122.046214,5.72400705 C122.046214,6.23686046 122.002384,16.6591747 122.002384,16.6591747 C122.002384,16.6591747 122.202244,20.9310591 121.07353,20.3817085 C121.07353,20.3817085 120.414952,20.8119701 118.823708,17.8712067 C117.232465,14.9323698 115.172979,10.7411646 111.836316,2.58732123 C111.836316,2.58732123 111.133964,0.316923988 109.7007,0.316923988 C109.7007,0.316923988 108.846074,0.359207411 107.955281,0.86051633 C107.060676,1.37547695 104.22461,2.98109256 101.276241,3.84545473 C101.276241,3.84545473 100.499653,4.07787447 100.729967,4.86156432 C100.729967,4.86156432 100.617587,5.44548587 101.468486,5.7701085 C102.32121,6.07935471 103.059729,6.43278292 103.291945,6.85920567 C103.291945,6.85920567 102.401151,9.75962591 100.768028,12.7445643 C99.1368142,15.7179791 97.0449801,20.6544644 91.0245181,20.6544644 L88.6547781,20.6544644 C88.6547781,20.6544644 88.036171,20.7292949 88.036171,19.8707745 C88.036171,19.0102512 88.036171,13.5647514 88.036171,13.5647514 L89.5893529,13.5647514 C89.5893529,13.5647514 92.1094513,13.0134813 93.3181141,16.3057465 C93.3181141,16.3057465 93.5465254,17.3237755 94.4011521,16.9300111 C94.4011521,16.9300111 95.3699844,16.814761 95.2938473,15.8332292 C95.2177102,14.8574558 95.1435509,12.1894553 95.3318883,9.84030519 C95.3318883,9.84030519 95.4118295,9.13536125 94.6333399,8.9797819 C94.6333399,8.9797819 94.0147328,8.66668985 93.5464979,9.17570436 C93.082067,9.68279248 92.1094237,10.8948245 89.8957689,10.8948245 C87.6878203,10.8948245 88.078023,10.8948245 88.078023,10.8948245 L88.078023,5.01907007 C88.078023,5.01907007 88.0361228,4.63106403 88.3045254,4.59072787 C88.5748094,4.55032217 91.9571564,3.72444625 93.9347916,5.32831628 C95.9143289,6.93987799 96.0361428,7.60447881 96.458701,8.19416565 C96.458701,8.19416565 96.8450927,9.17570436 97.8538956,8.51302299 C97.8538956,8.51302299 98.6342872,8.39008811 98.2440914,7.17613661 C97.8538956,5.95450038 97.741592,5.53192348 97.0830142,2.47207804 C97.0830142,2.47207804 96.9612004,1.17744727 95.6440449,1.30038215 C94.3249874,1.41563229 86.0585082,2.39716406 78.2907243,1.76713411 C78.2907243,1.76713411 77.4779703,1.57121164 77.3199899,2.43750022 C77.3199899,2.43750022 76.9678627,3.01950232 77.6283425,3.56693355 C77.6283425,3.56693355 79.9162323,4.63106403 79.9162323,8.70126072 C79.9162323,12.7772227 79.9162323,15.5220566 79.9162323,15.5220566 C79.9162323,15.5220566 80.3083302,20.9310591 78.406832,20.9310591 C78.406832,20.9310591 77.5883719,21.2825679 76.1950793,18.4993103 C74.7979826,15.7179791 74.7199435,15.6373068 74.7199435,15.6373068 C74.7199435,15.6373068 73.5931308,11.9877676 68.73755,11.8360201 C68.73755,11.8360201 75.4546583,10.7008215 74.8341491,5.60683746 C74.8341491,5.60683746 74.7199435,1.7248785 69.6759288,1.57121164" id="path3189" fill="#1C4E9D"></path>
                <path d="M160.670071,9.09494859 C162.769527,12.1086995 163.043615,13.5224193 163.043615,13.5224193 C161.378137,13.8009336 158.622012,13.4840304 158.622012,13.4840304 C159.429053,11.2885472 160.670071,9.09494859 160.670071,9.09494859 M178.263222,15.4451745 C178.263222,15.4451745 178.415496,20.5737364 176.513991,20.2203082 C176.513991,20.2203082 175.849708,20.6544157 174.260366,17.7155718 C172.672927,14.7805737 170.611546,10.5855296 167.272974,2.43745154 C167.272974,2.43745154 166.574425,0.161289002 165.137358,0.161289002 C165.137358,0.161289002 164.286536,0.203572425 163.39384,0.704881344 C162.497341,1.2196542 159.665079,2.82929646 156.71671,3.68981975 C156.71671,3.68981975 155.934409,3.92223948 156.168526,4.70592934 C156.168526,4.70592934 156.050517,5.29561617 156.908954,5.60678878 C157.761672,5.92563917 158.5021,6.2713896 158.730504,6.70549013 C158.730504,6.70549013 157.84162,9.60207148 156.208497,12.5812515 C154.579185,15.5623441 153.138314,19.9091425 149.299151,21.8664477 C149.299151,21.8664477 148.554919,22.0277924 148.794749,22.9305713 C149.066935,23.9466808 149.571337,23.6739249 149.571337,23.6739249 C154.034813,23.2014077 155.395743,23.5932526 156.406455,23.6739249 C157.413356,23.7487624 157.257271,22.9305713 157.257271,22.9305713 C157.527555,22.4157984 157.18114,22.1046258 157.18114,22.1046258 L156.754778,21.5552751 C156.754778,21.5552751 155.083586,21.1211676 157.451418,16.3056978 C157.451418,16.3056978 161.882538,16.1904477 164.286536,16.2250255 C164.286536,16.2250255 165.183042,17.7501496 165.183042,19.5922046 C165.183042,21.440025 163.587987,21.8664477 163.587987,21.8664477 C163.587987,21.8664477 162.925605,22.1430425 163.233958,22.9632296 C163.233958,22.9632296 163.353794,23.7488389 164.132366,23.6739249 C164.907045,23.5932526 177.798791,23.043902 188.280827,23.7084889 C188.280827,23.7084889 189.015542,23.7488946 189.207787,23.0861436 C189.207787,23.0861436 189.637953,22.2601982 188.901337,21.7915198 C188.901337,21.7915198 186.839949,20.8503242 186.687682,17.5254007 C186.529695,14.1870341 186.573476,7.87717211 186.573476,7.87717211 C186.573476,7.87717211 186.415496,4.35440666 188.625346,3.26146364 C188.625346,3.26146364 189.207787,2.98102301 188.901337,2.19541371 C188.901337,2.19541371 188.745258,1.45590586 188.040997,1.53081289 C187.344351,1.61149217 180.010544,2.0033371 176.555871,1.57107951 C176.555871,1.57107951 175.771668,1.53081289 175.621296,2.19534417 C175.621296,2.19534417 175.234911,2.82921301 175.897293,3.33822753 C176.555871,3.8453226 178.263222,5.01893793 178.263222,8.66655076 C178.263222,12.3103316 178.263222,15.4450911 178.263222,15.4450911" id="path3191" fill="#1C4E9D"></path>
                <path d="M202.485918,11.0176829 L202.485918,7.17606011 C202.485918,7.17606011 202.56586,4.31981492 204.701482,4.31981492 C206.836912,4.31981492 206.869453,6.73811374 206.759059,7.53141473 C206.65049,8.31510458 206.450706,11.0176829 202.485918,11.0176829 M209.164958,1.25804309 C209.164958,1.25804309 200.622489,2.27607212 192.704333,1.49622811 C192.704333,1.49622811 191.69553,1.21962638 191.575618,2.27607212 C191.575618,2.27607212 191.501459,2.9810091 191.931556,3.26144973 C192.357919,3.52844034 194.103338,4.59065137 194.219439,8.27092258 C194.339282,11.9531132 194.413593,10.894748 194.339282,15.9138251 C194.339282,15.9138251 194.64002,20.7292949 191.931474,21.9067561 C191.931474,21.9067561 191.229121,22.0623424 191.617415,23.0861297 C191.617415,23.0861297 191.851532,23.8698196 192.504404,23.5932248 C192.504404,23.5932248 198.875091,23.1668021 204.391152,23.6336305 C204.391152,23.6336305 205.015465,23.8698891 205.205808,23.0439437 C205.205808,23.0439437 205.710209,22.4965124 204.937426,21.9068256 C204.155125,21.3248166 202.759931,20.3010292 202.600048,17.8308636 C202.44397,15.3587856 202.485843,13.4072387 202.485843,13.4072387 L203.032117,13.4072387 C203.032117,13.4072387 204.857485,13.1671412 206.098503,16.0694809 C207.343325,18.9679817 208.19605,21.0866385 208.19605,21.0866385 C208.19605,21.0866385 209.006902,23.3973719 210.329764,24.142645 C210.329764,24.142645 210.872234,24.6555054 212.891742,24.4134815 C212.891742,24.4134815 216.192245,24.2233173 219.452772,22.6982002 C219.452772,22.6982002 220.189388,22.5368486 219.953362,21.6763253 C219.953362,21.6763253 220.113251,21.0021203 219.18439,20.8119631 C218.251724,20.6141212 217.555078,19.7132618 216.892696,18.3782949 C216.228405,17.0510127 215.2177,15.0879491 215.2177,15.0879491 C215.2177,15.0879491 213.862476,11.6881116 209.433264,11.6420171 C209.433264,11.6420171 215.527955,10.5855714 215.527955,5.95449343 C215.527955,1.33879191 210.09945,1.25804309 210.09945,1.25804309" id="path3193" fill="#1C4E9D"></path>
                <path d="M51.1026227,13.0038006 C51.1026227,20.1761053 45.3467385,25.9903958 38.2413364,25.9903958 C31.1340323,25.9903958 25.3705331,20.1761053 25.3705331,13.0038006 C25.3705331,5.82573067 31.1340323,0.0114401694 38.2413364,0.0114401694 C45.3467385,0.0114401694 51.1026227,5.82573067 51.1026227,13.0038006" id="path3195" fill="#FFFFFF"></path>
                <path d="M43.7669141,5.17265347 C47.6860181,6.38661193 50.5373143,10.0688026 50.5373143,14.4309635 C50.5373143,15.0725101 50.4726033,15.6871706 50.3583976,16.2845422 L50.3431674,16.3690603 C50.0462341,18.0785763 49.3572029,19.6594061 48.3807624,20.9962924 L48.3617419,21.0175037 C50.0786103,18.8124093 51.1064475,16.0233934 51.1064475,12.9923605 C51.1064475,5.82005579 45.3410392,0 38.228029,0 C34.9922432,0 32.0381605,1.20818621 29.773116,3.20006922 L29.7407949,3.22893044 C27.9573065,4.88082831 26.843822,7.25302568 26.843822,9.88645532 C26.843822,10.9717136 27.0303538,12.0243205 27.384383,12.9924092 L27.4016118,13.0385176 C28.298118,15.0131117 30.2757463,16.3922536 32.5712512,16.3922536 C35.7061595,16.3922536 38.2529072,13.8298921 38.2529072,10.6605549 L38.2356785,8.19423519 C38.2356785,7.06864075 38.8638028,6.07366592 39.7869515,5.56657085 L39.7961172,5.56378904 C40.5175108,5.16617883 41.3416839,4.93183965 42.2286661,4.93183965 C42.763521,4.93183965 43.2755376,5.01251892 43.7590027,5.16809827 L43.7666523,5.17435733" id="path3197" fill="#ED192D"></path>
                <path d="M28.3798096,21.3593248 C30.7419276,24.1944353 34.2822619,26 38.2413364,26 C41.4790243,26 44.4426172,24.7937332 46.7038646,22.8018502 L46.7343249,22.7788308 C48.5178133,21.1211676 49.6332068,18.7489703 49.6332068,16.1174601 C49.6332068,15.0302823 49.442864,13.9796019 49.0907368,13.0095868 L49.0735081,12.9691811 C48.1750998,10.9830634 46.2031776,9.60776723 43.9019666,9.60776723 C40.7670583,9.60776723 38.2241146,12.1720482 38.2241146,15.3356201 L38.2413433,17.8096246 C38.2413433,18.9371384 37.6132191,19.9282744 36.6881683,20.4353695 L36.6790027,20.4416285 C35.957616,20.8392387 35.1277297,21.0716515 34.2502647,21.0716515 C33.7115988,21.0716515 33.1976802,20.9832945 32.7161171,20.8353929 L32.7099148,20.8277429 C28.7889087,19.6099456 25.9376126,15.9258355 25.9376126,11.5713593 C25.9376126,10.935571 26.0003251,10.3132258 26.1165293,9.71201533 L26.1272111,9.63133606 C26.4260465,7.91797423 27.1150777,6.34867507 28.0972312,5.00603036 L28.1094291,4.9849582 C26.3963648,7.19005259 25.3666256,9.97906853 25.3666256,13.0043431 C25.3666256,15.0884221 25.8558038,17.0649356 26.7199476,18.8128753 L26.613357,18.8935476 C26.613357,18.8935476 26.1146617,19.2796272 25.1001526,18.1098577 C24.0894407,16.9304771 18.1508288,9.68326539 18.1508288,9.68326539 C18.1508288,9.68326539 21.9195675,5.60730341 25.6083582,3.96309027 C25.6083582,3.96309027 26.5733864,3.64807878 26.344975,2.78947494 L26.1869947,2.27662153 C26.1869947,2.27662153 26.1546736,1.72534446 25.2942995,1.84251404 C24.4415749,1.96360598 20.4006501,2.27662153 16.3673405,1.88291975 C16.3673405,1.88291975 15.7449293,1.88291975 15.5127138,2.39769955 C15.5127138,2.39769955 15.1206091,3.06230038 15.5127138,3.44838001 C15.9029096,3.84599023 17.3019083,4.8236831 17.3019083,6.15480419 C17.3019083,6.15480419 17.6045547,7.13844317 15.4746453,8.70179622 C13.3353703,10.2729453 12.0182217,11.2890549 11.1274286,11.7634915 L11.1616792,8.07938146 C11.1616792,8.07938146 11.0474736,4.98495124 13.2611352,3.52898279 C13.2611352,3.52898279 13.8016963,3.2984825 13.6094584,2.78946798 L13.459162,2.39762306 C13.459162,2.39762306 13.3353634,1.76760006 12.6768684,1.84250709 C12.6768684,1.84250709 8.83770558,2.27661458 1.18412047,1.92318636 C1.18412047,1.92318636 0.677816956,1.88278066 0.487474181,2.27661458 L0.333297912,2.58778023 C0.333297912,2.58778023 0.061111879,3.2984825 0.487474181,3.60965511 C0.917647474,3.92274716 2.70113584,4.98495124 2.78107705,8.22920247 C2.78107705,8.22920247 2.97332188,14.3834781 2.70113584,16.7729644 C2.42704087,19.1662965 2.23670499,20.5377538 0.333297912,22.2184642 C0.333297912,22.2184642 -0.17110355,22.6179938 0.061111879,23.2019154 L0.333297912,23.7090105 C0.333297912,23.7090105 0.525542736,24.1027748 1.18412047,24.0278678 C1.84650919,23.9471885 6.62214187,23.4727518 12.6768684,23.9471885 C12.6768684,23.9471885 13.1070348,24.1027748 13.2992796,23.6744396 L13.5714656,23.1250819 C13.5714656,23.1250819 13.8817202,22.5776507 13.2992796,22.1435502 C12.71493,21.7113691 11.161755,20.4628398 11.1274975,18.0330173 C11.0894565,15.6031949 11.0894565,14.0646208 11.0894565,14.0646208 C11.0894565,14.0646208 12.13823,14.5006477 17.7247146,22.8504066 C17.7247146,22.8504066 19.706154,26.4538513 23.8974509,24.2237903 C23.8974509,24.2237903 26.9638303,22.5373146 28.2448192,21.4405327 L28.380037,21.3598603" id="path3199" fill="#1C4E9D"></path>
            </g>
        </g>
    </g>
</svg>