<?xml version="1.0" encoding="UTF-8"?>
<svg width="149px" height="64px" viewBox="0 0 149 64" version="1.1" xmlns="http://www.w3.org/2000/svg" xmlns:xlink="http://www.w3.org/1999/xlink">
    <title>Malaysia</title>
    <defs>
        <path d="M27.5592476,10.0430925 C27.5238245,10.0430925 26.9216301,10.0076046 26.9216301,10.0076046 C24.4065831,9.83016477 24.4420063,7.5234474 24.4420063,7.5234474 C24.4774295,4.71989861 22.8833856,0.248415716 16.5780564,0 L5.7031348,0 L5.56144201,0.532319392 L14.700627,0.532319392 C15.6216301,0.567807351 16.2592476,1.24207858 15.9758621,2.34220532 L14.346395,8.30418251 C13.7087774,10.0785805 12.0793103,10.0076046 12.0793103,10.0076046 C10.4144201,9.86565272 10.8749216,8.26869455 10.8749216,8.26869455 L11.6188088,5.53612167 C11.8667712,4.61343473 11.1937304,4.15209125 10.6269592,4.15209125 L4.56959248,4.15209125 L4.42789969,4.68441065 L7.0137931,4.68441065 C7.97021944,4.71989861 8.18275862,5.42965779 8.00564263,6.06844106 C8.00564263,6.06844106 7.68683386,7.20405577 7.29717868,8.62357414 C6.94294671,10.0076046 5.6677116,10.0430925 5.45517241,10.0430925 L2.94012539,10.0430925 L2.7630094,10.6818758 L5.13636364,10.6818758 C5.41974922,10.6818758 6.69498433,10.7173638 6.30532915,12.1013942 C5.91567398,13.5209125 5.5968652,14.6565272 5.5968652,14.6565272 C5.41974922,15.2953105 4.81755486,16.0050697 3.86112853,16.0405577 L1.27523511,16.0405577 L1.13354232,16.5728771 L7.19090909,16.5728771 C7.75768025,16.5373891 8.67868339,16.1115336 8.96206897,15.1888466 L9.70595611,12.4562738 C9.70595611,12.4562738 10.0956113,10.8593156 11.8667712,10.7173638 C11.8667712,10.7173638 13.5670846,10.6108999 13.1774295,12.4207858 L11.5479624,18.382763 C11.2291536,19.4828897 10.2373041,20.157161 9.28087774,20.1926489 L0.14169279,20.1926489 L0,20.7604563 L10.9103448,20.7604563 C17.3573668,20.5120406 21.3956113,16.0405577 22.9188088,13.2370089 C22.9188088,13.2370089 24.1231975,10.9657795 26.7445141,10.7528517 L27.3821317,10.7173638 C27.3821317,10.7173638 27.4175549,10.7173638 27.4529781,10.6818758 C27.4884013,10.5754119 27.5946708,10.1495564 27.5946708,10.1140684 C27.5946708,10.0430925 27.5946708,10.0430925 27.5592476,10.0430925" id="path-1"></path>
    </defs>
    <g id="Taskboard" stroke="none" stroke-width="1" fill="none" fill-rule="evenodd">
        <g id="Malaysia">
            <rect id="Rectangle" x="0" y="0" width="149" height="64"></rect>
            <g transform="translate(18.000000, 18.000000)" id="Group">
                <g transform="translate(85.405329, 0.000000)">
                    <path d="M27.5592476,10.0430925 C27.5238245,10.0430925 26.9216301,10.0076046 26.9216301,10.0076046 C24.4065831,9.83016477 24.4420063,7.5234474 24.4420063,7.5234474 C24.4774295,4.71989861 22.8833856,0.248415716 16.5780564,0 L5.7031348,0 L5.56144201,0.532319392 L14.700627,0.532319392 C15.6216301,0.567807351 16.2592476,1.24207858 15.9758621,2.34220532 L14.346395,8.30418251 C13.7087774,10.0785805 12.0793103,10.0076046 12.0793103,10.0076046 C10.4144201,9.86565272 10.8749216,8.26869455 10.8749216,8.26869455 L11.6188088,5.53612167 C11.8667712,4.61343473 11.1937304,4.15209125 10.6269592,4.15209125 L4.56959248,4.15209125 L4.42789969,4.68441065 L7.0137931,4.68441065 C7.97021944,4.71989861 8.18275862,5.42965779 8.00564263,6.06844106 C8.00564263,6.06844106 7.68683386,7.20405577 7.29717868,8.62357414 C6.94294671,10.0076046 5.6677116,10.0430925 5.45517241,10.0430925 L2.94012539,10.0430925 L2.7630094,10.6818758 L5.13636364,10.6818758 C5.41974922,10.6818758 6.69498433,10.7173638 6.30532915,12.1013942 C5.91567398,13.5209125 5.5968652,14.6565272 5.5968652,14.6565272 C5.41974922,15.2953105 4.81755486,16.0050697 3.86112853,16.0405577 L1.27523511,16.0405577 L1.13354232,16.5728771 L7.19090909,16.5728771 C7.75768025,16.5373891 8.67868339,16.1115336 8.96206897,15.1888466 L9.70595611,12.4562738 C9.70595611,12.4562738 10.0956113,10.8593156 11.8667712,10.7173638 C11.8667712,10.7173638 13.5670846,10.6108999 13.1774295,12.4207858 L11.5479624,18.382763 C11.2291536,19.4828897 10.2373041,20.157161 9.28087774,20.1926489 L0.14169279,20.1926489 L0,20.7604563 L10.9103448,20.7604563 C17.3573668,20.5120406 21.3956113,16.0405577 22.9188088,13.2370089 C22.9188088,13.2370089 24.1231975,10.9657795 26.7445141,10.7528517 L27.3821317,10.7173638 C27.3821317,10.7173638 27.4175549,10.7173638 27.4529781,10.6818758 C27.4884013,10.5754119 27.5946708,10.1495564 27.5946708,10.1140684 C27.5946708,10.0430925 27.5946708,10.0430925 27.5592476,10.0430925" id="Path" fill="#0A468C" fill-rule="nonzero"></path>
                    <g>
                        <g id="SVGID_1_-link" fill="#0A468C" fill-rule="nonzero">
                            <path d="M27.5592476,10.0430925 C27.5238245,10.0430925 26.9216301,10.0076046 26.9216301,10.0076046 C24.4065831,9.83016477 24.4420063,7.5234474 24.4420063,7.5234474 C24.4774295,4.71989861 22.8833856,0.248415716 16.5780564,0 L5.7031348,0 L5.56144201,0.532319392 L14.700627,0.532319392 C15.6216301,0.567807351 16.2592476,1.24207858 15.9758621,2.34220532 L14.346395,8.30418251 C13.7087774,10.0785805 12.0793103,10.0076046 12.0793103,10.0076046 C10.4144201,9.86565272 10.8749216,8.26869455 10.8749216,8.26869455 L11.6188088,5.53612167 C11.8667712,4.61343473 11.1937304,4.15209125 10.6269592,4.15209125 L4.56959248,4.15209125 L4.42789969,4.68441065 L7.0137931,4.68441065 C7.97021944,4.71989861 8.18275862,5.42965779 8.00564263,6.06844106 C8.00564263,6.06844106 7.68683386,7.20405577 7.29717868,8.62357414 C6.94294671,10.0076046 5.6677116,10.0430925 5.45517241,10.0430925 L2.94012539,10.0430925 L2.7630094,10.6818758 L5.13636364,10.6818758 C5.41974922,10.6818758 6.69498433,10.7173638 6.30532915,12.1013942 C5.91567398,13.5209125 5.5968652,14.6565272 5.5968652,14.6565272 C5.41974922,15.2953105 4.81755486,16.0050697 3.86112853,16.0405577 L1.27523511,16.0405577 L1.13354232,16.5728771 L7.19090909,16.5728771 C7.75768025,16.5373891 8.67868339,16.1115336 8.96206897,15.1888466 L9.70595611,12.4562738 C9.70595611,12.4562738 10.0956113,10.8593156 11.8667712,10.7173638 C11.8667712,10.7173638 13.5670846,10.6108999 13.1774295,12.4207858 L11.5479624,18.382763 C11.2291536,19.4828897 10.2373041,20.157161 9.28087774,20.1926489 L0.14169279,20.1926489 L0,20.7604563 L10.9103448,20.7604563 C17.3573668,20.5120406 21.3956113,16.0405577 22.9188088,13.2370089 C22.9188088,13.2370089 24.1231975,10.9657795 26.7445141,10.7528517 L27.3821317,10.7173638 C27.3821317,10.7173638 27.4175549,10.7173638 27.4529781,10.6818758 C27.4884013,10.5754119 27.5946708,10.1495564 27.5946708,10.1140684 C27.5946708,10.0430925 27.5946708,10.0430925 27.5592476,10.0430925" id="SVGID_1_"></path>
                        </g>
                        <g id="Clipped">
                            <mask id="mask-2" fill="white">
                                <use xlink:href="#path-1"></use>
                            </mask>
                            <g id="SVGID_1_"></g>
                            <rect id="Rectangle" fill="#0A468C" fill-rule="nonzero" mask="url(#mask-2)" x="2.44420063" y="-0.532319392" width="25.5401254" height="10.8948035"></rect>
                        </g>
                    </g>
                </g>
                <g transform="translate(0.000000, 7.097592)" fill="#0A468C" fill-rule="nonzero">
                    <path d="M15.3736677,3.83269962 C15.0194357,3.40684411 14.3818182,2.87452471 13.1420063,2.87452471 L2.94012539,2.87452471 L0,13.6273764 L2.869279,13.6273764 L5.17178683,5.252218 L7.72225705,5.252218 L5.45517241,13.6273764 L8.32445141,13.6273764 L10.5915361,5.252218 L11.6896552,5.252218 C12.1501567,5.252218 12.4689655,5.35868188 12.6460815,5.60709759 C12.8940439,5.92648923 12.8231975,6.45880862 12.7523511,6.70722433 L10.8749216,13.6273764 L13.7442006,13.6273764 L15.7633229,6.17490494 C15.9758621,5.32319392 15.8341693,4.47148289 15.3736677,3.83269962 Z" id="Path"></path>
                    <path d="M27.2404389,3.9391635 C26.7445141,3.30038023 25.823511,2.91001267 24.8316614,2.91001267 L18.6326019,2.91001267 L18.0304075,5.14575412 L23.4501567,5.14575412 C24.0169279,5.14575412 24.4065831,5.28770596 24.6191223,5.53612167 C24.8316614,5.78453739 24.8670846,6.2103929 24.7253918,6.70722433 L24.5836991,7.13307985 L20.0495298,7.13307985 C17.9949843,7.13307985 16.4009404,8.37515843 15.8341693,10.3624842 C15.5507837,11.356147 15.6570533,12.207858 16.1175549,12.7756654 C16.5426332,13.3434728 17.3219436,13.6273764 18.3137931,13.6273764 L25.6818182,13.6273764 L27.5592476,6.74271229 C27.8780564,5.57160963 27.7717868,4.61343473 27.2404389,3.9391635 Z M23.4501567,11.391635 L19.9786834,11.391635 C19.6598746,11.391635 19.1639498,11.356147 18.9868339,11.1077313 C18.8805643,10.9657795 18.8451411,10.7173638 18.9159875,10.3979721 C19.1639498,9.47528517 19.8724138,9.36882129 20.5808777,9.36882129 L24.0169279,9.36882129 L23.4501567,11.391635 Z" id="Shape"></path>
                    <path d="M43.7830721,3.9391635 C43.2871473,3.30038023 42.3661442,2.91001267 41.3742947,2.91001267 L35.2106583,2.91001267 L34.6084639,5.14575412 L40.0282132,5.14575412 C40.5949843,5.14575412 40.9846395,5.28770596 41.1971787,5.53612167 C41.4097179,5.78453739 41.4451411,6.2103929 41.3034483,6.70722433 L41.1971787,7.13307985 L36.6630094,7.13307985 C34.6084639,7.13307985 33.0144201,8.37515843 32.4476489,10.3624842 C32.1642633,11.356147 32.2705329,12.207858 32.7310345,12.7756654 C33.1561129,13.3434728 33.9354232,13.6273764 34.9272727,13.6273764 L42.2952978,13.6273764 L44.1727273,6.74271229 C44.4561129,5.57160963 44.3498433,4.61343473 43.7830721,3.9391635 Z M39.99279,11.391635 L36.5213166,11.391635 C36.2025078,11.391635 35.7065831,11.356147 35.5294671,11.1077313 C35.4231975,10.9657795 35.3877743,10.7173638 35.4586207,10.3979721 C35.7065831,9.47528517 36.415047,9.36882129 37.123511,9.36882129 L40.5595611,9.36882129 L39.99279,11.391635 Z" id="Shape"></path>
                    <path d="M53.9141066,2.91001267 L51.6115987,11.2851711 L48.7777429,11.2851711 C48.3172414,11.2851711 47.9984326,11.1787072 47.8213166,10.9302915 C47.537931,10.6108999 47.6442006,10.0785805 47.715047,9.79467681 L49.5924765,2.87452471 L46.7586207,2.87452471 L44.8103448,10.0430925 C44.4915361,11.1432193 44.5978056,12.0304183 45.0937304,12.6337136 C45.731348,13.4144487 46.8648903,13.5918885 47.6796238,13.5918885 L50.9739812,13.5918885 L50.6905956,14.6565272 C50.5134796,15.2953105 49.7695925,16.0050697 48.7068966,16.0050697 L43.4288401,16.0050697 L42.8266458,18.2408112 L48.9548589,18.2408112 C50.6551724,18.2408112 52.9931034,16.7503169 53.5598746,14.6210393 L56.7833856,2.87452471 L53.9141066,2.91001267 L53.9141066,2.91001267 Z" id="Path"></path>
                    <path d="M66.7727273,7.98479087 C66.3476489,7.41698352 65.5683386,7.13307985 64.576489,7.13307985 L61.6363636,7.13307985 C61.2821317,7.13307985 60.7862069,7.09759189 60.6090909,6.84917617 C60.5028213,6.70722433 60.4673981,6.45880862 60.5382445,6.17490494 C60.7862069,5.252218 61.530094,5.14575412 62.238558,5.14575412 L67.9416928,5.14575412 L68.5438871,2.91001267 L61.70721,2.91001267 C59.6526646,2.91001267 58.0586207,4.15209125 57.4918495,6.13941698 C57.2084639,7.13307985 57.3147335,7.94930292 57.7752351,8.55259823 C58.2003135,9.12040558 58.9796238,9.40430925 59.9714734,9.40430925 L62.9115987,9.40430925 C63.2658307,9.40430925 63.7263323,9.43979721 63.9388715,9.68821293 C64.0451411,9.83016477 64.0805643,10.0785805 64.0097179,10.3979721 C63.7617555,11.3206591 63.0178683,11.4271229 62.3094044,11.4271229 L56.0394984,11.4271229 L55.4373041,13.6628644 L62.8407524,13.6628644 C64.8952978,13.6628644 66.4893417,12.4207858 67.0561129,10.4334601 C67.3394984,9.40430925 67.2332288,8.58808619 66.7727273,7.98479087 Z" id="Path"></path>
                    <polygon id="Path" points="70.4213166 2.91001267 67.5166144 13.6273764 70.3858934 13.6273764 73.2905956 2.91001267"></polygon>
                    <path d="M83.8467085,3.9391635 C83.3507837,3.30038023 82.4297806,2.91001267 81.437931,2.91001267 L75.2388715,2.91001267 L74.6366771,5.14575412 L80.0564263,5.14575412 C80.6231975,5.14575412 81.0128527,5.28770596 81.2253918,5.53612167 C81.437931,5.78453739 81.4733542,6.2103929 81.3316614,6.70722433 L81.2253918,7.13307985 L76.6912226,7.13307985 C74.6366771,7.13307985 73.0426332,8.37515843 72.4758621,10.3624842 C72.1924765,11.356147 72.2987461,12.207858 72.7592476,12.7756654 C73.184326,13.3434728 73.9636364,13.6273764 74.9554859,13.6273764 L82.323511,13.6273764 L84.2009404,6.74271229 C84.5197492,5.57160963 84.3780564,4.61343473 83.8467085,3.9391635 Z M80.0564263,11.391635 L76.584953,11.391635 C76.2661442,11.391635 75.7702194,11.356147 75.5931034,11.1077313 C75.4868339,10.9657795 75.4514107,10.7173638 75.5222571,10.3979721 C75.7702194,9.47528517 76.4786834,9.36882129 77.1871473,9.36882129 L80.6231975,9.36882129 L80.0564263,11.391635 Z" id="Shape"></path>
                    <polygon id="Path" points="31.0661442 0 27.3467085 13.6273764 30.2159875 13.6273764 33.9354232 0"></polygon>
                </g>
                <g transform="translate(53.765438, 21.789607)" fill="#0A468C" fill-rule="nonzero">
                    <path d="M5.07249343,1.70342205 C4.82453105,1.38403042 4.36402948,1.34854246 4.22233669,1.34854246 L1.14051851,1.34854246 L0.963402522,2.02281369 L3.79725832,2.02281369 C4.0452207,2.02281369 4.22233669,2.09378961 4.32860628,2.23574144 C4.39945268,2.34220532 4.39945268,2.51964512 4.36402948,2.66159696 C4.32860628,2.8035488 4.18691349,3.26489227 4.18691349,3.26489227 L2.02609845,3.26489227 C0.99882572,3.26489227 0.29036177,3.79721166 0.0423993873,4.75538657 C-0.0638702051,5.21673004 0.0423993873,5.53612167 0.219515375,5.78453739 C0.43205456,6.03295311 0.786286535,6.17490494 1.3176345,6.17490494 L4.22233669,6.17490494 L5.14333983,2.73257288 C5.32045581,2.2712294 5.28503262,1.95183777 5.07249343,1.70342205 Z M3.58471914,5.50063371 L1.70728967,5.50063371 C1.35305769,5.50063371 1.14051851,5.42965779 1.03424892,5.28770596 C0.927979325,5.14575412 0.892556127,4.96831432 0.963402522,4.71989861 C1.10509531,4.18757921 1.49475048,3.9391635 2.13236804,3.9391635 L4.0452207,3.9391635 L3.58471914,5.50063371 Z" id="Shape"></path>
                    <polygon id="Path" points="5.92265017 6.17490494 7.19788528 1.34854246 6.38315174 1.34854246 5.07249343 6.17490494"></polygon>
                    <polygon id="Path" points="10.5985122 6.17490494 12.2634025 0 11.448669 0 9.7483555 6.17490494"></polygon>
                    <polygon id="Path" points="12.2634025 6.17490494 13.5386376 1.34854246 12.7239041 1.34854246 11.4132458 6.17490494"></polygon>
                    <path d="M16.8684182,1.34854246 L14.3533712,1.34854246 L13.0427129,6.17490494 L13.8928696,6.17490494 L15.0264119,2.02281369 L16.5850326,2.02281369 C16.9392646,2.02281369 17.1518038,2.09378961 17.2580734,2.2712294 C17.3997662,2.48415716 17.3289198,2.76806084 17.2580734,3.15842839 L16.4433398,6.17490494 L17.2934966,6.17490494 L18.1790765,2.94550063 C18.3207693,2.41318124 18.2499229,2.02281369 18.0728069,1.77439797 C17.8248445,1.4904943 17.4351894,1.34854246 16.8684182,1.34854246 Z" id="Path"></path>
                    <path d="M19.6314276,3.33586819 C19.8439668,2.8035488 20.4107379,2.02281369 21.4025875,2.02281369 L23.102901,2.02281369 L23.2800169,1.34854246 L21.2963179,1.34854246 C19.87939,1.34854246 18.8875405,2.55513308 18.5687317,3.7617237 C18.3561925,4.54245881 18.4270389,5.21673004 18.7458477,5.64258555 C18.99381,5.99746515 19.4188884,6.13941698 19.9502364,6.13941698 L21.9339354,6.13941698 L22.1110514,5.46514575 C22.1110514,5.46514575 20.8003931,5.46514575 20.4107379,5.46514575 C19.9856596,5.46514575 19.702274,5.35868188 19.525158,5.18124208 C19.3126188,4.93282636 19.3126188,4.50697085 19.4188884,4.08111534 L19.4188884,4.04562738 L22.4298602,4.04562738 L22.6069762,3.37135615 L19.6314276,3.37135615 L19.6314276,3.33586819 Z" id="Path"></path>
                    <path d="M27.9204558,2.05830165 L28.0975718,1.38403042 L25.440832,1.38403042 C24.0947505,1.38403042 23.6696721,2.2712294 23.4925561,2.76806084 C23.3862865,3.15842839 23.4571329,3.47782003 23.5988257,3.65525982 C23.7759417,3.90367554 24.0947505,4.04562738 24.6260984,4.04562738 L25.9367568,4.04562738 C26.7160671,4.04562738 26.6097975,4.64892269 26.5389511,4.82636248 C26.3264119,5.42965779 25.6887944,5.50063371 25.0157536,5.50063371 L22.748669,5.50063371 L22.571553,6.17490494 L25.7596408,6.17490494 C26.5743743,6.17490494 27.2474151,5.67807351 27.4599542,4.79087452 C27.5662238,4.36501901 27.4599542,4.01013942 27.2828383,3.7617237 C27.1057223,3.54879594 26.7869135,3.37135615 26.2201423,3.37135615 L25.0866,3.37135615 C24.9803304,3.37135615 24.5906752,3.37135615 24.4844057,3.19391635 C24.4135593,3.05196451 24.4135593,2.91001267 24.4489825,2.73257288 C24.6260984,2.12927757 25.1574464,2.05830165 25.4054088,2.05830165 C25.4054088,2.05830165 27.9204558,2.05830165 27.9204558,2.05830165 Z" id="Path"></path>
                    <path d="M9.39412353,1.34854246 C7.94177243,1.34854246 7.65838685,2.69708492 7.62296365,2.8035488 C7.58754045,2.91001267 6.70196052,6.2103929 6.70196052,6.2103929 L7.55211726,6.2103929 C7.55211726,6.2103929 8.402274,3.01647655 8.43769719,2.91001267 C8.47312039,2.76806084 8.72108277,2.02281369 9.53581632,2.02281369 C10.1025875,2.02281369 10.2442803,2.02281369 10.2442803,2.02281369 L10.4213963,1.3130545 L9.39412353,1.3130545 L9.39412353,1.34854246 Z" id="Path"></path>
                </g>
            </g>
        </g>
    </g>
</svg>