<?xml version="1.0" encoding="UTF-8"?>
<svg width="125px" height="64px" viewBox="0 0 125 64" version="1.1" xmlns="http://www.w3.org/2000/svg" xmlns:xlink="http://www.w3.org/1999/xlink">
    <title>Peach</title>
    <g id="Taskboard" stroke="none" stroke-width="1" fill="none" fill-rule="evenodd">
        <g id="Peach">
            <rect id="Rectangle" x="0" y="0" width="125" height="64"></rect>
            <g id="logo-peach01" transform="translate(18.000000, 18.000000)" fill="#9B308C" fill-rule="nonzero">
                <path d="M7.71333333,14 C7.71333333,11.964539 6.97166667,10.0780142 5.73555556,8.63829787 C4.49944444,10.0780142 3.75777778,11.964539 3.75777778,14 L3.75777778,28 L7.66388889,28 L7.66388889,14.1985816 C7.71333333,14.0992908 7.71333333,14.0496454 7.71333333,14" id="Path"></path>
                <path d="M12.0644444,5.70921986 C9.88888889,5.70921986 7.96055556,6.55319149 6.47722222,7.89361702 L6.52666667,7.9929078 C7.41666667,9.03546099 8.05944444,10.2765957 8.40555556,11.6170213 C9.19666667,10.4255319 10.5316667,9.68085106 12.015,9.68085106 C14.4377778,9.68085106 16.3661111,11.6666667 16.3661111,14.0496454 C16.3661111,16.4822695 14.3883333,18.4184397 12.015,18.4184397 C10.68,18.4184397 9.49333333,17.822695 8.70222222,16.8794326 L8.70222222,21.6453901 C9.74055556,22.0921986 10.8283333,22.3404255 12.015,22.3404255 C16.5638889,22.3404255 20.2722222,18.6170213 20.2722222,14.0496454 C20.3216667,9.43262411 16.6133333,5.70921986 12.0644444,5.70921986 M33.0783333,16.5319149 C32.2872222,17.6737589 31.0016667,18.4184397 29.5183333,18.4184397 C27.6394444,18.4184397 26.0077778,17.177305 25.4144444,15.4893617 L37.6766667,15.4893617 C37.7755556,15.0425532 37.825,14.5460993 37.825,14.0496454 C37.825,9.4822695 34.1166667,5.75886525 29.5677778,5.75886525 C25.0188889,5.75886525 21.3105556,9.4822695 21.3105556,14.0496454 C21.3105556,18.6170213 25.0188889,22.3404255 29.5677778,22.3404255 C33.2761111,22.3404255 36.3911111,19.9078014 37.4788889,16.5319149 L33.0783333,16.5319149 Z M29.5183333,9.63120567 C31.2488889,9.63120567 32.7322222,10.6737589 33.4738889,12.1134752 L25.5627778,12.1134752 C26.255,10.6241135 27.7877778,9.63120567 29.5183333,9.63120567 M0,5.70921986 L0,9.68085106 C1.23611111,9.87943262 2.32388889,10.5744681 3.01611111,11.6170213 C3.36222222,10.2765957 4.005,9.03546099 4.895,7.9929078 L4.94444444,7.89361702 C3.65888889,6.65248227 1.92833333,5.85815603 0,5.70921986 M67.7883333,16.8297872 C66.9972222,17.7730496 65.7611111,18.4184397 64.4261111,18.4184397 C62.0033333,18.4184397 60.075,16.4326241 60.075,14.0496454 C60.075,11.6666667 62.0527778,9.68085106 64.4261111,9.68085106 C65.7611111,9.68085106 66.9972222,10.2765957 67.7883333,11.2695035 L72.2383333,11.2695035 C71.1011111,8.04255319 68.0355556,5.75886525 64.4261111,5.75886525 C59.8772222,5.75886525 56.1688889,9.4822695 56.1688889,14.0496454 C56.1688889,18.6170213 59.8772222,22.3404255 64.4261111,22.3404255 C68.0355556,22.3404255 71.0516667,20.0567376 72.2383333,16.8297872 L67.7883333,16.8297872 Z M55.2294444,13.9503546 C55.2294444,9.38297872 51.5211111,5.65957447 46.9722222,5.65957447 C42.4233333,5.65957447 38.715,9.38297872 38.715,13.9503546 C38.715,18.5177305 42.4233333,22.2411348 46.9722222,22.2411348 C48.1588889,22.2411348 49.2961111,21.9929078 50.285,21.5460993 L50.285,16.7801418 C49.4938889,17.7234043 48.3072222,18.3191489 46.9722222,18.3191489 C44.5494444,18.3191489 42.6211111,16.3333333 42.6211111,13.9503546 C42.6211111,11.5177305 44.5988889,9.58156028 46.9722222,9.58156028 C49.395,9.58156028 51.3233333,11.5177305 51.3233333,13.9503546 L51.3233333,21.9432624 L55.2294444,21.9432624 L55.2294444,13.9503546 Z M73.6227778,0 L77.5288889,0 L77.5288889,21.9929078 L73.6227778,21.9929078 L73.6227778,0 Z M89,13.9503546 C89,9.38297872 85.5388889,5.65957447 81.2866667,5.65957447 C80.3472222,5.65957447 79.4077778,5.85815603 78.5672222,6.20567376 L78.5672222,10.9716312 C79.2594444,10.1276596 80.2483333,9.63120567 81.2866667,9.63120567 C83.3633333,9.63120567 85.0444444,11.6170213 85.0444444,14 L85.0444444,21.9929078 L88.9505556,21.9929078 L89,13.9503546 Z" id="Shape"></path>
            </g>
        </g>
    </g>
</svg>