<?xml version="1.0" encoding="UTF-8"?>
<svg width="137px" height="64px" viewBox="0 0 137 64" version="1.1" xmlns="http://www.w3.org/2000/svg" xmlns:xlink="http://www.w3.org/1999/xlink">
    <title>Republic</title>
    <g id="Taskboard" stroke="none" stroke-width="1" fill="none" fill-rule="evenodd">
        <g id="Republic">
            <rect id="Rectangle" x="0" y="0" width="137" height="64"></rect>
            <g id="Republic_Airways_2019_Logo" transform="translate(18.000000, 18.000000)" fill-rule="nonzero">
                <g id="Group" fill="#BCBEC0">
                    <polygon id="Path" points="15.1946903 1.5787234 16.8333333 1.54893617 15.4926254 2.53191489 16.0289086 4.08085106 14.6882006 3.09787234 13.3772861 4.08085106 13.8837758 2.53191489 12.5430678 1.54893617 14.2115044 1.5787234 14.6882006 0"></polygon>
                    <polygon id="Path" points="15.1946903 25.4978723 16.8333333 25.4978723 15.4926254 26.4510638 16.0289086 28 14.6882006 27.0468085 13.3772861 28 13.8837758 26.4510638 12.5430678 25.4978723 14.2115044 25.4978723 14.6882006 23.9191489"></polygon>
                    <polygon id="Path" points="22.7324484 4.64680851 23.2091445 3.09787234 23.7156342 4.64680851 25.3840708 4.64680851 24.0433628 5.6 24.5498525 7.14893617 23.2389381 6.19574468 21.8982301 7.1787234 22.4345133 5.6 21.0938053 4.64680851"></polygon>
                    <polygon id="Path" points="5.39262537 4.64680851 5.89911504 3.09787234 6.40560472 4.64680851 8.04424779 4.64680851 6.70353982 5.6 7.23982301 7.14893617 5.89911504 6.19574468 4.58820059 7.1787234 5.09469027 5.6 3.7539823 4.64680851"></polygon>
                    <polygon id="Path" points="22.7324484 21.9531915 23.2091445 20.3744681 23.7156342 21.9234043 25.3840708 21.9234043 24.0433628 22.8765957 24.5498525 24.4553191 23.2389381 23.4723404 21.8982301 24.4553191 22.4345133 22.8765957 21.0938053 21.9531915"></polygon>
                    <polygon id="Path" points="5.39262537 21.9531915 5.89911504 20.3744681 6.40560472 21.9234043 8.04424779 21.9234043 6.70353982 22.8765957 7.23982301 24.4553191 5.89911504 23.4723404 4.58820059 24.4553191 5.09469027 22.8765957 3.7539823 21.9531915"></polygon>
                    <polygon id="Path" points="1.63864307 13.4042553 2.14513274 11.8255319 2.65162242 13.4042553 4.29026549 13.3744681 2.94955752 14.3574468 3.48584071 15.906383 2.14513274 14.9234043 0.834218289 15.9361702 1.34070796 14.3574468 0 13.4042553"></polygon>
                </g>
                <g id="Group" transform="translate(12.513274, 8.280851)" fill="#00263A">
                    <path d="M1.07256637,8.63829787 L0,8.63829787 L1.63864307,0.476595745 L4.6179941,0.476595745 C6.07787611,0.476595745 6.73333333,1.28085106 6.73333333,2.44255319 C6.73333333,3.69361702 5.92890855,4.82553191 4.6179941,5.09361702 L5.779941,8.60851064 L4.6179941,8.60851064 L3.57522124,5.21276596 L1.81740413,5.21276596 L1.07256637,8.63829787 Z M4.02212389,4.25957447 C4.76696165,4.25957447 5.27345133,3.87234043 5.42241888,3.15744681 C5.51179941,2.68085106 5.54159292,2.50212766 5.54159292,2.32340426 C5.54159292,1.78723404 5.27345133,1.42978723 4.49882006,1.42978723 L2.50265487,1.42978723 L1.93657817,4.25957447 L4.02212389,4.25957447 Z" id="Shape"></path>
                    <path d="M7.15044248,6.22553191 C7.15044248,4.22978723 8.43156342,2.44255319 10.3383481,2.44255319 C11.3513274,2.44255319 12.3345133,2.94893617 12.3345133,4.08085106 C12.3345133,5.39148936 11.0235988,6.04680851 8.22300885,6.07659574 C8.19321534,6.22553191 8.19321534,6.40425532 8.19321534,6.52340426 C8.19321534,7.32765957 8.64011799,7.86382979 9.56371681,7.86382979 C10.2787611,7.86382979 10.8746313,7.50638298 11.3513274,6.9106383 L12.0067847,7.50638298 C11.2619469,8.42978723 10.3979351,8.75744681 9.50412979,8.75744681 C8.01445428,8.78723404 7.15044248,7.86382979 7.15044248,6.22553191 Z M8.43156342,5.00425532 L8.34218289,5.33191489 C10.7852507,5.24255319 11.2619469,4.88510638 11.2619469,4.1106383 C11.2619469,3.48510638 10.7554572,3.30638298 10.219174,3.30638298 C9.35516224,3.30638298 8.64011799,3.96170213 8.43156342,5.00425532 Z" id="Shape"></path>
                    <path d="M14.2115044,2.59148936 L15.2542773,2.59148936 L14.9861357,3.93191489 L15.0457227,3.93191489 C15.5224189,2.91914894 16.0884956,2.44255319 16.9823009,2.44255319 C18.0846608,2.44255319 18.7699115,3.30638298 18.7699115,4.70638298 C18.7699115,6.64255319 17.7569322,8.78723404 15.8501475,8.78723404 C15.1053097,8.78723404 14.4498525,8.4 14.2710914,7.65531915 L14.2115044,7.65531915 L13.5560472,10.9914894 L12.5132743,10.9914894 L14.2115044,2.59148936 Z M17.4887906,6.13617021 L17.6675516,5.27234043 C17.7271386,5.03404255 17.7271386,4.85531915 17.7271386,4.67659574 C17.7271386,3.93191489 17.39941,3.39574468 16.6545723,3.39574468 C16.1182891,3.39574468 15.760767,3.63404255 15.4330383,3.99148936 C15.0755162,4.3787234 14.8371681,4.79574468 14.6882006,5.4212766 L14.420059,6.70212766 C14.300885,7.23829787 14.7477876,7.89361702 15.6713864,7.89361702 C16.6545723,7.86382979 17.280236,7.23829787 17.4887906,6.13617021 Z" id="Shape"></path>
                    <path d="M21.8982301,2.59148936 L21.1533923,6.28510638 C21.0938053,6.52340426 21.0938053,6.76170213 21.0938053,6.9106383 C21.0938053,7.53617021 21.3321534,7.86382979 21.9280236,7.86382979 C22.3451327,7.86382979 22.6728614,7.68510638 23.00059,7.35744681 C23.3879056,6.97021277 23.6560472,6.49361702 23.7752212,5.92765957 L24.4306785,2.59148936 L25.4734513,2.59148936 L24.4306785,7.74468085 L25.2351032,7.74468085 L25.0563422,8.63829787 L24.1923304,8.63829787 C23.6560472,8.63829787 23.3581121,8.34042553 23.3581121,7.86382979 C23.3581121,7.77446809 23.3879056,7.65531915 23.4176991,7.53617021 L23.4474926,7.41702128 L23.3879056,7.41702128 C22.9707965,8.34042553 22.4047198,8.78723404 21.540708,8.78723404 C20.5277286,8.78723404 20.0212389,8.16170213 20.0212389,7.11914894 C20.0212389,6.88085106 20.0510324,6.61276596 20.1106195,6.31489362 L20.8554572,2.56170213 L21.8982301,2.59148936 L21.8982301,2.59148936 Z" id="Path"></path>
                    <path d="M28.0356932,1.05825514e-15 L29.0784661,1.05825514e-15 L28.3038348,3.93191489 L28.3634218,3.93191489 C28.840118,2.91914894 29.4359882,2.47234043 30.3297935,2.47234043 C31.4321534,2.47234043 32.1174041,3.33617021 32.1174041,4.73617021 C32.1174041,6.67234043 31.1044248,8.81702128 29.1976401,8.81702128 C28.4528024,8.81702128 27.7973451,8.42978723 27.6185841,7.68510638 L27.5589971,7.68510638 L27.3504425,8.69787234 L26.3076696,8.69787234 L28.0356932,1.05825514e-15 Z M30.8064897,6.13617021 L30.9852507,5.27234043 C31.0448378,5.03404255 31.0448378,4.85531915 31.0448378,4.67659574 C31.0448378,3.93191489 30.7171091,3.39574468 29.9722714,3.39574468 C29.4359882,3.39574468 29.0784661,3.63404255 28.7507375,3.99148936 C28.3932153,4.34893617 28.1548673,4.79574468 28.0058997,5.4212766 L27.7377581,6.70212766 C27.6185841,7.23829787 28.0654867,7.89361702 28.9890855,7.89361702 C29.9722714,7.86382979 30.5681416,7.23829787 30.8064897,6.13617021 Z" id="Shape"></path>
                    <path d="M34.0539823,8.63829787 C33.4879056,8.63829787 33.1899705,8.3106383 33.1899705,7.86382979 C33.1899705,7.77446809 33.1899705,7.71489362 33.219764,7.59574468 L34.739233,0 L35.7820059,0 L34.2327434,7.74468085 L35.0967552,7.74468085 L34.9179941,8.63829787 L34.0539823,8.63829787 Z" id="Path"></path>
                    <path d="M37.1525074,8.63829787 C36.5864307,8.63829787 36.2884956,8.3106383 36.2884956,7.86382979 C36.2884956,7.77446809 36.2884956,7.68510638 36.3182891,7.62553191 L37.3312684,2.59148936 L38.3740413,2.59148936 L37.3312684,7.74468085 L38.1356932,7.74468085 L37.9569322,8.63829787 L37.1525074,8.63829787 Z M37.5696165,0.863829787 C37.5696165,0.774468085 37.5696165,0.714893617 37.6292035,0.536170213 C37.6887906,0.238297872 37.8973451,0 38.3442478,0 C38.7613569,0 38.9103245,0.208510638 38.9103245,0.446808511 C38.9103245,0.536170213 38.9103245,0.595744681 38.8507375,0.774468085 C38.7911504,1.07234043 38.5825959,1.3106383 38.1356932,1.3106383 C37.7185841,1.3106383 37.5696165,1.10212766 37.5696165,0.863829787 Z" id="Shape"></path>
                    <path d="M39.3870206,6.28510638 C39.3870206,4.17021277 40.5787611,2.44255319 42.3961652,2.44255319 C43.4687316,2.44255319 44.2135693,3.03829787 44.4519174,3.87234043 L43.5879056,4.25957447 C43.4091445,3.66382979 43.0516224,3.33617021 42.3961652,3.33617021 C41.5023599,3.33617021 40.9362832,3.96170213 40.7277286,4.97446809 L40.519174,5.95744681 C40.4893805,6.10638298 40.459587,6.34468085 40.459587,6.46382979 C40.459587,7.26808511 40.8766962,7.83404255 41.7705015,7.83404255 C42.3663717,7.83404255 42.8132743,7.53617021 43.2303835,6.70212766 L44.0348083,7.0893617 C43.5283186,8.13191489 42.6941003,8.72765957 41.6513274,8.72765957 C40.280826,8.78723404 39.3870206,7.83404255 39.3870206,6.28510638 Z" id="Path"></path>
                    <path d="M52.7047198,8.63829787 L52.4365782,6.34468085 L49.3678466,6.34468085 L48.1761062,8.63829787 L47.0141593,8.63829787 L51.3342183,0.476595745 L52.7643068,0.476595745 L53.8368732,8.63829787 L52.7047198,8.63829787 Z M51.8705015,1.4893617 L51.8109145,1.4893617 L49.8445428,5.36170213 L52.3174041,5.36170213 L51.8705015,1.4893617 Z" id="Shape"></path>
                    <path d="M56.0713864,8.63829787 C55.5053097,8.63829787 55.2073746,8.3106383 55.2073746,7.86382979 C55.2073746,7.77446809 55.2073746,7.68510638 55.2371681,7.62553191 L56.2501475,2.59148936 L57.2929204,2.59148936 L56.2501475,7.74468085 L57.0545723,7.74468085 L56.8758112,8.63829787 L56.0713864,8.63829787 Z M56.5182891,0.863829787 C56.5182891,0.774468085 56.5182891,0.714893617 56.5778761,0.536170213 C56.6374631,0.238297872 56.8460177,0 57.2929204,0 C57.7100295,0 57.8589971,0.208510638 57.8589971,0.446808511 C57.8589971,0.536170213 57.8589971,0.595744681 57.79941,0.774468085 C57.739823,1.07234043 57.5312684,1.3106383 57.0843658,1.3106383 C56.6672566,1.3106383 56.5182891,1.10212766 56.5182891,0.863829787 Z" id="Shape"></path>
                    <path d="M58.1569322,8.63829787 L59.3784661,2.59148936 L60.4212389,2.59148936 L60.1828909,3.81276596 L60.2424779,3.81276596 C60.5702065,3.18723404 61.0469027,2.59148936 62.0300885,2.59148936 L62.3876106,2.59148936 L62.179056,3.63404255 L61.7619469,3.63404255 C60.659587,3.63404255 60.0935103,4.25957447 59.9147493,5.12340426 L59.199705,8.63829787 L58.1569322,8.63829787 Z" id="Path"></path>
                    <polygon id="Path" points="63.0430678 2.59148936 64.0560472 2.59148936 64.1752212 5.39148936 64.2348083 7.59574468 64.2943953 7.59574468 65.1882006 5.65957447 66.6182891 2.59148936 67.6312684 2.59148936 67.8696165 5.48085106 68.0185841 7.56595745 68.0781711 7.56595745 68.9421829 5.57021277 70.2530973 2.59148936 71.2660767 2.59148936 68.4952802 8.63829787 67.3035398 8.63829787 67.0353982 5.6 66.9460177 3.96170213 66.8864307 3.96170213 66.1713864 5.54042553 64.6519174 8.63829787 63.40059 8.63829787"></polygon>
                    <path d="M75.8542773,8.63829787 C75.3179941,8.63829787 75.020059,8.34042553 75.020059,7.86382979 C75.020059,7.77446809 75.020059,7.68510638 75.0498525,7.56595745 L75.1094395,7.29787234 L75.079646,7.29787234 C74.6029499,8.3106383 74.0070796,8.75744681 73.1132743,8.75744681 C72.0109145,8.75744681 71.3256637,7.89361702 71.3256637,6.49361702 C71.3256637,4.55744681 72.3386431,2.41276596 74.2454277,2.41276596 C74.9902655,2.41276596 75.6457227,2.8 75.8244838,3.54468085 L75.8840708,3.54468085 L76.0926254,2.53191489 L77.1353982,2.53191489 L76.0926254,7.68510638 L76.8970501,7.68510638 L76.7182891,8.5787234 L75.8542773,8.5787234 L75.8542773,8.63829787 L75.8542773,8.63829787 Z M74.6625369,7.26808511 C75.0498525,6.88085106 75.2584071,6.46382979 75.4073746,5.83829787 L75.6755162,4.55744681 C75.7946903,4.0212766 75.3477876,3.36595745 74.4241888,3.36595745 C73.4707965,3.36595745 72.8451327,3.96170213 72.6365782,5.09361702 L72.4578171,5.95744681 C72.3982301,6.19574468 72.3982301,6.37446809 72.3982301,6.55319149 C72.3982301,7.29787234 72.7259587,7.83404255 73.4707965,7.83404255 C73.9772861,7.86382979 74.3348083,7.59574468 74.6625369,7.26808511 Z" id="Shape"></path>
                    <path d="M82.5876106,2.59148936 L83.6899705,2.59148936 L79.6678466,9.94893617 C79.2507375,10.693617 78.8932153,10.9914894 78.2079646,10.9914894 L77.2843658,10.9914894 L77.4631268,10.0978723 L78.5356932,10.0978723 L79.1911504,8.87659574 L78.2675516,2.59148936 L79.280531,2.59148936 L79.6976401,5.45106383 L79.9359882,7.68510638 L79.9955752,7.68510638 L81.0681416,5.45106383 L82.5876106,2.59148936 Z" id="Path"></path>
                    <path d="M83.3920354,7.68510638 L84.1070796,7.05957447 C84.4943953,7.59574468 85.0306785,7.89361702 85.7457227,7.89361702 C86.520354,7.89361702 87.0566372,7.50638298 87.0566372,6.85106383 C87.0566372,6.46382979 86.8778761,6.19574468 86.2522124,6.07659574 L85.7755162,5.98723404 C84.8519174,5.80851064 84.1666667,5.39148936 84.1666667,4.40851064 C84.1666667,3.36595745 84.9115044,2.44255319 86.460767,2.44255319 C87.3545723,2.44255319 88.0100295,2.77021277 88.4867257,3.36595745 L87.7716814,3.99148936 C87.5035398,3.60425532 87.0566372,3.33617021 86.3713864,3.33617021 C85.5669617,3.33617021 85.1498525,3.72340426 85.1498525,4.2893617 C85.1498525,4.67659574 85.3286136,4.94468085 85.9542773,5.06382979 L86.4309735,5.15319149 C87.4141593,5.33191489 88.039823,5.74893617 88.039823,6.76170213 C88.039823,7.95319149 87.1162242,8.78723404 85.7159292,8.78723404 C84.7625369,8.78723404 83.8687316,8.4 83.3920354,7.68510638 Z" id="Path"></path>
                </g>
            </g>
        </g>
    </g>
</svg>