<?xml version="1.0" encoding="UTF-8"?>
<svg width="124px" height="64px" viewBox="0 0 124 64" version="1.1" xmlns="http://www.w3.org/2000/svg" xmlns:xlink="http://www.w3.org/1999/xlink">
    <title>Rex</title>
    <g id="Taskboard" stroke="none" stroke-width="1" fill="none" fill-rule="evenodd">
        <g id="Rex">
            <rect id="Rectangle" x="0" y="0" width="124" height="64"></rect>
            <g transform="translate(18.000000, 18.000000)" fill-rule="nonzero">
                <path d="M87.9999404,19.8030545 C88.0098332,21.083231 86.7868253,22.1303397 85.4564608,22.1429385 C84.1267887,22.1548429 83.0379075,21.1273367 83.0267484,19.8513466 C83.0168556,18.5697813 84.0855951,17.5226726 85.4173644,17.5114825 C86.7484413,17.4995781 87.9894738,18.5256756 87.9999404,19.8030545" id="path22442" fill="#F47920"></path>
                <path d="M78.7361798,25.9622781 C78.7375845,25.9523578 78.7361798,25.9424375 78.7361798,25.9378741 C78.7322226,25.8819236 78.726287,25.8307348 78.7183727,25.7769667 C78.7163942,25.7690304 78.712437,25.7610942 78.712437,25.7525627 C78.6328989,25.2696023 78.4241607,24.8496359 78.2845535,24.6207743 C74.3625313,18.1505886 68.3765536,13.048771 68.3765536,13.048771 C68.3765536,13.048771 68.1790932,12.8380835 68.2851441,12.7414993 C68.388425,12.6434866 69.5806069,11.8371836 69.8549343,11.6797086 C70.129242,11.5172139 71.7297395,10.5584158 72.2588067,10.2945355 C73.8523198,9.49731948 75.7229502,9.42311555 75.6433725,8.11494397 C75.6077584,7.46540167 74.8902333,6.97194556 74.5412547,6.83127555 C71.6836588,5.6812734 67.6771917,8.28712089 67.1264791,8.60560255 C66.5680896,8.93106812 65.3563596,9.80107941 65.2209468,9.89907224 C65.0826454,9.99490245 64.9920076,10.0732729 64.8028571,9.90304037 C64.0155284,9.20451158 60.8284823,7.05991888 56.8254975,4.93631756 C52.8197228,2.81412492 47.998702,0.716435448 44.4710466,0.0731826333 C43.5406086,-0.0948674372 42.2270024,-0.0500276309 41.7607348,1.04539296 C41.4396539,1.79782872 41.6784266,2.76093221 42.9305787,3.33557615 C43.8763506,3.76883582 47.7858089,4.59404698 53.900215,7.71575065 C56.5469952,9.06592483 60.7684528,12.0084478 60.7684528,12.0084478 C61.0343911,12.1876087 61.4566754,12.5053959 61.4762236,12.5998968 C61.4964049,12.7133851 60.9715718,12.9967489 60.6923771,13.2592205 C60.4145871,13.5188946 57.8117705,15.2694327 57.2100901,15.6921966 C56.5344314,16.1639471 53.5330732,18.1601518 52.9551356,18.4345278 C52.0470552,18.870585 51.1396674,19.4102301 51.1033608,20.4685288 C51.0954466,20.7338178 51.1375899,20.984385 51.2171281,21.221659 C51.2230638,21.2375315 51.2270209,21.2545945 51.2329566,21.2692765 C51.2408708,21.2972518 51.2487851,21.3224494 51.2630307,21.3484406 C51.4242834,21.7593002 51.695089,22.0749645 51.9659145,22.2520421 C52.2995394,22.4963198 52.7036803,22.6454022 53.1469175,22.6636159 C53.6704051,22.6794884 54.0487257,22.4927882 54.5463932,22.2653551 C55.4070078,21.738289 56.3402356,21.1454512 56.7904374,20.8381795 C57.5079625,20.3489296 64.4341523,15.3045109 64.4341523,15.3045109 C64.4341523,15.3045109 64.5388182,15.1840783 64.7342802,15.3590726 C64.9332047,15.5354557 70.9073309,21.0677156 73.8758845,25.2813083 C74.4482426,26.0918374 74.7127762,26.46 74.9375407,26.8050681 C75.1567059,27.142438 75.343759,27.3216187 75.6306306,27.5581982 C75.9077478,27.7863852 76.2574387,27.9417572 76.6385491,27.9802678 C76.7649791,28 76.8947134,28.0054654 77.021737,27.9941562 C77.5305833,27.9415786 77.8684027,27.8149954 78.2578825,27.3936203 C78.6717974,26.94425 78.7744056,26.4340087 78.7353092,25.9629527" id="path22446" fill="#F47920"></path>
                <path d="M33.0691542,7.91288707 C33.3427694,7.91358149 34.3799903,7.89701457 34.5286594,8.35943995 C34.6291703,8.6716123 34.4162772,8.94948022 34.2013065,9.11326456 C33.4279266,9.70122156 31.7150469,10.1554726 30.4132923,10.1414651 C30.0154433,10.1355129 29.5764006,10.1212277 29.5819802,10.0315481 C29.6195728,9.31831739 31.5321685,7.90304612 33.0691542,7.91284739 M46.9494316,17.3647413 C46.5466955,17.3661499 46.1690674,17.4907292 45.8514886,17.6965162 C45.1381382,17.9680946 44.2991493,18.3404435 43.9641196,18.4328413 C43.5578814,18.5399807 36.0398051,21.6679341 31.0889511,17.1148685 C29.3230261,15.4896239 29.2553198,13.837773 29.2553198,13.837773 C29.2553198,13.837773 29.6196718,13.9407459 30.6289752,13.899279 C40.1433008,13.5094108 40.0267438,6.57658148 37.1524092,4.83515022 C35.3425207,3.74044389 33.5731134,4.06942125 33.0677494,4.07360762 C32.5645024,4.07757574 31.3409208,4.41448935 31.3409208,4.41448935 C26.0508425,6.01802828 25.0450411,10.461911 24.9438179,11.3445211 C24.8615098,12.0241616 24.6883659,12.2859388 24.8559698,14.0581627 C25.1917118,17.5431283 28.3298875,20.9678975 32.1995569,22.4769554 C36.0657242,23.9902195 40.5412686,23.738938 44.5903143,22.4928279 C45.6275353,22.174366 46.3764799,21.940584 46.9460285,21.6564067 C46.9499856,21.6544227 46.9559213,21.6544227 46.961857,21.6544227 C47.2187137,21.5522435 47.4965037,21.4297276 47.7261552,21.3058428 C48.4820842,21.0055748 49.0160385,20.2566508 49.0105022,19.3880284 C48.9985875,18.2597319 48.0786359,17.3526186 46.9499856,17.364523" id="path22450" fill="#003F74"></path>
                <path d="M7.33662231,10.0084139 C7.42316456,9.9125837 16.1187636,0.34793557 25.8669155,0.00147862449 C26.9557967,-0.0334408707 27.8701689,0.55582561 28.1709893,1.46853392 C28.5541969,2.62690881 27.8087345,3.92250144 26.5139643,4.35086047 C25.8927555,4.55593315 25.2373374,4.53557667 24.6656718,4.28935454 L24.6350041,4.27546611 L24.6043365,4.27348205 C23.9635795,4.20840481 23.1336721,4.40641422 22.5501352,4.58424571 C15.3238372,6.76734906 9.24291824,12.3990105 4.47144255,21.321755 C4.21946886,21.7969974 3.9961111,22.0846666 3.55916769,22.5907215 C3.1948157,23.0141799 1.95378514,23.947205 1.04779023,23.739315 C0.238818018,23.5579717 0.098522222,23.0813801 0.0259308012,22.6110184 C-0.0787746415,21.9509805 0.148779647,21.221659 0.436349624,20.2963519 C0.632484366,19.6650035 0.857238991,18.9433802 1.03103974,18.0768609 C1.65434578,14.9796604 1.93005428,12.5816831 1.84978407,10.9508435 C1.81697953,10.2810042 1.84978407,9.42708368 2.41376296,8.79154887 C2.97564655,8.15601405 3.72947825,8.08250455 4.39117431,8.02161368 C5.30344917,7.93550538 5.75365487,8.23930499 6.08171214,8.46257151 C6.386735,8.66905286 6.56262907,8.97563016 6.57309763,9.30109573 C6.5723992,9.30109573 6.56261126,9.40466378 6.56261126,9.40466378 C6.54856348,9.53005651 6.53328899,9.662949 6.53328899,9.78963137 C6.53328899,10.005914 6.57725261,10.2011854 6.74826952,10.2767782 C6.99536012,10.3866952 7.23546838,10.1220213 7.3366777,10.0087115" id="path22454" fill="#003F74"></path>
            </g>
        </g>
    </g>
</svg>