<?xml version="1.0" encoding="UTF-8"?>
<svg width="113px" height="64px" viewBox="0 0 113 64" version="1.1" xmlns="http://www.w3.org/2000/svg" xmlns:xlink="http://www.w3.org/1999/xlink">
    <title>SAS</title>
    <g id="Taskboard" stroke="none" stroke-width="1" fill="none" fill-rule="evenodd">
        <g id="SAS">
            <rect id="Rectangle" x="0" y="0" width="113" height="64"></rect>
            <path d="M38.568942,18.0078017 C42.9673981,18.009539 45.0532281,19.1916539 45.8918965,19.6287675 C46.4348194,19.912371 46.3125317,20.3291034 46.3125317,20.3291034 C46.3125317,20.3291034 46.2195131,20.81171 46.1176352,21.3367701 L46.0493276,21.6882694 C45.9589637,22.1524403 45.8763766,22.5728712 45.8606741,22.6404285 C45.7977957,22.917961 45.6234706,22.8355685 45.386267,22.6842266 C44.1247952,21.893259 42.6837946,21.0177308 40.375505,21.0194654 C37.6756344,21.0216336 36.3005477,23.0597627 37.0190966,25.8888594 C37.266274,26.8619576 38.9743996,33.7733834 39.2840218,35.1094421 C40.440118,40.1041593 37.1335788,45.9982552 28.0153361,45.9999904 C22.9508022,46.0012907 19.7587451,44.0767765 18.6833067,43.1899735 C18.1126306,42.7190356 17.941341,42.4523442 18.0167952,42.1375183 C18.0167952,42.1375183 18.0232693,42.1157397 18.0350261,42.076181 L18.0849526,41.908163 C18.2645605,41.3036387 18.7397425,39.7033892 18.7787085,39.562971 C18.8719421,39.2281975 19.0714186,39.1436368 19.2205923,39.2971469 C20.1251747,40.2169069 22.804664,42.8755812 26.6966232,42.8755812 C30.3527537,42.8755812 30.6172076,40.2277107 30.6245681,39.2168694 L30.6241738,39.0811248 C30.6231726,38.9990824 30.6211797,38.9346109 30.6211059,38.8916893 C30.6141675,37.5786138 28.7906925,30.7630234 28.3353658,28.9425838 C26.9112773,23.2523009 30.3917079,18.003468 38.568942,18.0078017 Z M86.6761606,17.999995 C91.0707139,18.0017334 93.1591457,19.1821137 93.9969469,19.6205283 C94.5416043,19.9054327 94.4171484,20.3208641 94.4171484,20.3208641 C94.4171484,20.3208641 94.0021506,22.4708735 93.9657245,22.6317556 C93.902846,22.9079871 93.7289546,22.8273293 93.4900165,22.676421 C92.2298456,21.8850198 90.7888449,21.0099252 88.479688,21.0103589 C85.7819857,21.0125271 84.4073327,23.0502225 85.124147,25.8801865 C85.3708907,26.854152 87.0807509,33.7651442 87.3882049,35.0994683 C88.545602,40.0963537 85.2394964,45.990016 76.1212538,45.9913189 C71.0558525,45.9934851 68.1170438,44.2146754 67.0411718,43.3291734 C66.4696284,42.8578018 66.2987725,42.5902432 66.373793,42.2749836 C66.373793,42.2749836 66.8594748,39.7312251 66.8841925,39.5560327 C66.9253888,39.2633227 67.2272053,39.1891695 67.4297173,39.3899468 C68.3408044,40.3014676 70.908847,42.8669084 74.8025409,42.8660411 C78.4598062,42.8660411 78.723745,40.2191605 78.7306676,39.2094355 L78.73021,39.0738552 C78.7291672,38.9919227 78.7271342,38.9275619 78.7270235,38.884751 C78.7205188,37.5690736 76.8966101,30.7547842 76.4408498,28.9343446 C75.0171949,23.2444953 78.4976256,17.9947951 86.6761606,17.999995 Z M68.0862551,18.590189 C68.419294,18.590189 68.3264941,18.8672878 68.3273614,18.8672878 L63.1544163,45.3256726 C63.1288313,45.4535977 63.0824313,45.4978295 62.9497361,45.4978295 L61.8944635,45.4979725 C61.8116518,45.4979873 61.7254326,45.4980031 61.6361179,45.4980198 L57.268341,45.4989239 C57.1512304,45.4989487 57.0350772,45.4989731 56.9201933,45.4989972 L53.7681813,45.499564 C53.5040919,45.499564 53.4828433,45.2948838 53.4967199,45.2194297 C53.4967199,45.2194297 54.5816984,39.6436289 54.6055489,39.5295804 C54.628532,39.4150982 54.5118816,39.4229038 54.5118816,39.4229038 L53.7637319,39.42299 C53.7060212,39.4229966 53.6455727,39.4230036 53.5826036,39.4230109 L46.9139966,39.4237711 C46.8190284,39.4237711 46.748778,39.5295804 46.748778,39.5295804 L42.2223969,45.3326109 C42.1664567,45.4150034 42.1352343,45.499564 41.8195411,45.499564 C41.732487,45.4997267 41.6256343,45.4998689 41.50434,45.4999935 L38.6717158,45.500865 C38.4574954,45.500865 38.4310431,45.3443193 38.5550654,45.1921101 L59.8192565,18.816985 L59.8437738,18.7886369 C59.9018524,18.7282432 60.0661448,18.5923572 60.3686841,18.5923572 L61.2964912,18.5920536 C61.3548194,18.5920306 61.4152877,18.5920067 61.4777766,18.5919818 L63.839149,18.5910827 C63.9301024,18.5910512 64.0218816,18.59102 64.1143671,18.5909891 Z M57.1258906,26.2947506 C57.0630122,26.2947506 57.0031692,26.3741075 57.0031692,26.3741075 L49.0596695,36.5617175 C49.0596695,36.5617175 49.0145705,36.6159231 49.0384209,36.6510483 C49.0640059,36.6874744 49.1021667,36.6788015 49.1021667,36.6788015 L55.0921943,36.6781109 C55.109251,36.6767297 55.1369079,36.6725859 55.149339,36.6601548 C55.168853,36.6410744 55.1749241,36.5981436 55.1749241,36.5981436 L57.1666532,26.3827804 C57.1666532,26.3827804 57.1887691,26.2947506 57.1258906,26.2947506 Z" id="Combined-Shape" fill="#2B3087"></path>
        </g>
    </g>
</svg>