<?xml version="1.0" encoding="UTF-8"?>
<svg width="163px" height="64px" viewBox="0 0 163 64" version="1.1" xmlns="http://www.w3.org/2000/svg" xmlns:xlink="http://www.w3.org/1999/xlink">
    <title>Saudia</title>
    <g id="Taskboard" stroke="none" stroke-width="1" fill="none" fill-rule="evenodd">
        <g id="Saudia">
            <rect id="Rectangle" x="0" y="0" width="163" height="64"></rect>
            <g id="Group-22" transform="translate(18.000000, 18.000000)" fill-rule="nonzero">
                <path d="M2.43235661,6.95517515 L2.44575521,7.00431571 L2.41598056,7.05494537 C1.27710021,9.01312194 0.625035382,11.2810329 0.625035382,13.6978546 C0.625035382,21.0719158 6.67077799,27.0491939 14.1308165,27.0491939 C19.1448674,27.0491939 23.5128085,24.3494417 25.8471411,20.3392748 L25.8813819,20.2811996 L25.9290214,20.2633303 L25.9439087,20.31396 L25.914134,20.3779916 C25.7637721,20.6951715 25.597034,21.0093733 25.4168974,21.3191077 C21.7099535,27.713336 13.4072925,29.899346 6.88366673,26.2004026 C0.352597338,22.5029482 -1.93111829,14.3158343 1.77582559,7.91862781 C1.95596222,7.61038253 2.14503125,7.30660456 2.34749886,7.02069589 L2.38025098,6.97155534 L2.43235661,6.95517515 Z M14.7066582,18.3064939 C15.5656568,17.7376548 22.8217389,12.9352826 25.9614757,16.3319372 C23.0658911,15.1987263 18.7768528,17.3430413 15.2411131,19.4471504 C16.1254202,20.0442826 17.1347809,20.7307612 17.9878246,21.3025786 C19.3440599,20.0040767 19.8502289,20.2110626 19.972305,20.2631814 C20.1033134,20.3182784 20.1971036,20.4388961 20.2030585,20.5907851 C20.2045472,20.7858582 20.0512078,20.94966 19.8576726,20.9541274 C19.6656261,20.9600838 19.5033542,20.8022384 19.4973993,20.6071653 L19.504843,20.5282426 C19.1311711,20.7620325 18.7798302,21.0747451 17.9044555,21.9711879 C17.0127048,22.8840109 16.6658301,23.1371592 16.4023245,23.2890482 C16.2162329,23.3947748 16.0346075,23.4186005 15.9244413,23.411155 C15.7383498,23.4007313 15.5567244,23.2682007 15.547792,23.0627038 C15.5343934,22.8601852 15.6862441,22.6889378 15.887223,22.6874487 C16.0852245,22.6844705 16.2534512,22.8423159 16.2504738,23.0448345 L16.2504738,23.079084 C16.4946259,22.9063475 16.7551541,22.5891676 17.2687668,22.0381977 C16.4187005,21.5587051 15.3393695,20.8647809 14.12903,20.1202271 C12.9186905,20.8647809 11.8378707,21.5587051 10.9878044,22.0381977 C11.5029059,22.5891676 11.7649228,22.9063475 12.00312,23.079084 L12.00312,23.0448345 C12.00312,22.8423159 12.1728355,22.6844705 12.3693482,22.6874487 C12.5658609,22.6889378 12.720689,22.8601852 12.7102679,23.0627038 C12.7013355,23.2682007 12.5182214,23.4007313 12.3336186,23.411155 C12.2204749,23.4186005 12.0373608,23.3947748 11.8557355,23.2890482 C11.5922298,23.1371592 11.2468439,22.8840109 10.3550931,21.9711879 C9.4782297,21.0747451 9.1298663,20.7620325 8.75321698,20.5282426 L8.76066065,20.6071653 C8.75619445,20.8022384 8.59243388,20.9600838 8.39740992,20.9541274 C8.2038747,20.94966 8.05053525,20.7858582 8.05202398,20.5907851 C8.06095638,20.4388961 8.15325779,20.3182784 8.28724372,20.2631814 C8.40783105,20.2110626 8.91251136,20.0040767 10.2702354,21.3040677 C11.1232791,20.7322503 12.131151,20.0442826 13.0154581,19.4471504 C9.48120717,17.3415522 5.19216889,15.1987263 2.29807294,16.3319372 C5.43483228,12.9352826 12.6924031,17.7376548 13.5514018,18.3064939 C13.7136736,18.4107315 13.9086976,18.5432621 14.12903,18.6936619 C14.3493624,18.5432621 14.5488525,18.4107315 14.7066582,18.3064939 Z M9.6418414,21.7161038 C9.77433859,21.8486343 9.92172311,21.9975451 10.0869724,22.1702816 C10.1733189,22.2536716 10.250733,22.3340834 10.3281471,22.4100279 C7.81070045,23.8023436 6.85642293,23.4375122 6.38151727,23.0294967 C6.2683736,22.9297265 6.22817782,22.867184 6.21180176,22.8314454 L6.22073416,22.6929584 L6.32047924,22.660198 C6.3785398,22.6721109 6.49614967,22.7361425 6.6078046,22.7823048 C7.2583807,23.0443878 8.3124033,22.5470258 9.6418414,21.7161038 Z M18.616814,21.7161038 C19.9462521,22.5470258 20.998786,23.0443878 21.6523396,22.7823048 C21.7639945,22.7361425 21.8816044,22.6721109 21.9396649,22.660198 L22.0408987,22.6929584 L22.0468537,22.8314454 C22.0319664,22.867184 21.9902818,22.9297265 21.8756494,23.0294967 C21.4022325,23.4375122 20.4434888,23.8023436 17.9349746,22.4100279 C18.0064337,22.3340834 18.0868253,22.2536716 18.1687056,22.1702816 C18.3384211,21.9975451 18.4858056,21.8486343 18.616814,21.7161038 Z M14.1309653,3.55271368e-15 C14.7517668,0.422906576 14.8470456,1.4965532 14.8470456,1.4965532 C15.3651246,0.921757642 16.6975401,0.716260785 17.5520726,1.10938521 C17.0339937,1.26127419 16.7049838,1.45187997 16.3610866,1.8077767 C18.3872515,1.57994323 21.4495742,2.41979995 23.4802053,4.73834058 C21.611846,3.84040866 19.5469741,3.1688211 17.4314852,3.37878528 C19.3549276,3.78233346 22.5839884,5.73604271 23.2628504,8.97634098 C21.1950009,6.55951925 19.0422938,5.28782131 17.3927782,4.99297799 C19.0810008,6.24085021 20.6665009,9.15652301 20.1752192,11.2010678 C19.2790022,9.02845975 17.7188106,6.90499223 16.280695,6.13065624 C17.0920542,7.45596206 17.3600261,10.6575435 16.5799303,12.0707067 C16.3983049,10.2376152 15.813233,7.85355381 14.8902189,6.67864786 L14.6148034,8.97634098 L14.9319034,8.97634098 L14.5999161,11.3157291 L14.861933,11.3157291 L14.5865175,13.6551173 L14.8113161,13.6551173 L14.4674189,15.9945054 L14.1309653,16.2536101 L14.4689076,15.9945054 L15.5899232,16.5588772 L15.5899232,16.639289 L12.6734962,16.639289 L12.6734962,16.5588772 L13.7915343,15.9945054 L13.4446597,13.6551173 L13.670947,13.6551173 L13.3955315,11.3157291 L13.6575484,11.3157291 L13.3255611,8.97634098 L13.6426611,8.97634098 L13.3687343,6.67864786 C12.4442314,7.85355381 11.8576708,10.2376152 11.6790229,12.0707067 C10.8989271,10.6575435 11.1654102,7.45596206 11.9782582,6.13065624 C10.54312,6.90499223 8.97846221,9.02845975 8.08522272,11.2010678 C7.59245227,9.15652301 9.17795236,6.24085021 10.866175,4.99297799 C9.21814814,5.28782131 7.0624635,6.55951925 4.99312536,8.97634098 C5.6779423,5.73604271 8.90402558,3.78233346 10.8244905,3.37878528 C8.71049036,3.1688211 6.65157334,3.84040866 4.77874788,4.73834058 C6.80789025,2.41979995 9.87319043,1.57994323 11.8978666,1.8077767 C11.5539694,1.45187997 11.2234708,1.26127419 10.7098581,1.10938521 C11.5643905,0.716260785 12.8923399,0.921757642 13.4133963,1.4965532 C13.4133963,1.4965532 13.5071864,0.422906576 14.1309653,3.55271368e-15 Z" id="Combined-Shape" fill="#A29061"></path>
                <path d="M72.6222732,21.8404262 C70.01052,21.8404262 68.0517052,21.3038704 66.8425602,20.1581917 C65.7763142,19.1796369 65.2838624,18.0581472 65.2838624,15.8305608 L65.2838624,6.50020615 L68.1132616,6.50020615 L68.1132616,16.2219827 C68.1132616,17.6513323 68.3375031,18.4737581 69.0278149,19.2038259 C69.7752864,19.9976647 71.0591785,20.4286686 72.6222732,20.4286686 C74.1743756,20.4286686 75.4516724,19.9976647 76.1991438,19.2038259 C76.8916541,18.4737581 77.1049033,17.6513323 77.1049033,16.2219827 L77.1049033,6.50020615 L79.9540886,6.50020615 L79.9540886,15.8305608 C79.9540886,18.0581472 79.452843,19.1796369 78.3909939,20.1581917 C77.1796505,21.3038704 75.2076449,21.8404262 72.6222732,21.8404262 M90.5569728,6.19080615 C89.1609599,6.22818914 85.7313851,6.3733231 83.2251574,7.08799792 L83.460391,8.20508964 C84.1375122,8.01377669 84.7706645,7.87963772 85.5071437,7.76528975 L85.5071437,21.5244292 C89.5127112,21.6013942 91.2296971,21.5860012 93.3314109,21.3463103 C97.00941,20.9065104 100.491748,18.1731541 100.491748,13.9664682 C100.491748,8.04456268 95.138533,6.10284617 90.5569728,6.19080615 M91.1065841,20.2204226 C90.5415836,20.2204226 89.3060573,20.1588506 88.7806289,19.7366427 C88.3497336,19.3716088 88.3365429,18.7690829 88.3365429,17.8674932 L88.3365429,7.45303183 C92.6916633,7.07040593 97.5150525,8.3392286 97.5150525,14.0104482 C97.5150525,18.546984 94.5295636,20.2204226 91.1065841,20.2204226 M104.401717,21.5231739 L107.246498,21.5231739 L107.246498,6.50180851 L104.401717,6.50180851 L104.401717,21.5231739 Z M63.4312917,21.5240293 L60.2061723,21.5240293 C59.069576,19.2458658 56.1060716,15.9407697 51.1793555,16.2618236 L48.5895868,21.5240293 L46.5802077,21.5240293 L54.5165956,6.25857517 L55.5278805,6.25857517 L63.4312917,21.5240293 Z M51.7993171,14.9930009 C53.2480926,14.9930009 55.9543789,15.1865129 57.8802171,16.7038225 L54.419864,9.69341229 L51.7993171,14.9930009 Z M127,21.5266681 L123.779277,21.5266681 C122.642681,19.2485046 119.679177,15.9456075 114.752461,16.2622634 L112.162692,21.5266681 L110.153313,21.5266681 L118.085304,6.25901496 L119.098787,6.25901496 L127,21.5266681 Z M115.370224,14.9934407 C116.823396,14.9934407 119.525286,15.1891517 121.451124,16.7086603 L117.990771,9.69605109 L115.370224,14.9934407 Z M44.3419704,7.01437127 C43.5285456,6.58996438 41.4927852,5.96764754 39.3888729,6.00283153 C35.6800956,6.09518951 33.2068445,7.59490712 33.1804631,10.3018754 C33.165074,10.8340333 33.2815916,11.5135241 33.6113584,12.09406 C35.4074883,15.1374752 42.8448291,14.6383023 42.8448291,17.8928215 C42.8448291,18.8295953 41.945665,20.3622979 39.3888729,20.3622979 C36.6122364,20.3622979 34.4973319,19.0912762 33.4816502,18.3062334 L32.7517663,20.5030338 C33.6113584,20.9450327 35.9307183,21.7828515 39.2635616,21.7828515 C40.756306,21.7828515 42.4557043,21.3804346 43.6978259,20.4260688 C44.8981771,19.4936931 45.4411931,18.3414174 45.4411931,16.9186647 C45.4411931,11.5267181 35.9307183,12.8813018 35.9307183,9.49704164 C35.9307183,8.93849578 36.245096,8.53387988 36.3572167,8.39534292 C36.871653,7.73784209 37.9994555,7.33542519 39.4262465,7.33542519 C40.756306,7.33542519 42.1567157,7.77742408 43.5439348,8.8703268 L44.3419704,7.01437127 Z" id="Combined-Shape" fill="#18216D"></path>
            </g>
        </g>
    </g>
</svg>