<?xml version="1.0" encoding="UTF-8"?>
<svg width="227px" height="64px" viewBox="0 0 227 64" version="1.1" xmlns="http://www.w3.org/2000/svg" xmlns:xlink="http://www.w3.org/1999/xlink">
    <title>Southwest</title>
    <defs>
        <linearGradient x1="0.00194086822%" y1="49.9968587%" x2="100.002588%" y2="49.9968587%" id="linearGradient-1">
            <stop stop-color="#3656CC" offset="0%"></stop>
            <stop stop-color="#304CB2" offset="35%"></stop>
            <stop stop-color="#283B80" offset="72%"></stop>
        </linearGradient>
        <linearGradient x1="9.14173523%" y1="22.9587703%" x2="90.7675767%" y2="67.3256918%" id="linearGradient-2">
            <stop stop-color="#E61C23" offset="30%"></stop>
            <stop stop-color="#C3161C" offset="80%"></stop>
        </linearGradient>
        <linearGradient x1="12.8954217%" y1="16.7402396%" x2="109.120964%" y2="67.0752302%" id="linearGradient-3">
            <stop stop-color="#FDBC11" offset="0%"></stop>
            <stop stop-color="#FCB415" offset="25%"></stop>
            <stop stop-color="#F89E1C" offset="80%"></stop>
        </linearGradient>
    </defs>
    <g id="Taskboard" stroke="none" stroke-width="1" fill="none" fill-rule="evenodd">
        <g id="Southwest">
            <rect id="Rectangle" x="0" y="0" width="227" height="64"></rect>
            <g transform="translate(18.000000, 18.000000)" fill-rule="nonzero">
                <g id="Type" fill="#304CB2">
                    <path d="M52.4441407,22.4333408 C51.6290535,22.5857047 50.6778199,22.7192471 49.6549303,22.7192471 C46.7958554,22.7156621 46.1661782,21.7315707 46.1670739,19.8799014 L46.1670739,8.98050639 L40.7874987,8.98050639 L40.776745,20.4185525 C40.7722717,25.4913735 43.6134327,27.8162671 49.396073,27.8225455 C52.2014059,27.8243334 54.8105805,27.3062962 57.8729794,26.5238629 L57.8729794,8.98050639 L52.4441407,8.98050639 L52.4441407,22.4333408 Z M69.9076069,22.9334528 C67.9513977,22.9316603 67.681792,22.010307 67.6826877,20.5332736 L67.6889576,13.5021286 L72.1513358,13.5066099 L72.1513358,8.98050639 L67.6889576,8.98050639 L67.6889576,3.59489133 L62.3004253,3.59489133 L62.3004253,8.97961013 L59.5819753,8.98050639 L59.5819753,13.4949585 L62.3004253,13.4976473 L62.2941554,20.8810217 C62.2914683,24.1317499 62.9515994,27.836881 68.3025122,27.8413684 C69.9389564,27.8431548 71.2762367,27.4488013 72.7380194,27.03473 L72.2023907,22.5516469 C71.4105918,22.781089 70.7173198,22.9334528 69.9076069,22.9334528 Z M13.4310241,12.854134 C12.4341098,12.472328 11.3216502,12.1138248 10.1285775,11.7840018 C6.98825273,10.8967063 6.02179224,10.4010755 6.02268794,9.02173426 C6.02358364,7.39233699 7.23188317,6.64396146 10.0479645,6.64665024 C12.361558,6.64844275 14.4171899,7.24714318 16.5077541,8.03316155 L17.6381278,2.75330495 C15.2286943,1.85525431 12.9401804,1.05489581 10.1644055,1.05309741 C3.6831191,1.04772575 0.108379721,4.73224289 0.10390122,9.1534842 C0.101214119,12.4284114 1.5800151,14.652924 4.77049911,15.9435357 C5.70740148,16.3217567 6.78761589,16.6963926 7.98427132,17.048622 C11.5025816,18.1295093 12.5272626,18.6358951 12.5263669,19.9901412 C12.5254712,21.632086 11.184608,22.506834 8.4276429,22.5041452 C5.89370712,22.5014564 3.56399098,21.8041676 1.12768651,20.6829487 L0,26.0094107 C2.65933381,27.0598252 5.30791921,27.8386735 8.49392471,27.8413703 C15.0880694,27.8476361 18.5087483,24.1532601 18.5123358,19.7185749 C18.5159139,16.0923146 16.4719261,14.0183733 13.4310241,12.854134 Z M83.9969706,8.04750168 C82.2306498,8.04570916 80.5431507,8.45619538 79.3455996,8.87205915 L79.3455996,0 L73.9651287,0 L73.9651287,27.7956531 L79.3285813,27.7956531 L79.3402254,13.8624244 C80.3102687,13.4904773 81.4298939,13.1230114 82.7537387,13.1239077 C84.8487814,13.1257002 85.6065438,13.9296437 85.6047524,15.8879677 L85.5948997,27.7956531 L90.959248,27.7956531 L90.9691075,15.3027112 C90.9735792,10.3921129 88.757617,8.05108671 83.9969706,8.04750168 Z M29.5312346,7.95876819 C24.0907518,7.95429084 19.6991338,11.7768317 19.6937547,17.8176115 C19.6883854,23.8601837 24.0585066,27.836881 29.5133206,27.8413678 C34.9645518,27.8467399 39.3418386,23.8915528 39.3472177,17.8364329 C39.352587,11.781313 34.9672389,7.96414968 29.5312346,7.95876819 Z M29.5177991,22.5534452 C27.179126,22.5516469 25.3062169,20.8702666 25.3089011,17.8256778 C25.3115911,14.781089 27.1262797,13.1758907 29.5258604,13.1776817 C31.9218584,13.1794757 33.6980318,14.7649563 33.6953477,17.8310553 C33.6935533,20.9016357 31.8546809,22.5570244 29.5177991,22.5534452 Z M150.180256,16.3396818 C149.414432,16.0734932 148.553665,15.7983419 147.615867,15.527672 C145.731313,15.031145 145.000422,14.7147659 145.001318,13.9377101 C145.002213,13.1176339 145.731313,12.5718127 147.388359,12.5727089 C149.167219,12.5745015 150.806351,12.941071 152.562819,13.4501456 L153.418212,8.8003585 C151.481708,8.37642841 149.564014,8.00358503 147.391046,8.00089049 C142.296303,7.99641497 139.553669,10.6054224 139.550085,14.1635671 C139.548295,16.691015 140.774509,18.288147 143.314714,19.3627605 C144.03217,19.6683845 144.87592,19.9775935 145.833423,20.27784 C147.81919,20.8514452 148.786547,21.0844723 148.786547,21.9816267 C148.784755,22.8357607 147.609597,23.2238405 146.033164,23.2220479 C144.093078,23.2202554 142.281972,22.9038763 140.412646,22.1662559 L139.576062,26.7855702 C141.890551,27.4452162 144.061728,27.8790052 146.470266,27.8808054 C151.827449,27.8861752 154.230612,25.0773023 154.2342,21.6114721 C154.236882,19.2390769 153.214888,17.406229 150.180256,16.3396818 Z M129.97326,7.98027686 C124.287356,7.97490477 120.342692,11.9399507 120.337314,18.1859736 C120.332839,24.0134439 123.850254,27.857495 130.067309,27.8628756 C132.845771,27.864665 135.110996,27.0858167 137.440713,26.093659 L136.632791,21.6419449 C134.877219,22.4324445 133.061634,23.0481739 130.941512,23.0463814 C127.736697,23.0427963 126.416435,21.6652476 126.209528,19.7185749 L138.286254,19.72933 C138.286254,19.72933 138.460929,17.5370827 138.460929,17.1104638 C138.468081,12.0385391 135.658269,7.98476361 129.97326,7.98027686 Z M126.286558,16.1254761 C126.629612,14.4745687 127.488588,12.4293076 129.74844,12.431099 C132.07726,12.4337889 132.778593,14.7972216 132.838605,16.1308537 L126.286558,16.1254761 Z M164.845555,22.9334528 C162.889346,22.9316603 162.630489,22.010307 162.63228,20.5332736 L162.639446,13.545149 L167.152879,13.5496303 L167.152879,8.98050639 L162.637654,8.98050639 L162.637654,3.59489133 L157.239269,3.59489133 L157.239269,8.97961013 L154.49574,8.98050639 L154.49574,13.5379789 L157.239269,13.5406677 L157.232104,20.8810217 C157.228521,24.1317499 158.017633,27.836881 163.368545,27.8413684 C165.00499,27.8431548 166.353914,27.4488013 167.816592,27.03473 L167.151983,22.5516469 C166.36108,22.781089 165.656164,22.9334528 164.845555,22.9334528 Z M168.428356,1.11494454 C167.119738,1.11404885 166.05475,2.17969975 166.052957,3.49451042 C166.051167,4.80932108 167.117051,5.87586825 168.422982,5.87766133 C169.738765,5.87855702 170.803753,4.81290612 170.805546,3.49809545 C170.807335,2.18328479 169.742348,1.11673762 168.428356,1.11494454 Z M168.422982,5.45641945 C167.32127,5.45552319 166.499018,4.6569572 166.499018,3.49540668 C166.500809,2.34012996 167.324853,1.53529016 168.426564,1.53707969 C169.537233,1.53797894 170.354111,2.34281873 170.352323,3.49809545 C170.353215,4.65964598 169.534545,5.45641945 168.422982,5.45641945 Z M168.718563,3.60475017 C169.127898,3.5420121 169.402877,3.29912615 169.402877,2.88415864 C169.402877,2.43065203 169.084904,2.08559265 168.478515,2.08469639 L167.539821,2.08380013 L167.53803,4.84786018 L168.048579,4.84875644 L168.048579,3.66748824 C168.233989,3.66838449 168.303853,3.72484876 168.431939,3.93009187 L169.024892,4.8496527 L169.61068,4.8496527 L169.043702,3.99372619 C168.916512,3.80282321 168.822464,3.68182837 168.718563,3.60475017 Z M168.318185,3.29822989 L168.048579,3.29733363 L168.05037,2.4933901 L168.401485,2.49428635 C168.747225,2.49428635 168.868144,2.65471656 168.868144,2.89670625 C168.866353,3.23459556 168.605704,3.29822989 168.318185,3.29822989 Z M115.348268,8.98050639 L111.985809,19.3304952 L108.504223,8.98050639 L103.812545,8.98050639 L100.331855,19.3304952 L96.9685004,8.98050639 L91.1222654,8.98050639 L97.7979188,27.7938606 L102.759202,27.7938606 L106.186151,17.6114721 L109.559358,27.7938606 L114.520641,27.7938606 L121.195399,8.98050639 L115.348268,8.98050639 L115.348268,8.98050639 Z" id="Shape"></path>
                </g>
                <g id="Group" transform="translate(170.033450, 7.895138)">
                    <path d="M14.9340089,0 C13.1166333,0 11.6530592,0.633654492 10.4832748,1.29957428 C9.31259467,0.633654492 7.85170769,0 6.03343635,0 C2.39958076,0 0,2.37508402 0,6.4333408 C0,11.3842707 4.7248184,16.2213758 10.4832748,20.1048622 C16.2426269,16.2204795 20.9665496,11.3851669 20.9665496,6.4333408 C20.9665496,2.37598028 18.5687602,0 14.9340089,0 Z" id="Path" fill="#CCCCCC"></path>
                    <path d="M0.592953513,6.52027784 C0.592953513,11.5823437 5.92774373,16.2912839 10.4832748,19.4084696 C11.7945798,18.510419 13.1488785,17.4797222 14.437791,16.3468519 C8.4025633,11.2883711 2.73815542,6.76316379 0.705811734,5.14272911 C0.63326002,5.57562178 0.592953513,6.03719471 0.592953513,6.52027784 Z" id="Path" fill="url(#linearGradient-1)"></path>
                    <path d="M19.9696353,8.86847412 C15.5959314,5.25924266 12.947346,3.42191351 10.1070807,1.7163343 C9.34215278,1.25386511 7.80602698,0.578086489 6.08359556,0.578086489 C4.43371584,0.578086489 3.04806768,1.09164239 2.0932513,2.09276272 C1.47163538,2.74254985 1.0497606,3.559041 0.808817254,4.54940623 C3.07404298,6.13219807 9.22481605,10.5328255 15.4203741,15.4425274 C17.4894415,13.4716558 19.2226214,11.2301143 19.9696353,8.86847412 Z" id="Path" fill="url(#linearGradient-2)"></path>
                    <path d="M18.8643413,2.09545149 C17.9238561,1.1149451 16.5453735,0.58704907 14.9590885,0.58704907 C13.2572582,0.58704907 11.9602844,1.13735156 11.0565229,1.62850101 C12.752979,2.57315707 16.4387852,4.71073269 20.257155,7.5249832 C20.3162713,7.14496975 20.3494122,6.76316379 20.3494122,6.37956531 C20.3485165,4.59690791 19.8281147,3.10374188 18.8643413,2.09545149 Z" id="Path" fill="url(#linearGradient-3)"></path>
                </g>
            </g>
        </g>
    </g>
</svg>