<?xml version="1.0" encoding="UTF-8"?>
<svg width="140px" height="64px" viewBox="0 0 140 64" version="1.1" xmlns="http://www.w3.org/2000/svg" xmlns:xlink="http://www.w3.org/1999/xlink">
    <title>Turkish</title>
    <g id="Taskboard" stroke="none" stroke-width="1" fill="none" fill-rule="evenodd">
        <g id="Turkish">
            <rect id="Rectangle" x="0" y="0" width="140" height="64"></rect>
            <g id="Turkish_Airlines" transform="translate(18.000000, 18.000000)" fill-rule="nonzero">
                <g id="text" transform="translate(34.497110, 1.203306)" fill="#000000">
                    <g id="g539" transform="translate(1.063584, 0.000000)">
                        <polygon id="path110" points="64.8323699 11.153719 64.8323699 6.52561983 60.2080925 6.52561983 60.2080925 11.153719 57.6647399 11.153719 57.6647399 0.185123967 60.2080925 0.185123967 60.2080925 4.53553719 64.8323699 4.53553719 64.8323699 0.185123967 67.3757225 0.185123967 67.3757225 11.153719"></polygon>
                        <path d="M10.265896,0.185123967 L10.265896,7.03471074 C10.265896,7.77520661 10.3583815,8.46942149 10.5895954,8.9785124 C10.8208092,9.48760331 11.1445087,9.95041322 11.5144509,10.2743802 C11.9306358,10.5983471 12.4393064,10.8760331 12.9942197,11.014876 C13.5491329,11.153719 14.1965318,11.246281 14.9364162,11.246281 C15.6300578,11.246281 16.2774566,11.153719 16.8323699,11.014876 C17.3872832,10.8760331 17.849711,10.5983471 18.2196532,10.2743802 C18.5895954,9.95041322 18.9132948,9.48760331 19.0982659,8.9785124 C19.3294798,8.4231405 19.4219653,7.77520661 19.4219653,7.03471074 L19.4219653,0.185123967 L17.0635838,0.185123967 L17.0635838,6.98842975 C17.0635838,7.68264463 16.8786127,8.23801653 16.5549133,8.65454545 C16.2312139,9.07107438 15.6763006,9.30247934 14.9364162,9.30247934 C14.1965318,9.30247934 13.6416185,9.07107438 13.3179191,8.65454545 C12.9942197,8.23801653 12.8092486,7.68264463 12.8092486,6.98842975 L12.8092486,0.185123967 L10.265896,0.185123967 Z" id="path122"></path>
                        <path d="M2.95953757,11.153719 L2.95953757,2.2214876 L0,2.2214876 L0,0.185123967 L8.50867052,0.185123967 L8.50867052,1.15702479 C8.50867052,1.75867769 8.04624277,2.2214876 7.44508671,2.2214876 L5.50289017,2.2214876 L5.50289017,11.153719 L2.95953757,11.153719 Z" id="path126"></path>
                        <polygon id="path128" points="43.6531792 0.185123967 46.1965318 0.185123967 46.1965318 11.153719 43.6531792 11.153719"></polygon>
                        <path d="M35.2369942,6.01652893 L35.3294798,6.10909091 L38.566474,10.2743802 C38.982659,10.7834711 39.583815,11.107438 40.2774566,11.107438 L42.3121387,11.107438 L37.6878613,5.18347107 L37.6416185,5.09090909 L37.6878613,4.99834711 L41.4797688,0.185123967 L38.8439306,0.185123967 L35.3294798,4.90578512 L35.2369942,4.99834711 L35.2369942,4.81322314 L35.2369942,0.185123967 L32.6936416,0.185123967 L32.6936416,11.153719 L35.2369942,11.153719 L35.2369942,6.20165289 L35.2369942,6.01652893 Z" id="path140"></path>
                        <path d="M29.4104046,11.153719 C28.6705202,11.153719 27.9306358,10.7371901 27.5606936,10.1355372 L25.5722543,6.89586777 L24.3236994,6.89586777 L24.3236994,11.2 L21.7803468,11.2 L21.7803468,0.185123967 L26.3121387,0.185123967 C27.4682081,0.185123967 28.3930636,0.509090909 28.9942197,1.06446281 C29.6416185,1.6661157 29.9653179,2.49917355 29.9653179,3.47107438 C29.9653179,3.98016529 29.8265896,4.4892562 29.5491329,4.99834711 C29.2716763,5.50743802 28.8092486,5.92396694 28.1618497,6.24793388 L28.0231214,6.29421488 L31.1213873,11.107438 L29.4104046,11.107438 L29.4104046,11.153719 Z M24.3236994,5.18347107 L25.8034682,5.18347107 C26.3121387,5.18347107 26.7283237,5.0446281 27.0057803,4.76694215 C27.283237,4.4892562 27.4219653,4.11900826 27.4219653,3.65619835 C27.4219653,3.19338843 27.283237,2.8231405 27.0520231,2.54545455 C26.7745665,2.2677686 26.4046243,2.12892562 25.849711,2.12892562 L24.3699422,2.12892562 L24.3699422,5.18347107 L24.3236994,5.18347107 Z" id="path144"></path>
                        <path d="M48.2774566,10.6909091 L48.2774566,8.60826446 C49.0635838,8.9785124 50.1271676,9.34876033 51.1907514,9.34876033 C52.4393064,9.34876033 53.0404624,8.9322314 53.0404624,8.09917355 C53.0404624,7.12727273 52.2080925,7.03471074 50.4971098,6.29421488 C49.3410405,5.78512397 48.2774566,4.99834711 48.2774566,3.14710744 C48.2774566,1.01818182 49.8959538,0 52.1618497,0 C53.3641618,0 54.3815029,0.27768595 54.9364162,0.509090909 L54.9364162,2.54545455 C54.3815029,2.2677686 53.3641618,1.94380165 52.300578,1.94380165 C51.1907514,1.94380165 50.6820809,2.36033058 50.6820809,3.05454545 C50.6820809,3.79504132 51.3294798,4.02644628 52.4393064,4.44297521 C53.8728324,5.18347107 55.583815,5.50743802 55.583815,7.96033058 C55.583815,10.0892562 53.8728324,11.246281 51.6069364,11.246281 C50.265896,11.292562 49.1560694,11.061157 48.2774566,10.6909091" id="path148"></path>
                    </g>
                    <g id="g530" transform="translate(0.000000, 14.300826)">
                        <path d="M53.3179191,11.153719 L53.3179191,0.185123967 L60.1618497,0.185123967 L60.1618497,1.15702479 C60.1618497,1.75867769 59.699422,2.2214876 59.0982659,2.2214876 L55.8150289,2.2214876 L55.8150289,4.58181818 L59.5144509,4.58181818 L59.5144509,6.43305785 L55.8150289,6.43305785 L55.8150289,9.11735537 L60.1618497,9.11735537 L60.1618497,11.153719 L53.3179191,11.153719 Z" id="path152"></path>
                        <path d="M28.2543353,11.153719 L28.2543353,0.185123967 L29.5028902,0.185123967 C30.2427746,0.185123967 30.7976879,0.78677686 30.7976879,1.48099174 L30.7976879,9.16363636 L34.8208092,9.16363636 L34.8208092,11.153719 L28.2543353,11.153719 Z" id="path156"></path>
                        <polygon id="path160" points="12.5780347 11.153719 12.5780347 0.185123967 15.1213873 0.185123967 15.1213873 11.153719"></polygon>
                        <path d="M25.017341,11.153719 C24.2774566,11.153719 23.5375723,10.7371901 23.1676301,10.1355372 L21.1791908,6.89586777 L19.9306358,6.89586777 L19.9306358,11.2 L17.3872832,11.2 L17.3872832,0.185123967 L21.9190751,0.185123967 C23.0751445,0.185123967 24,0.509090909 24.6011561,1.06446281 C25.2485549,1.6661157 25.5722543,2.49917355 25.5722543,3.47107438 C25.5722543,3.98016529 25.433526,4.4892562 25.1560694,5.0446281 C24.8786127,5.55371901 24.416185,5.97024793 23.7687861,6.29421488 L23.6300578,6.34049587 L26.7283237,11.153719 L25.017341,11.153719 Z M19.9768786,5.18347107 L21.4566474,5.18347107 C22.0115607,5.18347107 22.3815029,5.0446281 22.6589595,4.76694215 C22.9364162,4.4892562 23.0751445,4.11900826 23.0751445,3.65619835 C23.0751445,3.19338843 22.9364162,2.8231405 22.7052023,2.54545455 C22.4277457,2.2677686 22.0578035,2.12892562 21.5028902,2.12892562 L20.0231214,2.12892562 L19.9768786,5.18347107 Z" id="path172"></path>
                        <path d="M7.02890173,0.185123967 L4.11560694,0.185123967 L0,11.153719 L1.80346821,11.153719 C2.26589595,11.153719 2.68208092,10.8760331 2.82080925,10.4132231 L3.23699422,9.11735537 L7.67630058,9.11735537 L8.32369942,11.153719 L11.0520231,11.153719 L7.02890173,0.185123967 Z M3.88439306,7.17355372 L4.85549133,4.39669421 C5.0867052,3.79504132 5.31791908,3.10082645 5.4566474,2.63801653 L5.50289017,2.63801653 C5.6416185,3.14710744 5.87283237,3.74876033 6.05780347,4.39669421 L7.02890173,7.17355372 L3.88439306,7.17355372 Z" id="path176"></path>
                        <path d="M62.1965318,10.6909091 L62.1965318,8.60826446 C62.982659,8.9785124 64.0462428,9.34876033 65.1098266,9.34876033 C66.3583815,9.34876033 66.9595376,8.9322314 66.9595376,8.09917355 C66.9595376,7.12727273 66.1271676,7.03471074 64.416185,6.29421488 C63.2601156,5.78512397 62.1965318,4.99834711 62.1965318,3.14710744 C62.1965318,1.01818182 63.8150289,0 66.0809249,0 C67.283237,0 68.300578,0.27768595 68.8554913,0.509090909 L68.8554913,2.54545455 C68.300578,2.2677686 67.283237,1.94380165 66.2196532,1.94380165 C65.1098266,1.94380165 64.6011561,2.36033058 64.6011561,3.05454545 C64.6011561,3.79504132 65.2485549,4.02644628 66.3583815,4.44297521 C67.7919075,5.18347107 69.5028902,5.50743802 69.5028902,7.96033058 C69.5028902,10.0892562 67.7919075,11.246281 65.5260116,11.246281 C64.1849711,11.292562 63.0751445,11.061157 62.1965318,10.6909091" id="path180"></path>
                        <path d="M41.3410405,0.185123967 L42.9132948,0.185123967 C43.6531792,0.185123967 44.3468208,0.555371901 44.7630058,1.20330579 L47.8150289,6.10909091 C48.1387283,6.66446281 48.5549133,7.35867769 48.7861272,7.8677686 L48.8323699,7.8677686 C48.7861272,7.35867769 48.7861272,6.7107438 48.7861272,6.20165289 L48.7861272,0.185123967 L51.0057803,0.185123967 L51.0057803,11.153719 L48.2312139,11.153719 L44.5317919,5.22975207 C44.2080925,4.67438017 43.8381503,4.02644628 43.5606936,3.51735537 L43.5144509,3.51735537 C43.5144509,3.98016529 43.5606936,4.53553719 43.5606936,5.09090909 L43.5606936,11.153719 L41.3410405,11.153719 L41.3410405,0.185123967 Z" id="path184"></path>
                        <polygon id="path186" points="36.4855491 0.185123967 39.0289017 0.185123967 39.0289017 11.153719 36.4855491 11.153719"></polygon>
                    </g>
                </g>
                <g id="g32">
                    <path d="M15.4450867,0.0925619835 C22.4739884,0.833057851 27.9768786,6.75702479 27.9768786,14.0231405 C27.9768786,21.7520661 21.734104,28 14.0115607,28 C6.28901734,28 0,21.7520661 0,14.0231405 C0,6.29421488 6.24277457,0 14.0115607,0 C14.4739884,0 14.982659,0.0462809917 15.4450867,0.0925619835 M16.1849711,27.0280992 C23.3526012,25.8247934 28.2080925,19.0214876 27.0057803,11.8016529 C25.9884393,5.83140496 21.132948,1.48099174 15.3988439,0.879338843 C14.2427746,0.740495868 13.0404624,0.78677686 11.8381503,0.971900826 C10.4046243,1.20330579 9.06358382,1.6661157 7.86127168,2.31404959 C14.150289,4.4892562 17.5722543,7.77520661 17.8034682,11.107438 C17.9421965,13.1900826 16.9710983,14.6710744 15.6763006,15.8743802 L24.6473988,15.2727273 C24.8786127,15.2727273 24.9710983,15.5504132 24.6936416,15.6429752 L3.28323699,21.7520661 C5.4566474,24.7603306 8.83236994,26.7504132 12.5780347,27.1206612 C13.7803468,27.2595041 14.982659,27.2595041 16.1849711,27.0280992 M10.3121387,14.3008264 C11.4682081,9.90413223 10.1271676,5.27603306 6.93641618,2.8231405 C2.58959538,5.6 0.0462427746,10.7834711 0.971098266,16.1983471 C1.24855491,18.0033058 1.89595376,19.6231405 2.82080925,21.0578512 C6.24277457,20.1322314 9.24855491,18.3272727 10.3121387,14.3008264" id="white" fill="#FFFFFF"></path>
                    <path d="M16.1849711,27.0280992 C23.3526012,25.8247934 28.2080925,19.0214876 27.0057803,11.8016529 C25.9884393,5.83140496 21.132948,1.48099174 15.3988439,0.879338843 C14.2427746,0.740495868 13.0404624,0.78677686 11.8381503,0.971900826 C10.4046243,1.20330579 9.06358382,1.6661157 7.86127168,2.31404959 C14.150289,4.4892562 17.5722543,7.77520661 17.8034682,11.107438 C17.9421965,13.1900826 16.9710983,14.6710744 15.6763006,15.8743802 L24.6473988,15.2727273 C24.8786127,15.2727273 24.9710983,15.5504132 24.6936416,15.6429752 L3.28323699,21.7520661 C5.4566474,24.7603306 8.83236994,26.7504132 12.5780347,27.1206612 C13.7803468,27.2595041 14.982659,27.2595041 16.1849711,27.0280992 Z M10.3121387,14.3008264 C11.4682081,9.90413223 10.1271676,5.27603306 6.93641618,2.8231405 C2.58959538,5.6 0.0462427746,10.7834711 0.971098266,16.1983471 C1.24855491,18.0033058 1.89595376,19.6231405 2.82080925,21.0578512 C6.24277457,20.1322314 9.24855491,18.3272727 10.3121387,14.3008264 L10.3121387,14.3008264 Z" id="red" fill="#C70A0C"></path>
                </g>
            </g>
        </g>
    </g>
</svg>