<?xml version="1.0" encoding="UTF-8"?>
<svg width="142px" height="64px" viewBox="0 0 142 64" version="1.1" xmlns="http://www.w3.org/2000/svg" xmlns:xlink="http://www.w3.org/1999/xlink">
    <title>Vistara-Header</title>
    <g id="Page-1" stroke="none" stroke-width="1" fill="none" fill-rule="evenodd">
        <g id="Vistara-Header">
            <rect id="Rectangle" x="0" y="0" width="142" height="64"></rect>
            <g id="vistara-logo-vector" transform="translate(18.000000, 18.000000)" fill-rule="nonzero">
                <path d="M27.7543333,13.7873418 C27.7013333,13.7164557 26.2526667,11.8025316 23.5496667,10.0481013 C23.7793333,9.00253165 23.8853333,8.08101266 23.9383333,7.31898734 C24.062,5.51139241 23.8853333,4.34177215 23.8853333,4.28860759 L23.85,4.05822785 L23.6203333,4.02278481 C23.5673333,4.02278481 22.4013333,3.8278481 20.5993333,3.96962025 C19.8573333,4.02278481 18.921,4.12911392 17.8963333,4.34177215 C16.1473333,1.63037975 14.2393333,0.212658228 14.1686667,0.141772152 L13.9743333,0 L13.78,0.141772152 C13.6916667,0.212658228 11.8013333,1.63037975 10.0346667,4.35949367 C8.99233333,4.12911392 8.07366667,4.02278481 7.314,3.96962025 C5.512,3.84556962 4.346,4.02278481 4.293,4.02278481 L4.04566667,4.05822785 L4.01033333,4.28860759 C3.99266667,4.34177215 3.83366667,5.51139241 3.95733333,7.31898734 C4.01033333,8.08101266 4.11633333,9.00253165 4.346,10.0481013 C1.60766667,11.8025316 0.194333333,13.6987342 0.141333333,13.7873418 L0,13.9822785 L0.141333333,14.1772152 C0.194333333,14.2658228 1.62533333,16.1620253 4.346,17.9341772 C4.134,18.9620253 4.01033333,19.9012658 3.95733333,20.6455696 C3.83366667,22.4531646 3.99266667,23.6227848 4.01033333,23.6759494 L4.04566667,23.9240506 L4.293,23.9594937 C4.32833333,23.9594937 4.96433333,24.0481013 5.989,24.0481013 C6.37766667,24.0481013 6.81933333,24.0303797 7.314,23.9949367 C8.07366667,23.9417722 9.01,23.835443 10.0346667,23.6050633 C11.8013333,26.3341772 13.6916667,27.7696203 13.78,27.8405063 L13.9743333,28 L14.1686667,27.8405063 C14.257,27.7873418 16.1473333,26.3341772 17.8963333,23.6227848 C18.921,23.835443 19.8396667,23.9594937 20.5993333,24.0126582 C21.094,24.0481013 21.5356667,24.0658228 21.9243333,24.0658228 C22.949,24.0658228 23.585,23.9772152 23.6203333,23.9772152 L23.8676667,23.9417722 L23.903,23.6936709 C23.903,23.6405063 24.0796667,22.4708861 23.956,20.6632911 C23.903,19.9012658 23.797,18.9797468 23.5673333,17.9518987 C26.288,16.1974684 27.7366667,14.2835443 27.7896667,14.2126582 L27.9486667,14.0177215 L27.7543333,13.7873418 Z M22.207,13.9822785 C22.4896667,13.3797468 22.737,12.7772152 22.9313333,12.1924051 C23.9913333,12.9367089 24.698,13.6278481 25.016,13.964557 C24.698,14.3012658 23.9913333,15.0101266 22.9136667,15.7544304 C22.737,15.1873418 22.4896667,14.5848101 22.207,13.9822785 M20.5993333,4.60759494 C21.8713333,4.51898734 22.8253333,4.58987342 23.2493333,4.62531646 C23.3553333,5.63544304 23.585,9.64050633 21.5533333,13.8405063 C21.2883333,14.3721519 21.0056667,14.9037975 20.7053333,15.3822785 C20.4756667,15.7367089 20.246,16.0911392 19.9986667,16.4101266 L19.928,16.5164557 L19.9456667,16.6582278 C20.193,18.235443 20.0693333,19.5468354 19.9986667,20.043038 C19.504,20.1139241 18.2143333,20.2379747 16.6243333,19.9898734 L16.483,19.9721519 L16.377,20.0607595 C16.112,20.2556962 15.8116667,20.4683544 15.5113333,20.6632911 C15.2286667,20.5392405 14.9283333,20.4151899 14.6456667,20.2556962 C15.2286667,19.9012658 15.794,19.5113924 16.324,19.0860759 C17.8433333,19.4582278 18.9386667,19.3518987 18.9916667,19.3518987 L19.2566667,19.3341772 L19.2743333,19.0683544 C19.2743333,19.0151899 19.3803333,17.9164557 19.0093333,16.4101266 C19.5746667,15.7012658 20.0693333,14.9392405 20.511,14.1594937 C20.7936667,13.6455696 21.0586667,13.0962025 21.2883333,12.5468354 C22.79,8.89620253 22.4896667,5.8835443 22.472,5.74177215 L22.4543333,5.47594937 L22.1893333,5.44050633 C22.0656667,5.42278481 19.1506667,5.13924051 15.582,6.57468354 C15.2993333,6.39746835 14.999,6.22025316 14.6986667,6.06075949 C16.9776667,5.05063291 19.133,4.71392405 20.5993333,4.60759494 M20.5993333,16.7113924 C20.7053333,16.5696203 20.8113333,16.4278481 20.8996667,16.2860759 C21.8536667,18.8911392 21.8713333,21.1417722 21.8536667,21.9037975 C21.094,21.9392405 18.868,21.9037975 16.2533333,20.964557 C16.3946667,20.8759494 16.5183333,20.7873418 16.642,20.6810127 C18.7266667,20.9822785 20.2636667,20.6810127 20.3343333,20.6810127 L20.5463333,20.6455696 L20.5816667,20.4329114 C20.617,20.3443038 20.8996667,18.7848101 20.5993333,16.7113924 M9.46933333,16.0734177 C8.93933333,15.4177215 8.46233333,14.7088608 8.03833333,13.9822785 C8.44466667,13.2556962 8.92166667,12.5468354 9.45166667,11.8911392 L9.55766667,11.7670886 L9.52233333,11.6075949 C9.25733333,10.5620253 9.222,9.71139241 9.23966667,9.28607595 C9.66366667,9.28607595 10.5116667,9.30379747 11.554,9.56962025 L11.713,9.60506329 L11.8366667,9.49873418 C12.508,8.96708861 13.2146667,8.47088608 13.9566667,8.04556962 C14.6986667,8.47088608 15.4053333,8.94936709 16.059,9.48101266 L16.1826667,9.58734177 L16.3416667,9.55189873 C17.384,9.28607595 18.232,9.25063291 18.6383333,9.25063291 C18.6383333,9.67594937 18.6206667,10.5265823 18.3556667,11.5721519 L18.3203333,11.7316456 L18.4263333,11.8556962 C18.9563333,12.5113924 19.4333333,13.2202532 19.8573333,13.964557 C19.4333333,14.7088608 18.9563333,15.4177215 18.4263333,16.0911392 L18.3203333,16.2151899 L18.3556667,16.3746835 C18.6206667,17.4025316 18.656,18.2708861 18.656,18.6962025 C18.232,18.6962025 17.384,18.678481 16.3593333,18.3949367 L16.2003333,18.3594937 L16.0766667,18.4658228 C15.423,18.9974684 14.7163333,19.4759494 13.992,19.8835443 C13.25,19.4582278 12.5433333,18.9797468 11.8896667,18.4481013 L11.766,18.3417722 L11.607,18.3772152 C10.5646667,18.643038 9.71666667,18.678481 9.29266667,18.6607595 C9.275,18.235443 9.31033333,17.3848101 9.57533333,16.3392405 L9.61066667,16.1797468 L9.46933333,16.0734177 Z M20.5993333,7.54936709 L20.564,7.33670886 L20.352,7.30126582 C20.2813333,7.2835443 18.7443333,7 16.6596667,7.30126582 C16.536,7.21265823 16.3946667,7.10632911 16.2533333,7.01772152 C18.868,6.06075949 21.0763333,6.06075949 21.836,6.07848101 C21.8713333,6.84050633 21.8536667,9.07341772 20.8996667,11.678481 C20.8113333,11.5367089 20.7053333,11.3949367 20.5993333,11.2531646 C20.8996667,9.16202532 20.617,7.62025316 20.5993333,7.54936709 M13.9213333,5.67088608 C13.3206667,5.38734177 12.7376667,5.13924051 12.1546667,4.9443038 C12.8966667,3.88101266 13.6033333,3.18987342 13.939,2.87088608 C14.2746667,3.18987342 14.9636667,3.88101266 15.7056667,4.9443038 C15.1226667,5.13924051 14.5396667,5.38734177 13.9213333,5.67088608 M13.939,0.815189873 C14.4513333,1.22278481 15.847,2.48101266 17.1896667,4.4835443 C16.9246667,4.55443038 16.642,4.62531646 16.3593333,4.71392405 C15.2286667,3.06582278 14.1863333,2.19746835 14.151,2.16202532 L13.939,1.98481013 L13.727,2.16202532 C13.674,2.19746835 12.6316667,3.06582278 11.501,4.71392405 C11.2183333,4.62531646 10.9356667,4.55443038 10.6706667,4.4835443 C12.031,2.48101266 13.4443333,1.24050633 13.939,0.815189873 M4.611,4.62531646 C5.618,4.51898734 9.593,4.28860759 13.78,6.32658228 C14.3276667,6.59240506 14.8576667,6.87594937 15.3523333,7.19493671 C15.7056667,7.40759494 16.059,7.6556962 16.3593333,7.88607595 L16.4653333,7.97468354 L16.589,7.95696203 C18.1613333,7.70886076 19.4686667,7.83291139 19.9633333,7.90379747 C20.034,8.4 20.1576667,9.69367089 19.9103333,11.2886076 L19.8926667,11.4303797 L19.981,11.5367089 C20.193,11.8202532 20.3873333,12.1392405 20.5816667,12.4405063 C20.458,12.7417722 20.3343333,13.0253165 20.1753333,13.3088608 C19.822,12.7240506 19.4333333,12.1392405 19.0093333,11.6075949 C19.3626667,10.0835443 19.2743333,8.98481013 19.2743333,8.94936709 L19.2566667,8.6835443 L18.974,8.64810127 C18.921,8.64810127 17.8433333,8.54177215 16.324,8.91392405 C15.6173333,8.36455696 14.8753333,7.85063291 14.098,7.42531646 C13.568,7.14177215 13.0203333,6.87594937 12.455,6.64556962 C8.81566667,5.13924051 5.81233333,5.44050633 5.68866667,5.45822785 L5.42366667,5.47594937 L5.38833333,5.74177215 C5.37066667,5.86582278 5.088,8.78987342 6.519,12.3696203 C6.34233333,12.6708861 6.16566667,12.9544304 6.00666667,13.2556962 C5.01733333,10.9518987 4.664,8.78987342 4.57566667,7.31898734 C4.505,6.02531646 4.57566667,5.05063291 4.611,4.62531646 M7.24333333,11.2531646 C7.155,11.3772152 7.06666667,11.5189873 6.97833333,11.643038 C6.02433333,9.02025316 6.02433333,6.78734177 6.042,6.04303797 C6.80166667,6.00759494 9.01,6.02531646 11.6246667,6.98227848 C11.4833333,7.07088608 11.342,7.17721519 11.2183333,7.26582278 C9.13366667,6.96455696 7.579,7.26582278 7.50833333,7.2835443 L7.29633333,7.31898734 L7.24333333,7.53164557 C7.24333333,7.62025316 6.943,9.16202532 7.24333333,11.2531646 M4.929,15.7544304 C3.869,15.0101266 3.16233333,14.3189873 2.862,13.9822785 C3.18,13.6455696 3.869,12.9544304 4.929,12.2101266 C5.12333333,12.7949367 5.37066667,13.3797468 5.65333333,13.9822785 C5.37066667,14.5848101 5.12333333,15.1873418 4.929,15.7544304 M0.812666667,13.9822785 C1.219,13.4683544 2.47333333,12.0683544 4.46966667,10.721519 C4.54033333,10.9873418 4.611,11.2708861 4.69933333,11.5544304 C3.05633333,12.6886076 2.19066667,13.7341772 2.15533333,13.7696203 L1.97866667,13.9822785 L2.15533333,14.1949367 C2.19066667,14.2481013 3.05633333,15.2759494 4.717,16.4278481 C4.62866667,16.7113924 4.558,16.9949367 4.48733333,17.2607595 C2.491,15.9139241 1.23666667,14.4962025 0.812666667,13.9822785 M7.261,23.3392405 C5.989,23.4278481 5.035,23.3746835 4.611,23.321519 C4.57566667,22.8962025 4.505,21.9392405 4.59333333,20.6632911 C4.69933333,19.0683544 5.088,16.6405063 6.28933333,14.1240506 C6.55433333,13.5924051 6.837,13.043038 7.155,12.5468354 C7.367,12.1924051 7.59666667,11.8556962 7.82633333,11.5367089 L7.91466667,11.4303797 L7.897,11.2886076 C7.64966667,9.69367089 7.791,8.4 7.86166667,7.88607595 C8.35633333,7.81518987 9.646,7.69113924 11.236,7.92151899 L11.3596667,7.93924051 L11.4656667,7.86835443 C11.7483333,7.6556962 12.0486667,7.46075949 12.349,7.26582278 C12.6493333,7.38987342 12.9496667,7.53164557 13.25,7.67341772 C12.6493333,8.0278481 12.0663333,8.43544304 11.5186667,8.86075949 C9.99933333,8.50632911 8.904,8.61265823 8.851,8.61265823 L8.586,8.64810127 L8.55066667,8.91392405 C8.55066667,8.96708861 8.44466667,10.0658228 8.798,11.5898734 C8.25033333,12.2810127 7.75566667,13.0253165 7.33166667,13.8050633 C7.03133333,14.3367089 6.76633333,14.8860759 6.53666667,15.4531646 C5.05266667,19.1037975 5.31766667,22.1164557 5.33533333,22.2405063 L5.37066667,22.5063291 L5.63566667,22.5240506 C5.671,22.5240506 5.936,22.5594937 6.37766667,22.5594937 C7.49066667,22.5594937 9.71666667,22.4 12.2606667,21.3898734 C12.5433333,21.5670886 12.826,21.7265823 13.1086667,21.8683544 C10.9003333,22.8962025 8.72733333,23.2329114 7.261,23.3392405 M6.97833333,16.3037975 C7.06666667,16.4278481 7.155,16.5696203 7.24333333,16.6936709 C6.943,18.7848101 7.24333333,20.3443038 7.261,20.4151899 L7.314,20.6278481 L7.526,20.6632911 C7.59666667,20.6810127 9.15133333,20.9822785 11.236,20.6810127 C11.3773333,20.7696203 11.501,20.8759494 11.6423333,20.964557 C9.02766667,21.921519 6.784,21.9392405 6.02433333,21.921519 C6.00666667,21.1594937 6.02433333,18.9265823 6.97833333,16.3037975 M13.9213333,22.2759494 C14.522,22.5594937 15.1226667,22.8075949 15.7056667,23.0025316 C14.9636667,24.0658228 14.2746667,24.7746835 13.939,25.0936709 C13.6033333,24.7746835 12.9143333,24.0658228 12.1546667,22.9848101 C12.7376667,22.8075949 13.3383333,22.5594937 13.9213333,22.2759494 M13.939,27.1493671 C13.4266667,26.7240506 12.0133333,25.4658228 10.6883333,23.4455696 C10.9533333,23.3746835 11.236,23.3037975 11.5186667,23.2151899 C12.6493333,24.8810127 13.6916667,25.7670886 13.7446667,25.8025316 L13.9566667,25.9797468 L14.1686667,25.8025316 C14.2216667,25.7670886 15.2463333,24.8810127 16.377,23.2151899 C16.6596667,23.3037975 16.9246667,23.3746835 17.2073333,23.4455696 C15.8646667,25.4481013 14.4513333,26.7240506 13.939,27.1493671 M23.2493333,23.321519 C22.8076667,23.356962 21.8713333,23.4278481 20.5993333,23.3392405 C19.0093333,23.2329114 16.5713333,22.843038 14.0803333,21.6202532 C13.5503333,21.3721519 13.0203333,21.0708861 12.5256667,20.7696203 C12.1723333,20.556962 11.8366667,20.3088608 11.501,20.078481 L11.395,19.9898734 L11.2536667,20.0075949 C9.66366667,20.2556962 8.374,20.1139241 7.86166667,20.043038 C7.791,19.5468354 7.64966667,18.235443 7.897,16.6405063 L7.91466667,16.4987342 L7.82633333,16.3924051 C7.632,16.1088608 7.43766667,15.8253165 7.24333333,15.5240506 C7.367,15.2227848 7.50833333,14.921519 7.64966667,14.6202532 C8.003,15.2227848 8.39166667,15.7898734 8.83333333,16.321519 C8.48,17.8455696 8.586,18.9443038 8.586,18.9974684 L8.62133333,19.2632911 L8.88633333,19.2987342 C8.93933333,19.2987342 10.0346667,19.4050633 11.554,19.0329114 C12.2606667,19.5822785 13.0026667,20.0962025 13.78,20.521519 C14.2923333,20.8050633 14.84,21.0708861 15.3876667,21.2835443 C18.0023333,22.364557 20.2813333,22.5240506 21.412,22.5240506 C21.8713333,22.5240506 22.1363333,22.5063291 22.1716667,22.4886076 L22.4366667,22.4531646 L22.472,22.1873418 C22.4896667,22.0632911 22.7546667,19.121519 21.3236667,15.5417722 C21.5003333,15.2582278 21.6593333,14.9746835 21.8183333,14.6911392 C22.8076667,16.9772152 23.1433333,19.156962 23.2493333,20.6101266 C23.3553333,21.9392405 23.2846667,22.8962025 23.2493333,23.321519 M23.373,17.243038 C23.3023333,16.9772152 23.2316667,16.6936709 23.1433333,16.4278481 C24.804,15.2936709 25.6873333,14.2481013 25.7226667,14.1949367 L25.8993333,13.9822785 L25.7226667,13.7696203 C25.6873333,13.7164557 24.804,12.6886076 23.1433333,11.5544304 C23.2316667,11.2708861 23.3023333,11.0050633 23.373,10.721519 C25.3693333,12.0506329 26.6413333,13.4683544 27.0653333,13.9822785 C26.6413333,14.4962025 25.387,15.9139241 23.373,17.243038" id="Shape" fill="#BA9653"></path>
                <path d="M35.6866667,22.7012658 L33.973,22.7012658 L33.973,24.0481013 L35.4393333,24.0481013 L35.4393333,24.4379747 L33.9376667,24.4379747 C33.9376667,24.4379747 33.973,24.5620253 33.973,24.6683544 L33.973,26.2987342 L33.549,26.2987342 L33.549,22.3291139 L35.7926667,22.3291139 L35.6866667,22.7012658 Z" id="Path" fill="#501C4B"></path>
                <path d="M37.0646667,26.3341772 C36.623,26.3341772 36.411,26.1037975 36.411,25.6253165 L36.411,22.0101266 L36.835,22.0101266 L36.835,25.6253165 C36.835,25.8734177 36.9056667,25.9620253 37.0823333,25.9620253 L37.2943333,25.9620253 L37.2943333,26.3518987 L37.0646667,26.3518987 L37.0646667,26.3341772 Z" id="Path" fill="#501C4B"></path>
                <path d="M38.7606667,27.0607595 C38.6016667,27.4683544 38.372,27.6101266 37.8773333,27.6101266 L37.4886667,27.6101266 L37.4886667,27.2202532 L37.8773333,27.2202532 C38.213,27.2202532 38.2836667,27.1493671 38.3896667,26.8658228 L38.584,26.3518987 L37.4533333,23.321519 L37.895,23.321519 L38.7076667,25.5012658 C38.743,25.5898734 38.7783333,25.7493671 38.796,25.8734177 C38.8313333,25.7316456 38.8666667,25.5898734 38.902,25.5012658 L39.7146667,23.321519 L40.1563333,23.321519 L38.7606667,27.0607595 Z" id="Path" fill="#501C4B"></path>
                <path d="M43.0536667,26.3696203 C42.612,26.3696203 42.2763333,26.2101266 42.2763333,25.5544304 L42.2763333,23.9240506 C42.2763333,23.8177215 42.3116667,23.764557 42.3293333,23.7113924 L41.7816667,23.7113924 L41.7816667,23.3392405 L42.294,23.3392405 L42.294,22.3291139 L42.718,22.2050633 L42.718,23.3392405 L43.778,23.3392405 L43.6543333,23.7113924 L42.718,23.7113924 L42.718,25.5721519 C42.718,25.9265823 42.877,26.0329114 43.195,26.0329114 C43.3363333,26.0329114 43.4953333,25.9797468 43.672,25.8734177 L43.937,26.156962 C43.7073333,26.3164557 43.354,26.3696203 43.0536667,26.3696203" id="Path" fill="#501C4B"></path>
                <path d="M46.4103333,26.2987342 L46.4103333,24.4025316 C46.4103333,23.764557 46.1453333,23.6050633 45.792,23.6050633 C45.5446667,23.6050633 45.368,23.6759494 45.103,23.8708861 L44.8203333,24.0658228 L44.8203333,26.2987342 L44.3963333,26.2987342 L44.3963333,22.0101266 L44.8203333,22.0101266 L44.8203333,23.5341772 L44.785,23.7291139 L45.05,23.5341772 C45.3326667,23.3392405 45.5623333,23.2329114 45.8096667,23.2329114 C46.4103333,23.2329114 46.852,23.5518987 46.852,24.3670886 L46.852,26.2810127 L46.4103333,26.2810127 L46.4103333,26.2987342 Z" id="Path" fill="#501C4B"></path>
                <path d="M47.8943333,24.9341772 C47.912,25.6607595 48.124,26.0151899 48.813,26.0151899 C49.237,26.0151899 49.502,25.8734177 49.6433333,25.5898734 L50.0143333,25.7316456 C49.82,26.1392405 49.4843333,26.3696203 48.813,26.3696203 C47.8766667,26.3696203 47.4526667,25.8911392 47.4526667,24.8101266 C47.4526667,23.8177215 47.7883333,23.2506329 48.8306667,23.2506329 C49.926,23.2506329 50.0673333,23.9772152 50.0673333,24.8101266 L50.0673333,24.9341772 L47.8943333,24.9341772 L47.8943333,24.9341772 Z M48.8306667,23.6050633 C48.2476667,23.6050633 47.9473333,23.835443 47.912,24.5797468 L49.6256667,24.5797468 C49.6256667,23.9772152 49.4843333,23.6050633 48.8306667,23.6050633" id="Shape" fill="#501C4B"></path>
                <path d="M54.0953333,26.2987342 L54.0953333,24.4025316 C54.0953333,23.764557 53.8303333,23.6050633 53.477,23.6050633 C53.2296667,23.6050633 53.0706667,23.6759494 52.788,23.8708861 L52.5053333,24.0658228 L52.5053333,26.2987342 L52.0813333,26.2987342 L52.0813333,23.3392405 L52.417,23.3392405 L52.5053333,23.6936709 L52.7173333,23.5518987 C53,23.356962 53.2296667,23.2506329 53.477,23.2506329 C54.0776667,23.2506329 54.5193333,23.5696203 54.5193333,24.3848101 L54.5193333,26.2987342 L54.0953333,26.2987342 L54.0953333,26.2987342 Z" id="Path" fill="#501C4B"></path>
                <path d="M55.597,24.9341772 C55.6146667,25.6607595 55.8266667,26.0151899 56.5156667,26.0151899 C56.9396667,26.0151899 57.2046667,25.8734177 57.346,25.5898734 L57.717,25.7316456 C57.5226667,26.1392405 57.1693333,26.3696203 56.5156667,26.3696203 C55.5793333,26.3696203 55.1553333,25.8911392 55.1553333,24.8101266 C55.1553333,23.8177215 55.491,23.2506329 56.5333333,23.2506329 C57.6286667,23.2506329 57.7876667,23.9772152 57.7876667,24.8101266 L57.7876667,24.9341772 L55.597,24.9341772 L55.597,24.9341772 Z M56.5156667,23.6050633 C55.9503333,23.6050633 55.6323333,23.835443 55.597,24.5797468 L57.3106667,24.5797468 C57.3106667,23.9772152 57.1693333,23.6050633 56.5156667,23.6050633" id="Shape" fill="#501C4B"></path>
                <path d="M61.215,26.2987342 L60.791,26.2987342 L60.1903333,24.3316456 C60.1373333,24.1367089 60.0843333,23.7822785 60.0843333,23.7822785 C60.0843333,23.7822785 60.049,24.1544304 59.996,24.3316456 L59.3776667,26.2987342 L58.9536667,26.2987342 L58.035,23.3392405 L58.459,23.3392405 L59.0596667,25.3594937 C59.1126667,25.5189873 59.1656667,25.9088608 59.1656667,25.9088608 C59.1656667,25.9088608 59.2186667,25.5367089 59.2716667,25.3594937 L59.89,23.3392405 L60.2963333,23.3392405 L60.9146667,25.3594937 C60.9676667,25.5367089 61.003,25.9088608 61.003,25.9088608 C61.003,25.9088608 61.0736667,25.5189873 61.109,25.3594937 L61.7273333,23.3392405 L62.1513333,23.3392405 L61.215,26.2987342 Z" id="Path" fill="#501C4B"></path>
                <path d="M65.8613333,22.4531646 C65.7553333,22.435443 65.667,22.4177215 65.5963333,22.4 C65.508,22.3822785 65.4196667,22.364557 65.2783333,22.364557 C64.9603333,22.364557 64.6776667,22.5240506 64.6776667,23.0025316 L64.6776667,23.321519 L65.6846667,23.321519 L65.5963333,23.6936709 L64.6776667,23.6936709 L64.6776667,26.2810127 L64.2536667,26.2810127 L64.2536667,23.9417722 C64.2536667,23.8531646 64.2713333,23.7822785 64.3066667,23.6936709 L63.7943333,23.6936709 L63.7943333,23.321519 L64.2536667,23.321519 L64.2536667,23.0025316 C64.2536667,22.3291139 64.6776667,21.9924051 65.2783333,21.9924051 C65.561,21.9924051 65.6846667,22.0278481 65.9496667,22.0632911 L65.8613333,22.4531646 Z" id="Path" fill="#501C4B"></path>
                <path d="M66.3913333,24.9341772 C66.409,25.6607595 66.621,26.0151899 67.31,26.0151899 C67.734,26.0151899 67.999,25.8734177 68.1403333,25.5898734 L68.5113333,25.7316456 C68.317,26.1392405 67.9636667,26.3696203 67.31,26.3696203 C66.3736667,26.3696203 65.932,25.8911392 65.932,24.8101266 C65.932,23.8177215 66.2676667,23.2506329 67.31,23.2506329 C68.4053333,23.2506329 68.5643333,23.9772152 68.5643333,24.8101266 L68.5643333,24.9341772 L66.3913333,24.9341772 L66.3913333,24.9341772 Z M67.3276667,23.6050633 C66.7446667,23.6050633 66.4443333,23.835443 66.409,24.5797468 L68.1226667,24.5797468 C68.1226667,23.9772152 67.9813333,23.6050633 67.3276667,23.6050633" id="Shape" fill="#501C4B"></path>
                <path d="M69.5536667,24.9341772 C69.5713333,25.6607595 69.7833333,26.0151899 70.4723333,26.0151899 C70.8963333,26.0151899 71.1613333,25.8734177 71.3026667,25.5898734 L71.6736667,25.7316456 C71.4793333,26.1392405 71.1436667,26.3696203 70.4723333,26.3696203 C69.5183333,26.3696203 69.0943333,25.8911392 69.0943333,24.8101266 C69.0943333,23.8177215 69.43,23.2506329 70.4723333,23.2506329 C71.5676667,23.2506329 71.7266667,23.9772152 71.7266667,24.8101266 L71.7266667,24.9341772 L69.5536667,24.9341772 L69.5536667,24.9341772 Z M70.4723333,23.6050633 C69.8893333,23.6050633 69.589,23.835443 69.5536667,24.5797468 L71.285,24.5797468 C71.2673333,23.9772152 71.126,23.6050633 70.4723333,23.6050633" id="Shape" fill="#501C4B"></path>
                <path d="M73.0163333,26.3341772 C72.5923333,26.3341772 72.3626667,26.1037975 72.3626667,25.6253165 L72.3626667,22.0101266 L72.7866667,22.0101266 L72.7866667,25.6253165 C72.7866667,25.8734177 72.8573333,25.9620253 73.034,25.9620253 L73.246,25.9620253 L73.246,26.3518987 L73.0163333,26.3518987 L73.0163333,26.3341772 Z" id="Path" fill="#501C4B"></path>
                <path d="M74.1661477,22.5240506 L73.7231097,22.5240506 L73.6876667,22.4708861 L73.6876667,22.0455696 L73.7231097,21.9924051 L74.1661477,21.9924051 L74.2015907,22.0455696 L74.2015907,22.4708861 L74.1661477,22.5240506 Z M73.7231097,23.3392405 L74.1484262,23.3392405 L74.1484262,26.2987342 L73.7231097,26.2987342 L73.7231097,23.3392405 Z" id="Shape" fill="#501C4B"></path>
                <path d="M76.9383333,26.2987342 L76.9383333,24.4025316 C76.9383333,23.764557 76.6733333,23.6050633 76.32,23.6050633 C76.0726667,23.6050633 75.896,23.6759494 75.631,23.8708861 L75.3483333,24.0658228 L75.3483333,26.2987342 L74.9243333,26.2987342 L74.9243333,23.3392405 L75.26,23.3392405 L75.3483333,23.6936709 L75.5603333,23.5518987 C75.843,23.356962 76.0726667,23.2506329 76.32,23.2506329 C76.9206667,23.2506329 77.3623333,23.5696203 77.3623333,24.3848101 L77.3623333,26.2987342 L76.9383333,26.2987342 L76.9383333,26.2987342 Z" id="Path" fill="#501C4B"></path>
                <path d="M80.7543333,23.6582278 L80.5423333,23.6582278 C80.4893333,23.6582278 80.3833333,23.6582278 80.2773333,23.6227848 C80.454,23.8177215 80.5246667,24.0835443 80.5246667,24.278481 C80.5246667,24.9696203 80.136,25.2886076 79.3233333,25.2886076 C79.182,25.2886076 79.1113333,25.2708861 78.9876667,25.2531646 L78.7756667,25.2177215 C78.599,25.2177215 78.5283333,25.3240506 78.5283333,25.4481013 C78.5283333,25.5544304 78.599,25.6253165 78.7403333,25.643038 L79.9593333,25.8556962 C80.5953333,25.9620253 80.7366667,26.2987342 80.7366667,26.6708861 C80.7366667,27.3797468 80.1183333,27.5924051 79.3233333,27.5924051 C78.6696667,27.5924051 77.91,27.4683544 77.91,26.6 C77.91,26.2455696 78.0866667,25.9974684 78.334,25.8202532 C78.228,25.7316456 78.1573333,25.6253165 78.1573333,25.4303797 C78.1573333,25.235443 78.2633333,25.1113924 78.4576667,25.0050633 C78.228,24.7924051 78.1396667,24.5620253 78.1396667,24.2607595 C78.1396667,23.5164557 78.705,23.2329114 79.341,23.2329114 C79.6413333,23.2329114 79.8886667,23.2683544 80.1183333,23.4101266 L80.5776667,23.2329114 L80.878,23.2329114 L80.7543333,23.6582278 Z M79.871,26.2278481 L78.6166667,25.9974684 C78.4223333,26.121519 78.334,26.3518987 78.334,26.6177215 C78.334,27.1139241 78.6696667,27.2734177 79.3056667,27.2734177 C80.03,27.2734177 80.2773333,27.043038 80.2773333,26.6886076 C80.2596667,26.4227848 80.1536667,26.2810127 79.871,26.2278481 M79.288,23.5873418 C78.811,23.5873418 78.5106667,23.7822785 78.5106667,24.278481 C78.5106667,24.8101266 78.8463333,24.9341772 79.288,24.9341772 C79.765,24.9341772 80.0653333,24.7924051 80.0653333,24.278481 C80.0653333,23.835443 79.8003333,23.5873418 79.288,23.5873418" id="Shape" fill="#501C4B"></path>
                <path d="M31.482,9.53417722 L33.2133333,9.53417722 C33.4253333,9.53417722 33.496,9.67594937 33.5136667,9.71139241 C34.4323333,11.4303797 37.5593333,17.0126582 37.5593333,17.0126582 C37.5593333,17.0126582 40.7393333,11.4126582 41.6756667,9.69367089 C41.711,9.64050633 41.764,9.5164557 41.9583333,9.5164557 L42.8416667,9.5164557 C42.983,9.5164557 43.0536667,9.67594937 42.983,9.78227848 C41.9053333,11.678481 38.9196667,16.8886076 38.2836667,18.0227848 C38.213,18.164557 38.1246667,18.235443 37.9656667,18.235443 L36.3226667,18.235443 C36.1636667,18.235443 36.0576667,18.1291139 35.987,18.0050633 C35.351,16.8886076 32.383,11.6962025 31.3053333,9.81772152 C31.3053333,9.74683544 31.2346667,9.53417722 31.482,9.53417722" id="Path" fill="#501C4B"></path>
                <path d="M57.611,11.0405063 C57.1516667,10.7924051 55.7736667,10.0658228 53.6713333,10.0658228 C51.3923333,10.0658228 50.9506667,11.0405063 50.9506667,11.7316456 C50.9506667,12.6 51.8516667,12.8481013 52.894,12.9189873 C53.53,12.9721519 55.1376667,13.043038 56.0033333,13.2025316 C58.0703333,13.5746835 58.618,14.7443038 58.618,15.6835443 C58.618,17.6506329 56.339,18.4835443 53.583,18.4835443 C51.251,18.4835443 49.5726667,17.7392405 48.9013333,17.3670886 C48.7776667,17.2962025 48.7776667,17.1367089 48.8306667,17.0303797 C49.0073333,16.7113924 48.9543333,16.8177215 49.0956667,16.5518987 C49.1663333,16.4101266 49.29,16.3924051 49.4136667,16.4632911 C49.9613333,16.8177215 51.7103333,17.6683544 53.6006667,17.6683544 C55.544,17.6683544 56.5863333,16.8177215 56.5863333,15.9670886 C56.5863333,15.2582278 56.3213333,14.8151899 54.855,14.6025316 C54.0776667,14.4962025 52.3463333,14.4962025 51.463,14.2835443 C50.5796667,14.0886076 49.0426667,13.6632911 49.0426667,11.9443038 C49.0426667,10.9873418 49.8023333,9.23291139 53.7773333,9.23291139 C55.9503333,9.23291139 57.399,9.81772152 58.1233333,10.1898734 C58.247,10.2607595 58.2823333,10.3670886 58.2116667,10.4911392 C58.088,10.6860759 58.0526667,10.7746835 57.929,10.9696203 C57.8406667,11.0759494 57.717,11.0936709 57.611,11.0405063" id="Path" fill="#501C4B"></path>
                <path d="M46.428,9.53417722 L45.0146667,9.53417722 C44.8733333,9.53417722 44.7496667,9.65822785 44.7496667,9.8 L44.7496667,17.9518987 C44.7496667,18.1113924 44.8733333,18.2531646 45.0146667,18.2531646 L46.428,18.2531646 C46.5693333,18.2531646 46.693,18.1113924 46.693,17.9518987 L46.693,9.8 C46.693,9.65822785 46.5693333,9.53417722 46.428,9.53417722" id="Path" fill="#501C4B"></path>
                <path d="M66.992,17.7924051 C66.8683333,17.4379747 66.9213333,17.5797468 66.8153333,17.2607595 C66.7623333,17.0835443 66.6033333,17.1189873 66.5326667,17.1367089 C65.9673333,17.3670886 65.19,17.5620253 64.6423333,17.5620253 C63.2466667,17.5620253 62.434,16.9594937 62.434,15.7012658 L62.434,10.6329114 L66.356,10.6329114 C66.515,10.6329114 66.6563333,10.5088608 66.6563333,10.3670886 L66.6563333,9.95949367 C66.6563333,9.8 66.515,9.69367089 66.356,9.69367089 L62.434,9.69367089 L62.434,7.58481013 C62.434,7.38987342 62.2573333,7.31898734 62.1336667,7.3721519 C61.798,7.47848101 61.162,7.69113924 60.8086667,7.79746835 C60.685,7.83291139 60.5613333,7.93924051 60.5613333,8.13417722 L60.5613333,15.2405063 C60.5613333,17.0126582 61.586,18.4481013 64.3596667,18.4481013 C65.3313333,18.4481013 66.25,18.235443 66.833,18.0582278 C66.9213333,18.0405063 67.0626667,17.9696203 66.992,17.7924051" id="Path" fill="#501C4B"></path>
                <path d="M90.418,17.8455696 C89.4286667,17.0835443 87.2026667,15.4 86.9376667,15.1873418 C88.51,15.1873418 90.365,14.2835443 90.365,12.2987342 C90.365,10.1189873 88.245,9.5164557 87.2556667,9.5164557 L80.8426667,9.5164557 C80.7013333,9.5164557 80.5776667,9.64050633 80.5776667,9.81772152 L80.5776667,17.9341772 C80.5776667,18.0936709 80.7013333,18.235443 80.8426667,18.235443 L82.203,18.235443 C82.3443333,18.235443 82.468,18.0936709 82.468,17.9341772 L82.468,15.2582278 L84.5703333,15.2582278 C84.5703333,15.2582278 86.973,17.2075949 87.8033333,17.8987342 C87.874,17.9696203 88.1743333,18.2177215 88.4923333,18.2177215 L90.365,18.2177215 C90.5063333,18.2531646 90.6476667,18.0227848 90.418,17.8455696 M82.4856667,14.443038 L82.4856667,10.4025316 L86.496,10.4025316 C87.768,10.4025316 88.3333333,11.4303797 88.3333333,12.3341772 C88.3333333,13.3443038 87.8386667,14.443038 86.2133333,14.443038 L82.4856667,14.443038 L82.4856667,14.443038 Z" id="Shape" fill="#501C4B"></path>
                <path d="M78.3163333,13.1139241 L78.3163333,13.043038 C78.3163333,12.4936709 78.175,11.235443 77.115,10.3670886 C76.744,10.0658228 75.6133333,9.35696203 73.4226667,9.35696203 C71.603,9.35696203 70.225,9.81772152 68.8823333,10.5265823 C68.7586667,10.5797468 68.7233333,10.7037975 68.7763333,10.8101266 C68.9353333,11.164557 68.9,11.1291139 69.006,11.3417722 C69.059,11.4658228 69.165,11.5012658 69.3063333,11.4126582 C69.9776667,11.0227848 71.497,10.2253165 73.2106667,10.2253165 C75.2953333,10.2253165 76.426,11.1822785 76.426,12.4936709 L76.426,13.5037975 C75.684,13.3088608 74.306,13.0075949 72.9103333,13.0075949 C69.3593333,13.0075949 68.1226667,14.3012658 68.1226667,15.7898734 C68.1226667,17.9518987 70.2603333,18.4835443 72.1506667,18.4835443 C73.776,18.4835443 75.2423333,18.1113924 76.3906667,17.243038 L76.426,17.243038 C76.426,17.6506329 76.426,17.9696203 76.426,17.9696203 C76.426,18.1291139 76.5496667,18.2708861 76.691,18.2708861 L78.0336667,18.2708861 C78.1926667,18.2708861 78.2986667,18.1291139 78.2986667,17.9696203 L78.2986667,13.1139241 L78.3163333,13.1139241 Z M72.5216667,17.5974684 C70.6136667,17.5974684 70.119,16.6227848 70.119,15.6835443 C70.119,14.1063291 72.0093333,13.8050633 73.193,13.8050633 C74.5356667,13.8050633 75.7016667,14.0531646 76.426,14.2303797 L76.426,16.3924051 C75.6663333,16.9063291 74.4826667,17.5974684 72.5216667,17.5974684" id="Shape" fill="#501C4B"></path>
                <path d="M102.113333,13.1139241 L102.113333,13.043038 C102.113333,12.4936709 101.989667,11.235443 100.912,10.3670886 C100.541,10.0658228 99.428,9.35696203 97.2373333,9.35696203 C95.4176667,9.35696203 94.0396667,9.81772152 92.697,10.5265823 C92.5733333,10.5797468 92.5556667,10.7037975 92.591,10.8101266 C92.75,11.164557 92.7146667,11.1291139 92.8206667,11.3417722 C92.8736667,11.4658228 92.9796667,11.5012658 93.121,11.4126582 C93.7923333,11.0227848 95.3116667,10.2253165 97.0076667,10.2253165 C99.0923333,10.2253165 100.223,11.1822785 100.223,12.4936709 L100.223,13.5037975 C99.481,13.3088608 98.103,13.0075949 96.725,13.0075949 C93.1563333,13.0075949 91.9196667,14.3012658 91.9196667,15.7898734 C91.9196667,17.9518987 94.0573333,18.4835443 95.9653333,18.4835443 C97.5906667,18.4835443 99.0393333,18.1113924 100.205333,17.243038 L100.240667,17.243038 C100.240667,17.6506329 100.240667,17.9696203 100.240667,17.9696203 C100.240667,18.1291139 100.364333,18.2708861 100.523333,18.2708861 L101.866,18.2708861 C102.007333,18.2708861 102.131,18.1291139 102.131,17.9696203 L102.131,13.1139241 L102.113333,13.1139241 Z M96.3186667,17.5974684 C94.4106667,17.5974684 93.916,16.6227848 93.916,15.6835443 C93.916,14.1063291 95.8063333,13.8050633 96.99,13.8050633 C98.3326667,13.8050633 99.481,14.0531646 100.223,14.2303797 L100.223,16.3924051 C99.4456667,16.9063291 98.262,17.5974684 96.3186667,17.5974684" id="Shape" fill="#501C4B"></path>
                <path d="M82.256,6.98227848 L82.044,6.37974684 L81.2136667,6.37974684 L81.0016667,6.98227848 L80.5423333,6.98227848 L81.408,4.58987342 L81.8673333,4.58987342 L82.733,6.98227848 L82.256,6.98227848 Z M81.673,5.29873418 L81.6376667,5.10379747 L81.5846667,5.29873418 L81.3373333,6.00759494 L81.9203333,6.00759494 L81.673,5.29873418 Z" id="Shape" fill="#501C4B"></path>
                <polygon id="Path" fill="#501C4B" points="84.482 4.96202532 84.482 6.98227848 84.0403333 6.98227848 84.0403333 4.96202532 83.3513333 4.96202532 83.3513333 4.58987342 85.1533333 4.58987342 85.1533333 4.96202532"></polygon>
                <path d="M86.7963333,6.98227848 L86.5843333,6.37974684 L85.754,6.37974684 L85.542,6.98227848 L85.0826667,6.98227848 L85.9483333,4.58987342 L86.4076667,4.58987342 L87.2733333,6.98227848 L86.7963333,6.98227848 Z M86.231,5.29873418 L86.178,5.10379747 L86.125,5.29873418 L85.8776667,6.00759494 L86.4606667,6.00759494 L86.231,5.29873418 Z" id="Shape" fill="#501C4B"></path>
                <polygon id="Path" fill="#501C4B" points="88.3333333 4.96202532 88.3333333 6.98227848 87.8916667 6.98227848 87.8916667 4.96202532 87.2026667 4.96202532 87.2026667 4.58987342 89.0223333 4.58987342 89.0223333 4.96202532"></polygon>
                <path d="M90.6653333,6.98227848 L90.4533333,6.37974684 L89.623,6.37974684 L89.411,6.98227848 L88.9516667,6.98227848 L89.8173333,4.58987342 L90.2766667,4.58987342 L91.1423333,6.98227848 L90.6653333,6.98227848 Z M90.1,5.29873418 L90.047,5.10379747 L89.994,5.29873418 L89.7466667,6.00759494 L90.3296667,6.00759494 L90.1,5.29873418 Z" id="Shape" fill="#501C4B"></path>
                <path d="M92.962,7.03544304 C92.4673333,7.03544304 92.2376667,6.80506329 92.0786667,6.55696203 L92.4496667,6.36202532 C92.5556667,6.52151899 92.7146667,6.64556962 92.962,6.64556962 C93.333,6.64556962 93.439,6.48607595 93.439,6.27341772 C93.439,6.11392405 93.3683333,6.00759494 93.1563333,5.9721519 L92.6616667,5.8835443 C92.326,5.83037975 92.0963333,5.65316456 92.0963333,5.21012658 C92.0963333,4.87341772 92.326,4.51898734 92.962,4.51898734 C93.4566667,4.51898734 93.6686667,4.69620253 93.8276667,4.9443038 L93.4566667,5.13924051 C93.3506667,4.97974684 93.2093333,4.90886076 92.962,4.90886076 C92.644,4.90886076 92.538,5.03291139 92.538,5.21012658 C92.538,5.38734177 92.591,5.44050633 92.7676667,5.45822785 L93.2446667,5.52911392 C93.598,5.58227848 93.8983333,5.77721519 93.8983333,6.2556962 C93.8806667,6.7164557 93.6156667,7.03544304 92.962,7.03544304" id="Path" fill="#501C4B"></path>
                <rect id="Rectangle" fill="#501C4B" x="94.2516667" y="4.58987342" width="1" height="2.39240506"></rect>
                <path d="M96.8663333,6.98227848 L96.6543333,6.37974684 L95.824,6.37974684 L95.612,6.98227848 L95.1526667,6.98227848 L96.0183333,4.58987342 L96.4776667,4.58987342 L97.3433333,6.98227848 L96.8663333,6.98227848 Z M96.2833333,5.29873418 L96.2303333,5.10379747 L96.1773333,5.29873418 L95.93,6.00759494 L96.513,6.00759494 L96.2833333,5.29873418 Z" id="Shape" fill="#501C4B"></path>
                <path d="M98.8273333,7.03544304 C98.6506667,7.03544304 98.4386667,7 98.262,6.84050633 L98.4563333,6.55696203 C98.58,6.68101266 98.7036667,6.68101266 98.8096667,6.68101266 C99.004,6.68101266 99.0746667,6.57468354 99.0746667,6.29113924 L99.0746667,4.60759494 L99.5163333,4.60759494 L99.5163333,6.29113924 C99.5163333,6.82278481 99.2513333,7.03544304 98.8273333,7.03544304" id="Path" fill="#501C4B"></path>
                <polygon id="Path" fill="#501C4B" points="101.283 6.98227848 100.841333 6.98227848 99.9756667 4.58987342 100.452667 4.58987342 101.018 6.27341772 101.071 6.46835443 101.106333 6.27341772 101.689333 4.58987342 102.148667 4.58987342"></polygon>
                <path d="M104.851667,9.39240506 C105.046,9.39240506 105.222667,9.44556962 105.417,9.53417722 C105.593667,9.62278481 105.735,9.76455696 105.841,9.95949367 C105.947,10.1367089 106,10.3316456 106,10.5265823 C106,10.721519 105.947,10.9164557 105.858667,11.0936709 C105.752667,11.2708861 105.611333,11.4126582 105.434667,11.5189873 C105.258,11.6253165 105.063667,11.678481 104.869333,11.678481 C104.675,11.678481 104.480667,11.6253165 104.304,11.5189873 C104.127333,11.4126582 103.986,11.2708861 103.88,11.0936709 C103.774,10.9164557 103.721,10.721519 103.721,10.5265823 C103.721,10.3316456 103.774,10.1367089 103.88,9.95949367 C103.986,9.78227848 104.127333,9.64050633 104.304,9.53417722 C104.480667,9.44556962 104.657333,9.39240506 104.851667,9.39240506 M104.851667,9.58734177 C104.692667,9.58734177 104.533667,9.62278481 104.392333,9.71139241 C104.233333,9.8 104.127333,9.90632911 104.039,10.0658228 C103.950667,10.2253165 103.915333,10.3848101 103.915333,10.5443038 C103.915333,10.7037975 103.950667,10.8632911 104.039,11.0227848 C104.127333,11.1822785 104.233333,11.2886076 104.392333,11.3772152 C104.533667,11.4658228 104.692667,11.5012658 104.869333,11.5012658 C105.028333,11.5012658 105.187333,11.4658228 105.346333,11.3772152 C105.487667,11.2886076 105.611333,11.1822785 105.699667,11.0227848 C105.788,10.8810127 105.823333,10.721519 105.823333,10.5443038 C105.823333,10.3848101 105.788,10.2253165 105.699667,10.0658228 C105.611333,9.90632911 105.487667,9.8 105.346333,9.71139241 C105.169667,9.62278481 105.010667,9.58734177 104.851667,9.58734177 M104.357,11.164557 L104.357,9.94177215 L104.781,9.94177215 C104.922333,9.94177215 105.028333,9.95949367 105.099,9.97721519 L105.258,10.1012658 L105.311,10.278481 C105.311,10.3670886 105.275667,10.4379747 105.222667,10.5088608 C105.152,10.5797468 105.081333,10.6151899 104.975333,10.6151899 L105.081333,10.6860759 C105.134333,10.7392405 105.187333,10.8101266 105.258,10.9341772 L105.399333,11.1822785 L105.134333,11.1822785 L105.028333,10.9873418 C104.94,10.8278481 104.869333,10.7392405 104.816333,10.7037975 L104.657333,10.6683544 L104.533667,10.6683544 L104.533667,11.2 L104.357,11.2 L104.357,11.164557 Z M104.551333,10.4734177 L104.798667,10.4734177 C104.904667,10.4734177 104.993,10.4556962 105.028333,10.4202532 L105.081333,10.278481 L105.046,10.1721519 L104.957667,10.1012658 C104.922333,10.0835443 104.851667,10.0835443 104.763333,10.0835443 L104.533667,10.0835443 L104.533667,10.4734177 L104.551333,10.4734177 Z" id="Shape" fill="#501C4B"></path>
            </g>
        </g>
    </g>
</svg>