<?xml version="1.0" encoding="UTF-8"?>
<svg width="129px" height="64px" viewBox="0 0 129 64" version="1.1" xmlns="http://www.w3.org/2000/svg" xmlns:xlink="http://www.w3.org/1999/xlink">
    <title>Volotea</title>
    <g id="Taskboard" stroke="none" stroke-width="1" fill="none" fill-rule="evenodd">
        <g id="Volotea">
            <rect id="Rectangle" x="0" y="0" width="129" height="64"></rect>
            <g transform="translate(18.000000, 18.000000)" fill-rule="nonzero">
                <polygon id="Path" fill="#432129" points="0 13.4331616 2.69436327 13.4331616 5.21240417 23.7020676 5.25237307 23.7020676 7.74989067 13.4331616 10.4288849 13.4331616 6.78103133 27.802037 3.66631516 27.802037"></polygon>
                <path d="M11.7132315,18.0491614 C11.7132315,14.508174 13.5781814,13.2337873 16.2315449,13.2337873 C18.8890319,13.2337873 20.752951,14.5081269 20.752951,18.0491614 L20.752951,23.1856609 C20.752951,26.7276833 18.8890319,28 16.2315449,28 C13.5781814,28 11.7132315,26.7277303 11.7132315,23.1856609 L11.7132315,18.0491614 Z M14.451687,23.5428222 C14.451687,25.1362642 15.142732,25.5706725 16.2315449,25.5706725 C17.3234504,25.5706725 18.0165102,25.1362642 18.0165102,23.5428222 L18.0165102,17.6888481 C18.0165102,16.099499 17.3234504,15.6620328 16.2315449,15.6620328 C15.142732,15.6620328 14.451687,16.099499 14.451687,17.6888481 L14.451687,23.5428222 Z" id="Shape" fill="#432129"></path>
                <polygon id="Path" fill="#432129" points="22.9741537 27.802037 22.9741537 13.4331616 25.7095167 13.4331616 25.7095167 25.3747795 30.1089074 25.3747795 30.1089074 27.802037"></polygon>
                <path d="M31.5366829,18.0491614 C31.5366829,14.508174 33.3985403,13.2337873 36.0539655,13.2337873 C38.7114524,13.2337873 40.572279,14.5081269 40.572279,18.0491614 L40.572279,23.1856609 C40.572279,26.7276833 38.7114524,28 36.0539655,28 C33.3985403,28 31.5366829,26.7277303 31.5366829,23.1856609 L31.5366829,18.0491614 L31.5366829,18.0491614 Z M34.2700311,23.5428222 C34.2700311,25.1362642 34.9630909,25.5706725 36.0539655,25.5706725 C37.1438093,25.5706725 37.8378999,25.1362642 37.8378999,23.5428222 L37.8378999,17.6888481 C37.8378999,16.099499 37.1438093,15.6620328 36.0539655,15.6620328 C34.9630909,15.6620328 34.2700311,16.099499 34.2700311,17.6888481 L34.2700311,23.5428222 Z" id="Shape" fill="#432129"></path>
                <polygon id="Path" fill="#432129" points="51.0785714 13.4331616 51.0785714 15.8583492 47.8890248 15.8583492 47.8890248 27.802037 45.1536149 27.802037 45.1536149 15.8583492 41.9630375 15.8583492 41.9630375 13.4331616"></polygon>
                <polygon id="Path" fill="#432129" points="52.7046451 27.802037 52.7046451 13.4331616 60.1982756 13.4331616 60.1982756 15.8583492 55.440055 15.8583492 55.440055 19.165714 59.0684161 19.165714 59.0684161 21.5929245 55.440055 21.5929245 55.440055 25.3747795 60.3951212 25.3747795 60.3951212 27.802037"></polygon>
                <polygon id="Path" fill="#432129" points="72.1104144 27.802037 69.4139894 27.802037 66.8938868 17.5320961 66.8579945 17.5320961 64.3584152 27.802037 61.6835444 27.802037 65.3313979 13.4331616 68.4410067 13.4331616"></polygon>
                <polygon id="Path" fill="#ED164A" points="86.3177898 16.7725166 82.9775047 20.1251382 79.6351579 16.7725166 82.9775047 13.4158022"></polygon>
                <polygon id="Path" fill="#ED164A" points="86.3177898 3.35469151 82.9775047 6.70938301 79.6351579 3.35469151 82.9775047 0"></polygon>
                <polygon id="Path" fill="#ED164A" points="93 10.0626632 89.6597149 13.4163197 86.3173681 10.0626632 89.6597149 6.70900666"></polygon>
                <polygon id="Path" fill="#ED164A" points="79.6355796 10.0626632 76.2952945 13.4163197 72.9529476 10.0626632 76.2952945 6.70900666"></polygon>
                <path d="M77.03657,14.1621622 L77.03657,12.6716534 L76.2952945,13.4158963 L77.03657,14.1621622 Z M77.7798604,14.9074401 L78.5231508,15.652718 L78.5231508,11.1811916 L77.7798604,11.9274575 L77.7798604,14.9074401 Z M79.2654572,10.4369017 L79.2654572,16.3999718 L79.6355796,16.7726107 L80.0057019,16.3999718 L80.0057019,10.4369017 L79.6355796,10.0621927 L79.2654572,10.4369017 Z M82.2325743,12.6716534 L82.2325743,14.1621622 L82.9779264,13.4158963 L82.2325743,12.6716534 Z M80.7489923,15.6526709 L81.4922827,14.907393 L81.4922827,11.9274104 L80.7489923,11.1811446 L80.7489923,15.6526709 Z" id="Shape" fill="#ED164A"></path>
                <path d="M83.7187802,7.45226166 L83.7187802,5.96382283 L82.9754898,6.71008868 L83.7187802,7.45226166 Z M84.4610398,8.19857455 L85.2043302,8.94385247 L85.2043302,4.47129113 L84.4610398,5.21859196 L84.4610398,8.19857455 Z M85.9456057,3.72803613 L85.9456057,9.69011832 L86.3177898,10.0627573 L86.6879121,9.69011832 L86.6879121,3.72803613 L86.3177898,3.3543622 L85.9456057,3.72803613 Z M88.9147845,5.96382283 L88.9147845,7.45226166 L89.6580749,6.71008868 L88.9147845,5.96382283 Z M87.4302185,8.94380542 L88.1745398,8.19852751 L88.1745398,5.21854492 L87.4302185,4.47124409 L87.4302185,8.94380542 Z" id="Shape" fill="#ED164A"></path>
                <path d="M83.7187802,14.1621622 L83.7187802,12.6716534 L82.9754898,13.4158963 L83.7187802,14.1621622 Z M84.4610398,14.9074401 L85.2043302,15.652718 L85.2043302,11.1811916 L84.4610398,11.9274575 L84.4610398,14.9074401 Z M85.9456057,10.4369017 L85.9456057,16.3999718 L86.3177898,16.7726107 L86.6879121,16.3999718 L86.6879121,10.4369017 L86.3177898,10.0621927 L85.9456057,10.4369017 Z M88.9147845,12.6716534 L88.9147845,14.1621622 L89.6580749,13.4158963 L88.9147845,12.6716534 Z M87.4302185,15.6526709 L88.1745398,14.907393 L88.1745398,11.9274104 L87.4302185,11.1811446 L87.4302185,15.6526709 Z" id="Shape" fill="#ED164A"></path>
                <path d="M77.03657,7.45226166 L77.03657,5.96382283 L76.2952945,6.71008868 L77.03657,7.45226166 Z M77.7798604,8.19857455 L78.5231508,8.94385247 L78.5231508,4.47129113 L77.7798604,5.21859196 L77.7798604,8.19857455 Z M79.2654572,3.72803613 L79.2654572,9.69011832 L79.6355796,10.0627573 L80.0057019,9.69011832 L80.0057019,3.72803613 L79.6355796,3.3543622 L79.2654572,3.72803613 Z M82.2325743,5.96382283 L82.2325743,7.45226166 L82.9779264,6.71008868 L82.2325743,5.96382283 Z M80.7489923,8.94380542 L81.4922827,8.19852751 L81.4922827,5.21854492 L80.7489923,4.47124409 L80.7489923,8.94380542 Z" id="Shape" fill="#ED164A"></path>
            </g>
        </g>
    </g>
</svg>