<?xml version="1.0" encoding="UTF-8"?>
<svg width="97px" height="64px" viewBox="0 0 97 64" version="1.1" xmlns="http://www.w3.org/2000/svg" xmlns:xlink="http://www.w3.org/1999/xlink">
    <title>Wizz</title>
    <defs>
        <linearGradient x1="49.9998791%" y1="100%" x2="49.9998791%" y2="5.36607795e-15%" id="linearGradient-1">
            <stop stop-color="#161998" offset="0%"></stop>
            <stop stop-color="#441E93" offset="13%"></stop>
            <stop stop-color="#6E228F" offset="27%"></stop>
            <stop stop-color="#90258C" offset="41%"></stop>
            <stop stop-color="#AB2889" offset="55%"></stop>
            <stop stop-color="#BE2A87" offset="69%"></stop>
            <stop stop-color="#C92B86" offset="84%"></stop>
            <stop stop-color="#CD2B86" offset="100%"></stop>
        </linearGradient>
    </defs>
    <g id="Taskboard" stroke="none" stroke-width="1" fill="none" fill-rule="evenodd">
        <g id="Wizz">
            <rect id="Rectangle" x="0" y="0" width="97" height="64"></rect>
            <g transform="translate(18.000000, 18.000000)" fill="url(#linearGradient-1)" fill-rule="nonzero" id="Shape">
                <path d="M44.8260424,9.93906667 L50.7187133,9.93906667 L43.7402294,19.0152667 L37.8456815,19.0152667 L44.8260424,9.93906667 Z M44.3830832,9.0524 L36.9649248,18.704 C36.7875534,18.9340667 36.7584608,19.2248 36.8884393,19.4819333 C37.0137254,19.7362667 37.2793132,19.901 37.5603858,19.901 L44.1827193,19.901 L51.66094,10.1761333 C51.8242343,9.9582 51.8481653,9.6754 51.7317947,9.43646667 C51.6121394,9.19846667 51.3686057,9.0524 51.0941024,9.0524 L44.3830832,9.0524 Z M23.1975284,4.3344 C23.2355366,4.27093333 23.3063913,4.22846667 23.3856922,4.22846667 L27.2503233,4.22846667 L27.80543,1.05606667 C27.8241995,0.9576 27.9110082,0.888066667 28.0142402,0.888066667 L31.6311145,0.885266667 C31.6972768,0.885266667 31.751239,0.905333333 31.7892472,0.9478 C31.828663,0.9968 31.8483709,1.06213333 31.8389862,1.12 L31.4790819,3.17286667 L48.4828018,3.185 C48.5747721,3.185 48.6404652,3.24053333 48.6728425,3.29326667 C48.6925505,3.33246667 48.7197662,3.41226667 48.663927,3.48786667 L47.1285855,5.48146667 L59.7303986,5.4782 C59.8035995,5.4782 59.8561539,5.52393333 59.8768003,5.565 C59.8969775,5.5944 59.9134008,5.656 59.8749234,5.71246667 L49.4015667,19.3461333 C49.2823806,19.4945333 49.2875422,19.8716 49.3705971,20.0330667 C49.4569366,20.1954667 49.7558402,20.4269333 49.9430655,20.4269333 L57.3100772,20.4344 C57.3954782,20.4344 57.4456865,20.4782667 57.4686791,20.5044 C57.5085642,20.5501333 57.5259259,20.6112667 57.5165412,20.6705333 L56.9562729,23.8564667 C56.9384419,23.9530667 56.8506947,24.0230667 56.7469935,24.0230667 L28.7190333,24.0230667 L28.2582431,24.0202667 C28.2924974,24.178 28.3061053,24.3418 28.3061053,24.5088667 C28.3061053,25.942 27.1381758,27.104 25.6948046,27.104 C24.2523719,27.104 23.083504,25.942 23.083504,24.5088667 C23.083504,23.0752667 24.2523719,21.9146667 25.6948046,21.9146667 C26.6797319,21.9146667 27.5384345,22.4574 27.9851476,23.2586667 L39.4082388,8.36873333 C39.5917102,7.9842 39.5002091,7.84653333 39.4012002,7.6202 C39.3275301,7.4494 39.0520884,7.27393333 38.751777,7.27673333 L30.7559886,7.27673333 L28.7129332,18.8762 C28.6932253,18.9672 28.6054781,19.0311333 28.5074077,19.0311333 L24.8881872,19.0311333 C24.8041939,19.0311333 24.7525779,18.9863333 24.7281776,18.9597333 C24.7061235,18.9336 24.6662384,18.8762 24.6817232,18.7936 L26.9007422,6.20293333 L17.8740413,23.7967333 C17.7928634,23.9381333 17.6427078,24.0291333 17.4733134,24.0291333 L14.3988765,24.0440667 C14.2890751,24.0440667 14.1989817,23.9661333 14.1891278,23.8728 L13.3412176,11.0917333 L6.67196045,23.8 C6.59219026,23.94 6.43828072,24.0305333 6.2731095,24.0305333 L3.1545643,24.0286667 C3.0475784,24.0286667 2.95654654,23.9502667 2.94763104,23.8494667 L0.913491195,4.4478 C0.908798831,4.38713333 0.92991447,4.3274 0.96651491,4.28633333 C1.00452306,4.24853333 1.05895448,4.228 1.12464758,4.228 L5.31633646,4.228 C5.43083014,4.228 5.52702361,4.3204 5.52702361,4.4422 L6.1558004,17.0996 L12.3206284,4.3372 C12.3539442,4.27093333 12.4285528,4.228 12.5069152,4.228 L16.3283766,4.21166667 C16.4339548,4.21166667 16.5282713,4.291 16.5348406,4.38433333 L17.1561096,17.1397333 L23.1975284,4.3344 Z M27.8363996,0 C27.4047021,0 27.0377592,0.3066 26.9603352,0.7322 L26.5000143,3.34086667 L23.2496137,3.34086667 C22.9178635,3.34086667 22.6213061,3.51866667 22.452381,3.82666667 L17.8768568,13.5300667 L17.4226359,4.14913333 C17.3836893,3.69506667 16.9970385,3.34086667 16.5348406,3.34086667 L12.3745906,3.34086667 C12.0423712,3.34086667 11.7359598,3.52473333 11.5773579,3.82853333 L6.87279364,13.5688 L6.40824959,4.22473333 C6.40824959,3.7366 6.00846016,3.34133333 5.51857735,3.34133333 L0.890967848,3.34133333 C0.638049421,3.34133333 0.403431215,3.43933333 0.233567633,3.61713333 C0.0693348888,3.79633333 -0.0151276655,4.046 0.00223408176,4.30686667 L2.07672826,24.122 C2.12646732,24.5704667 2.50748729,24.9088 2.96264661,24.9088 L6.40261875,24.9102 C6.82493152,24.9102 7.20923615,24.6810667 7.40819238,24.3086667 L12.6617633,14.3014667 L13.3093095,24.122 C13.3613948,24.5704667 13.741007,24.9088 14.1933509,24.9088 L17.6079843,24.9102 C18.0284201,24.9102 18.4164786,24.6782667 18.6149656,24.304 L24.9993963,11.858 L23.7629583,18.8771333 C23.7160347,19.1356667 23.7887663,19.3988667 23.9562837,19.6028 C24.1247396,19.8020667 24.3743734,19.9178 24.637615,19.9178 L28.6843098,19.9178 C29.1047456,19.9178 29.4623038,19.6266 29.5561511,19.2075333 L31.5030129,8.16106667 L38.4547504,8.16106667 L27.9494856,21.8320667 C27.3207088,21.3094 26.5253531,21.0242667 25.7023124,21.0242667 C23.7704661,21.0242667 22.1933625,22.5894667 22.1933625,24.5116667 C22.1933625,26.4352667 23.7704661,28 25.7023124,28 C27.4774338,28 28.988375,26.6518 29.1924928,24.9097333 L56.926711,24.9083333 C57.3635701,24.9083333 57.730513,24.5998667 57.8018369,24.1752 L58.4367138,20.5851333 C58.480822,20.3270667 58.4071519,20.0624667 58.2396345,19.8641333 C58.0725863,19.6658 57.8243603,19.5519333 57.5592417,19.5519333 L50.366786,19.5454 L60.8532813,5.90146667 C61.0315912,5.63686667 61.0475452,5.31766667 60.900205,5.04326667 C60.7561494,4.7656 60.467569,4.59153333 60.1522421,4.59153333 L48.9304533,4.59153333 L49.6418157,3.668 C49.8285718,3.3908 49.846872,3.0534 49.6896778,2.75846667 C49.5329529,2.46913333 49.2321723,2.28526667 48.9055838,2.28526667 L32.5376792,2.28526667 L32.7619742,1.03366667 C32.8042055,0.777466667 32.7263123,0.505866667 32.555041,0.3052 C32.3884621,0.108266667 32.1491515,0 31.8812175,0 L27.8363996,0 Z"></path>
            </g>
        </g>
    </g>
</svg>